<?xml version="1.0" encoding="UTF-8"?>
<svg width="120px" height="112px" viewBox="0 0 120 112" version="1.1" xmlns="http://www.w3.org/2000/svg" xmlns:xlink="http://www.w3.org/1999/xlink">
    <!-- Generator: Sketch 51 (57462) - http://www.bohemiancoding.com/sketch -->
    <title>connected</title>
    <desc>Created with Sketch.</desc>
    <defs>
        <polygon id="path-1" points="0.479786344 0.308928256 30.7953655 0.308928256 30.7953655 30.8050076 0.479786344 30.8050076"></polygon>
        <polygon id="path-3" points="0 0.0181754155 13.4217174 0.0181754155 13.4217174 5.52166925 0 5.52166925"></polygon>
    </defs>
    <g id="fusion-app-connecteurs-etape-1---201806" stroke="none" stroke-width="1" fill="none" fill-rule="evenodd">
        <g id="440---interapp-connecteur---branded-modal-connecting-data" transform="translate(-580.000000, -80.000000)">
            <rect fill="#FFFFFF" x="0" y="0" width="1280" height="768"></rect>
            <g id="modal-interapp" transform="translate(368.000000, 48.000000)">
                <g id="components/modal/modal-interapp-provider">
                    <g id="connected">
                        <g transform="translate(212.000000, 32.000000)">
                            <path d="M40.8930538,107.850979 C43.0635366,109.262952 48.6310952,110.488772 53.1149572,110.980028 C65.3600331,112.323255 82.4759503,111.619586 89.7242814,109.173352 C97.0328607,106.709352 97.3588193,102.970869 78.7760883,101.09931 C62.955509,99.5042759 44.4932745,101.735779 40.5454676,105.080331 C39.4864883,105.975559 39.5467366,106.97429 40.8930538,107.850979" id="Fill-1" fill="#BBD9FD"></path>
                            <path d="M53.0057379,72.3553986 C52.8612966,72.3353159 52.750069,72.3716193 52.6535172,72.4264607 C51.7806897,72.3314538 50.8646069,72.6535503 50.1547586,73.4251917 C48.8269793,74.8603366 48.9536552,77.3645021 50.5208828,78.5269848 C51.9745655,79.6029572 54.5830069,78.7169986 55.4836414,77.1513159 C56.6901517,75.0588469 55.0240552,72.647371 53.0057379,72.3553986" id="Fill-3" fill="#FF9300"></path>
                            <path d="M85.8797462,22.5686952 C85.4665048,20.2352331 84.873291,17.991371 83.771829,16.1700193 C81.8238014,12.9652745 78.3471669,12.704971 74.6025048,13.3985986 C72.8946979,13.6612193 71.1922979,14.1988193 69.7216221,14.6244193 C62.6069186,16.6844469 36.866229,23.792971 35.8103393,24.2123917 C31.9111945,25.8058814 31.695691,28.7680883 32.5391669,32.1435366 C32.6187255,32.6865434 43.7862841,79.4739641 44.5509738,81.9472331 C45.5890979,85.2979641 47.3007669,88.323509 50.4977876,88.6587366 C53.7002152,89.0070952 92.6878014,78.3431503 94.4975669,77.709771 C96.7143945,76.9304055 97.7054014,75.6729159 97.951029,74.1643917 C98.2893462,73.3564469 98.1618979,72.4349572 97.9888772,71.280971 C97.5401048,68.2477021 87.9575393,27.9400607 85.8797462,22.5686952" id="Fill-5" fill="#FFB15C"></path>
                            <path d="M93.202229,48.321589 C91.2225324,43.0830786 89.4930979,37.7657821 87.9814841,32.3905545 C86.6691531,28.4126234 85.5066703,24.3868028 84.5264772,20.3045959 C83.8343945,17.8174234 83.2265048,15.3086234 82.7298428,12.7666097 C82.4494566,12.3749959 82.1312221,12.0830234 81.7481048,11.9833821 C81.4321876,11.8953269 81.132491,11.93472 80.8382014,12.0073269 C80.7949462,12.0104166 80.7509186,11.9965131 80.7038014,12.0135062 C80.5848497,12.0660303 80.4821186,12.1077407 80.3616221,12.1525407 C80.2017324,12.2120166 80.0356634,12.2699476 79.8695945,12.3116579 C79.8348359,12.3255614 79.807029,12.3726786 79.7738152,12.3981683 C71.8040497,15.6701131 52.0318014,21.7652303 43.5437462,25.2866648 C43.1266428,25.4882648 42.6747807,25.6311614 42.3434152,26.0474924 C41.8598841,26.5287062 41.5547807,27.269451 41.6652359,28.3902234 C41.7664221,29.4986372 42.1742566,30.5514372 42.4708634,31.6165959 C42.50176,31.7224166 42.5589186,31.8027476 42.6021738,31.8923476 C47.353291,47.1004028 52.1121324,62.3038234 56.8740634,77.5010648 C56.9095945,77.6238786 56.9636634,77.70112 57.007691,77.7961269 C57.007691,77.7961269 57.0084634,77.7992166 57.007691,77.8053959 C57.119691,78.1931476 57.231691,78.5762648 57.3560497,78.9493407 C57.6480221,79.9442097 57.9971531,80.8788303 58.4868634,81.5716855 C58.6398014,81.8466648 58.8058703,82.1108303 58.9943393,82.3325131 C59.8857048,83.3721821 61.1439669,83.1613131 62.1426979,82.6600166 C70.3858979,79.2158234 88.8643531,70.4960441 96.9322152,67.1020579 C97.7903669,66.8656993 98.690229,66.3813959 99.0640772,65.2583062 C99.3228359,64.4634924 99.2842152,63.5860303 99.1096497,62.6846234 C96.7066703,58.0733131 94.9733738,53.0016441 93.202229,48.321589" id="Fill-7" fill="#BBD9FD"></path>
                            <path d="M46.4738207,16.0861352 C46.310069,17.0995421 46.5464276,19.2568938 46.5626483,20.2772524 C46.5680552,20.3807559 46.5981793,20.4711283 46.6174897,20.558411 C47.2616828,33.9188524 47.9058759,47.281611 48.5608828,60.6428248 C48.6265379,61.9875972 49.2290207,68.1336938 49.4746483,69.6399007 C49.4761931,69.6453076 49.4816,69.6530317 49.4846897,69.6623007 C49.4993655,69.7820248 49.5372138,69.9079283 49.6438069,70.0207007 C50.3799172,70.8286455 50.9051586,71.7926179 51.7285517,72.5140524 C51.9510069,73.0516524 52.9373793,73.0354317 53.056331,72.3031834 C53.1729655,71.5794317 53.5112828,70.9306041 53.8534621,70.282549 C53.9106207,70.2763697 53.9755034,70.2647834 54.0372966,70.2562869 C54.4621241,70.8232386 54.8776828,71.3963697 55.4160552,71.8683145 C55.632331,72.4066869 56.6241103,72.3858317 56.7392,71.6535834 C56.8573793,70.9553214 57.174069,70.3288938 57.5008,69.7032386 C57.5440552,69.6978317 57.5834483,69.69088 57.6236138,69.6847007 C58.0368552,70.2354317 58.4385103,70.78848 58.9629793,71.245749 C59.1815724,71.7810317 60.1718069,71.7640386 60.2884414,71.0317903 C60.399669,70.3482041 60.7094069,69.726411 61.0330483,69.1115697 C61.0855724,69.1046179 61.1350069,69.0968938 61.1890759,69.0829903 C61.5984552,69.6275421 61.9970207,70.1713214 62.5106759,70.6200938 C62.729269,71.1615559 63.7171862,71.1414731 63.8361379,70.4061352 C63.9473655,69.7333628 64.252469,69.1185214 64.569931,68.5098593 C64.6510345,68.4928662 64.7321379,68.4805076 64.8147862,68.4666041 C65.215669,69.0026593 65.6119172,69.5387145 66.1232552,69.9859421 C66.3433931,70.5250869 67.3313103,70.506549 67.4502621,69.7719834 C67.5591724,69.0999834 67.8611862,68.4874593 68.1801931,67.8795697 C68.2288552,67.8726179 68.2790621,67.863349 68.3277241,67.8533076 C68.7316966,68.3893628 69.1279448,68.9261903 69.6331034,69.3687834 C69.8555586,69.9125628 70.841931,69.8870731 70.9608828,69.1563697 C71.0690207,68.4851421 71.3741241,67.8757076 71.6869517,67.2678179 C71.7958621,67.2485076 71.9070897,67.2276524 72.0175448,67.2122041 C72.4161103,67.7436248 72.8115862,68.2781352 73.3198345,68.7222731 C73.5368828,69.2621903 74.5240276,69.2421076 74.6452966,68.5075421 C74.7534345,67.8417214 75.0539034,67.2307421 75.3705931,66.6290317 C75.4362483,66.6197628 75.5026759,66.6043145 75.5667862,66.5942731 C75.9684414,67.1287834 76.3592828,67.6594317 76.8659862,68.0981628 C77.0845793,68.63808 78.0709517,68.6195421 78.1914483,67.8872938 C78.301131,67.2245628 78.5985103,66.6174455 78.9082483,66.0226869 C78.9816276,66.0056938 79.0565517,65.9979697 79.1229793,65.9848386 C79.5192276,66.5116248 79.9116138,67.0399559 80.4121379,67.4740524 C80.6315034,68.0147421 81.6194207,67.9946593 81.7399172,67.262411 C81.8465103,66.6104938 82.1361655,66.0157352 82.4397241,65.4317903 C82.5416828,65.4093903 82.6529103,65.3939421 82.7618207,65.3761766 C83.1472552,65.892149 83.5334621,66.4119834 84.0262621,66.8391283 C84.2425379,67.3782731 85.232,67.36128 85.3540414,66.6290317 C85.4567724,66.0018317 85.7255724,65.4271559 86.0214069,64.8594317 C86.1380414,64.8370317 86.253131,64.8254455 86.3659034,64.8045903 C86.7451586,65.3058869 87.1151448,65.8010041 87.5894069,66.2165628 C87.8103172,66.7549352 88.7990069,66.7356248 88.9156414,66.0033766 C89.0909793,64.9467145 89.7359448,64.0383559 90.1615448,63.0813352 C90.5817379,62.3158731 89.9136,61.3341352 89.6308966,59.579211 C88.9604414,55.3811421 88.4830897,51.0911559 88.0520828,47.0437076 C87.5021241,41.8917076 87.1947034,36.7389352 87.0919724,31.5738041 C86.8486621,27.7101903 86.7451586,23.8419421 86.8216276,19.9590179 C86.7814621,17.5722593 86.8216276,15.1909076 86.9707034,12.7979697 C86.9498483,12.7415834 86.9158621,12.6991007 86.8942345,12.6504386 C86.8695172,12.5894179 86.8532966,12.5237628 86.8054069,12.4627421 C86.7853241,12.4380248 86.7745103,12.4148524 86.7552,12.3947697 C86.7134897,12.3206179 86.6686897,12.2495559 86.6192552,12.1869903 C86.0677517,11.3798179 85.6436966,10.4954041 84.9670621,9.77783172 C84.8009931,9.21937655 83.8161655,9.14136276 83.6246069,9.85970759 C83.4222345,10.6243972 82.9711448,11.2840386 82.5409103,11.9467697 C82.1392552,11.2979421 81.7684966,10.6267145 81.2370759,10.0682593 C81.0702345,9.50594207 80.0869517,9.43488 79.8969379,10.1493628 C79.7046069,10.8692524 79.2936828,11.49568 78.883531,12.1221076 C78.5073655,11.5026317 78.1489655,10.877749 77.6453517,10.3416938 C77.4839172,9.78478345 76.496,9.71217655 76.3052138,10.4305214 C76.1136552,11.1473214 75.7035034,11.7722041 75.295669,12.3994041 C74.918731,11.7752938 74.556469,11.1527283 74.0536276,10.6243972 C73.8891034,10.06208 72.9050483,9.98792828 72.7134897,10.7078179 C72.5172966,11.4493352 72.0870621,12.0904386 71.6699586,12.7299972 C71.2822069,12.0950731 70.9160828,11.4493352 70.3993379,10.9032386 C70.233269,10.3471007 69.247669,10.2714041 69.0584276,10.9874317 C68.8715034,11.6965076 68.4683034,12.3136662 68.0627862,12.9277352 C67.6935724,12.3159834 67.3351724,11.706549 66.8439172,11.1828524 C66.6793931,10.6197628 65.6930207,10.5471559 65.5037793,11.2655007 C65.3014069,12.0278731 64.8472276,12.6875145 64.4169931,13.3510179 C64.0153379,12.696011 63.6445793,12.0278731 63.1147034,11.4678731 C62.9509517,10.9101903 61.9630345,10.836811 61.7737931,11.5505214 C61.5853241,12.2719559 61.1682207,12.8991559 60.761931,13.5240386 C60.3842207,12.9022455 60.0235034,12.2742731 59.5214345,11.7474869 C59.3569103,11.1874869 58.3736276,11.1133352 58.1836138,11.8285903 C57.9920552,12.5461628 57.5803586,13.17568 57.1709793,13.7982455 C56.7963586,13.1787697 56.4340966,12.5538869 55.9312552,12.0224662 C55.7705931,11.4655559 54.7826759,11.3875421 54.5918897,12.109749 C54.3987862,12.8497214 53.9646897,13.4915972 53.545269,14.1342455 C53.1582897,13.4954593 52.7890759,12.8543559 52.2769655,12.3059421 C52.111669,11.7474869 51.1237517,11.6710179 50.9376,12.39168 C50.8016552,12.8922041 50.5606621,13.3463834 50.2895448,13.7882041 C50.0531862,13.4143559 49.8052414,13.0520938 49.4993655,12.7245903 C49.334069,12.1715421 48.3476966,12.0935283 48.1569103,12.8056938 C47.8857931,13.8422731 47.1558621,14.6865214 46.6360276,15.6002869 C46.6298483,15.6203697 46.6306207,15.6319559 46.6182621,15.6497214 C46.5580138,15.7470455 46.5047172,15.8783559 46.4738207,16.0861352" id="Fill-9" fill="#FFE2A1"></path>
                            <path d="M99.2525462,28.8905159 C99.4665048,26.7679228 99.5012634,24.6715917 98.9937876,22.8378814 C98.0954703,19.5867917 95.1502566,18.4984607 91.7346428,18.1833159 C90.1859531,17.9878952 88.5862841,18.0404193 87.2090703,18.0465986 C80.4295945,18.0844469 56.25536,17.9508193 55.4814014,18.0373297 C51.717429,18.4590676 50.7998014,20.9725021 50.7071117,24.1000055 C50.6453186,24.5943503 48.8401876,67.8557021 48.898891,70.1829848 C48.9815393,73.3390676 49.7176497,76.3754262 52.4033324,77.4606676 C55.0874703,78.5374124 91.46816,78.8672331 93.2014566,78.7629572 C95.2993324,78.6301021 96.472629,77.7850814 97.0465324,76.5360883 C97.5439669,75.9135228 97.6528772,75.0932193 97.7965462,74.0520055 C98.1495393,71.3130262 99.7383945,34.0463779 99.2525462,28.8905159" id="Fill-11" fill="#B7F6F7"></path>
                            <path d="M101.659928,61.6728386 C101.781197,56.0728386 102.165087,50.4944662 102.772204,44.9454455 C103.043321,40.7651421 103.468921,36.5941076 104.086852,32.441611 C104.374963,29.8771972 104.747266,27.32128 105.237749,24.7800386 C105.121887,24.3127283 104.935735,23.9218869 104.619818,23.6878455 C104.35797,23.4877903 104.06677,23.410549 103.767073,23.369611 C103.72459,23.35648 103.689059,23.3263559 103.639625,23.324811 C103.508314,23.3286731 103.397859,23.3263559 103.271956,23.3263559 C103.099708,23.320949 102.925142,23.3139972 102.754439,23.2908248 C102.715818,23.2869628 102.673335,23.3232662 102.632397,23.3317628 C94.0168938,23.388149 73.3988524,21.6517628 64.2125352,21.7452248 C63.7506317,21.7768938 63.2763697,21.7390455 62.8129214,22.0008938 C62.1857214,22.2658317 61.6264938,22.84128 61.3090317,23.9218869 C60.9877076,24.9870455 60.9707145,26.1163145 60.8502179,27.2139145 C60.8386317,27.3220524 60.8618041,27.4193766 60.8687559,27.5190179 C59.5888662,43.4006179 58.3213352,59.2806731 57.0576662,75.1560938 C57.0445352,75.2835421 57.0623007,75.3762317 57.0715697,75.48128 C57.0715697,75.48128 57.0715697,75.4835972 57.0677076,75.4859145 C57.0244524,75.8898869 56.9873766,76.2884524 56.9603421,76.6831559 C56.8622455,77.7127834 56.8344386,78.7084248 57.0306317,79.5333628 C57.0715697,79.8469628 57.1256386,80.1543834 57.2183283,80.4301352 C57.6555145,81.7262455 58.8998731,82.0027697 60.0144662,81.91008 C68.9489766,81.7988524 89.3461076,80.6186041 98.0975559,80.485749 C98.9819697,80.58848 99.9984662,80.4749352 100.763156,79.5719834 C101.303073,78.9339697 101.594273,78.1036248 101.770383,77.2014455 C101.264452,72.0247283 101.55179,66.6757628 101.659928,61.6728386" id="Fill-13" fill="#FF8E8E"></path>
                            <path d="M94.6335117,34.6919614 C94.4960221,32.3098372 94.1685186,29.9995476 93.2810152,28.0530648 C91.7137876,24.6227752 88.2773186,23.9538648 84.4538703,24.2018097 C82.7143945,24.2612855 80.9540634,24.5980579 79.4324083,24.8498648 C71.9600772,26.0880441 45.2785876,30.1957407 44.4358841,30.4197407 C43.9569876,30.5533683 42.6176221,30.9866924 42.2321876,31.1682097 C39.3317738,32.5261131 39.8438841,34.892789 40.2370428,37.95232 C40.2501738,38.5061407 45.8787531,86.5456441 46.3483807,89.1069683 C46.994891,92.5751062 48.3450703,95.7952993 51.4965186,96.5113269 C54.6549186,97.2389407 94.8490152,91.1893959 96.7275255,90.7738372 C99.0324083,90.2547752 100.170174,89.1162372 100.594229,87.6370648 C101.031415,86.8716028 101.006698,85.9369821 100.972712,84.76832 C100.884657,81.6817545 96.0763807,40.2996855 94.6335117,34.6919614" id="Fill-15" fill="#FEC267"></path>
                            <path d="M49.1210372,73.0312607 C46.8408717,59.4831228 44.3536993,45.8840055 42.4242097,32.2941572 C42.4033545,32.1296331 42.3068028,31.561909 42.2280166,31.4445021 C42.2504166,31.0273986 40.929589,31.5920331 39.7022234,31.4815779 C39.6643752,31.4815779 39.1839338,31.41824 39.1460855,31.41824 C38.7452028,31.3402262 38.3504993,31.2552607 37.94112,31.1092745 C35.9490648,30.38784 35.150389,28.7155641 35.1735614,26.857909 C35.1998234,25.1925848 36.5052028,24.4587917 36.4542234,24.0146538 C36.427189,23.7752055 34.9858648,24.5198124 34.8197959,24.576971 C34.5934786,24.6495779 33.0656441,25.6367228 32.3696993,26.8548193 C31.6698924,28.0821848 31.8900303,29.8232055 31.9301959,31.3657159 C32.0661407,36.5656055 36.4186924,68.6509021 37.2606234,75.3624055 C37.2459476,75.4465986 37.4606786,77.0987917 37.5672717,77.8372193 C37.7789131,79.4639228 37.999051,81.092171 38.2292303,82.7181021 C38.4076579,83.99104 39.1553545,91.2115641 39.3106097,91.5444745 C41.2107476,95.6699366 46.5373131,97.0772745 50.807989,96.7791228 C51.0512993,96.7937986 51.2853407,96.7698538 51.6622786,96.7227366 C52.1349959,96.6624883 52.7961821,96.7412745 53.5415614,96.5906538 C53.4596855,95.2126676 50.2124579,79.51104 49.1210372,73.0312607" id="Fill-17" fill="#FF9300"></path>
                            <path d="M70.1538648,65.9701628 C70.0735338,65.7338041 70.1994372,65.5082593 70.4581959,65.4611421 L79.4089269,63.8213076 C79.6584166,63.7734179 79.8716028,63.947211 79.8716028,64.1943834 C79.8716028,64.1943834 80.3149683,68.7485352 75.8365131,69.5711559 C71.3557407,70.3891421 70.1538648,65.9701628 70.1538648,65.9701628" id="Fill-19" fill="#3281EE"></path>
                            <path d="M69.6243752,48.8941021 C67.578251,45.2923366 63.1932579,43.3103228 59.3365959,44.8512883 C58.4297821,45.0528883 57.5948028,45.4692193 56.8926786,46.04544 C56.8270234,46.0863779 56.7698648,46.1419917 56.7072993,46.1867917 C56.6524579,46.2346814 56.5960717,46.282571 56.5450924,46.3289159 C55.8375614,46.8657434 55.2690648,47.5531917 54.8573683,48.4043917 C54.7785821,48.5403366 54.6967062,48.6747366 54.627189,48.8145434 C54.6117407,48.8624331 54.5746648,48.8910124 54.5615338,48.9381297 C54.5113269,49.0686676 54.4896993,49.1976607 54.4441269,49.3305159 C54.2193545,49.9044193 54.0702786,50.5007228 54.0046234,51.1310124 C53.7806234,52.4750124 53.8092028,53.8205572 54.2664717,55.2626538 C55.0690097,57.7915366 58.1184993,59.0575228 60.4697269,59.4468193 C62.1860303,59.7295228 64.1402372,59.3247779 65.8202372,58.5971641 C68.2232166,57.5536331 68.9655062,56.2034538 69.5934786,54.409909 C70.2361269,52.5746538 70.6478234,50.691509 69.6243752,48.8941021" id="Fill-21" fill="#BBD9FD"></path>
                            <path d="M92.2495338,45.2553379 C91.2971476,43.3922759 89.7739476,42.2189793 87.9356028,41.5446621 C87.8946648,41.5176276 87.8691752,41.4851862 87.8243752,41.4542897 C86.6827476,40.6409379 85.1301959,40.3335172 83.6765131,40.5343448 C80.2717131,40.7575724 77.172789,43.6973793 76.1508855,47.0581517 C75.6318234,48.7705931 75.6936166,50.8846897 76.5703062,52.4727724 C77.8841821,54.8548966 80.0677959,56.024331 82.6576993,56.5665655 C86.9816717,57.4780138 91.7281545,54.501131 92.8041269,50.2783448 C93.2212303,48.6493241 93.0173131,46.7515034 92.2495338,45.2553379" id="Fill-23" fill="#BBD9FD"></path>
                            <path d="M64.8725628,54.5325683 C64.0661628,54.6229407 63.338549,54.0389959 63.2474041,53.2287338 C63.1639834,52.59072 62.7963145,51.5193821 61.3194593,51.6839062 C59.7089766,51.8592441 59.7298317,53.204789 59.7738593,53.611851 C59.8642317,54.4236579 59.2802869,55.1481821 58.4731145,55.2393269 C57.6651697,55.3266097 56.9375559,54.7465269 56.8471834,53.9354924 C56.640949,52.0616166 57.5755697,49.1364855 60.9973628,48.7556855 C64.4168386,48.3810648 65.9670731,51.0335338 66.1725352,52.90432 C66.2629076,53.7138097 65.6828248,54.4437407 64.8725628,54.5325683" id="Fill-25" fill="#3281EE"></path>
                            <path d="M87.7119117,51.2452524 C86.9008772,51.3363972 86.1755807,50.7532248 86.0875255,49.9437352 C86.0010152,49.3072662 85.6341186,48.2367007 84.156491,48.3989076 C82.5460083,48.57888 82.5676359,49.9213352 82.610891,50.3291697 C82.6989462,51.1363421 82.1188634,51.8647283 81.3086014,51.9543283 C80.5037462,52.0400662 79.7745876,51.459211 79.68576,50.6504938 C79.4787531,48.78048 80.4110566,45.8522593 83.8328497,45.4753214 C87.2546428,45.093749 88.8048772,47.7485352 89.0118841,49.6208662 C89.1022566,50.4311283 88.5190841,51.1564248 87.7119117,51.2452524" id="Fill-27" fill="#3281EE"></path>
                            <path d="M68.93152,49.1717076 C68.877451,49.1639834 68.8349683,49.1809766 68.7994372,49.2072386 C68.46112,49.1910179 68.1189407,49.3377766 67.865589,49.6498317 C67.3967338,50.2337766 67.5087338,51.1900248 68.1336166,51.59168 C68.7175614,51.9678455 69.6938924,51.5631007 69.997451,50.9405352 C70.4076028,50.1140524 69.7108855,49.2335007 68.93152,49.1717076" id="Fill-29" fill="#FF9300"></path>
                            <path d="M77.3699862,48.0696276 C77.3174621,48.0649931 77.2749793,48.0788966 77.2433103,48.1067034 C76.9019034,48.0897103 76.5620414,48.2372414 76.3079172,48.550069 C75.8382897,49.1340138 75.9487448,50.0864 76.5767172,50.4896 C77.1591172,50.8657655 78.1362207,50.4625655 78.4405517,49.84 C78.8483862,49.0112 78.1547586,48.1321931 77.3699862,48.0696276" id="Fill-31" fill="#FF9300"></path>
                            <path d="M78.0993766,48.4973131 C77.584949,46.6311614 75.080011,45.5242924 73.3050041,45.6471062 C71.1947697,45.7969545 68.4897766,47.60672 68.1043421,49.82432 C67.8965628,51.0215614 69.8994317,51.222389 70.0963972,50.0869407 C70.5351283,47.5804579 75.0815559,46.3793545 76.0957352,48.963851 C76.1150455,49.1639062 76.222411,49.3639614 76.4742179,49.5261683 C76.4865766,49.5392993 76.5020248,49.5454786 76.5143834,49.5539752 C77.3045628,50.0699476 78.3581352,49.4412028 78.0993766,48.4973131" id="Fill-33" fill="#FFB15C"></path>
                            <path d="M48.7536772,38.7471338 C48.5914703,38.7154648 48.4624772,38.7502234 48.3512497,38.8073821 C47.3641048,38.6544441 46.3066703,38.9773131 45.45856,39.8146097 C43.8797462,41.3764303 43.8990566,44.2304993 45.6169048,45.6285683 C47.2142566,46.925451 50.2197186,46.051851 51.3242703,44.3193269 C52.8018979,42.0036303 51.0315255,39.1812303 48.7536772,38.7471338" id="Fill-35" fill="#FF9300"></path>
                            <path d="M50.765429,56.0940028 C50.6233048,56.0677407 50.5105324,56.09632 50.4124359,56.1465269 C49.5434703,56.0121269 48.6142566,56.2963752 47.8688772,57.0340303 C46.4808497,58.4066097 46.4955255,60.9138648 48.0071393,62.1466372 C49.41216,63.2874924 52.05536,62.5197131 53.0270566,60.9941959 C54.3262566,58.9573407 52.7706152,56.4748028 50.765429,56.0940028" id="Fill-37" fill="#FF9300"></path>
                            <path d="M52.765429,73.0940028 C52.6233048,73.0677407 52.5105324,73.09632 52.4124359,73.1465269 C51.5434703,73.0121269 50.6142566,73.2963752 49.8688772,74.0340303 C48.4808497,75.4066097 48.4955255,77.9138648 50.0071393,79.1466372 C51.41216,80.2874924 54.05536,79.5197131 55.0270566,77.9941959 C56.3262566,75.9573407 54.7706152,73.4748028 52.765429,73.0940028" id="Fill-37" fill="#FF9300"></path>
                            <path d="M44.2161324,42.8837186 C43.9936772,46.2074152 39.3398841,46.4306428 36.4935393,45.5709462 C36.2579531,45.482891 36.0208221,45.3940634 35.8045462,45.2874703 C35.5720497,45.1739255 35.3032497,45.0063117 35.0259531,44.7993048 C34.9796083,44.766091 34.4674979,44.3374014 34.3902566,44.2647945 C33.7815945,43.70016 33.2339531,43.0096221 33.0369876,42.3407117 C32.8979531,41.1790014 32.7650979,40.0497324 32.6469186,39.0069738 C32.1224497,39.1382841 31.6142014,39.3522428 31.1731531,39.6449876 C30.3845186,40.1679117 29.8978979,40.7325462 29.5449048,41.6123255 C29.4962428,41.7320497 29.4746152,41.8571807 29.4498979,41.984629 C29.2637462,42.3252634 29.1393876,42.6983393 29.1378428,43.0853186 C28.2688772,46.2367669 30.5953876,48.5864497 33.946891,49.7597462 C33.9291255,49.6238014 33.9144497,49.4932634 33.8966841,49.358091 C33.9013186,49.3604083 33.9067255,49.3642703 33.9121324,49.3665876 C33.9229462,49.4971255 33.9291255,49.6238014 33.946891,49.7597462 C39.84736,51.8274979 48.9340359,50.24096 49.4260634,42.8837186 C49.6299807,39.8612634 44.4192772,39.8612634 44.2161324,42.8837186" id="Fill-39" fill="#BBD9FD"></path>
                            <path d="M49.0637241,57.1929931 L48.8489931,57.1906759 C46.9766621,57.1590069 46.1401379,58.6273655 46.3625931,59.9203862 C45.9037793,61.6220138 42.5893517,62.2075034 41.2129103,62.4708966 C39.3483034,62.8277517 37.7355034,62.5489103 36.7645793,61.5200552 C36.7584,61.512331 36.7514483,61.5038345 36.7437241,61.4953379 C36.6448552,61.3887448 36.5591172,61.2667034 36.4749241,61.1446621 C35.9334621,60.3374897 35.5418483,59.4801103 35.0822621,58.6443586 C34.9656276,57.7460414 34.8497655,56.8469517 34.7308138,55.9293241 C34.1445517,55.9355034 30.5605517,56.4507034 30.5806345,58.7803034 C30.6153931,62.9258483 32.8862897,65.4856276 36.1157517,66.5716414 C36.1103448,66.5291586 36.1041655,66.4835862 36.0979862,66.4411034 C36.1064828,66.4434207 36.1134345,66.4457379 36.121931,66.4488276 L36.1157517,66.5716414 C37.5254069,67.045131 39.1289379,67.2413241 40.8406069,67.157131 C45.0077793,66.9532138 51.7803034,64.6915862 51.6327724,59.5565793 C51.5926069,58.174731 50.4038621,57.2146207 49.0637241,57.1929931" id="Fill-41" fill="#BBD9FD"></path>
                            <path d="M37.2602372,75.3620966 C37.2455614,75.4462897 37.4610648,77.0984828 37.5668855,77.8369103 C37.7792993,79.4643862 37.9986648,81.0918621 38.2288441,82.7177931 C38.252789,82.8854069 38.2860028,83.161931 38.3269407,83.5079724 C38.5632993,83.5713103 38.8004303,83.6385103 39.036789,83.6902621 C44.60512,84.9330759 52.3485683,82.4204138 54.0756855,76.415669 C54.8527338,73.7122207 50.8593545,72.5790897 49.4350234,74.4352 C47.6128993,76.1182897 45.8618372,76.832 43.4225545,77.2297931 C42.1248993,77.4414345 38.0480993,77.8878897 37.7429959,76.6682483 L37.2602372,75.3620966 Z" id="Fill-43" fill="#BBD9FD"></path>
                            <path d="M37.5672717,77.8369876 C37.4606786,77.09856 37.2459476,75.4463669 37.2606234,75.3621738 C37.1810648,74.7233876 37.0682924,73.8536497 36.9308028,72.8000772 C36.1298097,72.2725186 35.0522924,72.1381186 34.17792,72.7127945 C31.9209269,74.1950566 31.2249821,76.2141462 32.1982234,78.7862841 C33.2023614,81.4325738 35.7358786,82.8097876 38.3273269,83.5080497 C38.286389,83.1620083 38.2524028,82.8854841 38.2292303,82.7178703 C37.999051,81.0919393 37.7789131,79.463691 37.5672717,77.8369876" id="Fill-45" fill="#BBD9FD"></path>
                            <g id="Group-49" transform="translate(89.600000, 71.486897)">
                                <mask id="mask-2" fill="white">
                                    <use xlink:href="#path-1"></use>
                                </mask>
                                <g id="Clip-48"></g>
                                <path d="M0.402387449,19.1706524 C1.396484,23.121549 4.29767021,26.6808317 6.70914607,28.1808593 C13.2901116,32.2761973 22.864953,30.8912593 27.2352702,24.4006662 C31.6395737,17.8606386 32.3656426,7.58290071 22.3543874,1.82687312 C13.8323461,-3.07331998 3.28658055,2.46565933 0.614028828,11.5330248 C-0.102771172,13.9653559 -0.216316,16.7120593 0.402387449,19.1706524" id="Fill-47" fill="#CBF7D8" mask="url(#mask-2)"></path>
                                <path d="M12.079774,9.62504678 C11.9739622,10.2363193 12.205378,11.1147857 12.6042656,11.5981706 L15.1901844,14.7230445 L18.6736005,12.6463926 C19.2064657,12.3289571 19.7256287,11.5692436 19.8306792,10.964061 L12.079774,9.62504678 Z M10.6128722,8.23122361 C10.0076895,8.12617304 9.58900973,7.54382748 9.6940603,6.93255495 C9.80139458,6.31595377 10.3829789,5.9109762 10.9957739,6.01678801 L22.061862,7.92825167 C22.6670447,8.03330224 23.0864857,8.61640904 22.9806739,9.22844281 C22.8741009,9.84352152 22.2925166,10.2492603 21.6789603,10.1434485 L21.6820053,10.1442097 L21.490935,11.2510469 C21.384362,11.8661256 20.8887973,12.647915 20.3825754,13.0041735 L16.1059514,16.0209519 L19.1227297,20.2983371 C19.4797494,20.8053203 19.6837607,21.7066238 19.5779489,22.3224637 L19.3868786,23.4300621 L19.3838337,23.4293009 C19.9966287,23.5351127 20.4084574,24.1121296 20.3026456,24.7279696 C20.1968338,25.3400033 19.6068758,25.7480258 19.0016932,25.6437365 L7.93560507,23.7315116 C7.32204884,23.6256998 6.91022014,23.0486829 7.01679319,22.4328429 C7.12184376,21.8208092 7.71256292,21.4120254 8.31774556,21.517076 L8.31546185,21.517076 L8.50653209,20.4094776 C8.61158267,19.7982051 9.10410238,19.0164157 9.61413051,18.6555898 L13.8915158,15.6388114 L10.8739761,11.3614262 C10.5139115,10.8506368 10.3137064,9.94933333 10.418757,9.3380608 L10.6098272,8.23046238 L10.6128722,8.23122361 Z" id="Fill-56" fill="#35CE68" mask="url(#mask-2)"></path>
                            </g>
                            <path d="M22.7288938,11.4275531 C21.409611,6.42231172 21.6961766,6.31262897 20.5715421,1.23246345 C20.1073214,-0.854598621 16.8693628,-0.0852744828 17.3335834,2.01028414 C18.46208,7.08349793 18.1747421,7.19009103 19.49248,12.2007393 C20.0362593,14.2669462 23.2749903,13.5007117 22.7288938,11.4275531" id="Fill-52" fill="#FF8E8E"></path>
                            <path d="M12.0617821,19.6600166 C7.59259586,17.0500303 7.71386483,16.775051 3.32809931,13.9796855 C1.5245131,12.828789 -0.222686897,15.6627752 1.59016828,16.8113545 C5.97593379,19.6090372 5.84694069,19.8809269 10.323851,22.4940028 C12.1668303,23.5707476 13.91712,20.7390786 12.0617821,19.6600166" id="Fill-54" fill="#FF8E8E"></path>
                            <g id="Group-58" transform="translate(0.000000, 32.866207)">
                                <mask id="mask-4" fill="white">
                                    <use xlink:href="#path-3"></use>
                                </mask>
                                <g id="Clip-57"></g>
                                <path d="M11.428171,0.0802537931 C6.42138483,1.40339862 6.30706759,1.1168331 1.23385379,2.24224 C-0.856297931,2.70414345 -0.0862013793,5.9436469 2.01090207,5.47556414 C7.08566069,4.34938483 7.19070897,4.63517793 12.2036745,3.31744 C14.2683366,2.77366069 13.5059641,-0.467387586 11.428171,0.0802537931" id="Fill-56" fill="#FF8E8E" mask="url(#mask-4)"></path>
                            </g>
                        </g>
                    </g>
                </g>
            </g>
        </g>
    </g>
</svg>