<?xml version="1.0" encoding="UTF-8"?>
<svg width="79px" height="81px" viewBox="0 0 79 81" version="1.1" xmlns="http://www.w3.org/2000/svg" xmlns:xlink="http://www.w3.org/1999/xlink">
    <!-- Generator: Sketch 50.2 (55047) - http://www.bohemiancoding.com/sketch -->
    <title>icon-add-from-store</title>
    <desc>Created with Sketch.</desc>
    <defs>
        <circle id="path-1" cx="14" cy="14" r="14"></circle>
        <path d="M4.8,4.8 L4.8,1.2 C4.8,0.5372583 5.3372583,1.21743675e-16 6,0 C6.6627417,-1.21743675e-16 7.2,0.5372583 7.2,1.2 L7.2,4.8 L10.8,4.8 C11.4627417,4.8 12,5.3372583 12,6 C12,6.6627417 11.4627417,7.2 10.8,7.2 L7.2,7.2 L7.2,10.8 C7.2,11.4627417 6.6627417,12 6,12 C5.3372583,12 4.8,11.4627417 4.8,10.8 L4.8,7.2 L1.2,7.2 C0.5372583,7.2 8.11624501e-17,6.6627417 0,6 C-8.11624501e-17,5.3372583 0.5372583,4.8 1.2,4.8 L4.8,4.8 Z" id="path-2"></path>
    </defs>
    <g id="fusion-app-connecteurs-etape-1---201806" stroke="none" stroke-width="1" fill="none" fill-rule="evenodd">
        <g id="200-connected-accounts---v1" transform="translate(-110.000000, -186.000000)">
            <g id="new-connector" transform="translate(32.000000, 152.000000)">
                <g id="components/card/provider-copy-3">
                    <g id="icon-add-from-store" transform="translate(78.000000, 32.000000)">
                        <g id="interapp/icon/store">
                            <g id="icon-store" transform="translate(0.000000, 2.187500)">
                                <path d="M4.375,63.4335682 L4.375,38.28125 L13.125,38.28125 L13.125,55.78125 L35,55.78125 L35,38.28125 L65.625,38.28125 L65.625,63.4335682 C65.625,64.6518215 64.6466448,65.625 63.4397824,65.625 L61.2477176,65.625 C60.0308194,65.625 59.0625,64.6451997 59.0625,63.4365548 L59.0625,40.46875 L43.75,40.46875 L43.75,63.4365548 C43.75,64.6388453 42.777089,65.625 41.5769425,65.625 L6.54805743,65.625 C5.34832001,65.625 4.375,64.6438625 4.375,63.4335682 Z M4.375,2.19051888 C4.375,0.980728722 5.33709124,0 6.55491992,0 L63.4450801,0 C64.6490167,0 65.625,0.977312263 65.625,2.19051888 L65.625,14.21875 L4.375,14.21875 L4.375,2.19051888 Z" id="Shape" fill="#FCBABA" fill-rule="nonzero"></path>
                                <path d="M2.1875,40.46875 L67.8125,40.46875 C69.0206228,40.46875 70,39.4893728 70,38.28125 L70,31.9588767 C70,31.7992717 69.9825324,31.6401459 69.9479093,31.4843414 L65.625,12.03125 L4.375,12.03125 L0.0520908058,31.4843414 C0.0174675916,31.6401459 -8.91954599e-15,31.7992717 -8.9e-15,31.9588767 L1.05289029e-14,38.28125 C1.06768553e-14,39.4893728 0.979377109,40.46875 2.1875,40.46875 Z" id="Shape" fill="#F62C2C" fill-rule="nonzero"></path>
                            </g>
                        </g>
                        <g id="Group-7" transform="translate(48.000000, 52.000000)">
                            <g id="Oval">
                                <circle stroke="#95999D" stroke-width="2" stroke-linejoin="square" fill="#FFFFFF" fill-rule="evenodd" cx="14" cy="14" r="13"></circle>
                                <circle stroke="#FFFFFF" stroke-width="3" cx="14" cy="14" r="15.5"></circle>
                            </g>
                            <g id="↳-🎨-icon" transform="translate(8.000000, 8.000000)">
                                <mask id="mask-3" fill="white">
                                    <use xlink:href="#path-2"></use>
                                </mask>
                                <use id="Mask" fill="#000000" xlink:href="#path-2"></use>
                                <g id="mixin/fill/grey-darkish" mask="url(#mask-3)" fill="#5D6165">
                                    <rect id="background" x="0" y="0" width="12" height="12"></rect>
                                </g>
                            </g>
                        </g>
                    </g>
                </g>
            </g>
        </g>
    </g>
</svg>
