<svg xmlns="http://www.w3.org/2000/svg" width="184" height="48" viewBox="0 0 184 48">
  <g fill="none" fill-rule="evenodd">
    <path fill="#FFFFFF" d="M8,18.0058587 C8,16.8980535 8.89989752,16 9.99124431,16 L34.0087557,16 C35.1084896,16 36,16.8970601 36,18.0058587 L36,27.9941413 C36,29.1019465 35.1001025,30 34.0087557,30 L9.99124431,30 C8.89151044,30 8,29.1029399 8,27.9941413 L8,18.0058587 L8,18.0058587 Z"/>
    <path fill="#FF5D47" d="M22.5904811,21.8944272 C22.1872759,21.3745517 22,21 22,21 C22,21 21.8127241,21.3745517 21.4095189,21.8944272 C21.4095189,21.8944272 20.928833,22.4703979 20.6928925,22.7019713 C19.5914044,23.7907194 17.7491824,25 15,25 C10,25 8,21 8,21 L8,17.9979131 C8,16.8944962 8.89989752,16 9.99124431,16 L34.0087557,16 C35.1084896,16 36,16.8982606 36,17.9979131 L36,21 C36,21 34,25 29,25 C26.2508176,25 24.4085956,23.7907194 23.3071075,22.7019713 L22.5904811,21.8944272 Z"/>
    <path fill="#FFFFFF" d="M10 22L9.78885438 21.1055728C9.80781247 21.143489 9.88544948 21.2752366 10.022674 21.4689653 10.2707376 21.8191728 10.581431 22.174251 10.9537277 22.5051814 12.0106873 23.444701 13.3295224 24 15 24 16.6704776 24 17.9893127 23.444701 19.0462723 22.5051814 19.418569 22.174251 19.7292624 21.8191728 19.977326 21.4689653 20.1145505 21.2752366 20.1921875 21.143489 20.2111456 21.1055728 20.9481942 19.6314757 23.0518058 19.6314757 23.7888544 21.1055728 23.8078125 21.143489 23.8854495 21.2752366 24.022674 21.4689653 24.2707376 21.8191728 24.581431 22.174251 24.9537277 22.5051814 26.0106873 23.444701 27.3295224 24 29 24 30.6704776 24 31.9893127 23.444701 33.0462723 22.5051814 33.418569 22.174251 33.7292624 21.8191728 33.977326 21.4689653 34.1145505 21.2752366 34.1921875 21.143489 34.2111456 21.1055728L34 22 34 17.9979131C34 17.9994561 9.99124431 18 9.99124431 18 10.0017666 18 10 22 10 22zM22.5904811 22.8944272C22.1872759 22.3745517 22 22 22 22 22 22 21.8127241 22.3745517 21.4095189 22.8944272 21.4095189 22.8944272 20.928833 23.4703979 20.6928925 23.7019713 19.5914044 24.7907194 17.7491824 26 15 26 10 26 8 22 8 22L8 17.9979131C8 16.8944962 8.89989752 16 9.99124431 16L34.0087557 16C35.1084896 16 36 16.8982606 36 17.9979131L36 22C36 22 34 26 29 26 26.2508176 26 24.4085956 24.7907194 23.3071075 23.7019713L22.5904811 22.8944272zM0 29.9907951C0 28.8913093.898855112 28 2.00492334 28L41.9950767 28C43.1023652 28 44 28.8982124 44 29.9907951L44 46.0092049C44 47.1086907 43.1011449 48 41.9950767 48L2.00492334 48C.897634756 48 0 47.1017876 0 46.0092049L0 29.9907951 0 29.9907951z"/>
    <path fill="#FF5D47" d="M15.6833513,38.0118855 C15.2159565,37.4319131 15,37 15,37 C15,37 14.7509436,37.3984902 14.2528309,37.9439193 C14.2528309,37.9439193 13.8361206,38.3405762 13.6127608,38.5831902 C12.3872077,39.7007458 10.3496208,41 7.5,41 C2.5,41 0,37 0,37 L0,29.999615 C0,28.8952581 0.898855112,28 2.00492334,28 L41.9950767,28 C43.1023652,28 44,28.8874333 44,29.999615 L44,37 C44,37 41.5,41 36.5,41 C33.6503792,41 31.6127923,39.7007458 30.3872392,38.5831902 C30.1687622,38.3583374 29.7471691,37.9439193 29.7471691,37.9439193 C29.2490564,37.3984902 29,37 29,37 C29,37 28.7840435,37.4319131 28.3166487,38.0118855 C28.3166487,38.0118855 27.9448853,38.4451904 27.7294129,38.6656478 C26.6323188,39.7636384 24.779795,41 22,41 C19.220205,41 17.3676812,39.7636384 16.2705871,38.6656478 L15.6833513,38.0118855 Z"/>
    <path fill="#FFFFFF" d="M2 29.999615L2 29.999615 2 38 1.69599661 36.9400021C1.72803781 36.991268 1.8319251 37.1367102 2.00519256 37.3446312 2.31364275 37.7147714 2.68810813 38.0892368 3.1243901 38.4382624 4.35269352 39.4209051 5.80043072 40 7.5 40 9.19956928 40 10.6473065 39.4209051 11.8756099 38.4382624 12.3118919 38.0892368 12.6863573 37.7147714 12.9948074 37.3446312 13.1680749 37.1367102 13.2719622 36.991268 13.3040034 36.9400021 14.1317873 35.6155479 16.0903696 35.7086032 16.7888544 37.1055728 16.8078125 37.143489 16.8854495 37.2752366 17.022674 37.4689653 17.2707376 37.8191728 17.581431 38.174251 17.9537277 38.5051814 19.0106873 39.444701 20.3295224 40 22 40 23.6704776 40 24.9893127 39.444701 26.0462723 38.5051814 26.418569 38.174251 26.7292624 37.8191728 26.977326 37.4689653 27.1145505 37.2752366 27.1921875 37.143489 27.2111456 37.1055728 27.9096304 35.7086032 29.8682127 35.6155479 30.6959966 36.9400021 30.7280378 36.991268 30.8319251 37.1367102 31.0051926 37.3446312 31.3136427 37.7147714 31.6881081 38.0892368 32.1243901 38.4382624 33.3526935 39.4209051 34.8004307 40 36.5 40 38.1995693 40 39.6473065 39.4209051 40.8756099 38.4382624 41.3118919 38.0892368 41.6863573 37.7147714 41.9948074 37.3446312 42.1680749 37.1367102 42.2719622 36.991268 42.3040034 36.9400021L42 38 42 29.999615C42 29.9971111 42.0029044 30 41.9950767 30L2.00492334 30C2.00163031 30 2 30.0016253 2 29.999615L2 29.999615zM15.6833513 39.0118855C15.2159565 38.4319131 15 38 15 38 15 38 14.7509436 38.3984902 14.2528309 38.9439193 14.2528309 38.9439193 13.8361206 39.3405762 13.6127608 39.5831902 12.3872077 40.7007458 10.3496208 42 7.5 42 2.5 42 0 38 0 38L0 29.999615C0 28.8952581.898855112 28 2.00492334 28L41.9950767 28C43.1023652 28 44 28.8874333 44 29.999615L44 38C44 38 41.5 42 36.5 42 33.6503792 42 31.6127923 40.7007458 30.3872392 39.5831902 30.1687622 39.3583374 29.7471691 38.9439193 29.7471691 38.9439193 29.2490564 38.3984902 29 38 29 38 29 38 28.7840435 38.4319131 28.3166487 39.0118855 28.3166487 39.0118855 27.9448853 39.4451904 27.7294129 39.6656478 26.6323188 40.7636384 24.779795 42 22 42 19.220205 42 17.3676812 40.7636384 16.2705871 39.6656478L15.6833513 39.0118855zM13 8L17 8 17 17 13 17 13 8 13 8zM20 8L24 8 24 17 20 17 20 8 20 8zM27 8L31 8 31 17 27 17 27 8 27 8z"/>
    <path fill="#FFFFFF" d="M15 10C13.3431458 10 12 8.65685425 12 7 12 5.34314575 14 0 15 0 16 0 18 5.34314575 18 7 18 8.65685425 16.6568542 10 15 10zM29 10C27.3431458 10 26 8.65685425 26 7 26 5.34314575 28 0 29 0 30 0 32 5.34314575 32 7 32 8.65685425 30.6568542 10 29 10zM22 10C20.3431458 10 19 8.65685425 19 7 19 5.34314575 21 0 22 0 23 0 25 5.34314575 25 7 25 8.65685425 23.6568542 10 22 10zM15 8C15.5522847 8 16 7.55228475 16 7 16 6.52502835 15.581091 5.01145968 15.0213135 3.62957676 14.7348416 2.92238388 14.4401357 2.31492184 14.1929936 1.91813257 14.0995434 1.76809726 14.0279974 1.67306725 14.0067789 1.65199725 14.1908241 1.83475392 14.4816224 2 15 2 15.5183776 2 15.8091759 1.83475392 15.9932211 1.65199725 15.9720026 1.67306725 15.9004566 1.76809726 15.8070064 1.91813257 15.5598643 2.31492184 15.2651584 2.92238388 14.9786865 3.62957676 14.418909 5.01145968 14 6.52502835 14 7 14 7.55228475 14.4477153 8 15 8zM22 8C22.5522847 8 23 7.55228475 23 7 23 6.52502835 22.581091 5.01145968 22.0213135 3.62957676 21.7348416 2.92238388 21.4401357 2.31492184 21.1929936 1.91813257 21.0995434 1.76809726 21.0279974 1.67306725 21.0067789 1.65199725 21.1908241 1.83475392 21.4816224 2 22 2 22.5183776 2 22.8091759 1.83475392 22.9932211 1.65199725 22.9720026 1.67306725 22.9004566 1.76809726 22.8070064 1.91813257 22.5598643 2.31492184 22.2651584 2.92238388 21.9786865 3.62957676 21.418909 5.01145968 21 6.52502835 21 7 21 7.55228475 21.4477153 8 22 8zM29 8C29.5522847 8 30 7.55228475 30 7 30 6.52502835 29.581091 5.01145968 29.0213135 3.62957676 28.7348416 2.92238388 28.4401357 2.31492184 28.1929936 1.91813257 28.0995434 1.76809726 28.0279974 1.67306725 28.0067789 1.65199725 28.1908241 1.83475392 28.4816224 2 29 2 29.5183776 2 29.8091759 1.83475392 29.9932211 1.65199725 29.9720026 1.67306725 29.9004566 1.76809726 29.8070064 1.91813257 29.5598643 2.31492184 29.2651584 2.92238388 28.9786865 3.62957676 28.418909 5.01145968 28 6.52502835 28 7 28 7.55228475 28.4477153 8 29 8zM62.88 14.008L69.12 14.008C70.186672 14.008 71.1626622 14.103999 72.048 14.296 72.9333378 14.488001 73.6906635 14.7866646 74.32 15.192 74.9493365 15.5973354 75.4399982 16.1253301 75.792 16.776 76.1440018 17.4266699 76.32 18.2106621 76.32 19.128 76.32 20.1733386 76.0213363 21.1173291 75.424 21.96 74.8266637 22.8026709 73.9093395 23.3839984 72.672 23.704L72.672 23.832C74.2080077 24.0666678 75.4026624 24.5999958 76.256 25.432 77.1093376 26.2640042 77.536 27.4053261 77.536 28.856 77.536 29.8800051 77.3440019 30.7759962 76.96 31.544 76.5759981 32.3120038 76.0320035 32.9519974 75.328 33.464 74.6239965 33.9760026 73.7813382 34.3599987 72.8 34.616 71.8186618 34.8720013 70.7413392 35 69.568 35L62.88 35 62.88 14.008zM68.64 22.968C70.4533424 22.968 71.7493294 22.6586698 72.528 22.04 73.3066706 21.4213302 73.696 20.5253392 73.696 19.352 73.696 18.1999942 73.2853374 17.3733358 72.464 16.872 71.6426626 16.3706642 70.4106749 16.12 68.768 16.12L65.536 16.12 65.536 22.968 68.64 22.968zM69.184 32.888C70.9973424 32.888 72.4053283 32.5520034 73.408 31.88 74.4106717 31.2079966 74.912 30.1573405 74.912 28.728 74.912 27.4266602 74.4213382 26.472003 73.44 25.864 72.4586618 25.255997 71.0400093 24.952 69.184 24.952L65.536 24.952 65.536 32.888 69.184 32.888zM82.284 16.248C81.7719974 16.248 81.3400018 16.0880016 80.988 15.768 80.6359982 15.4479984 80.46 15.0426691 80.46 14.552 80.46 14.0399974 80.6359982 13.6293349 80.988 13.32 81.3400018 13.0106651 81.7719974 12.856 82.284 12.856 82.7960026 12.856 83.2279982 13.0106651 83.58 13.32 83.9320018 13.6293349 84.108 14.0399974 84.108 14.552 84.108 15.0426691 83.9320018 15.4479984 83.58 15.768 83.2279982 16.0880016 82.7960026 16.248 82.284 16.248L82.284 16.248zM80.94 19.448L83.564 19.448 83.564 35 80.94 35 80.94 19.448zM88.312 19.448L90.488 19.448 90.712 22.264 90.808 22.264C91.341336 21.2826618 91.9866629 20.5040029 92.744 19.928 93.5013371 19.3519971 94.3279955 19.064 95.224 19.064 95.8426698 19.064 96.3973309 19.1706656 96.888 19.384L96.376 21.688C96.1199987 21.6026662 95.8853344 21.5386669 95.672 21.496 95.4586656 21.4533331 95.1920016 21.432 94.872 21.432 94.2106634 21.432 93.5226702 21.698664 92.808 22.232 92.0933298 22.765336 91.469336 23.6933267 90.936 25.016L90.936 35 88.312 35 88.312 19.448zM99.364 21.592L97.06 21.592 97.06 19.608 99.492 19.448 99.812 15.096 102.02 15.096 102.02 19.448 106.212 19.448 106.212 21.592 102.02 21.592 102.02 30.232C102.02 31.1920048 102.195998 31.9333307 102.548 32.456 102.900002 32.9786693 103.523996 33.24 104.42 33.24 104.697335 33.24 104.995998 33.1973338 105.316 33.112 105.636002 33.0266662 105.923999 32.9306672 106.18 32.824L106.692 34.808C106.265331 34.9573341 105.801336 35.0906661 105.3 35.208 104.798664 35.3253339 104.302669 35.384 103.812 35.384 102.979996 35.384 102.281336 35.2560013 101.716 35 101.150664 34.7439987 100.692002 34.3920022 100.34 33.944 99.9879982 33.4959978 99.7373341 32.9520032 99.588 32.312 99.4386659 31.6719968 99.364 30.9680038 99.364 30.2L99.364 21.592zM109.232 12.216L111.856 12.216 111.856 18.424 111.76 21.624C112.50667 20.9199965 113.285329 20.3173358 114.096 19.816 114.906671 19.3146642 115.855995 19.064 116.944 19.064 118.586675 19.064 119.786663 19.5759949 120.544 20.6 121.301337 21.6240051 121.68 23.1386566 121.68 25.144L121.68 35 119.056 35 119.056 25.496C119.056 24.0239926 118.821336 22.9626699 118.352 22.312 117.882664 21.6613301 117.136005 21.336 116.112 21.336 115.301329 21.336 114.58667 21.5386646 113.968 21.944 113.34933 22.3493354 112.645337 22.9466627 111.856 23.736L111.856 35 109.232 35 109.232 12.216zM125.02 27.256C125.02 25.997327 125.206665 24.8613384 125.58 23.848 125.953335 22.8346616 126.44933 21.9760035 127.068 21.272 127.68667 20.5679965 128.401329 20.0240019 129.212 19.64 130.022671 19.2559981 130.875996 19.064 131.772 19.064 132.668004 19.064 133.446663 19.2239984 134.108 19.544 134.769337 19.8640016 135.44133 20.3013306 136.124 20.856L135.996 18.2 135.996 12.216 138.652 12.216 138.652 35 136.476 35 136.252 33.176 136.156 33.176C135.53733 33.7733363 134.828004 34.2906645 134.028 34.728 133.227996 35.1653355 132.369338 35.384 131.452 35.384 129.489324 35.384 127.926672 34.680007 126.764 33.272 125.601328 31.863993 125.02 29.8586797 125.02 27.256L125.02 27.256zM127.74 27.224C127.74 29.1013427 128.11333 30.5626614 128.86 31.608 129.60667 32.6533386 130.66266 33.176 132.028 33.176 132.753337 33.176 133.435997 33.0000018 134.076 32.648 134.716003 32.2959982 135.355997 31.757337 135.996 31.032L135.996 22.904C135.334663 22.3066637 134.700003 21.8853346 134.092 21.64 133.483997 21.3946654 132.860003 21.272 132.22 21.272 131.60133 21.272 131.020003 21.4159986 130.476 21.704 129.931997 21.9920014 129.457335 22.3973307 129.052 22.92 128.646665 23.4426693 128.326668 24.066663 128.092 24.792 127.857332 25.517337 127.74 26.3279955 127.74 27.224L127.74 27.224zM142.632 30.968C142.632 29.2613248 143.394659 27.9546712 144.92 27.048 146.445341 26.1413288 148.871983 25.5066685 152.2 25.144 152.2 24.6533309 152.152 24.1733357 152.056 23.704 151.96 23.2346643 151.789335 22.8186685 151.544 22.456 151.298665 22.0933315 150.973335 21.8000011 150.568 21.576 150.162665 21.3519989 149.640003 21.24 149 21.24 148.082662 21.24 147.234671 21.410665 146.456 21.752 145.677329 22.093335 144.97867 22.4773312 144.36 22.904L143.304 21.08C144.029337 20.6106643 144.914661 20.1573355 145.96 19.72 147.005339 19.2826645 148.157327 19.064 149.416 19.064 151.314676 19.064 152.690662 19.6453275 153.544 20.808 154.397338 21.9706725 154.824 23.522657 154.824 25.464L154.824 35 152.648 35 152.424 33.144 152.36 33.144C151.61333 33.7626698 150.808004 34.2906645 149.944 34.728 149.079996 35.1653355 148.168005 35.384 147.208 35.384 145.885327 35.384 144.792004 35.0000038 143.928 34.232 143.063996 33.4639962 142.632 32.376007 142.632 30.968L142.632 30.968zM145.224 30.776C145.224 31.6720045 145.485331 32.3119981 146.008 32.696 146.530669 33.0800019 147.175996 33.272 147.944 33.272 148.69067 33.272 149.399997 33.0960018 150.072 32.744 150.744003 32.3919982 151.45333 31.8746701 152.2 31.192L152.2 26.872C150.89866 27.0426675 149.800004 27.2453322 148.904 27.48 148.007996 27.7146678 147.288003 27.9919984 146.744 28.312 146.199997 28.6320016 145.810668 28.9999979 145.576 29.416 145.341332 29.8320021 145.224 30.2853309 145.224 30.776L145.224 30.776zM158.228 39.288C158.398668 39.3306669 158.590666 39.3786664 158.804 39.432 159.017334 39.4853336 159.219999 39.512 159.412 39.512 160.308004 39.512 161.038664 39.1973365 161.604 38.568 162.169336 37.9386635 162.611998 37.1440048 162.932 36.184L163.284 35.032 157.044 19.448 159.764 19.448 162.932 28.056C163.166668 28.7386701 163.417332 29.4586629 163.684 30.216 163.950668 30.9733371 164.201332 31.714663 164.436 32.44L164.564 32.44C164.798668 31.7359965 165.022666 31.0000038 165.236 30.232 165.449334 29.4639962 165.662666 28.7386701 165.876 28.056L168.66 19.448 171.22 19.448 165.364 36.28C165.086665 37.0480038 164.777335 37.7626634 164.436 38.424 164.094665 39.0853366 163.689336 39.6559976 163.22 40.136 162.750664 40.6160024 162.217336 40.9946653 161.62 41.272 161.022664 41.5493347 160.329337 41.688 159.54 41.688 159.177332 41.688 158.846668 41.6613336 158.548 41.608 158.249332 41.5546664 157.972001 41.4746672 157.716 41.368L158.228 39.288zM173.312 31.48C173.99467 32.0346694 174.69333 32.482665 175.408 32.824 176.12267 33.165335 176.949329 33.336 177.888 33.336 178.912005 33.336 179.679997 33.1013357 180.192 32.632 180.704003 32.1626643 180.96 31.5866701 180.96 30.904 180.96 30.4986646 180.853334 30.1466682 180.64 29.848 180.426666 29.5493318 180.154668 29.2880011 179.824 29.064 179.493332 28.8399989 179.114669 28.6426675 178.688 28.472 178.261331 28.3013325 177.834669 28.1306675 177.408 27.96 176.853331 27.767999 176.298669 27.5493346 175.744 27.304 175.189331 27.0586654 174.693336 26.7600018 174.256 26.408 173.818664 26.0559982 173.461335 25.6453357 173.184 25.176 172.906665 24.7066643 172.768 24.1413366 172.768 23.48 172.768 22.8613302 172.890665 22.2800027 173.136 21.736 173.381335 21.1919973 173.733331 20.7226686 174.192 20.328 174.650669 19.9333314 175.210663 19.6240011 175.872 19.4 176.533337 19.1759989 177.279996 19.064 178.112 19.064 179.093338 19.064 179.994663 19.234665 180.816 19.576 181.637337 19.917335 182.346664 20.3333309 182.944 20.824L181.696 22.488C181.162664 22.0826646 180.608003 21.7520013 180.032 21.496 179.455997 21.2399987 178.82667 21.112 178.144 21.112 177.162662 21.112 176.442669 21.3359978 175.984 21.784 175.525331 22.2320022 175.296 22.7546637 175.296 23.352 175.296 23.7146685 175.391999 24.029332 175.584 24.296 175.776001 24.562668 176.031998 24.7973323 176.352 25 176.672002 25.2026677 177.039998 25.3839992 177.456 25.544 177.872002 25.7040008 178.303998 25.8693325 178.752 26.04 179.306669 26.2533344 179.866664 26.4773322 180.432 26.712 180.997336 26.9466678 181.503998 27.2399982 181.952 27.592 182.400002 27.9440018 182.767999 28.3759974 183.056 28.888 183.344001 29.4000026 183.488 30.018663 183.488 30.744 183.488 31.3840032 183.365335 31.9813306 183.12 32.536 182.874665 33.0906694 182.512002 33.5813312 182.032 34.008 181.551998 34.4346688 180.95467 34.7706654 180.24 35.016 179.52533 35.2613346 178.709338 35.384 177.792 35.384 176.682661 35.384 175.626672 35.1813354 174.624 34.776 173.621328 34.3706646 172.74667 33.8586698 172 33.24L173.312 31.48z"/>
  </g>
</svg>
