<svg xmlns="http://www.w3.org/2000/svg" width="193" height="193" viewBox="0 0 193 193">
  <g fill="none" fill-rule="evenodd">
    <polygon fill="#FFFFFF" points="0 192.94 192.756 192.94 192.756 .244 0 .244"/>
    <path fill="#FFFFFF" d="M96.04,177.225 C142.657,177.225 180.457,141.137 180.457,96.616 C180.457,52.098 142.657,16.018 96.04,16.018 C49.418,16.018 11.631,52.098 11.631,96.616 C11.631,141.137 49.418,177.225 96.04,177.225"/>
    <path fill="#1A1918" d="M19.834,73.787 C19.834,73.787 21.212,83.469 21.212,96.261 C21.212,109.078 19.834,118.672 19.834,118.672 L36.091,118.672 C41.54,118.672 50.883,115.04 50.883,96.261 C50.883,77.503 41.627,73.787 36.091,73.787 L19.834,73.787"/>
    <path fill="#FFFFFF" d="M32.89,82.784 L32.89,109.675 C32.89,109.675 39.206,111.236 39.206,96.261 C39.206,81.302 32.89,82.784 32.89,82.784"/>
    <path fill="#1A1918" d="M57.28,73.787 C57.28,73.787 56.16,85.544 53.998,96.261 C51.836,106.998 48.287,118.672 48.287,118.672 L62.64,118.672 C62.64,118.672 62.122,116.68 62.64,112.789 C63.162,108.899 64.114,106.911 64.114,106.911 L71.031,106.911 C71.031,106.911 72.159,109.162 72.506,112.878 C72.865,116.715 72.506,118.672 72.506,118.672 L86.951,118.672 C86.951,118.672 83.314,106.998 81.156,96.261 C78.989,85.557 77.866,73.787 77.866,73.787 L57.28,73.787"/>
    <polyline fill="#FFFFFF" points="67.571 82.784 64.811 97.918 70.343 97.918 67.571 82.784"/>
    <path fill="#1A1918" d="M85.648,73.787 C85.648,73.787 86.951,82.007 86.951,96.261 C86.951,110.535 85.473,118.672 85.473,118.672 L100.093,118.672 C100.093,118.672 99.23,115.996 98.711,111.154 C98.19,106.314 98.711,103.45 98.711,103.45 C98.711,103.45 100.79,106.222 102.34,111.065 C103.902,115.909 103.643,118.672 103.643,118.672 L119.383,118.672 C119.383,118.672 116.872,113.195 113.499,107.433 C110.214,101.814 108.314,98.953 108.314,98.953 C108.314,98.953 116.096,96.616 116.096,86.408 C116.096,75.971 108.49,73.787 105.625,73.787 L85.648,73.787"/>
    <path fill="#FFFFFF" d="M98.711,81.394 L98.711,93.075 C98.711,93.075 103.643,93.075 103.643,87.197 C103.643,81.302 98.711,81.394 98.711,81.394"/>
    <path fill="#1A1918" d="M115.404,73.787 L115.404,84.078 C115.404,84.078 118.088,82.784 123.102,82.784 C123.102,82.784 123.528,90.9 123.102,98.608 C122.668,106.397 121.72,118.672 121.72,118.672 L136.069,118.672 C136.069,118.672 135.126,106.314 134.783,98.608 C134.429,90.913 134.783,82.784 134.783,82.784 C134.783,82.784 138.583,82.605 142.302,84.078 L142.302,73.787 L115.404,73.787"/>
    <path fill="#1A1918" d="M154.756,73.787 L141.696,73.787 C141.696,73.787 147.492,84.855 150.001,96.261 C152.51,107.692 151.041,118.672 151.041,118.672 L165.481,118.672 C165.481,118.672 163.929,107.6 166.438,96.261 C168.943,84.942 174.824,73.787 174.824,73.787 L161.762,73.787 L158.213,86.846 L154.756,73.787"/>
  </g>
</svg>
