<svg xmlns="http://www.w3.org/2000/svg" width="48" height="42" viewBox="0 0 48 42">
  <g fill="#FFFFFF" fill-rule="evenodd">
    <path d="M26.8116,25.1816 C25.8976,24.8556 24.9536,24.5176 23.9996,24.1636 L23.9996,20.4356 C24.9716,19.7856 26.7616,18.1196 26.9796,14.5796 C27.7116,14.1196 28.1736,13.1276 28.1736,11.8576 C28.1736,10.7416 27.8156,9.8396 27.2316,9.3256 C27.7176,8.0556 28.5216,5.8276 27.9696,3.6176 C27.3076,0.9476 23.5316,-0.0004 20.4996,-0.0004 C17.8156,-0.0004 14.5476,0.7436 13.3736,2.7676 C11.9736,2.6876 11.1956,3.2876 10.8196,3.7896 C9.7816,5.1696 10.2656,7.3356 10.8236,9.2796 C10.5916,9.4696 10.3916,9.7196 10.2316,10.0196 C9.9696,10.5216 9.8256,11.1756 9.8256,11.8576 C9.8256,13.1276 10.2856,14.1216 11.0216,14.5796 C11.2396,18.1196 13.0276,19.7856 13.9996,20.4356 L13.9996,24.1656 C13.1536,24.4796 12.2856,24.7916 11.4256,25.0996 C6.2716,26.9456 1.8196,28.5396 0.9976,31.0196 C0.0116,33.9936 -0.0004,40.5796 -0.0004,40.8576 C-0.0004,41.4096 0.4476,41.8576 0.9996,41.8576 L36.9996,41.8576 C37.5516,41.8576 37.9996,41.4096 37.9996,40.8576 C37.9996,40.5796 37.9896,33.9936 37.0016,31.0176 C36.1776,28.5356 32.0456,27.0576 26.8116,25.1816"/>
    <path d="M47.002,31.0176 C46.226,28.6796 42.444,26.3916 34,23.1676 L34,21.4356 C34.972,20.7856 36.762,19.1196 36.978,15.5796 C37.712,15.1196 38.172,14.1276 38.172,12.8576 C38.172,11.7296 37.81,10.8196 37.212,10.3076 C37.694,8.9396 38.528,6.4876 37.97,4.2476 C37.612,2.8096 36.052,1.2636 34.258,0.5696 C32.574,-0.0844 30.866,0.0796 29.446,1.0256 C28.986,1.3316 28.862,1.9536 29.168,2.4116 C29.474,2.8716 30.094,2.9956 30.554,2.6896 C31.66,1.9536 32.788,2.1436 33.536,2.4336 C34.924,2.9716 35.876,4.1136 36.03,4.7296 C36.454,6.4416 35.7,8.5836 35.294,9.7356 C35.098,10.2936 35,10.5716 35,10.8576 C35,11.4096 35.362,11.8316 35.914,11.8316 C35.984,11.8876 36.172,12.2336 36.172,12.8576 C36.172,13.4816 35.984,13.8296 36,13.8576 C35.448,13.8576 35,14.3056 35,14.8576 C35,18.8296 32.704,19.8936 32.618,19.9336 C32.244,20.0876 32,20.4536 32,20.8576 L32,23.8576 C32,24.2736 32.258,24.6456 32.648,24.7936 C35.526,25.8796 44.284,29.1796 45.102,31.6476 C45.778,33.6816 45.944,37.9236 45.986,39.8576 L43,39.8576 C42.448,39.8576 42,40.3056 42,40.8576 C42,41.4096 42.448,41.8576 43,41.8576 L47,41.8576 C47.552,41.8576 48,41.4096 48,40.8576 C48,40.5796 47.99,33.9936 47.002,31.0176"/>
  </g>
</svg>
