<svg width="600" height="102" viewBox="0 0 600 102" xmlns="http://www.w3.org/2000/svg" xmlns:xlink="http://www.w3.org/1999/xlink"><title>digital_ocean</title><defs><path id="a" d="M101.123 101.94H0V.878h101.123V101.94z"/></defs><g fill="none" fill-rule="evenodd"><mask id="b" fill="#fff"><use xlink:href="#a"/></mask><path d="M50.56 102V82.418c20.782 0 36.85-20.568 28.917-42.414-2.94-8.092-9.394-14.546-17.486-17.483-21.843-7.925-42.405 8.138-42.408 28.915 0 0-.002.005-.005.005H0C0 18.333 31.984-7.445 66.676 3.385c15.16 4.733 27.207 16.78 31.94 31.94C109.446 70.017 83.668 102 50.56 102" fill="#FFF" mask="url(#b)"/><path d="M50.606 82.468H31.082V62.95s.002-.003.004-.003h19.517c.002 0 .003.002.003.002v19.518M31.08 97.47H16.082l-.004-.005V82.468H31.08v14.997l-.003.004M16.09 82.468H3.52c-.006 0-.01-.004-.01-.004V69.9s.004-.01.01-.01h12.56c.006 0 .01.004.01.004v12.574M150.98 33.89h5.75c6.4 0 11.67 1.26 15.664 3.746 4.435 2.674 6.685 7.762 6.685 15.12 0 7.582-2.256 12.9-6.7 15.808h-.004c-3.827 2.53-9.063 3.815-15.565 3.815h-5.83V33.89zm29.036-3.775c-5.79-4.017-12.995-6.053-21.414-6.053h-18.327v58.146h18.327c8.398 0 15.606-2.15 21.42-6.386 3.165-2.245 5.65-5.383 7.39-9.324 1.732-3.92 2.61-8.543 2.61-13.74 0-5.138-.878-9.702-2.61-13.567-1.74-3.882-4.228-6.935-7.396-9.075zM202.78 23.346c-1.762 0-3.28.625-4.502 1.848-1.237 1.178-1.865 2.672-1.865 4.438 0 1.762.625 3.28 1.856 4.51 1.23 1.232 2.748 1.858 4.51 1.858 1.76 0 3.277-.626 4.51-1.857 1.233-1.234 1.857-2.75 1.857-4.51 0-1.765-.628-3.258-1.857-4.43-1.233-1.232-2.75-1.857-4.51-1.857M197.528 82.208h10.304V41.255h-10.304M242.554 68.863c-1.8 2.045-4.114 3.037-7.07 3.037-2.954 0-5.254-.992-7.028-3.035-1.767-2.032-2.664-4.727-2.664-8.01 0-3.334.897-6.063 2.665-8.11 1.75-2.026 4.115-3.054 7.028-3.054 2.953 0 5.266 1 7.068 3.06 1.794 2.046 2.704 4.773 2.704 8.105 0 3.28-.91 5.975-2.703 8.008zm2.703-24.187c-3.107-2.764-6.578-4.377-10.33-4.377-5.688 0-10.416 1.968-14.05 5.845-3.682 3.845-5.55 8.795-5.55 14.71 0 5.782 1.84 10.715 5.47 14.67 3.663 3.827 8.416 5.767 14.13 5.767 3.973 0 7.39-1.106 10.17-3.29v.942c0 3.398-.91 6.04-2.703 7.857-1.792 1.814-4.277 2.732-7.386 2.732-4.757 0-7.738-1.87-11.368-6.775l-7.017 6.743.19.265c1.515 2.128 3.836 4.21 6.9 6.188 3.066 1.97 6.92 2.97 11.454 2.97 6.117 0 11.067-1.885 14.71-5.603 3.666-3.738 5.525-8.744 5.525-14.873V41.255h-10.145v3.42zM264.22 82.208h10.306V41.255H264.22M269.473 23.346c-1.762 0-3.28.625-4.502 1.848-1.236 1.178-1.863 2.672-1.863 4.438 0 1.762.624 3.28 1.856 4.51 1.23 1.232 2.748 1.858 4.51 1.858 1.76 0 3.278-.626 4.51-1.857 1.233-1.234 1.857-2.75 1.857-4.51 0-1.765-.627-3.258-1.857-4.43-1.232-1.232-2.75-1.857-4.51-1.857M297.113 30.19h-10.145v11.065h-5.89v9.392h5.89v17.01c0 5.324 1.063 9.133 3.162 11.32 2.104 2.197 5.84 3.31 11.104 3.31 1.674 0 3.36-.054 5.007-.162l.465-.03v-9.386l-3.534.184c-2.452 0-4.09-.43-4.87-1.28-.787-.86-1.187-2.685-1.187-5.417v-15.55h9.592v-9.392h-9.592V30.19M355.024 82.208h10.306V24.062h-10.306M469.44 67.564c-1.844 2.066-3.73 3.857-5.182 4.788v.002c-1.425.914-3.223 1.378-5.344 1.378-3.036 0-5.478-1.106-7.467-3.384-1.978-2.265-2.98-5.176-2.98-8.657 0-3.48.99-6.387 2.942-8.636 1.96-2.263 4.39-3.363 7.424-3.363 3.32 0 6.82 2.065 9.818 5.61l6.81-6.53c-4.44-5.78-10.105-8.47-16.866-8.47-5.658 0-10.563 2.06-14.577 6.123-3.994 4.034-6.02 9.17-6.02 15.268 0 6.098 2.024 11.248 6.013 15.308 3.993 4.065 8.9 6.126 14.583 6.126 7.462 0 13.483-3.22 17.543-9.122l-6.7-6.438M489.21 56.618c.497-1.958 1.4-3.59 2.692-4.857 1.397-1.373 3.214-2.07 5.403-2.07 2.498 0 4.43.71 5.747 2.116 1.22 1.3 1.907 2.918 2.05 4.812h-15.89zm22.525-9.642c-1.462-2.036-3.452-3.675-5.918-4.873-2.458-1.197-5.323-1.804-8.515-1.804-5.752 0-10.46 2.122-13.993 6.31-3.432 4.158-5.17 9.325-5.17 15.36 0 6.206 1.908 11.343 5.67 15.267 3.742 3.906 8.75 5.887 14.885 5.887 6.95 0 12.652-2.81 16.95-8.354l.23-.298-6.722-6.46c-.624.75-1.506 1.603-2.312 2.363-1.017.96-1.973 1.703-2.995 2.212-1.54.767-3.268 1.145-5.2 1.145-2.856 0-5.22-.84-7.028-2.497-1.69-1.55-2.68-3.64-2.94-6.22h27.3l.093-3.76c0-2.663-.362-5.228-1.077-7.625-.715-2.402-1.812-4.64-3.258-6.654zM533.013 66.558c1.17-.815 2.82-1.225 4.91-1.225 2.48 0 5.11.497 7.822 1.48v4.018c-2.24 2.083-5.23 3.14-8.895 3.14-1.784 0-3.17-.397-4.124-1.18-.936-.768-1.39-1.744-1.39-2.98 0-1.405.548-2.47 1.677-3.252zm18.297-22.24c-3.124-2.665-7.44-4.02-12.83-4.02-3.43 0-6.636.755-9.537 2.225-2.683 1.36-5.318 3.614-6.992 6.564l.105.126 6.6 6.317c2.717-4.334 5.74-5.84 9.746-5.84 2.154 0 3.942.58 5.315 1.718 1.366 1.13 2.03 2.57 2.03 4.393v1.99c-2.555-.778-5.103-1.172-7.583-1.172-5.128 0-9.3 1.207-12.4 3.585-3.14 2.41-4.732 5.856-4.732 10.244 0 3.848 1.342 6.974 3.998 9.297 2.678 2.24 6.026 3.38 9.95 3.38 3.923 0 7.594-1.58 10.926-4.288v3.372h10.147V55.88c0-4.984-1.594-8.873-4.74-11.56zM595.694 45.12c-2.87-3.197-6.904-4.82-11.99-4.82-4.088 0-7.408 1.173-9.892 3.49v-2.535h-10.106v40.953h10.305V59.622c0-3.103.74-5.567 2.196-7.325 1.452-1.754 3.45-2.606 6.105-2.606 2.335 0 4.105.763 5.41 2.33 1.31 1.573 1.975 3.74 1.975 6.448v23.74H600v-23.74c0-5.672-1.448-10.16-4.306-13.347M323.776 66.558c1.17-.815 2.82-1.225 4.91-1.225 2.48 0 5.11.497 7.823 1.48v4.018c-2.24 2.083-5.233 3.14-8.897 3.14-1.784 0-3.17-.397-4.123-1.18-.936-.768-1.39-1.744-1.39-2.98 0-1.405.548-2.47 1.676-3.252zm18.297-22.24c-3.124-2.665-7.44-4.02-12.83-4.02-3.43 0-6.635.755-9.536 2.225-2.684 1.36-5.32 3.614-6.992 6.564l.103.126 6.6 6.317c2.717-4.334 5.74-5.84 9.746-5.84 2.153 0 3.94.58 5.314 1.718 1.366 1.13 2.03 2.57 2.03 4.393v1.99c-2.555-.778-5.103-1.172-7.583-1.172-5.128 0-9.3 1.207-12.4 3.585-3.14 2.41-4.732 5.856-4.732 10.244 0 3.848 1.342 6.974 4 9.297 2.677 2.24 6.024 3.38 9.95 3.38 3.922 0 7.592-1.58 10.924-4.288v3.372h10.147V55.88c0-4.984-1.594-8.873-4.74-11.56zM402.72 33.698c-10.703 0-19.41 8.707-19.41 19.41 0 10.705 8.707 19.412 19.41 19.412s19.41-8.707 19.41-19.41c0-10.705-8.707-19.412-19.41-19.412zm0 49.385c-16.53 0-29.975-13.446-29.975-29.974 0-16.53 13.446-29.976 29.975-29.976 16.528 0 29.974 13.446 29.974 29.975 0 16.527-13.446 29.973-29.974 29.973z" fill="#FFF"/></g></svg>