<svg xmlns="http://www.w3.org/2000/svg" width="177" height="46" viewBox="0 0 177 46">
  <g fill="#FFFFFF" fill-rule="evenodd">
    <path d="M42,42 L42,11 L2,11 L2,42 L42,42 Z M37,4 L42,4 L42,9 L2,9 L2,4 L7,4 L7,5.99707067 C7,6.56211865 7.44771525,7 8,7 C8.55613518,7 9,6.55097324 9,5.99707067 L9,4 L14,4 L14,5.99707067 C14,6.56211865 14.4477153,7 15,7 C15.5561352,7 16,6.55097324 16,5.99707067 L16,4 L21,4 L21,5.99707067 C21,6.56211865 21.4477153,7 22,7 C22.5561352,7 23,6.55097324 23,5.99707067 L23,4 L28,4 L28,5.99707067 C28,6.56211865 28.4477153,7 29,7 C29.5561352,7 30,6.55097324 30,5.99707067 L30,4 L35,4 L35,5.99707067 C35,6.56211865 35.4477153,7 36,7 C36.5561352,7 37,6.55097324 37,5.99707067 L37,4 Z M35,2 L30,2 L30,1.00292933 C30,0.437881351 29.5522847,0 29,0 C28.4438648,0 28,0.449026756 28,1.00292933 L28,2 L23,2 L23,1.00292933 C23,0.437881351 22.5522847,0 22,0 C21.4438648,0 21,0.449026756 21,1.00292933 L21,2 L16,2 L16,1.00292933 C16,0.437881351 15.5522847,0 15,0 C14.4438648,0 14,0.449026756 14,1.00292933 L14,2 L9,2 L9,1.00292933 C9,0.437881351 8.55228475,0 8,0 C7.44386482,0 7,0.449026756 7,1.00292933 L7,2 L2.00492334,2 C0.898855112,2 0,2.89763476 0,4.00492334 L0,43.9950767 C0,45.1011449 0.897634756,46 2.00492334,46 L41.9950767,46 C43.1011449,46 44,45.1023652 44,43.9950767 L44,4.00492334 C44,2.89885511 43.1023652,2 41.9950767,2 L37,2 L37,1.00292933 C37,0.437881351 36.5522847,0 36,0 C35.4438648,0 35,0.449026756 35,1.00292933 L35,2 Z"/>
    <path d="M5 16.0030706C5 15.44909 5.45492426 15 5.99914214 15L38.0008579 15C38.5526688 15 39 15.4389178 39 16.0030706L39 36.9969294C39 37.55091 38.5450757 38 38.0008579 38L5.99914214 38C5.44733117 38 5 37.5610822 5 36.9969294L5 16.0030706zM7 17L13 17 13 22 7 22 7 17zM23 17L29 17 29 22 23 22 23 17zM31 17L37 17 37 22 31 22 31 17zM7 24L13 24 13 29 7 29 7 24zM15 24L21 24 21 29 15 29 15 24zM23 24L29 24 29 29 23 29 23 24zM31 24L37 24 37 29 31 29 31 24zM7 31L13 31 13 36 7 36 7 31zM15 31L21 31 21 36 15 36 15 31zM23 31L29 31 29 36 23 36 23 31zM31 31L37 31 37 36 31 36 31 31zM64.968 15.248C64.4559974 15.248 64.0240018 15.0880016 63.672 14.768 63.3199982 14.4479984 63.144 14.0426691 63.144 13.552 63.144 13.0399974 63.3199982 12.6293349 63.672 12.32 64.0240018 12.0106651 64.4559974 11.856 64.968 11.856 65.4800026 11.856 65.9119982 12.0106651 66.264 12.32 66.6160018 12.6293349 66.792 13.0399974 66.792 13.552 66.792 14.0426691 66.6160018 14.4479984 66.264 14.768 65.9119982 15.0880016 65.4800026 15.248 64.968 15.248L64.968 15.248zM63.624 18.448L66.248 18.448 66.248 34 63.624 34 63.624 18.448zM70.036 23.504C70.036 21.8186582 70.2706643 20.3040067 70.74 18.96 71.2093357 17.6159933 71.8599958 16.4746714 72.692 15.536 73.5240042 14.5973286 74.510661 13.8773358 75.652 13.376 76.793339 12.8746642 78.0359933 12.624 79.38 12.624 80.6600064 12.624 81.7799952 12.8853307 82.74 13.408 83.7000048 13.9306693 84.4893302 14.5333299 85.108 15.216L83.604 16.912C83.0493306 16.3146637 82.4360034 15.8400018 81.764 15.488 81.0919966 15.1359982 80.3080045 14.96 79.412 14.96 78.4093283 14.96 77.5026707 15.1573314 76.692 15.552 75.8813293 15.9466686 75.1880029 16.5119963 74.612 17.248 74.0359971 17.9840037 73.5880016 18.8746614 73.268 19.92 72.9479984 20.9653386 72.788 22.1386602 72.788 23.44 72.788 24.7626733 72.9426651 25.9519947 73.252 27.008 73.5613349 28.0640053 73.9933306 28.9653296 74.548 29.712 75.1026694 30.4586704 75.779996 31.0346646 76.58 31.44 77.380004 31.8453354 78.2813283 32.048 79.284 32.048 80.3080051 32.048 81.1986629 31.8453354 81.956 31.44 82.7133371 31.0346646 83.4333299 30.4586704 84.116 29.712L85.62 31.344C84.7879958 32.3040048 83.8493386 33.050664 82.804 33.584 81.7586614 34.117336 80.5640067 34.384 79.22 34.384 77.8973267 34.384 76.6760056 34.1386691 75.556 33.648 74.4359944 33.1573309 73.4653374 32.4480046 72.644 31.52 71.8226626 30.5919954 71.182669 29.4506734 70.724 28.096 70.265331 26.7413266 70.036 25.2106752 70.036 23.504L70.036 23.504zM88 29.968C88 28.2613248 88.762659 26.9546712 90.288 26.048 91.813341 25.1413288 94.2399834 24.5066685 97.568 24.144 97.568 23.6533309 97.5200005 23.1733357 97.424 22.704 97.3279995 22.2346643 97.1573346 21.8186685 96.912 21.456 96.6666654 21.0933315 96.3413354 20.8000011 95.936 20.576 95.5306646 20.3519989 95.0080032 20.24 94.368 20.24 93.4506621 20.24 92.6026706 20.410665 91.824 20.752 91.0453294 21.093335 90.3466698 21.4773312 89.728 21.904L88.672 20.08C89.397337 19.6106643 90.2826614 19.1573355 91.328 18.72 92.3733386 18.2826645 93.525327 18.064 94.784 18.064 96.6826762 18.064 98.0586624 18.6453275 98.912 19.808 99.7653376 20.9706725 100.192 22.522657 100.192 24.464L100.192 34 98.016 34 97.792 32.144 97.728 32.144C96.9813296 32.7626698 96.1760043 33.2906645 95.312 33.728 94.4479957 34.1653355 93.5360048 34.384 92.576 34.384 91.2533267 34.384 90.1600043 34.0000038 89.296 33.232 88.4319957 32.4639962 88 31.376007 88 29.968L88 29.968zM90.592 29.776C90.592 30.6720045 90.8533307 31.3119981 91.376 31.696 91.8986693 32.0800019 92.5439962 32.272 93.312 32.272 94.0586704 32.272 94.7679966 32.0960018 95.44 31.744 96.1120034 31.3919982 96.8213296 30.8746701 97.568 30.192L97.568 25.872C96.2666602 26.0426675 95.1680045 26.2453322 94.272 26.48 93.3759955 26.7146678 92.6560027 26.9919984 92.112 27.312 91.5679973 27.6320016 91.1786678 27.9999979 90.944 28.416 90.7093322 28.8320021 90.592 29.2853309 90.592 29.776L90.592 29.776zM104.652 11.216L107.276 11.216 107.276 31.056C107.276 31.4826688 107.350666 31.7813325 107.5 31.952 107.649334 32.1226675 107.819999 32.208 108.012 32.208L108.252 32.208C108.326667 32.208 108.438666 32.1866669 108.588 32.144L108.94 34.128C108.769332 34.2133338 108.566668 34.2773331 108.332 34.32 108.097332 34.3626669 107.798668 34.384 107.436 34.384 106.433328 34.384 105.718669 34.0853363 105.292 33.488 104.865331 32.8906637 104.652 32.0160058 104.652 30.864L104.652 11.216zM118.532 13.008L130.628 13.008 130.628 15.248 121.188 15.248 121.188 22.352 129.188 22.352 129.188 24.592 121.188 24.592 121.188 34 118.532 34 118.532 13.008zM131.984 26.256C131.984 24.9759936 132.181331 23.8293384 132.576 22.816 132.970669 21.8026616 133.49333 20.9440035 134.144 20.24 134.79467 19.5359965 135.535996 18.9973352 136.368 18.624 137.200004 18.2506648 138.063996 18.064 138.96 18.064 139.941338 18.064 140.821329 18.234665 141.6 18.576 142.378671 18.917335 143.029331 19.4079968 143.552 20.048 144.074669 20.6880032 144.474665 21.4559955 144.752 22.352 145.029335 23.2480045 145.168 24.2506611 145.168 25.36 145.168 25.9360029 145.136 26.4159981 145.072 26.8L134.576 26.8C134.682667 28.4853418 135.199995 29.8186618 136.128 30.8 137.056005 31.7813382 138.266659 32.272 139.76 32.272 140.50667 32.272 141.194664 32.1600011 141.824 31.936 142.453336 31.7119989 143.055997 31.4186685 143.632 31.056L144.56 32.784C143.87733 33.2106688 143.120004 33.5839984 142.288 33.904 141.455996 34.2240016 140.506672 34.384 139.44 34.384 138.394661 34.384 137.418671 34.1973352 136.512 33.824 135.605329 33.4506648 134.816003 32.9173368 134.144 32.224 133.471997 31.5306632 132.944002 30.6826717 132.56 29.68 132.175998 28.6773283 131.984 27.5360064 131.984 26.256L131.984 26.256zM142.864 25.072C142.864 23.471992 142.528003 22.2506709 141.856 21.408 141.183997 20.5653291 140.240006 20.144 139.024 20.144 138.469331 20.144 137.941336 20.2559989 137.44 20.48 136.938664 20.7040011 136.485335 21.0239979 136.08 21.44 135.674665 21.8560021 135.338668 22.367997 135.072 22.976 134.805332 23.584003 134.629334 24.2826627 134.544 25.072L142.864 25.072zM147.356 26.256C147.356 24.9759936 147.553331 23.8293384 147.948 22.816 148.342669 21.8026616 148.86533 20.9440035 149.516 20.24 150.16667 19.5359965 150.907996 18.9973352 151.74 18.624 152.572004 18.2506648 153.435996 18.064 154.332 18.064 155.313338 18.064 156.193329 18.234665 156.972 18.576 157.750671 18.917335 158.401331 19.4079968 158.924 20.048 159.446669 20.6880032 159.846665 21.4559955 160.124 22.352 160.401335 23.2480045 160.54 24.2506611 160.54 25.36 160.54 25.9360029 160.508 26.4159981 160.444 26.8L149.948 26.8C150.054667 28.4853418 150.571995 29.8186618 151.5 30.8 152.428005 31.7813382 153.638659 32.272 155.132 32.272 155.87867 32.272 156.566664 32.1600011 157.196 31.936 157.825336 31.7119989 158.427997 31.4186685 159.004 31.056L159.932 32.784C159.24933 33.2106688 158.492004 33.5839984 157.66 33.904 156.827996 34.2240016 155.878672 34.384 154.812 34.384 153.766661 34.384 152.790671 34.1973352 151.884 33.824 150.977329 33.4506648 150.188003 32.9173368 149.516 32.224 148.843997 31.5306632 148.316002 30.6826717 147.932 29.68 147.547998 28.6773283 147.356 27.5360064 147.356 26.256L147.356 26.256zM158.236 25.072C158.236 23.471992 157.900003 22.2506709 157.228 21.408 156.555997 20.5653291 155.612006 20.144 154.396 20.144 153.841331 20.144 153.313336 20.2559989 152.812 20.48 152.310664 20.7040011 151.857335 21.0239979 151.452 21.44 151.046665 21.8560021 150.710668 22.367997 150.444 22.976 150.177332 23.584003 150.001334 24.2826627 149.916 25.072L158.236 25.072zM162.76 26.256C162.76 24.997327 162.946665 23.8613384 163.32 22.848 163.693335 21.8346616 164.18933 20.9760035 164.808 20.272 165.42667 19.5679965 166.141329 19.0240019 166.952 18.64 167.762671 18.2559981 168.615996 18.064 169.512 18.064 170.408004 18.064 171.186663 18.2239984 171.848 18.544 172.509337 18.8640016 173.18133 19.3013306 173.864 19.856L173.736 17.2 173.736 11.216 176.392 11.216 176.392 34 174.216 34 173.992 32.176 173.896 32.176C173.27733 32.7733363 172.568004 33.2906645 171.768 33.728 170.967996 34.1653355 170.109338 34.384 169.192 34.384 167.229324 34.384 165.666672 33.680007 164.504 32.272 163.341328 30.863993 162.76 28.8586797 162.76 26.256L162.76 26.256zM165.48 26.224C165.48 28.1013427 165.85333 29.5626614 166.6 30.608 167.34667 31.6533386 168.40266 32.176 169.768 32.176 170.493337 32.176 171.175997 32.0000018 171.816 31.648 172.456003 31.2959982 173.095997 30.757337 173.736 30.032L173.736 21.904C173.074663 21.3066637 172.440003 20.8853346 171.832 20.64 171.223997 20.3946654 170.600003 20.272 169.96 20.272 169.34133 20.272 168.760003 20.4159986 168.216 20.704 167.671997 20.9920014 167.197335 21.3973307 166.792 21.92 166.386665 22.4426693 166.066668 23.066663 165.832 23.792 165.597332 24.517337 165.48 25.3279955 165.48 26.224L165.48 26.224z"/>
  </g>
</svg>
