<svg xmlns="http://www.w3.org/2000/svg" width="48" height="48" viewBox="0 0 48 48">
  <path fill="#FFFFFF" fill-rule="evenodd" d="M24,48 C37.254834,48 48,37.254834 48,24 C48,10.745166 37.254834,0 24,0 C10.745166,0 0,10.745166 0,24 C0,37.254834 10.745166,48 24,48 Z M13.4142136,24.5857864 C12.633165,23.8047379 11.366835,23.8047379 10.5857864,24.5857864 C9.80473785,25.366835 9.80473785,26.633165 10.5857864,27.4142136 L17.5857864,34.4142136 C18.366835,35.1952621 19.633165,35.1952621 20.4142136,34.4142136 L35.4142136,19.4142136 C36.1952621,18.633165 36.1952621,17.366835 35.4142136,16.5857864 C34.633165,15.8047379 33.366835,15.8047379 32.5857864,16.5857864 L19,30.1715729 L13.4142136,24.5857864 Z"/>
</svg>
