<svg width="400" height="63" viewBox="0 0 400 63" xmlns="http://www.w3.org/2000/svg"><title>jawbone</title><path d="M13.194.624h7.036V43.24c0 7.567-3.368 12.724-19.298 19.72l-.278-2.292c11.795-7.64 12.54-9.026 12.54-16.492V.624zM258.518 50.89c-9.563 0-18.372-9.043-18.372-25.347 0-14.86 7.69-22.61 16.846-22.61 9.576 0 18.476 9.227 18.476 25.545 0 14.67-7.396 22.412-16.95 22.412zM257.395.084c-13.492 0-24.94 11.89-24.94 26.928 0 15.132 11.727 26.844 25.51 26.844 13.758 0 25.164-11.712 25.164-26.844 0-15.04-11.685-26.928-25.735-26.928zm-60.75 50.23c-2.944 0-6.63-.365-7.885-.54V26.54h6.736c9.478 0 14.032 4.198 14.032 12.59 0 6.728-4.165 11.185-12.884 11.185zM188.76 4.28s4.1-.657 7.983-.657c6.45 0 10.42 2.89 10.42 9.87 0 6.715-4.546 10.168-12.434 10.168h-5.97V4.278zm12.824 20.397v-.173c7.005-1.31 12.867-5.137 12.867-11.75 0-8.024-7.942-12.128-16.944-12.128H181.67v52.674h14.68c13.744 0 20.753-6.506 20.753-14.9 0-7.274-6.353-12.214-15.52-13.723zm170.9 26.033l27.417-.632-.243 3.218h-34.184V.632h32.76v3.324l-25.75-.742v21.324h20.626v3.03h-20.627v23.14zM338.096.632h4.29v52.662h-2.204l-33.92-42.057h-.322v42.057h-4.307V5.767L297.597.632h7.97l32.33 39.186h.2V.632zM157.354.624h4.487l-15.39 52.67h-2.82l-15.153-40.41h-.292l-14.803 40.41h-2.716L94.803.624h7.148l11.728 41.32h.257L128.4.624h2.022l15.665 41.223h.29L157.355.624zM52.384 30.336L60.34 8.66h.278l8.325 21.676H52.386zM57.51.632l1.316 3.41-18.852 49.252h4.147l7.135-19.908h18.912l7.677 19.908h7.434L64.713.632H57.51z" fill="#FFF" fill-rule="evenodd"/></svg>