<svg width="163" height="28" viewBox="0 0 163 28" xmlns="http://www.w3.org/2000/svg"><title>kimsufi</title><g fill="#FFF" fill-rule="evenodd"><path d="M0 0h48v28H0V0zm2 13L12 2h7L9 13l9.5 13H12l-6.5-9.5L2 20v-7zM22.5 2H46v24H22s-4-2-4-7h7c0 2 .5 4 6 4s5-3 5-3 0-1.5-4-2.5-7.5-2-9-2.5-4.5-2.5-4.5-6.5 3-6 4-6.5zM41 11c1.657 0 3-1.343 3-3s-1.343-3-3-3-3 1.343-3 3 1.343 3 3 3zm-6 0V9c0-1-.5-4-5-4s-4.016 2-4.017 2.5C25.983 10 35 11 35 11zM51 1.246h5.02v9.944l9.425-9.944h6.593L62.033 11.19l10.52 14.204h-6.56l-7.538-10.55-2.436 2.473v8.077H51V1.246zm27.406 4.16H73.62V1.1h4.786v4.31zm-4.787 2.13h4.786v17.858H73.62V7.537zm30.403.066c.773.306 1.474.84 2.104 1.606.508.622.85 1.387 1.027 2.293.11.602.166 1.48.166 2.64l-.033 11.254h-4.838v-11.37c0-.677-.11-1.234-.332-1.67-.42-.83-1.193-1.246-2.32-1.246-1.302 0-2.202.535-2.7 1.606-.253.568-.38 1.25-.38 2.047v10.634h-4.755V14.76c0-1.058-.11-1.828-.33-2.308-.398-.863-1.177-1.295-2.337-1.295-1.347 0-2.253.432-2.716 1.295-.254.49-.38 1.223-.38 2.195v10.747h-4.79V7.57H86v2.604c.585-.928 1.137-1.59 1.656-1.982.917-.7 2.104-1.048 3.562-1.048 1.38 0 2.496.3 3.346.9.685.558 1.204 1.273 1.557 2.147.62-1.048 1.387-1.818 2.304-2.31.972-.49 2.054-.736 3.247-.736.796 0 1.58.152 2.353.458zm9.83 12.09c.1.83.315 1.42.646 1.77.585.623 1.667.934 3.246.934.928 0 1.665-.137 2.212-.41.546-.273.82-.682.82-1.228 0-.525-.22-.923-.663-1.196-.442-.273-2.082-.743-4.92-1.41-2.043-.502-3.484-1.13-4.324-1.883-.838-.744-1.258-1.814-1.258-3.212 0-1.65.655-3.067 1.963-4.252 1.31-1.185 3.15-1.777 5.525-1.777 2.253 0 4.09.444 5.508 1.334 1.42.89 2.234 2.427 2.444 4.612h-4.722c-.066-.6-.237-1.076-.513-1.426-.52-.633-1.403-.95-2.65-.95-1.028 0-1.76.16-2.196.475-.435.317-.653.688-.653 1.114 0 .535.232.922.696 1.163.464.25 2.104.682 4.92 1.294 1.877.437 3.285 1.097 4.224 1.982.928.895 1.39 2.014 1.39 3.358 0 1.77-.664 3.213-1.995 4.333-1.33 1.12-3.387 1.68-6.17 1.68-2.84 0-4.934-.593-6.287-1.778-1.353-1.185-2.03-2.694-2.03-4.53h4.788zm18.41-12.155V18.3c0 1.016.123 1.78.366 2.294.43.906 1.274 1.36 2.533 1.36 1.613 0 2.717-.645 3.313-1.934.31-.7.464-1.622.464-2.768V7.537h4.788v17.857h-4.59V22.87c-.043.056-.154.22-.33.492-.177.273-.387.514-.63.72-.74.657-1.455 1.104-2.145 1.345-.69.24-1.5.36-2.427.36-2.673 0-4.473-.95-5.4-2.85-.52-1.05-.78-2.594-.78-4.637V7.537h4.838zm26.032.082H163v17.774h-4.705V7.62zm-3.843-6.587c.298.022.608.043.928.065v3.8c-.22-.01-.436-.018-.646-.023-.21-.006-.464-.01-.762-.01-.74 0-1.193.203-1.36.607-.164.405-.236 1.038-.214 1.9v.33h3.098v3.29h-3.098v14.402h-4.705v-14.4h-2.634V7.7h2.584V6.555c0-1.9.425-3.315 1.275-4.243.76-.873 2.313-1.31 4.654-1.31.287 0 .58.01.878.033zm6.043 4.9c1.377 0 2.494-1.103 2.494-2.466 0-1.362-1.118-2.467-2.495-2.467C159.117 1 158 2.105 158 3.467c0 1.363 1.117 2.467 2.495 2.467z"/></g></svg>