<svg xmlns="http://www.w3.org/2000/svg" width="320" height="115" viewBox="0 0 320 115">
  <path fill="#FFFFFF" fill-rule="evenodd" d="M188.547883,61.5874846 C188.107828,62.25262 187.82688,62.7087522 187.520495,63.1481182 C184.658529,67.2472218 181.447,70.9898141 177.06913,73.5796735 C171.201021,77.0488392 164.840722,78.4798219 158.211302,77.0428676 C154.809718,76.3048682 151.644985,74.4011019 148.441322,72.8821541 C147.70292,72.5336815 147.299326,72.5248391 146.642976,72.9122414 C143.895101,74.5329921 141.222444,76.349712 138.312936,77.60976 C133.148835,79.845405 127.71125,81.098046 122.091017,79.6111951 C118.56828,78.6791788 115.52091,76.6944524 112.767752,74.3070505 C110.815295,72.6144119 110.689893,72.6159047 108.709588,74.2446941 C105.14884,77.1748152 101.038081,79.0641121 96.7365771,80.6248031 C91.4007375,82.5625611 85.8978676,83.7499174 80.2696532,84.3073357 C73.4026356,84.9872277 67.0350438,83.8210014 62.387996,78.1760783 C58.6630311,73.6529969 57.6668783,68.4060984 59.9456446,62.9516323 C62.4415674,56.9793091 65.3275912,51.1677002 68.0377423,45.2863278 C69.4508679,42.2220771 70.8731804,39.1607547 72.2438164,36.078245 C72.4945054,35.5119842 72.5958489,34.8513274 72.6244433,34.2262701 C72.6780722,33.0770397 72.9119375,31.8183698 71.5831022,31.1268793 C70.2254428,30.4227568 68.6235828,30.549709 67.6284061,31.8089532 C66.3808179,33.3844007 65.277063,35.110055 64.3484917,36.8937593 C61.2724702,42.7979268 58.2964143,48.7563547 55.2959555,54.6992222 C53.0450946,59.1554686 50.8374124,63.6315242 48.5660532,68.0762294 C46.4140669,72.2920072 42.3692238,73.8982311 37.9855545,72.2588768 C36.5090389,71.7045016 35.5828792,70.6153309 35.334085,68.9585214 C34.9821099,66.6079247 35.7528952,64.5029067 36.5867835,62.3986926 C38.4078672,57.7957995 40.2525499,53.2015767 42.0728872,48.5971908 C43.0476803,46.1284843 44.023105,43.6577107 44.9382978,41.1662665 C45.5794322,39.424248 45.7720712,37.5767518 45.0241958,35.8656244 C44.4454178,34.5463206 43.3063504,33.5928871 41.7083948,33.7344811 C39.9633331,33.8892238 38.5904579,34.8008566 37.9326146,36.4210906 C35.6179619,42.1357772 33.3977625,47.8880154 31.1204317,53.6174586 C28.396615,60.4752317 25.7180441,67.3516085 22.8805963,74.1629876 C21.8302979,76.6800978 20.2460653,78.9720703 17.5805858,80.0494128 C16.2312521,80.5964958 14.7035767,80.9348054 13.2506027,80.9551889 C8.7173008,81.0145596 4.80216601,79.5000904 2.12824598,75.6525372 C0.00204058041,72.5927077 -0.517998368,69.1873339 0.509619724,65.5848426 C1.45995258,62.2498639 2.41045768,58.9150575 3.4073569,55.5932276 C4.35194791,52.445433 5.35608185,49.3144621 6.33661681,46.1761416 C7.25048894,43.2541738 8.10487555,40.3101 9.09580325,37.4146021 C11.0459637,31.7144998 12.6185403,25.8434628 15.7090312,20.6148234 C17.8234659,17.0371943 21.2487064,15.1029962 25.1769326,13.9031228 C29.2839598,12.6504817 32.7825811,14.2274222 36.2890114,15.9721968 C37.6187079,16.6321071 38.9308345,17.3378373 40.2956137,17.9127683 C42.1996671,18.7122055 43.9357141,18.2061192 45.4736675,16.9534782 C46.7323374,15.9288459 48.0024911,14.9050174 49.1626884,13.771979 C52.061172,10.9423401 58.3225971,10.4179948 61.3824266,13.7110006 C62.0871807,14.4693261 62.9188296,15.1090252 63.6970793,15.7962092 C65.2988246,17.211 65.9611464,17.35535 67.8143845,16.3095302 C72.2215954,13.8210718 76.7871665,14.1656399 81.2751078,15.7608395 C83.8787476,16.6872288 85.4372568,18.89916 86.4324334,21.5189344 C87.8962595,25.3760191 87.2825711,29.1004098 85.8157018,32.7258111 C83.1173789,39.395424 80.1784153,45.9663346 77.545492,52.6609245 C75.9848584,56.6323868 74.6668752,60.7160447 73.5453779,64.8321441 C73.0886141,66.5095669 73.0856284,68.4985422 73.5117307,70.1838887 C74.1564251,72.7349332 76.4930117,73.5707736 78.8562405,73.8701535 C82.455057,74.3263431 85.9865217,73.6574755 89.4343851,72.7039272 C92.3790331,71.8927767 95.2782632,70.8916285 98.1540665,69.8523545 C99.5416409,69.3507469 100.834762,68.580708 102.159233,67.9081082 C103.292272,67.3351868 103.379778,66.4963606 102.782683,65.4415836 C101.562943,63.2890231 100.2801,61.1635068 99.2056281,58.9368765 C96.9335798,54.230458 95.0640349,49.3737754 95.5627717,44.0066427 C95.9984629,39.3090092 97.6948911,35.229026 102.029353,32.7565299 C108.42841,29.1092522 113.621163,30.1163145 118.324596,35.5655556 C122.392234,40.2794385 123.733644,45.9537599 121.987376,52.033226 C121.010401,55.4325708 119.612606,58.7183419 118.279178,62.0057207 C117.910207,62.915918 118.124377,63.498945 118.700227,64.0350037 C121.394071,66.5513101 124.465614,68.5060066 127.875352,69.8891023 C129.161008,70.4128735 130.520161,70.8029744 131.882758,71.0766882 C134.813453,71.6640216 137.532332,70.9665596 139.973822,69.3104965 C141.136431,68.5227153 141.161867,67.7865533 140.355253,66.6871622 C134.739384,59.0278273 132.516428,50.5026222 134.203957,41.1345716 C134.836249,37.6272801 136.458607,34.3144649 140.223305,33.3045317 C142.550418,32.6795892 145.18047,32.7060017 147.600199,33.0141091 C151.532674,33.5142239 155.094111,35.0837573 157.51005,38.4693791 C160.408534,42.5317922 161.148658,46.9777607 159.901242,51.8344433 C159.005571,55.3227293 157.17576,58.2901724 155.160946,61.172464 C154.363059,62.3151487 154.332283,63.3683754 155.420018,64.1325577 C157.095087,65.3097508 158.797372,66.6004603 160.690286,67.2820748 C164.8034,68.7620929 169.071256,68.6330162 173.215031,67.3010803 C177.749137,65.8406993 180.935,62.8331206 182.751892,58.3702138 C184.921965,53.0331109 184.948435,47.4427927 184.838479,41.8322632 C184.751145,37.4484216 184.597953,33.0649819 184.468015,28.6797048 C184.42185,27.1138461 184.169668,27.0229527 182.676903,27.3266389 C178.744428,28.1210806 174.792086,28.8243419 170.845486,29.545977 C169.600769,29.7719186 168.345085,29.9251685 167.101171,30.1495598 C164.389815,30.637387 162.152849,29.5233541 161.999599,26.3518458 C161.843306,23.1556475 161.380628,19.9747225 161.052022,16.7857015 C161.032845,16.6062114 161.018145,16.4256878 161.008671,16.2444751 C160.825219,12.4916623 161.73335,10.4504362 166.238804,10.613964 C170.891593,10.7849561 175.544383,10.938206 180.191431,11.1823493 C182.477374,11.3012055 183.28129,10.7254132 183.431726,8.45703971 C183.547712,6.69601569 183.596805,4.93361362 183.706703,3.17333604 C183.871782,0.533120639 184.473757,-0.094061147 187.155887,0.0108423706 C188.759298,0.0739452528 190.370517,0.353400874 191.93873,0.706122444 C194.146986,1.20267724 195.30437,2.75756901 195.457563,4.95405459 C195.581586,6.75389349 195.529565,8.56774249 195.501028,10.3733806 C195.477487,11.6509987 195.874248,12.3367473 197.306552,12.481327 C201.440968,12.9022043 205.559134,13.4773075 209.684765,13.9671443 C211.632801,14.1990001 212.725991,14.9875277 212.989427,16.4359082 C213.44642,18.9515256 212.902725,20.6743089 211.004011,21.3616078 C208.348178,22.3223334 205.602427,23.0543039 202.856562,23.7312101 C200.934996,24.205831 198.944413,24.4089775 196.991382,24.767728 C195.680806,25.0075649 194.968587,25.696127 194.980358,27.1704033 C195.029393,34.4502595 194.86443,41.7367763 195.075787,49.0096849 C195.185686,52.8263471 195.758608,56.6482343 197.384526,60.2133462 C198.697973,63.1008629 200.94091,64.2384373 204.060283,63.7153552 C208.63751,62.9474982 212.833363,61.3398963 216.488163,58.443652 C218.516125,56.8367391 219.850128,54.8703292 219.951242,52.1545512 C220.134005,47.184869 220.379526,42.2167372 220.671327,37.2543472 C220.755789,35.8226754 220.918054,34.3381787 221.395316,33.0026828 C221.661451,32.2618125 222.633373,31.2820814 223.310279,31.2622146 C227.049139,31.1492151 230.813493,31.1118931 234.534726,31.4346423 C236.875734,31.6369849 238.483852,33.827097 238.360001,36.305335 C238.192224,39.7750174 237.743499,43.2324122 237.413343,46.6949748 C237.005499,50.9670801 236.629523,55.2421712 236.175401,59.5085346 C235.715479,63.8270341 239.169658,65.9685128 242.587434,66.0103134 C245.454625,66.0447645 247.147264,64.9747716 248.365511,61.9406081 C249.626994,58.8000483 250.376707,55.3954784 250.920747,52.0377046 C251.690269,47.2705948 252.054532,42.4380279 252.622343,37.6376728 C252.853452,35.6771771 254.077327,34.17 255.599318,33.8429445 C257.358964,33.4652459 259.667587,34.1790147 260.243552,35.7873631 C260.726843,37.1315865 260.616772,38.7738692 260.448536,40.2479732 C259.826809,45.715014 258.930047,51.1547236 258.417932,56.6326165 C258.102475,59.9975676 259.988959,62.3930081 263.258251,63.3874958 C264.887384,63.8818113 266.577095,64.2727161 268.264279,64.467824 C271.2273,64.8066503 273.325543,62.6436971 273.944514,59.2758751 C274.4684,56.4441691 274.537991,53.5286322 274.792585,50.6486373 C275.090357,47.2286219 275.133535,43.7646239 275.717998,40.3939309 C276.57761,35.403693 279.801024,30.8769942 285.773405,29.4246518 C289.358269,28.5519487 292.972473,28.4478491 296.55171,28.8614342 C302.009047,29.4891902 307.717475,33.1988817 309.462365,39.4675416 C310.78741,44.2332733 310.260826,48.8369702 308.7018,53.4216042 C306.895932,58.7344764 303.594945,62.874749 298.985277,66.0277686 C298.559691,66.3182486 298.311069,66.8696954 297.984014,67.3009654 C298.562619,67.5569369 299.147197,68.043099 299.723219,68.0328785 C305.232634,67.9485882 310.428545,66.6884828 315.186008,63.8025738 C316.259447,63.1527117 317.428716,62.6605207 318.562501,62.1214189 C319.604186,61.6278498 320.21799,62.2124271 319.928199,63.1108537 C319.444735,64.6165952 318.863144,66.2053065 317.900236,67.4217739 C313.823067,72.5757118 308.261687,75.0466002 301.829385,75.4793631 C299.100975,75.6625854 296.331797,75.2981505 293.582774,75.1462786 C291.507843,75.0302934 289.43676,74.849942 287.361944,74.7092668 C286.308889,74.6403072 285.700828,75.0824867 285.437335,76.170911 C283.785578,82.9881467 282.911497,89.9203342 282.054928,96.8711828 C281.514276,101.247503 280.697843,105.609123 279.65076,109.891679 C279.083695,112.215117 277.269272,113.816977 274.757215,114.221834 C273.25578,114.463738 272.144675,113.813933 271.640828,112.414531 C271.216219,111.234524 270.819572,109.995836 270.718458,108.759329 C270.223109,102.656437 270.425567,96.5683004 271.236086,90.4947485 C271.646915,87.4048317 271.921777,84.2972875 272.274671,81.2007102 C272.523981,79.0467143 272.848396,76.8999531 273.050911,74.741536 C273.209845,72.9982542 272.813083,72.5867362 271.143871,72.2546278 C267.691472,71.5658935 264.237293,70.8888724 260.799765,70.127676 C258.464441,69.6083835 256.644046,70.4355537 255.061249,72.0448208 C252.958069,74.1842324 250.634286,76.0434994 247.87665,77.2455548 C244.546265,78.698414 241.016236,78.3932349 237.590536,77.8505156 C232.648587,77.0635957 228.701355,74.4651809 225.8952,70.2955675 C225.023646,69.0019298 224.393019,67.5423526 223.710141,66.1318109 C223.328079,65.34202 222.984142,65.0347738 222.05804,65.5070406 C218.773532,67.1792957 215.501254,68.896165 212.110637,70.3285832 C208.334168,71.924644 204.326647,72.4855074 200.313441,71.3664217 C196.401292,70.2735189 193.400833,67.7550306 190.909447,64.6071212 C190.240694,63.7635293 189.583655,62.9141955 188.547883,61.5874846 Z M301.226893,45.9317687 C301.183714,45.3905423 301.183714,44.8455837 301.094027,44.3131424 C300.593223,41.2297139 297.497277,39.849604 295.003077,41.708871 C293.875206,42.5492475 292.850459,43.6530024 292.08088,44.8339852 C289.511174,48.7731209 288.350919,53.2859244 287.190665,57.7736934 C286.898634,58.90099 286.69543,60.0928823 286.718857,61.2500938 C286.762438,63.4056974 288.029835,64.0393675 289.835244,62.8746916 C293.582372,60.4572598 296.357865,57.1041368 298.70094,53.3767604 C300.124746,51.112521 301.2908,48.7238559 301.226893,45.9317687 Z M154.191436,48.1063204 C154.224336,45.963923 153.724222,43.9815508 152.146477,42.4406692 C151.271765,41.5868567 150.178115,41.2150722 148.923924,41.6060345 C147.402794,42.0774974 146.580562,43.2062868 146.466184,45.0794491 C146.244836,48.7082955 147.803288,51.8262324 149.40733,54.8955359 C150.233237,56.4761512 151.017975,56.4261397 152.084982,54.9653568 C153.577517,52.9226952 154.159855,50.6006929 154.191436,48.1063204 Z M117.197357,47.4132222 C116.80071,46.1009808 116.53825,44.7266701 115.97176,43.4908527 C115.248574,41.9182761 113.384369,41.2105936 111.735656,41.6418636 C109.990766,42.0996035 109.300769,42.9312524 109.481809,45.0808846 C109.640973,46.9518649 110.070865,48.817735 110.56874,50.6350866 C110.933922,51.9707547 111.496565,53.279838 112.161701,54.4965925 C113.056625,56.1357172 113.991684,56.1519092 114.871737,54.5648056 C116.084759,52.3799186 117.022173,50.08519 117.197357,47.4132222 Z"/>
</svg>
