<svg xmlns="http://www.w3.org/2000/svg" width="111" height="72" viewBox="0 0 111 72">
  <g fill="#FFFFFF" fill-rule="evenodd">
    <path d="M0 4C0 1.79 1.798 0 4 0L68 0C70.21 0 72 1.798 72 4L72 68C72 70.21 70.202 72 68 72L4 72C1.79 72 0 70.202 0 68L0 4zM8.89 66.08C6.29 66.08 3.946 64.424 3.946 60.806 3.946 57.189 6.291 55.534 8.891 55.534 11.491 55.534 13.834 57.189 13.834 60.806 13.834 64.424 11.492 66.079 8.894 66.079L8.89 66.08zM8.89 57.757C6.925 57.757 6.566 59.527 6.566 60.807 6.566 62.085 6.926 63.859 8.891 63.859 10.858 63.859 11.217 62.083 11.217 60.804 11.217 59.524 10.857 57.754 8.893 57.754L8.89 57.757zM15.636 55.797L18.138 55.797 18.138 56.972C18.615 56.338 19.79 55.592 20.891 55.592 20.997 55.592 21.126 55.592 21.234 55.606L21.234 58.076 21.104 58.076C19.962 58.076 18.711 58.254 18.307 59.143L18.307 65.788 15.637 65.788 15.637 55.798 15.636 55.797zM28.22 64.92C27.202 65.587 26.1 65.912 24.915 65.912 23.051 65.912 21.945 64.672 21.945 63.006 21.945 60.768 24.002 59.586 28.24 59.109L28.24 58.549C28.24 57.825 27.69 57.399 26.672 57.399 25.654 57.399 24.829 57.804 24.232 58.549L22.459 57.539C23.389 56.236 24.806 55.584 26.712 55.584 29.318 55.584 30.782 56.714 30.782 58.55 30.782 58.55 30.779 65.775 30.782 65.79L28.452 65.79 28.217 64.918 28.22 64.92zM24.536 62.814C24.536 63.486 24.956 64.114 25.721 64.114 26.548 64.114 27.351 63.772 28.159 63.061L28.159 60.697C25.702 61 24.539 61.634 24.539 62.817L24.536 62.814zM32.862 56.064L35.04 55.764 35.28 56.949C36.507 56.049 37.483 55.569 38.71 55.569 40.766 55.569 41.83 56.659 41.83 58.822L41.83 65.777 39.197 65.777 39.197 59.277C39.197 58.054 38.88 57.503 37.929 57.503 37.143 57.503 36.359 57.859 35.463 58.611L35.463 65.776 32.86 65.776 32.86 56.06 32.862 56.064zM52.955 55.762L52.955 65.222C52.955 66.889 52.822 69.645 48.065 69.67 46.1 69.684 44.278 68.896 43.915 67.182L46.508 66.762C46.616 67.255 46.918 67.742 48.39 67.742 49.752 67.742 50.407 67.092 50.407 65.53L50.407 64.366 50.373 64.331C49.953 65.081 49.32 65.791 47.793 65.791 45.463 65.791 43.629 64.173 43.629 60.796 43.629 57.454 45.519 55.582 47.642 55.579 49.639 55.576 50.374 56.485 50.548 56.963L50.512 56.96 50.732 55.764 52.952 55.764 52.955 55.762zM48.265 63.642C50.257 63.627 50.428 61.595 50.428 60.275 50.428 58.705 49.665 57.441 48.248 57.441 47.302 57.441 46.246 58.131 46.246 60.385 46.246 61.615 46.334 63.66 48.264 63.643L48.265 63.642zM59.242 65.972C56.297 65.972 54.542 64.075 54.542 60.789 54.542 57.462 56.318 55.569 59.2 55.569 62.082 55.569 63.797 57.406 63.797 60.654 63.797 60.828 63.777 60.999 63.777 61.17L57.123 61.17C57.141 63.067 57.928 64.02 59.475 64.02 60.469 64.02 61.127 63.62 61.745 62.743L63.668 63.809C62.821 65.226 61.295 65.969 59.242 65.969L59.242 65.972zM61.215 59.468C61.215 58.133 60.448 57.346 59.2 57.346 58.012 57.346 57.27 58.116 57.165 59.468L61.215 59.468zM62.217 52.006L62.217 52.446 63.249 52.446 63.249 55.31 63.794 55.31 63.794 52.445 64.829 52.445 64.829 52.005 62.216 52.005 62.217 52.006zM68.297 52.006L67.33 54.512 66.344 52.006 65.5 52.006 65.5 55.31 66.047 55.31 66.047 52.553 66.061 52.553 67.147 55.31 67.497 55.31 68.572 52.553 68.592 52.553 68.592 55.31 69.134 55.31 69.134 52.006 68.3 52.006 68.297 52.006zM76 55.344L78.176 55.344C78.4106678 55.344 78.6026659 55.3973328 78.752 55.504 78.9013341 55.6106672 79.0079997 55.7519991 79.072 55.928L81.328 62.168C81.4293338 62.4400014 81.5319995 62.7359984 81.636 63.056 81.7400005 63.3760016 81.8373329 63.7119982 81.928 64.064 82.002667 63.7119982 82.0893328 63.3760016 82.188 63.056 82.2866672 62.7359984 82.3839995 62.4400014 82.48 62.168L84.72 55.928C84.7733336 55.7786659 84.8773326 55.6440006 85.032 55.524 85.1866674 55.4039994 85.3759989 55.344 85.6 55.344L87.792 55.344 83.12 67 80.672 67 76 55.344zM99.276 61.168C99.276 62.0106709 99.1306681 62.794663 98.84 63.52 98.5493319 64.245337 98.1400026 64.8759973 97.612 65.412 97.0839974 65.9480027 96.4480037 66.3679985 95.704 66.672 94.9599963 66.9760015 94.1346712 67.128 93.228 67.128 92.3213288 67.128 91.4946704 66.9760015 90.748 66.672 90.0013296 66.3679985 89.3626693 65.9480027 88.832 65.412 88.3013307 64.8759973 87.8906681 64.245337 87.6 63.52 87.3093319 62.794663 87.164 62.0106709 87.164 61.168 87.164 60.3253291 87.3093319 59.541337 87.6 58.816 87.8906681 58.090663 88.3013307 57.461336 88.832 56.928 89.3626693 56.394664 90.0013296 55.9760015 90.748 55.672 91.4946704 55.3679985 92.3213288 55.216 93.228 55.216 94.1346712 55.216 94.9599963 55.3693318 95.704 55.676 96.4480037 55.9826682 97.0839974 56.402664 97.612 56.936 98.1400026 57.469336 98.5493319 58.098663 98.84 58.824 99.1306681 59.549337 99.276 60.3306625 99.276 61.168zM96.508 61.168C96.508 60.5919971 96.4333341 60.0733356 96.284 59.612 96.1346659 59.1506644 95.9200014 58.7600016 95.64 58.44 95.3599986 58.1199984 95.0173354 57.8746675 94.612 57.704 94.2066646 57.5333325 93.7453359 57.448 93.228 57.448 92.7053307 57.448 92.240002 57.5333325 91.832 57.704 91.423998 57.8746675 91.0800014 58.1199984 90.8 58.44 90.5199986 58.7600016 90.3053341 59.1506644 90.156 59.612 90.0066659 60.0733356 89.932 60.5919971 89.932 61.168 89.932 61.7493362 90.0066659 62.2706644 90.156 62.732 90.3053341 63.1933356 90.5199986 63.5839984 90.8 63.904 91.0800014 64.2240016 91.423998 64.4679992 91.832 64.636 92.240002 64.8040008 92.7053307 64.888 93.228 64.888 93.7453359 64.888 94.2066646 64.8040008 94.612 64.636 95.0173354 64.4679992 95.3599986 64.2240016 95.64 63.904 95.9200014 63.5839984 96.1346659 63.1933356 96.284 62.732 96.4333341 62.2706644 96.508 61.7493362 96.508 61.168zM110.648 61.168C110.648 62.0106709 110.502668 62.7879964 110.212 63.5 109.921332 64.2120036 109.512003 64.8279974 108.984 65.348 108.455997 65.8680026 107.820004 66.2733319 107.076 66.564 106.331996 66.8546681 105.506671 67 104.6 67L100.072 67 100.072 55.344 104.6 55.344C105.506671 55.344 106.331996 55.4906652 107.076 55.784 107.820004 56.0773348 108.455997 56.4826641 108.984 57 109.512003 57.5173359 109.921332 58.1319964 110.212 58.844 110.502668 59.5560036 110.648 60.3306625 110.648 61.168zM107.88 61.168C107.88 60.5919971 107.805334 60.0720023 107.656 59.608 107.506666 59.1439977 107.292001 58.7506683 107.012 58.428 106.731999 58.1053317 106.389335 57.8573342 105.984 57.684 105.578665 57.5106658 105.117336 57.424 104.6 57.424L102.792 57.424 102.792 64.92 104.6 64.92C105.117336 64.92 105.578665 64.8333342 105.984 64.66 106.389335 64.4866658 106.731999 64.2386683 107.012 63.916 107.292001 63.5933317 107.506666 63.2000023 107.656 62.736 107.805334 62.2719977 107.88 61.7493362 107.88 61.168z"/>
  </g>
</svg>
