<svg xmlns="http://www.w3.org/2000/svg" width="320" height="85" viewBox="0 0 320 85">
  <g fill="none" fill-rule="evenodd" transform="translate(0 .265)">
    <path fill="#FFFFFF" d="M44.097561 33L34 10 16 51 52 51 47.6097561 41 36 41 36 33 44.097561 33zM34 68C52.7776815 68 68 52.7776815 68 34 68 15.2223185 52.7776815 0 34 0 15.2223185 0 0 15.2223185 0 34 0 52.7776815 15.2223185 68 34 68zM184.874578 44.464L184.812 44.464 181.74 52 174.204 52 188.604 18.16 195.42 18.16 209.82 52 202.092 52 199.02 44.464 191.608398 44.464 191.608398 37.936 196.38 37.936 191.916 27.04 187.452 37.936 187.518463 37.936 184.874578 44.464zM88.992 52L91.488 52 91.488 38.08 102.48 38.08 113.184 52 116.352 52 105.264 37.648C110.928 36.88 115.104 33.664 115.104 28.048 115.104 25.552 114.144 23.296 112.56 21.712 110.544 19.696 107.232 18.4 103.104 18.4L88.992 18.4 88.992 52zM91.488 35.824L91.488 20.704 102.96 20.704C109.056 20.704 112.608 23.536 112.608 28.048L112.608 28.144C112.608 32.992 108.432 35.824 102.816 35.824L91.488 35.824zM139.812 47.44L139.812 52 142.164 52 142.164 27.52 139.812 27.52 139.812 41.68C139.812 46.768 136.116 50.416 131.316 50.416 126.372 50.416 123.54 47.104 123.54 42.064L123.54 27.52 121.188 27.52 121.188 42.496C121.188 48.352 124.788 52.576 130.98 52.576 135.444 52.576 138.18 50.32 139.812 47.44zM149.592 52L151.944 52 151.944 37.84C151.944 32.752 155.64 29.104 160.44 29.104 165.384 29.104 168.216 32.416 168.216 37.456L168.216 52 170.568 52 170.568 37.024C170.568 31.168 166.968 26.944 160.776 26.944 156.312 26.944 153.576 29.2 151.944 32.08L151.944 27.52 149.592 27.52 149.592 52zM239.01 39.184C239.01 30.496 233.298 25.792 227.298 25.792 223.506 25.792 221.058 27.568 219.282 29.968L219.282 16.96 211.986 16.96 211.986 52 219.282 52 219.282 48.64C221.01 50.704 223.41 52.48 227.298 52.48 233.394 52.48 239.01 47.776 239.01 39.184zM219.186 39.184L219.186 39.088C219.186 34.816 222.018 31.984 225.426 31.984 228.834 31.984 231.714 34.816 231.714 39.088L231.714 39.184C231.714 43.504 228.834 46.288 225.426 46.288 222.018 46.288 219.186 43.456 219.186 39.184zM268.728 39.184L268.728 39.088C268.728 31.696 262.824 25.792 254.856 25.792 246.84 25.792 240.888 31.792 240.888 39.184L240.888 39.28C240.888 46.672 246.792 52.576 254.76 52.576 262.776 52.576 268.728 46.576 268.728 39.184zM248.088 39.184L248.088 39.088C248.088 35.296 250.584 32.08 254.76 32.08 258.792 32.08 261.528 35.392 261.528 39.184L261.528 39.28C261.528 43.072 259.032 46.288 254.856 46.288 250.824 46.288 248.088 42.976 248.088 39.184zM278.142 52.192L284.766 52.192 294.894 26.272 287.31 26.272 281.502 43.504 275.742 26.272 268.014 26.272 278.142 52.192zM318.132 47.776L313.956 44.08C311.94 45.952 310.164 46.72 307.716 46.72 304.452 46.72 302.148 44.992 301.428 41.68L319.332 41.68C319.38 41.008 319.428 40.336 319.428 39.76 319.428 32.464 315.492 25.792 306.9 25.792 299.412 25.792 294.18 31.84 294.18 39.184L294.18 39.28C294.18 47.152 299.892 52.576 307.62 52.576 312.276 52.576 315.732 50.752 318.132 47.776zM301.332 37.12C301.908 33.808 303.876 31.648 306.9 31.648 309.972 31.648 311.892 33.856 312.324 37.12L301.332 37.12z"/>
    <g transform="translate(13 60)">
      <path fill="#FECC18" d="M0,0 L6,0 L6,6 L0,6 L0,0 Z M6,6 L12,6 L12,12 L6,12 L6,6 Z M12,0 L18,0 L18,6 L12,6 L12,0 Z M12,12 L18,12 L18,18 L12,18 L12,12 Z M18,6 L24,6 L24,12 L18,12 L18,6 Z M18,18 L24,18 L24,24 L18,24 L18,18 Z M24,0 L30,0 L30,6 L24,6 L24,0 Z M24,12 L30,12 L30,18 L24,18 L24,12 Z M30,6 L36,6 L36,12 L30,12 L30,6 Z M36,0 L42,0 L42,6 L36,6 L36,0 Z"/>
      <path fill="#EF7B1A" d="M6,0 L12,0 L12,6 L6,6 L6,0 Z M12,6 L18,6 L18,12 L12,12 L12,6 Z M18,12 L24,12 L24,18 L18,18 L18,12 Z M24,6 L30,6 L30,12 L24,12 L24,6 Z M30,0 L36,0 L36,6 L30,6 L30,0 Z"/>
      <rect width="6" height="6" x="18" fill="#E84425"/>
    </g>
  </g>
</svg>
