<svg width="72" height="72" viewBox="0 0 72 72" xmlns="http://www.w3.org/2000/svg"><title>sfr</title><path d="M0 4c0-2.21 1.798-4 4-4h64c2.21 0 4 1.798 4 4v64c0 2.21-1.798 4-4 4H4c-2.21 0-4-1.798-4-4V4zm18.957 37.12c.77.727 1.65 1.315 2.64 1.767.99.45 1.98.676 2.97.676 1.232 0 2.167-.253 2.805-.76.638-.505.957-1.176.957-2.012 0-.44-.083-.813-.248-1.12-.166-.31-.396-.578-.694-.81-.297-.23-.648-.445-1.056-.643-.407-.198-.852-.396-1.336-.594l-2.97-1.287c-.528-.22-1.05-.495-1.567-.825-.52-.33-.986-.725-1.404-1.187-.418-.462-.753-1-1.007-1.617-.254-.616-.38-1.32-.38-2.112 0-.858.18-1.655.544-2.393.364-.736.864-1.38 1.502-1.93s1.402-.978 2.293-1.286c.89-.308 1.864-.462 2.92-.462 1.254 0 2.464.247 3.63.743 1.166.495 2.167 1.16 3.003 1.996l-1.947 2.443c-.704-.572-1.43-1.023-2.178-1.353-.748-.33-1.584-.495-2.508-.495-1.034 0-1.86.225-2.475.677-.616.45-.924 1.072-.924 1.864 0 .418.094.775.28 1.072.19.298.44.56.76.793.32.232.688.44 1.106.628.418.187.847.368 1.287.544l2.937 1.22c.638.265 1.22.573 1.75.925.527.352.983.76 1.37 1.22.384.463.686.996.906 1.602.22.604.33 1.302.33 2.094 0 .88-.176 1.705-.528 2.475-.352.77-.863 1.445-1.535 2.03-.67.582-1.484 1.043-2.442 1.385-.956.34-2.04.51-3.25.51-1.45 0-2.853-.274-4.206-.824-1.354-.55-2.547-1.33-3.58-2.342l2.243-2.607zM36.183 24.92h13.035v3.234H40.01v6.105h7.855v3.234H40.01v9.01h-3.827V24.918zM64.793 46.5l-4.652-8.448h-3.3V46.5h-3.827V24.918h7.293c1.122 0 2.167.11 3.135.33.97.22 1.805.577 2.51 1.072.703.496 1.258 1.15 1.665 1.964.408.814.61 1.826.61 3.036 0 1.65-.39 2.98-1.17 3.993-.782 1.012-1.82 1.738-3.12 2.178l5.15 9.01h-4.29zm-7.952-11.484h3.07c1.474 0 2.6-.308 3.383-.924.78-.616 1.17-1.54 1.17-2.772 0-1.254-.39-2.123-1.17-2.607-.782-.484-1.91-.726-3.383-.726h-3.07v7.03z" fill="#FFF" fill-rule="evenodd"/></svg>