<svg width="362" height="76" viewBox="0 0 362 76" xmlns="http://www.w3.org/2000/svg"><title>trainline</title><path d="M24.552 24.775c-1.212 5.153-3.536 8.79-8.184 11.922h15.964V24.775h-7.78zM0 24.775v11.922h5.052c8.992 0 14.448-4.75 16.57-11.922H0zm22.127-2.93c.202-.808.202-1.718.202-2.728V9.923H10.204v6.87c0 2.02-.404 3.84-1.313 5.052h13.235zM8.993 39.627v20.207c0 9.598 6.062 15.357 15.76 15.357 4.952 0 7.58-1.21 7.58-1.21V62.864c-.71.202-2.527.404-4.144.404-3.84 0-5.86-1.415-5.86-5.76V39.627H8.992zM71.23 24.573c-1.01-.1-2.02-.202-3.132-.202-4.243 0-11.114 1.213-14.145 7.78v-7.375H40.92v49.71h13.437V51.75c0-10.708 5.96-14.043 12.832-14.043 1.21 0 2.525.102 4.04.405v-13.54zm5.052 36.373c0 7.78 6.466 14.953 17.075 14.953 7.375 0 12.124-3.437 14.65-7.377 0 1.92.202 4.648.505 5.96h12.326c-.303-1.716-.606-5.253-.606-7.88v-24.45c0-10.002-5.86-18.894-21.62-18.894-13.338 0-20.51 8.587-21.32 16.367l11.922 2.526c.405-4.344 3.638-8.083 9.498-8.083 5.658 0 8.386 2.93 8.386 6.466 0 1.718-.91 3.133-3.74 3.537L91.135 45.89c-8.285 1.214-14.852 6.164-14.852 15.056zm19.904 4.95c-4.345 0-6.466-2.83-6.466-5.76 0-3.838 2.728-5.758 6.163-6.263l11.215-1.718v2.223c0 8.79-5.254 11.518-10.912 11.518zm229.652-21.924c.303-4.547 4.143-9.8 11.114-9.8 7.68 0 10.912 4.85 11.114 9.8h-22.228zm23.54 12.932c-1.615 4.446-5.05 7.578-11.314 7.578-6.67 0-12.226-4.75-12.53-11.316H361.1c0-.202.202-2.223.202-4.143 0-15.963-9.195-25.764-24.552-25.764-12.73 0-24.45 10.305-24.45 26.168C312.3 66.198 324.323 76 337.962 76c12.226 0 20.106-7.174 22.632-15.762l-11.215-3.334zm-219.043 17.58h13.438v-49.71h-13.438v49.71zM128.72 8.508c0 4.446 3.737 8.184 8.284 8.184 4.648 0 8.285-3.738 8.285-8.184 0-4.647-3.638-8.386-8.286-8.386-4.547 0-8.285 3.74-8.285 8.386zm107.904 65.976h13.438v-49.71h-13.438v49.71zm-1.616-65.976c0 4.446 3.738 8.184 8.285 8.184 4.647 0 8.285-3.738 8.285-8.184 0-4.647-3.638-8.386-8.285-8.386-4.547 0-8.285 3.74-8.285 8.386zM167.213 45.89c0-5.758 3.436-10.304 9.296-10.304 6.465 0 9.193 4.344 9.193 9.9v28.998h13.437v-31.32c0-10.912-5.658-19.702-17.984-19.702-5.355 0-11.316 2.323-14.347 7.476v-6.163h-13.034v49.71h13.437V45.89zm106.188 0c0-5.758 3.436-10.304 9.296-10.304 6.467 0 9.195 4.344 9.195 9.9v28.998h13.438v-31.32c0-10.912-5.658-19.702-17.984-19.702-5.355 0-11.316 2.323-14.347 7.476v-6.163h-13.034v49.71H273.4V45.89zM229.15 63.17c-.91.1-1.617.1-2.324.1-3.334 0-5.76-1.21-5.76-5.556V1.335H207.83v58.6c0 9.598 6.062 15.256 15.76 15.256 2.123 0 3.638-.2 5.558-.605V63.168z" fill="#48D5B5" fill-rule="evenodd"/></svg>