<svg width="144" height="31" viewBox="0 0 144 31" xmlns="http://www.w3.org/2000/svg"><title>uber</title><path d="M22.516.99v16.475c0 5.5-2.435 7.785-8.146 7.785-5.712 0-8.147-2.284-8.147-7.785V.27h-5.5C.24.27 0 .51 0 .99v16.745c0 9.2 5.862 12.416 14.37 12.416 8.507 0 14.37-3.216 14.37-12.415V.27h-5.503c-.48 0-.72.24-.72.72zm79.748 4.06c.45 0 .66-.15.81-.482L104.67.63c.09-.24 0-.36-.242-.36H82.273c-2.074 0-2.855.63-2.855 2.044v25.582c0 1.203.6 1.744 2.194 1.744h20.652c.45 0 .66-.15.81-.48l1.595-3.94c.09-.24 0-.36-.242-.36H85.52v-5.2c0-1.805.992-2.616 3.667-2.616h8.207c.45 0 .66-.15.81-.48l1.535-3.79c.09-.24 0-.36-.242-.36H85.52V5.05h16.744zm-39.002 9.108c2.405-1.263 3.396-3.637 3.396-6.433 0-6.493-5.29-7.455-10.76-7.455H43.39c-2.073 0-2.854.63-2.854 2.044v25.582c0 1.203.6 1.744 2.194 1.744h15.39c5.803 0 9.95-2.255 9.95-8.117 0-3.517-1.502-6.493-4.808-7.365zm79.808 14.97l-6.583-11.303c3.277-.84 5.922-3.005 5.922-8.507 0-7.124-4.42-9.048-11.725-9.048H118.12c-2.074 0-2.856.63-2.856 2.044v26.604c0 .48.24.722.72.722h5.382v-8.568c0-1.803.992-2.615 3.668-2.615h5.41l5.953 10.702c.18.3.36.48.81.48h5.593c.39 0 .39-.33.27-.51zm-11.483-15.24h-10.22V4.99h10.22c3.818 0 4.66 1.472 4.66 4.45 0 3.005-.842 4.447-4.66 4.447zm-84.952-8.9h9.713c3.246 0 4.148 1.224 4.148 3.76 0 2.534-.902 3.757-4.148 3.757h-9.713V4.99zM57.49 24.92H46.635v-5.38c0-1.805.992-2.616 3.668-2.616h7.187c3.457 0 4.42 1.322 4.42 4.028 0 2.706-.963 3.968-4.42 3.968z" fill="#FFF" fill-rule="evenodd"/></svg>