<svg width="660" height="131" viewBox="0 0 660 131" xmlns="http://www.w3.org/2000/svg"><title>withings</title><g fill="#FFF" fill-rule="evenodd"><path d="M245.632 12.455l-14.937 66.718c-.093.41-.678.41-.77 0l-14.93-66.718c-.608-2.702-3.008-4.626-5.78-4.626h-3.155c-3.79 0-6.603 3.51-5.78 7.21L218.9 98.39c.604 2.706 3.004 4.63 5.775 4.63h7.262c2.772 0 5.175-1.924 5.78-4.63l15.045-67.345 15.046 67.345c.608 2.706 3.008 4.63 5.78 4.63h7.26c2.777 0 5.177-1.924 5.78-4.63l18.616-83.347c.828-3.7-1.986-7.21-5.776-7.21h-3.154c-2.772 0-5.172 1.923-5.78 4.625l-14.93 66.718c-.093.41-.677.41-.77 0l-14.938-66.718c-.607-2.702-3.007-4.626-5.78-4.626h-2.708c-2.768 0-5.172 1.923-5.776 4.625M461.568 7.83c-2.33 0-4.32.823-5.965 2.46-1.653 1.642-2.474 3.624-2.474 5.946 0 2.32.82 4.3 2.473 5.938 1.645 1.645 3.634 2.466 5.965 2.466 2.334 0 4.32-.82 5.968-2.466 1.65-1.637 2.47-3.62 2.47-5.938 0-2.322-.82-4.304-2.47-5.945-1.65-1.637-3.634-2.46-5.968-2.46M454.216 40.82v56.274c0 3.27 2.652 5.922 5.922 5.922h2.865c3.27 0 5.918-2.65 5.918-5.922V40.82c0-3.268-2.646-5.92-5.917-5.92h-2.865c-3.27 0-5.922 2.652-5.922 5.92M323.9 7.83c-2.33 0-4.32.823-5.965 2.46-1.653 1.642-2.473 3.624-2.473 5.946 0 2.32.82 4.3 2.473 5.938 1.645 1.645 3.635 2.466 5.965 2.466 2.334 0 4.32-.82 5.97-2.466 1.648-1.637 2.47-3.62 2.47-5.938 0-2.322-.822-4.304-2.47-5.945-1.65-1.637-3.636-2.46-5.97-2.46M316.548 40.82v56.275c0 3.27 2.652 5.922 5.92 5.922h2.867c3.27 0 5.92-2.65 5.92-5.922V40.82c0-3.267-2.65-5.92-5.92-5.92h-2.868c-3.267 0-5.92 2.653-5.92 5.92M365.964 45.755h5.918c2.18 0 3.948-1.765 3.948-3.945v-3.034c0-2.18-1.77-3.95-3.948-3.95h-5.918v-15.46c0-3.27-2.648-5.917-5.92-5.917h-2.867c-3.27 0-5.92 2.646-5.92 5.917v15.46h-4.164c-2.18 0-3.948 1.77-3.948 3.95v3.033c0 2.18 1.77 3.945 3.948 3.945h4.165v51.34c0 3.27 2.648 5.918 5.92 5.918h2.867c3.27 0 5.92-2.648 5.92-5.92V45.756M515.45 34.94c13.192 0 19.61 8.326 19.61 19.188v42.967c0 3.27-2.647 5.922-5.918 5.922h-2.87c-3.27 0-5.917-2.65-5.917-5.922V59.31c0-6.452-1.847-14.21-11.195-14.21-8.77 0-11.194 8.04-11.194 14.21v37.785c0 3.27-2.648 5.922-5.92 5.922h-2.867c-3.272 0-5.924-2.65-5.924-5.922V40.863c0-3.27 2.652-5.923 5.923-5.923h3.107c3.267 0 5.92 2.652 5.92 5.923v2.48c2.96-5.128 9.072-8.403 17.243-8.403M419.977 34.94c13.188 0 19.61 8.326 19.61 19.188v42.967c0 3.27-2.65 5.922-5.922 5.922h-2.87c-3.266 0-5.917-2.65-5.917-5.922V59.31c0-6.452-1.843-14.21-11.19-14.21-8.776 0-11.195 8.04-11.195 14.21v37.785c0 3.27-2.652 5.922-5.923 5.922h-2.868c-3.267 0-5.92-2.65-5.92-5.922V19.368c0-3.267 2.653-5.92 5.92-5.92h3.108c3.27 0 5.923 2.653 5.923 5.92v23.976c2.957-5.13 9.073-8.404 17.244-8.404M585.087 79.254c0 6.17-2.42 14.21-11.194 14.21-9.348 0-11.19-7.757-11.19-14.21V59.31c0-6.452 1.842-14.21 11.19-14.21 8.775 0 11.194 8.04 11.194 14.21v19.944zm8.79-44.314h-3.107c-3.27 0-5.923 2.652-5.923 5.923v2.48c-2.957-5.128-9.073-8.403-17.244-8.403-13.192 0-19.61 8.326-19.61 19.192v30.305c0 10.862 6.418 19.188 19.61 19.188 8.17 0 14.287-3.275 17.244-8.404v8.652c0 7.657-2.89 14.226-10.292 14.226-3.097 0-5.458-.82-7.23-2.052-2.18-1.517-5.022-1.683-7.21-.174l-.788.546c-3.368 2.322-3.422 7.366-.012 9.63 3.902 2.598 8.973 4.224 14.578 4.224 15.812 0 25.904-9.712 25.904-27.824V40.863c0-3.27-2.652-5.923-5.92-5.923zM29.047 40.532c0-8.02-6.503-14.524-14.524-14.524C6.503 26.008 0 32.51 0 40.532c0 10.196 14.523 18.67 14.523 18.67s14.524-8.993 14.524-18.67zm13.88 18.67S25.75 67.81 25.75 79.654c0 9.487 7.69 17.18 17.178 17.18 9.487 0 17.18-7.693 17.18-17.18 0-12.108-17.18-20.454-17.18-20.454zm50.388-25.115c0-11.582-9.39-20.972-20.972-20.972s-20.97 9.39-20.97 20.972c0 14.31 20.97 25.114 20.97 25.114S93.315 48.4 93.315 34.088zm13.88 25.114S83.99 68.844 83.99 85.323c0 12.816 10.386 23.206 23.206 23.206 12.816 0 23.21-10.39 23.21-23.206 0-16.22-23.21-26.12-23.21-26.12zm62.9-31.372c0-15.04-12.19-27.228-27.23-27.228-15.033 0-27.227 12.19-27.227 27.228 0 18.5 27.228 31.373 27.228 31.373s27.228-12.355 27.228-31.372zM646.275 84.31c0-14.95-34.31-6.124-34.31-29.752 0-9.823 6.41-20.498 24.342-20.498 10.675 0 21.36 3.842 21.36 8.397 0 2.14-2.143 7.262-5.7 7.262-2.992 0-7.396-4.127-15.37-4.127-8.404 0-11.533 4.694-11.533 8.252 0 12.53 34.586 4.27 34.586 29.893 0 12.1-8.96 19.79-25.047 19.79-14.094 0-24.48-5.98-24.48-11.393 0-2.56 2.133-6.688 5.123-6.688 3.698 0 6.688 6.55 18.928 6.55 9.4 0 12.1-3.843 12.1-7.686"/></g></svg>