<svg width="144" height="61" viewBox="0 0 144 61" xmlns="http://www.w3.org/2000/svg"><title>edf</title><path d="M36.708 9.327c.23-1.9-.053-4.677 1.447-5.984.438-2.027 3.63-1.555 3.132-2.844C40.98-.31 39.48.073 38.87.22c-.457.11-4.834 1.493-6.517 1.682l-2.137-.596c-2.745.368-4.33 2.553-5.858 4.29-1.28 1.456-3.015 5.018-1.636 7.15-.077.467-.155.93-.23 1.4l3.12 4.56c1.076.772 1.22 1.345 2.378 2.106l.716 1.076c.95.623 3.742.63 4.214.226 4.498.418 4.01-8.692 5.438-10.6-.18-.86-.936-1.75-1.65-2.19zm-19.39 27.35c.953-.248 2.58-.375 3.432-.8 1.358-.68 6.027-3.944 4.542-6.602-.46-5.597-7.216-.866-10.092-2.83-2.912-.374-6.184-5.882-7.06-8.24-.342-.933-.2-.613-.666-1.352.005-.076-.3.257-.295.178-.854.993-.706 1.86-.838 4.276-.383-.023-.762-.048-1.146-.072-.073.876-.162 1.355-.572 1.803-.082.15-.17.292-.253.44-.723-.242-.36.103-.656-.5-2.68.13-2.483 2.825-3.715 4.36.054 5.027 10.01 11.232 17.316 9.34zm33.066-15.275c-4.343.656-7 2.04-8.64 3.176-1.145.8-1.482 1.337-1.728 1.67-.247.338-.415 1.082-.292 1.866.126.778.442 1.608 1.12 2.068 5.333-.395 14.593-.73 16.395 3.75.095.624.235.998.25 1.148 1.762-.435.472-.28 3.073.13.597.09 2.064-.24 3.04-.477.44-.104.69-.507.69-.507s-.082-.425-.057-.657c0 0 .913.065 1.287-.22 2.466-.4 1.17-1.56 2.334-2.868-.7-8.375-9.292-10.322-17.474-9.08zm-9.52 18.218c-1.238.945-1.76.71-2.484 2.174-.073 0 .11.223.034.223.74 1.47 2.43 2.065 3.675 3.1.385.327 1.434 2.145 1.932 2.277.56.668.926 2.515 1.29 2.515.382.52-.03 1.74.342 2.216.027 2.188-.278 2.346-.66 2.764 0 .155.212.553.212.7.103.105.982.735 1.364.658 1.19.036 6.078 3.848 6.465 4.584 3.506.263 3.252-.808 5.67-1.833.654-.283 1.173-.016 1.602-.464.45-.46.487-1.364.918-1.832.056-8.62-11.675-16.786-20.362-17.085zm-13.81 1.97c-.487.518-1.827.71-2.202 1.302-.575.9-1.89 2.948-2.922 3.922-3.32 3.15-10.426 4.734-13.933 1.723-.228.016-.094.148.178 1.01.256 1.632 1.57 5.458 1.087 6.436.313 1.087.644.69 1.238 1.29.41.408.575 1.472 1.042 1.76.536-.034 1.07-.072 1.603-.11.095.298.195.594.293.9.683-.053 1.37-.1 2.056-.15.387.086 1.552.69 1.893.78.762-.054 1.524-.104 2.285-.16 1.745.465 3.265-.263 4.736-1.256.82-.55 1.72-.463 2.448-1.086 1.056-.904 2.494-2.674 3.165-3.897 1.653-3 1.095-10.184-.402-11.962-.584-.637-1.276-.65-2.562-.5zm59.186 1.16c-3.284 0-5.807-2.207-5.807-5.658V36.8s6.097-.15 8.16-.15c3.52 0 4.967-.03 7.738-.07v-1.96c0-8.868-3.76-13.18-11.502-13.18-3.57 0-11.87 1.34-11.87 13.756 0 8.282 4.183 13.23 11.49 13.23 5.74 0 9.264-1.462 11.815-3.327-.287-.43-2.427-4.273-2.703-4.69-1.534 1.17-4.06 2.34-7.32 2.34zm-5.81-10.923c.1-1.506.64-5.002 4.44-5.002 3.897 0 4.11 3.288 4.11 5.02v.352s-2.6.07-4.155.07c-1.555 0-4.418-.07-4.418-.07l.024-.37zm30.767-9.83c7.217 0 12.1 4.558 12.1 12.72 0 10.26-6.705 13.295-13.733 13.295h-9.403c.035-.568 0-2.085 0-3.99v-18.04c0-1.9.035-3.112 0-3.985H111.2zm-2.11 21.076c3.986 0 7.227-1.318 7.227-8.355 0-5.985-3.24-7.976-7.226-7.976h-2.09v16.33h2.09zm24.435.95c0 1.904.093 3.99.093 3.99h-6.977s.047-2.086.047-3.99v-18.04c0-1.9-.047-3.986-.047-3.986h16.494v5.033s-3.686-.094-4.94-.094h-4.67v5.24l4.67.05c.875 0 3.886-.05 3.886-.05v4.793s-2.673-.074-3.885-.074l-4.67.027v7.1z" fill="#FFF" fill-rule="evenodd"/></svg>