<svg fill="none" xmlns="http://www.w3.org/2000/svg" viewBox="0 0 33 32"><rect x=".123" width="32" height="32" rx="9.764" fill="#fff"/><rect x=".123" width="32" height="32" rx="9.764" fill="url(#paint0_linear_12591_72)"/><rect x=".123" width="32" height="32" rx="9.764" fill="url(#paint1_linear_12591_72)"/><rect x=".123" width="32" height="32" rx="9.764" fill="url(#paint2_linear_12591_72)"/><path d="M16.127 4.975a.096.096 0 00.04.017c.006 0 .013.003.02.004.082.008.161.033.233.074.022.01.043.024.065.036l1.59.9 1.859 1.051 1.348.763c.028.016.056.03.083.048a.726.726 0 01.34.54c0 .049.004.099.004.149v4.678a.653.653 0 01-.097.324.728.728 0 01-.96.273l-.074-.041-2.39-1.352-1.692-.956-.084-.047a.81.81 0 00-.265-.076h-.085c-.111 0-.22.028-.318.08a4166.002 4166.002 0 00-1.89 1.082l-2.17 1.243-.093.053a.793.793 0 01-.262.085l-.105.004c-.1 0-.2-.023-.29-.068a.713.713 0 01-.42-.645V8.557v-.085a.718.718 0 01.334-.6c.024-.016.05-.03.073-.044l1.28-.733 1.52-.87 1.536-.88.38-.217.084-.047a.82.82 0 01.159-.067.791.791 0 01.105-.018.072.072 0 00.038-.018l.104-.003zM4.947 18.027a.053.053 0 00.039-.046.724.724 0 01.402-.578l.97-.561 2.165-1.249.842-.486c.03-.018.061-.036.093-.053a.681.681 0 01.309-.075.729.729 0 01.736.697v4.773a.727.727 0 00.317.587c.032.023.067.042.1.06l.923.517 1.901 1.062 1.178.657.093.053c.162.094.28.25.327.431a.69.69 0 01.02.286.708.708 0 01-.334.522c-.03.018-.062.035-.093.052l-3.078 1.693-1.048.575c-.028.015-.053.032-.084.046a.738.738 0 01-.372.082.727.727 0 01-.344-.106l-.322-.19-4.28-2.516-.082-.049A.724.724 0 015 23.756c-.008-.032-.01-.064-.016-.095a.042.042 0 00-.026-.031.07.07 0 00-.01-.003l-.001-5.6zM21.618 27.107a.119.119 0 00-.026-.018.76.76 0 00-.082-.024.702.702 0 01-.189-.072l-.101-.059-1.581-.913-2.341-1.349c-.025-.014-.05-.028-.073-.043a.71.71 0 01-.335-.598.71.71 0 01.4-.665l1.335-.765 1.799-1.03.843-.483c.037-.02.075-.042.11-.064a.725.725 0 00.338-.52c.006-.057.009-.114.009-.171v-.61-3.886-.106c0-.034 0-.057.003-.085.01-.17.08-.33.2-.45a.716.716 0 01.33-.19.706.706 0 01.167-.028.733.733 0 01.425.125l1.073.618 1.887 1.09.989.57.093.053c.125.077.224.19.283.325a.226.226 0 01.022.07.121.121 0 00.023.048v5.897a.048.048 0 00-.022.035.265.265 0 01-.025.082.713.713 0 01-.27.31c-.03.019-.06.036-.091.052l-1.455.834-3.242 1.86c-.027.015-.053.032-.083.046a.692.692 0 01-.188.073.605.605 0 00-.073.021.046.046 0 00-.023.02h-.129z" fill="#fff"/><defs><linearGradient id="paint0_linear_12591_72" x1="32.123" y1="18.667" x2=".123" y2="18.667" gradientUnits="userSpaceOnUse"><stop offset=".13" stop-color="#A033FF"/><stop offset=".61" stop-color="#0094FF"/><stop offset="1" stop-color="#4FB500"/></linearGradient><linearGradient id="paint1_linear_12591_72" x1="14.789" y1="10" x2="4.789" y2="30" gradientUnits="userSpaceOnUse"><stop stop-color="#FFD600" stop-opacity="0"/><stop offset=".563" stop-color="#FFC700"/></linearGradient><linearGradient id="paint2_linear_12591_72" x1="17.456" y1="18.667" x2="28.789" y2="30.667" gradientUnits="userSpaceOnUse"><stop offset=".03" stop-color="#FF3B30" stop-opacity="0"/><stop offset=".843" stop-color="#E73B2D"/></linearGradient></defs></svg>