<svg xmlns="http://www.w3.org/2000/svg" width="136" height="95" viewBox="0 0 136 95">
  <g fill="#D4951A" fill-rule="evenodd">
    <path d="M12.0253906,94 L12.0253906,88.0068359 C12.0253906,87.5305966 12.0068361,87.0899272 11.9697266,86.6848145 C11.932617,86.2797018 11.8553066,85.962729 11.737793,85.7338867 C11.6140944,85.4864896 11.4378267,85.304037 11.2089844,85.1865234 C10.9801421,85.0690098 10.6709004,85.0102539 10.28125,85.0102539 C9.92252425,85.0102539 9.53751833,85.1200347 9.1262207,85.3395996 C8.71492307,85.5591645 8.28971574,85.8761373 7.85058594,86.2905273 C7.85677086,86.3956711 7.86450191,86.520914 7.8737793,86.6662598 C7.88305669,86.8116055 7.88769531,86.9832347 7.88769531,87.1811523 L7.88769531,94 L6.14355469,94 L6.14355469,88.0068359 C6.14355469,87.5305966 6.12500019,87.0899272 6.08789062,86.6848145 C6.05078106,86.2797018 5.97347064,85.962729 5.85595703,85.7338867 C5.7322585,85.4864896 5.55599073,85.304037 5.32714844,85.1865234 C5.09830615,85.0690098 4.78906445,85.0102539 4.39941406,85.0102539 C4.02213353,85.0102539 3.62630416,85.1277658 3.21191406,85.362793 C2.79752397,85.5978202 2.39550976,85.8977846 2.00585938,86.2626953 L2.00585938,94 L0.26171875,94 L0.26171875,83.637207 L2.00585938,83.637207 L2.00585938,84.7875977 C2.46354396,84.3299131 2.91658304,83.9758313 3.36499023,83.7253418 C3.81339742,83.4748523 4.30663793,83.3496094 4.84472656,83.3496094 C5.45703431,83.3496094 5.99975349,83.4887681 6.47290039,83.7670898 C6.94604729,84.0454115 7.30631387,84.5030893 7.55371094,85.1401367 C8.07942971,84.5525687 8.59277093,84.1072606 9.09375,83.8041992 C9.59472907,83.5011378 10.1389945,83.3496094 10.7265625,83.3496094 C11.1718772,83.3496094 11.5769839,83.4191888 11.9418945,83.5583496 C12.3068052,83.6975105 12.6253242,83.9217107 12.8974609,84.230957 C13.1757826,84.5463883 13.3907056,84.9391253 13.5422363,85.4091797 C13.693767,85.8792341 13.7695312,86.4698858 13.7695312,87.1811523 L13.7695312,94 L12.0253906,94 Z M21.5078125,91.4487305 L21.5078125,88.5727539 C21.0934224,88.6098635 20.5692577,88.6608883 19.9353027,88.7258301 C19.3013477,88.7907718 18.7895527,88.8819981 18.3999023,88.9995117 C17.9360328,89.141765 17.5525731,89.3597804 17.2495117,89.6535645 C16.9464503,89.9473485 16.7949219,90.3570937 16.7949219,90.8828125 C16.7949219,91.4765655 16.9619124,91.9249659 17.2958984,92.2280273 C17.6298845,92.5310888 18.1184864,92.6826172 18.7617188,92.6826172 C19.3121772,92.6826172 19.8100564,92.5635591 20.2553711,92.3254395 C20.7006858,92.0873198 21.1181621,91.7950864 21.5078125,91.4487305 Z M21.5078125,92.8959961 C21.3655592,93.0011398 21.1753755,93.1480297 20.9372559,93.3366699 C20.6991362,93.5253102 20.4687511,93.6752924 20.2460938,93.7866211 C19.9368474,93.9474292 19.6384292,94.0711259 19.3508301,94.1577148 C19.063231,94.2443038 18.6596706,94.2875977 18.1401367,94.2875977 C17.7133768,94.2875977 17.3082701,94.2071948 16.9248047,94.0463867 C16.5413392,93.8855786 16.2042658,93.6598322 15.9135742,93.3691406 C15.6352525,93.084634 15.4125985,92.7336447 15.2456055,92.3161621 C15.0786124,91.8986796 14.9951172,91.4580101 14.9951172,90.9941406 C14.9951172,90.2766891 15.1466456,89.6659368 15.449707,89.1618652 C15.7527684,88.6577937 16.2320931,88.2573257 16.8876953,87.9604492 C17.4690784,87.6944974 18.155595,87.5104986 18.9472656,87.4084473 C19.7389363,87.306396 20.5924433,87.2306318 21.5078125,87.1811523 L21.5078125,86.847168 C21.5078125,86.4389628 21.4459642,86.1096204 21.3222656,85.8591309 C21.1985671,85.6086413 21.0253917,85.4153653 20.8027344,85.2792969 C20.580077,85.1370436 20.3079443,85.0427248 19.9863281,84.9963379 C19.6647119,84.9499509 19.3338233,84.9267578 18.9936523,84.9267578 C18.5916321,84.9267578 18.1184923,84.9870599 17.5742188,85.107666 C17.0299452,85.2282721 16.4856798,85.4029936 15.9414062,85.6318359 L15.8393555,85.6318359 L15.8393555,83.8598633 C16.1609717,83.7670894 16.6217418,83.6650396 17.2216797,83.5537109 C17.8216176,83.4423823 18.4153616,83.3867188 19.0029297,83.3867188 C19.7141963,83.3867188 20.3141252,83.4423823 20.8027344,83.5537109 C21.2913436,83.6650396 21.7304668,83.8660467 22.1201172,84.1567383 C22.4973977,84.4412449 22.7788077,84.8092425 22.9643555,85.2607422 C23.1499033,85.7122418 23.2426758,86.2626921 23.2426758,86.9121094 L23.2426758,94 L21.5078125,94 L21.5078125,92.8959961 Z M26.9731445,94 L25.2290039,94 L25.2290039,79.5644531 L26.9731445,79.5644531 L26.9731445,94 Z M34.8227539,91.4487305 L34.8227539,88.5727539 C34.4083638,88.6098635 33.8841991,88.6608883 33.2502441,88.7258301 C32.6162891,88.7907718 32.1044941,88.8819981 31.7148438,88.9995117 C31.2509742,89.141765 30.8675145,89.3597804 30.5644531,89.6535645 C30.2613917,89.9473485 30.1098633,90.3570937 30.1098633,90.8828125 C30.1098633,91.4765655 30.2768538,91.9249659 30.6108398,92.2280273 C30.9448259,92.5310888 31.4334278,92.6826172 32.0766602,92.6826172 C32.6271186,92.6826172 33.1249978,92.5635591 33.5703125,92.3254395 C34.0156272,92.0873198 34.4331035,91.7950864 34.8227539,91.4487305 Z M34.8227539,92.8959961 C34.6805006,93.0011398 34.4903169,93.1480297 34.2521973,93.3366699 C34.0140776,93.5253102 33.7836925,93.6752924 33.5610352,93.7866211 C33.2517888,93.9474292 32.9533706,94.0711259 32.6657715,94.1577148 C32.3781724,94.2443038 31.974612,94.2875977 31.4550781,94.2875977 C31.0283182,94.2875977 30.6232116,94.2071948 30.2397461,94.0463867 C29.8562806,93.8855786 29.5192072,93.6598322 29.2285156,93.3691406 C28.9501939,93.084634 28.7275399,92.7336447 28.5605469,92.3161621 C28.3935539,91.8986796 28.3100586,91.4580101 28.3100586,90.9941406 C28.3100586,90.2766891 28.461587,89.6659368 28.7646484,89.1618652 C29.0677098,88.6577937 29.5470345,88.2573257 30.2026367,87.9604492 C30.7840198,87.6944974 31.4705364,87.5104986 32.262207,87.4084473 C33.0538777,87.306396 33.9073847,87.2306318 34.8227539,87.1811523 L34.8227539,86.847168 C34.8227539,86.4389628 34.7609056,86.1096204 34.637207,85.8591309 C34.5135085,85.6086413 34.3403331,85.4153653 34.1176758,85.2792969 C33.8950184,85.1370436 33.6228857,85.0427248 33.3012695,84.9963379 C32.9796533,84.9499509 32.6487647,84.9267578 32.3085938,84.9267578 C31.9065735,84.9267578 31.4334337,84.9870599 30.8891602,85.107666 C30.3448866,85.2282721 29.8006212,85.4029936 29.2563477,85.6318359 L29.1542969,85.6318359 L29.1542969,83.8598633 C29.4759131,83.7670894 29.9366832,83.6650396 30.5366211,83.5537109 C31.136559,83.4423823 31.7303031,83.3867188 32.3178711,83.3867188 C33.0291377,83.3867188 33.6290666,83.4423823 34.1176758,83.5537109 C34.606285,83.6650396 35.0454082,83.8660467 35.4350586,84.1567383 C35.8123391,84.4412449 36.0937491,84.8092425 36.2792969,85.2607422 C36.4648447,85.7122418 36.5576172,86.2626921 36.5576172,86.9121094 L36.5576172,94 L34.8227539,94 L34.8227539,92.8959961 Z M47.0976562,94 L44.8061523,94 L40.9375,88.9995117 L40.2509766,89.6674805 L40.2509766,94 L38.5068359,94 L38.5068359,79.5644531 L40.2509766,79.5644531 L40.2509766,88.0161133 L44.3515625,83.637207 L46.5224609,83.637207 L42.2641602,87.9697266 L47.0976562,94 Z M55.8286133,88.8232422 C55.8286133,90.5673915 55.4080446,91.9141391 54.5668945,92.8635254 C53.7257445,93.8129116 52.6062895,94.2875977 51.2084961,94.2875977 C49.7674082,94.2875977 48.6340373,93.7974496 47.8083496,92.8171387 C46.9826619,91.8368278 46.5698242,90.5055423 46.5698242,88.8232422 C46.5698242,87.0914627 46.9950316,85.7462613 47.845459,84.7875977 C48.6958864,83.828934 49.8168876,83.3496094 51.2084961,83.3496094 C52.6062895,83.3496094 53.7257445,83.8273878 54.5668945,84.782959 C55.4080446,85.7385302 55.8286133,87.0852778 55.8286133,88.8232422 Z M54.0288086,88.8232422 C54.0288086,87.4811131 53.7845077,86.4838086 53.2958984,85.8312988 C52.8072892,85.1787891 52.1114954,84.8525391 51.2084961,84.8525391 C50.2993119,84.8525391 49.5988794,85.1787891 49.1071777,85.8312988 C48.6154761,86.4838086 48.3696289,87.4811131 48.3696289,88.8232422 C48.3696289,90.1220768 48.6154761,91.1070116 49.1071777,91.7780762 C49.5988794,92.4491407 50.2993119,92.784668 51.2084961,92.784668 C52.1053105,92.784668 52.7995581,92.4553256 53.2912598,91.7966309 C53.7829614,91.1379362 54.0288086,90.1468165 54.0288086,88.8232422 Z M62.5742188,81.234375 L62.4814453,81.234375 C62.3268221,81.1787107 62.1041681,81.1245934 61.8134766,81.0720215 C61.522785,81.0194496 61.263022,80.9931641 61.0341797,80.9931641 C60.2981734,80.9931641 59.7740087,81.1586084 59.4616699,81.489502 C59.1493311,81.8203955 58.9931641,82.4187782 58.9931641,83.284668 L58.9931641,83.637207 L61.878418,83.637207 L61.878418,85.0844727 L59.0488281,85.0844727 L59.0488281,94 L57.3046875,94 L57.3046875,85.0844727 L56.1264648,85.0844727 L56.1264648,83.637207 L57.3046875,83.637207 L57.3046875,83.2939453 C57.3046875,82.0445901 57.6046519,81.0952181 58.2045898,80.4458008 C58.8045277,79.7963835 59.6642197,79.4716797 60.7836914,79.4716797 C61.1053076,79.4716797 61.4207341,79.488688 61.7299805,79.5227051 C62.0392268,79.5567222 62.3206368,79.5953774 62.5742188,79.6386719 L62.5742188,81.234375 Z M67.9931641,81.234375 L67.9003906,81.234375 C67.7457675,81.1787107 67.5231134,81.1245934 67.2324219,81.0720215 C66.9417303,81.0194496 66.6819673,80.9931641 66.453125,80.9931641 C65.7171187,80.9931641 65.192954,81.1586084 64.8806152,81.489502 C64.5682764,81.8203955 64.4121094,82.4187782 64.4121094,83.284668 L64.4121094,83.637207 L67.2973633,83.637207 L67.2973633,85.0844727 L64.4677734,85.0844727 L64.4677734,94 L62.7236328,94 L62.7236328,85.0844727 L61.5454102,85.0844727 L61.5454102,83.637207 L62.7236328,83.637207 L62.7236328,83.2939453 C62.7236328,82.0445901 63.0235973,81.0952181 63.6235352,80.4458008 C64.2234731,79.7963835 65.083165,79.4716797 66.2026367,79.4716797 C66.5242529,79.4716797 66.8396794,79.488688 67.1489258,79.5227051 C67.4581721,79.5567222 67.7395821,79.5953774 67.9931641,79.6386719 L67.9931641,81.234375 Z M85.2880859,94 L85.2880859,88.0068359 C85.2880859,87.5305966 85.2695314,87.0899272 85.2324219,86.6848145 C85.1953123,86.2797018 85.1180019,85.962729 85.0004883,85.7338867 C84.8767897,85.4864896 84.700522,85.304037 84.4716797,85.1865234 C84.2428374,85.0690098 83.9335957,85.0102539 83.5439453,85.0102539 C83.1852196,85.0102539 82.8002136,85.1200347 82.388916,85.3395996 C81.9776184,85.5591645 81.552411,85.8761373 81.1132812,86.2905273 C81.1194662,86.3956711 81.1271972,86.520914 81.1364746,86.6662598 C81.145752,86.8116055 81.1503906,86.9832347 81.1503906,87.1811523 L81.1503906,94 L79.40625,94 L79.40625,88.0068359 C79.40625,87.5305966 79.3876955,87.0899272 79.3505859,86.6848145 C79.3134764,86.2797018 79.236166,85.962729 79.1186523,85.7338867 C78.9949538,85.4864896 78.818686,85.304037 78.5898438,85.1865234 C78.3610015,85.0690098 78.0517598,85.0102539 77.6621094,85.0102539 C77.2848288,85.0102539 76.8889995,85.1277658 76.4746094,85.362793 C76.0602193,85.5978202 75.6582051,85.8977846 75.2685547,86.2626953 L75.2685547,94 L73.5244141,94 L73.5244141,83.637207 L75.2685547,83.637207 L75.2685547,84.7875977 C75.7262393,84.3299131 76.1792784,83.9758313 76.6276855,83.7253418 C77.0760927,83.4748523 77.5693332,83.3496094 78.1074219,83.3496094 C78.7197296,83.3496094 79.2624488,83.4887681 79.7355957,83.7670898 C80.2087426,84.0454115 80.5690092,84.5030893 80.8164062,85.1401367 C81.342125,84.5525687 81.8554662,84.1072606 82.3564453,83.8041992 C82.8574244,83.5011378 83.4016898,83.3496094 83.9892578,83.3496094 C84.4345725,83.3496094 84.8396792,83.4191888 85.2045898,83.5583496 C85.5695005,83.6975105 85.8880195,83.9217107 86.1601562,84.230957 C86.438478,84.5463883 86.6534009,84.9391253 86.8049316,85.4091797 C86.9564623,85.8792341 87.0322266,86.4698858 87.0322266,87.1811523 L87.0322266,94 L85.2880859,94 Z M93.480957,94.2412109 C91.8295816,94.2412109 90.5477747,93.7758022 89.635498,92.8449707 C88.7232214,91.9141392 88.2670898,90.592131 88.2670898,88.8789062 C88.2670898,87.1904212 88.7093055,85.8467661 89.59375,84.8479004 C90.4781945,83.8490347 91.6347585,83.3496094 93.0634766,83.3496094 C93.7067089,83.3496094 94.2757137,83.4423819 94.7705078,83.6279297 C95.265302,83.8134775 95.6982403,84.1041647 96.0693359,84.5 C96.4404315,84.8958353 96.7249339,85.3797986 96.9228516,85.9519043 C97.1207692,86.52401 97.2197266,87.2244425 97.2197266,88.0532227 L97.2197266,88.9995117 L90.0390625,88.9995117 C90.0390625,90.2055724 90.3421194,91.1271127 90.9482422,91.7641602 C91.554365,92.4012076 92.39241,92.7197266 93.4624023,92.7197266 C93.8458678,92.7197266 94.2215965,92.6764327 94.5895996,92.5898438 C94.9576028,92.5032548 95.2900376,92.3919278 95.5869141,92.2558594 C95.9023453,92.1136061 96.1682932,91.9759935 96.3847656,91.8430176 C96.6012381,91.7100417 96.7805982,91.5847988 96.9228516,91.4672852 L97.0249023,91.4672852 L97.0249023,93.3691406 C96.8207998,93.4495447 96.5672216,93.5500482 96.2641602,93.6706543 C95.9610987,93.7912604 95.688966,93.8855791 95.4477539,93.9536133 C95.1075829,94.0463872 94.7998874,94.1175128 94.5246582,94.1669922 C94.249429,94.2164716 93.9015321,94.2412109 93.480957,94.2412109 Z M95.5219727,87.6635742 C95.5096028,87.1935198 95.4539393,86.7884132 95.3549805,86.4482422 C95.2560216,86.1080712 95.1137705,85.8204764 94.9282227,85.5854492 C94.7241201,85.3256823 94.4628108,85.1277676 94.1442871,84.9916992 C93.8257634,84.8556308 93.4314802,84.7875977 92.9614258,84.7875977 C92.4975563,84.7875977 92.1032731,84.857177 91.7785645,84.9963379 C91.4538558,85.1354987 91.15853,85.3380521 90.8925781,85.6040039 C90.6328112,85.8761407 90.4348965,86.1776513 90.2988281,86.5085449 C90.1627597,86.8394385 90.0761721,87.2244444 90.0390625,87.6635742 L95.5219727,87.6635742 Z M95.9672852,78.4511719 L93.4345703,81.9208984 L92.0522461,81.9208984 L93.7128906,78.4511719 L95.9672852,78.4511719 Z M106.460938,94 L104.716797,94 L104.716797,92.9423828 C104.44466,93.1712251 104.209636,93.3598625 104.011719,93.5083008 C103.813801,93.656739 103.58187,93.7928054 103.315918,93.9165039 C103.068521,94.0340175 102.81185,94.1252438 102.545898,94.1901855 C102.279947,94.2551273 101.970705,94.2875977 101.618164,94.2875977 C101.055336,94.2875977 100.534263,94.1700858 100.054932,93.9350586 C99.5755998,93.7000314 99.168947,93.3567731 98.8349609,92.9052734 C98.49479,92.4475889 98.2319345,91.8832228 98.0463867,91.2121582 C97.8608389,90.5410936 97.7680664,89.7695356 97.7680664,88.8974609 C97.7680664,87.9882767 97.8855783,87.2012566 98.1206055,86.536377 C98.3556327,85.8714973 98.6803365,85.2916691 99.0947266,84.796875 C99.4720071,84.3453753 99.9281386,83.9912936 100.463135,83.7346191 C100.998131,83.4779447 101.559405,83.3496094 102.146973,83.3496094 C102.666507,83.3496094 103.117999,83.4068191 103.501465,83.5212402 C103.88493,83.6356614 104.290037,83.8134754 104.716797,84.0546875 L104.716797,79.5644531 L106.460938,79.5644531 L106.460938,94 Z M104.716797,91.4765625 L104.716797,85.5019531 C104.283852,85.2916656 103.895754,85.146322 103.55249,85.065918 C103.209227,84.9855139 102.836591,84.9453125 102.43457,84.9453125 C101.537756,84.9453125 100.835777,85.2808397 100.328613,85.9519043 C99.8214493,86.6229689 99.5678711,87.5924416 99.5678711,88.8603516 C99.5678711,90.0787821 99.7626934,91.0111459 100.152344,91.6574707 C100.541994,92.3037955 101.166662,92.6269531 102.026367,92.6269531 C102.484052,92.6269531 102.944822,92.5233572 103.408691,92.3161621 C103.872561,92.1089671 104.308592,91.8291033 104.716797,91.4765625 Z M112.983887,94.2412109 C111.332511,94.2412109 110.050704,93.7758022 109.138428,92.8449707 C108.226151,91.9141392 107.77002,90.592131 107.77002,88.8789062 C107.77002,87.1904212 108.212235,85.8467661 109.09668,84.8479004 C109.981124,83.8490347 111.137688,83.3496094 112.566406,83.3496094 C113.209639,83.3496094 113.778643,83.4423819 114.273438,83.6279297 C114.768232,83.8134775 115.20117,84.1041647 115.572266,84.5 C115.943361,84.8958353 116.227864,85.3797986 116.425781,85.9519043 C116.623699,86.52401 116.722656,87.2244425 116.722656,88.0532227 L116.722656,88.9995117 L109.541992,88.9995117 C109.541992,90.2055724 109.845049,91.1271127 110.451172,91.7641602 C111.057295,92.4012076 111.89534,92.7197266 112.965332,92.7197266 C113.348797,92.7197266 113.724526,92.6764327 114.092529,92.5898438 C114.460532,92.5032548 114.792967,92.3919278 115.089844,92.2558594 C115.405275,92.1136061 115.671223,91.9759935 115.887695,91.8430176 C116.104168,91.7100417 116.283528,91.5847988 116.425781,91.4672852 L116.527832,91.4672852 L116.527832,93.3691406 C116.323729,93.4495447 116.070151,93.5500482 115.76709,93.6706543 C115.464028,93.7912604 115.191896,93.8855791 114.950684,93.9536133 C114.610513,94.0463872 114.302817,94.1175128 114.027588,94.1669922 C113.752359,94.2164716 113.404462,94.2412109 112.983887,94.2412109 Z M115.024902,87.6635742 C115.012532,87.1935198 114.956869,86.7884132 114.85791,86.4482422 C114.758951,86.1080712 114.6167,85.8204764 114.431152,85.5854492 C114.22705,85.3256823 113.965741,85.1277676 113.647217,84.9916992 C113.328693,84.8556308 112.93441,84.7875977 112.464355,84.7875977 C112.000486,84.7875977 111.606203,84.857177 111.281494,84.9963379 C110.956785,85.1354987 110.66146,85.3380521 110.395508,85.6040039 C110.135741,85.8761407 109.937826,86.1776513 109.801758,86.5085449 C109.665689,86.8394385 109.579102,87.2244444 109.541992,87.6635742 L115.024902,87.6635742 Z M115.470215,78.4511719 L112.9375,81.9208984 L111.555176,81.9208984 L113.21582,78.4511719 L115.470215,78.4511719 Z M123.477539,85.5112305 L123.384766,85.5112305 C123.254882,85.4741209 123.11727,85.4509278 122.971924,85.4416504 C122.826578,85.432373 122.651856,85.4277344 122.447754,85.4277344 C121.977699,85.4277344 121.510745,85.5297841 121.046875,85.7338867 C120.583005,85.9379893 120.143882,86.2410462 119.729492,86.6430664 L119.729492,94 L117.985352,94 L117.985352,83.637207 L119.729492,83.637207 L119.729492,85.1772461 C120.36654,84.6144178 120.921628,84.2170422 121.394775,83.9851074 C121.867922,83.7531727 122.327146,83.637207 122.772461,83.637207 C122.951824,83.637207 123.086344,83.6418457 123.176025,83.651123 C123.265707,83.6604004 123.36621,83.6743163 123.477539,83.6928711 L123.477539,85.5112305 Z M126.113281,94 L124.369141,94 L124.369141,83.637207 L126.113281,83.637207 L126.113281,94 Z M126.233887,81.9023438 L124.248535,81.9023438 L124.248535,80.0932617 L126.233887,80.0932617 L126.233887,81.9023438 Z M132.292969,94.2319336 C131.581702,94.2319336 130.929202,94.1221528 130.335449,93.9025879 C129.741696,93.683023 129.231447,93.3505882 128.804688,92.9052734 C128.377928,92.4599587 128.047039,91.898685 127.812012,91.2214355 C127.576985,90.5441861 127.459473,89.7478887 127.459473,88.8325195 C127.459473,87.9233353 127.581623,87.1378614 127.825928,86.4760742 C128.070232,85.8142871 128.396482,85.257652 128.804688,84.8061523 C129.212893,84.3546527 129.721595,84.0067558 130.330811,83.7624512 C130.940026,83.5181466 131.594072,83.3959961 132.292969,83.3959961 C132.861982,83.3959961 133.410886,83.4763989 133.939697,83.637207 C134.468509,83.7980151 134.940102,83.9835601 135.354492,84.1938477 L135.354492,86.1513672 L135.252441,86.1513672 C135.128743,86.0462234 134.969483,85.9256192 134.774658,85.7895508 C134.579833,85.6534824 134.343263,85.5143236 134.064941,85.3720703 C133.823729,85.2483718 133.539227,85.1401372 133.211426,85.0473633 C132.883625,84.9545894 132.568198,84.9082031 132.265137,84.9082031 C131.362137,84.9082031 130.636966,85.2499152 130.0896,85.9333496 C129.542234,86.616784 129.268555,87.5831643 129.268555,88.8325195 C129.268555,90.057135 129.532956,91.0111457 130.061768,91.6945801 C130.590579,92.3780145 131.325028,92.7197266 132.265137,92.7197266 C132.83415,92.7197266 133.375323,92.6022147 133.888672,92.3671875 C134.402021,92.1321603 134.856606,91.8291034 135.252441,91.4580078 L135.354492,91.4580078 L135.354492,93.4155273 C135.181314,93.4959314 134.964845,93.5933425 134.705078,93.7077637 C134.445311,93.8221848 134.210288,93.9072263 134,93.9628906 C133.703124,94.0494796 133.437176,94.1159666 133.202148,94.1623535 C132.967121,94.2087405 132.664064,94.2319336 132.292969,94.2319336 Z"/>
    <path fill-rule="nonzero" d="M71.5443815,67.6896617 C74.5575937,64.7927446 81.0365858,57.046869 81.0365858,44 C81.0365858,27 65.0365858,17 62.0365858,16 C59.0365858,15 59.0365858,14 62.0365858,14 C74.0365858,14 89.0365858,25 89.0365858,43 C89.0365858,55.8458763 81.9062416,63.0893393 77.8228331,66.1842861 C81.8238655,64.7958734 85.4750666,62.6591763 88.6089619,59.9416696 C91.7599051,56.1231324 94.0365858,50.6999066 94.0365858,43 C94.0365858,18 76.0365858,11 69.0365858,11 C64.0365858,11 62.0310878,11 62.0310878,11 C60.9308919,11 60.8317832,10.5846392 61.8127089,10.0722656 C61.8127089,10.0722656 67.0365858,7 72.0365858,7 C81.8858519,7 88.362144,9.71817556 94.7830237,17.1851097 C88.913975,8.05103533 78.663635,2 67,2 C65.4729857,2 63.9701957,2.10371655 62.4982902,2.30448939 C59.4877257,5.19682 53,12.9443404 53,26 C53,43 69,53 72,54 C75,55 75,56 72,56 C60,56 45,45 45,27 C45,14.1217851 52.1662897,6.87422645 56.2445337,3.79241887 C52.2719996,5.16126052 48.642732,7.26724598 45.5201714,9.9469346 C42.3213575,13.7711784 40,19.2249105 40,27 C40,52 58,59 65,59 L72.005498,59 C73.105694,59 73.2048026,59.4153608 72.223877,59.9277344 C72.223877,59.9277344 67,63 62,63 C52.0771262,63 45.5778301,60.2410445 39.1096122,52.6466832 C44.9604948,61.8746027 55.2649158,68 67,68 C68.5417738,68 70.0588527,67.8942688 71.5443815,67.6896617 Z M67,70 C47.6700338,70 32,54.3299662 32,35 C32,15.6700338 47.6700338,0 67,0 C86.3299662,0 102,15.6700338 102,35 C102,54.3299662 86.3299662,70 67,70 Z"/>
  </g>
</svg>
