<svg xmlns="http://www.w3.org/2000/svg" width="48" height="48" viewBox="0 0 48 48">
  <defs>
    <radialGradient id="a" cx="67.07%" cy="33.787%" r="87.974%" fx="67.07%" fy="33.787%">
      <stop stop-color="#F10001" offset="0%"/>
      <stop stop-color="#E00000" offset="42.483%"/>
      <stop stop-color="#9E0017" offset="100%"/>
    </radialGradient>
  </defs>
  <g fill="none" fill-rule="evenodd">
    <rect width="48" height="48" fill="url(#a)" rx="4"/>
    <path fill="#FFFFFF" d="M12.638,27.414 C13.1513359,27.8980024 13.7379967,28.2903318 14.398,28.591 C15.0580033,28.8916682 15.7179967,29.042 16.378,29.042 C17.1993374,29.042 17.8226645,28.873335 18.248,28.536 C18.6733355,28.198665 18.886,27.7513361 18.886,27.194 C18.886,26.9006652 18.8310006,26.6513344 18.721,26.446 C18.6109995,26.2406656 18.457001,26.0610008 18.259,25.907 C18.060999,25.7529992 17.8263347,25.6100007 17.555,25.478 C17.2836653,25.3459993 16.9866683,25.2140007 16.664,25.082 L14.684,24.224 C14.3319982,24.0773326 13.9836684,23.8940011 13.639,23.674 C13.2943316,23.4539989 12.9826681,23.1900015 12.704,22.882 C12.4253319,22.5739985 12.2016675,22.2146687 12.033,21.804 C11.8643325,21.3933313 11.78,20.9240026 11.78,20.396 C11.78,19.8239971 11.9009988,19.2923358 12.143,18.801 C12.3850012,18.3096642 12.7186645,17.8806685 13.144,17.514 C13.5693355,17.1473315 14.078997,16.8613344 14.673,16.656 C15.267003,16.4506656 15.9159965,16.348 16.62,16.348 C17.4560042,16.348 18.2626628,16.5129984 19.04,16.843 C19.8173372,17.1730017 20.4846639,17.6166639 21.042,18.174 L19.744,19.802 C19.2746643,19.4206648 18.7906692,19.1200011 18.292,18.9 C17.7933308,18.6799989 17.2360031,18.57 16.62,18.57 C15.9306632,18.57 15.3806687,18.7203318 14.97,19.021 C14.5593313,19.3216682 14.354,19.7359974 14.354,20.264 C14.354,20.5426681 14.4163327,20.780999 14.541,20.979 C14.6656673,21.177001 14.8343323,21.3529992 15.047,21.507 C15.2596677,21.6610008 15.5053319,21.8003327 15.784,21.925 C16.0626681,22.0496673 16.3486652,22.1706661 16.642,22.288 L18.6,23.102 C19.0253355,23.2780009 19.4139982,23.4833322 19.766,23.718 C20.1180018,23.9526678 20.4223321,24.2239985 20.679,24.532 C20.935668,24.8400015 21.1373326,25.1956647 21.284,25.599 C21.4306674,26.0023354 21.504,26.4679974 21.504,26.996 C21.504,27.5826696 21.3866678,28.1326641 21.152,28.646 C20.9173322,29.1593359 20.5763356,29.6103314 20.129,29.999 C19.6816644,30.3876686 19.1390032,30.6956655 18.501,30.923 C17.8629968,31.1503345 17.1406707,31.264 16.334,31.264 C15.3659952,31.264 14.4310045,31.0806685 13.529,30.714 C12.6269955,30.3473315 11.8313368,29.82667 11.142,29.152 L12.638,27.414 Z M24.122,16.612 L32.812,16.612 L32.812,18.768 L26.674,18.768 L26.674,22.838 L31.91,22.838 L31.91,24.994 L26.674,24.994 L26.674,31 L24.122,31 L24.122,16.612 Z M37.894,23.344 L39.94,23.344 C40.9226716,23.344 41.6743307,23.1386687 42.195,22.728 C42.7156693,22.3173313 42.976,21.7013374 42.976,20.88 C42.976,20.0439958 42.7156693,19.4646683 42.195,19.142 C41.6743307,18.8193317 40.9226716,18.658 39.94,18.658 L37.894,18.658 L37.894,23.344 Z M43.196,31 L40.094,25.368 L37.894,25.368 L37.894,31 L35.342,31 L35.342,16.612 L40.204,16.612 C40.9520037,16.612 41.6486634,16.6853326 42.294,16.832 C42.9393366,16.9786674 43.4966643,17.2169984 43.966,17.547 C44.4353357,17.8770017 44.8056653,18.3133306 45.077,18.856 C45.3483347,19.3986694 45.484,20.0733293 45.484,20.88 C45.484,21.9800055 45.2236693,22.86733 44.703,23.542 C44.1823307,24.21667 43.4893377,24.7006652 42.624,24.994 L46.056,31 L43.196,31 Z"/>
  </g>
</svg>
