<svg xmlns="http://www.w3.org/2000/svg" width="505" height="265" viewBox="0 0 505 265">
  <defs>
    <linearGradient id="a" x1="24.618%" x2="81.481%" y1="4.525%" y2="79.497%">
      <stop stop-color="#EE7203" offset="0%"/>
      <stop stop-color="#F49600" offset="31.11%"/>
      <stop stop-color="#F9AF00" offset="59.73%"/>
      <stop stop-color="#FCBE00" offset="83.66%"/>
      <stop stop-color="#FDC300" offset="100%"/>
    </linearGradient>
    <linearGradient id="b" x1="-14.766%" x2="81.457%" y1="-56.772%" y2="101.869%">
      <stop stop-color="#EE7203" offset="0%"/>
      <stop stop-color="#F49600" offset="31.11%"/>
      <stop stop-color="#F9AF00" offset="59.73%"/>
      <stop stop-color="#FCBE00" offset="83.66%"/>
      <stop stop-color="#FDC300" offset="100%"/>
    </linearGradient>
    <linearGradient id="c" x1="32.741%" x2="60.175%" y1="22.724%" y2="76.677%">
      <stop stop-color="#C8D400" offset="0%"/>
      <stop stop-color="#13A538" offset="100%"/>
    </linearGradient>
    <linearGradient id="d" x1="11.541%" x2="92.692%" y1="-15.012%" y2="99.255%">
      <stop stop-color="#C8D400" offset="0%"/>
      <stop stop-color="#13A538" offset="100%"/>
    </linearGradient>
    <linearGradient id="e" x1="-37.225%" x2="82.761%" y1="-54.366%" y2="89.197%">
      <stop stop-color="#C8D400" offset="0%"/>
      <stop stop-color="#13A538" offset="100%"/>
    </linearGradient>
    <linearGradient id="f" x1="-75.29%" x2="33.271%" y1="-258.636%" y2="8.829%">
      <stop stop-color="#C8D400" offset="0%"/>
      <stop stop-color="#13A538" offset="100%"/>
    </linearGradient>
    <linearGradient id="g" x1="51.637%" x2="101.404%" y1="48.15%" y2="324.797%">
      <stop stop-color="#71196F" offset="0%"/>
      <stop stop-color="#C70C6F" offset="24.72%"/>
      <stop stop-color="#D10866" offset="41.42%"/>
      <stop stop-color="#DC015A" offset="64.68%"/>
      <stop stop-color="#E30053" offset="85%"/>
      <stop stop-color="#E50051" offset="100%"/>
    </linearGradient>
    <linearGradient id="h" x1="47.672%" x2="109.169%" y1="32.695%" y2="409.196%">
      <stop stop-color="#71196F" offset="0%"/>
      <stop stop-color="#C70C6F" offset="24.72%"/>
      <stop stop-color="#D10866" offset="41.42%"/>
      <stop stop-color="#DC015A" offset="64.68%"/>
      <stop stop-color="#E30053" offset="85%"/>
      <stop stop-color="#E50051" offset="100%"/>
    </linearGradient>
    <linearGradient id="i" x1="44.53%" x2="78.447%" y1="25.28%" y2="154.122%">
      <stop stop-color="#71196F" offset="0%"/>
      <stop stop-color="#C70C6F" offset="24.72%"/>
      <stop stop-color="#D10866" offset="41.42%"/>
      <stop stop-color="#DC015A" offset="64.68%"/>
      <stop stop-color="#E30053" offset="85%"/>
      <stop stop-color="#E50051" offset="100%"/>
    </linearGradient>
    <linearGradient id="j" x1="44.607%" x2="108.816%" y1="35.013%" y2="270.667%">
      <stop stop-color="#71196F" offset="0%"/>
      <stop stop-color="#C70C6F" offset="24.72%"/>
      <stop stop-color="#D10866" offset="41.42%"/>
      <stop stop-color="#DC015A" offset="64.68%"/>
      <stop stop-color="#E30053" offset="85%"/>
      <stop stop-color="#E50051" offset="100%"/>
    </linearGradient>
    <linearGradient id="k" x1="27.735%" x2="195.523%" y1="21.692%" y2="226.157%">
      <stop stop-color="#71196F" offset="0%"/>
      <stop stop-color="#C70C6F" offset="24.72%"/>
      <stop stop-color="#D10866" offset="41.42%"/>
      <stop stop-color="#DC015A" offset="64.68%"/>
      <stop stop-color="#E30053" offset="85%"/>
      <stop stop-color="#E50051" offset="100%"/>
    </linearGradient>
    <linearGradient id="l" x1="21.825%" x2="164.604%" y1="16.936%" y2="183.007%">
      <stop stop-color="#71196F" offset="0%"/>
      <stop stop-color="#C70C6F" offset="24.72%"/>
      <stop stop-color="#D10866" offset="41.42%"/>
      <stop stop-color="#DC015A" offset="64.68%"/>
      <stop stop-color="#E30053" offset="85%"/>
      <stop stop-color="#E50051" offset="100%"/>
    </linearGradient>
    <linearGradient id="m" x1="37.657%" x2="92.237%" y1="15.681%" y2="145.302%">
      <stop stop-color="#71196F" offset="0%"/>
      <stop stop-color="#C70C6F" offset="24.72%"/>
      <stop stop-color="#D10866" offset="41.42%"/>
      <stop stop-color="#DC015A" offset="64.68%"/>
      <stop stop-color="#E30053" offset="85%"/>
      <stop stop-color="#E50051" offset="100%"/>
    </linearGradient>
    <linearGradient id="n" x1="41.721%" x2="117.046%" y1="15.152%" y2="117.805%">
      <stop stop-color="#71196F" offset="0%"/>
      <stop stop-color="#C70C6F" offset="24.72%"/>
      <stop stop-color="#D10866" offset="41.42%"/>
      <stop stop-color="#DC015A" offset="64.68%"/>
      <stop stop-color="#E30053" offset="85%"/>
      <stop stop-color="#E50051" offset="100%"/>
    </linearGradient>
    <linearGradient id="o" x1="-30.188%" x2="84.572%" y1="-169.192%" y2="144.401%">
      <stop stop-color="#71196F" offset="0%"/>
      <stop stop-color="#C70C6F" offset="24.72%"/>
      <stop stop-color="#D10866" offset="41.42%"/>
      <stop stop-color="#DC015A" offset="64.68%"/>
      <stop stop-color="#E30053" offset="85%"/>
      <stop stop-color="#E50051" offset="100%"/>
    </linearGradient>
    <linearGradient id="p" x1="16.555%" x2="71.129%" y1="-33.821%" y2="95.177%">
      <stop stop-color="#71196F" offset="0%"/>
      <stop stop-color="#C70C6F" offset="24.72%"/>
      <stop stop-color="#D10866" offset="41.42%"/>
      <stop stop-color="#DC015A" offset="64.68%"/>
      <stop stop-color="#E30053" offset="85%"/>
      <stop stop-color="#E50051" offset="100%"/>
    </linearGradient>
    <linearGradient id="q" x1="10.989%" x2="58.616%" y1="-55.958%" y2="72.947%">
      <stop stop-color="#71196F" offset="0%"/>
      <stop stop-color="#C70C6F" offset="24.72%"/>
      <stop stop-color="#D10866" offset="41.42%"/>
      <stop stop-color="#DC015A" offset="64.68%"/>
      <stop stop-color="#E30053" offset="85%"/>
      <stop stop-color="#E50051" offset="100%"/>
    </linearGradient>
    <linearGradient id="r" x1="14.279%" x2="45.529%" y1="-76.411%" y2="42.246%">
      <stop stop-color="#71196F" offset="0%"/>
      <stop stop-color="#C70C6F" offset="24.72%"/>
      <stop stop-color="#D10866" offset="41.42%"/>
      <stop stop-color="#DC015A" offset="64.68%"/>
      <stop stop-color="#E30053" offset="85%"/>
      <stop stop-color="#E50051" offset="100%"/>
    </linearGradient>
    <linearGradient id="s" x1="111.85%" x2="39.645%" y1="197.257%" y2="20.981%">
      <stop stop-color="#004F9F" offset="4.81%"/>
      <stop stop-color="#006EB8" offset="36.16%"/>
      <stop stop-color="#0084CC" offset="65.48%"/>
      <stop stop-color="#0091D7" offset="87.62%"/>
      <stop stop-color="#0095DB" offset="100%"/>
    </linearGradient>
    <linearGradient id="t" x1="-3.606%" x2="-148.23%" y1="-239.213%" y2="-1000.526%">
      <stop stop-color="#004F9F" offset="4.81%"/>
      <stop stop-color="#006EB8" offset="36.16%"/>
      <stop stop-color="#0084CC" offset="65.48%"/>
      <stop stop-color="#0091D7" offset="87.62%"/>
      <stop stop-color="#0095DB" offset="100%"/>
    </linearGradient>
    <linearGradient id="u" x1="42.907%" x2="-107.391%" y1="46.002%" y2="-398.93%">
      <stop stop-color="#004F9F" offset="4.81%"/>
      <stop stop-color="#006EB8" offset="36.16%"/>
      <stop stop-color="#0084CC" offset="65.48%"/>
      <stop stop-color="#0091D7" offset="87.62%"/>
      <stop stop-color="#0095DB" offset="100%"/>
    </linearGradient>
    <linearGradient id="v" x1="52.569%" x2="39.325%" y1="63.92%" y2="6.422%">
      <stop stop-color="#004F9F" offset="4.81%"/>
      <stop stop-color="#006EB8" offset="36.16%"/>
      <stop stop-color="#0084CC" offset="65.48%"/>
      <stop stop-color="#0091D7" offset="87.62%"/>
      <stop stop-color="#0095DB" offset="100%"/>
    </linearGradient>
    <linearGradient id="w" x1="93.142%" x2="14.633%" y1="142.908%" y2="-40.16%">
      <stop stop-color="#004F9F" offset="4.81%"/>
      <stop stop-color="#006EB8" offset="36.16%"/>
      <stop stop-color="#0084CC" offset="65.48%"/>
      <stop stop-color="#0091D7" offset="87.62%"/>
      <stop stop-color="#0095DB" offset="100%"/>
    </linearGradient>
    <linearGradient id="x" x1="66.234%" x2=".924%" y1="115.171%" y2="-104.61%">
      <stop stop-color="#004F9F" offset="4.81%"/>
      <stop stop-color="#006EB8" offset="36.16%"/>
      <stop stop-color="#0084CC" offset="65.48%"/>
      <stop stop-color="#0091D7" offset="87.62%"/>
      <stop stop-color="#0095DB" offset="100%"/>
    </linearGradient>
    <linearGradient id="y" x1="62.342%" x2="-56.171%" y1="112.92%" y2="-478.784%">
      <stop stop-color="#004F9F" offset="4.81%"/>
      <stop stop-color="#006EB8" offset="36.16%"/>
      <stop stop-color="#0084CC" offset="65.48%"/>
      <stop stop-color="#0091D7" offset="87.62%"/>
      <stop stop-color="#0095DB" offset="100%"/>
    </linearGradient>
    <linearGradient id="z" x1="53.189%" x2="-70.953%" y1="62.033%" y2="-335.051%">
      <stop stop-color="#004F9F" offset="4.81%"/>
      <stop stop-color="#006EB8" offset="36.16%"/>
      <stop stop-color="#0084CC" offset="65.48%"/>
      <stop stop-color="#0091D7" offset="87.62%"/>
      <stop stop-color="#0095DB" offset="100%"/>
    </linearGradient>
  </defs>
  <g fill="none" fill-rule="evenodd">
    <path fill="#FFFFFF" d="M504.749,209.088 C505.075,212.189 502.808,214.995 499.703,215.321 L27.897,264.907 C24.795,265.229 21.995,262.962 21.668,259.86 L0.304,56.561 C-0.024,53.461 2.246,50.658 5.347,50.333 L477.153,0.742 C480.254,0.417 483.058,2.685 483.382,5.786 L504.749,209.088 L504.749,209.088 Z"/>
    <g transform="translate(58 52)">
      <g transform="translate(0 22)">
        <polygon fill="url(#a)" points="14.812 6.672 .247 8.201 24.131 53.93 32.738 43.936"/>
        <polygon fill="url(#b)" points="69.774 .895 55.722 2.369 50.57 23.233 69.756 .958"/>
      </g>
      <g transform="translate(5 14)">
        <path fill="url(#c)" d="M65.848,51.092 C65.036,43.346 68.721,34.701 78.538,33.674 C88.351,32.639 93.752,40.328 94.567,48.076 C94.743,49.761 94.697,51.496 94.432,53.19 L106.821,44.472 C104.203,30.275 91.705,22.052 77.473,23.551 C68.869,24.453 61.63,28.709 57.326,35.113 L64.756,8.957 L45.57,31.232 L36.285,68.812 L35.879,68.853 L27.738,51.935 L19.131,61.929 L31.859,86.306 L43.122,85.117 L53.11,49.96 C53.125,50.77 53.16,51.587 53.248,52.42 C54.23,61.76 59.349,68.923 66.504,72.846 L77.037,65.433 C70.292,63.886 66.516,57.444 65.848,51.092 L65.848,51.092 Z"/>
        <polygon fill="url(#d)" points="106.834 4.476 92.194 6.012 111.769 40.995 121.836 33.917"/>
        <polygon fill="url(#e)" points="148.663 .074 134.904 1.525 128.615 29.141 143.605 18.596"/>
        <path fill="url(#f)" d="M18.668,104.375 C9.603,105.326 0.897,110.357 0.533,119.831 L22.689,104.245 C21.345,104.209 19.997,104.236 18.668,104.375 L18.668,104.375 Z"/>
      </g>
      <g transform="translate(5 25)">
        <path fill="url(#g)" d="M212.207,54.489 C209.709,54.753 207.105,54.579 204.553,54.051 L188.422,60.026 C195.45,64.088 204.807,66.098 213.219,65.208 C233.234,63.108 239.161,51.343 240.328,40.81 L226.755,45.837 C224.354,50.815 219.503,53.725 212.207,54.489 L212.207,54.489 Z"/>
        <path fill="url(#h)" d="M266.503,45.839 C275.906,44.854 282.587,40.805 286.747,33.687 L277.786,27.942 C275.409,32.164 271.538,35.073 265.34,35.726 C262.583,36.018 259.868,35.539 257.494,34.46 L244.726,39.18 C250.111,44.356 257.833,46.75 266.503,45.839 L266.503,45.839 Z"/>
        <path fill="url(#i)" d="M301.612,19.301 C311.112,21.229 318.986,22.59 319.789,30.238 C320.616,38.088 313.8,41.833 307.705,42.471 C301.919,43.077 294.976,40.678 290.843,36.095 L282.46,45.754 C288.962,51.964 299.152,54.549 308.662,53.545 C323.022,52.041 334.511,43.1 332.862,27.398 C332.438,23.379 331.139,20.29 329.307,17.838 L358.641,14.758 L357.186,0.909 L344.526,2.24 L324.69,9.584 L325.14,13.853 C323.613,12.794 321.929,11.959 320.188,11.249 L299.607,18.869 C300.273,19.024 300.946,19.166 301.612,19.301 L301.612,19.301 Z"/>
        <path fill="url(#j)" d="M28.86,129.694 C29.325,134.137 25.138,136.045 21.522,136.423 C16.151,136.988 11.22,134.793 8.167,131.567 L0.809,140.061 C6.114,144.834 14.37,146.891 22.018,146.088 C32.864,144.947 42.212,139.469 40.941,127.386 C40.412,122.346 37.718,119.288 34.211,117.359 L16.872,123.78 C24.511,124.735 28.429,125.586 28.86,129.694 L28.86,129.694 Z"/>
        <path fill="url(#k)" d="M48.312,141.863 L60.707,140.556 L57.843,113.282 C57.676,111.707 57.729,110.108 57.998,108.559 L45.306,113.253 L48.312,141.863 L48.312,141.863 Z"/>
        <path fill="url(#l)" d="M78.688,110.883 L81.575,138.362 L93.972,137.058 L90.718,106.07 C90.395,103.004 89.572,100.013 88.239,97.362 L75.875,101.941 C77.624,104.397 78.365,107.812 78.688,110.883 L78.688,110.883 Z"/>
        <path fill="url(#m)" d="M97.396,111.627 C99.132,128.16 112.344,136.595 127.013,135.053 C134.35,134.282 140.904,131.087 144.573,126.211 L135.998,119.168 C133.929,122.316 129.854,124.309 126.032,124.71 C116.631,125.697 111.126,118.028 110.31,110.275 C109.495,102.526 113.182,93.888 122.275,92.933 C126.304,92.509 130.755,94.131 133.015,96.718 L140.703,88.389 C137.619,85.302 132.894,83.347 127.869,82.693 L103,91.896 C98.792,96.93 96.562,103.706 97.396,111.627 L97.396,111.627 Z"/>
        <path fill="url(#n)" d="M178.278,85.22 L166.809,86.418 L166.269,81.313 C165.751,76.354 166.337,70.024 173.468,69.274 C175.224,69.093 176.906,69.226 178.297,69.497 L178.147,63.908 L154.404,72.696 C153.639,75.99 153.56,79.618 153.95,83.337 L154.413,87.73 L145.012,88.709 L146.051,98.627 L155.456,97.643 L158.88,130.243 L171.276,128.941 L167.851,96.338 L179.318,95.133 L178.278,85.22 L178.278,85.22 Z"/>
        <path fill="url(#o)" d="M189.814,105.79 C183.643,106.433 179.111,111.864 179.746,117.901 C180.38,123.926 186.193,127.994 192.079,127.38 C198.253,126.732 202.783,121.287 202.147,115.261 C201.519,109.23 195.84,105.152 189.814,105.79 L189.814,105.79 Z"/>
        <path fill="url(#p)" d="M232.083,81.395 C236.116,80.972 240.567,82.593 242.82,85.176 L250.51,76.848 C246.075,72.406 238.232,70.298 230.997,71.063 C216.431,72.59 205.51,83.973 207.204,100.09 C208.94,116.619 222.153,125.055 236.822,123.516 C244.158,122.739 250.716,119.544 254.379,114.666 L245.811,107.632 C243.738,110.774 239.667,112.764 235.843,113.169 C226.442,114.156 220.929,106.485 220.119,98.734 C219.305,90.985 222.993,82.352 232.083,81.395 L232.083,81.395 Z"/>
        <path fill="url(#q)" d="M276.921,66.239 C261.941,67.809 251.05,79.503 252.69,95.102 C254.335,110.704 267.458,120.291 282.437,118.723 C297.417,117.143 308.258,105.035 306.621,89.438 C304.981,73.837 291.898,64.661 276.921,66.239 L276.921,66.239 Z M281.35,108.385 C271.536,109.417 266.11,101.53 265.299,93.778 C264.486,86.032 268.17,77.391 277.987,76.361 C287.799,75.329 293.204,83.012 294.016,90.765 C294.833,98.506 291.165,107.353 281.35,108.385 L281.35,108.385 Z"/>
        <path fill="url(#r)" d="M368.69,56.588 C361.256,57.369 356.031,61.371 353.358,67.709 C349.981,62.428 344.518,59.129 336.874,59.936 C328.917,60.769 324.13,65.871 322.469,70.957 L322.261,70.98 L321.427,63.021 L309.653,64.258 L314.863,113.844 L327.258,112.541 L324.391,85.267 C323.698,78.659 326.388,71.48 333.824,70.699 C340.128,70.043 343.512,74.386 344.152,80.477 L347.3,110.438 L359.699,109.138 L356.852,82.068 C356.18,75.662 358.619,68.097 366.366,67.281 C374.321,66.445 376.437,73.64 377.057,79.531 L379.945,107.008 L392.343,105.702 L389.085,74.716 C388.02,64.59 381.607,55.233 368.69,56.588 L368.69,56.588 Z"/>
      </g>
      <g transform="translate(5)">
        <path fill="url(#s)" d="M107.175,60.75 C107.093,59.974 106.96,59.224 106.821,58.474 L94.432,67.192 C93.481,73.3 89.582,78.894 81.905,79.703 C80.135,79.886 78.516,79.777 77.036,79.434 L66.503,86.847 C71.288,89.474 76.982,90.665 82.988,90.033 C97.97,88.456 108.813,76.352 107.175,60.75 L107.175,60.75 Z"/>
        <polygon fill="url(#t)" points="324.146 29.382 324.69 34.584 344.526 27.241"/>
        <path fill="url(#u)" d="M192.339,73.038 L191.704,72.462 L184.943,82.706 L185.505,83.122 C186.418,83.796 187.398,84.432 188.422,85.026 L204.553,79.051 C199.996,78.116 195.613,76.016 192.339,73.038 L192.339,73.038 Z"/>
        <path fill="url(#v)" d="M118.487,77.458 C116.864,83.19 115.611,86.106 109.997,86.696 C108.567,86.846 106.783,86.811 104.965,86.44 L105.065,98.012 C107.435,98.317 109.772,98.295 111.971,98.061 C123.641,96.836 127.686,90.846 130.421,80.873 L141.209,41.38 L146.147,46.093 C149.015,42.553 153.813,39.539 159.082,38.988 C165.281,38.339 170.765,40.794 171.403,46.887 L171.534,48.129 C156.04,49.756 137.662,53.774 139.212,68.547 C140.428,80.118 151.472,82.826 159.426,81.986 C166.453,81.248 172.001,77.429 174.027,72.828 L174.335,72.797 L174.997,79.098 L186.569,77.876 L183.717,50.753 C189.05,59.701 198.865,64.795 210.308,63.593 C217.694,62.817 224.227,59.043 227.801,53.588 L228.326,58.563 C228.847,63.524 228.307,67.612 226.755,70.836 L240.328,65.809 C240.606,63.317 240.615,60.895 240.488,58.686 C241.652,60.777 243.084,62.606 244.726,64.18 L257.494,59.46 C253.639,57.697 250.683,54.338 249.906,50.022 L287.611,46.062 C287.597,44.912 287.487,43.882 287.369,42.742 C287.182,40.972 286.883,39.327 286.52,37.753 C290.085,41.126 294.868,42.783 299.607,43.869 L320.188,36.249 C316.608,34.795 312.747,33.951 309.228,33.264 C300.693,31.545 294.801,30.184 294.097,23.465 C293.345,16.34 299.968,12.719 305.959,12.092 C311.123,11.547 316.877,13.659 320.051,16.981 L327.546,6.795 C321.411,2.109 312.774,0.404 305.44,1.177 C292.216,2.571 279.375,10.603 280.939,25.48 C280.955,25.647 280.994,25.801 281.01,25.961 C276.086,20.035 268.836,17.533 260.577,18.4 C249.545,19.558 241.155,26.228 238.157,36.053 L234.894,4.992 L223.164,6.225 L223.929,13.493 C219.192,8.425 211.974,5.917 204.217,6.732 C188.821,8.345 178.696,20.709 179.523,36.421 C176.016,31.409 169.791,28.045 159.094,29.168 C153.273,29.778 147.445,32.033 142.767,35.663 L143.605,32.594 L128.615,43.139 L125.844,55.315 L125.618,55.34 L121.836,47.914 L111.769,54.992 L120.421,70.461 L118.487,77.458 L118.487,77.458 Z M172.597,58.249 C173.423,66.103 169.39,71.435 160.914,72.321 C156.682,72.771 152.085,71.784 151.586,67.04 C150.815,59.704 161.773,57.617 169.625,56.792 L172.412,56.495 L172.597,58.249 L172.597,58.249 Z M261.453,27.712 C269.511,26.864 273.711,32.058 274.383,38.468 L248.969,41.143 C248.762,34.163 254.117,28.485 261.453,27.712 L261.453,27.712 Z M207.101,16.805 C217.042,15.76 225.363,22.762 226.448,33.088 C227.549,43.586 221.014,51.983 210.912,53.041 C199.754,54.217 192.963,45.715 192.016,36.707 C190.896,26.042 197.097,17.854 207.101,16.805 L207.101,16.805 Z"/>
        <path fill="url(#w)" d="M11.948,133.917 C11.534,129.991 15.412,128.121 19.34,127.709 C23.883,127.23 28.276,129.276 30.751,131.94 L38.061,123.971 C34.348,120.19 28.558,118.389 22.69,118.244 L0.534,133.83 C0.506,134.615 0.514,135.414 0.603,136.256 C1.577,145.553 9.227,147.774 16.746,148.761 C16.789,148.772 16.826,148.778 16.872,148.78 L34.211,142.359 C30.952,140.58 26.993,139.766 23.375,139.297 C16.279,138.369 12.35,137.737 11.948,133.917 L11.948,133.917 Z"/>
        <path fill="url(#x)" d="M70.324,112.942 C62.986,113.713 57.57,118.78 55.919,123.965 L55.712,123.99 L54.874,116.032 L43.1,117.27 L45.306,138.252 L57.998,133.558 C58.856,128.605 62.017,124.265 67.999,123.64 C71.805,123.238 74.267,124.691 75.874,126.941 L88.238,122.362 C85.163,116.265 79.325,112 70.324,112.942 L70.324,112.942 Z"/>
        <path fill="url(#y)" d="M102.999,116.897 L127.868,107.694 C125.661,107.406 123.396,107.37 121.188,107.599 C113.787,108.38 107.341,111.711 102.999,116.897 L102.999,116.897 Z"/>
        <path fill="url(#z)" d="M178.015,83.877 C176.101,83.554 174.323,83.531 171.635,83.815 C161.062,84.926 156.081,90.473 154.405,97.696 L178.148,88.908 L178.015,83.877 L178.015,83.877 Z"/>
      </g>
    </g>
  </g>
</svg>
