<svg xmlns="http://www.w3.org/2000/svg" viewBox="0 0 400 250"><defs><style>.cls-1{fill:#bbd9fd;}.cls-2{fill:#b7f6f7;}.cls-3{fill:#2bd1d4;}.cls-4{fill:#ffdec1;}.cls-5{fill:#ff9300;}.cls-6{fill:#3281ee;}.cls-7{fill:#ffb15c;}.cls-8{fill:#fedba7;}.cls-9{fill:#fec267;}.cls-10{fill:#ffeacd;}.cls-11{fill:#35ce68;}.cls-12{fill:#9fe6a2;}.cls-13{fill:#cbf7d8;}.cls-14{fill:#ff8e8e;}.cls-15{fill:#f52d2d;}.cls-16{fill:#fcb875;}.cls-17,.cls-19{fill:#ffd799;}.cls-17{stroke:#ffd799;stroke-miterlimit:10;}.cls-18{fill:#ffe2a1;}.cls-20{fill:none;}.cls-21{fill:#fff;stroke:#3281ee;stroke-linecap:round;stroke-linejoin:round;stroke-width:6px;}</style></defs><title>connected-accounts-400x250</title><g id="Layer_1" data-name="Layer 1"><path class="cls-1" d="M155.26,241c4.18,1.46,14.94,2.73,23.61,3.24,23.66,1.38,56.72.63,70.74-1.92s14.75-6.46-21.15-8.38c-30.57-1.64-66.25.7-73.88,4.18C152.54,239.09,152.65,240.13,155.26,241Z"/><path class="cls-2" d="M218,24.25a14.79,14.79,0,0,0,0-5.39c-.67-2.93-3.24-4-6.27-4.43a32,32,0,0,0-4-.3c-6-.24-27.51-1.32-28.2-1.28-3.37.23-4.28,2.42-4.48,5.2-.09.44-3.42,38.83-3.46,40.9-.05,2.81.48,5.54,2.83,6.6s34.67,2.82,36.21,2.8c1.88,0,2.95-.74,3.52-1.83a4.36,4.36,0,0,0,.75-2.18C215.29,61.92,218.19,28.86,218,24.25Z"/><path class="cls-3" d="M220.44,25.4A15,15,0,0,0,220,20c-.92-2.86-3.58-3.71-6.63-3.87a31.52,31.52,0,0,0-4,.05c-6,.29-27.52,1.08-28.2,1.19-3.34.51-4.06,2.78-4,5.57,0,.44,0,39,.12,41,.19,2.8,1,5.47,3.39,6.33s34.79-.21,36.32-.37c1.87-.2,2.88-1,3.35-2.13a4.37,4.37,0,0,0,.56-2.23C221.06,63.16,221.06,30,220.44,25.4Z"/><path class="cls-4" d="M384.91,116.36s0,0,0,0a10.1,10.1,0,0,1,0-2.69.61.61,0,0,0-1-.61,6.18,6.18,0,0,0-1,.47,4.65,4.65,0,0,1,.08-1.29.6.6,0,0,0-1-.61,8.83,8.83,0,0,0-1.68.85,6.24,6.24,0,0,1,0-1.93.6.6,0,0,0-1-.61,9.66,9.66,0,0,0-1.64.82,5.86,5.86,0,0,1,.05-1.87.6.6,0,0,0-1-.6,8.38,8.38,0,0,0-1.64.82,5.93,5.93,0,0,1,0-1.88.6.6,0,0,0-1-.6,9.34,9.34,0,0,0-1.73.87,6.32,6.32,0,0,1,0-2,.6.6,0,0,0-1-.6,8.71,8.71,0,0,0-1.62.8,5.69,5.69,0,0,1,.05-1.84.6.6,0,0,0-1-.6,9.41,9.41,0,0,0-1.68.84,5.63,5.63,0,0,1,0-1.92.6.6,0,0,0-1-.61,9,9,0,0,0-1.64.82,5.86,5.86,0,0,1,0-1.87.6.6,0,0,0-1-.6,8.38,8.38,0,0,0-1.64.82,5.93,5.93,0,0,1,.05-1.88.6.6,0,0,0-1-.6,9.34,9.34,0,0,0-1.73.87,6.32,6.32,0,0,1,0-2,.6.6,0,0,0-1-.6,15.7,15.7,0,0,0-2.2,1.12l-.18.1-.07,0-.14.1-.11.08q-1.29,2.76-2.79,5.38c-1.51,2.91-3.15,5.75-4.89,8.52q-3.24,5.68-7,11.1c-2,2.83-4,5.82-6.24,8.67-.92,1.19-1.81,1.65-1.8,2.39a10.85,10.85,0,0,1-.26,2.67.6.6,0,0,0,.9.69,7.12,7.12,0,0,0,1.48-.55l.23.18a4.91,4.91,0,0,1-.22,1.58.6.6,0,0,0,.9.7,7.73,7.73,0,0,0,1.54-.58l.21.17a5.1,5.1,0,0,1-.22,1.65.6.6,0,0,0,.9.69,7.94,7.94,0,0,0,1.56-.59l.15.11a5.59,5.59,0,0,1-.23,1.68.6.6,0,0,0,.9.69,7.24,7.24,0,0,0,1.57-.59l.14.11a5.69,5.69,0,0,1-.22,1.69.59.59,0,0,0,.89.69,7.35,7.35,0,0,0,1.58-.6l.22.18a5.44,5.44,0,0,1-.22,1.7.6.6,0,0,0,.9.69,7.92,7.92,0,0,0,1.58-.6l.1.08a5.37,5.37,0,0,1-.22,1.7.6.6,0,0,0,.9.69,7.35,7.35,0,0,0,1.58-.6l.17.13a5.43,5.43,0,0,1-.22,1.71.6.6,0,0,0,.9.7,8.63,8.63,0,0,0,1.6-.61l.1.08a5.59,5.59,0,0,1-.22,1.73.6.6,0,0,0,.9.69,8,8,0,0,0,1.62-.62l.08.07a5.43,5.43,0,0,1-.22,1.75.6.6,0,0,0,.9.7,8.86,8.86,0,0,0,1.67-.64l.13.09a5.83,5.83,0,0,1-.22,1.82.6.6,0,0,0,.89.7,25.67,25.67,0,0,0,2.56-1,.58.58,0,0,0,.27-.2v0c.79-1,3.72-5.34,4.32-6.31l17.63-29a1.39,1.39,0,0,0,.15-.19,25.46,25.46,0,0,0,1.76-3.08A.85.85,0,0,0,384.91,116.36Z"/><path class="cls-5" d="M378.3,116.29s0,0,0,0a10.16,10.16,0,0,1-.18-2.69.6.6,0,0,0-1-.54,5.19,5.19,0,0,0-1,.54,4.36,4.36,0,0,1,0-1.3.6.6,0,0,0-1-.54,8.49,8.49,0,0,0-1.62,1,5.71,5.71,0,0,1-.08-1.93.6.6,0,0,0-1-.54,8.26,8.26,0,0,0-1.58.92,5.61,5.61,0,0,1-.08-1.87.6.6,0,0,0-1-.54,8.92,8.92,0,0,0-1.58.92,5.88,5.88,0,0,1-.08-1.87.6.6,0,0,0-1-.54,9,9,0,0,0-1.67,1,6,6,0,0,1-.09-2,.6.6,0,0,0-1-.54,8.32,8.32,0,0,0-1.56.9,5.69,5.69,0,0,1-.07-1.84.6.6,0,0,0-1-.54,9.5,9.5,0,0,0-1.63,1,6.21,6.21,0,0,1-.08-1.92.6.6,0,0,0-1-.54,8.35,8.35,0,0,0-1.58.92,6.2,6.2,0,0,1-.08-1.87.6.6,0,0,0-1-.54,8.66,8.66,0,0,0-1.59.92,5.88,5.88,0,0,1-.07-1.87.6.6,0,0,0-1-.54,9,9,0,0,0-1.67,1,6.34,6.34,0,0,1-.09-2,.6.6,0,0,0-1-.54,16.21,16.21,0,0,0-2.12,1.26l-.18.11-.06,0a.53.53,0,0,0-.14.11l-.11.09c-.73,1.88-1.55,3.73-2.43,5.54-1.32,3-2.77,5.94-4.33,8.82-1.91,3.92-4,7.77-6.23,11.52-1.77,2.95-3.66,6.08-5.67,9.06-.84,1.25-1.7,1.76-1.65,2.49a10.52,10.52,0,0,1-.08,2.69.6.6,0,0,0,.94.63,7.11,7.11,0,0,0,1.44-.64l.25.16a5.36,5.36,0,0,1-.12,1.6.6.6,0,0,0,.94.63,7.39,7.39,0,0,0,1.49-.67l.23.15a5.43,5.43,0,0,1-.12,1.66.6.6,0,0,0,1,.63,7.71,7.71,0,0,0,1.52-.69l.15.11a5.32,5.32,0,0,1-.12,1.69.6.6,0,0,0,1,.63,8.75,8.75,0,0,0,1.53-.69l.14.09a5.36,5.36,0,0,1-.12,1.7.61.61,0,0,0,1,.64,7.83,7.83,0,0,0,1.53-.7l.23.16a5.44,5.44,0,0,1-.11,1.71.6.6,0,0,0,.94.63,7.92,7.92,0,0,0,1.54-.7l.11.08a5.45,5.45,0,0,1-.12,1.71.6.6,0,0,0,1,.63,7.92,7.92,0,0,0,1.54-.7l.17.12a5.22,5.22,0,0,1-.11,1.72.6.6,0,0,0,.94.63,7.82,7.82,0,0,0,1.56-.7l.11.07a5.34,5.34,0,0,1-.11,1.74.6.6,0,0,0,.94.63,7.52,7.52,0,0,0,1.58-.72l.09.06a5.53,5.53,0,0,1-.11,1.77.6.6,0,0,0,.94.63,8.28,8.28,0,0,0,1.63-.75l.13.09a5.89,5.89,0,0,1-.1,1.83.6.6,0,0,0,.94.64,25.64,25.64,0,0,0,2.49-1.17.68.68,0,0,0,.25-.22s0,0,0,0c.73-1.07,3.37-5.57,3.9-6.57q7.88-15,15.73-30.06a1.43,1.43,0,0,0,.14-.2,26.72,26.72,0,0,0,1.56-3.18A1,1,0,0,0,378.3,116.29Z"/><path class="cls-1" d="M78.4,61.78c2.67-6.76,2.1-6.28,4.69-12.91a2.16,2.16,0,0,0,.11-2.23c-.65-1.1-2.2-1.66-3.59-2.2h0c-12-5.14-23.22-9.86-35.21-15a2.34,2.34,0,0,0-.27-.15,11.09,11.09,0,0,0-1.76-.73,2.51,2.51,0,0,0-2.06,0,1.5,1.5,0,0,0-.51.56s-.06.05-.07.09-.08.18-.11.28-.12.25-.19.38,0,.07,0,.1c-2.61,6.51-3.61,7.42-6.37,14.37a2.37,2.37,0,0,0-.23,1.12,2,2,0,0,0,1,1.59,14.41,14.41,0,0,0,2.42,1.12.71.71,0,0,0,.24.06q17.88,7.09,35.76,14.16a1.36,1.36,0,0,0,.25.07h0l.9.36a7.46,7.46,0,0,0,2.23.63,5,5,0,0,0,.75.07A2.21,2.21,0,0,0,78.4,61.78Z"/><path class="cls-6" d="M74,62.34c1.56-7.09,1.08-6.53,2.59-13.49a2.18,2.18,0,0,0-.24-2.21c-.82-1-2.44-1.3-3.89-1.61h0C59.8,41.85,48,39,35.33,35.79L35,35.68a11.12,11.12,0,0,0-1.86-.43,2.54,2.54,0,0,0-2,.34,1.53,1.53,0,0,0-.41.64.33.33,0,0,0-.06.1l-.06.29c0,.13-.08.27-.13.4s0,.07,0,.1C29,44,28.11,45,26.49,52.33a2.39,2.39,0,0,0-.06,1.13,2,2,0,0,0,1.27,1.41,14.48,14.48,0,0,0,2.56.73,1.1,1.1,0,0,0,.25,0l37.54,8.32.26,0h0l.94.22a7.59,7.59,0,0,0,2.3.26,4.5,4.5,0,0,0,.75,0A2.19,2.19,0,0,0,74,62.34Z"/><path class="cls-1" d="M72,61.45c.38-7.26,0-6.62.35-13.73a2.16,2.16,0,0,0-.61-2.14c-1-.85-2.61-.88-4.1-1h0c-13-1-25.16-1.95-38.16-3l-.3-.07a11.09,11.09,0,0,0-1.9-.12,2.52,2.52,0,0,0-1.95.67,1.46,1.46,0,0,0-.3.69s0,.07,0,.11,0,.2,0,.3,0,.28-.06.42a.38.38,0,0,0,0,.1c-.4,7-1.07,8.19-1.46,15.65a2.2,2.2,0,0,0,.13,1.13,2,2,0,0,0,1.48,1.19,14.42,14.42,0,0,0,2.64.29A1,1,0,0,0,28,62L66.42,64l.26,0h0q.48,0,1,.06A7.3,7.3,0,0,0,70,63.93a4.31,4.31,0,0,0,.73-.17A2.19,2.19,0,0,0,72,61.45Z"/><path class="cls-6" d="M39.09,50.17a76.85,76.85,0,0,0-9.39-.67,1,1,0,0,0-.15,2.09c8.17.6,4.83.2,9.39.67C40.29,52.4,40.43,50.31,39.09,50.17Z"/><path class="cls-6" d="M49.28,46.58C43,46.06,36.71,45.52,30.43,45a1,1,0,0,0-.17,2.09c6.28.49,12.56,1,18.84,1.55A1,1,0,0,0,49.28,46.58Z"/><path class="cls-6" d="M64.91,58.24c-6.29-.39-29.26-1.46-35.55-1.81a1,1,0,0,0-.13,2.09c6.29.36,29.26,1.43,35.55,1.82A1.05,1.05,0,0,0,64.91,58.24Z"/><path class="cls-7" d="M103,122.89l.69-1.84a2.14,2.14,0,0,0,.08-.32,1.36,1.36,0,0,0-2.56-.88l-.81,2.05h0l-.11,0a1.32,1.32,0,0,0-.44,0,8.68,8.68,0,0,1-1.34.13,10.24,10.24,0,0,1-2.62-.58,12.94,12.94,0,0,1-2.61-1.2,6.57,6.57,0,0,1-1.13-1l-.32-.37a.67.67,0,0,0-.14-.15l-.09-.11,0-.08.69-1.74a1.38,1.38,0,0,0-.77-1.76,1.4,1.4,0,0,0-1.71.66,2.15,2.15,0,0,0-.14.26,10.38,10.38,0,0,0-.76,2,1.28,1.28,0,0,0-.08.35,1.77,1.77,0,0,0,0,.23,1.63,1.63,0,0,0,0,.31l0,.14a1.54,1.54,0,0,0,.1.53,6.68,6.68,0,0,0,.41.8,1.31,1.31,0,0,0,.3.44,7.19,7.19,0,0,0,2.2,1.9,12.88,12.88,0,0,0,2.09,1.15l.18.08.17.06.52.2.21.09a12.51,12.51,0,0,0,4,.88,4.39,4.39,0,0,0,3.63-1.47l.07-.11.06-.09A1.82,1.82,0,0,0,103,122.89Z"/><path class="cls-7" d="M103.48,118.93a9.72,9.72,0,0,0-3-3,11,11,0,0,0-3.63-1.65c-2-.52-4.42-.72-6.27.43a1.12,1.12,0,0,0-.42.45,1.2,1.2,0,0,0-.22,1,6.51,6.51,0,0,0,3.25,4.24,12.84,12.84,0,0,0,2.89,1.39c.44.14.88.27,1.34.37a8.83,8.83,0,0,0,4.45.08C103.33,121.81,104.39,120.43,103.48,118.93Z"/><path class="cls-8" d="M97.82,115.71a8.93,8.93,0,0,1,2,1.08l0,0a8.88,8.88,0,0,1,2.71,2.65,1,1,0,0,1,.13.86,1.85,1.85,0,0,1-1.19,1,8.13,8.13,0,0,1-3.91-.1,12.6,12.6,0,0,1-1.24-.35h0l-.53-.18a14.5,14.5,0,0,1-2.1-1.11A5.48,5.48,0,0,1,90.94,116a.33.33,0,0,1,0-.17.9.9,0,0,0,.14-.2l0,0c1.28-.8,3.12-.9,5.46-.3a9.22,9.22,0,0,1,1.26.4m.38-1a11.63,11.63,0,0,0-1.38-.44c-2-.52-4.42-.72-6.27.43a1.12,1.12,0,0,0-.42.45,1.2,1.2,0,0,0-.22,1,6.51,6.51,0,0,0,3.25,4.24,17.86,17.86,0,0,0,2.26,1.18q.31.12.63.21c.44.14.88.27,1.34.37a8.83,8.83,0,0,0,4.45.08c1.49-.47,2.55-1.85,1.64-3.35a9.72,9.72,0,0,0-3-3,10.17,10.17,0,0,0-2.25-1.21Z"/><path class="cls-9" d="M103.16,114.83l-.29-1.94a3,3,0,0,0-.08-.32,1.36,1.36,0,0,0-2.67.47l.28,2.18h0a.6.6,0,0,1-.08.08,1,1,0,0,0-.38.22,11.49,11.49,0,0,1-1.11.76,10.6,10.6,0,0,1-2.58.75,13.33,13.33,0,0,1-2.87.21,7.32,7.32,0,0,1-1.46-.32l-.45-.17-.2-.07-.13,0-.08,0-.24-1.86a1.36,1.36,0,0,0-1.52-1.17,1.39,1.39,0,0,0-1.18,1.4,1.5,1.5,0,0,0,0,.3,11.88,11.88,0,0,0,.3,2.13,1.62,1.62,0,0,0,.1.34c0,.07.07.14.1.2a1.34,1.34,0,0,0,.17.27.76.76,0,0,0,.08.11,1.34,1.34,0,0,0,.35.41,5.75,5.75,0,0,0,.74.51,1.35,1.35,0,0,0,.48.24,7.28,7.28,0,0,0,2.84.61,12.61,12.61,0,0,0,2.38,0h.21l.17,0,.55-.08a.9.9,0,0,0,.23,0,12.08,12.08,0,0,0,4-1.17,4.37,4.37,0,0,0,2.47-3,.57.57,0,0,0,0-.13.41.41,0,0,0,0-.11A1.82,1.82,0,0,0,103.16,114.83Z"/><path class="cls-7" d="M101.64,111.15a9.77,9.77,0,0,0-4.1-1.15,10.83,10.83,0,0,0-4,.29c-2,.53-4.22,1.5-5.29,3.4a1.1,1.1,0,0,0-.14.6,1.2,1.2,0,0,0,.29,1,6.48,6.48,0,0,0,4.9,2.14,12.34,12.34,0,0,0,3.2-.17,13.2,13.2,0,0,0,1.35-.32,8.72,8.72,0,0,0,3.94-2.07C102.89,113.75,103.15,112,101.64,111.15Z"/><path class="cls-8" d="M95.12,111.06a8.8,8.8,0,0,1,2.29,0h0a8.73,8.73,0,0,1,3.65,1,.94.94,0,0,1,.53.69,1.79,1.79,0,0,1-.59,1.4,8.11,8.11,0,0,1-3.47,1.8c-.42.12-.84.21-1.25.29h0l-.55.1a15.79,15.79,0,0,1-2.38.05,5.53,5.53,0,0,1-4.12-1.78s-.08-.1-.07-.14a1,1,0,0,0,0-.25s0,0,0,0c.73-1.32,2.3-2.3,4.63-2.9a9.93,9.93,0,0,1,1.3-.25M95,110a12.91,12.91,0,0,0-1.43.27c-2,.53-4.22,1.5-5.29,3.4a1.1,1.1,0,0,0-.14.6,1.2,1.2,0,0,0,.29,1,6.48,6.48,0,0,0,4.9,2.14,15.6,15.6,0,0,0,2.55,0c.22,0,.43-.07.65-.12a13.2,13.2,0,0,0,1.35-.32,8.72,8.72,0,0,0,3.94-2.07c1.08-1.13,1.34-2.85-.17-3.73a9.77,9.77,0,0,0-4.1-1.15A9.89,9.89,0,0,0,95,110Z"/><path class="cls-9" d="M105.38,109.37l-.29-1.94a2.13,2.13,0,0,0-.08-.32,1.36,1.36,0,0,0-2.67.46l.28,2.19h0a.6.6,0,0,1-.08.08,1.34,1.34,0,0,0-.38.22,9.93,9.93,0,0,1-1.11.76,10.6,10.6,0,0,1-2.58.75,12.73,12.73,0,0,1-2.87.21,6.69,6.69,0,0,1-1.46-.32l-.45-.17a.76.76,0,0,0-.2-.06l-.13-.06-.08,0L93,109.27a1.37,1.37,0,0,0-1.52-1.17,1.39,1.39,0,0,0-1.18,1.4,1.5,1.5,0,0,0,0,.3,11.75,11.75,0,0,0,.3,2.13,1.62,1.62,0,0,0,.1.34c0,.07.07.14.1.2a1.61,1.61,0,0,0,.17.28l.08.1a1.51,1.51,0,0,0,.35.42,5.66,5.66,0,0,0,.74.5,1.39,1.39,0,0,0,.48.25,7.45,7.45,0,0,0,2.84.6,12.62,12.62,0,0,0,2.38,0l.21,0,.17,0,.55-.08.23,0a12.34,12.34,0,0,0,4-1.18,4.33,4.33,0,0,0,2.47-3,.53.53,0,0,0,0-.13.34.34,0,0,0,0-.1A1.79,1.79,0,0,0,105.38,109.37Z"/><path class="cls-7" d="M103.86,105.68a9.77,9.77,0,0,0-4.1-1.15,10.62,10.62,0,0,0-4,.3c-2,.52-4.22,1.5-5.29,3.4a1.07,1.07,0,0,0-.14.59,1.19,1.19,0,0,0,.29,1,6.52,6.52,0,0,0,4.9,2.15,12.8,12.8,0,0,0,3.2-.17c.45-.09.9-.19,1.35-.32a8.84,8.84,0,0,0,3.94-2.08C105.11,108.29,105.37,106.56,103.86,105.68Z"/><path class="cls-8" d="M97.34,105.59a9.26,9.26,0,0,1,2.29,0h.05a8.73,8.73,0,0,1,3.65,1,.94.94,0,0,1,.53.69,1.81,1.81,0,0,1-.59,1.41,8.09,8.09,0,0,1-3.47,1.79,11.82,11.82,0,0,1-1.25.29h0a4.48,4.48,0,0,1-.55.1,15.79,15.79,0,0,1-2.38.05,5.48,5.48,0,0,1-4.12-1.77s-.08-.1-.07-.15a1,1,0,0,0,0-.24v0c.74-1.32,2.31-2.29,4.64-2.9a11.91,11.91,0,0,1,1.3-.25m-.13-1a11,11,0,0,0-1.43.28c-2,.52-4.22,1.5-5.29,3.4a1.07,1.07,0,0,0-.14.59,1.19,1.19,0,0,0,.29,1,6.52,6.52,0,0,0,4.9,2.15,16.83,16.83,0,0,0,2.55-.06c.22,0,.43-.06.65-.11.45-.09.9-.19,1.35-.32a8.84,8.84,0,0,0,3.94-2.08c1.08-1.12,1.34-2.85-.17-3.73a9.77,9.77,0,0,0-4.1-1.15,9.89,9.89,0,0,0-2.55,0Z"/><path class="cls-10" d="M96.64,109.09l-.19-.16-.1.06a.79.79,0,0,1-.41,0,1.56,1.56,0,0,1-.47-.14q-.18-.09.45-.51a1.39,1.39,0,0,1-.25-1,1.18,1.18,0,0,1,.66-.81,1.06,1.06,0,0,1,.6-.06,1.81,1.81,0,0,1,.66.17.4.4,0,0,1,.17.17c0,.07,0,.12,0,.15a.71.71,0,0,1-.24,0,.51.51,0,0,0-.31,0,.68.68,0,0,0-.33.38.93.93,0,0,0-.06.53,11.5,11.5,0,0,1,1.14-.56.89.89,0,0,1,.66-.09c.11.06,0,.23-.34.49a8.26,8.26,0,0,1-.94.66l-.23.15.17.17a11.65,11.65,0,0,1,1.29-.8c.42-.23.69-.31.82-.24s-.25.58-1.34,1.43a1.14,1.14,0,0,0,.89-.09,2.85,2.85,0,0,0,.9-.77A1,1,0,0,1,100,108a.27.27,0,0,1,.18,0,.6.6,0,0,1,.19.06.3.3,0,0,1,.12.35,1.23,1.23,0,0,1-.28.56,1.71,1.71,0,0,1-.57.47,2.52,2.52,0,0,1-2.27.12l-.24.14a.8.8,0,0,1-.4,0,1.64,1.64,0,0,1-.46-.13C96.22,109.46,96.34,109.33,96.64,109.09Z"/><path class="cls-11" d="M60.14,101.63a.9.9,0,0,0-1.23-.87c-5.54,2.1-11.76,2.52-17.44,4.36a.9.9,0,0,0-.61.27.7.7,0,0,0-.14.16l0,0a.43.43,0,0,1,0,.07.9.9,0,0,0,0,.09c-2,3.36-4.18,6.58-5.55,10.24-1.8,4.85-2.47,10.05-3.16,15.14-.71,5.25-1,11.35-3.5,16.12a9.79,9.79,0,0,1-3.07,3.57c-1.8,1.2-5,1.24-6.73-.31-1.37-1.27-1.33-4.76-1.41-6.48a1,1,0,0,0-2,.05c.15,3.37.6,8.16,4.21,9.68a5.93,5.93,0,0,0,3.43.3,1,1,0,0,0,.46-.05c9.29-3.23,19.43-4.53,28.46-8.55a1.1,1.1,0,0,0,.55-1.44c.89-1.06,3.17-1.7,3.92-3.24,1.75-3.54,2-8.06,2.58-11.9a96.29,96.29,0,0,0,1.31-12.22c0-4.73-.64-9.3.52-14A.92.92,0,0,0,60.14,101.63Z"/><path class="cls-12" d="M40.68,105.59c-2,3.42-4.25,6.68-5.64,10.4-1.8,4.85-2.47,10.05-3.16,15.14-.27,2-.49,4.15-.79,6.29a94.67,94.67,0,0,0-15.53,5.79.81.81,0,0,0-.38,1.18c.17,3.35.7,7.9,4.2,9.37,3.7,1.55,8.09-1.37,10.07-4.34,3.78-5.67,3.78-13.84,4.72-20.37,1.23-8.52,4-15.11,8.26-22.49C43.08,105.44,41.33,104.48,40.68,105.59Z"/><path class="cls-13" d="M46.82,103.44l-.77,0a.89.89,0,0,0-.74,0,6.13,6.13,0,0,1-.61.18,8.1,8.1,0,0,0-4.45,1.71,9.19,9.19,0,0,0-1.94,3.36c-.55,1.26-1.18,2.46-1.64,3.75A30.15,30.15,0,0,0,35,116c-1.8,4.85-2.47,10.05-3.16,15.14-.71,5.25-1,11.35-3.5,16.12a9.79,9.79,0,0,1-3.07,3.57c-1.8,1.2-5,1.24-6.73-.31-1.37-1.27-1.33-4.76-1.41-6.48a1,1,0,0,0-2,.05c.15,3.37.6,8.16,4.21,9.68s8.09-1.37,10.07-4.34c3.78-5.67,3.78-13.84,4.72-20.37a57.74,57.74,0,0,1,7.5-21.14,5.67,5.67,0,0,1,2.58-1.52.9.9,0,0,0,.68-.81c.68-.08,1.36-.12,1.94-.14A1,1,0,0,0,46.82,103.44Z"/><path class="cls-13" d="M78.88,95.87c-5.12.55-33.52,7.32-37.25,8.41l-.05,0a2.73,2.73,0,0,0-1.19,1A9.08,9.08,0,0,0,39.11,108v0a7.57,7.57,0,0,0-.46,1.23.45.45,0,0,0,0,.16,1,1,0,0,0,1.84.71s0,0,.06-.08l.05,0a2,2,0,0,1,2-.14c1.79,1.33,1.7,5.43,1.65,6.58a36,36,0,0,1-1.38,7c-1,3.18-2.28,6.25-3.16,8.89a87.44,87.44,0,0,0-3.14,10c-.9,2.44-1.77,4.9-2.58,7.38A35.74,35.74,0,0,0,33.8,154c.2,6.41,4.22,13.25,10.31,8.79Q59,157.22,74.19,152.41a.85.85,0,0,0,.61,0l3.45-1a.61.61,0,0,0,.16-.09.92.92,0,0,0,.81-1L79,139.82a.9.9,0,0,0-.43-.77.82.82,0,0,0-.15-.4C73,129.92,75.66,122.33,80,113.87a.9.9,0,0,0,.1-.54l.58-1.24a.85.85,0,0,0,.17-.2C83,108.1,87.84,94.92,78.88,95.87Z"/><path class="cls-11" d="M44.11,162.74c2.11-.78,4.23-1.56,6.36-2.32q11.78-4.23,23.72-8a.85.85,0,0,0,.61,0l3.45-1a.61.61,0,0,0,.16-.09.92.92,0,0,0,.81-1L79,139.82a.9.9,0,0,0-.43-.77.82.82,0,0,0-.15-.4c-.67-1.1-17.27,5-28.13,8.39C48.94,147.44,47.43,154.11,44.11,162.74Z"/><path class="cls-12" d="M88.45,152.48a1.12,1.12,0,0,0-.21-.39.79.79,0,0,0-.95-.73c-7.31,1-1.64-9.76-1.61-12.33,0-1.93-.78-3.7-2.81-4.15-1.8-.41-3.54.66-5.15,1.3-3.53,1.4-7.09,2.7-10.61,4.1-5.37,2.12-11,3.9-16.21,6.29a.87.87,0,0,0-.38.35c-.33.15.36.3.07.49s3.57.83,4,.86a2.08,2.08,0,0,1,1,.35,1.81,1.81,0,0,1,.59.72c.77,1.58,0,4.56-.3,6.48a.58.58,0,0,0-.09.23c-.54,3.71-1.82,10.93,1,14.49.52.66,4.83,2,6.16.8,5.89-3.8,12.8-6.61,18.91-10.06C86.59,158.64,90.15,158.35,88.45,152.48Z"/><path class="cls-13" d="M92.85,148.29c-4,3.53-10.35,5.54-15.2,7.56-4.27,1.79-8.65,3.39-12.79,5.46a.86.86,0,0,0-.26,1.37.55.55,0,0,0,0,.18c.28,1.11-.25,2.27-.53,3.33a7,7,0,0,1-1.14,3,.88.88,0,0,0-.24.53c-.74.27-1.49.52-2.25.73a1,1,0,0,0,.58,1.91c6-1.66,11.55-5.2,17.18-7.73,4-1.8,8.48-3.21,12.34-5.46a5.37,5.37,0,0,0,3-1.87.75.75,0,0,0,.51-.68c.31-2.54.44-5.11.53-7.67A1,1,0,0,0,92.85,148.29Z"/><path class="cls-13" d="M64.32,162.86a9.37,9.37,0,0,1-1.49,5.63c-1.76,2.64-5,2.29-6-.73-1.16-3.47-.58-7.47-.06-11a1,1,0,0,0,.06-.2c.31-3,2.12-5.71-.12-8.49a5,5,0,0,0-5.63-1.35c-7,2.37-2.34,13.85-10.46,15.54-1.26.26-.68,2.17.58,1.91,3.94-.82,5.69-3.48,6.71-7.18.74-2.68.91-7.64,4.11-8.48,5-1.33,3.42,4.33,2.92,7.35a.63.63,0,0,0-.09.24c-.64,4.39-2.31,13.71,3,16,5.58,2.42,8.52-5.08,8.44-9.31A1,1,0,0,0,64.32,162.86Z"/><path class="cls-11" d="M55,128.83c-3,.68-2.93.75-6,1.39-1.25.26-.67,2.18.58,1.91,3-.64,3-.71,6-1.39C56.87,130.46,56.29,128.55,55,128.83Z"/><path class="cls-11" d="M58.65,123.67c-3,1-6.12,1.62-9.12,2.48a1,1,0,0,0,.58,1.91c3-.85,6.16-1.51,9.12-2.48A1,1,0,0,0,58.65,123.67Z"/><path class="cls-11" d="M59.47,134.54c-4.19,1.24-5.49,1.4-12.49,3.93a1,1,0,0,0,.64,1.9c7.41-2.46,8.29-2.69,12.49-3.94C61.34,136.07,60.71,134.17,59.47,134.54Z"/><path class="cls-11" d="M55.6,139.64a74.22,74.22,0,0,0-8.52,2.83,1,1,0,0,0,.64,1.9c7.41-2.46,4.32-1.59,8.52-2.84C57.47,141.17,56.84,139.27,55.6,139.64Z"/><path class="cls-11" d="M60.14,114.83A75.87,75.87,0,0,0,51.43,117a1,1,0,0,0,.48,1.94c7.58-1.86,4.44-1.25,8.72-2.15C61.89,116.51,61.4,114.57,60.14,114.83Z"/><path class="cls-11" d="M68.91,108.36c-5.85,1.37-11.71,2.73-17.55,4.13a1,1,0,0,0,.46,2c5.84-1.4,11.7-2.76,17.55-4.14A1,1,0,0,0,68.91,108.36Z"/><path class="cls-11" d="M72.68,110.54a4.08,4.08,0,0,1,.11-.4l-.17,0c-.11,0-.21-.08-.31-.29a1.13,1.13,0,0,1-.13-.56c0-.19.41-.39,1.21-.59a7,7,0,0,1,1.5-2,3.74,3.74,0,0,1,1.87-1,.57.57,0,0,1,.57.29,1.09,1.09,0,0,1,.22.75.94.94,0,0,1-.15.41c-.1.14-.19.22-.27.23s-.08-.06-.14-.21-.16-.2-.27-.18a2,2,0,0,0-.88.43,5.17,5.17,0,0,0-.93.89,15.3,15.3,0,0,1,1.82-.22c.45,0,.66.09.65.29s-.37.39-1.08.63a16.18,16.18,0,0,1-1.84.53l-.43.12a3.18,3.18,0,0,0-.16.41,22.17,22.17,0,0,1,2.36-.55c.71-.13,1-.08,1,.12s-1.17.87-3.44,1.61q.15.57.84.45a6.69,6.69,0,0,0,2-.76,2.43,2.43,0,0,1,.51-.22.16.16,0,0,1,.19.07.38.38,0,0,1,.06.22,1.35,1.35,0,0,1-.5.71,6.34,6.34,0,0,1-1.16.79,4,4,0,0,1-1.23.45c-1.23.22-1.89-.22-2-1.31l-.41.08c-.1,0-.2-.08-.3-.29a1.24,1.24,0,0,1-.13-.54C71.73,110.91,72.05,110.75,72.68,110.54Z"/><path class="cls-11" d="M68,123.66a4.08,4.08,0,0,1,.11-.4l-.17,0c-.11,0-.22-.08-.31-.29a1,1,0,0,1-.13-.55c0-.2.41-.39,1.2-.6a7.17,7.17,0,0,1,1.51-1.95,3.74,3.74,0,0,1,1.87-1,.57.57,0,0,1,.57.29,1.09,1.09,0,0,1,.22.75.94.94,0,0,1-.15.41c-.1.14-.19.22-.28.23s-.07-.06-.14-.21-.15-.2-.26-.18a2.12,2.12,0,0,0-.89.43,5.93,5.93,0,0,0-.93.89,13.44,13.44,0,0,1,1.83-.21c.44,0,.66.08.64.28s-.37.39-1.07.63a19,19,0,0,1-1.85.54l-.42.11a3.18,3.18,0,0,0-.16.41,21.62,21.62,0,0,1,2.36-.55c.7-.12,1-.08,1,.12s-1.16.87-3.43,1.62c.1.37.38.52.84.44a6.79,6.79,0,0,0,2-.76,3.19,3.19,0,0,1,.51-.22.18.18,0,0,1,.19.07.32.32,0,0,1,0,.22c0,.19-.17.42-.49.71a6.34,6.34,0,0,1-1.16.79,4.14,4.14,0,0,1-1.23.45c-1.23.22-1.89-.22-2-1.31l-.41.08c-.1,0-.2-.08-.3-.29a1.11,1.11,0,0,1-.13-.54C67.06,124,67.38,123.87,68,123.66Z"/><path class="cls-11" d="M66.29,134.71a2.24,2.24,0,0,1,.11-.4l-.17,0c-.11,0-.22-.08-.32-.29a1.16,1.16,0,0,1-.13-.56c0-.19.42-.39,1.21-.59a7.17,7.17,0,0,1,1.51-2,3.71,3.71,0,0,1,1.86-1,.58.58,0,0,1,.58.29,1.14,1.14,0,0,1,.22.75.79.79,0,0,1-.16.4.49.49,0,0,1-.27.24s-.07-.07-.14-.21-.16-.2-.26-.19a2.1,2.1,0,0,0-.89.44,5.93,5.93,0,0,0-.93.89,15.55,15.55,0,0,1,1.82-.22c.45,0,.67.08.65.29s-.37.39-1.07.63a16.28,16.28,0,0,1-1.85.53l-.42.11a4.4,4.4,0,0,0-.16.42,23.83,23.83,0,0,1,2.36-.56c.7-.12,1-.07,1,.13s-1.17.86-3.43,1.61c.1.38.38.52.83.45a6.74,6.74,0,0,0,2-.76,1.72,1.72,0,0,1,.51-.22.17.17,0,0,1,.19.06.34.34,0,0,1,0,.23,1.27,1.27,0,0,1-.49.7,5.75,5.75,0,0,1-1.16.79,4,4,0,0,1-1.24.46c-1.23.21-1.88-.22-2-1.31l-.41.08c-.1,0-.2-.08-.3-.29a1.12,1.12,0,0,1-.13-.55Q65.33,135,66.29,134.71Z"/><path class="cls-6" d="M221.32,6.84c-4.72-.76-7.68,3-9.6,6.68-1.77,3.4-4.95,7.66-4.94,11.7a6.72,6.72,0,0,0,1.49,4.37,3.89,3.89,0,0,0,4.6.83c2.39-1.26,3.28-4.85,4.39-7.12.9-1.85,1.36-4.92-1.35-5.58-2.2-.54-2.82,2.44-3.41,3.9-.49,1.19,1.45,1.71,1.92.53.16-.37.28-.75.42-1.12a6.71,6.71,0,0,1,.4-1l.72,1.17c0,.9-1.17,2.42-1.53,3.24A20.53,20.53,0,0,1,213,27.6a2.05,2.05,0,0,1-3.4.48,2.91,2.91,0,0,1-.8-2.35c0-3.37,3.06-8,4.36-10.61.87-1.78,1.75-3.67,3.37-4.9,3.76-2.88,8-.06,7.06,4.61-1.56,7.51-6.08,14.77-8.75,22-.45,1.21,1.48,1.73,1.93.54,2.66-7.17,7.12-14.43,8.74-22C226.3,11.67,225.7,7.54,221.32,6.84Z"/><path class="cls-2" d="M222.89,26.36a14.8,14.8,0,0,0-.92-5.31c-1.17-2.77-3.9-3.39-6.95-3.27a29.27,29.27,0,0,0-4,.4c-6,.81-27.32,3.47-28,3.64-3.28.8-3.8,3.13-3.52,5.9,0,.44,3.38,38.83,3.7,40.87.43,2.78,1.44,5.37,3.93,6s34.64-3.25,36.15-3.54a3.65,3.65,0,0,0,3.15-2.41,4.39,4.39,0,0,0,.36-2.28C226.79,63.92,223.91,30.86,222.89,26.36Z"/><path class="cls-14" d="M216.44,36.55c-3.55-5-10.92-3.78-13.72,1-3.4-4.32-10.88-4.56-13.71.89-2,3.76-1,8.38,1.45,11.66,3.41,4.56,9.34,4.32,12.94,8.3a.81.81,0,0,0,.75.29.78.78,0,0,0,.7-.39c3-4.43,9-5,11.72-10C218.56,44.72,218.88,40,216.44,36.55Z"/><path class="cls-15" d="M197.35,48.19,200,48a1,1,0,0,0,.87-.66l1.68-4.79h-1.74l2.67,9.84a.91.91,0,0,0,1.74,0l2.3-5.5-.87.66,2.66-.18c1.15-.08,1.16-1.88,0-1.8l-2.66.18a.94.94,0,0,0-.86.66l-2.31,5.5h1.74l-2.67-9.84a.91.91,0,0,0-1.74,0l-1.68,4.79.87-.66-2.66.18c-1.15.07-1.16,1.88,0,1.8Z"/><path class="cls-7" d="M116.83,38.08c-8.88-10.63-8.37-9.37-17.08-19.77a5.42,5.42,0,0,0-3.17-2.47c-1.81-.28-3.11,1.2-4.34,2.49h0C80.94,29,70.52,39.05,59.23,49.69a1.23,1.23,0,0,0-.31.19,8.47,8.47,0,0,0-1.62,1.6,3,3,0,0,0-.65,2.77,4.58,4.58,0,0,0,.66,1.26,1.86,1.86,0,0,0,.1.2l.36.43c.17.22.34.43.49.65a.88.88,0,0,0,.15.12c8.53,10.28,9.52,12.58,18.64,23.53a6.87,6.87,0,0,0,1.53,1.47,2.47,2.47,0,0,0,2.63.3,10.83,10.83,0,0,0,2.4-2,1.2,1.2,0,0,0,.16-.27q16-16.45,32-32.95a1.59,1.59,0,0,0,.18-.27h0c.28-.26.56-.53.82-.82a6.08,6.08,0,0,0,1.62-2.32,4.39,4.39,0,0,0,.34-.94C119.05,41.05,118,39.34,116.83,38.08Z"/><path class="cls-7" d="M104.12,70.38c-1.94-5.74-11.4-4.4-15.34-1.91-3.34,2.11-8.12,4.45-10.86,7.41a3.48,3.48,0,0,0-1,1.78,1.2,1.2,0,0,0-.38,1.46,5.92,5.92,0,0,0,4.4,3.7,41.71,41.71,0,0,0,4.92.2l2.8.21a19.34,19.34,0,0,0,5.22-.32,7.34,7.34,0,0,0,3.67-2.42c2.44-2.6,4.88-5.54,7.07-8.36A1.11,1.11,0,0,0,104.12,70.38Z"/><path class="cls-9" d="M94.8,81.18a2.12,2.12,0,0,1-1.09-.37,5,5,0,0,1-1.19-1l-.29-.29c-5.13-5.33-8-8.55-10.73-11.66-2.59-2.93-5.27-6-9.83-10.72l0-.06L71.51,57h0L71,56.45l-.37-.38a.41.41,0,0,0-.07-.11,4,4,0,0,1-.64-1,1.66,1.66,0,0,1,.33-1.71,5.1,5.1,0,0,1,1.07-1.11l.31-.27.22-.12.11-.1c5.6-5.4,11.07-10.73,16.36-15.89,4.89-4.76,9.78-9.53,14.86-14.44l.21-.22c.92-1,1.8-1.94,2.89-1.94a1.51,1.51,0,0,1,.3,0,4.93,4.93,0,0,1,2.75,2c4.76,4.92,7,7.13,9.23,9.27,2.36,2.29,4.58,4.45,9.55,9.6,1.39,1.33,2.1,2.58,2,3.47a2.11,2.11,0,0,1-.21.63l0,.07,0,.08a4.27,4.27,0,0,1-1.22,1.8,9.23,9.23,0,0,1-.75.77l-.12.12-.14.26Q112.66,63.06,97.58,79l-.1.11-.1.18-.5.51A5.24,5.24,0,0,1,95.43,81a1.34,1.34,0,0,1-.63.16Z"/><path class="cls-14" d="M106.28,20.15h.16c.32,0,1,.32,2.13,1.64l0,.06,0,.05c4.72,4.87,7,7.09,9.21,9.24s4.56,4.43,9.52,9.57l0,0,0,0c1.4,1.34,1.68,2.26,1.63,2.57a1.17,1.17,0,0,1-.13.37l-.06.14,0,.15a3.44,3.44,0,0,1-1,1.36l0,.05,0,0c-.18.19-.38.4-.65.66l0,0,0,0-.21.21-.1.21q-15,15.86-29.93,31.7l-.2.22-.09.17-.4.41a4.81,4.81,0,0,1-1.16,1,.4.4,0,0,1-.2,0,1.21,1.21,0,0,1-.57-.21l-.06,0-.07,0a4.54,4.54,0,0,1-.87-.76L93,78.85c-5.12-5.32-8-8.53-10.7-11.64-2.6-2.93-5.28-6-9.86-10.75l-.09-.1-.12-.09,0,0-.42-.47,0,0,0,0-.14-.14-.13-.14,0-.07,0-.07,0-.06a2.57,2.57,0,0,1-.44-.68c0-.11-.12-.29.21-.75l0-.06,0-.06a4.29,4.29,0,0,1,.83-.82l.23-.2h0l.24-.13.21-.19C78.25,47,83.72,41.64,89,36.49c4.82-4.7,9.79-9.55,14.88-14.46l0,0,0,0,.16-.18c.78-.83,1.5-1.62,2.16-1.62m0-2c-1.61,0-2.73,1.3-3.79,2.44h0C91.8,30.91,82,40.63,71.27,50.92a1.17,1.17,0,0,0-.3.19,7.25,7.25,0,0,0-1.53,1.55A2.65,2.65,0,0,0,69,55.31a4.45,4.45,0,0,0,.75,1.21,1.08,1.08,0,0,0,.11.18l.4.42c.19.21.37.41.54.62a1.53,1.53,0,0,0,.16.11c9.38,9.79,10.55,12,20.58,22.41a7.57,7.57,0,0,0,1.65,1.4,3.06,3.06,0,0,0,1.62.51,2.36,2.36,0,0,0,1.07-.25,9.34,9.34,0,0,0,2.28-2,.73.73,0,0,0,.15-.25q15-15.91,30.07-31.85a1,1,0,0,0,.16-.26h0c.27-.26.53-.52.77-.79a5.18,5.18,0,0,0,1.47-2.25,3.32,3.32,0,0,0,.29-.89c.23-1.49-1-3.11-2.23-4.32-9.76-10.12-9.15-8.91-18.73-18.81a5.92,5.92,0,0,0-3.39-2.34,3.11,3.11,0,0,0-.43,0Z"/><path class="cls-16" d="M69.74,56.52A4.45,4.45,0,0,1,69,55.31a2.65,2.65,0,0,1,.45-2.65A7.25,7.25,0,0,1,71,51.11a1.17,1.17,0,0,1,.3-.19C82,40.63,91.8,30.91,102.49,20.59h0c1.15-1.24,2.37-2.67,4.22-2.41L96.58,15.84c-1.81-.28-3.11,1.2-4.34,2.49h0C80.94,29,70.52,39.05,59.23,49.69a1.23,1.23,0,0,0-.31.19,8.47,8.47,0,0,0-1.62,1.6,3,3,0,0,0-.65,2.77Z"/><path class="cls-14" d="M100.51,62.35c0-3.94-.14-3.58-.16-7.43a1.51,1.51,0,0,0-.27-1.14,1.9,1.9,0,0,0-1.54-.37h0c-4.83-.11-9.33-.17-14.16-.29l-.11,0a2.41,2.41,0,0,0-.71,0,.85.85,0,0,0-.71.43,1,1,0,0,0-.09.38.14.14,0,0,0,0,.06v.17a1.62,1.62,0,0,1,0,.22s0,0,0,.06c0,3.79-.22,4.46-.21,8.51a2,2,0,0,0,.07.6.83.83,0,0,0,.57.59,3.65,3.65,0,0,0,1,.07l.09,0,14.24-.24.09,0h.36a1.93,1.93,0,0,0,.85-.15,1.11,1.11,0,0,0,.27-.12A1.41,1.41,0,0,0,100.51,62.35Z"/><path class="cls-2" d="M104.66,52.06c4.26-.55,3.87-.65,8-1.21a1.64,1.64,0,0,0,1.21-.47,2.48,2.48,0,0,0,.33-1.86h0c-.11-5.69-.26-11-.36-16.69a.59.59,0,0,0,0-.13,3.8,3.8,0,0,0,0-.83.93.93,0,0,0-.5-.78,1,1,0,0,0-.43-.05.07.07,0,0,0-.06,0l-.18,0-.24,0-.06,0c-4.11.52-4.84.35-9.22.91a2.23,2.23,0,0,0-.65.17,1.08,1.08,0,0,0-.61.75,4.58,4.58,0,0,0,0,1.17.43.43,0,0,0,0,.11q.47,8.34.94,16.7a.45.45,0,0,0,0,.11h0a3,3,0,0,0,0,.42,2.32,2.32,0,0,0,.19,1,1.09,1.09,0,0,0,1.56.65Z"/><path class="cls-3" d="M101.73,31.53a.91.91,0,0,0-.58.3,5.35,5.35,0,0,0-3.85,3c-1.57,3.18-.06,7.49,3.27,8.71,3.08,1.13,7.18-1.76,8-5C109.55,34.34,105.4,31,101.73,31.53Z"/><path class="cls-9" d="M77.91,39.55a3.15,3.15,0,0,0-.9-1,1.24,1.24,0,0,0-1.71.33,1.07,1.07,0,0,0-.19.49,5.86,5.86,0,0,0-2.75,2.56,1.28,1.28,0,0,0-1.21.22A1.25,1.25,0,0,0,71,43.85,2.26,2.26,0,0,0,72.72,45a2.71,2.71,0,0,0,1.54-.52,7.87,7.87,0,0,0,3.11-2.47,5.7,5.7,0,0,0,.46-.67,1.84,1.84,0,0,0,.26-1.33A1,1,0,0,0,77.91,39.55Z"/><path class="cls-7" d="M75.15,37.66c-2.32-.14-4.37,2.46-4.79,4.51a1.25,1.25,0,0,0,1.13,1.33.77.77,0,0,0,.27,0h.09a.79.79,0,0,0,.22-.06c1.94-.51,4.5-2.48,4.7-4.51A1.2,1.2,0,0,0,75.15,37.66Z"/><path class="cls-9" d="M92,25.31a3.36,3.36,0,0,0-.9-1,1.25,1.25,0,0,0-1.71.33,1.07,1.07,0,0,0-.19.49,5.77,5.77,0,0,0-2.75,2.56,1.3,1.3,0,0,0-1.21.22,1.26,1.26,0,0,0-.12,1.75,2.24,2.24,0,0,0,1.68,1.18,2.67,2.67,0,0,0,1.55-.52,7.84,7.84,0,0,0,3.11-2.46,6.78,6.78,0,0,0,.46-.68,1.82,1.82,0,0,0,.26-1.32A1.15,1.15,0,0,0,92,25.31Z"/><path class="cls-7" d="M89.27,23.43c-2.33-.15-4.37,2.46-4.79,4.51a1.24,1.24,0,0,0,1.13,1.33,1.18,1.18,0,0,0,.27,0H86l.22-.07c1.94-.5,4.5-2.48,4.7-4.51A1.19,1.19,0,0,0,89.27,23.43Z"/><path class="cls-14" d="M88.74,24.82c-4-2.55-9.89-3.66-14.41.9S70.14,36.51,72,40.79a1.3,1.3,0,0,0,1.07.79,1.5,1.5,0,0,0,.47,0,2,2,0,0,0,1.21-.76A1.46,1.46,0,0,0,75,39.33c-.84-1.93-2.43-6.85,1-11,3.89-4.73,9.32-1.83,10.89-.82a1.46,1.46,0,0,0,1.5,0,1.86,1.86,0,0,0,1-1.52A1.31,1.31,0,0,0,88.74,24.82Zm-.33.52Z"/><path class="cls-6" d="M221.32,6.84c-4.72-.76-7.68,3-9.6,6.68-1.77,3.4-4.95,7.66-4.94,11.7a6.72,6.72,0,0,0,1.49,4.37,3.89,3.89,0,0,0,4.6.83,6.24,6.24,0,0,0,2.42-2.69c.79-1.46,2.49-5.54,2.68-6.11.5-1.41.78-3-.76-3.9a2.36,2.36,0,0,0-2.41-.11c-1.3.54-1.83,2.85-2.3,4s1.45,1.71,1.92.53c.16-.37.28-.75.42-1.12a6.71,6.71,0,0,1,.4-1,.57.57,0,1,1,1.08.34,17.74,17.74,0,0,1-.71,2A39.51,39.51,0,0,1,213,27.6a2.05,2.05,0,0,1-3.4.48,2.91,2.91,0,0,1-.8-2.35c0-2.31,1.44-5.19,2.76-7.63l-.54.08.54-.08c.61-1.12,1.19-2.14,1.6-3,.87-1.78,1.75-3.67,3.37-4.9,3.76-2.88,8-.06,7.06,4.61a40.48,40.48,0,0,1-1.78,5.92c0,.1.12.19.17.3a11.6,11.6,0,0,1,.71,2.77,46.93,46.93,0,0,0,2.82-8.46C226.3,11.67,225.7,7.54,221.32,6.84Z"/><path class="cls-6" d="M214.76,17.79H215c.36,0,.7,0,1,0l-.16-.05A1.77,1.77,0,0,0,214.76,17.79Z"/><path class="cls-5" d="M280.12,24a6.15,6.15,0,0,0,2.39,3.41,5.85,5.85,0,0,0,7.77-1.44c1.66-2.47,0-6.71-2.64-8.08a5.35,5.35,0,0,0-7.44,3.22A5.66,5.66,0,0,0,280.12,24Z"/><path class="cls-17" d="M311.24,12c-.54,0-1.07,0-1.6,0h-.19c-1.78,0-3.55.19-5.31.32-.95,0-1.88.06-2.82.14l-.89,0a.92.92,0,0,0-.82.48s0,0,0,0a1,1,0,0,0,.66,1.44.91.91,0,0,0,.5.06l.47,0c1,0,9.71-.49,9.71-.49h.31A1,1,0,0,0,311.24,12Z"/><path class="cls-17" d="M310.46,13.56c-.79,3.48-1.67,18-1.53,21.77,0,1.28,2,1.29,2,0-.13-3.31.6-17.46,1.46-21.24C312.68,12.84,310.75,12.3,310.46,13.56Z"/><path class="cls-5" d="M300.67,11.37a1.59,1.59,0,0,0-.28-.34,1.55,1.55,0,0,0-.3-.33c-1.31-1.14-4-.48-4.93.94a.23.23,0,0,0,0,.24.23.23,0,0,0,.05.15,21.15,21.15,0,0,0,1.57,2.15A19.78,19.78,0,0,0,298.67,16a.2.2,0,0,0,.14.06.22.22,0,0,0,.24,0C300.58,15.45,301.61,12.83,300.67,11.37Z"/><path class="cls-18" d="M299,13.81a6.75,6.75,0,0,0-1-1.22A7.16,7.16,0,0,0,297,11.44c-4.67-4-14.4-1.72-17.52,3.34a.83.83,0,0,0-.05.84,1,1,0,0,0,.16.54,73.62,73.62,0,0,0,5.57,7.64,74.18,74.18,0,0,0,6.78,6.59,1,1,0,0,0,.52.23.78.78,0,0,0,.83.06C298.69,28.3,302.36,19,299,13.81Z"/><path class="cls-1" d="M333.25,46.31c-1.45-3.48-2.73-7-3.87-10.61-1-2.65-1.84-5.34-2.59-8.07q-.8-2.47-1.38-5a1.26,1.26,0,0,0-.68-.51,1.14,1.14,0,0,0-.61,0s-.06,0-.09,0l-.23.1-.33.12s0,0-.06.06c-5.3,2.38-18.48,6.92-24.11,9.49a1.87,1.87,0,0,0-.79.53,1.84,1.84,0,0,0-.41,1.6,11.71,11.71,0,0,0,.62,2.15,1.11,1.11,0,0,0,.09.19q5.31,15.19,10.63,30.39c0,.08.06.13.09.2h0c.08.26.16.52.26.76a5.62,5.62,0,0,0,.82,1.74,2.34,2.34,0,0,0,.35.5,1.63,1.63,0,0,0,2.13.15c5.48-2.5,17.73-8.78,23.08-11.25a1.94,1.94,0,0,0,1.4-1.29,3.51,3.51,0,0,0,0-1.73A89.63,89.63,0,0,1,333.25,46.31Z"/><path class="cls-5" d="M275.79,20.38c-3.06-.56-3.05-.75-6.1-1.44a1,1,0,0,0-.4,2c3,.69,3,.87,6.09,1.44A1,1,0,0,0,275.79,20.38Z"/><path class="cls-5" d="M277.53,28.29c-2.56,1.77-2.68,1.63-5.32,3.3a1,1,0,0,0,1.09,1.67c2.64-1.67,2.76-1.53,5.33-3.29C279.69,29.24,278.6,27.56,277.53,28.29Z"/><path class="cls-5" d="M284.6,32.05c-.57,3.06-.75,3-1.44,6.09a1,1,0,0,0,2,.41c.69-3,.87-3,1.44-6.09A1,1,0,0,0,284.6,32.05Z"/><path class="cls-5" d="M358,37.37c-5.37-2.2-7.77,4.89-8.86,8.81-2.1,7.56-2.68,15.41-5.29,22.87-2,5.63-4.87,10.76-9.8,14.27-4.27,3.05-10.43,6.58-15.81,4.66-9.12-3.26-9.44-17.12-5.14-24.14.67-1.1-1.05-2.11-1.73-1-3.84,6.27-4.05,15.35-.17,21.68,4.91,8,13.79,6.53,20.88,2.44,9.78-5.64,13.69-15.28,16.07-25.9.9-4,2.77-24.43,9.32-21.75C358.66,39.78,359.18,37.85,358,37.37Z"/><path class="cls-5" d="M311.24,11.16c-2.73,0-2.73,4.24,0,4.24S314,11.16,311.24,11.16Z"/><path class="cls-6" d="M336.56,47.76q-2.18-5.22-3.88-10.61c-1-2.65-1.84-5.33-2.59-8.06-.52-1.66-1-3.34-1.38-5a1.24,1.24,0,0,0-.68-.5,1.15,1.15,0,0,0-.61,0,.27.27,0,0,0-.09,0l-.23.11-.32.11s0,0-.07.06c-5.29,2.38-18.47,6.93-24.11,9.49a1.9,1.9,0,0,0-.79.54,1.85,1.85,0,0,0-.41,1.59,13.23,13.23,0,0,0,.62,2.15.84.84,0,0,0,.09.19l10.63,30.4c0,.07.07.13.1.19h0c.08.26.17.52.26.77a6.1,6.1,0,0,0,.82,1.74,3.75,3.75,0,0,0,.36.5,1.64,1.64,0,0,0,2.12.15c5.48-2.5,17.73-8.79,23.09-11.25A1.91,1.91,0,0,0,340.88,59a3.43,3.43,0,0,0,0-1.74A86.73,86.73,0,0,1,336.56,47.76Z"/><path class="cls-1" d="M340.42,49.07c-1.45-3.48-2.73-7-3.87-10.61-1-2.65-1.85-5.33-2.6-8.06q-.78-2.49-1.37-5a1.28,1.28,0,0,0-.68-.5,1.24,1.24,0,0,0-.61,0h-.1L331,25a2.19,2.19,0,0,1-.33.12s0,0-.06.06c-5.3,2.38-18.48,6.93-24.12,9.49a2.12,2.12,0,0,0-.79.53,1.89,1.89,0,0,0-.4,1.6,12.52,12.52,0,0,0,.61,2.15.85.85,0,0,0,.1.19q5.31,15.2,10.63,30.39a.93.93,0,0,0,.09.2h0c.08.26.17.52.26.77a6.38,6.38,0,0,0,.82,1.74,3.75,3.75,0,0,0,.36.5,1.66,1.66,0,0,0,2.13.15c5.47-2.5,17.72-8.79,23.08-11.25a1.93,1.93,0,0,0,1.39-1.29,3.54,3.54,0,0,0,0-1.74A87.67,87.67,0,0,1,340.42,49.07Z"/><path class="cls-6" d="M335.78,56c-2.85,1.23,1-.39-1.91.81-1.18.49-.25,2.26.93,1.77,2.86-1.2-.94.42,1.9-.81C337.88,57.28,337,55.51,335.78,56Z"/><path class="cls-6" d="M323.68,43.43c-2.77,1.42-5.79,2.55-8.63,3.86a1,1,0,0,0,.87,1.8c2.84-1.31,5.86-2.44,8.63-3.86C325.69,44.65,324.83,42.84,323.68,43.43Z"/><path class="cls-6" d="M329.12,50.7c-4.06,1.64-5.34,1.93-12.06,5.12a1,1,0,0,0,.82,1.83c7.14-3.16,8-3.48,12.05-5.13C331.13,52,330.31,50.21,329.12,50.7Z"/><path class="cls-6" d="M330.15,58.85c-4.76,2.08-5.72,2.55-9.57,4.43a1,1,0,0,0,.84,1.82c7.1-3.24,4.95-2.32,9.57-4.43A1,1,0,0,0,330.15,58.85Z"/><path class="cls-6" d="M322.09,39.78A73.27,73.27,0,0,0,314,43.55a1,1,0,0,0,.84,1.81c7.09-3.26,4.12-2.06,8.15-3.77C324.12,41.09,323.28,39.28,322.09,39.78Z"/><path class="cls-6" d="M329,32.58C323.51,35,318,37.49,312.54,40a1,1,0,0,0,.82,1.82q8.22-3.72,16.45-7.38A1,1,0,0,0,329,32.58Z"/><path class="cls-6" d="M335.47,51.8c-5.48,2.45-11,4.9-16.45,7.39a1,1,0,0,0,.82,1.82c5.48-2.48,11-4.93,16.45-7.39A1,1,0,0,0,335.47,51.8Z"/><path class="cls-5" d="M361.49,40.67c.65.6.74.72,2,2,.91.91,2.31-.54,1.39-1.44s-1.45-1.52-2-2C361.9,38.39,360.55,39.79,361.49,40.67Z"/><path class="cls-5" d="M358.93,43.14c.59.66.67.79,1.85,2.19.83,1,2.35-.33,1.51-1.31s-1.31-1.64-1.85-2.19C359.54,40.91,358.07,42.18,358.93,43.14Z"/><path class="cls-19" d="M357.59,36.85a2.48,2.48,0,0,0-.49.41,2.66,2.66,0,0,0-.45.44c-1.59,1.91-.57,5.81,1.5,7a.34.34,0,0,0,.34,0,.35.35,0,0,0,.21-.07,28.8,28.8,0,0,0,3-2.31,29.77,29.77,0,0,0,2.59-2.78.39.39,0,0,0,.09-.21.32.32,0,0,0,0-.34C363.42,36.85,359.64,35.46,357.59,36.85Z"/><path class="cls-4" d="M371.18,115.28v0a10.3,10.3,0,0,1-.56-2.62.6.6,0,0,0-1.07-.39,5.4,5.4,0,0,0-.9.67,4.37,4.37,0,0,1-.18-1.29.6.6,0,0,0-1.07-.39,9.27,9.27,0,0,0-1.47,1.18,6.21,6.21,0,0,1-.36-1.9.6.6,0,0,0-1.07-.39,8.69,8.69,0,0,0-1.43,1.15,6.18,6.18,0,0,1-.35-1.84.59.59,0,0,0-1.06-.39,8.33,8.33,0,0,0-1.43,1.14,5.88,5.88,0,0,1-.35-1.84.6.6,0,0,0-1.07-.39,9.69,9.69,0,0,0-1.5,1.21,6.25,6.25,0,0,1-.38-2,.6.6,0,0,0-1.07-.39,9,9,0,0,0-1.41,1.12,5.63,5.63,0,0,1-.34-1.81.6.6,0,0,0-1.06-.39,8.84,8.84,0,0,0-1.47,1.18,6.16,6.16,0,0,1-.37-1.89.6.6,0,0,0-1.06-.39,8.33,8.33,0,0,0-1.43,1.14,5.82,5.82,0,0,1-.35-1.84.6.6,0,0,0-1.07-.39,9.17,9.17,0,0,0-1.43,1.14,5.81,5.81,0,0,1-.34-1.84.6.6,0,0,0-1.07-.39,9.27,9.27,0,0,0-1.51,1.22,6.31,6.31,0,0,1-.38-2,.6.6,0,0,0-1.06-.39,16,16,0,0,0-1.92,1.56l-.16.13-.06,0a.45.45,0,0,0-.11.13.94.94,0,0,0-.1.1c-.45,2-1,3.92-1.6,5.84q-1.31,4.75-3,9.35-2,6.24-4.49,12.31c-1.32,3.18-2.74,6.54-4.29,9.78-.65,1.36-1.43,2-1.27,2.71a10.58,10.58,0,0,1,.31,2.67.6.6,0,0,0,1,.49,7.29,7.29,0,0,0,1.33-.84l.27.12a5.38,5.38,0,0,1,.12,1.6.6.6,0,0,0,1,.49,7.73,7.73,0,0,0,1.38-.89l.25.12a5.45,5.45,0,0,1,.12,1.66.61.61,0,0,0,1,.49,8.56,8.56,0,0,0,1.4-.9l.17.08a5.62,5.62,0,0,1,.13,1.68.6.6,0,0,0,1,.5,8.37,8.37,0,0,0,1.42-.91l.15.07a5.13,5.13,0,0,1,.13,1.7.6.6,0,0,0,1,.49,8.16,8.16,0,0,0,1.42-.91l.25.12a5.5,5.5,0,0,1,.14,1.71.6.6,0,0,0,1,.49,7.85,7.85,0,0,0,1.42-.92l.12.06a5.21,5.21,0,0,1,.13,1.71.6.6,0,0,0,1,.49,8.29,8.29,0,0,0,1.43-.92l.18.1a5.5,5.5,0,0,1,.14,1.71.6.6,0,0,0,1,.49,8,8,0,0,0,1.44-.92l.13.06a5.61,5.61,0,0,1,.14,1.73.6.6,0,0,0,1,.49,8.07,8.07,0,0,0,1.46-.94l.09,0a5.31,5.31,0,0,1,.15,1.77.61.61,0,0,0,1,.49,8.23,8.23,0,0,0,1.5-1l.14.07a5.66,5.66,0,0,1,.16,1.83.61.61,0,0,0,1,.49,26.72,26.72,0,0,0,2.29-1.52.52.52,0,0,0,.21-.26h0c.56-1.16,2.52-6,2.9-7.08q5.6-16,11.19-32a.76.76,0,0,0,.11-.22,25.44,25.44,0,0,0,1.09-3.37A.92.92,0,0,0,371.18,115.28Z"/><path class="cls-5" d="M341.83,114.12c6.43,2.68,7.14,2.91,13.58,5.56a1.16,1.16,0,0,0,.89-2.14c-6.44-2.65-7.15-2.88-13.58-5.57A1.16,1.16,0,0,0,341.83,114.12Z"/><path class="cls-5" d="M338.67,122.77c6.38,2.79,7.08,3,13.47,5.8a1.16,1.16,0,0,0,.93-2.12c-6.39-2.77-7.09-3-13.47-5.81A1.16,1.16,0,0,0,338.67,122.77Z"/><path class="cls-5" d="M335.51,131.42c6.33,2.91,7,3.17,13.37,6.05a1.16,1.16,0,0,0,1-2.11c-6.34-2.88-7-3.14-13.37-6.05A1.16,1.16,0,0,0,335.51,131.42Z"/><path class="cls-5" d="M332.35,140.07c6.28,3,7,3.3,13.26,6.29a1.16,1.16,0,0,0,1-2.09c-6.29-3-7-3.26-13.26-6.29A1.16,1.16,0,0,0,332.35,140.07Z"/><polyline class="cls-20" points="351.18 146.72 356.84 149.4 360.63 120.69"/><path class="cls-5" d="M360.52,121.7l2,.84a1.16,1.16,0,0,0,.89-2.15l-2-.83A1.16,1.16,0,0,0,360.52,121.7Z"/><path class="cls-5" d="M357.47,130.7c1,.43,1.25.56,2,.87a1.16,1.16,0,0,0,.92-2.13l-2-.86A1.16,1.16,0,0,0,357.47,130.7Z"/><path class="cls-5" d="M354.43,139.71l2,.89a1.16,1.16,0,0,0,1-2.11l-2-.9A1.16,1.16,0,0,0,354.43,139.71Z"/><path class="cls-5" d="M351.38,148.71l1.95.93a1.16,1.16,0,0,0,1-2.1l-1.95-.93A1.16,1.16,0,0,0,351.38,148.71Z"/><path class="cls-2" d="M342.31,167.66a21.44,21.44,0,0,0,8.4,12c8.76,5.46,21.51,3.61,27.33-5s6.84-22.4-6.5-30.06c-11.34-6.53-25.39.85-29,12.92A19.82,19.82,0,0,0,342.31,167.66Z"/><path class="cls-3" d="M369.24,151.25l-9.56-1.79a2.57,2.57,0,0,0-3,2l-3.58,19.14a2.56,2.56,0,0,0,2,3l9.57,1.79a2.56,2.56,0,0,0,3-2l3.58-19.13A2.56,2.56,0,0,0,369.24,151.25Zm-8,21a1,1,0,0,1-1.33-.25.92.92,0,0,1-.15-.72,1,1,0,0,1,.4-.62,1,1,0,0,1,1.33.25,1,1,0,0,1-.25,1.34Zm5.25-2.66-10.82-2,2.76-14.78,10.82,2Z"/><path class="cls-1" d="M238.5,95.83c.09.49,2.47,11.21,3.62,15.59.48,1.83,1.39,1.84,1.77,1.36a76.22,76.22,0,0,0,6.57-9.06c1.32-1.73,2.49-3.56,3.73-5.35,1.7-2.44-.77-4.29-2.25-2-2,3.12-4.11,6.12-6.17,9.18,0-.2,0-.41.07-.61a34.11,34.11,0,0,1,5-11.53,52.14,52.14,0,0,1,8.88-10.6,52.88,52.88,0,0,1,17.78-10.71A35.84,35.84,0,0,1,283,70.68c.37-.07.39-.74-.22-1.41-2.73-2.54-7.46-.6-10.45.59a45.79,45.79,0,0,0-12,7c-1,.79-1.9,1.61-2.79,2.47-.55.44-1.09.9-1.63,1.37-6.76,6-13.52,15.43-11.63,24.94-.24-.92-.54-1.83-.81-2.74-.82-2.76-1.72-5.49-2.55-8.25C240.47,93.17,238,93.2,238.5,95.83Z"/><path class="cls-1" d="M168,98.08c-.82,2.76-1.73,5.49-2.55,8.25-.27.91-.56,1.82-.81,2.74,1.89-9.51-4.86-18.94-11.63-24.94-.53-.47-1.08-.93-1.63-1.37q-1.34-1.29-2.79-2.46a45.82,45.82,0,0,0-12-7.06c-3-1.18-7.71-3.12-10.45-.59-.61.67-.59,1.34-.22,1.41a38.46,38.46,0,0,1,5.47,1.46,53,53,0,0,1,17.78,10.71A52.14,52.14,0,0,1,158,96.83a34.11,34.11,0,0,1,5,11.53c0,.21.05.41.07.61-2.06-3.06-4.2-6.06-6.17-9.18-1.47-2.33-3.94-.48-2.25,2,1.24,1.79,2.41,3.62,3.73,5.35a76.22,76.22,0,0,0,6.57,9.06c.38.48,1.3.47,1.78-1.36,1.14-4.38,3.52-15.1,3.61-15.58C170.89,96.58,168.44,96.56,168,98.08Z"/><path class="cls-1" d="M269.53,127.89c-.16.38-3.45,9-4.67,12.53-.52,1.49.11,1.92.61,1.77a65.7,65.7,0,0,0,8.75-3.28c1.72-.59,3.38-1.33,5.07-2,2.31-.92,1.44-3.35-.66-2.4-2.81,1.26-5.69,2.36-8.54,3.54l.34-.39a28.3,28.3,0,0,1,8.82-5.71,42.83,42.83,0,0,1,11.08-3.28,44,44,0,0,1,17.33.76,29.93,29.93,0,0,1,4.49,1.5c.28.13.61-.33.49-1.08-.73-3-4.92-3.86-7.54-4.41a37.8,37.8,0,0,0-11.62-.63c-1,.1-2.06.24-3.08.42-.59.06-1.18.13-1.76.21-7.49,1-16.55,4.5-19.62,12,.25-.76.47-1.53.7-2.29.7-2.3,1.33-4.62,2-6.92C272.13,127,270.42,125.84,269.53,127.89Z"/><path class="cls-1" d="M139.46,135.06c.7,2.3,1.33,4.62,2,6.92.23.76.45,1.53.7,2.28-3.07-7.49-12.13-10.95-19.62-12-.58-.09-1.17-.15-1.76-.21q-1.53-.27-3.09-.42a38.06,38.06,0,0,0-11.61.62c-2.62.55-6.81,1.39-7.54,4.42-.12.75.2,1.2.49,1.08a30.84,30.84,0,0,1,4.49-1.51,44.15,44.15,0,0,1,17.33-.75A43.46,43.46,0,0,1,132,138.78a28.46,28.46,0,0,1,8.83,5.71l.33.39c-2.85-1.18-5.73-2.28-8.54-3.54-2.1-1-3,1.48-.66,2.4,1.69.67,3.35,1.41,5.07,2a65.19,65.19,0,0,0,8.75,3.28c.5.15,1.13-.28.61-1.77-1.22-3.58-4.51-12.15-4.67-12.53C140.79,132.67,139.08,133.78,139.46,135.06Z"/><path class="cls-1" d="M210,93.3c-1.3,2.07-2.67,4.1-4,6.18-.43.68-.88,1.36-1.29,2,2.18-4.29,2-16.69,1.22-21.2-.6-3.25-3.09-3-3.16,1.06-.06,3.3,1.08,16,.8,19.35,0,.17,0,.34-.07.5-1-2.73-2.15-5.43-3.1-8.2-.7-2.07-3.18-1-2.31,1.23.64,1.6,1.2,3.23,1.92,4.79a53.61,53.61,0,0,0,3.45,8.17c.21.43,1,.56,1.78-.83,1.94-3.31,6.32-11.47,6.5-11.84C212.79,92.53,210.76,92.15,210,93.3Z"/><path class="cls-21" d="M270,185.3a32.93,32.93,0,0,0-9-19.48c-5.48-5.95-13.39-10.74-21.8-11.57a35.15,35.15,0,0,0-25.82-29.75,36.44,36.44,0,0,0-8.27-1.23h-.08a36.36,36.36,0,0,0-8.27,1.23A35.16,35.16,0,0,0,171,154.25c-8.41.83-16.32,5.62-21.8,11.57a32.93,32.93,0,0,0-9,19.48,28,28,0,0,0,.41,7.54,37.63,37.63,0,0,0,4.25,12.24c5.8,10,15.69,14.17,27.93,16.3,6.77,1.17,13.18,1.88,31.68,1.88h1.27c18.5,0,24.92-.71,31.68-1.88,12.24-2.13,22.14-6.28,27.94-16.3a37.36,37.36,0,0,0,4.24-12.24A27.24,27.24,0,0,0,270,185.3Z"/><path class="cls-6" d="M227.9,186.91c-1.33-1-2.9-3-2.85-3.95a2.63,2.63,0,0,0-1.18-2.43,3,3,0,0,0-3-.14,2.85,2.85,0,0,0-1.56,2.4,6.64,6.64,0,0,0,1,3.75c-9.34,4.92-21.76,4.73-30.58-.54a7.14,7.14,0,0,0,.67-4.09,2.93,2.93,0,0,0-3.28-2.5,2.49,2.49,0,0,0-2.23,2.87c.22,1.7-1.2,2.9-3.08,4.3a2.8,2.8,0,0,0-1.13,2.61,2.92,2.92,0,0,0,1.66,2.33,2.51,2.51,0,0,0,1,.2,2.59,2.59,0,0,0,1.56-.54c.46-.34,1-.74,1.56-1.21a36.93,36.93,0,0,0,19.08,5.09,37.34,37.34,0,0,0,18-4.45,13.37,13.37,0,0,0,1.26,1.07,2.75,2.75,0,0,0,1.62.55,2.63,2.63,0,0,0,2.12-1.12A3,3,0,0,0,227.9,186.91Z"/></g></svg>