<svg xmlns="http://www.w3.org/2000/svg" viewBox="0 0 96 96"><defs><style>.cls-1{fill:#ff9300;}.cls-2{fill:#fff;}.cls-3{fill:#ff7f1b;}.cls-4{fill:#ffd799;}</style></defs><title>icon-maintenance</title><g id="Layer_1" data-name="Layer 1"><path class="cls-1" d="M84,85.5h3v-48A7.5,7.5,0,0,0,79.5,30h-63A7.5,7.5,0,0,0,9,37.5v48Z"/><path class="cls-2" d="M16.5,36.75A1.48,1.48,0,0,0,15,38.2V80.3a1.48,1.48,0,0,0,1.5,1.45h63A1.48,1.48,0,0,0,81,80.3V38.2a1.48,1.48,0,0,0-1.5-1.45Z"/><path class="cls-3" d="M91.5,85.5H4.5A1.5,1.5,0,0,0,3,87v1.5A7.5,7.5,0,0,0,10.5,96h75A7.5,7.5,0,0,0,93,88.5V87A1.5,1.5,0,0,0,91.5,85.5Z"/><path class="cls-4" d="M36,30V21H46.5V36h3V21H84a1.5,1.5,0,0,0,1.06-2.56l-12-12a1.4,1.4,0,0,0-.44-.29.39.39,0,0,0-.14-.05A1.23,1.23,0,0,0,72.09,6L72,6H36V1.5A1.5,1.5,0,0,0,34.5,0h-12A1.5,1.5,0,0,0,21,1.5V6H18a1.5,1.5,0,0,0-1.06.44l-12,12A1.5,1.5,0,0,0,6,21H21v9ZM73.5,11.12,80.38,18H73.5ZM70.5,9v6.88L63.62,9Zm-9,2.12L68.38,18H61.5ZM58.5,9v6.88L51.62,9Zm-9,2.12L56.38,18H49.5ZM46.5,9v6.88L39.62,9ZM36,9.62,44.38,18H36ZM21,18H9.62l9-9H21Z"/><path class="cls-4" d="M50.53,47.59l3-3-2.12-2.12L48,45.88,45.62,43.5l3.44-3.44A1.5,1.5,0,0,0,49.5,39V36h-3v2.38l-4.06,4.06a1.49,1.49,0,0,0,0,2.12l3,3-6.71,11h4.39L48,49.66l5.69,8.84h3.7Z"/><path class="cls-1" d="M48,78.6A13.5,13.5,0,1,0,34.5,65.1,13.49,13.49,0,0,0,48,78.6Z"/><circle class="cls-4" cx="48" cy="60.95" r="5.19"/><path class="cls-4" d="M38.23,71a11.43,11.43,0,0,0,19.54,0,.54.54,0,0,0-.11-.26,7.36,7.36,0,0,0-6-2.55H44.37a7.36,7.36,0,0,0-6,2.55.54.54,0,0,0-.11.26Z"/><rect class="cls-1" x="27" y="13.5" width="3" height="3"/></g></svg>