<?xml version="1.0" encoding="utf-8"?>
<!-- Generator: Adobe Illustrator 22.1.0, SVG Export Plug-In . SVG Version: 6.00 Build 0)  -->
<svg version="1.1" id="Layer_1" xmlns="http://www.w3.org/2000/svg" xmlns:xlink="http://www.w3.org/1999/xlink" x="0px" y="0px"
	 viewBox="0 0 20 27" style="enable-background:new 0 0 20 27;" xml:space="preserve">
<title>collect</title>
<desc>Created with Sketch.</desc>
<g id="_xD83D__xDCE6_-components">
	<g id="icons_x2F_apps_x2F_connector-box" transform="translate(-50.000000, -46.000000)">
		<g id="icons_x2F_connect-data-pastille_x2F_box" transform="translate(40.000000, 40.000000)">
			<g id="collect" transform="translate(10.000000, 6.250000)">
				<g id="Combined-Shape">
					<path id="path-1_1_" d="M9.7,13.2c0.1,0.1,0.2,0.1,0.3,0.1c0.1,0,0.2,0,0.3-0.1l6.2-5.8c0.1-0.1,0.1-0.2,0.1-0.3
						c0-0.1,0-0.1,0-0.2c-0.1-0.2-0.2-0.3-0.4-0.3h-3V0.4c0-0.2-0.2-0.4-0.4-0.4H7C6.8,0,6.6,0.2,6.6,0.4v6.2H3.8
						c-0.2,0-0.3,0.1-0.4,0.3c0,0.1,0,0.1,0,0.2c0,0.1,0,0.2,0.1,0.3L9.7,13.2z"/>
				</g>
				<path id="Shape" d="M19.7,11.5l-3.3-1.6l-1.8,1.7l2.9,1.4L10,16.7l-7.5-3.7l2.9-1.4L3.6,9.8l-3.3,1.6C0.1,11.6,0,11.8,0,12v9.3
					c0,0.2,0.1,0.5,0.3,0.6l9.4,4.7c0.1,0,0.2,0.1,0.3,0.1c0.1,0,0.2,0,0.3-0.1l9.4-4.7c0.2-0.1,0.3-0.3,0.3-0.6V12
					C20,11.8,19.9,11.6,19.7,11.5z"/>
			</g>
		</g>
	</g>
</g>
</svg>
