<svg xmlns="http://www.w3.org/2000/svg" viewBox="0 0 48 48"><path fill="#FFF" fill-rule="evenodd" d="M24 48c13.255 0 24-10.745 24-24S37.255 0 24 0 0 10.745 0 24s10.745 24 24 24zm-1.503-34.897c.83-1.438 2.175-1.44 3.007 0l9.992 17.294c.83 1.438.16 2.603-1.504 2.603H14.008c-1.661 0-2.336-1.162-1.504-2.603l9.993-17.294zm.082 5.323A1.334 1.334 0 0 1 23.93 17h.141c.79 0 1.395.633 1.35 1.426l-.365 6.576c-.03.551-.499.998-1.055.998a1.069 1.069 0 0 1-1.055-.998l-.366-6.576zM22.5 29c0-.828.666-1.5 1.5-1.5.828 0 1.5.666 1.5 1.5 0 .828-.666 1.5-1.5 1.5-.828 0-1.5-.666-1.5-1.5z"/></svg>