<svg xmlns="http://www.w3.org/2000/svg" viewBox="0 0 56 56"><path d="M26.3 15.7S26.2 14 28 14s1.8 1.7 1.8 1.7v10.5h10.5s1.8 0 1.8 1.8-1.8 1.8-1.8 1.8H29.7v10.5s0 1.8-1.8 1.8-1.8-1.8-1.8-1.8V29.8H15.8S14 29.8 14 28s1.8-1.7 1.8-1.7h10.5V15.7zM23.5 55.8h-.2c-3.2-.6-6.3-1.7-9.1-3.3-.3-.2-.5-.5-.6-.8-.1-.3 0-.7.1-1 .2-.4.7-.7 1.2-.7.2 0 .5.1.7.2 2.6 1.5 5.4 2.5 8.3 3 .7.1 1.2.8 1.1 1.6-.3.5-.9 1-1.5 1zm9.2 0c-.7 0-1.2-.5-1.3-1.1-.1-.7.4-1.4 1.1-1.6 2.9-.5 5.7-1.5 8.2-3 .2-.1.4-.2.7-.2.5 0 .9.3 1.2.7.2.3.2.7.1 1-.1.3-.3.6-.6.8-2.8 1.6-5.9 2.8-9.1 3.4h-.3zM7.6 46.7c-.4 0-.8-.2-1-.5-2.1-2.5-3.8-5.3-4.9-8.4-.1-.3-.1-.7 0-1 .1-.3.4-.6.8-.7.2-.1.3-.1.5-.1.6 0 1.1.4 1.3.9 1 2.8 2.5 5.3 4.4 7.6.2.3.3.6.3 1s-.2.7-.5.9c-.2.2-.5.3-.9.3zm40.9-.1c-.2 0-.6-.1-.9-.3-.3-.2-.4-.6-.5-.9 0-.4.1-.7.3-1 1.9-2.3 3.4-4.8 4.4-7.6.2-.5.7-.9 1.3-.9.2 0 .3 0 .5.1.3.1.6.4.8.7.2.3.2.7 0 1-1.1 3.1-2.7 5.9-4.8 8.4-.4.3-.7.5-1.1.5zm-47.2-17C.6 29.6 0 29 0 28.3v-.1c0-3.3.6-6.5 1.7-9.6.2-.5.7-.9 1.3-.9.2 0 .3 0 .5.1.7.3 1.1 1 .8 1.7-1 2.8-1.5 5.7-1.5 8.7v.1c-.1.7-.7 1.3-1.5 1.3zm53.4-.1c-.7 0-1.3-.6-1.3-1.3 0-3-.5-5.9-1.5-8.7-.1-.3-.1-.7 0-1 .2-.3.4-.6.8-.7.1-.1.3-.1.5-.1.6 0 1.1.4 1.3.9 1.1 3.1 1.7 6.3 1.7 9.6-.2.7-.8 1.3-1.5 1.3zM7.6 12.4c-.2 0-.6-.1-.9-.3-.6-.5-.6-1.3-.2-1.9 2.1-2.5 4.6-4.6 7.4-6.3.2-.1.4-.2.7-.2.5 0 .9.3 1.2.7.4.6.2 1.5-.5 1.8-2.6 1.5-4.8 3.4-6.7 5.7-.3.3-.6.5-1 .5zm40.8 0c-.4 0-.8-.2-1-.5-1.9-2.3-4.2-4.2-6.7-5.6-.3-.2-.5-.5-.6-.8-.1-.3 0-.7.1-1 .2-.4.7-.7 1.2-.7.2 0 .5.1.7.2 2.8 1.6 5.3 3.7 7.5 6.2.5.6.4 1.4-.2 1.9-.4.2-.7.3-1 .3zM23.3 3.3c-.7 0-1.2-.5-1.3-1.1-.1-.4 0-.7.2-1 .2-.3.5-.5.9-.6C24.7.3 26.3.2 28 .2c1.6 0 3.3.1 4.8.4.4.1.7.3.9.5s.3.6.2 1c-.1.6-.7 1.1-1.3 1.1h-.2c-1.5-.2-2.9-.3-4.4-.3-1.5 0-3 .1-4.4.4h-.3z"/><circle cx="157.7" cy="33.5" r="28" fill="none" stroke="#000" stroke-width="5" stroke-linecap="round" stroke-miterlimit="10" stroke-dasharray="9.7713,9.7713"/></svg>