<?xml version="1.0" encoding="utf-8"?>
<!-- Generator: Adobe Illustrator 22.1.0, SVG Export Plug-In . SVG Version: 6.00 Build 0)  -->
<svg version="1.1" id="Layer_1" xmlns="http://www.w3.org/2000/svg" xmlns:xlink="http://www.w3.org/1999/xlink" x="0px" y="0px"
	 viewBox="0 0 56 56" style="enable-background:new 0 0 56 56;" xml:space="preserve">
<style type="text/css">
	.st0{fill:none;stroke:#000000;stroke-width:5;stroke-linecap:round;stroke-miterlimit:10;stroke-dasharray:9.7713,9.7713;}
</style>
<title>Group</title>
<desc>Created with Sketch.</desc>
<g id="icons_x2F_32_x2F_icon-plus" transform="translate(14.000000, 14.000000)">
	<g id="Mask">
		<path id="path-3_1_" d="M12.3,1.7c0,0-0.1-1.7,1.7-1.7s1.8,1.7,1.8,1.7v10.5h10.5c0,0,1.8,0,1.8,1.8s-1.8,1.8-1.8,1.8H15.7v10.5
			c0,0,0,1.8-1.8,1.8s-1.8-1.8-1.8-1.8V15.8H1.8c0,0-1.8,0-1.8-1.8s1.8-1.7,1.8-1.7h10.5V1.7L12.3,1.7z"/>
	</g>
</g>
<path d="M23.5,55.8c-0.1,0-0.2,0-0.2,0c-3.2-0.6-6.3-1.7-9.1-3.3c-0.3-0.2-0.5-0.5-0.6-0.8c-0.1-0.3,0-0.7,0.1-1
	c0.2-0.4,0.7-0.7,1.2-0.7c0.2,0,0.5,0.1,0.7,0.2c2.6,1.5,5.4,2.5,8.3,3c0.7,0.1,1.2,0.8,1.1,1.6C24.7,55.3,24.1,55.8,23.5,55.8z
	 M32.7,55.8c-0.7,0-1.2-0.5-1.3-1.1c-0.1-0.7,0.4-1.4,1.1-1.6c2.9-0.5,5.7-1.5,8.2-3c0.2-0.1,0.4-0.2,0.7-0.2c0.5,0,0.9,0.3,1.2,0.7
	c0.2,0.3,0.2,0.7,0.1,1c-0.1,0.3-0.3,0.6-0.6,0.8c-2.8,1.6-5.9,2.8-9.1,3.4C32.9,55.8,32.8,55.8,32.7,55.8z M7.6,46.7
	c-0.4,0-0.8-0.2-1-0.5c-2.1-2.5-3.8-5.3-4.9-8.4c-0.1-0.3-0.1-0.7,0-1c0.1-0.3,0.4-0.6,0.8-0.7c0.2-0.1,0.3-0.1,0.5-0.1
	c0.6,0,1.1,0.4,1.3,0.9c1,2.8,2.5,5.3,4.4,7.6c0.2,0.3,0.3,0.6,0.3,1s-0.2,0.7-0.5,0.9C8.3,46.6,8,46.7,7.6,46.7z M48.5,46.6
	c-0.2,0-0.6-0.1-0.9-0.3c-0.3-0.2-0.4-0.6-0.5-0.9c0-0.4,0.1-0.7,0.3-1c1.9-2.3,3.4-4.8,4.4-7.6c0.2-0.5,0.7-0.9,1.3-0.9
	c0.2,0,0.3,0,0.5,0.1c0.3,0.1,0.6,0.4,0.8,0.7c0.2,0.3,0.2,0.7,0,1c-1.1,3.1-2.7,5.9-4.8,8.4C49.2,46.4,48.9,46.6,48.5,46.6z
	 M1.3,29.6C0.6,29.6,0,29,0,28.3v-0.1c0-3.3,0.6-6.5,1.7-9.6c0.2-0.5,0.7-0.9,1.3-0.9c0.2,0,0.3,0,0.5,0.1c0.7,0.3,1.1,1,0.8,1.7
	c-1,2.8-1.5,5.7-1.5,8.7v0.1C2.7,29,2.1,29.6,1.3,29.6z M54.7,29.5c-0.7,0-1.3-0.6-1.3-1.3c0-3-0.5-5.9-1.5-8.7
	c-0.1-0.3-0.1-0.7,0-1c0.2-0.3,0.4-0.6,0.8-0.7c0.1-0.1,0.3-0.1,0.5-0.1c0.6,0,1.1,0.4,1.3,0.9c1.1,3.1,1.7,6.3,1.7,9.6
	C56,28.9,55.4,29.5,54.7,29.5L54.7,29.5z M7.6,12.4c-0.2,0-0.6-0.1-0.9-0.3c-0.6-0.5-0.6-1.3-0.2-1.9c2.1-2.5,4.6-4.6,7.4-6.3
	c0.2-0.1,0.4-0.2,0.7-0.2c0.5,0,0.9,0.3,1.2,0.7c0.4,0.6,0.2,1.5-0.5,1.8c-2.6,1.5-4.8,3.4-6.7,5.7C8.3,12.2,8,12.4,7.6,12.4z
	 M48.4,12.4c-0.4,0-0.8-0.2-1-0.5c-1.9-2.3-4.2-4.2-6.7-5.6c-0.3-0.2-0.5-0.5-0.6-0.8c-0.1-0.3,0-0.7,0.1-1c0.2-0.4,0.7-0.7,1.2-0.7
	c0.2,0,0.5,0.1,0.7,0.2c2.8,1.6,5.3,3.7,7.5,6.2c0.5,0.6,0.4,1.4-0.2,1.9C49,12.3,48.7,12.4,48.4,12.4z M23.3,3.3
	c-0.7,0-1.2-0.5-1.3-1.1c-0.1-0.4,0-0.7,0.2-1c0.2-0.3,0.5-0.5,0.9-0.6c1.6-0.3,3.2-0.4,4.9-0.4c1.6,0,3.3,0.1,4.8,0.4
	c0.4,0.1,0.7,0.3,0.9,0.5s0.3,0.6,0.2,1c-0.1,0.6-0.7,1.1-1.3,1.1c-0.1,0-0.2,0-0.2,0C30.9,3,29.5,2.9,28,2.9c-1.5,0-3,0.1-4.4,0.4
	C23.5,3.3,23.4,3.3,23.3,3.3z"/>
<g>
	<circle class="st0" cx="157.7" cy="33.5" r="28"/>
</g>
</svg>
