<svg width="174" height="59" viewBox="0 0 174 59" xmlns="http://www.w3.org/2000/svg"><title>direct_energie</title><g fill="none" fill-rule="evenodd"><path d="M14.7 29.3c0-8.1 6.5-14.6 14.6-14.6s14.6 6.5 14.6 14.6-6.5 14.6-14.6 14.6c-8 0-14.6-6.5-14.6-14.6zM29.2 0C13.1.1 0 13.2 0 29.3c0 16.2 13.1 29.3 29.3 29.3 16.2 0 29.3-13.1 29.3-29.3C58.6 13.1 45.6 0 29.4 0h-.2z" fill="#FFF"/><path d="M73.4 34c-4.4 0-7.8 3.5-7.8 7.9s3.5 7.9 7.9 7.9c2.4 0 4.9-1 6.3-2.6.3-.3.5-.7.5-1.1 0-.3-.1-.6-.3-.8-.3-.3-.7-.6-1.1-.6-.3 0-.6.1-.8.3-1.2 1.2-2.7 1.9-4.5 1.9-2.5 0-4.4-1.7-4.5-4.1h10.7c.7 0 1.2-.4 1.2-1.1 0-4.3-3.2-7.7-7.6-7.7zm-4.2 6.6c.4-2.2 1.9-3.8 4.3-3.8 2.3 0 3.9 1.6 4.3 3.8h-8.6zM144.5 28.7h1.2c.8 0 1.4-.7 1.4-1.4 0-.8-.6-1.4-1.4-1.4h-.8c-2.4 0-2.9-1.4-2.9-3.4v-6.8h3.7c.8 0 1.4-.7 1.4-1.4 0-.8-.6-1.4-1.4-1.4H142V8.2c0-.9-.8-1.7-1.7-1.7-.9 0-1.7.7-1.7 1.7v14.1c0 3.7 1.8 6.4 5.9 6.4zM103.2 14.3c0-.8-.7-1.5-1.5-1.5-2.4 0-3.9.7-5.3 2.6v-.7c0-.9-.8-1.7-1.7-1.7-.9 0-1.7.8-1.7 1.7v12.2c0 .9.8 1.7 1.7 1.7.9 0 1.7-.8 1.7-1.7v-6.6c0-3 2.6-4.5 5.3-4.5.9 0 1.5-.7 1.5-1.5zM92.5 34c-2 0-3.9 1.1-5 2.6v-.8c0-.9-.8-1.7-1.7-1.7-.9 0-1.7.8-1.7 1.7V48c0 .9.8 1.7 1.7 1.7.9 0 1.7-.7 1.7-1.7v-6.9c0-2.2 1.5-4.2 4-4.2s3.8 1.8 3.8 4.2V48c0 .9.8 1.7 1.7 1.7.9 0 1.7-.7 1.7-1.7v-7c.1-4-2.2-7-6.2-7zM129.8 28.7c2.2 0 4.5-1.1 5.7-2.5.3-.3.5-.7.5-1.1 0-.3-.1-.6-.3-.9-.3-.3-.7-.5-1.1-.5-.3 0-.6.1-.9.3-1 .9-2.2 1.6-3.9 1.6-2.8 0-4.6-2.3-4.6-5s1.8-5 4.6-5c1.1 0 2.2.3 3.3 1.1.3.2.6.3.9.3.4 0 .8-.2 1.1-.6.2-.3.3-.6.3-.9 0-.4-.2-.9-.5-1.2-1.6-1.3-3.2-1.7-5.1-1.7-4.4 0-7.9 3.5-7.9 7.9s3.5 8.2 7.9 8.2zM109.7 34c-4.4 0-7.8 3.5-7.8 7.9s3.5 7.9 7.9 7.9c2.4 0 4.9-1 6.3-2.6.3-.3.5-.7.5-1.1 0-.3-.1-.6-.3-.8-.3-.3-.7-.6-1.1-.6-.3 0-.6.1-.8.3-1.2 1.2-2.7 1.9-4.5 1.9-2.5 0-4.4-1.7-4.5-4.1H116c.7 0 1.2-.4 1.2-1.1.1-4.3-3.2-7.7-7.5-7.7zm-4.3 6.6c.3-2.2 1.9-3.8 4.3-3.8 2.3 0 3.9 1.6 4.3 3.8h-8.6zM153.3 28.7c-1 0-1.9.9-1.9 1.9 0 1 .8 1.9 1.9 1.9 1 0 1.9-.8 1.9-1.9 0-1-.9-1.9-1.9-1.9zM173.9 41.9c0-4.5-3.3-7.9-7.6-7.9-4.4 0-7.8 3.5-7.8 7.9s3.5 7.9 7.9 7.9c2.4 0 4.9-1 6.3-2.6.3-.3.5-.7.5-1.1 0-.3-.1-.6-.3-.8-.3-.3-.7-.6-1.1-.6-.3 0-.6.1-.8.3-1.2 1.2-2.7 1.9-4.5 1.9-2.5 0-4.4-1.7-4.5-4.1h10.7c.6.2 1.2-.2 1.2-.9zM162 40.6c.3-2.2 1.9-3.8 4.3-3.8 2.3 0 3.9 1.6 4.3 3.8H162zM153.3 34.2c-.9 0-1.7.8-1.7 1.7v12.2c0 .9.7 1.7 1.7 1.7.9 0 1.7-.8 1.7-1.7V35.9c0-1-.8-1.7-1.7-1.7zM129.8 34c-2.4 0-3.9.7-5.3 2.6v-.7c0-.9-.8-1.7-1.7-1.7-.9 0-1.7.8-1.7 1.7v12.2c0 .9.8 1.7 1.7 1.7.9 0 1.7-.8 1.7-1.7v-6.6c0-3 2.6-4.5 5.3-4.5.8 0 1.5-.7 1.5-1.5-.1-.8-.7-1.5-1.5-1.5zM111.7 12.8c-4.4 0-7.8 3.5-7.8 7.9s3.5 7.9 7.9 7.9c2.4 0 4.9-1 6.3-2.6.3-.3.5-.7.5-1.1 0-.3-.1-.6-.3-.8-.3-.3-.7-.6-1.1-.6-.3 0-.6.1-.8.3-1.2 1.2-2.7 1.9-4.5 1.9-2.5 0-4.4-1.7-4.5-4.1h10.7c.7 0 1.2-.5 1.2-1.1 0-4.3-3.2-7.7-7.6-7.7zm-4.2 6.6c.3-2.2 1.9-3.7 4.3-3.7 2.3 0 3.9 1.6 4.3 3.7h-8.6zM79.4 4.9c-.9 0-1.7.8-1.7 1.7v7.8c-1.2-.9-2.7-1.4-4.3-1.4-4.3 0-7.8 3.5-7.8 7.8s3.5 7.8 7.8 7.8 7.7-3.4 7.8-7.7V6.6c-.1-1-.8-1.7-1.8-1.7zm-6 20.4c-2.5 0-4.6-2.1-4.6-4.6 0-2.5 2.1-4.6 4.6-4.6 2.5 0 4.6 2.1 4.6 4.6 0 2.6-2.1 4.6-4.6 4.6zM145.7 34.2c-.9 0-1.5.7-1.6 1.5-1.3-.9-2.8-1.5-4.5-1.5-4.3 0-7.8 3.5-7.8 7.8s3.5 7.8 7.8 7.8c1.7 0 3.2-.6 4.5-1.5v.1c0 2.7-1.6 4.7-5 4.7-1.5 0-2.4-.1-3.3-.4-.1 0-.3-.1-.5-.1-.8 0-1.4.6-1.4 1.4 0 .6.4 1.1.9 1.3.9.4 2.8.6 4.3.6 5.4 0 8.2-3.4 8.3-7.8V35.7c0-.8-.8-1.5-1.7-1.5zm-6.2 12.5c-2.6 0-4.7-2.1-4.7-4.7s2.1-4.7 4.7-4.7 4.7 2.1 4.7 4.7-2.1 4.7-4.7 4.7zM87.2 12.9c-.9 0-1.7.8-1.7 1.7v12.2c0 .9.7 1.7 1.7 1.7.9 0 1.7-.8 1.7-1.7V14.6c0-.9-.7-1.7-1.7-1.7zM87.2 11.2c1 0 1.9-.8 1.9-1.9 0-1-.9-1.9-1.9-1.9-1 0-1.9.9-1.9 1.9.1 1.1.9 1.9 1.9 1.9z" fill="#484848"/></g></svg>