<svg width="160" height="48" viewBox="0 0 160 48" xmlns="http://www.w3.org/2000/svg"><title>doctolib</title><path d="M141.527 36.174c-.465 1.277-1.948 4.842-5.64 4.842-3.727 0-6.06-4.856-6.513-5.703l-.014-.026-.1.214c-.356.773-2.747 5.535-7.434 5.535-2.918 0-5.1-4.16-5.515-5.797-.063-.247-.124-.506-.185-.775-.765.992-1.998 2-3.86 2.205-.64.076-.943.697-1.225 1.393-.207.49-1.958 3.2-6.287 3.2-2.654 0-4.537-2.408-5.233-3.274-.04-.05-.08-.103-.12-.155-.535.9-1.19 1.71-1.932 2.434-.79.734-1.637 1.11-2.56 1.11-1.9 0-3.482-.527-4.743-1.562-1.26-1.036-2.297-2.334-3.087-3.897-.08-.154-.157-.31-.234-.47-.693 1.462-3.655 5.924-8.858 5.873-5.455-.036-8.41-5.533-9.002-7.048-.75 1.05-2.02 2.18-4.005 2.398-.64.076-.942.697-1.225 1.393-.207.49-1.957 3.2-6.287 3.2-2.654 0-4.536-2.408-5.233-3.274-.696-.866-1.073-1.826-1.09-2.9-.077-1.015.055-2.07.356-3.18.302-1.092.754-2.108 1.338-3.012.583-.922 1.317-1.656 2.183-2.26.83-.563 1.827-.865 2.956-.865.716 0 1.393.17 2.033.526.64.358 1.072.848 1.26 1.45 1.375.3 2.43.94 3.144 1.9.715.96 1.13 2.072 1.242 3.295.78.092 1.985-.387 2.826-1.394-.004-.125-.005-.25-.002-.374.02-.923.15-1.77.414-2.54.264-.773.565-1.3.904-1.64.338-.32 1.976-3.237 8-1.674 5.797 1.543 4.33 5.93 3.915 6.55-1.017 1.58-3.953-4.8-6.325-1.336-.433.62-2.183 6.1 1.544 7.68 4.292 1.844 7.134-2.692 8.828-12.18.004-.017.007-.026.01-.027.205-1.514.486-3.118.8-4.69-6.672.09-4.33-1.74-4.33-1.74 1.62-.122 3.213-.253 4.783-.402.935-4.225 1.97-7.762 2.163-7.973.376-.414.847-.62 1.45-.62.545 0 1.26.356 2.22.658 4.085 1.28 3.163 3.444 3.163 3.444s-.334 1.39-.826 3.45c1.085-.143 2.04-.275 2.858-.4 1.374-.188 2.22-.3 2.54-.3.603-.02 1.32.074 2.09.3.79.226 1.525.49 2.203.828.677.32 1.242.678 1.675 1.054.433.377.565.734.414 1.073-.113.188-.772.32-2.033.395-1.24.076-2.898.132-4.968.19-1.65.044-3.502.09-5.558.134-1.407 5.905-3.24 13.636-3.308 14.133-.245 1.938-.245 2.954 1.318 3.48 2.24.754 4.235-2.88 4.235-2.88 1.496-3.118 1.776-4.643 2.497-5.352.263-.672.586-1.307.965-1.894.584-.922 1.318-1.656 2.184-2.26.847-.563 1.826-.865 2.955-.865.716 0 1.394.17 2.034.526.64.358 1.073.848 1.26 1.45 1.375.3 2.41.94 3.145 1.9.714.96 1.128 2.072 1.24 3.295.733.086 1.843-.332 2.67-1.218-1.31-8.312-1.6-21.834.268-26.056.546-1.205 1.807-3.99 7.322-3.087 5.158.846 4.65 5.815 4.424 7.095-2.222 12.932-7.605 19.426-8.415 20.725-.17.264-1.375 5.346 1.788 6.965 2.633 1.35 5.998-5.264 6.72-8.146.007-.4.052-.75.13-1.054-.013-.11 0-.15.035-.135.128-.416.38-.6.757-.566.376.094.81.225 1.3.376.488.17.94.34 1.373.546.452.207.847.452 1.223.734.377.282.66.602.866.98.207.375.358.92.47 1.636.114.716.227 1.45.36 2.184.13.734.243 1.412.375 2.014.132.602.32.98.602 1.11.206.095.49.038.884-.17.395-.206.81-.526 1.242-.94.433-.414.885-.922 1.337-1.525.378-.51.727-1.076 1.035-1.713-.11-.413-.215-.877-.32-1.393-.32-1.657-.602-3.615-.79-5.836-.19-2.22-.283-4.593-.245-7.096.02-2.504.207-4.857.527-7.06.34-2.2.847-4.14 1.562-5.778.716-1.656 1.676-2.73 2.843-3.238.376-.188.997-.244 1.826-.207.83.037 1.714.206 2.674.45.96.246 1.882.622 2.785 1.112.884.47 1.562 1.054 1.995 1.694.508.753.79 1.75.866 3.03.076 1.28-.018 2.692-.3 4.273-.283 1.58-.678 3.256-1.205 5.044-.527 1.77-1.13 3.558-1.826 5.346-.698 1.77-1.47 3.482-2.316 5.1-.848 1.62-1.713 3.07-2.58 4.312.02.847.076 1.637.208 2.372.113.658.263 1.26.47 1.844.207.584.49.998.885 1.224.377.244.715.188.98-.132.262-.32.507-.734.714-1.242.208-.51.36-1.073.472-1.676.113-.602.188-1.11.226-1.524-.433-.51-.734-1.017-.885-1.525-.15-.508-.188-.98-.094-1.393.093-.414.32-.753.658-1.035.338-.283.77-.433 1.298-.49.51 0 1.168.113 1.94.34.79.225 1.392.6 1.825 1.11.434.433.735.903.924 1.468.188.565.3 1.13.3 1.675.904.245 1.638.283 2.222.113.583-.168 1.035-.564 1.393-1.222.15-.19.338-.34.526-.452.188-.132.395-.17.583-.113.188.056-1.732 4.235-5.723 3.652 1.073.17-.32 5.59-4.82 5.59-3.524 0-6.324-2.962-7.78-4.86zM56.3 38.607c.472.602 1.262.602 2.354 0s2.09-1.525 2.993-2.805c-.922-.602-1.75-1.393-2.522-2.41-.772-.997-1.374-2.183-1.807-3.52-.98 1.714-1.6 3.408-1.845 5.102-.226 1.675.038 2.9.828 3.633zm47.286 0c.47.602 1.26.602 2.353 0 1.09-.602 2.088-1.525 2.992-2.805-.923-.602-1.77-1.393-2.523-2.41-.772-.997-1.375-2.183-1.808-3.52-.978 1.714-1.6 3.408-1.844 5.102-.226 1.675.037 2.9.828 3.633zm16.34-22.776c.074-1.355.15-2.69.225-4.01.076-1.298.226-2.465.434-3.5.207-1.035.47-1.845.828-2.447.34-.602.772-.885 1.242-.866.753.057 1.26.584 1.525 1.544.262.96.338 2.165.262 3.596-.075 1.43-.32 3.012-.696 4.743-.377 1.73-.772 3.388-1.186 4.988-.62 2.37-2.033 5.29-2.334 5.835-.207-4.857-.377-7.304-.3-9.882zm24.676.245c.076-1.355.15-2.69.245-4.01.094-1.298.245-2.465.47-3.5.227-1.036.528-1.845.923-2.447.395-.603.847-.885 1.393-.866.847.056 1.412.583 1.713 1.543.282.96.376 2.165.282 3.596-.094 1.43-.357 3.012-.772 4.744-.432 1.713-.865 3.388-1.317 4.988-.453 1.6-.96 3.03-1.507 4.292-.546 1.26-.998 2.184-1.337 2.71-.17-4.122-.207-7.81-.094-11.05zm-11.05 4.047c0 1.544-1.204 2.786-2.69 2.786-1.488 0-2.693-1.242-2.693-2.786 0-1.543 1.204-2.786 2.69-2.786 1.488 0 2.693 1.243 2.693 2.786zM6.42 24s-.058.113-.152.34c-.113.225-.226.526-.376.94-.32.81-.716 1.995-.904 3.407-.094.715-.132 1.487-.094 2.315.02.414.057.847.113 1.28.038.226.057.414.094.51.04.15.095.32.152.488.47 1.336 1.882 2.955 3.84 4.405 1.976 1.43 4.404 2.767 7.096 4.066 2.71 1.262 5.76 2.504 9.13 2.994 1.675.225 3.407.282 5.138.037.866-.112 1.713-.3 2.56-.564.848-.244 1.657-.564 2.448-.96 1.58-.77 3.01-1.844 4.178-3.124 1.167-1.28 2.09-2.767 2.767-4.33.338-.79.62-1.58.865-2.41.245-.827.414-1.618.64-2.56l.17-.677.13-.64c.096-.433.21-.847.284-1.28.074-.433.187-.866.262-1.3.076-.43.15-.864.226-1.28.603-3.406.716-6.775.15-9.6-.282-1.41-.714-2.67-1.298-3.782-.3-.546-.64-1.054-.998-1.544-.376-.47-.79-.923-1.242-1.318-1.807-1.638-4.235-2.73-6.664-3.426-2.447-.697-4.875-1.073-7.077-1.28-2.204-.226-4.16-.3-5.8-.358-1.636-.037-2.935-.056-3.82-.037-.885 0-1.355.02-1.355.02h-.34l-.13-.49.3-.15s.433-.226 1.28-.584c.847-.34 2.09-.828 3.727-1.318 1.638-.49 3.652-.98 6.043-1.3C30.155.17 32.922 0 36.028.377c1.544.19 3.18.528 4.857 1.11.414.133.847.32 1.26.49.415.19.848.377 1.262.603.847.432 1.675.978 2.485 1.58.81.62 1.562 1.336 2.26 2.127.676.81 1.297 1.694 1.824 2.635.51.942.942 1.94 1.243 2.956.168.508.28 1.016.413 1.543.113.51.188 1.036.263 1.545.283 2.07.226 4.14 0 6.136-.225 1.996-.64 3.954-1.167 5.855-.132.47-.283.94-.415 1.412-.15.47-.3.94-.47 1.393-.15.47-.34.94-.527 1.393l-.283.696c-.094.225-.188.432-.282.658l-.602 1.337c-.225.47-.45.94-.696 1.393-.49.903-1.054 1.788-1.675 2.635-1.244 1.675-2.73 3.143-4.35 4.367-1.618 1.224-3.37 2.184-5.176 2.936-.452.19-.903.358-1.355.51-.453.168-.924.32-1.375.432-.923.263-1.845.49-2.786.677-1.865.358-3.71.603-5.573.734-3.69.244-7.398.056-10.786-.83-3.387-.865-6.455-2.408-8.92-4.44-1.262-1-2.354-2.166-3.276-3.427-.904-1.28-1.638-2.73-1.92-4.31-.076-.396-.132-.79-.15-1.187-.02-.45-.02-.81.037-1.11.038-.32.076-.62.15-.922.058-.302.114-.603.208-.885.3-1.13.734-2.128 1.243-2.956.998-1.657 2.128-2.617 2.918-3.163.188-.15.377-.262.546-.356.15-.095.282-.17.395-.226.225-.113.32-.17.32-.17l.3-.15.302.282-.113.32zM28.44 11.934c-1.41 7.172-2.804 14.344-4.216 21.515-.452 2.352 4.442-.358 4.743-1.977 1.41-7.172 2.804-14.344 4.216-21.515.452-2.334-4.442.376-4.744 1.976z" fill="#FFF" fill-rule="evenodd"/></svg>