<svg width="297" height="40" viewBox="0 0 297 40" xmlns="http://www.w3.org/2000/svg"><title>google_contacts</title><g fill="#FFF" fill-rule="evenodd"><path d="M36 36.434v.57C36 38.657 34.657 40 32.998 40H5.002C3.344 40 2 38.653 2 37.003v-.574C.924 35.73.298 34.467.466 33.035L2 20h34l1.534 13.036c.17 1.442-.455 2.704-1.534 3.398zM36 3.57v-.573C36 1.347 34.656 0 32.998 0H5.002C3.342 0 2 1.342 2 2.997v.57C.92 4.26.297 5.52.466 6.963L2 20h34l1.534-13.036c.168-1.432-.458-2.696-1.534-3.393zM10 27c0-3 6-5 9-5s9 2 9 5v3H10v-3zm9-9c2.21 0 4-1.79 4-4s-1.79-4-4-4-4 1.79-4 4 1.79 4 4 4zM71.17 31.928c4.154 0 7.285-1.36 9.736-3.914 2.524-2.526 3.307-6.062 3.307-8.923 0-.888-.068-1.702-.204-2.386H71.17v3.814h9.126c-.272 2.146-.99 3.713-2.076 4.803-1.33 1.326-3.406 2.794-7.05 2.794-5.62 0-10.014-4.53-10.014-10.15S65.55 7.812 71.17 7.812c3.028 0 5.245 1.195 6.877 2.727l2.692-2.69C78.454 5.67 75.425 4 71.17 4 63.47 4 57 10.264 57 17.964c0 7.697 6.47 13.964 14.17 13.964zm23.434 0c4.97 0 9.022-3.814 9.022-8.994 0-5.208-4.053-8.99-9.022-8.99-4.98 0-9.032 3.782-9.032 8.99 0 5.18 4.053 8.994 9.032 8.994zm0-3.542c-2.728 0-5.08-2.248-5.08-5.452 0-3.233 2.352-5.444 5.08-5.444 2.72 0 5.07 2.21 5.07 5.444 0 3.204-2.35 5.452-5.07 5.452zm19.683 3.542c4.972 0 9.025-3.814 9.025-8.994 0-5.208-4.053-8.99-9.025-8.99-4.976 0-9.03 3.782-9.03 8.99 0 5.18 4.054 8.994 9.03 8.994zm0-3.542c-2.725 0-5.078-2.248-5.078-5.452 0-3.233 2.352-5.444 5.077-5.444 2.724 0 5.074 2.21 5.074 5.444 0 3.204-2.35 5.452-5.073 5.452zM133.632 40c4.63 0 8.552-2.722 8.552-9.366V14.49h-3.75v1.465h-.136c-.888-1.056-2.59-2.01-4.73-2.01-4.5 0-8.618 3.95-8.618 9.026 0 5.044 4.118 8.958 8.617 8.958 2.14 0 3.843-.954 4.73-2.043h.137v1.294c0 3.442-1.84 5.278-4.802 5.278-2.415 0-3.917-1.734-4.533-3.204l-3.438 1.433c.99 2.387 3.61 5.313 7.97 5.313zm.27-11.614c-2.722 0-5.007-2.28-5.007-5.415 0-3.167 2.285-5.48 5.007-5.48 2.693 0 4.805 2.313 4.805 5.48 0 3.137-2.112 5.416-4.805 5.416zm14.954-23.432h-3.95v26.43h3.95V4.953zm10.83 26.974c4.12 0 6.506-2.517 7.494-3.985l-3.068-2.04c-1.02 1.492-2.416 2.483-4.425 2.483-2.01 0-3.443-.92-4.36-2.725l12.023-4.974-.41-1.02c-.748-2.008-3.033-5.72-7.696-5.72-4.632 0-8.48 3.646-8.48 8.988 0 5.043 3.814 8.994 8.923 8.994zm-5.006-9.264c-.102-3.47 2.69-5.245 4.7-5.245 1.567 0 2.895.782 3.34 1.906l-8.04 3.338zM193.418 24.192l.032.096c-.202 2.322-1.03 4.148-2.48 5.48-1.454 1.33-3.4 1.995-5.838 1.995-2.576 0-4.655-.93-6.234-2.792-1.58-1.86-2.37-4.27-2.37-7.227v-3.77c0-2.947.79-5.356 2.37-7.228 1.58-1.87 3.658-2.807 6.234-2.807 2.46 0 4.41.652 5.853 1.957 1.442 1.304 2.263 3.138 2.465 5.502l-.032.096h-1.78c-.256-1.92-.916-3.388-1.98-4.406-1.067-1.018-2.575-1.526-4.526-1.526-2.025 0-3.65.785-4.875 2.354-1.224 1.57-1.837 3.58-1.837 6.028v3.8c0 2.482.613 4.505 1.837 6.068 1.225 1.564 2.85 2.346 4.875 2.346 1.95 0 3.462-.498 4.533-1.495 1.07-.995 1.728-2.485 1.972-4.468h1.78zm2.483-1.622c0-2.534.695-4.612 2.084-6.234 1.39-1.623 3.23-2.434 5.52-2.434 2.3 0 4.144.81 5.533 2.434 1.39 1.622 2.084 3.7 2.084 6.234v.525c0 2.545-.69 4.625-2.075 6.242-1.383 1.617-3.22 2.426-5.51 2.426-2.312 0-4.162-.81-5.55-2.426-1.39-1.617-2.084-3.697-2.084-6.242v-.525zm1.91.525c0 1.993.503 3.668 1.51 5.026 1.007 1.358 2.412 2.036 4.215 2.036 1.77 0 3.162-.678 4.174-2.035 1.012-1.357 1.518-3.032 1.518-5.025v-.525c0-1.96-.51-3.626-1.527-4.994-1.016-1.368-2.416-2.05-4.197-2.05-1.78 0-3.176.682-4.183 2.05-1.007 1.368-1.51 3.033-1.51 4.994v.525zm18.116-8.875l.174 3.006c.552-1.06 1.297-1.88 2.235-2.457.938-.58 2.05-.868 3.332-.868 1.866 0 3.287.57 4.262 1.71.975 1.14 1.462 2.918 1.462 5.336v10.48h-1.908V20.965c0-1.972-.37-3.367-1.106-4.183-.736-.815-1.783-1.224-3.14-1.224-1.337 0-2.426.353-3.27 1.058-.842.705-1.45 1.64-1.82 2.807v12.01h-1.908V14.22h1.686zm18.577-4.405v4.405h3.785v1.56h-3.785v11.21c0 1.125.204 1.923.612 2.395.41.472.952.708 1.63.708.308 0 .608-.014.9-.04.29-.027.627-.072 1.01-.135l.285 1.415c-.318.138-.705.244-1.16.318-.457.075-.913.113-1.368.113-1.21 0-2.15-.382-2.823-1.146-.675-.763-1.01-1.972-1.01-3.626V15.78h-2.975v-1.56h2.974V9.815h1.923zm17.862 21.614c-.127-.585-.217-1.088-.27-1.512-.053-.424-.08-.854-.08-1.29-.636.903-1.484 1.65-2.545 2.244-1.06.594-2.253.89-3.578.89-1.675 0-2.977-.445-3.904-1.335-.928-.89-1.392-2.084-1.392-3.58 0-1.59.686-2.862 2.06-3.816 1.373-.953 3.225-1.43 5.558-1.43h3.8v-2.13c0-1.23-.394-2.196-1.184-2.896-.79-.7-1.895-1.05-3.316-1.05-1.325 0-2.425.335-3.3 1.003-.875.667-1.312 1.484-1.312 2.45l-1.75-.017-.03-.096c-.065-1.283.52-2.43 1.756-3.443 1.235-1.01 2.807-1.518 4.716-1.518 1.898 0 3.424.483 4.58 1.448 1.156.964 1.734 2.348 1.734 4.15v8.46c0 .606.034 1.194.103 1.767.07.572.184 1.14.343 1.702h-1.988zm-6.25-1.353c1.367 0 2.576-.32 3.626-.962 1.05-.642 1.81-1.46 2.275-2.458v-3.594h-3.833c-1.728 0-3.11.368-4.143 1.105-1.035.737-1.55 1.652-1.55 2.744 0 .933.32 1.694.96 2.282.642.59 1.53.883 2.665.883zm18.386.08c1.263 0 2.376-.36 3.34-1.082.966-.72 1.45-1.723 1.45-3.006h1.684l.032.094c.053 1.59-.583 2.92-1.908 3.992-1.326 1.07-2.858 1.607-4.597 1.607-2.342 0-4.152-.804-5.43-2.41-1.277-1.606-1.916-3.67-1.916-6.195v-.667c0-2.502.64-4.56 1.924-6.17 1.283-1.612 3.085-2.418 5.407-2.418 1.888 0 3.46.557 4.716 1.67 1.257 1.114 1.864 2.577 1.822 4.39l-.032.095h-1.7c0-1.378-.465-2.478-1.393-3.3-.928-.822-2.065-1.232-3.412-1.232-1.844 0-3.21.66-4.095 1.98-.885 1.32-1.328 2.982-1.328 4.986v.668c0 2.036.44 3.71 1.32 5.026.88 1.315 2.253 1.972 4.12 1.972zm12.63-20.342v4.405h3.786v1.56h-3.785v11.21c0 1.125.205 1.923.613 2.395.408.472.952.708 1.63.708.308 0 .607-.014.9-.04.29-.027.627-.072 1.01-.135l.285 1.415c-.318.138-.705.244-1.16.318-.457.075-.913.113-1.37.113-1.207 0-2.148-.382-2.822-1.146-.673-.763-1.01-1.972-1.01-3.626V15.78h-2.974v-1.56h2.974V9.815h1.925zm17.274 17.24c0-.806-.33-1.51-.994-2.115-.662-.605-1.858-1.098-3.586-1.48-2.057-.445-3.576-1.033-4.557-1.765-.98-.73-1.47-1.765-1.47-3.1 0-1.316.553-2.426 1.66-3.333 1.11-.906 2.575-1.36 4.4-1.36 1.94 0 3.476.48 4.61 1.44 1.135.96 1.676 2.16 1.623 3.602l-.032.095h-1.765c0-.944-.4-1.766-1.2-2.466-.8-.7-1.88-1.05-3.237-1.05-1.39 0-2.43.3-3.125.9-.694.598-1.04 1.3-1.04 2.106 0 .796.298 1.453.897 1.973.6.52 1.795.975 3.587 1.367 2.046.456 3.578 1.08 4.596 1.87 1.018.79 1.527 1.862 1.527 3.22 0 1.43-.58 2.59-1.742 3.475-1.16.885-2.695 1.328-4.604 1.328-2.088 0-3.728-.5-4.92-1.495-1.194-.997-1.76-2.185-1.695-3.563l.032-.095h1.75c.074 1.24.58 2.14 1.518 2.703.94.562 2.044.843 3.316.843 1.38 0 2.466-.302 3.26-.906.797-.605 1.194-1.336 1.194-2.195z"/></g></svg>