<svg xmlns="http://www.w3.org/2000/svg" width="79" height="32" viewBox="0 0 79 32">
  <path fill="#FFFFFF" fill-rule="evenodd" d="M0,1.99631511 C0,1.44606547 0.443716645,1 0.999807492,1 L4.00019251,1 C4.55237094,1 5,1.43822575 5,1.99631511 L5,31.0036849 C5,31.5539345 4.55628335,32 4.00019251,32 L0.999807492,32 C0.447629061,32 0,31.5617743 0,31.0036849 L0,1.99631511 Z M24.0780955,2.21566632 C22.5921487,1.1542758 20.8910317,0.5 19,0.5 C14.4737575,0.5 10.5,4.25299318 10.5,9 C10.5,14.0258807 13.1566795,17.5 18,17.5 C20.9571919,17.5 23,19.0987194 23,22 C23,25.1746032 21.0833333,27 18.5,27 C17.6320798,27 16.6961758,26.5773336 15.7767681,25.8201744 C15.4215111,25.5276098 15.2145367,25.275272 15.2145367,25.275272 C14.838871,24.8730057 14.1732666,24.8048096 13.7207569,25.1280308 L11.2792431,26.8719692 C10.8299171,27.1929164 10.7477221,27.7897958 11.1235872,28.2191388 C11.1235872,28.2191388 11.6107147,28.8665762 12.5982319,29.6798256 C14.3350742,31.1101664 16.3054202,32 18.5,32 C23.7916667,32 28,27.9920635 28,22 C28,16.0317154 23.4872525,12.5 18,12.5 C16.2550852,12.5 15.5,11.5125809 15.5,9 C15.5,7.08034015 17.1733013,5.5 19,5.5 C19.7339683,5.5 20.4703513,5.7832242 21.1719045,6.28433368 C21.6191127,6.60376807 21.3174443,6.39333944 21.3174443,6.39333944 C21.720824,6.76248556 22.3943125,6.78455003 22.8285465,6.43716283 L25.1714535,4.56283717 C25.6026325,4.21789404 25.64137,3.61133944 25.2532476,3.22459317 C25.2532476,3.22459317 24.9433873,2.83373193 24.0780955,2.21566632 Z M32,1.99631511 C32,1.44606547 32.4509254,1 32.9947712,1 L50.0052288,1 C50.5546258,1 51,1.44096508 51,2.00555011 L51,4.96344403 C51,5.51879402 50.5500512,5.96899414 49.9931545,5.96899414 L38.0068455,5.96899414 C37.4507801,5.96899414 37,6.4237863 37,6.9698885 L37,12.9991056 C37,13.5518843 37.455761,14 38.0024733,14 L47.9975267,14 C48.5511774,14 49,14.4437166 49,14.9998075 L49,18.0001925 C49,18.5523709 48.544239,19 47.9975267,19 L38.0024733,19 C37.4488226,19 37,19.4530363 37,19.9970301 L37,26.0029699 C37,26.5536144 37.4499488,27 38.0068455,27 L49.9931545,27 C50.5492199,27 51,27.4437166 51,27.9998075 L51,31.0001925 C51,31.5523709 50.5490746,32 50.0052288,32 L32.9947712,32 C32.4453742,32 32,31.5617743 32,31.0036849 L32,1.99631511 Z M56,1.99631511 C56,1.44606547 56.4433532,1 57.0093689,1 L58.9906311,1 C59.5480902,1 60.2671673,1.36258422 60.5926204,1.80427051 L73.4073796,19.1957287 C73.7346748,19.6399151 74,19.5490739 74,19.0052281 L74,1.99477111 C74,1.44537419 74.4437166,0.999999983 74.9998075,0.999999985 L78.0001925,0.999999996 C78.5523709,0.999999998 79,1.43822575 79,1.99631511 L79,31.0036849 C79,31.5539345 78.5566468,32 77.9906311,32 L76.0093689,32 C75.4519098,32 74.7450528,31.6348205 74.4250829,31.1765043 L61.5749171,12.7702731 C61.2573991,12.3154689 61,12.4032945 61,12.9412198 L61,31.0055576 C61,31.554773 60.5562834,32 60.0001925,32 L56.9998075,32 C56.4476291,32 56,31.5617743 56,31.0036849 L56,1.99631511 Z"/>
</svg>
