<svg width="281" height="75" viewBox="0 0 281 75" xmlns="http://www.w3.org/2000/svg"><title>linkedin</title><path d="M184.45 14.168v16.82h-.15c-1.61-2.353-4.97-3.928-9.44-3.928-8.57 0-16.1 6.854-16.02 18.57 0 10.85 6.8 17.917 15.29 17.917 4.62 0 9-2.003 11.2-5.853h.22l.43 5.066h9.89c-.15-2.353-.29-6.427-.29-10.423v-38.17h-11.13zm0 33.104c0 .856-.1 1.71-.22 2.42-.66 3.073-3.3 5.212-6.51 5.212-4.61 0-7.62-3.714-7.62-9.566 0-5.493 2.56-9.917 7.69-9.917 3.44 0 5.86 2.355 6.51 5.28.15.643.15 1.36.15 2.004v4.57-.002zM156.63 48.8c.14-.857.36-2.51.36-4.376 0-8.653-4.4-17.432-15.96-17.432-12.36 0-18.08 9.78-18.08 18.657 0 10.974 6.95 17.83 19.11 17.83 4.83 0 9.29-.72 12.96-2.22l-1.47-7.35c-3.01 1.003-6.08 1.5-9.88 1.5-5.2 0-9.73-2.14-10.1-6.68l23.06.1v-.03zm-23.13-7.526c.28-2.86 2.19-7.068 6.95-7.068 5.05 0 6.22 4.5 6.22 7.068H133.5zm-31.8-27.106H90.567V62.76H101.7V51.91l2.78-3.5 8.7 14.35h13.69l-14.63-20.777 12.8-14.136h-13.4s-9.14 12.65-9.94 14.146V14.168zM52.04 62.76h11.12V44.074c0-1.002.1-2.003.37-2.723.798-1.99 2.635-4.06 5.707-4.06 4.035 0 5.64 3.07 5.64 7.562v17.91h11.12V43.568c0-10.276-5.492-15.07-12.813-15.07-5.998 0-8.633 3.365-10.09 5.65h.1v-4.862H52.06c.147 3.14 0 33.474 0 33.474h-.02zm-5.173 0V29.286H35.745V62.76h11.122zm-5.56-38.043c3.878 0 6.298-2.567 6.298-5.785-.1-3.276-2.42-5.775-6.222-5.775-3.81 0-6.3 2.5-6.3 5.775 0 3.218 2.42 5.785 6.155 5.785h.1-.03zM.57 62.76h30.74V52.668H11.693v-38.5H.57V62.76zM212.21.664c-3 0-5.44 2.382-5.44 5.318v63.505c0 2.936 2.44 5.31 5.44 5.31h62.77c3.01 0 5.45-2.374 5.45-5.31V5.982c0-2.936-2.44-5.318-5.45-5.318h-62.77zM223.6 13.11c3.81 0 6.13 2.507 6.23 5.783 0 3.218-2.42 5.785-6.29 5.785h-.1c-3.73 0-6.14-2.567-6.14-5.785 0-3.276 2.48-5.784 6.29-5.784h.01zm32.8 15.35c7.32 0 12.81 4.783 12.81 15.07v19.19h-11.13V44.814c0-4.502-1.6-7.564-5.63-7.564-3.07 0-4.91 2.07-5.71 4.063-.27.72-.37 1.72-.37 2.712V62.72h-11.09s.15-30.332 0-33.473h11.12v4.716c1.48-2.285 4.12-5.503 10-5.503zm-38.43.787h11.12V62.72h-11.12V29.248z" fill="#FFF" fill-rule="evenodd"/></svg>