<svg width="96" height="44" viewBox="0 0 96 44" xmlns="http://www.w3.org/2000/svg"><title>nest</title><path d="M71.738 29.186c1.85.792 2.957 2.28 2.957 3.98 0 2.25-1.73 3.588-4.63 3.588-3.074 0-4.503-2.708-4.87-3.537l-.45-1.025h-5.76l-.008-.005H53.64c-1.458 2.432-4.393 4.673-7.807 4.673-6.16 0-9.235-4.814-9.628-9.567h25.18v-1.04c0-1.97-.206-3.826-.59-5.547.722 2.21 2.365 4.5 5.81 6.122 1.256.6 3.155 1.494 5.133 2.358zM45.472 14.084c5.153 0 7.676 3.555 8.408 7.175H36.73c.895-3.628 4.075-7.176 8.742-7.176zM96 14.19V7.686h-5.353V0h-6.572v7.687H70.84c-6.113.003-10.55 4.113-10.55 9.777 0 .61.054 1.266.177 1.946-2.083-7.217-7.573-11.723-14.946-11.723-9.018 0-15.913 7.022-16.49 16.534V22.2c0-8.004-6.512-14.513-14.515-14.513S0 14.197 0 22.2v20.807h6.652V22.2c0-4.333 3.526-7.86 7.863-7.86 4.334 0 7.862 3.527 7.862 7.86v20.807h6.652v-16.19c.58 9.548 7.564 16.595 16.7 16.595 5.577 0 10.496-3.24 13.282-6.99 2.08 4.443 6.14 6.99 11.16 6.99 5.815 0 11.702-3.715 11.702-10.817 0-4.25-2.47-7.726-6.953-9.786-.573-.262-1.036-.48-1.48-.69l-.06-.032c-.5-.236-.985-.464-1.586-.738-2.93-1.315-4.325-2.278-4.325-4.2 0-1.688 1.51-2.96 3.378-2.96h13.227v18.528c0 5.898 4.798 10.694 10.695 10.694V36.84c-2.273 0-4.123-1.85-4.123-4.122v-18.53c2.63.003 4.655 0 5.353 0z" fill="#FFF" fill-rule="evenodd"/></svg>