<svg width="1501" height="296" viewBox="0 0 1501 296" version="1.1" xmlns="http://www.w3.org/2000/svg"><title>Untitled</title><g id="Page-1" stroke="none" stroke-width="1" fill="none" fill-rule="evenodd"><g id="blablacar-logo" fill-rule="nonzero"><g id="Group"><path d="M290.1 150.6c-7.6-44.5-49.8-74.5-94.3-67L208.9 9 161.3.6c-4.1 9-22 49.9-30.7 96 17.7 12.1 30.7 31.1 34.6 53.9 4.1 24.4-3 48.1-17.6 65.7 3.6 4.4 7.7 8.4 12.3 12 18.6 14.6 41.2 20.3 63.2 16.6 44.6-7.5 74.6-49.7 67-94.2z" id="Shape" fill="#054752"/><path d="M129.7 101.7l.9-5.1c-16.9-11.5-38-16.7-59.7-13.1L84 8.9 36.4.5C32.2 9.8 13.1 53.4 4.8 101.6c-6.6 38.7-6.3 80.3 14.1 109.6 4.4 6.3 9.7 12 16.1 17 18.6 14.6 41.2 20.3 63.2 16.6 20.2-3.4 37.3-14 49.4-28.6-1.3-1.6-2.6-3.3-3.8-5-20.4-29.2-20.7-70.8-14.1-109.5z" id="Shape" fill="#2DBEFF"/><path d="M165.2 150.6c-3.9-22.8-16.9-41.8-34.6-53.9l-.9 5.1c-6.6 38.7-6.3 80.3 14.1 109.6 1.2 1.7 2.5 3.4 3.8 5 14.6-17.8 21.8-41.5 17.6-65.8z" id="Shape" fill="#9EF769"/></g><g id="Group" transform="translate(343 85)" fill="#054752"><path d="M907 143.4h-28.5c-.9 0-1.7.6-2 1.4-4.1 10.5-9.6 19.3-17.6 25.5-7.9 6.2-18.2 9.7-31.6 9.7-18.3 0-33-8-43.1-21.4-10-13.4-15.5-32.1-15.5-53.5 0-21.6 5.5-40.3 15.6-53.6 10.1-13.3 24.8-21.3 42.9-21.3 13.4 0 23.6 3.5 31.6 9.6 7.9 6.1 13.5 14.9 17.6 25.2.3.8 1.1 1.4 2 1.4h28.5c.6 0 1.1-.2 1.5-.6.4-.4.6-.9.6-1.5l-.1-.5c-4.3-19.3-13.6-35.2-27.4-46.2C867.7 6.6 849.4.3 827.1.3 801 .3 778 10.9 761.5 29.2 745 47.6 735 73.7 735 105c0 31.3 10 57.5 26.5 75.8 16.5 18.4 39.5 28.9 65.6 28.9 22.2 0 40.4-6.2 54.3-17.3 13.8-11.1 23.2-27 27.5-46.5l.1-.5c0-.6-.2-1.1-.6-1.5-.2-.3-.8-.5-1.4-.5zM1156.2 59.3c-1.9-.4-4.8-.8-8.7-.8-3.4 0-7.6.3-12.4 1.2-4.2.8-8.4 2.4-12.4 4.6-4 2.2-7.9 5.2-11.5 8.8-2.1 2.1-4 4.5-5.8 7.3l-1.3 2V63.1c0-1.2-1-2.2-2.2-2.2h-26.7c-1.2 0-2.2 1-2.2 2.2V205c0 1.2 1 2.2 2.2 2.2h27.3c1.2 0 2.2-1 2.2-2.2v-68.9c0-8 .9-14.8 2.7-20.4 1.8-5.6 4.5-10.1 8.1-13.4 3.6-3.4 7.7-6 12.5-7.7 5.7-2 11.8-2.6 17-2.6 4.2 0 7.9.4 10.4.8h.3c1.2 0 2.1-.9 2.1-2.2V61.5c.2-1.1-.5-2-1.6-2.2zM566.8.3h-.4l-27.5 4.8c-1 .2-1.8 1.1-1.8 2.1v197.7c0 1.2 1 2.2 2.2 2.2h27.6c1.2 0 2.2-1 2.2-2.2V2.5C569 1.3 568 .3 566.8.3zM510.2 117.8c-4.1-8.3-9.6-15.3-16.5-21l-2-1.6c-3-2.3-6.3-4.4-9.8-6.1l-.8-.4.6-.7c3.2-3.7 5.9-7.9 8-12.6 3-6.6 4.5-13.5 4.5-20.7 0-7.8-1.6-15.1-4.6-22-3.1-6.9-7.3-12.8-12.7-17.8-5-4.6-10.9-8.2-17.6-10.8C452.5 1.5 444 .2 434 .2h-60.5c-1.2 0-2.2 1-2.2 2.2V205c0 1.2 1 2.2 2.2 2.2h74.6c10.6 0 19.5-1.2 26.7-3.6 7.1-2.4 13.5-5.9 18.9-10.5 6.9-5.7 12.5-12.8 16.6-21.1.9-1.8 1.7-3.6 2.4-5.4l.3-.7c.2-.4.3-.9.5-1.4a60.4 60.4 0 0 0 3.2-19.5c-.2-9.8-2.3-18.9-6.5-27.2zM403.1 30.7h25.6c8 0 14 .7 17.8 2.1 3.9 1.4 6.9 3.4 9 5.9 4.4 4.8 6.6 10.4 6.6 16.9 0 6.5-2.2 12-6.6 16.9-2.2 2.5-5.1 4.5-9 5.9-2.8 1-6.9 1.7-12.1 2h-31.3V30.7zm78.2 125.6c-1.7 3.9-3.9 7.4-6.7 10.4-3.2 3.1-7.1 5.6-11.7 7.4-4.6 1.7-11.5 2.7-20.7 2.7h-39.1V111h39.1c9.2 0 16.1.9 20.7 2.7 4.7 1.8 8.6 4.3 11.7 7.4 2.8 3 5 6.4 6.7 10.2 1.7 3.8 2.5 7.9 2.5 12.4.1 4.5-.8 8.7-2.5 12.6zM699.3 72.6C688.6 63 674 58.2 655.8 58.2c-16.3 0-29.7 4-40.1 11.9-9 6.8-15.3 15.4-18.8 25.6-.4 1.1.3 2.3 1.5 2.5l25.8 4.5c.9.2 1.7-.3 2.1-1.1 5.2-11.6 15.1-17.3 29.7-17.3 9.8 0 17.5 2.7 22.9 8.2 5.4 5.5 8.2 12.8 8.2 21.9v5.3c-13.7-4.1-26.6-6.1-38.6-6.1-17 0-31.2 4.3-42.5 12.9-11.3 8.6-16.9 20.7-16.9 36.2 0 14.8 5.1 26.4 15.4 34.8 10.3 8.4 22.7 12.6 37.3 12.6 18.7.1 33.9-5.4 45.3-16.6v11.3c0 1.3 1.1 2.4 2.4 2.4h23.8c1.3 0 2.4-1.1 2.4-2.4v-92.5c-.2-16.8-5.6-30.1-16.4-39.7zM675 172.8c-8 6.6-17.8 9.8-29.4 9.8-8.5 0-15.1-1.9-19.6-5.7-4.5-3.8-6.8-9-6.8-15.6 0-7.2 2.9-12.6 8.6-16.2 5.7-3.6 13-5.5 21.9-5.5 11.5 0 23.9 2 37.2 6.1 0 11.6-4 20.5-11.9 27.1zM195.7.3h-.4l-27.5 4.8c-1 .2-1.8 1.1-1.8 2.1v197.7c0 1.2 1 2.2 2.2 2.2h27.6c1.2 0 2.2-1 2.2-2.2V2.5c-.1-1.2-1.1-2.2-2.3-2.2zM139.1 117.8c-4.1-8.3-9.6-15.3-16.5-21l-2-1.6c-3-2.3-6.3-4.4-9.8-6.1l-.8-.4.6-.7c3.2-3.7 5.9-7.9 8-12.6 3-6.6 4.5-13.5 4.5-20.7 0-7.8-1.6-15.1-4.6-22-3.1-6.9-7.3-12.8-12.7-17.8-5-4.6-10.9-8.2-17.6-10.8C81.4 1.5 72.9.2 62.9.2H2.4C1.2.2.2 1.2.2 2.4V205c0 1.2 1 2.2 2.2 2.2H77c10.6 0 19.5-1.2 26.7-3.6 7.1-2.4 13.5-5.9 18.9-10.5 6.9-5.7 12.5-12.8 16.6-21.1.9-1.8 1.7-3.6 2.4-5.4l.3-.7c.2-.4.3-.9.5-1.4a60.4 60.4 0 0 0 3.2-19.5c-.2-9.8-2.3-18.9-6.5-27.2zM32 30.7h25.6c8 0 14 .7 17.8 2.1 3.9 1.4 6.9 3.4 9 5.9 4.4 4.8 6.6 10.4 6.6 16.9 0 6.5-2.2 12-6.6 16.9-2.2 2.5-5.1 4.5-9 5.9-2.8 1-6.9 1.7-12.1 2H32V30.7zm78.2 125.6c-1.7 3.9-3.9 7.4-6.7 10.4-3.2 3.1-7.1 5.6-11.7 7.4-4.6 1.7-11.5 2.7-20.7 2.7H32V111h39.1c9.2 0 16.1.9 20.7 2.7 4.7 1.8 8.6 4.3 11.7 7.4 2.8 3 5 6.4 6.7 10.2 1.7 3.8 2.5 7.9 2.5 12.4s-.8 8.7-2.5 12.6zM328.2 72.6c-10.7-9.6-25.3-14.4-43.5-14.4-16.3 0-29.7 4-40.1 11.9-9 6.8-15.3 15.4-18.8 25.6-.4 1.1.3 2.3 1.5 2.5l25.8 4.5c.9.2 1.7-.3 2.1-1.1 5.2-11.6 15.1-17.3 29.7-17.3 9.8 0 17.5 2.7 22.9 8.2 5.4 5.5 8.2 12.8 8.2 21.9v5.3c-13.7-4.1-26.6-6.1-38.6-6.1-17 0-31.2 4.3-42.5 12.9-11.3 8.6-16.9 20.7-16.9 36.2 0 14.8 5.1 26.4 15.4 34.8 10.3 8.4 22.7 12.6 37.3 12.6 18.7.1 33.9-5.4 45.3-16.6v11.3c0 1.3 1.1 2.4 2.4 2.4h23.8c1.3 0 2.4-1.1 2.4-2.4v-92.5c-.3-16.8-5.6-30.1-16.4-39.7zm-24.4 100.2c-8 6.6-17.8 9.8-29.4 9.8-8.5 0-15.1-1.9-19.6-5.7-4.5-3.8-6.8-9-6.8-15.6 0-7.2 2.9-12.6 8.6-16.2 5.7-3.6 13-5.5 21.9-5.5 11.5 0 23.9 2 37.2 6.1.1 11.6-3.9 20.5-11.9 27.1zM1034.5 72.6c-10.7-9.6-25.3-14.4-43.5-14.4-16.3 0-29.7 4-40.1 11.9-9 6.8-15.3 15.4-18.8 25.6-.4 1.1.3 2.3 1.5 2.5l25.8 4.5c.9.2 1.7-.3 2.1-1.1 5.2-11.6 15.1-17.3 29.7-17.3 9.8 0 17.5 2.7 22.9 8.2 5.4 5.5 8.2 12.8 8.2 21.9v5.3c-13.7-4.1-26.6-6.1-38.6-6.1-17 0-31.2 4.3-42.5 12.9-11.3 8.6-16.9 20.7-16.9 36.2 0 14.8 5.1 26.4 15.4 34.8 10.3 8.4 22.7 12.6 37.3 12.6 18.7.1 33.9-5.4 45.3-16.6v11.3c0 1.3 1.1 2.4 2.4 2.4h23.8c1.3 0 2.4-1.1 2.4-2.4v-92.5c-.3-16.8-5.7-30.1-16.4-39.7zm-24.4 100.2c-8 6.6-17.8 9.8-29.4 9.8-8.5 0-15.1-1.9-19.6-5.7-4.5-3.8-6.8-9-6.8-15.6 0-7.2 2.9-12.6 8.6-16.2 5.7-3.6 13-5.5 21.9-5.5 11.5 0 23.9 2 37.2 6.1.1 11.6-3.9 20.5-11.9 27.1z" id="Shape"/></g></g></g></svg>