<svg version="1.1" id="Calque_1" xmlns="http://www.w3.org/2000/svg" xmlns:xlink="http://www.w3.org/1999/xlink" x="0px" y="0px" viewBox="0 0 576.5 132.3" style="enable-background:new 0 0 576.5 132.3;" xml:space="preserve">
<style type="text/css">
	.st0{fill:#D20073;}
	.st1{fill:#003883;}
	.st2{fill:#23BBEA;}
	.st3{fill:#009DE0;}
	.st4{fill:#006FB7;}
</style>
<path class="st0" d="M154.7,0.4h10.3c9.2,0,12.7,0.9,16.2,4c2.8,2.4,4.5,6.3,4.5,9.8c0,4.6-1.8,7.7-5.8,10.1  c3.6,1.3,5.6,2.8,7.2,5.5c1.2,2,1.8,4.7,1.8,7.5c0,6.2-3.4,11.4-9,13.9c-2.7,1.2-6.5,1.7-11.1,1.7h-14V0.4z M167.6,20.8  c5.8,0,8.4-1.8,8.4-5.7c0-3.6-2.8-5.7-7.6-5.7h-4v11.4H167.6z M169.3,43.8c6.8-0.2,9.9-2.3,9.9-6.9c0-4.4-3.5-7-9.6-7h-5.1v13.9  H169.3z"/>
<path class="st0" d="M216.7,12.2c11.6,0,20.9,9.3,20.9,21s-9.3,21-21,21c-11.5,0-21-9.4-21-21C195.7,21.7,205.1,12.2,216.7,12.2z   M216.7,45.6c6.4,0,11.4-5.4,11.4-12.2c0-6.8-5.2-12.5-11.5-12.5c-6.3,0-11.5,5.6-11.5,12.3C205.1,40.2,210.2,45.6,216.7,45.6z"/>
<path class="st0" d="M279.5,13.5v39.4h-8.7V49c-3.1,3.9-5.8,5.2-10.3,5.2c-4.3,0-8.3-1.5-11.4-4.3c-3.5-3.2-4.9-6.9-4.9-13.3V13.5  h9.5v20.1c0,7.9,2.8,11.9,8,11.9c5.4,0,8.2-4,8.2-11.9V13.5H279.5z"/>
<path class="st0" d="M289.8,13.5h8.7v3.5c2.8-3.6,8.6-4.3,12.4-4.3c0.2,0-0.3,0,0,0v8.7c-5.8,0.2-11.6,3.2-11.6,9.5v22.1h-9.5V13.5z  "/>
<path class="st0" d="M396.4,13.5h8.7v3.5c2.8-3.6,8.6-4.3,12.4-4.3c0.2,0-0.3,0,0,0v8.7c-5.8,0.2-11.6,3.2-11.6,9.5v22.1h-9.5V13.5z  "/>
<path class="st0" d="M329.3,45.6c2.4,0,4.3-1.7,4.3-3.9c0-2.4-1.4-3.5-6.7-5.2c-4.5-1.4-5.4-1.9-7.4-3.7c-2.4-2.1-3.6-4.9-3.6-8.4  c0-6.8,5.8-12.2,13.2-12.2c7,0,12.6,5.2,12.9,12.1h-9.2c-0.4-2.2-1.7-3.4-3.7-3.4c-2.1,0-3.7,1.5-3.7,3.3c0,1.8,1,2.8,4.1,3.7  l2.7,0.8c3.5,1.1,5.6,2.1,7.3,3.5c2.5,2.1,3.7,4.8,3.7,8.4c0,7.6-6.5,13.6-14.4,13.6c-5.4,0-10.4-2.8-12.5-7.3  c-0.9-1.9-1.3-3.1-1.6-6.4h9.6C325,44.1,326.5,45.6,329.3,45.6z"/>
<path class="st0" d="M368.3,12.2c11.6,0,20.9,9.3,20.9,21s-9.3,21-21,21c-11.5,0-21-9.4-21-21C347.3,21.7,356.7,12.2,368.3,12.2z   M368.3,45.6c6.4,0,11.4-5.4,11.4-12.2c0-6.8-5.2-12.5-11.5-12.5c-6.3,0-11.5,5.6-11.5,12.3C356.7,40.2,361.8,45.6,368.3,45.6z"/>
<path class="st0" d="M459.3,52.9h-8.7v-4.8c-3,3.5-8.9,6.1-13.8,6.1c-11,0-19.2-8.9-19.2-21.1c0-11.8,8.5-20.8,19.7-20.8  c5,0,10.3,2.5,13.3,6.3v-5l8.7-0.1V52.9z M438.8,20.9c-6.6,0-11.7,5.4-11.7,12.5c0,6.9,5.1,12.2,11.7,12.2c6.7,0,11.6-5.3,11.6-12.5  C450.4,26,445.4,20.9,438.8,20.9z"/>
<path class="st0" d="M470.1,13.5h8.7v3.3c2.4-3.1,5.8-4.6,10.5-4.6c4.7,0,8.8,2.2,11.4,6.2c2.9-4.2,7.1-6.2,12.7-6.2  c10.2,0,16,6.4,16,17.7v23h-9.5V31.1c0-6.8-2.5-10.3-7.5-10.3c-5.5,0-8,3.8-8,12.4v19.6h-9.5V31.1c0-6.6-2.8-10.3-7.9-10.3  c-5.3,0-7.5,3.6-7.5,12.4v19.6h-9.5V13.5z"/>
<path class="st0" d="M576.6,52.9h-8.7v-4.8c-3,3.5-8.9,6.1-13.8,6.1c-11,0-19.2-8.9-19.2-21.1c0-11.8,8.5-20.8,19.7-20.8  c5,0,10.3,2.5,13.3,6.3v-5l8.7-0.1V52.9z M556,20.9c-6.6,0-11.7,5.4-11.7,12.5c0,6.9,5.1,12.2,11.7,12.2c6.7,0,11.6-5.3,11.6-12.5  C567.6,26,562.7,20.9,556,20.9z"/>
<path class="st1" d="M179.9,90.6c4-2.4,5.8-5.5,5.8-10.1c0-3.5-1.7-7.3-4.5-9.8c-3.5-3.2-7-4-16.2-4h-10.3v52.5h14  c4.7,0,8.4-0.6,11.1-1.7c5.6-2.4,9-7.7,9-13.9c0-2.8-0.6-5.5-1.8-7.5C185.5,93.4,183.4,91.8,179.9,90.6z M164.4,75.8h4  c4.8,0,7.6,2.1,7.6,5.7c0,3.9-2.7,5.7-8.4,5.7h-3.2V75.8z M169.3,110.1h-4.9V96.3h5.1c6.1,0,9.6,2.6,9.6,7  C179.2,107.9,176.1,110,169.3,110.1z"/>
<path class="st1" d="M227.1,84.8c-2.9-3.8-8.3-6.3-13.3-6.3c-11.2,0-19.7,9-19.7,20.8c0,12.2,8.1,21.1,19.2,21.1  c4.9,0,10.8-2.6,13.8-6.1v4.8h8.7V79.8l-8.7,0.1V84.8z M215.3,112c-6.5,0-11.7-5.4-11.7-12.2c0-7.1,5-12.5,11.7-12.5  c6.6,0,11.6,5.1,11.6,12.2C226.9,106.7,222,112,215.3,112z"/>
<path class="st1" d="M264.6,78.5c-4.2,0-7.4,1.4-10.8,4.7v-3.4H245v39.4h9.5v-18.7c0-4.7,0.2-6.5,1-8.5c1-2.8,4.1-4.8,7.2-4.8  c5.4,0,8,4.1,8,12.6v19.4h9.5V97.9c0-5.6-0.5-8.3-2.1-11.4C275.7,81.7,270.3,78.5,264.6,78.5z"/>
<path class="st1" d="M318.4,84.8c-3.2-4.3-7.3-6.3-12.8-6.3c-10.9,0-20,9.4-20,20.7c0,11.8,8.9,21.2,19.9,21.2c4.8,0,9.1-1.7,12.1-5  v16.9h9.5V79.8h-8.7V84.8z M306.7,111.9c-6.6,0-11.6-5.3-11.6-12.4c0-6.9,5-12.3,11.5-12.3c6.3,0,11.4,5.5,11.4,12.4  C318.1,106.4,313,111.9,306.7,111.9z"/>
<path class="st1" d="M361.5,100c0,7.9-2.8,11.9-8.2,11.9c-5.3,0-8-4-8-11.9V79.9h-9.5V103c0,6.5,1.3,10.1,4.9,13.3  c3.1,2.8,7.1,4.3,11.4,4.3c4.5,0,7.2-1.3,10.3-5.2v3.9h8.7V79.8h-9.5V100z"/>
<path class="st1" d="M418.8,99c0-11.4-9.2-20.8-20.4-20.8c-11.4,0-20.7,9.5-20.7,21.4c0,11.7,9.2,20.9,20.8,20.9  c7.8,0,15.1-4.8,18.2-11.8h-11.1c-1.9,2.1-4.3,3.2-7.4,3.2c-4.8,0-9.3-3.5-10.5-8.1h30.6C418.7,101.5,418.8,100.4,418.8,99z   M387.3,96.1c1.3-5.5,5.8-9.2,11.2-9.2c5.4,0,9.7,3.6,11,9.2H387.3z"/>
<path class="st0" d="M118.7,18.8c0,0.4,0,0.8,0,1.3c0,5.3-2.2,10.2-5.8,13.8l0,0l-8.7,8.8c0,0,0,0,0,0l-25,25v30.9  c0,11.2,8.9,20.4,19.8,20.4c10.9,0,19.8-9.2,19.8-20.4V20.8C118.8,20.1,118.8,19.5,118.7,18.8z"/>
<path class="st2" d="M51.5,39.9l-46,46l0,0c-7.1,8-7.1,20.1,0.3,27.5c0,0,0,0,0,0l73.4-73.5H51.5z"/>
<path class="st3" d="M5.9,113.3c7.4,7.4,19.5,7.4,27.4,0.3l0,0l0.8-0.8c0,0,0,0,0,0l45.1-45.1V40v0v0L5.9,113.3z"/>
<path class="st4" d="M104.3,42.7l8.7-8.8l0,0c-3.7,3.7-8.9,6-14.6,6H79.3v27.8L104.3,42.7C104.3,42.7,104.3,42.7,104.3,42.7z"/>
<path class="st0" d="M96.8,0.5c0.1,0,0.1,0,0.2,0c0.2,0,0.3,0,0.5,0c0.2,0,0.4,0,0.7,0c0,0,0,0,0,0c0,0,0,0,0,0c0.1,0,0.3,0,0.4,0  c0,0,0,0,0,0c0,0,0,0,0.1,0c-0.1,0-0.2,0-0.4,0H20.5C9.3,0.3,0.1,9.2,0.1,20.1c0,10.9,9.2,19.8,20.4,19.8h31L84.2,7.1  C87.4,3.5,91.8,1.1,96.8,0.5z"/>
<path class="st4" d="M79.3,20.2c0-0.1,0-0.1,0-0.2c0-0.1,0-0.3,0-0.4c0-0.1,0-0.1,0-0.2c0-0.1,0-0.3,0-0.4c0-0.1,0-0.1,0-0.2  c0-0.1,0-0.3,0-0.4c0,0,0-0.1,0-0.1c0-0.2,0-0.3,0.1-0.5c0,0,0,0,0-0.1c0.1-0.6,0.2-1.2,0.3-1.7c0.7-3.3,2.2-6.4,4.4-8.9L51.5,39.9  h27.8V20.8C79.3,20.6,79.3,20.4,79.3,20.2z"/>
<path class="st1" d="M118.7,18.8c-0.1-0.9-0.2-1.9-0.4-2.8c-1.8-9-9.7-15.7-19.2-15.7c-0.1,0-0.2,0-0.3,0c0,0,0,0,0,0  c0,0-0.1,0-0.1,0c-0.1,0-0.2,0-0.3,0c0,0-0.1,0-0.1,0c0,0,0,0,0,0c-0.2,0-0.5,0-0.7,0c-0.2,0-0.3,0-0.5,0c-0.1,0-0.1,0-0.2,0  c-5,0.6-9.4,3-12.5,6.6l0,0c-2.2,2.5-3.7,5.5-4.4,8.9c0,0,0,0,0,0c-0.1,0.6-0.2,1.1-0.3,1.7c0,0,0,0,0,0.1c0,0.2,0,0.3-0.1,0.5  c0,0,0,0.1,0,0.1c0,0.1,0,0.3,0,0.4c0,0.1,0,0.1,0,0.2c0,0.1,0,0.3,0,0.4c0,0.1,0,0.1,0,0.2c0,0.1,0,0.3,0,0.4c0,0.1,0,0.1,0,0.2  c0,0.2,0,0.4,0,0.6v19.1h19.1c11.2,0,20.4-8.9,20.4-19.8C118.8,19.7,118.8,19.3,118.7,18.8z"/>
</svg>
