<svg id="CA_banque_et_assurance" xmlns="http://www.w3.org/2000/svg" viewBox="0 0 283.7 77.1"><style>.st0{fill:#00b1eb}.st1{fill:#004d9a}</style><path class="st0" d="M24.7 12c.1-.1.3-.2.4-.2.2 0 .4.2.4.4 0 .1-.1.3-.2.4-5.4 6.7-9.3 14.5-9.3 25.3s3.9 18.4 9.2 25.1c.1.1.2.3.2.4 0 .2-.1.4-.4.4-.1 0-.3-.1-.4-.2L2 41.6C.9 40.6.1 39.5.1 37.9s.7-2.8 1.9-3.7L24.7 12z"/><path class="st1" d="M42.1 10.2c-8.9 0-12.4 12.7-12.4 27.8 0 15.1 3.5 27.6 12.4 27.6 5.3 0 9.9-3.1 9.9-5.7 0-.6-.2-1.1-.7-1.6-2.5-2.5-3.5-4.9-3.5-7.1 0-4.1 3.6-7.2 6.8-7.2 4.5 0 7.2 3.6 7.2 8.2 0 4.4-1.9 8-3.9 11-.1.1-.1.3-.1.4 0 .2.1.4.3.4.1 0 .3-.1.4-.2l22.7-22.1c1.1-1 1.9-2.1 1.9-3.7s-.7-2.8-1.9-3.7L58.6 12c-.2-.2-.3-.2-.4-.2-.2 0-.3.2-.3.4 0 .1 0 .2.1.4 2 2.9 3.9 6.6 3.9 11 0 4.6-2.7 8.2-7.2 8.2-3.3 0-6.9-3.1-6.8-7.2 0-2.2 1-4.6 3.5-7.1.5-.5.7-1 .7-1.6-.1-2.6-4.6-5.7-10-5.7"/><g><path class="st1" d="M104 32.5c-1 0-2.2-.3-3-.7v-9.6c0-1.6 1.3-2.9 3.1-2.9 2.5 0 3.9 2.2 3.9 6.2 0 4.7-1.3 7-4 7zm-.1 2.8c5.3 0 8.1-3.6 8.1-10.3 0-5.4-2.5-8.6-6.8-8.6-1.6 0-3.2.6-4.2 1.5v-7.7h-4v23.5c1.5.9 4.5 1.6 6.9 1.6zM126.5 19.7c-.6-.3-1.7-.4-2.6-.4-2.9 0-4.5 2.5-4.5 7.2 0 3.9 1.3 5.9 3.7 5.9 1.9 0 3.4-1.4 3.4-3.3v-9.4zm4 11.6l.3 3.4h-3.4l-.2-1.9h-.2c-1 1.5-2.8 2.4-4.8 2.4-4.4 0-6.7-3-6.7-8.6 0-6.5 3.2-10.2 9-10.2 1.7 0 4.3.5 6.1 1.3v13.6zM135.8 34.7V20l-.3-3.1h3.3l.4 2.2c1.2-1.7 3.1-2.8 5.4-2.8 3.4 0 5.4 2 5.4 6.2v12.2h-4V23.5c0-2.3-.4-4-2.6-4-2.1 0-3.6 1.8-3.6 3.8v11.5h-4zM169.2 42.1h-4v-8.4h-.1c-1 .8-2.4 1.5-4.2 1.5-4.4 0-6.6-3-6.6-8.9 0-6.1 3.2-9.9 8.6-9.9 1.7 0 4.1.4 6.3 1.3v24.4zm-4-22.4c-.6-.2-1.2-.3-2.1-.3-3.1 0-4.8 2.9-4.8 6.4 0 3.1.2 6.5 3.5 6.5 2.1 0 3.4-1.8 3.4-3.1v-9.5zM188.7 17v14.8l.3 3h-3.4l-.2-2.1h-.1c-1.2 1.8-3.1 2.6-5.1 2.6-3.8 0-5.6-2.1-5.6-6.2V17h4v11.3c0 2.3.4 4 2.8 4 1.9 0 3.5-1.8 3.5-3.6V17h3.8zM207 21.3c0 5.5-6.6 6.2-9.8 6.2.2 2.4 1.5 4.7 4.5 4.7 2 0 3.4-1.1 4.3-1.8l1.3 2.8c-.6.5-2.8 2-6 2-5.7 0-8.1-3.7-8.1-9 0-5.2 3-9.8 8.4-9.8 3.3 0 5.4 1.8 5.4 4.9zm-5.7-2.1c-2.8 0-4.2 3-4.3 5.8 1.9 0 6.4-.6 6.4-3.5 0-1.4-.9-2.3-2.1-2.3z"/><path class="st0" d="M283.4 51.4c0 5.5-6.6 6.2-9.8 6.2.2 2.4 1.5 4.7 4.5 4.7 2 0 3.4-1.1 4.3-1.8l1.3 2.8c-.6.5-2.8 2-6 2-5.7 0-8.1-3.7-8.1-9 0-5.2 3-9.8 8.4-9.8 3.3 0 5.4 1.8 5.4 4.9zm-5.8-2.1c-2.8 0-4.2 3-4.3 5.8 1.9 0 6.4-.6 6.4-3.5 0-1.4-.9-2.3-2.1-2.3zM265.9 60.6l1.6 2.6c-1.4 1.1-3.4 2.1-6 2.1-5.1 0-8-3.3-8-9.3 0-7.1 4.3-9.5 7.9-9.5 2.2 0 4.7.9 6.3 3.4l-2.7 2c-.9-1.3-2.1-2.2-3.6-2.2-2.3 0-4 2-4 6.2 0 3.8 1.3 6.3 4.5 6.3 1.4 0 2.6-.3 4-1.6zM225.7 49.9c-.6-.3-1.7-.4-2.6-.4-2.9 0-4.5 2.5-4.5 7.2 0 3.9 1.3 5.9 3.7 5.9 1.9 0 3.4-1.4 3.4-3.3v-9.4zm4 11.5l.3 3.4h-3.4l-.2-1.9h-.2c-1 1.5-2.8 2.4-4.8 2.4-4.4 0-6.7-3-6.7-8.6 0-6.5 3.2-10.2 9-10.2 1.7 0 4.3.5 6.1 1.3v13.6zM235 64.8V50.1l-.3-3.1h3.3l.4 2.2c1.2-1.7 3.1-2.8 5.4-2.8 3.4 0 5.4 2 5.4 6.2v12.2h-4V53.6c0-2.3-.4-4-2.6-4-2.1 0-3.6 1.8-3.6 3.8v11.5h-4zM207.2 64.8h-4V49.9l-.3-2.9h3.2l.4 2.6c.8-2 2.5-3.1 4.3-3.1 1.1 0 2.1.2 2.8.7l-.7 3.4c-.8-.4-1.6-.7-2.5-.7-1.9 0-3.2 1.6-3.2 3.8v11.1zM197.8 47.1v14.8l.3 3h-3.4l-.2-2.1h-.1c-1.2 1.8-3.1 2.6-5.1 2.6-3.8 0-5.6-2.1-5.6-6.2V47.1h4v11.3c0 2.3.4 4 2.8 4 1.9 0 3.5-1.8 3.5-3.6V47.1h3.8zM152.4 60.6c1.2.9 3.2 1.9 5 1.9 1.6 0 2.9-.7 2.9-2.5 0-1.6-1.4-2.1-3.2-2.7-2.6-.7-5.5-1.5-5.5-5.1 0-3.7 3-5.6 6.5-5.6 2.6 0 4.9 1.1 6.4 2.5l-2 2.5c-1.3-1.3-2.8-2.1-4.3-2.1-1.4 0-2.7.7-2.7 2.2 0 1.7 1.6 2.2 3.3 2.7 2.6.8 5.5 1.8 5.5 5.3 0 3.7-2.8 5.7-6.7 5.7-3 0-5.6-1.1-6.5-1.8l1.3-3zM167.9 60.6c1.2.9 3.2 1.9 5 1.9 1.6 0 2.9-.7 2.9-2.5 0-1.6-1.4-2.1-3.2-2.7-2.6-.7-5.5-1.5-5.5-5.1 0-3.7 3-5.6 6.5-5.6 2.6 0 4.9 1.1 6.4 2.5l-2 2.5c-1.3-1.3-2.8-2.1-4.3-2.1-1.4 0-2.7.7-2.7 2.2 0 1.7 1.6 2.2 3.3 2.7 2.6.8 5.5 1.8 5.5 5.3 0 3.7-2.8 5.7-6.7 5.7-3 0-5.6-1.1-6.5-1.8l1.3-3zM143.5 49.9c-.6-.3-1.7-.4-2.6-.4-2.9 0-4.5 2.5-4.5 7.2 0 3.9 1.3 5.9 3.7 5.9 1.9 0 3.4-1.4 3.4-3.3v-9.4zm3.9 11.5l.3 3.4h-3.4l-.2-1.9h-.2c-1 1.5-2.8 2.4-4.8 2.4-4.4 0-6.7-3-6.7-8.6 0-6.5 3.2-10.2 9-10.2 1.7 0 4.3.5 6.1 1.3v13.6zM111 51.5c0 5.5-6.6 6.2-9.8 6.2.2 2.4 1.5 4.7 4.5 4.7 2 0 3.4-1.1 4.3-1.8l1.3 2.8c-.6.5-2.8 2-6 2-5.7 0-8.1-3.7-8.1-9 0-5.2 3-9.8 8.4-9.8 3.3 0 5.4 1.8 5.4 4.9zm-5.7-2.1c-2.8 0-4.2 3-4.3 5.8 1.9 0 6.4-.6 6.4-3.5 0-1.5-.9-2.3-2.1-2.3zM118.7 41.7V47h4.8v3.1h-4.8v9.2c0 2.3.9 3 2.3 3 .9 0 1.8-.4 2.4-.7l1.1 2.5c-1.1.8-2.9 1.3-4.5 1.3-5.3 0-5.3-3.4-5.3-5.9V41.7h4z"/></g></svg>