<svg xmlns="http://www.w3.org/2000/svg" width="160.75" height="58.422"><path fill="#9C9E9F" d="M7.208 32.969h6.243v1.824H7.797c-1.066 0-1.964.785-2.301 2.301-.533 2.483.8 4.153 2.245 4.153h3.381v-2.386H7.671v-1.669h5.78v5.878h-6.58c-1.964 0-3.76-1.599-4.111-4.251a6.049 6.049 0 0 1 .015-1.515c.364-2.651 2.286-4.335 4.433-4.335M16.79 37.571v-2.778h3.072c.112 0 .225 0 .322.014 1.235.099 1.769.786 1.586 1.6-.099.449-.448.813-1.095 1.038a2.504 2.504 0 0 1-.743.126H16.79zm0 5.499v-3.872h2.792l2.608 3.872h2.82l-2.792-4.055a3.15 3.15 0 0 0 .394-.098 3.105 3.105 0 0 0 1.347-.842 2.97 2.97 0 0 0 .744-2.356c-.155-1.586-1.431-2.75-2.876-2.75h-7.366V43.07h2.329zM28.111 37.964c.028-2.231 1.151-3.395 2.947-3.437 1.964-.042 3.198 1.305 3.03 3.97-.141 2.343-1.319 3.311-3.593 3.003-1.501-.197-2.259-1.095-2.385-3.073.001-.154-.012-.308.001-.463m-2.482.996c.379 3.157 2.356 4.7 6.468 4.349 3.1-.266 4.643-2.02 4.559-5.289-.098-4.026-2.048-5.752-6.649-5.219-2.834.337-4.405 2.119-4.434 5.107-.001.351.014.702.056 1.052M37.567 32.969h2.329v6.299c0 1.389 1.011 2.329 2.946 2.217 1.74-.098 2.441-.772 2.441-2.217v-6.299h2.314v6.818c0 2.217-1.361 3.395-4.952 3.466-3.424.069-5.079-1.432-5.079-3.579v-6.705zM50.938 37.81v-3.017h3.339c.084 0 .168 0 .254.014.603.071 1.052.351 1.289.688.281.435.31.926.043 1.445a1.73 1.73 0 0 1-.743.701 1.63 1.63 0 0 1-.759.169h-3.423zm0 5.26v-3.507h4.419c.184 0 .352-.013.52-.042.771-.112 1.417-.435 1.894-.898.94-.883 1.277-2.076.97-3.24-.407-1.502-1.629-2.413-3.242-2.413H48.61v10.1h2.328zM64.069 32.969h4.561v1.824h-4.209c-.87 0-1.403.266-1.938.954a1.836 1.836 0 0 0-.364.785c-.056.211-.069.436-.056.646h6.621v1.796h-6.593c0 .182.014.378.069.561.084.336.238.617.52.94.505.561.968.772 1.585.772h4.419v1.823h-5.232s-.085 0-.169-.014a4.525 4.525 0 0 1-1.248-.295c-1.894-.757-3.143-2.974-2.68-5.793.31-1.895 1.417-3.228 2.946-3.732.379-.127.674-.197.981-.239.084 0 .154-.014.239-.014.098 0 .21-.014.21-.014h.338z"/><path fill="#646567" d="M7.096 46.761h4.013v1.824H6.928c-.87 0-1.517.617-1.769 2.062a4.458 4.458 0 0 0-.084.898c-.027 2.455.912 3.493 1.965 3.493h4.11v1.823H6.702a4.98 4.98 0 0 1-.673-.041c-2.161-.352-3.802-2.539-3.311-6.075.309-2.216 1.515-3.521 3.409-3.9.281-.056.533-.084.969-.084M14.363 51.362v-2.778h3.072c.112 0 .225 0 .322.014 1.235.1 1.769.787 1.586 1.601-.099.449-.449.813-1.095 1.038a2.51 2.51 0 0 1-.743.126h-3.142zm0 5.5V52.99h2.792l2.608 3.872h2.821l-2.792-4.056a2.88 2.88 0 0 0 .392-.098 3.114 3.114 0 0 0 1.348-.842 2.967 2.967 0 0 0 .744-2.357c-.154-1.584-1.432-2.748-2.877-2.748h-7.365v10.101h2.329zM27.859 46.761h4.56v1.824H28.21c-.869 0-1.402.267-1.936.954a1.82 1.82 0 0 0-.365.785c-.056.211-.069.435-.056.646h6.622v1.796h-6.594c0 .182.014.379.069.562.084.337.239.616.52.94.505.561.968.771 1.585.771h4.42v1.823H27.242s-.085 0-.169-.014a4.506 4.506 0 0 1-1.248-.295c-1.894-.757-3.143-2.974-2.68-5.794.309-1.894 1.417-3.228 2.946-3.731.379-.127.674-.196.981-.238.084 0 .155-.014.239-.014.098 0 .21-.015.21-.015h.338zM35.8 55.038v-6.454h2.624c1.122 0 2.076 1.067 2.034 3.438-.042 2.119-.856 3.017-1.838 3.017H35.8zm3.087 1.824h.421l.154-.015s.111 0 .224-.014c1.712-.209 3.144-1.824 3.228-4.742.099-3.465-1.711-5.33-4.447-5.33h-4.995v10.101h5.415zM43.825 46.76h2.328v10.102h-2.328zM46.462 48.584v-1.823h9.597v1.823h-3.634v8.279h-2.328v-8.279zM64.715 46.761h4.012v1.824h-4.18c-.87 0-1.517.617-1.769 2.062a4.458 4.458 0 0 0-.084.898c-.028 2.455.911 3.493 1.965 3.493h4.109v1.823h-4.447c-.266 0-.463-.014-.674-.041-2.16-.352-3.801-2.539-3.31-6.075.308-2.216 1.515-3.521 3.409-3.9.28-.056.534-.084.969-.084M72.094 51.756c.028-2.231 1.151-3.396 2.946-3.438 1.964-.043 3.199 1.305 3.031 3.971-.141 2.342-1.319 3.311-3.592 3.002-1.501-.196-2.26-1.095-2.386-3.072.001-.155-.013-.309.001-.463m-2.483.996c.379 3.155 2.356 4.699 6.468 4.349 3.1-.267 4.642-2.021 4.558-5.289-.098-4.026-2.047-5.752-6.648-5.22-2.834.338-4.405 2.119-4.435 5.107 0 .35.015.701.057 1.053M83.99 51.756c.027-2.231 1.15-3.396 2.945-3.438 1.965-.043 3.199 1.305 3.031 3.971-.139 2.342-1.318 3.311-3.59 3.002-1.502-.196-2.26-1.095-2.387-3.072.001-.155-.012-.309.001-.463m-2.482.996c.379 3.155 2.357 4.699 6.467 4.349 3.102-.267 4.645-2.021 4.561-5.289-.1-4.026-2.049-5.752-6.65-5.22-2.834.338-4.406 2.119-4.434 5.107-.001.35.013.701.056 1.053M95.775 51.602v-3.018h3.34c.084 0 .168 0 .252.014.604.072 1.053.352 1.291.688.279.435.309.927.043 1.445-.156.28-.395.519-.744.7-.225.113-.463.17-.758.17h-3.424zm0 5.26v-3.508h4.42c.182 0 .35-.013.52-.042.77-.112 1.416-.434 1.893-.896.941-.886 1.277-2.078.969-3.242-.406-1.502-1.627-2.412-3.24-2.412h-6.891v10.101h2.329zM108.908 46.761h4.559v1.824h-4.209c-.869 0-1.402.267-1.936.954a1.81 1.81 0 0 0-.365.785c-.057.211-.07.435-.057.646h6.623v1.796h-6.594c0 .182.012.379.07.562.084.337.238.616.518.94.506.561.969.771 1.586.771h4.42v1.823h-5.232s-.086 0-.17-.014a4.497 4.497 0 0 1-1.248-.295c-1.895-.757-3.143-2.974-2.68-5.794.309-1.894 1.416-3.228 2.945-3.731.379-.127.674-.196.982-.238.084 0 .154-.014.238-.014.1 0 .211-.015.211-.015h.339zM116.848 51.362v-2.778h3.072c.111 0 .225 0 .322.014 1.236.1 1.77.787 1.586 1.601-.098.449-.449.813-1.094 1.038a2.52 2.52 0 0 1-.744.126h-3.142zm0 5.5V52.99h2.793l2.607 3.872h2.82l-2.791-4.056c.141-.027.268-.055.393-.098a3.114 3.114 0 0 0 1.348-.842c.574-.645.84-1.459.744-2.357-.156-1.584-1.434-2.748-2.877-2.748h-7.365v10.101h2.328z"/><path fill="#646567" d="M128.998 52.807l1.318-3.534 1.375 3.534h-2.693zm-1.6 4.055l.912-2.301h4.152l.842 2.301h2.525l-4.336-10.101h-2.455l-4.123 10.101h2.483zM135.324 48.584v-1.823h9.596v1.823h-3.633v8.279h-2.328v-8.279zM145.229 46.76h2.33v10.102h-2.33zM148.568 56.862v-6.229a3.083 3.083 0 0 1 .168-1.053l.057-.21c.576-1.754 2.049-2.608 5.934-2.608h3.256v1.822h-4.236c-1.531.043-2.246.449-2.666 1.305-.141.281-.182.478-.182.604v.449h7.084v1.697h-7.084v4.224h-2.331zM157.57 19.049c.283 1.436.629 4.067-.736 6.703-.648 1.295-1.621 2.532-2.811 3.581a17.86 17.86 0 0 1-1.902 1.485c-.332.238-.785.736-.785.736l.023.614c.043 1.636.01 3.295-.182 4.931-.168 1.614-.609 3.318-1.604 4.613-.244.33-.547.652-.988.864-.438.239-1.086.139-1.436-.165-.641-.643-.92-1.125-1.371-1.664a482.313 482.313 0 0 1-2.178-2.798c-.492-.624-.953-1.212-1.387-1.764l-.629-.803-.17-.22a.405.405 0 0 0 .125.002c.633.816 1.273 1.765 2.061 2.785.744.949 1.561 1.983 2.449 3.109l.682.863c.191.293.617.728 1.184.76 1.188-.064 1.656-1.016 2.107-1.714-.297.464-.607.931-1.088 1.297-.436.416-1.346.468-1.777-.009-.707-.855-1.213-1.617-1.797-2.386-.695-.946-1.354-1.84-1.955-2.661l3.688 4.576s1.242 1.912 2.869-1.595c1.02-2.195.967-6.756.787-9.148 4.215-2.627 6.766-6.055 6.188-10.383.104-.483.174-1.182.057-2.243-.035-.501-.629-1.909-1.098-2.717-.029-.061-.062-.119-.094-.176a12.113 12.113 0 0 0-.307-.742c-.102-.315.348.3.613.537-.85-1.652-.879-1.796-.346-1.196-.223-.392-.445-.781-.455-.777.107.065.385.289.389.289-1.186-2.128-3.232-4.171-5.723-5.208-.094-.039-.188-.075-.279-.113.123-.291.23-.541.35-.769.24-.446.605-1.247.738-1.881.129-.593.311-1.363.051-2.498-.127-.558-.639-1.443-1.518-1.744-.873-.297-1.395-.074-1.799.028a7.72 7.72 0 0 0-1.322.611c-.459.246-.945.659-1.156.92-.596 1.052-.297 1.014-.344 1.484-.33 1.055-.076 2.246.385 3.258-1.473-.103-2.527-.012-2.432.169-2.689.047-3.221.306-5.938.855-1.793.415-3.791 1.054-5.775 2.064-.248.13-.494.262-.748.413l-.1.059-.027.019-.004.002c-.049 1.313.305.743.551 1.342l.004-.001.012-.003.047-.01.193-.04.393-.078a52.68 52.68 0 0 1 1.607-.28 60.533 60.533 0 0 1 3.285-.428 43.684 43.684 0 0 1 7.604-.189c.006.258.014.513.025.763.117 2.255.35 4.439 1.008 6.547.17.525.375 1.045.645 1.55.271.418.617 1.307 1.811 1.274 1.014-.21 1.309-.947 1.57-1.312l.82-1.274c1.006-1.615 1.998-3.154 2.854-4.872.23.172.449.358.652.555.297.402.57.824.82 1.268.096.056.199.125.344.307.203.415.438.815.617 1.248 1.123 3.233-.979 6.565-3.82 8.788-1.182.969-2.49 1.837-3.883 2.63.416-1.003.539-2.317.219-3.401-.314-1.123-.9-2.458-2.381-2.907-1.557-.314-2.633.716-3.391 1.531-.826.837-1.363 2.351-.771 3.572.527 1.182 1.48 1.947 2.432 2.577.242.157.49.303.744.439l.082.04c-1.043.388-1.938.756-2.973.945-2.086.429-4.256.32-6.322-.124a21.544 21.544 0 0 1-5.873-2.222s-.504-.424-.971.374l.193.222c.186.205.377.399.572.587.389.377.797.73 1.217 1.061a16.557 16.557 0 0 0 2.688 1.717 15.416 15.416 0 0 0 7.494 1.706c.252-.004.504-.014.754-.037l.137-.011.016.02c.596.759 1.188 1.508 1.766 2.249 1.164 1.479 2.293 2.921 3.385 4.316l.402.523c.203.248.451.463.795.6.738.304 1.523-.094 1.879-.451.773-.772 1.139-1.529 1.514-2.394.604-1.717.721-3.335.822-4.871.039-.768.055-1.514.051-2.241l-.021-1.075-.014-.306s3.992-3.017 5.082-4.885c1.119-1.857 1.393-3.675 1.377-4.873-.046-.947-.282-1.85-.548-2.719"/><path fill="#D11242" d="M112.787 11.33c.139.209.316.447.547.707a5.41 5.41 0 0 1-.436-.874c.688.931 1.787 1.769 2.586 2.069l.004.002a.336.336 0 0 0-.062.147c0 .063.271.187.357.334.018.042-.076.082-.133.143.162.065.139.147.047.187l.072.043-.078.081c.375.25.762.633 1.34.693a.665.665 0 0 0 .088.008c-.355.291-.459.499-.932.895-.756.648-1.68 1.522-2.48 2.489-.428.536-.82 1.069-1.18 1.635-.135.21-.25.426-.365.627-.594 1.106-1 2.237-1.16 3.383a6.78 6.78 0 0 0-.033 1.726l.033.221.021.115.016.068.004.01c.613-.294.5.047.902.086l.002-.002.004-.009.01-.019.189-.325.406-.646c1.045-1.588 2.236-3.072 3.674-4.645l.049.114.361.824c.229.546.492 1.116.682 1.649.211.583.451 1.152.785 1.689.311.47.83 1.212 1.697.996 1.32-.709 1.537-1.977 2.002-3.002.365-1.087.592-2.178.709-3.221a19.23 19.23 0 0 0 .094-2.959s-.094-.625-.035-.74c0 0 .596-.255.928-.391a26.636 26.636 0 0 1 2.885-1.037c.197-.107.395-.214.6-.308-.748.091-2.328.564-3.906 1.299l-.588.286-.123.135c.047.445.072.883.084 1.302a15.13 15.13 0 0 1-.088 2.157c.064-.664.045-1.38.006-2.308-.027.935-.084 1.752-.219 2.464a17.396 17.396 0 0 0-.135-3.874 25.645 25.645 0 0 1 7.658-2.768s-1.051-.57-2.885-.673c.043-.056.059-.111.027-.168-.053-.078-.893-.114-1.277-.191-.092-.029.109-.118.195-.207-.504.029-.543-.054-.34-.147-.121-.001-.242.008-.242.006l.111-.123c-1.311-.008-2.816.179-3.963.75a7.915 7.915 0 0 0-.893.515c-.127.078-.443.181-.551.231-.152.164-.084.23-.123.344a7.403 7.403 0 0 0-.482.208c.014-.143-.023-.251.02-.449-.008-.656-.115-.928-.219-1.447-.074-.247-.131-.487-.207-.727l-.09-.257c-.328-.876-.729-1.65-1.395-2.239a3.016 3.016 0 0 0-2.559-.705c-.908.207-1.891.397-2.543 1.236-.592.965-.037 1.969.346 2.605.875 1.351 1.908 2.143 2.363 2.39l.311.028c-.585-.404-2.091-1.635-2.493-2.436"/></svg>