<svg
   xmlns:dc="http://purl.org/dc/elements/1.1/"
   xmlns:cc="http://web.resource.org/cc/"
   xmlns:rdf="http://www.w3.org/1999/02/22-rdf-syntax-ns#"
   xmlns:svg="http://www.w3.org/2000/svg"
   xmlns="http://www.w3.org/2000/svg"
   xmlns:xlink="http://www.w3.org/1999/xlink"
   xmlns:sodipodi="http://sodipodi.sourceforge.net/DTD/sodipodi-0.dtd"
   xmlns:inkscape="http://www.inkscape.org/namespaces/inkscape"
   width="790"
   height="200"
   id="svg2"
   sodipodi:version="0.32"
   inkscape:version="0.45.1"
   version="1.0">
  <g
     inkscape:label="Layer 1"
     inkscape:groupmode="layer"
     id="layer1"
     transform="translate(-232.1123,-304.03372)">
    <line
       style="fill:#00367b"
       x1="291.39685"
       y1="177.60512"
       x2="291.41486"
       y2="177.60512"
       id="line283" />
    <rect
       x="232.1123"
       y="304.03372"
       width="789.97021"
       height="200"
       id="rect1125"
       style="fill:#ed6d27" />
    <path
       clip-rule="evenodd"
       d="M 312.96285,393.10887 L 310.63983,393.10887 C 305.63276,393.10887 304.01606,392.76355 304.01606,388.10181 C 304.01606,380.94437 309.57249,375.40364 315.66259,375.40364 C 321.54863,375.40364 326.02203,379.87704 326.02203,386.84612 C 326.02203,392.93621 324.59368,393.10887 314.75221,393.10887 M 350.57077,411.03384 C 357.53985,411.03384 360.5692,407.45513 360.5692,397.25265 C 360.5692,375.41934 342.50296,357.87107 315.66259,357.87107 C 299.009,357.87107 283.43845,365.73483 273.76963,379.34337 C 267.67954,387.92915 264.46183,397.95897 264.46183,408.17715 C 264.46183,435.73954 285.21211,457.41589 314.75221,457.41589 C 326.57139,457.41589 337.13489,454.16679 346.25433,448.09239 C 353.77278,443.06963 357.53985,437.35624 357.53985,432.86715 C 357.53985,427.32642 354.13379,423.57505 350.0214,423.57505 C 345.37535,423.57505 338.37488,431.4388 326.93241,431.4388 C 314.21854,431.4388 304.56543,421.59733 304.56543,413.54522 C 304.56543,411.37916 306.15074,411.03384 310.10616,411.03384 L 350.57077,411.03384 L 350.57077,411.03384 z M 418.39372,399.40302 C 412.49198,398.31998 407.83023,397.78631 404.07885,397.78631 C 381.69618,397.78631 364.69728,411.03384 364.69728,428.03275 C 364.69728,444.51368 376.86178,456.1602 396.38775,456.1602 C 405.31885,456.1602 410.51427,453.99413 416.77702,449.52074 C 418.58207,448.28075 419.83776,446.8367 421.43877,446.8367 C 423.41648,446.8367 425.19014,449.86605 428.5962,453.09946 C 431.64125,455.98754 435.21996,456.89792 440.22703,456.89792 C 457.58694,456.89792 470.3008,445.04734 470.3008,436.44587 C 470.3008,433.41652 468.51144,431.09349 464.93273,430.18311 C 459.73731,428.75477 459.54896,426.24339 459.54896,413.18421 L 459.54896,410.48448 C 459.54896,404.59843 460.09832,397.61366 460.09832,389.7342 C 460.09832,368.79557 445.06143,357.69841 416.60436,357.69841 C 389.21463,357.69841 371.85471,368.79557 371.85471,380.96007 C 371.85471,387.77219 376.68912,392.60659 382.95187,392.60659 C 388.86931,392.60659 393.51536,389.56155 398.71078,383.2831 C 402.82316,378.27603 405.5072,373.80264 410.87528,373.80264 C 416.60436,373.80264 418.73903,378.99805 418.73903,390.44053 C 418.73903,393.10887 418.58207,395.98126 418.39372,399.40302 M 418.22106,417.48495 C 418.22106,429.8378 417.86005,434.84486 411.5816,434.84486 C 406.93555,434.84486 404.42417,431.26615 404.42417,424.28137 C 404.42417,416.93559 407.83023,412.8232 413.57501,412.8232 C 417.6717,412.8232 418.22106,413.18421 418.22106,417.48495 M 557.11606,425.52137 C 557.11606,411.36346 549.06395,402.96604 532.06505,394.36456 C 522.39624,389.54585 516.30614,387.75649 516.30614,383.09474 C 516.30614,380.41071 518.81752,378.26034 521.67422,378.26034 C 527.419,378.26034 530.26,383.2674 535.1101,387.56814 C 538.3278,390.42483 541.35716,391.86888 544.95157,391.86888 C 551.21432,391.86888 555.32671,387.75649 555.32671,381.49374 C 555.32671,370.03557 544.77891,357.85538 537.96679,357.85538 C 535.1101,357.85538 531.70404,360.71207 528.12532,360.71207 C 524.35825,360.71207 519.00587,358.38904 512.36641,358.38904 C 491.7888,358.38904 475.68457,373.06492 475.68457,389.90686 C 475.68457,402.77768 483.73668,413.87484 499.13458,421.58164 C 506.99834,425.52137 512.72742,426.40035 512.72742,432.33348 C 512.72742,434.2955 510.74971,436.24182 507.90871,436.24182 C 503.96899,436.24182 499.29154,433.22816 493.75081,427.31072 C 489.81108,423.19834 486.95439,419.43127 481.2253,419.43127 C 476.02989,419.43127 473.51851,423.19834 473.51851,430.35577 C 473.51851,443.24229 484.44301,455.79919 490.89412,455.79919 C 493.75081,455.79919 496.6232,453.61743 499.29154,453.61743 C 501.97558,453.61743 508.42669,456.88222 519.00587,456.88222 C 542.26753,456.88222 557.11606,443.43064 557.11606,425.52137 M 591.66323,425.89807 C 599.71534,443.44634 605.08342,455.09286 605.08342,462.09333 C 605.08342,466.00167 603.30976,468.16773 600.62572,468.16773 C 596.68599,468.16773 597.75333,462.43865 594.70828,455.81489 C 592.02424,449.86605 586.82883,446.64835 580.39342,446.64835 C 571.61928,446.64835 563.73983,454.35515 563.73983,464.58902 C 563.73983,479.09224 575.198,489.64003 593.45259,489.64003 C 610.98516,489.64003 623.52636,480.33223 633.9172,461.71663 C 644.27664,442.72432 648.95409,419.44697 657.36721,396.71898 C 661.11858,386.86181 662.37427,383.2831 669.72006,380.4264 C 675.08813,378.46439 678.47849,377.02034 678.47849,370.22392 C 678.47849,362.89383 672.04308,359.31511 658.07353,359.31511 C 643.03665,359.31511 635.34555,363.4118 635.34555,370.05126 C 635.34555,375.41934 642.50298,377.38135 642.50298,381.85475 C 642.50298,382.57677 641.78096,386.86181 639.11262,392.60659 C 636.77389,397.78631 634.81188,400.47035 631.59417,400.47035 C 627.8271,400.47035 625.84939,397.78631 623.71472,392.41824 C 621.376,386.68916 620.136,382.92209 620.136,380.96007 C 620.136,377.74236 626.03774,377.38135 626.03774,370.75759 C 626.03774,361.27713 616.72994,359.12676 597.047,359.12676 C 573.23598,359.12676 561.07149,364.49484 561.07149,373.99099 C 561.07149,380.4264 565.16818,381.50943 569.29626,383.6598 C 574.30332,386.15549 575.37066,390.44053 577.88204,395.99696 L 591.66323,425.89807 z M 737.00934,413.35687 C 737.00934,426.5887 732.17493,433.58917 724.65649,433.58917 C 721.7998,433.58917 719.82208,431.59577 719.82208,429.10008 C 719.82208,425.70972 721.07777,422.30366 721.07777,419.07026 C 721.07777,407.62778 712.492,399.02631 700.13915,399.02631 C 688.14731,399.02631 679.37317,407.9731 679.37317,421.39329 C 679.37317,442.88128 698.53814,458.12222 729.31824,458.12222 C 755.45229,458.12222 772.09018,447.71569 778.54128,427.65604 C 782.48101,415.49154 780.86431,393.65823 781.94734,363.05079 C 782.29266,353.91565 782.29266,351.05895 788.1944,347.65289 C 792.49514,345.15721 795.17918,343.90152 795.17918,337.45041 C 795.17918,327.07528 784.09771,324.39124 759.031,324.39124 C 734.15265,324.39124 722.50612,327.96996 722.50612,339.23977 C 722.50612,345.32987 725.73952,346.58556 730.21292,348.54757 C 736.28732,351.05895 737.00934,352.84831 737.00934,363.05079 L 737.00934,413.35687 z M 852.10902,393.10887 L 849.7703,393.10887 C 844.77893,393.10887 843.16223,392.76355 843.16223,388.10181 C 843.16223,380.94437 848.70296,375.40364 854.79306,375.40364 C 860.71049,375.40364 865.16819,379.87704 865.16819,386.84612 C 865.16819,392.93621 863.73985,393.10887 853.89838,393.10887 L 852.10902,393.10887 L 852.10902,393.10887 z M 889.70124,411.03384 C 896.68601,411.03384 899.73106,407.45513 899.73106,397.25265 C 899.73106,375.41934 881.64912,357.87107 854.79306,357.87107 C 838.15516,357.87107 822.56891,365.73483 812.9001,379.34337 C 806.81,387.92915 803.5923,397.95897 803.5923,408.17715 C 803.5923,435.73954 824.35827,457.41589 853.89838,457.41589 C 865.71756,457.41589 876.28105,454.16679 885.4005,448.09239 C 892.93464,443.06963 896.68601,437.35624 896.68601,432.86715 C 896.68601,427.32642 893.26426,423.57505 889.16757,423.57505 C 884.49012,423.57505 877.52104,431.4388 866.06287,431.4388 C 853.36471,431.4388 843.6959,421.59733 843.6959,413.54522 C 843.6959,411.37916 845.2969,411.03384 849.25232,411.03384 L 889.70124,411.03384 L 889.70124,411.03384 z M 916.90262,380.25374 L 916.90262,423.92036 C 916.90262,445.58101 928.36079,457.07058 949.66043,457.07058 C 971.14842,457.07058 986.89163,444.85899 986.89163,435.55119 C 986.89163,429.11578 984.03494,425.34871 980.81723,425.34871 C 976.87751,425.34871 973.47145,428.94312 968.98236,428.94312 C 962.54695,428.94312 959.5019,425.34871 959.5019,418.19128 L 959.5019,385.26081 C 959.5019,380.78741 960.94594,380.96007 965.40364,380.78741 L 979.37319,380.25374 C 985.46329,380.06539 986.71898,379.70438 986.71898,373.08062 L 986.71898,365.21686 C 986.71898,360.38245 985.8243,360.20979 980.62888,360.20979 L 960.75759,360.20979 L 960.75759,351.95363 C 960.75759,341.23318 960.39658,338.01547 952.36016,338.01547 C 943.75869,338.01547 932.30052,346.05189 913.3239,359.31511 C 905.09913,365.0285 902.58775,365.56217 902.58775,372.37429 C 902.58775,380.4264 903.84344,379.89273 916.90262,380.25374"
       id="path1127"
       style="fill:#ffffff;fill-rule:evenodd" />
    <path
       style="fill:#485e88;fill-rule:evenodd"
       clip-rule="evenodd"
       id="path6925"
       d="" />
    <polyline
       style="fill:#005fa2"
       points="533.425,591.132 533.431,591.132 533.433,591.132 533.425,591.132 "
       id="polyline7185"
       transform="translate(-31.494137,-29.336891)" />
  </g>
</svg>
