<?xml version="1.0" encoding="utf-8"?>
<!-- Generator: Adobe Illustrator 14.0.0, SVG Export Plug-In . SVG Version: 6.00 Build 43363)  -->
<!DOCTYPE svg PUBLIC "-//W3C//DTD SVG 1.1//EN" "http://www.w3.org/Graphics/SVG/1.1/DTD/svg11.dtd">
<svg version="1.1" id="Layer_1" xmlns="http://www.w3.org/2000/svg" xmlns:xlink="http://www.w3.org/1999/xlink" x="0px" y="0px"
	 width="332px" height="321px" viewBox="0 0 332 321" enable-background="new 0 0 332 321" xml:space="preserve">
<g>
	<path fill-rule="evenodd" clip-rule="evenodd" fill="#83BC4E" d="M243.5,11.5c-1.585,3.231-2.166,3.75-3.416,5.708
		c-0.78,1.222-2.695,3.277-3.584,4.292c-3.91,4.462-10.218,9.818-15,15c-5.672,6.146-11.649,11.88-18,18
		c-0.997,0.961-1.777,1.928-3,3c-4.845,4.245-11.291,9.236-17,14c-9.378,7.825-19.464,16.273-30,24c-2.335,1.712-4.355,3.06-7,5
		c-37.221,27.295-82.51,50.547-130,69c-3.287,0.729-1.531-1.987,0-2C76.15,99.482,151.132,46.798,243.5,11.5z"/>
	<path fill-rule="evenodd" clip-rule="evenodd" fill="#3769B3" d="M109.5,222.5c-1.02,19.054,2.601,32.683,15,38
		c25.525,10.946,61.911-16.478,71-33c7.048,3.285,11.139,9.528,18,13c-4.819,8.761-11.697,14.269-18,20
		c-13.193,11.997-26.568,20.408-49,26c-16.726,4.169-37.787,6.65-52-2c-3.523-2.145-6.194-5.868-9-9
		c-10.527-11.748-16.722-28.967-15-53c1.318-18.405,9.014-37.259,18-51c2.285-3.494,4.381-6.578,7-10
		c13.164-17.198,38.181-31.773,61-34c30.388-2.965,54.351,13.425,48,42c-1.027,4.622-5.583,12.575-9,17
		c-7.886,10.213-24.233,20.331-39,26C142.442,217.896,125.84,221.737,109.5,222.5z M124.5,175.5c-4.329,7.478-9.5,17.435-11,25
		c26.433-2.829,62.966-12.564,56-45C149.873,141.853,131.916,162.691,124.5,175.5z"/>
	<path fill-rule="evenodd" clip-rule="evenodd" fill="#3769B3" d="M312.5,140.5c-2.959,4.893-5.761,9.093-10,14
		c-0.888,1.027-1.796,3.502-4,3c-6.078-3.936-15.074-8.358-24-7c-8.216,1.25-12.262,7.78-16,13c-2.312,20.548,10.869,27.05,22,40
		c3.719,4.326,6.997,10.271,10,16c4.568,8.715,8.635,16.865,7,31c-3.956,34.199-52.058,48.771-87,34c-6.73-2.845-12.079-6.327-18-10
		c1.921-3.902,5.912-6.263,9-9c3.042-2.696,5.817-5.462,9-8c5.609,1.756,10.91,7.739,18,9c16.402,2.918,34.147-5.659,32-26
		c-1.142-10.815-10.902-18.865-19-28c-8.785-9.91-19.833-21.299-21-37c-1.111-14.947,6.749-29.542,17-38c0.75-0.619,1.355-0.382,2-1
		c3.395-3.252,17.743-8.147,26-9C285.65,125.419,300.476,131.294,312.5,140.5z"/>
</g>
</svg>
