<?xml version="1.0" encoding="UTF-8"?>
<!-- Generator: Adobe Illustrator 20.1.0, SVG Export Plug-In . SVG Version: 6.00 Build 0)  -->
<svg version="1.1" id="Calque_1" xmlns="http://www.w3.org/2000/svg" xmlns:xlink="http://www.w3.org/1999/xlink" x="0px" y="0px" viewBox="0 0 155.9 53.4" style="enable-background:new 0 0 155.9 53.4;" xml:space="preserve">
<style type="text/css">
	.st0{fill:#F4A41D;}
	.st1{fill:#E00F21;}
	.st2{fill:#F4AE38;stroke:#F4AE38;stroke-width:0.5;stroke-miterlimit:10;}
</style>
<g>
	<g>
		<path class="st0" d="M137.7,32l-8.4-9.2c-0.7-0.7-1.8-1.1-2.7-1.1h-5h-0.5c-1,0-1.9,0.4-2.5,1.1l-7.5,9.1c-1,1.2-0.9,3,0.1,4.4    l2.5,3.4l4.8-6.3V46l4.7,5.9c0.8,1,2,1.6,3.1,1.6c0.3,0,0.6,0,0.8-0.1c1.4-0.3,2.4-1.5,2.5-3l0.1-0.7V33.1l5.7,6.9l2.4-3.6    C139,35.1,138.8,33.2,137.7,32z"/>
		<g>
			<path class="st1" d="M0,9.6L0,9.6C0,4,4-0.2,9.6-0.2c6.6,0,9.7,4.6,9.7,10.2c0,0.4,0,1.3,0,1.3h-12c0.5,1.7,1.8,2.5,3.5,2.5     c1.4,0,2.6-0.6,3.8-1.9l4.2,3.3c-1.8,2.4-4.5,4-8.5,4C4.2,19.2,0,15.4,0,9.6z M12.3,7.8C12.1,6.1,11.1,5,9.7,5     c-1.3,0-2.2,1-2.5,2.8H12.3z"/>
			<path class="st1" d="M20.8,0h7.8v2.8c0.9-1.5,3.1-3,5.7-3c3.9,0,6.4,2.6,6.4,6.7v12.5h-7.8V9c0-1.6-1-2.5-2.1-2.5     c-1.2,0-2.2,0.9-2.2,2.5v10h-7.8V0z"/>
			<path class="st1" d="M41.6,9.6L41.6,9.6c0-5.6,4.1-9.8,9.7-9.8C57.9-0.2,61,4.4,61,10c0,0.4,0,1.3,0,1.3H49     c0.5,1.7,1.8,2.5,3.5,2.5c1.4,0,2.6-0.6,3.8-1.9l4.2,3.3c-1.8,2.4-4.6,4-8.6,4C45.8,19.2,41.6,15.4,41.6,9.6z M54,7.8     C53.8,6.1,52.8,5,51.4,5c-1.3,0-2.2,1-2.5,2.8H54z"/>
			<path class="st1" d="M62.4,0h7.8v4c0.9-2.5,2.6-4.1,6.1-4v7.8h-1.1c-3.3,0-5,2.1-5,6.2v5h-7.8V0z"/>
			<path class="st1" d="M76.2,9.6L76.2,9.6c0-5.2,4.2-9.8,10.2-9.8c4.1,0,7,2.1,8.5,5.1l-5.5,3.1c-0.6-1.2-1.4-1.9-2.6-1.9     c-1.6,0-2.7,1.4-2.7,3.3v0.1c0,1.9,1.1,3.3,2.7,3.3c1.4,0,2.1-0.7,2.8-1.9l5.6,3.2c-1.7,3.1-4.6,5-9,5     C80.4,19.2,76.2,14.8,76.2,9.6z"/>
			<path class="st1" d="M94.4,9.6L94.4,9.6c0-5.3,4.3-9.7,10.4-9.7c6.1,0,10.4,4.4,10.4,9.6v0.1c0,5.2-4.3,9.7-10.4,9.7     C98.7,19.2,94.4,14.8,94.4,9.6z M108.3,9.6L108.3,9.6c0-1.9-1.4-3.4-3.1-3.4c-1.7,0-3,1.5-3,3.2v0.1c0,1.8,1.4,3.3,3.1,3.3     C107,12.8,108.3,11.3,108.3,9.6z"/>
		</g>
		<ellipse class="st0" cx="123.8" cy="9.7" rx="10" ry="9.9"/>
		<g>
			<path class="st1" d="M135.1,0h6.9v2.5c1.7-1.4,2.9-2.7,5.7-2.7c4.5,0,8.2,3.9,8.2,9.5v0.1c0,5.9-3.7,9.8-8.1,9.8     c-2.8,0-4-1.2-5.8-2.5v7.6h-6.9V0z M148.1,9.5L148.1,9.5c0-1.9-1.3-3.4-3-3.4c-1.8,0-3,1.5-3,3.3v0.1c0,1.8,1.3,3.3,3,3.3     C146.9,12.9,148.1,11.4,148.1,9.5z"/>
		</g>
	</g>
	<g>
		<path class="st2" d="M1.4,27.2h2.3v8.3h5.2v2.1H1.4V27.2z"/>
		<path class="st2" d="M9.8,31c1-0.1,1.5-0.6,1.4-1.5h-0.9v-2.4h2.4v2c0,1-0.2,1.7-0.7,2.1c-0.5,0.4-1.1,0.6-2,0.7L9.8,31z"/>
		<path class="st2" d="M18.3,37.7c-0.6,0-1.1-0.1-1.6-0.3c-0.5-0.2-0.9-0.5-1.3-0.8c-0.4-0.4-0.7-0.8-0.9-1.3    c-0.2-0.5-0.3-1.1-0.3-1.7v0c0-0.6,0.1-1.1,0.3-1.6c0.2-0.5,0.5-0.9,0.8-1.3c0.3-0.4,0.8-0.7,1.2-0.9c0.5-0.2,1-0.3,1.6-0.3    c0.7,0,1.2,0.1,1.7,0.4c0.5,0.2,0.9,0.6,1.2,1c0.3,0.4,0.6,0.9,0.7,1.4c0.2,0.5,0.2,1.1,0.2,1.6c0,0.1,0,0.2,0,0.3    c0,0.1,0,0.2,0,0.3h-5.5c0.1,0.5,0.3,0.9,0.7,1.2c0.3,0.3,0.8,0.4,1.3,0.4c0.4,0,0.7-0.1,1-0.2c0.3-0.1,0.6-0.3,0.9-0.6l1.3,1.1    c-0.4,0.5-0.8,0.8-1.4,1.1C19.6,37.6,19,37.7,18.3,37.7z M19.7,33c-0.1-0.5-0.2-0.9-0.5-1.2c-0.3-0.3-0.7-0.5-1.1-0.5    c-0.5,0-0.9,0.2-1.1,0.5c-0.3,0.3-0.5,0.7-0.6,1.2H19.7z M18.8,26.1l1.9,0.8l-1.9,1.8h-1.7L18.8,26.1z"/>
		<path class="st2" d="M23.6,29.6h2.2v1.1c0.1-0.2,0.3-0.3,0.4-0.5c0.2-0.2,0.3-0.3,0.5-0.4c0.2-0.1,0.4-0.2,0.6-0.3    c0.2-0.1,0.5-0.1,0.8-0.1c0.9,0,1.5,0.3,2,0.8c0.5,0.5,0.7,1.2,0.7,2.2v5.1h-2.2v-4.4c0-0.5-0.1-0.9-0.4-1.2    c-0.2-0.3-0.6-0.4-1-0.4c-0.4,0-0.8,0.1-1,0.4c-0.3,0.3-0.4,0.7-0.4,1.2v4.4h-2.2V29.6z"/>
		<path class="st2" d="M36.6,37.7c-0.6,0-1.1-0.1-1.6-0.3c-0.5-0.2-0.9-0.5-1.3-0.8c-0.4-0.4-0.7-0.8-0.9-1.3    c-0.2-0.5-0.3-1.1-0.3-1.7v0c0-0.6,0.1-1.1,0.3-1.6c0.2-0.5,0.5-0.9,0.8-1.3c0.3-0.4,0.8-0.7,1.2-0.9c0.5-0.2,1-0.3,1.6-0.3    c0.7,0,1.2,0.1,1.7,0.4c0.5,0.2,0.9,0.6,1.2,1c0.3,0.4,0.6,0.9,0.7,1.4c0.2,0.5,0.2,1.1,0.2,1.6c0,0.1,0,0.2,0,0.3    c0,0.1,0,0.2,0,0.3h-5.5c0.1,0.5,0.3,0.9,0.7,1.2c0.3,0.3,0.8,0.4,1.3,0.4c0.4,0,0.7-0.1,1-0.2c0.3-0.1,0.6-0.3,0.9-0.6l1.3,1.1    c-0.4,0.5-0.8,0.8-1.4,1.1C37.9,37.6,37.3,37.7,36.6,37.7z M38,33c-0.1-0.5-0.2-0.9-0.5-1.2c-0.3-0.3-0.7-0.5-1.1-0.5    c-0.5,0-0.9,0.2-1.1,0.5c-0.3,0.3-0.5,0.7-0.6,1.2H38z"/>
		<path class="st2" d="M41.9,29.6h2.2v1.6c0.2-0.5,0.5-1,0.9-1.3c0.4-0.3,0.9-0.5,1.6-0.4v2.3h-0.1c-0.7,0-1.3,0.2-1.8,0.7    c-0.4,0.5-0.6,1.2-0.6,2.1v2.9h-2.2V29.6z"/>
		<path class="st2" d="M51.6,39.9c-0.7,0-1.3-0.1-1.9-0.2c-0.6-0.1-1.1-0.3-1.6-0.6l0.8-1.7c0.4,0.2,0.8,0.4,1.2,0.5    c0.4,0.1,0.9,0.2,1.4,0.2c0.8,0,1.3-0.2,1.7-0.5c0.4-0.4,0.6-0.9,0.6-1.6v-0.4c-0.3,0.4-0.7,0.7-1.1,0.9c-0.4,0.2-0.9,0.3-1.5,0.3    c-0.5,0-0.9-0.1-1.3-0.2c-0.4-0.2-0.8-0.4-1.1-0.7c-0.3-0.3-0.6-0.7-0.8-1.2c-0.2-0.5-0.3-1-0.3-1.6v0c0-0.6,0.1-1.1,0.3-1.6    c0.2-0.5,0.5-0.8,0.8-1.2c0.3-0.3,0.7-0.6,1.1-0.7c0.4-0.2,0.9-0.2,1.3-0.2c0.6,0,1.1,0.1,1.5,0.3c0.4,0.2,0.7,0.5,1,0.8v-1H56    v6.1c0,1.4-0.3,2.4-1,3.1c-0.4,0.4-0.8,0.6-1.4,0.8C53,39.9,52.4,39.9,51.6,39.9z M51.9,35c0.3,0,0.5,0,0.8-0.1    c0.2-0.1,0.4-0.2,0.6-0.4c0.2-0.2,0.3-0.4,0.4-0.6c0.1-0.2,0.1-0.5,0.1-0.7v0c0-0.3,0-0.5-0.1-0.7c-0.1-0.2-0.2-0.4-0.4-0.6    c-0.2-0.2-0.4-0.3-0.6-0.4c-0.2-0.1-0.5-0.1-0.8-0.1c-0.3,0-0.5,0-0.8,0.1c-0.2,0.1-0.4,0.2-0.6,0.4c-0.2,0.2-0.3,0.4-0.4,0.6    c-0.1,0.2-0.1,0.5-0.1,0.7v0c0,0.6,0.2,1,0.5,1.3C50.9,34.9,51.3,35,51.9,35z"/>
		<path class="st2" d="M58.1,26.8h2.4v2h-2.4V26.8z M58.1,29.6h2.2v7.9h-2.2V29.6z"/>
		<path class="st2" d="M66.2,37.7c-0.6,0-1.1-0.1-1.6-0.3c-0.5-0.2-0.9-0.5-1.3-0.8c-0.4-0.4-0.7-0.8-0.9-1.3    c-0.2-0.5-0.3-1.1-0.3-1.7v0c0-0.6,0.1-1.1,0.3-1.6c0.2-0.5,0.5-0.9,0.8-1.3c0.3-0.4,0.8-0.7,1.2-0.9c0.5-0.2,1-0.3,1.6-0.3    c0.7,0,1.2,0.1,1.7,0.4c0.5,0.2,0.9,0.6,1.2,1c0.3,0.4,0.6,0.9,0.7,1.4c0.2,0.5,0.2,1.1,0.2,1.6c0,0.1,0,0.2,0,0.3    c0,0.1,0,0.2,0,0.3h-5.5c0.1,0.5,0.3,0.9,0.7,1.2c0.3,0.3,0.8,0.4,1.3,0.4c0.4,0,0.7-0.1,1-0.2c0.3-0.1,0.6-0.3,0.9-0.6l1.3,1.1    c-0.4,0.5-0.8,0.8-1.4,1.1C67.6,37.6,67,37.7,66.2,37.7z M67.7,33c-0.1-0.5-0.2-0.9-0.5-1.2c-0.3-0.3-0.7-0.5-1.1-0.5    c-0.5,0-0.9,0.2-1.1,0.5c-0.3,0.3-0.5,0.7-0.6,1.2H67.7z"/>
		<path class="st2" d="M1.3,42.8h2.2v1.1c0.1-0.2,0.3-0.3,0.4-0.5c0.2-0.2,0.3-0.3,0.5-0.4c0.2-0.1,0.4-0.2,0.6-0.3    c0.2-0.1,0.5-0.1,0.8-0.1c0.5,0,1,0.1,1.4,0.3c0.4,0.2,0.7,0.5,0.9,0.9c0.3-0.4,0.7-0.7,1.2-0.9c0.4-0.2,0.9-0.3,1.4-0.3    c0.8,0,1.5,0.2,2,0.7c0.5,0.5,0.7,1.2,0.7,2.2v5.2h-2.2v-4.4c0-0.5-0.1-0.9-0.3-1.2c-0.2-0.3-0.6-0.4-1-0.4c-0.4,0-0.8,0.1-1,0.4    c-0.2,0.3-0.4,0.7-0.4,1.2v4.4H6.2v-4.4c0-0.5-0.1-0.9-0.3-1.2c-0.2-0.3-0.6-0.4-1-0.4c-0.4,0-0.8,0.1-1,0.4    c-0.2,0.3-0.4,0.7-0.4,1.2v4.4H1.3V42.8z"/>
		<path class="st2" d="M15.4,39.9h2.4v2h-2.4V39.9z M15.4,42.8h2.2v7.9h-2.2V42.8z"/>
		<path class="st2" d="M19.9,39.9h2.2v10.8h-2.2V39.9z"/>
		<path class="st2" d="M24.3,39.9h2.4v2h-2.4V39.9z M24.3,42.8h2.2v7.9h-2.2V42.8z"/>
		<path class="st2" d="M31.4,50.8c-0.3,0-0.7,0-0.9-0.1c-0.3-0.1-0.5-0.2-0.7-0.4c-0.2-0.2-0.4-0.4-0.5-0.7    c-0.1-0.3-0.2-0.7-0.2-1.1v-3.8h-0.9v-1.9h0.9v-2h2.2v2h1.9v1.9h-1.9v3.4c0,0.5,0.2,0.8,0.7,0.8c0.4,0,0.8-0.1,1.1-0.3v1.8    c-0.2,0.1-0.5,0.2-0.8,0.3C32.1,50.8,31.7,50.8,31.4,50.8z"/>
		<path class="st2" d="M37.1,50.8c-0.4,0-0.7-0.1-1.1-0.2c-0.3-0.1-0.6-0.3-0.9-0.5c-0.2-0.2-0.4-0.5-0.6-0.8    c-0.1-0.3-0.2-0.6-0.2-1v0c0-0.4,0.1-0.8,0.2-1.1c0.2-0.3,0.4-0.6,0.7-0.8c0.3-0.2,0.6-0.4,1-0.5c0.4-0.1,0.8-0.2,1.3-0.2    c0.4,0,0.8,0,1.1,0.1c0.3,0.1,0.6,0.1,0.9,0.2V46c0-0.5-0.1-0.8-0.4-1.1c-0.3-0.2-0.7-0.4-1.3-0.4c-0.4,0-0.8,0-1.1,0.1    c-0.3,0.1-0.7,0.2-1,0.3L35,43.3c0.4-0.2,0.9-0.3,1.4-0.5c0.5-0.1,1-0.2,1.7-0.2c0.6,0,1.1,0.1,1.6,0.2c0.4,0.2,0.8,0.4,1.1,0.7    c0.3,0.3,0.5,0.7,0.7,1.1c0.1,0.4,0.2,0.9,0.2,1.4v4.6h-2.2v-0.9c-0.3,0.3-0.6,0.5-1,0.7C38.1,50.7,37.6,50.8,37.1,50.8z     M37.8,49.3c0.5,0,1-0.1,1.3-0.4c0.3-0.3,0.5-0.6,0.5-1v-0.4c-0.2-0.1-0.4-0.2-0.7-0.2c-0.2-0.1-0.5-0.1-0.8-0.1    c-0.5,0-0.9,0.1-1.1,0.3c-0.3,0.2-0.4,0.5-0.4,0.8v0c0,0.3,0.1,0.5,0.3,0.7C37.1,49.2,37.4,49.3,37.8,49.3z"/>
		<path class="st2" d="M43.6,42.8h2.2v1.1c0.1-0.2,0.3-0.3,0.4-0.5c0.2-0.2,0.3-0.3,0.5-0.4c0.2-0.1,0.4-0.2,0.6-0.3    c0.2-0.1,0.5-0.1,0.8-0.1c0.9,0,1.5,0.3,2,0.8c0.5,0.5,0.7,1.2,0.7,2.2v5.1h-2.2v-4.4c0-0.5-0.1-0.9-0.4-1.2    c-0.2-0.3-0.6-0.4-1-0.4c-0.4,0-0.8,0.1-1,0.4c-0.3,0.3-0.4,0.7-0.4,1.2v4.4h-2.2V42.8z"/>
		<path class="st2" d="M55.5,50.8c-0.3,0-0.7,0-0.9-0.1c-0.3-0.1-0.5-0.2-0.7-0.4c-0.2-0.2-0.4-0.4-0.5-0.7    c-0.1-0.3-0.2-0.7-0.2-1.1v-3.8h-0.9v-1.9h0.9v-2h2.2v2h1.9v1.9h-1.9v3.4c0,0.5,0.2,0.8,0.7,0.8c0.4,0,0.8-0.1,1.1-0.3v1.8    c-0.2,0.1-0.5,0.2-0.8,0.3C56.2,50.8,55.8,50.8,55.5,50.8z"/>
		<path class="st2" d="M62.7,50.9c-0.6,0-1.1-0.1-1.6-0.3c-0.5-0.2-0.9-0.5-1.3-0.8c-0.4-0.4-0.7-0.8-0.9-1.3    c-0.2-0.5-0.3-1.1-0.3-1.7v0c0-0.6,0.1-1.1,0.3-1.6c0.2-0.5,0.5-0.9,0.8-1.3c0.3-0.4,0.8-0.7,1.2-0.9c0.5-0.2,1-0.3,1.6-0.3    c0.7,0,1.2,0.1,1.7,0.4c0.5,0.2,0.9,0.6,1.2,1c0.3,0.4,0.6,0.9,0.7,1.4c0.2,0.5,0.2,1.1,0.2,1.6c0,0.1,0,0.2,0,0.3    c0,0.1,0,0.2,0,0.3h-5.5c0.1,0.5,0.3,0.9,0.7,1.2c0.3,0.3,0.8,0.4,1.3,0.4c0.4,0,0.7-0.1,1-0.2c0.3-0.1,0.6-0.3,0.9-0.6l1.3,1.1    c-0.4,0.5-0.8,0.8-1.4,1.1C64,50.7,63.4,50.9,62.7,50.9z M64.1,46.1c-0.1-0.5-0.2-0.9-0.5-1.2c-0.3-0.3-0.7-0.5-1.1-0.5    c-0.5,0-0.9,0.2-1.1,0.5c-0.3,0.3-0.5,0.7-0.6,1.2H64.1z"/>
	</g>
	<path class="st0" d="M137.7,32l-8.4-9.2c-0.7-0.7-1.8-1.1-2.7-1.1h-5h-0.5c-1,0-1.9,0.4-2.5,1.1l-7.5,9.1c-1,1.2-0.9,3,0.1,4.4   l2.5,3.4l4.8-6.3V46l4.7,5.9c0.8,1,2,1.6,3.1,1.6c0.3,0,0.6,0,0.8-0.1c1.4-0.3,2.4-1.5,2.5-3l0.1-0.7V33.1l5.7,6.9l2.4-3.6   C139,35.1,138.8,33.2,137.7,32z"/>
	<ellipse class="st0" cx="123.8" cy="9.7" rx="10" ry="9.9"/>
</g>
</svg>