<?xml version="1.0" encoding="utf-8"?>
<!-- Generator: Adobe Illustrator 18.1.1, SVG Export Plug-In . SVG Version: 6.00 Build 0)  -->
<svg version="1.1" id="Calque_1" xmlns="http://www.w3.org/2000/svg" xmlns:xlink="http://www.w3.org/1999/xlink" x="0px" y="0px"
	 viewBox="0 0 500 142" enable-background="new 0 0 500 142" xml:space="preserve">
<g>
	<path fill="#88C648" d="M44.3,69c-0.7-0.7-1.6-0.4-2,0.3l-13.2,70.7c-0.3,1.1,1.3,1.6,2,0.7l31.2-44.1c0.7-0.7,0.7-1.6,0-2.6
		L44.3,69z"/>
	<path fill="#88C648" d="M130.3,39.4H91.1c-0.7,0-1.1,0.7-1.1,1.3l3,15.8c0,0.7,0.7,1.1,1.3,0.7l36.2-15.8
		C131.6,40.7,131.2,39.4,130.3,39.4z"/>
	<path fill="#88C648" d="M84.9,40c0-0.4-0.7-0.7-1.1-0.7H2.2c-0.9,0-1.3,1.7-0.4,2L43,59.1c0.9,0.3,2,1.3,2.6,2l56.3,79.2
		c0.7,1.1,2,0.3,2-0.7L84.9,40z"/>
	<path fill="#88C648" d="M48.3,27.9l36.6-11.6c2.6-0.7,2.4-1.6-0.3-2l-7.5-0.7L68.4,0.6c-0.4-0.7-1.1-0.7-1.7-0.4L51.3,10.4
		c-0.3,0.3-0.7,0.7-0.7,1.3l2,10.5l-5.3,3.9C45.4,27.9,45.7,28.6,48.3,27.9z"/>
</g>
<g>
	<g>
		<path fill="#232323" d="M210.5,88.5c-14.5,0-24.7-10.8-24.7-23.9v-0.3c0-13.4,10.1-24.3,24.7-24.3c14.5,0,24.7,10.8,24.7,23.9v0.3
			C235.1,77.5,225,88.5,210.5,88.5 M222,64.1c0-6.8-4.3-12.9-11.6-12.9c-7.6,0-11.6,5.9-11.6,12.9v0.3c0,6.8,4.2,12.9,11.6,12.9
			C218,76.9,222,71,222,64.1L222,64.1z"/>
		<path fill="#232323" d="M297.6,50.6v-9.9h-13.2V27.5h-13.2v13.2H268l0,0h-1.3c-7.9-0.3-12.1,2.9-14.7,7.2l0.3-7.2h-13.8v46.1h13.2
			V68.3c0-11.2,5.9-17.8,14.7-17.8h5l0,0l0,0V74c0,10.8,6.6,14.2,14.7,14.2c4.2,0,8.2-0.9,11.6-2.6V75c-3.3,0.9-5.3,1.6-7.6,1.6
			c-2.9,0-5.5-1.6-5.5-4.6V50.6H297.6z"/>
		<path fill="#232323" d="M330.5,86.7v-5.9c-3.3,3.9-6.8,7.6-13.8,7.6c-9.9,0-15.8-6.6-15.8-17.4V40.8h13.2v25.9
			c0,6.3,2.9,9.5,8.2,9.5c5,0,8.2-3.3,8.2-9.5V40.7h13.2v46.1H330.5z"/>
		<path fill="#232323" d="M379.9,86.7V61.5c0-6.3-2.9-9.5-8.2-9.5c-5,0-8.2,3.3-8.2,9.5v25.4h-13.2V40.8h13.2v6.6
			c3.3-3.9,6.8-7.6,13.8-7.6c9.9,0,15.8,6.6,15.8,17.5v29.6h-13.3V86.7z"/>
		<path fill="#232323" d="M442.4,70.3h-31.3c1.3,3.3,5.5,8.6,11.6,8.6c4.6,0,7.6-1.6,11.2-5.3l7.6,6.6c-4.3,5.3-11.6,8.6-19.7,8.6
			c-14.2,0-25.3-9.9-25.3-24.3v-0.3c0-13.4,9.5-24.3,23.4-24.3c15.5,0,22.6,12.1,22.6,25.4v2v3.2H442.4z M421.1,50.6
			c-5.5,0-9.2,3.3-10.3,9.9h20.1C430.3,53.8,426.6,50.6,421.1,50.6"/>
		<path fill="#232323" d="M472,88.7c-14.5,0-26.3-10.8-26.3-24.1v-0.3C445.7,51,457.5,40,472,40s26.3,10.8,26.3,23.9v0.3
			C498.3,77.9,486.4,88.7,472,88.7 M485.1,64.4c0-6.8-5.9-12.9-13.2-12.9c-7.6,0-13.2,5.9-13.2,12.9v0.3c0,7,5.9,12.9,13.2,12.9
			C479.6,77.5,485.1,71.6,485.1,64.4L485.1,64.4z"/>
	</g>
	<g>
		<path fill="#232323" d="M182.9,117.4c0,3.9-2.2,5.9-5,6.8c3.7,1.1,6.6,3,6.6,6.8c0,5.3-4.2,7.9-11.2,7.9h-13.8v-29.5h13.4
			C178.9,109.8,182.9,113.1,182.9,117.4z M179.6,117.7c0-2.9-2.2-4.6-6.8-4.6h-9.9v9.9h9.6C176.6,122.9,179.6,121.3,179.6,117.7z
			 M181.2,131.2c0-3.3-2.6-5-8.2-5h-10.1v9.9h10.9C178.3,136.1,181.2,134.5,181.2,131.2z"/>
		<path fill="#232323" d="M218,139.4h-3.6l-3.6-6.6h-16.8l-3.7,6.6h-3.6l13.8-29.6h3.3L218,139.4z M202.6,114.1l-6.8,15.5h13.8
			L202.6,114.1z"/>
		<path fill="#232323" d="M245,109.8h3.3v29.6h-2.6L225.3,115v24.3H222v-29.6h3.6l19.5,23.9V109.8z"/>
		<path fill="#232323" d="M285.5,138.5l-2.2,2.6l-3.9-3.7c-2.6,2-5.9,3.3-9.5,3.3c-9.2,0-15.5-7.2-15.5-15.8s6.3-15.8,15.5-15.8
			c9.2,0,15.4,7.2,15.4,15.8c0,3.9-1.3,7.5-3.6,10.1L285.5,138.5z M270.7,130.2l2.4-2.6l5.5,5.3c1.6-2.4,2.6-5,2.6-7.9
			c0-6.8-5-12.5-12.1-12.5c-6.8,0-11.8,5.5-11.8,12.5c0,6.8,5,12.5,12.1,12.5c2.6,0,5.3-1.1,6.8-2.4L270.7,130.2z"/>
		<path fill="#232323" d="M314.1,126.9c0,8.9-3.9,13.4-11.6,13.4c-7.6,0-11.6-4.6-11.6-13.2v-17.4h3.3v17.1c0,6.6,2.2,10.3,8.2,10.3
			c5.5,0,8.2-3.3,8.2-10.3v-17.1h3.3v17.1H314.1z"/>
		<path fill="#232323" d="M343.7,113.1h-19.7v9.9h19.7v3.3h-19.7v9.9h19.7v3.3h-23v-29.6h23V113.1z"/>
	</g>
	<path fill="#232323" d="M177,34.1c-2.9,0-4.2,1.3-4.2,4.6v2h9.9v9.9h-9.9v36.2h-13.2V50.6H153v-9.9h6.6v-2.9
		c0-10.3,4.6-15.1,14.2-15.1c4.3,0,8.9,0.7,8.9,1.3v10.1h-6.6"/>
</g>
</svg>
