<?xml version="1.0" encoding="utf-8"?>
<!-- Generator: Adobe Illustrator 19.1.0, SVG Export Plug-In . SVG Version: 6.00 Build 0)  -->
<svg version="1.2" baseProfile="tiny" id="Calque_1"
	 xmlns="http://www.w3.org/2000/svg" xmlns:xlink="http://www.w3.org/1999/xlink" x="0px" y="0px" viewBox="0 0 283.5 80.9"
	 xml:space="preserve">
<g>
	<path fill="#88C648" d="M24.7,39.5c-0.3-0.4-1-0.3-1,0.2L16,80.2c-0.1,0.6,0.7,1,1,0.4l17.9-25.2c0.3-0.4,0.3-1,0-1.5L24.7,39.5z"
		/>
	<path fill="#88C648" d="M73.8,22.6H51.3c-0.4,0-0.6,0.3-0.6,0.7l1.7,9c0.1,0.4,0.5,0.6,0.8,0.4l20.8-9
		C74.6,23.5,74.4,22.6,73.8,22.6z"/>
	<path fill="#88C648" d="M47.9,23.1c-0.1-0.3-0.3-0.5-0.6-0.5H0.6c-0.6,0-0.8,0.9-0.2,1.1L24,34c0.6,0.3,1.1,0.7,1.5,1.2l32.2,45.4
		c0.4,0.5,1.2,0.2,1.1-0.5L47.9,23.1z"/>
	<path fill="#88C648" d="M26.8,16l20.9-6.7c1.4-0.5,1.4-0.9-0.1-1.1l-4.2-0.4l-4.9-7.6c-0.2-0.3-0.6-0.4-1-0.2l-8.9,5.8
		c-0.2,0.2-0.4,0.4-0.3,0.7l1.2,5.9l-3.1,2.5C25.2,16,25.4,16.4,26.8,16z"/>
</g>
<g>
	<g>
		<path fill="#232323" d="M118.6,50c-8.3,0-14.4-6.1-14.4-13.8V36c0-7.7,6.2-13.9,14.5-13.9c8.3,0,14.4,6.1,14.4,13.8V36
			C133.1,43.7,126.9,50,118.6,50 M125.6,36c0-3.9-2.8-7.4-7-7.4c-4.3,0-6.9,3.3-6.9,7.3V36c0,3.9,2.8,7.4,7,7.4
			C123,43.4,125.6,40.1,125.6,36L125.6,36z"/>
		<path fill="#232323" d="M168.4,29.1v-6.5h-6.3v-6.8h-7.6v6.8h-2l0,0l-1,0c-4.5-0.2-7.1,1.7-8.5,4.2l0-4.2h-7.6v26.8h7.6V38.5
			c0-6.4,3.1-9.4,8.1-9.4h2.2v0h1.1v12.7c0,6.2,3.1,8,7.8,8c2.5,0,4.4-0.6,6-1.5v-6.1c-1.1,0.6-2.3,0.9-3.7,0.9
			c-1.7,0-2.4-0.8-2.4-2.6V29.1H168.4z"/>
		<path fill="#232323" d="M188.1,49.4v-3.8c-1.7,2.2-4,4.3-7.8,4.3c-5.7,0-9.1-3.8-9.1-9.9V22.6h7.6v14.9c0,3.6,1.7,5.4,4.6,5.4
			c2.9,0,4.7-1.8,4.7-5.4V22.6h7.6v26.8H188.1z"/>
		<path fill="#232323" d="M216.7,49.4V34.4c0-3.6-1.7-5.4-4.6-5.4c-2.9,0-4.7,1.8-4.7,5.4v14.9h-7.6V22.6h7.6v3.8
			c1.7-2.2,4-4.3,7.8-4.3c5.7,0,9.1,3.8,9.1,9.9v17.3H216.7z"/>
		<path fill="#232323" d="M252.8,38.9h-18.6c0.7,3.4,3.1,5.2,6.5,5.2c2.5,0,4.4-0.8,6.5-2.7l4.3,3.8c-2.5,3.1-6.1,5-10.9,5
			c-8,0-14-5.6-14-13.8v-0.1c0-7.6,5.4-13.9,13.2-13.9c8.9,0,13,6.9,13,14.5V37C252.9,37.7,252.9,38.2,252.8,38.9 M239.9,28.4
			c-3.1,0-5.2,2.2-5.8,5.7h11.4C245.1,30.7,243.1,28.4,239.9,28.4"/>
		<path fill="#232323" d="M268.9,50.2c-8.3,0-14.4-6.1-14.4-13.8v-0.1c0-7.7,6.2-13.9,14.5-13.9c8.3,0,14.4,6.1,14.4,13.8v0.1
			C283.5,44,277.3,50.2,268.9,50.2 M276,36.3c0-3.9-2.8-7.4-7-7.4c-4.3,0-6.9,3.3-6.9,7.3v0.1c0,3.9,2.8,7.4,7,7.4
			c4.3,0,6.9-3.3,6.9-7.3V36.3z"/>
	</g>
	<g>
		<path fill="#232323" d="M103.3,66.4c0,2.3-1.4,3.5-2.8,4.1c2.1,0.6,3.8,1.8,3.8,4.3c0,3-2.5,4.8-6.4,4.8h-7.8V62.1h7.5
			C101.1,62.1,103.3,63.8,103.3,66.4z M101.3,66.7c0-1.7-1.4-2.9-3.9-2.9h-5.3v6h5.2C99.7,69.9,101.3,68.8,101.3,66.7z M102.3,74.7
			c0-1.9-1.6-3-4.7-3h-5.5v6.2H98C100.6,77.8,102.3,76.6,102.3,74.7z"/>
		<path fill="#232323" d="M123.6,79.6h-2.1l-2-4.6h-9.5l-2.1,4.6h-2l8-17.6h1.8L123.6,79.6z M114.6,64.2l-4,8.9h8L114.6,64.2z"/>
		<path fill="#232323" d="M138.9,62.1h1.9v17.5h-1.6l-11.3-14.4v14.4H126V62.1h1.8l11,14V62.1z"/>
		<path fill="#232323" d="M162.1,78.6l-1.4,1.5l-2.3-2.1c-1.5,1.2-3.4,1.9-5.5,1.9c-5.3,0-8.9-4.2-8.9-9s3.6-9.1,9-9.1
			c5.3,0,8.9,4.2,8.9,9c0,2.2-0.8,4.3-2.1,5.9L162.1,78.6z M153.7,74l1.3-1.5l3.2,2.9c0.9-1.2,1.5-2.8,1.5-4.6c0-4-2.9-7.3-6.9-7.3
			c-4,0-6.9,3.2-6.9,7.2s2.9,7.3,6.9,7.3c1.5,0,3-0.5,4-1.3L153.7,74z"/>
		<path fill="#232323" d="M179.4,72.1c0,5.1-2.9,7.8-7.3,7.8c-4.3,0-7.3-2.7-7.3-7.6V62.1h2v10.1c0,3.8,2,5.9,5.4,5.9
			c3.2,0,5.3-2,5.3-5.8V62.1h2V72.1z"/>
		<path fill="#232323" d="M195.7,63.9H185v6h9.6v1.8H185v6.1h10.8v1.8h-12.8V62.1h12.7V63.9z"/>
	</g>
	<path fill="#232323" d="M100.4,18.7c-1.7,0-2.7,0.9-2.7,2.9v1h6.1v6.2h-6l0,20.6h-7.6V28.8H87v-6.2h3.1v-1.7c0-5.9,2.9-8.6,8.3-8.6
		c2.4,0,4,0.3,5.4,0.7v5.6C102.7,18.6,101.7,18.7,100.4,18.7"/>
</g>
</svg>
