<svg xmlns="http://www.w3.org/2000/svg" xmlns:xlink="http://www.w3.org/1999/xlink" viewBox="0 0 425.781 67.188" preserveAspectRatio="xMinYMid">
  <defs>
    <path id="a" d="M6.692 6.426H418.6v54.896H6.692z"/>
  </defs>
  <clipPath id="b">
    <use xlink:href="#a" overflow="visible"/>
  </clipPath>
  <path clip-path="url(#b)" fill="#C12129" d="M165.706 32.506l.028-21.52c13.496 0 18.45-.678 20.798 15.868h1.422V8.44l-36.74.016v2.532h6.36V58.35h-7.01v2.498h37.86v-19.35h-1.893c-1.89 14.63-5.59 16.855-16 16.855h-4.82V35.348h2.8c4.67.11 7.33 2.834 8.28 10.863h1.72l-.01-23.79c-.04.05-1.7 0-1.7 0 0 .13-.33 10.23-8.49 10.09h-2.58zm-15.012.946h-20.73v2.353h7.102v17.03c-1.203 4.32-7.575 6.134-9.47 6.134-13.238 0-12.293-19.37-12.293-24.56 0-4.74-.477-24.58 12.292-24.58 8.994 0 13.73 8.95 15.624 17.01h1.43c0-3.32.05-19.09.01-19.05.04-.13-6.17 4.44-6.19 4.37.14-.03-2.84-4.24-10.89-4.24-15.63 0-21.35 15.59-21.31 26.47.07 9.95 4.66 26.91 21.3 26.91 5.23 0 8.92-2.67 10.89-5.69.02-.07 6.59 5.18 6.62 5.21V35.8h5.59v-2.35zm242.196 8.046c-1.885 14.63-5.6 16.82-16.004 16.82h-.626v-47.35h6.617v-2.55h-21.77v2.55h6.63v47.35h-5.268L343.12 7h-2.835c.065-.028-16.073 46.563-16.106 46.694.03-.13-1.21 4.004-3.88 4.518-2.44.12-2.26-1.154-2.26-1.604v-8.982c0-2.35-.18-7.703-2.63-10.16-2.74-2.762-7.43-2.966-7.32-3.068 0 0 11.89-2.456 11.89-13.76 0-7.924-5.52-11.867-14.72-12.207h-26.14v2.55h6.69v47.35h-6.69v2.52h21.44v-2.52h-6.69V35.57h8.92c15.47 1.277-2.67 25.31 17.61 25.285h12.77v-2.53c-.71 0-5.39.14-5.69-3.126-.2-2.36 3.08-10.83 3.08-10.83H348c-.012-.03 5.404 13.96 5.455 13.96h-6.07v2.52h47.404V41.5h-1.9zM302.42 32.9h-8.498V10.957h10.872c6.384.964 6.644 8.34 6.644 10.688 0 5.676-2.38 11.255-9.018 11.255m29.36 9.038l7.553-22.64 8.054 22.64H331.78zm-78.43-30.98c13.486 0 18.474-.648 20.826 15.895h1.425V8.44h-53.56v2.517h1.4c1.89 0 6.38.142 6.64 4.092h-.01v30.21L205.01 8.44h-13.65v2.513h2.264c2.693 0 6.462.12 6.636 4.092v38.7c0 3.77-5.66 5.215-8.02 5.215h-.023v1.876h18.46v-1.87c-2.366 0-8.056-1.442-8.056-5.216l.07-34.077c9.92 14.174 28.65 41.195 28.82 41.17h.94v-45.8c.26-3.95 4.75-4.09 6.64-4.09h6.15V58.35h-7.01v2.498h37.86v-19.36h-1.89c-1.89 14.64-5.59 16.862-16 16.862h-4.82V35.345h2.79c4.68.11 7.33 2.837 8.28 10.866h1.72l-.01-23.79c-.03.05-1.69 0-1.69 0 0 .13-.33 10.23-8.49 10.09h-2.59V10.96zm165.25.01V8.41h-21.365v2.557h6.706l.03 47.33h-6.73v2.55h21.36v-2.55h-6.7v-47.33M81.56 56.085l1.94-.734.023-.01c2.75-1.13 3.14-1.84 3.01-3.67v-7.39c2.09 5.31 4.07 9.05 8.125 9.04.55 0 1.14-.06 1.775-.2l1.58-.36-1.087-1.19c-.7-.77-1.034-1.36-1.426-2.05-.16-.28-.32-.57-.52-.9-.95-1.53-3.207-2.05-5.03-1.24-.834-1.64-1.67-3.78-2.67-6.44l-.224-.5c-.165-.39-.343-.79-.522-1.19v-.06h-.03c-.615-1.39-1.286-2.8-2.08-4.11-.716-1.19-1.453-2.23-2.242-3.15-2.114-2.48-4.91-4.03-8.32-4.59-2.35-.39-4.015-.47-6.13-.57l-1.38-.06c-.954-.05-2.932-.21-4.84-.37-1.282-.11-2.605-.21-3.643-.29.07-.3.11-.6.11-.91 0-.42-.04-.8-.12-1.13h13.55c3.49 0 6.02-1.55 7.52-4.59 3.47-.03 5.98-1.6 7.47-4.68h.48c3.61 0 6.2-1.65 7.68-4.9l.61-1.34h-45.9c-3.02 0-5.59 1.97-6.55 5.01l-.03.1c-.78-2.18-2.21-4.02-4.04-5.11-2.55-1.52-5.44-2.02-7.75-1.36-.77.23-1.52.57-2.14.97-.53.35-1.27.91-1.81 1.6-.59.75-1.15 1.67-1.57 2.52-.26.22-.47.44-.61.66l-.55 1.03-.03.06c-.66 1.49-1.46 2.52-2.08 3.25-.62.72-.65 1.41-.57 1.86.09.48.35.89.63 1.19l-.02.03c-.18.32-.28.68-.28 1.05 0 1.21 1.05 2.12 2.35 2.12.94 0 1.71-.44 2.53-.98.33-.22 1.2-.8 1.49-.83.37 0 .69.33.69.69 0 .99-1.28 1.53-2.2 1.59l-1.87.21c-1.34.12-1.98.83-1.98 1.47s.31 1 .52 1.21l.14.14.47.42-1.97 3.19c-1.42-1.31-3.06-2.09-4.53-2.14-.95-.03-1.77.25-2.37.82-.18.17-.33.35-.46.56h-.03c-1.57 0-2.82.84-3.44 1.78-.67 1.03-.43 2.81.42 4.16L6.66 37v23.86H98.2V56.1H81.55zM93.363 49.6c.18.29.34.568.49.835.185.326.367.65.583.98-1.44-.095-2.528-.887-3.536-2.394.93-.32 2.05-.08 2.47.58M73.56 29.17c2.946.487 5.362 1.82 7.184 3.95.384.455.76.94 1.13 1.467-4.967-.65-6.692-1.373-9.47-5.584.37.046.752.105 1.155.17m-2.15-7.113h-9.32c.8-.698 1.46-1.598 2-2.682h12.66c-1.19 1.818-2.92 2.682-5.35 2.682m7.42-4.58H69.5c.824-.72 1.514-1.653 2.06-2.788h12.68c-1.19 1.89-2.935 2.79-5.415 2.79m.632-7.137h12.62c-1.186 1.663-2.865 2.453-5.192 2.453h-9.32c.743-.653 1.372-1.47 1.895-2.453m-51.004.486c.297-.38.78-.8 1.356-1.18.454-.3 1.045-.57 1.615-.73.92-.26 1.97-.28 3.052-.07l-3.35 2.07c-.42-.04-.83-.06-1.22-.06-.57 0-1.09.04-1.57.12l.1-.13m-3.92 14.78c.03-.13.13-.23.24-.23l1.63.05c1.99-.07 4.01-.89 4.24-2.95 0-1.41-1-2.77-2.4-2.77-.76 0-1.6.52-2.55 1.15-.62.41-1.11.74-1.48.74-.25 0-.46-.17-.46-.3 0-.02 0-.04.01-.07l1.05-1.39-.91-.61c-.19-.12-.49-.36-.53-.54-.01-.08.1-.23.15-.27.37-.44.79-.96 1.23-1.62.26-.36.42-.57.86-.57s.81.35.81.78c0 .29.31.52.7.52.38 0 .56-.28.81-.51 0 0 .93-.85.43-1.25-.56-.46-2.81.48-2.18-1.58l.15-.29c.24-.32 1.32-1.12 3.54-1.12.42 0 .86.03 1.32.09l.33.04 4.72-2.91c.04.1.05.18.05.18v.02c.25 1.43-.65 3.13-2.09 3.96l-.58.33.37 2.13c-1.21.37-2.05 1.34-2.05 2.51 0 .41.09.89.21 1.49.13.67.28 1.43.32 2.2 0 2.215-3.06 3.68-5.64 3.6h-.07c-.11-.01-1.76-.14-2.16-.46-.08-.06-.14-.19-.12-.29M12.81 32.6c.374-.57 1.226-1.06 2.29-.875l.81.14.25-.78c.07-.21.17-.36.29-.48.227-.214.57-.32 1-.31 1.14.036 2.57.83 3.73 2.08.427.45.8.97 1.13 1.51.074.107.15.23.22.336l.18.3c.04.08.62.94.58.99.39-.55.78-1.1 1.18-1.65.01-.01-.01-.07-.04-.13-.09-.19-.3-.52-.43-.71-.03-.04-.06-.09-.09-.14v-.01c-.012-.02-.063-.1-.14-.21-.12-.2-.31-.5-.393-.66l2.47-3.95c.62.13 1.146.15 1.393.15h.06c3.49 0 7.09-2.01 7.09-5.38v-.08c-.042-.92-.212-1.79-.354-2.49-.09-.46-.17-.9-.17-1.12 0-.36.52-.77 1.266-.77h1.122l-.51-2.92c1.59-1.16 2.56-3.06 2.51-4.88 1.716 1.32 2.92 3.59 3.135 6 .06.7-.07 1.69-.3 2.72l-.13.43.02.01c-.41 1.69-1 3.42-1.32 4.24l-.29.76.71.4c1.26.72 2.05 1.25 2.05 2.93 0 1.92-1.73 3.4-3.4 3.71l-2.28.42 1.94 1.29c.61.42.98 1.09.98 1.81 0 1.21-1.03 2.19-2.3 2.19h-.73l-.21.67c-.71 2.31-1.49 3.44-3.96 3.68.11-.7.19-1.37.19-2.33 0-.22-.02-.85-.03-1.06l-.11-2.15-1.51 1.54c-.52.52-1.42.94-2.43 1.13V37l-10.8-2.83-3.85 1.004c-.86-.858-1.04-2.28-.82-2.61m-3.1 23.522l7.78-2.028 7.79 2.028H9.73zm16.72-1.656L17.5 52.1l-8.93 2.33V38.45l8.93-2.317 8.937 2.318v15.98zm4.15-3.11c-.81 1.16-.905 2.76-.3 4.76h-1.96v-15.3c.705-.11 1.46-.31 2.16-.63-.04.66-.13 1.19-.254 1.9-.04.16-.06.33-.09.51l-.19 1.1h1.12c1.67 0 2.93-.27 3.89-.77v6.4c0 .16-.13.29-.29.29h-.28c-1.67 0-3.06.63-3.82 1.72m20.58.41c-.69.78-1.36 2.15-.92 4.35h-11.6c1.24-.13 2.15-.42 2.78-1.07.76-.78.82-1.87.79-2.64.02-.07.15-.34.71-.58l1-.46-.6-.93c-1-1.52-.56-4.85-.18-6.66h.09c3.94 0 6.48-.82 9.16-1.68.7-.23 1.42-.46 2.18-.69l.02-.01c.02 0 .8-.25 1.87-.51l3.78 6.23.03.053c.37.54.43.89-.26 1.69l-1.9 2.05-3.11-.58c-1.41-.22-2.917.34-3.856 1.41m1.02 4.36c-.34-1.34-.2-2.414.41-3.11.59-.67 1.485-.873 2.124-.784l3.6.67.095.02h.5l2.54-2.75.03-.03c.433-.51 1.75-2.05.405-4l-3.39-5.6c.56-.08 1.13-.14 1.65-.14h.02c.02 0 1.73-.02 3.56 1.04.25.53.59 1.23.97 2.01.72 1.45 1.61 3.25 1.85 3.98.09.22.33.92-.53 1.79l-6.52 6.89H52.2zm22.225 0H62.1l5.28-5.575c1.068-1.1 1.406-2.423.96-3.72-.255-.76-.953-2.19-1.686-3.665 2.1.98 5.276 1.85 11.744 2.37.78.06.985.33 1.14 1.04l.29 2.788-3.38.76c-1.133.22-2.026.96-2.444 2.04-.465 1.19-.31 2.59.415 3.96m1.35-3.27c.19-.48.56-.77 1.06-.88l5.06-1.12-.46-4.53-.01-.09c-.12-.59-.5-2.39-2.85-2.58-9.05-.73-11.15-2.07-13.35-3.49 0-.01 0-.01-.01-.02l-.01.01-.15-.1c-2.35-1.52-4.69-1.53-4.92-1.52-2.56.01-5.8 1.02-6.07 1.1-.78.24-1.51.47-2.21.7-2.84.91-5.29 1.7-9.4 1.58l-.75-.02-.2.72c-.16.57-1.3 5.11-.19 8.03-1 .79-1 1.69-.99 1.81.04 1-.2 1.25-.27 1.33-.48.49-2.05.55-3.38.55h-.5l-.29.41c-.82 1.12-2.59 1.39-3.72 1.1-.5-1.51-.51-2.67-.03-3.36.57-.81 1.77-.89 2.26-.89h.28c1.2 0 2.18-.99 2.18-2.19v-8.13c.36-.56.66-1.22.92-1.95 1.98-.32 3.5-2 3.5-4.03 0-.78-.23-1.53-.64-2.17 1.83-.88 3.4-2.68 3.4-5.05 0-2.37-1.19-3.45-2.32-4.16.32-.91.84-2.51 1.2-4.12L44.5 14c.71-2.23 2.57-3.666 4.73-3.666h27.98c-1.183 1.66-2.87 2.45-5.2 2.45h-16.9l-.88 1.893H69.4c-1.195 1.89-2.94 2.79-5.42 2.79h-11l-.884 1.894h9.814c-1.19 1.82-2.913 2.68-5.35 2.68h-5.99l-.884 1.9h6.29c.052.08.21.37.21 1.13 0 1.22-1.02 2.21-2.278 2.21-.438 0-.807-.1-1.448-.36-.28-.12-.55-.24-.83-.35l-1.46 1.31c.27.12.54.23.81.35 1.26.55 1.97.84 2.93.84 1.15 0 2.19-.48 2.94-1.25 1.08.07 2.81.22 4.49.35 2.01.17 3.9.32 4.89.37.49.03.95.05 1.39.07.83.04 1.59.08 2.36.14 3.81 6.2 5.77 7.02 13.17 7.9.53.96 1.01 1.96 1.46 2.98v12.13c.05.56.05.75-.03.85-.26.34-1.4.82-1.79.98l-6.24 2.34c-.83-1.12-1.12-2.28-.797-3.12"/>
  <path clip-path="url(#b)" fill="#BBBDBF" d="M24.477 40.9l-5.972-1.548v1.956l5.972 1.55m-13.913 0l5.966-1.55V39.35l-5.966 1.55m0 5.888l5.966-1.55v-1.955l-5.966 1.55m13.913 0l-5.972-1.546v1.95l5.972 1.55m0 1.976l-5.972-1.55v1.956l5.972 1.55m-13.913 0l5.966-1.56v-1.95l-5.966 1.55"/>
  <defs>
    <path id="c" d="M6.692 36.987v19.056h21.656V36.987L17.52 34.17z"/>
  </defs>
  <clipPath id="d">
    <use xlink:href="#c" overflow="visible"/>
  </clipPath>
  <path clip-path="url(#d)" fill="#C12129" d="M165.706 32.506l.028-21.52c13.496 0 18.45-.678 20.798 15.868h1.422V8.44l-36.74.016v2.532h6.36V58.35h-7.01v2.498h37.86v-19.35h-1.893c-1.89 14.63-5.59 16.855-16 16.855h-4.82V35.348h2.8c4.67.11 7.33 2.834 8.28 10.863h1.72l-.01-23.79c-.04.05-1.7 0-1.7 0 0 .13-.33 10.23-8.49 10.09h-2.58zm-15.012.946h-20.73v2.353h7.102v17.03c-1.203 4.32-7.575 6.134-9.47 6.134-13.238 0-12.293-19.37-12.293-24.56 0-4.74-.477-24.58 12.292-24.58 8.994 0 13.73 8.95 15.624 17.01h1.43c0-3.32.05-19.09.01-19.05.04-.13-6.17 4.44-6.19 4.37.14-.03-2.84-4.24-10.89-4.24-15.63 0-21.35 15.59-21.31 26.47.07 9.95 4.66 26.91 21.3 26.91 5.23 0 8.92-2.67 10.89-5.69.02-.07 6.59 5.18 6.62 5.21V35.8h5.59v-2.35zm242.196 8.046c-1.885 14.63-5.6 16.82-16.004 16.82h-.626v-47.35h6.617v-2.55h-21.77v2.55h6.63v47.35h-5.268L343.12 7h-2.835c.065-.028-16.073 46.563-16.106 46.694.03-.13-1.21 4.004-3.88 4.518-2.44.12-2.26-1.154-2.26-1.604v-8.982c0-2.35-.18-7.703-2.63-10.16-2.74-2.762-7.43-2.966-7.32-3.068 0 0 11.89-2.456 11.89-13.76 0-7.924-5.52-11.867-14.72-12.207h-26.14v2.55h6.69v47.35h-6.69v2.52h21.44v-2.52h-6.69V35.57h8.92c15.47 1.277-2.67 25.31 17.61 25.285h12.77v-2.53c-.71 0-5.39.14-5.69-3.126-.2-2.36 3.08-10.83 3.08-10.83H348c-.012-.03 5.404 13.96 5.455 13.96h-6.07v2.52h47.404V41.5h-1.9zM302.42 32.9h-8.498V10.957h10.872c6.384.964 6.644 8.34 6.644 10.688 0 5.676-2.38 11.255-9.018 11.255m29.36 9.038l7.553-22.64 8.054 22.64H331.78zm-78.43-30.98c13.486 0 18.474-.648 20.826 15.895h1.425V8.44h-53.56v2.517h1.4c1.89 0 6.38.142 6.64 4.092h-.01v30.21L205.01 8.44h-13.65v2.513h2.264c2.693 0 6.462.12 6.636 4.092v38.7c0 3.77-5.66 5.215-8.02 5.215h-.023v1.876h18.46v-1.87c-2.366 0-8.056-1.442-8.056-5.216l.07-34.077c9.92 14.174 28.65 41.195 28.82 41.17h.94v-45.8c.26-3.95 4.75-4.09 6.64-4.09h6.15V58.35h-7.01v2.498h37.86v-19.36h-1.89c-1.89 14.64-5.59 16.862-16 16.862h-4.82V35.345h2.79c4.68.11 7.33 2.837 8.28 10.866h1.72l-.01-23.79c-.03.05-1.69 0-1.69 0 0 .13-.33 10.23-8.49 10.09h-2.59V10.96zm165.25.01V8.41h-21.365v2.557h6.706l.03 47.33h-6.73v2.55h21.36v-2.55h-6.7v-47.33M81.56 56.085l1.94-.734.023-.01c2.75-1.13 3.14-1.84 3.01-3.67v-7.39c2.09 5.31 4.07 9.05 8.125 9.04.55 0 1.14-.06 1.775-.2l1.58-.36-1.087-1.19c-.7-.77-1.034-1.36-1.426-2.05-.16-.28-.32-.57-.52-.9-.95-1.53-3.207-2.05-5.03-1.24-.834-1.64-1.67-3.78-2.67-6.44l-.224-.5c-.165-.39-.343-.79-.522-1.19v-.06h-.03c-.615-1.39-1.286-2.8-2.08-4.11-.716-1.19-1.453-2.23-2.242-3.15-2.114-2.48-4.91-4.03-8.32-4.59-2.35-.39-4.015-.47-6.13-.57l-1.38-.06c-.954-.05-2.932-.21-4.84-.37-1.282-.11-2.605-.21-3.643-.29.07-.3.11-.6.11-.91 0-.42-.04-.8-.12-1.13h13.55c3.49 0 6.02-1.55 7.52-4.59 3.47-.03 5.98-1.6 7.47-4.68h.48c3.61 0 6.2-1.65 7.68-4.9l.61-1.34h-45.9c-3.02 0-5.59 1.97-6.55 5.01l-.03.1c-.78-2.18-2.21-4.02-4.04-5.11-2.55-1.52-5.44-2.02-7.75-1.36-.77.23-1.52.57-2.14.97-.53.35-1.27.91-1.81 1.6-.59.75-1.15 1.67-1.57 2.52-.26.22-.47.44-.61.66l-.55 1.03-.03.06c-.66 1.49-1.46 2.52-2.08 3.25-.62.72-.65 1.41-.57 1.86.09.48.35.89.63 1.19l-.02.03c-.18.32-.28.68-.28 1.05 0 1.21 1.05 2.12 2.35 2.12.94 0 1.71-.44 2.53-.98.33-.22 1.2-.8 1.49-.83.37 0 .69.33.69.69 0 .99-1.28 1.53-2.2 1.59l-1.87.21c-1.34.12-1.98.83-1.98 1.47s.31 1 .52 1.21l.14.14.47.42-1.97 3.19c-1.42-1.31-3.06-2.09-4.53-2.14-.95-.03-1.77.25-2.37.82-.18.17-.33.35-.46.56h-.03c-1.57 0-2.82.84-3.44 1.78-.67 1.03-.43 2.81.42 4.16L6.66 37v23.86H98.2V56.1H81.55zM93.363 49.6c.18.29.34.568.49.835.185.326.367.65.583.98-1.44-.095-2.528-.887-3.536-2.394.93-.32 2.05-.08 2.47.58M73.56 29.17c2.946.487 5.362 1.82 7.184 3.95.384.455.76.94 1.13 1.467-4.967-.65-6.692-1.373-9.47-5.584.37.046.752.105 1.155.17m-2.15-7.113h-9.32c.8-.698 1.46-1.598 2-2.682h12.66c-1.19 1.818-2.92 2.682-5.35 2.682m7.42-4.58H69.5c.824-.72 1.514-1.653 2.06-2.788h12.68c-1.19 1.89-2.935 2.79-5.415 2.79m.632-7.137h12.62c-1.186 1.663-2.865 2.453-5.192 2.453h-9.32c.743-.653 1.372-1.47 1.895-2.453m-51.004.486c.297-.38.78-.8 1.356-1.18.454-.3 1.045-.57 1.615-.73.92-.26 1.97-.28 3.052-.07l-3.35 2.07c-.42-.04-.83-.06-1.22-.06-.57 0-1.09.04-1.57.12l.1-.13m-3.92 14.78c.03-.13.13-.23.24-.23l1.63.05c1.99-.07 4.01-.89 4.24-2.95 0-1.41-1-2.77-2.4-2.77-.76 0-1.6.52-2.55 1.15-.62.41-1.11.74-1.48.74-.25 0-.46-.17-.46-.3 0-.02 0-.04.01-.07l1.05-1.39-.91-.61c-.19-.12-.49-.36-.53-.54-.01-.08.1-.23.15-.27.37-.44.79-.96 1.23-1.62.26-.36.42-.57.86-.57s.81.35.81.78c0 .29.31.52.7.52.38 0 .56-.28.81-.51 0 0 .93-.85.43-1.25-.56-.46-2.81.48-2.18-1.58l.15-.29c.24-.32 1.32-1.12 3.54-1.12.42 0 .86.03 1.32.09l.33.04 4.72-2.91c.04.1.05.18.05.18v.02c.25 1.43-.65 3.13-2.09 3.96l-.58.33.37 2.13c-1.21.37-2.05 1.34-2.05 2.51 0 .41.09.89.21 1.49.13.67.28 1.43.32 2.2 0 2.215-3.06 3.68-5.64 3.6h-.07c-.11-.01-1.76-.14-2.16-.46-.08-.06-.14-.19-.12-.29M12.81 32.6c.374-.57 1.226-1.06 2.29-.875l.81.14.25-.78c.07-.21.17-.36.29-.48.227-.214.57-.32 1-.31 1.14.036 2.57.83 3.73 2.08.427.45.8.97 1.13 1.51.074.107.15.23.22.336l.18.3c.04.08.62.94.58.99.39-.55.78-1.1 1.18-1.65.01-.01-.01-.07-.04-.13-.09-.19-.3-.52-.43-.71-.03-.04-.06-.09-.09-.14v-.01c-.012-.02-.063-.1-.14-.21-.12-.2-.31-.5-.393-.66l2.47-3.95c.62.13 1.146.15 1.393.15h.06c3.49 0 7.09-2.01 7.09-5.38v-.08c-.042-.92-.212-1.79-.354-2.49-.09-.46-.17-.9-.17-1.12 0-.36.52-.77 1.266-.77h1.122l-.51-2.92c1.59-1.16 2.56-3.06 2.51-4.88 1.716 1.32 2.92 3.59 3.135 6 .06.7-.07 1.69-.3 2.72l-.13.43.02.01c-.41 1.69-1 3.42-1.32 4.24l-.29.76.71.4c1.26.72 2.05 1.25 2.05 2.93 0 1.92-1.73 3.4-3.4 3.71l-2.28.42 1.94 1.29c.61.42.98 1.09.98 1.81 0 1.21-1.03 2.19-2.3 2.19h-.73l-.21.67c-.71 2.31-1.49 3.44-3.96 3.68.11-.7.19-1.37.19-2.33 0-.22-.02-.85-.03-1.06l-.11-2.15-1.51 1.54c-.52.52-1.42.94-2.43 1.13V37l-10.8-2.83-3.85 1.004c-.86-.858-1.04-2.28-.82-2.61m-3.1 23.522l7.78-2.028 7.79 2.028H9.73zm16.72-1.656L17.5 52.1l-8.93 2.33V38.45l8.93-2.317 8.937 2.318v15.98zm4.15-3.11c-.81 1.16-.905 2.76-.3 4.76h-1.96v-15.3c.705-.11 1.46-.31 2.16-.63-.04.66-.13 1.19-.254 1.9-.04.16-.06.33-.09.51l-.19 1.1h1.12c1.67 0 2.93-.27 3.89-.77v6.4c0 .16-.13.29-.29.29h-.28c-1.67 0-3.06.63-3.82 1.72m20.58.41c-.69.78-1.36 2.15-.92 4.35h-11.6c1.24-.13 2.15-.42 2.78-1.07.76-.78.82-1.87.79-2.64.02-.07.15-.34.71-.58l1-.46-.6-.93c-1-1.52-.56-4.85-.18-6.66h.09c3.94 0 6.48-.82 9.16-1.68.7-.23 1.42-.46 2.18-.69l.02-.01c.02 0 .8-.25 1.87-.51l3.78 6.23.03.053c.37.54.43.89-.26 1.69l-1.9 2.05-3.11-.58c-1.41-.22-2.917.34-3.856 1.41m1.02 4.36c-.34-1.34-.2-2.414.41-3.11.59-.67 1.485-.873 2.124-.784l3.6.67.095.02h.5l2.54-2.75.03-.03c.433-.51 1.75-2.05.405-4l-3.39-5.6c.56-.08 1.13-.14 1.65-.14h.02c.02 0 1.73-.02 3.56 1.04.25.53.59 1.23.97 2.01.72 1.45 1.61 3.25 1.85 3.98.09.22.33.92-.53 1.79l-6.52 6.89H52.2zm22.225 0H62.1l5.28-5.575c1.068-1.1 1.406-2.423.96-3.72-.255-.76-.953-2.19-1.686-3.665 2.1.98 5.276 1.85 11.744 2.37.78.06.985.33 1.14 1.04l.29 2.788-3.38.76c-1.133.22-2.026.96-2.444 2.04-.465 1.19-.31 2.59.415 3.96m1.35-3.27c.19-.48.56-.77 1.06-.88l5.06-1.12-.46-4.53-.01-.09c-.12-.59-.5-2.39-2.85-2.58-9.05-.73-11.15-2.07-13.35-3.49 0-.01 0-.01-.01-.02l-.01.01-.15-.1c-2.35-1.52-4.69-1.53-4.92-1.52-2.56.01-5.8 1.02-6.07 1.1-.78.24-1.51.47-2.21.7-2.84.91-5.29 1.7-9.4 1.58l-.75-.02-.2.72c-.16.57-1.3 5.11-.19 8.03-1 .79-1 1.69-.99 1.81.04 1-.2 1.25-.27 1.33-.48.49-2.05.55-3.38.55h-.5l-.29.41c-.82 1.12-2.59 1.39-3.72 1.1-.5-1.51-.51-2.67-.03-3.36.57-.81 1.77-.89 2.26-.89h.28c1.2 0 2.18-.99 2.18-2.19v-8.13c.36-.56.66-1.22.92-1.95 1.98-.32 3.5-2 3.5-4.03 0-.78-.23-1.53-.64-2.17 1.83-.88 3.4-2.68 3.4-5.05 0-2.37-1.19-3.45-2.32-4.16.32-.91.84-2.51 1.2-4.12L44.5 14c.71-2.23 2.57-3.666 4.73-3.666h27.98c-1.183 1.66-2.87 2.45-5.2 2.45h-16.9l-.88 1.893H69.4c-1.195 1.89-2.94 2.79-5.42 2.79h-11l-.884 1.894h9.814c-1.19 1.82-2.913 2.68-5.35 2.68h-5.99l-.884 1.9h6.29c.052.08.21.37.21 1.13 0 1.22-1.02 2.21-2.278 2.21-.438 0-.807-.1-1.448-.36-.28-.12-.55-.24-.83-.35l-1.46 1.31c.27.12.54.23.81.35 1.26.55 1.97.84 2.93.84 1.15 0 2.19-.48 2.94-1.25 1.08.07 2.81.22 4.49.35 2.01.17 3.9.32 4.89.37.49.03.95.05 1.39.07.83.04 1.59.08 2.36.14 3.81 6.2 5.77 7.02 13.17 7.9.53.96 1.01 1.96 1.46 2.98v12.13c.05.56.05.75-.03.85-.26.34-1.4.82-1.79.98l-6.24 2.34c-.83-1.12-1.12-2.28-.797-3.12"/>
  <path clip-path="url(#d)" fill="#C12129" d="M24.477 40.9l-5.972-1.548v1.956l5.972 1.55m-13.913 0l5.966-1.55V39.35l-5.966 1.55m0 5.888l5.966-1.55v-1.955l-5.966 1.55m13.913 0l-5.972-1.546v1.95l5.972 1.55m0 1.976l-5.972-1.55v1.956l5.972 1.55m-13.913 0l5.966-1.56v-1.95l-5.966 1.55"/>
</svg>