<svg xmlns="http://www.w3.org/2000/svg" width="162" height="64" viewBox="0 0 162 64" xmlns:xlink="http://www.w3.org/1999/xlink">
  <defs>
    <path id="a" d="M33.3773557,1.25093796 L54.3773557,13.1992138 L54.3773557,13.1992138 C56.8772196,14.6215502 58.4211617,17.2763534 58.4211617,20.1525245 L58.4211617,43.8474755 L58.4211617,43.8474755 C58.4211617,46.7236466 56.8772196,49.3784498 54.3773557,50.8007862 L33.3773557,62.749062 C30.9245079,64.1446478 27.9178154,64.1446478 25.4649677,62.749062 L4.46496768,50.8007862 L4.46496768,50.8007862 C1.96510377,49.3784498 0.421161675,46.7236466 0.421161675,43.8474755 L0.421161675,20.1525245 L0.421161675,20.1525245 C0.421161675,17.2763534 1.96510377,14.6215502 4.46496768,13.1992138 L25.4649677,1.25093796 L25.4649677,1.25093796 C27.9178154,-0.14464783 30.9245079,-0.14464783 33.3773557,1.25093796 L33.3773557,1.25093796 Z M31.0280805,14.1929885 C29.7762841,13.4566377 28.2237159,13.4566377 26.9719195,14.1929885 L26.9719195,14.1929885 L13.9719195,21.8400474 C12.7501647,22.5587266 12,23.8703271 12,25.2877842 L12,38.7122158 C12,40.1296729 12.7501647,41.4412734 13.9719195,42.1599526 L26.9719195,49.8070115 C28.2237159,50.5433623 29.7762841,50.5433623 31.0280805,49.8070115 L31.0280805,49.8070115 L44.0280805,42.1599526 C45.2498353,41.4412734 46,40.1296729 46,38.7122158 L46,38.7122158 L46,25.2877842 C46,23.8703271 45.2498353,22.5587266 44.0280805,21.8400474 L31.0280805,14.1929885 Z"/>
  </defs>
  <g fill="none" fill-rule="evenodd">
    <mask id="b" fill="white">
      <use xlink:href="#a"/>
    </mask>
    <polygon fill="#FFDB0A" points="29 -1 29 14 14 7" mask="url(#b)"/>
    <polygon fill="#FDCA12" points="29 14 14 7 13 23" mask="url(#b)"/>
    <polygon fill="#FAB818" points="13 23 14 7 0 15" mask="url(#b)"/>
    <polygon fill="#F1911F" points="13 23 0 15 0 32" mask="url(#b)"/>
    <polygon fill="#ED7C20" points="13 23 0 32 13 41" mask="url(#b)"/>
    <polygon fill="#EA6721" points="13 41 0 32 0 50" mask="url(#b)"/>
    <polygon fill="#E64E21" points="13 41 0 50 14 58" mask="url(#b)"/>
    <polygon fill="#D43622" points="13 41 14 58 29 50" mask="url(#b)"/>
    <polygon fill="#BB2024" points="29 50 14 58 29 65" mask="url(#b)"/>
    <polygon fill="#D43622" points="29 50 29 65 43 58" mask="url(#b)"/>
    <polygon fill="#E64E21" points="29 50 44 41 43 58" mask="url(#b)"/>
    <polygon fill="#EA6721" points="44 40 58 49 43 58" mask="url(#b)"/>
    <polygon fill="#ED7C20" points="45 41 59 31 59 50" mask="url(#b)"/>
    <polygon fill="#F1911F" points="45 41 44 23 59 31" mask="url(#b)"/>
    <polygon fill="#FAB818" points="44 23 59 14 59 31" mask="url(#b)"/>
    <polygon fill="#FDCA12" points="44 23 59 14 43 6" mask="url(#b)"/>
    <polygon fill="#FFDB0A" points="45 23 29 14 43 6" mask="url(#b)"/>
    <polygon fill="#FFEC00" points="29 14 43 6 29 -1" mask="url(#b)"/>
    <g transform="translate(69 15)">
      <path fill="#BB2024" d="M9.53925842,16 L11.9998806,16 L11.9998806,1.33789062 L9.53925842,1.33789062 L9.53925842,7.05175781 L3.11491906,7.05175781 L3.11491906,1.33789062 L0.654296875,1.33789062 L0.654296875,16 L3.11491906,16 L3.11491906,9.15722656 L9.53925842,9.15722656 L9.53925842,16 Z M21.2856675,16 L21.2856675,15.0117188 L21.2411313,15.0117188 C21.0258722,15.3912779 20.6918544,15.670572 20.239068,15.8496094 C19.7937043,16.0358082 19.1776271,16.1289062 18.3908179,16.1289062 C17.0992631,16.1145833 16.1046324,15.7851595 15.4068959,15.140625 C14.6720458,14.5104135 14.3046263,13.7047575 14.3046263,12.7236328 C14.3046263,11.7854771 14.6237988,11.0084666 15.2621535,10.3925781 C15.9005081,9.76236664 16.8357579,9.44010424 18.0679308,9.42578125 L21.2856675,9.42578125 L21.2856675,8.25488281 C21.3005129,7.27375812 20.5100042,6.7975259 18.9141176,6.82617188 C18.3351448,6.82617188 17.8786538,6.88346297 17.544631,6.99804688 C17.1957628,7.13411526 16.921126,7.36327964 16.7207123,7.68554688 L14.8947302,6.34277344 C15.7780349,5.22558035 17.0807042,4.68131496 18.8027772,4.70996094 C20.257632,4.69563795 21.4192716,4.96060926 22.2877308,5.50488281 C23.1561901,6.06347936 23.5978358,7.02310518 23.6126812,8.38378906 L23.6126812,16 L21.2856675,16 Z M21.2856675,12.0791016 L21.2856675,11.2734375 L18.5021582,11.2734375 C17.1512217,11.3020835 16.4831861,11.7496701 16.4980316,12.6162109 C16.4980316,12.9957701 16.6724631,13.3180325 17.0213313,13.5830078 C17.3553541,13.8766291 17.9083391,14.0234375 18.6803028,14.0234375 C19.6526803,14.0377605 20.3392723,13.926759 20.7400997,13.6904297 C21.1038134,13.4541004 21.2856675,12.9169964 21.2856675,12.0791016 Z M26.6188712,16 L28.945885,16 L28.945885,9.28613281 C28.9607304,8.46972248 29.2056768,7.87890808 29.6807314,7.51367188 C30.1038269,7.14127418 30.6122762,6.95507812 31.2060945,6.95507812 C31.7331082,6.95507812 32.2415575,7.14127418 32.7314576,7.51367188 L34.4238312,5.56933594 C33.7335174,5.01073939 32.9244522,4.72428393 31.9966111,4.70996094 C30.7570155,4.70996094 29.7549621,5.15038622 28.9904211,6.03125 L28.945885,6.03125 L28.945885,4.84960937 L26.6188712,4.84960937 L26.6188712,16 Z M35.6263072,16 L37.9533209,16 L37.9533209,9.36132812 C37.9533209,8.58072526 38.1759994,7.98633017 38.6213631,7.578125 C39.0444587,7.16275834 39.590021,6.95507812 40.2580666,6.95507812 C40.9261122,6.95507812 41.4753858,7.16275834 41.9059041,7.578125 C42.3289996,7.98633017 42.5405442,8.58072526 42.5405442,9.36132812 L42.5405442,16 L44.8675579,16 L44.8675579,9.36132812 C44.8675579,8.58072526 45.0865251,7.98633017 45.5244661,7.578125 C45.9549844,7.16275834 46.504258,6.95507812 47.1723036,6.95507812 C47.8403491,6.95507812 48.3859115,7.16275834 48.809007,7.578125 C49.2321026,7.98633017 49.4436471,8.58072526 49.4436471,9.36132812 L49.4436471,16 L51.7706609,16 L51.7706609,8.58789062 C51.74097,7.31314467 51.332726,6.34635746 50.5459168,5.6875 C49.7516849,5.03580403 48.875816,4.70996094 47.9182841,4.70996094 C46.3966247,4.69563795 45.1830268,5.18261225 44.277454,6.17089844 C43.8766266,5.74120879 43.4349809,5.38672015 42.9525036,5.10742188 C42.4626035,4.85676958 41.8168358,4.72428393 41.0151811,4.70996094 C39.7681627,4.70996094 38.7623981,5.15038622 37.9978571,6.03125 L37.9533209,4.84960938 L35.6263072,4.84960938 L35.6263072,16 Z M54.3537575,10.4140625 C54.3537575,9.23957746 54.4539628,8.33724273 54.6543765,7.70703125 C54.8622129,7.09114275 55.1813854,6.57194222 55.6119037,6.14941406 C55.931081,5.77701637 56.376438,5.44401188 56.9479881,5.15039062 C57.5121155,4.87109235 58.2358206,4.72428393 59.1191253,4.70996094 C60.0321209,4.72428393 60.7706713,4.87109235 61.3347987,5.15039062 C61.8915033,5.44401188 62.3220151,5.77701637 62.626347,6.14941406 C63.0865561,6.57194222 63.4131513,7.09114275 63.6061422,7.70703125 C63.7917105,8.33724273 63.8844932,9.23957746 63.8844932,10.4140625 C63.8844932,11.5885475 63.7917105,12.4837209 63.6061422,13.0996094 C63.4131513,13.7154979 63.0865561,14.2490212 62.626347,14.7001953 C62.4778924,14.8649097 62.2960383,15.0260409 62.0807792,15.1835938 C61.8877882,15.3626311 61.6391306,15.5166009 61.3347987,15.6455078 C60.7706713,15.9534521 60.0321209,16.1145833 59.1191253,16.1289062 C58.2358206,16.1145833 57.5121155,15.9534521 56.9479881,15.6455078 C56.376438,15.3662095 55.931081,15.0511085 55.6119037,14.7001953 C55.1813854,14.2490212 54.8622129,13.7154979 54.6543765,13.0996094 C54.4539628,12.4837209 54.3537575,11.5885475 54.3537575,10.4140625 Z M61.5574794,10.4355469 C61.5574794,9.64062103 61.5203663,9.0605487 61.4461391,8.6953125 C61.3719118,8.34439929 61.2197481,8.03645966 60.9896435,7.77148438 C60.8189208,7.52083208 60.5665518,7.32389395 60.232529,7.18066406 C59.9133517,7.03027269 59.5422208,6.95507812 59.1191253,6.95507812 C58.7257207,6.95507812 58.3620125,7.03027269 58.0279897,7.18066406 C57.7088124,7.32389395 57.4490208,7.52083208 57.2486071,7.77148438 C57.0481934,8.03645966 56.9034524,8.34439929 56.8143797,8.6953125 C56.7253069,9.0605487 56.6807712,9.63345964 56.6807712,10.4140625 C56.6807712,11.1875039 56.7253069,11.7532534 56.8143797,12.1113281 C56.9034524,12.4765643 57.0481934,12.7988267 57.2486071,13.078125 C57.4490208,13.2929698 57.7088124,13.4827466 58.0279897,13.6474609 C58.3620125,13.8050138 58.7257207,13.8837891 59.1191253,13.8837891 C59.5422208,13.8837891 59.9133517,13.8050138 60.232529,13.6474609 C60.5665518,13.4827466 60.8189208,13.2929698 60.9896435,13.078125 C61.2197481,12.7988267 61.3719118,12.4765643 61.4461391,12.1113281 C61.5203663,11.7532534 61.5574794,11.1946653 61.5574794,10.4355469 Z M66.3228473,16 L68.649861,16 L68.649861,9.36132812 C68.649861,8.58072526 68.8688282,7.98633017 69.3067692,7.578125 C69.7372875,7.16275834 70.2865611,6.95507812 70.9546067,6.95507812 C71.6226522,6.95507812 72.1682146,7.16275834 72.5913101,7.578125 C73.0218284,7.98633017 73.2370843,8.58072526 73.2370843,9.36132812 L73.2370843,16 L75.564098,16 L75.564098,8.58789062 C75.5269844,7.31314467 75.1150291,6.34635746 74.3282199,5.6875 C73.533988,5.03580403 72.6581191,4.70996094 71.7005872,4.70996094 C70.4609915,4.70996094 69.4589382,5.15038622 68.6943972,6.03125 L68.649861,6.03125 L68.649861,4.84960937 L66.3228473,4.84960937 L66.3228473,16 Z M78.6370922,16 L80.964106,16 L80.964106,4.84960938 L78.6370922,4.84960938 L78.6370922,16 Z M78.6370922,2.58300781 L80.964106,2.58300781 L80.964106,0.337890625 L78.6370922,0.337890625 L78.6370922,2.58300781 Z M93,11.2734375 L85.796278,11.2734375 C85.796278,12.1686243 86.0634923,12.848956 86.5979287,13.3144531 C87.0952515,13.7871117 87.7484418,14.0234375 88.5575192,14.0234375 C89.5002057,14.0234375 90.3426728,13.6617875 91.0849456,12.9384766 L92.7661852,14.3242188 C91.5859714,15.5416728 90.197942,16.1432292 88.6020554,16.1289062 C87.9933916,16.1289062 87.3995823,16.0429696 86.8206094,15.8710938 C86.531123,15.7779943 86.2490636,15.6526701 85.9744226,15.4951172 C85.6849362,15.3590488 85.4140107,15.1907562 85.1616379,14.9902344 C84.6717379,14.5748677 84.2746278,13.9947954 83.970296,13.25 C83.6362732,12.5338506 83.4692643,11.6028703 83.4692643,10.4570312 C83.4692643,9.35416115 83.6140053,8.43750365 83.9034917,7.70703125 C84.1929782,6.96223586 84.564109,6.37500215 85.0168954,5.9453125 C85.4771046,5.50846136 85.9929765,5.19336034 86.5645266,5 C87.128654,4.80663966 87.6853502,4.70996094 88.2346322,4.70996094 C89.5558778,4.72428393 90.6729817,5.14322505 91.5859773,5.96679688 C92.5138184,6.80469169 92.9851545,7.95767495 93,9.42578125 L93,11.2734375 Z M85.796278,9.42578125 L90.6729863,9.42578125 C90.6432953,8.55924046 90.4020603,7.90397357 89.9492739,7.45996094 C89.5039101,7.03743278 88.9323686,6.82617188 88.2346322,6.82617188 C87.5368957,6.82617188 86.9653542,7.03743278 86.5199904,7.45996094 C86.0820495,7.90397357 85.8408144,8.55924046 85.796278,9.42578125 Z"/>
      <path fill="#706F6F" d="M0.579101562,32 L3.19183365,32 L3.19183365,25.3613281 C3.19183365,24.5807253 3.44185336,23.9863302 3.94190028,23.578125 C4.41694486,23.1627583 5.02949314,22.9550781 5.77956352,22.9550781 C6.5296339,22.9550781 7.14634919,23.1627583 7.62972787,23.578125 C8.10477245,23.9863302 8.34229117,24.5807253 8.34229117,25.3613281 L8.34229117,32 L10.9550233,32 L10.9550233,25.3613281 C10.9550233,24.5807253 11.200876,23.9863302 11.6925888,23.578125 C12.1759675,23.1627583 12.7926828,22.9550781 13.5427531,22.9550781 C14.2928235,22.9550781 14.9053718,23.1627583 15.3804164,23.578125 C15.8554609,23.9863302 16.0929797,24.5807253 16.0929797,25.3613281 L16.0929797,32 L18.7057118,32 L18.7057118,24.5878906 C18.6723753,23.3131447 18.2140058,22.3463575 17.3305896,21.6875 C16.4388393,21.035804 15.4554284,20.7099609 14.3803275,20.7099609 C12.6718339,20.6956379 11.3092265,21.1826122 10.2924644,22.1708984 C9.84242218,21.7412088 9.34654976,21.3867201 8.80483226,21.1074219 C8.25478065,20.8567696 7.52972349,20.7242839 6.62963904,20.7099609 C5.22950766,20.7099609 4.10025197,21.1503862 3.2418381,22.03125 L3.19183365,20.8496094 L0.579101562,20.8496094 L0.579101562,32 Z M22.243526,28.2617188 C22.2601943,29.5221417 22.7393987,30.4746062 23.6811537,31.1191406 C24.5479017,31.7779981 25.5188116,32.1145833 26.5939125,32.1289062 C27.9773756,32.1289062 29.0982973,31.688481 29.9567112,30.8076172 L30.0067156,30.8076172 L30.0067156,32 L32.6194477,32 L32.6194477,20.8496094 L30.0067156,20.8496094 L30.0067156,27.4882812 C30.0067156,28.2402381 29.7650299,28.8274718 29.2816512,29.25 C28.8066067,29.6725282 28.1940584,29.8837891 27.443988,29.8837891 C26.6939176,29.8837891 26.0772023,29.6725282 25.5938236,29.25 C25.1021108,28.8274718 24.8562581,28.2402381 24.8562581,27.4882812 L24.8562581,20.8496094 L22.243526,20.8496094 L22.243526,28.2617188 Z M36.1447609,20.8496094 L34.8446454,20.8496094 L34.8446454,22.5576172 L36.1447609,22.5576172 L36.1447609,29.25 C36.1447609,30.1308638 36.4447845,30.8040341 37.0448408,31.2695312 C37.6282289,31.7565129 38.378288,32 39.2950407,32 L40.6576618,32 L40.6576618,29.8837891 L39.6825751,29.8837891 C39.0491824,29.8981121 38.7408247,29.6223987 38.757493,29.0566406 L38.757493,22.5576172 L40.6576618,22.5576172 L40.6576618,20.8496094 L38.757493,20.8496094 L38.757493,18.4550781 L36.1447609,18.4550781 L36.1447609,20.8496094 Z M43.1078794,28.2617188 C43.1245477,29.5221417 43.6037521,30.4746062 44.5455071,31.1191406 C45.4122551,31.7779981 46.383165,32.1145833 47.4582659,32.1289062 C48.841729,32.1289062 49.9626507,31.688481 50.8210646,30.8076172 L50.871069,30.8076172 L50.871069,32 L53.4838011,32 L53.4838011,20.8496094 L50.871069,20.8496094 L50.871069,27.4882812 C50.871069,28.2402381 50.6293833,28.8274718 50.1460046,29.25 C49.67096,29.6725282 49.0584118,29.8837891 48.3083414,29.8837891 C47.558271,29.8837891 46.9415557,29.6725282 46.458177,29.25 C45.9664642,28.8274718 45.7206115,28.2402381 45.7206115,27.4882812 L45.7206115,20.8496094 L43.1078794,20.8496094 L43.1078794,28.2617188 Z M66.9224949,27.2734375 L58.8342764,27.2734375 C58.8342764,28.1686243 59.1343001,28.848956 59.7343564,29.3144531 C60.2927421,29.7871117 61.0261332,30.0234375 61.9345518,30.0234375 C62.9929845,30.0234375 63.9388924,29.6617875 64.7723039,28.9384766 L66.6599716,30.3242188 C65.3348472,31.5416728 63.776391,32.1432292 61.9845562,32.1289062 C61.3011588,32.1289062 60.6344396,32.0429696 59.9843786,31.8710938 C59.6593481,31.7779943 59.3426564,31.6526701 59.0342942,31.4951172 C58.7092637,31.3590488 58.405073,31.1907562 58.1217131,30.9902344 C57.5716615,30.5748677 57.125793,29.9947954 56.7840943,29.25 C56.4090591,28.5338506 56.2215443,27.6028703 56.2215443,26.4570312 C56.2215443,25.3541612 56.3840571,24.4375037 56.7090876,23.7070312 C57.0341181,22.9622359 57.4508176,22.3750021 57.9591987,21.9453125 C58.4759138,21.5084614 59.0551261,21.1933603 59.696853,21 C60.3302458,20.8066397 60.9552951,20.7099609 61.5720196,20.7099609 C63.0554921,20.7242839 64.3097577,21.143225 65.3348539,21.9667969 C66.3766183,22.8046917 66.9058267,23.957675 66.9224949,25.4257812 L66.9224949,27.2734375 Z M58.8342764,25.4257812 L64.3097628,25.4257812 C64.2764263,24.5592405 64.0055716,23.9039736 63.4971906,23.4599609 C62.9971437,23.0374328 62.3554264,22.8261719 61.5720196,22.8261719 C60.7886128,22.8261719 60.1468955,23.0374328 59.6468486,23.4599609 C59.1551358,23.9039736 58.8842811,24.5592405 58.8342764,25.4257812 Z M69.6602381,29.2929688 C69.6602381,30.2740934 69.9852637,30.9723287 70.6353247,31.3876953 C71.2520492,31.7959005 72.0354443,32 72.9855335,32 L74.1481367,32 L74.1481367,29.8837891 L73.2480568,29.8837891 C72.5979958,29.8837891 72.2729702,29.6295598 72.2729702,29.1210938 L72.2729702,17.3378906 L69.6602381,17.3378906 L69.6602381,29.2929688 Z M76.2608244,29.2929688 C76.2608244,30.2740934 76.58585,30.9723287 77.235911,31.3876953 C77.8526356,31.7959005 78.6360307,32 79.5861198,32 L80.7487231,32 L80.7487231,29.8837891 L79.8486431,29.8837891 C79.1985821,29.8837891 78.8735565,29.6295598 78.8735565,29.1210938 L78.8735565,17.3378906 L76.2608244,17.3378906 L76.2608244,29.2929688 Z M92.9248047,27.2734375 L84.8365862,27.2734375 C84.8365862,28.1686243 85.1366099,28.848956 85.7366662,29.3144531 C86.2950519,29.7871117 87.028443,30.0234375 87.9368616,30.0234375 C88.9952943,30.0234375 89.9412022,29.6617875 90.7746137,28.9384766 L92.6622814,30.3242188 C91.337157,31.5416728 89.7787008,32.1432292 87.986866,32.1289062 C87.3034686,32.1289062 86.6367494,32.0429696 85.9866884,31.8710938 C85.6616579,31.7779943 85.3449662,31.6526701 85.036604,31.4951172 C84.7115735,31.3590488 84.4073828,31.1907562 84.1240229,30.9902344 C83.5739713,30.5748677 83.1281028,29.9947954 82.7864041,29.25 C82.4113689,28.5338506 82.2238541,27.6028703 82.2238541,26.4570312 C82.2238541,25.3541612 82.3863669,24.4375037 82.7113974,23.7070312 C83.0364279,22.9622359 83.4531274,22.3750021 83.9615085,21.9453125 C84.4782236,21.5084614 85.0574359,21.1933603 85.6991628,21 C86.3325556,20.8066397 86.9576049,20.7099609 87.5743294,20.7099609 C89.0578019,20.7242839 90.3120675,21.143225 91.3371637,21.9667969 C92.3789281,22.8046917 92.9081365,23.957675 92.9248047,25.4257812 L92.9248047,27.2734375 Z M84.8365862,25.4257812 L90.3120726,25.4257812 C90.2787361,24.5592405 90.0078815,23.9039736 89.4995004,23.4599609 C88.9994535,23.0374328 88.3577362,22.8261719 87.5743294,22.8261719 C86.7909226,22.8261719 86.1492053,23.0374328 85.6491584,23.4599609 C85.1574456,23.9039736 84.8865909,24.5592405 84.8365862,25.4257812 Z"/>
    </g>
  </g>
</svg>
