<?xml version="1.0" encoding="utf-8"?>
<!-- Generator: Adobe Illustrator 15.1.0, SVG Export Plug-In . SVG Version: 6.00 Build 0)  -->
<!DOCTYPE svg PUBLIC "-//W3C//DTD SVG 1.1//EN" "http://www.w3.org/Graphics/SVG/1.1/DTD/svg11.dtd">
<svg version="1.1" id="Calque_1" xmlns="http://www.w3.org/2000/svg" xmlns:xlink="http://www.w3.org/1999/xlink" x="0px" y="0px" viewBox="0 0 185 204" enable-background="new 0 0 185 204" xml:space="preserve">
<g>
	<polygon fill="#CFDCE8" points="0.859,51.645 0.859,152.346 92.508,202.7 184.141,152.346 184.141,51.645 92.508,1.3 	"/>
	<g>
		<path fill="#0282AD" d="M153.557,82.115c0.861-0.144,1.723-0.718,2.584-1.221c0.718-0.502,1.364-1.364,1.938-2.297
			c0.503-0.862,0.718-2.082,0.718-3.303c0-1.077-0.144-1.938-0.502-2.8c-0.359-0.718-0.718-1.364-1.221-1.938
			c-0.503-0.502-1.077-0.861-1.723-1.22c-0.718-0.359-1.364-0.503-2.082-0.718l-3.303-0.861c-0.358-0.144-0.861-0.359-1.363-0.502
			c-0.503-0.144-0.862-0.502-1.364-0.718c-0.359-0.359-0.718-0.718-1.077-1.077c-0.358-0.502-0.358-1.077-0.358-1.579
			c0-0.718,0.144-1.364,0.358-1.938c0.359-0.502,0.718-0.861,1.077-1.22c0.502-0.359,1.076-0.502,1.579-0.718
			c0.503-0.144,1.077-0.144,1.579-0.144c0.718,0,1.364,0.144,1.938,0.359c0.718,0.144,1.221,0.502,1.579,0.861
			c0.503,0.359,0.862,1.077,1.221,1.579c0.359,0.718,0.503,1.364,0.503,2.297h2.44c0-1.22-0.358-2.441-0.718-3.302
			s-0.861-1.723-1.579-2.441s-1.364-1.077-2.298-1.364c-0.861-0.359-1.723-0.502-2.8-0.502c-0.861,0-1.723,0.144-2.584,0.359
			s-1.723,0.718-2.44,1.22c-0.719,0.502-1.221,1.22-1.724,2.082c-0.502,0.861-0.718,1.938-0.718,3.159
			c0,1.077,0.144,1.938,0.359,2.584c0.358,0.718,0.718,1.22,1.22,1.723c0.503,0.502,1.077,0.862,1.724,1.221
			c0.718,0.359,1.363,0.502,2.297,0.861l3.159,0.861c0.502,0.144,1.076,0.359,1.579,0.502c0.502,0.144,1.077,0.503,1.364,0.862
			c0.358,0.359,0.718,0.718,1.076,1.22c0.144,0.502,0.359,1.077,0.359,1.723c0,0.861-0.144,1.579-0.503,2.082
			c-0.358,0.502-0.861,1.077-1.363,1.364c-0.503,0.359-1.077,0.718-1.724,0.861c-0.718,0.144-1.22,0.144-1.723,0.144
			c-1.579,0-2.943-0.502-4.021-1.579c-1.076-1.077-1.723-2.441-1.723-4.523h-2.44c0.144,2.943,1.076,5.025,2.44,6.461
			c1.364,1.364,3.303,1.938,5.743,1.938C151.762,82.474,152.623,82.474,153.557,82.115z"/>
		<path fill="#4D4D4D" d="M135.537,108.461c-0.718,0-1.579,0-2.297,0c0,1.365,0,2.943,0,4.379c0.718,0,1.579,0,2.297,0
			C135.537,111.404,135.537,110.041,135.537,108.461z"/>
		<path fill="#0282AD" d="M134.03,60.865c0,6.963,0,13.927,0,20.891c1.076,0,1.938,0,2.943,0c0-6.964,0-13.927,0-20.891
			c1.579,0,2.943,0,4.522,0c0-1.077,0-1.938,0-2.943c-1.579,0-2.943,0-4.522,0c0-2.584,0-5.025,0-7.682c-1.077,0-1.938,0-2.943,0
			c0,2.584,0,5.025,0,7.682c-1.58,0-2.943,0-4.523,0c0,1.077,0,1.938,0,2.943C130.871,60.865,134.03,60.865,134.03,60.865z"/>
		<rect x="26.203" y="49.881" fill="#0282AD" width="3.302" height="31.156"/>
		<path fill="#0282AD" d="M62.241,60.147c2.297,0,3.805,0.503,4.738,1.364c0.861,1.077,1.363,2.441,1.363,4.164v15.147h3.159V65.531
			c0-5.241-2.8-7.825-8.328-7.825c-1.723,0-3.302,0.359-4.737,1.077c-1.364,0.718-2.585,1.938-3.303,3.302
			c-0.502-1.579-1.364-2.584-2.8-3.302c-1.363-0.718-2.943-1.077-4.522-1.077c-2.082,0-3.805,0.359-5.025,1.22
			c-1.364,0.861-2.44,1.938-3.302,3.302h-0.144v-3.805h-2.8v22.47h3.158V68.331c0-1.22,0.144-2.297,0.503-3.302
			c0.358-1.077,0.718-1.938,1.363-2.584c0.503-0.718,1.364-1.364,2.441-1.723s2.082-0.718,3.518-0.718
			c1.077,0,1.723,0.144,2.44,0.359c0.719,0.359,1.221,0.718,1.58,1.22c0.358,0.502,0.718,1.077,0.861,1.723
			c0.144,0.718,0.358,1.364,0.358,2.082V80.75h3.159V68.044c0-1.077,0.144-2.082,0.358-2.943c0.145-1.077,0.503-1.938,1.077-2.584
			s1.221-1.364,2.082-1.723C59.8,60.506,61.021,60.147,62.241,60.147z"/>
		<path fill="#0282AD" d="M80.547,76.73L80.547,76.73c0.359,0.861,0.861,1.579,1.58,2.082c0.718,0.502,1.363,1.077,2.081,1.579
			c0.862,0.359,1.58,0.718,2.585,0.861c0.861,0.144,1.938,0.359,2.8,0.359c1.938,0,3.661-0.359,5.025-0.861
			c1.363-0.718,2.584-1.579,3.661-2.584c0.861-1.077,1.723-2.44,2.082-3.805c0.502-1.364,0.718-2.943,0.718-4.522
			c0-1.58-0.144-3.159-0.718-4.523c-0.503-1.364-1.221-2.8-2.082-3.805c-0.861-1.077-2.082-1.938-3.661-2.584
			c-1.364-0.718-3.159-1.077-5.025-1.077c-2.082,0-4.021,0.359-5.6,1.22s-2.8,2.082-3.518,3.661h-0.144v-4.379h-2.8v30.87h3.158
			L80.547,76.73L80.547,76.73z M80.906,66.105c0.358-1.22,0.718-2.297,1.364-3.159c0.718-0.861,1.579-1.579,2.8-2.082
			c1.22-0.502,2.584-0.862,4.379-0.862c1.364,0,2.8,0.359,3.805,0.862c1.077,0.502,1.938,1.22,2.584,2.297
			c0.718,0.862,1.221,1.938,1.364,3.159c0.359,1.221,0.503,2.297,0.503,3.518c0,1.22-0.144,2.297-0.503,3.518
			c-0.358,1.22-0.861,2.082-1.364,3.159c-0.718,0.861-1.579,1.579-2.584,2.297c-1.077,0.502-2.297,0.861-3.805,0.861
			c-1.579,0-2.943-0.359-4.164-0.861c-1.221-0.503-2.082-1.221-2.8-2.297c-0.718-0.861-1.221-1.938-1.579-3.159
			c-0.359-1.221-0.503-2.297-0.503-3.518C80.547,68.546,80.547,67.326,80.906,66.105z"/>
		<path fill="#0282AD" d="M111.201,80.75c1.579,0.718,3.158,0.861,5.24,0.861c1.938,0,3.661-0.359,5.241-0.861
			c1.579-0.718,2.8-1.364,3.805-2.584c1.076-1.077,1.723-2.297,2.297-3.805c0.503-1.364,0.861-2.943,0.861-4.522
			c0-1.58-0.358-3.159-0.861-4.523c-0.502-1.364-1.221-2.8-2.297-3.805c-1.077-1.077-2.298-1.938-3.805-2.584
			c-1.58-0.718-3.159-1.077-5.241-1.077c-1.938,0-3.661,0.359-5.24,1.077s-2.8,1.58-3.805,2.584
			c-1.077,1.077-1.724,2.297-2.298,3.805c-0.502,1.364-0.861,2.943-0.861,4.523c0,1.579,0.359,3.159,0.861,4.522
			c0.503,1.364,1.221,2.8,2.298,3.805C108.545,79.315,109.766,80.176,111.201,80.75z M108.042,66.25
			c0.359-1.221,0.862-2.082,1.724-3.159c0.718-0.861,1.723-1.579,2.8-2.297c1.076-0.503,2.44-0.862,3.805-0.862
			s2.8,0.359,3.805,0.862c1.077,0.502,2.082,1.22,2.8,2.297c0.718,0.862,1.221,1.938,1.723,3.159
			c0.359,1.22,0.503,2.297,0.503,3.518c0,1.22-0.144,2.44-0.503,3.518c-0.358,1.22-0.861,2.082-1.723,3.159
			c-0.718,0.861-1.723,1.579-2.8,2.297c-1.077,0.502-2.44,0.861-3.805,0.861s-2.8-0.359-3.805-0.861
			c-1.077-0.503-2.082-1.221-2.8-2.297c-0.718-0.861-1.221-1.938-1.724-3.159c-0.358-1.221-0.502-2.297-0.502-3.518
			C107.54,68.546,107.684,67.47,108.042,66.25z"/>
		<path fill="#4D4D4D" d="M46.591,108.461c-0.718,0-1.579,0-2.297,0c0,1.365,0,2.943,0,4.379c0.718,0,1.579,0,2.297,0
			C46.591,111.404,46.591,110.041,46.591,108.461z"/>
		<path fill="#4D4D4D" d="M71.143,111.262V93.314h-2.8v3.302l0,0c-0.144-0.503-0.718-1.077-1.076-1.579
			c-0.503-0.502-1.077-0.861-1.58-1.221c-0.502-0.358-1.22-0.718-1.938-0.861c-0.719-0.144-1.58-0.359-2.298-0.359
			c-1.579,0-2.943,0.145-4.164,0.719c-1.22,0.502-2.297,1.221-3.158,2.082s-1.579,1.938-1.938,3.158
			c-0.502,1.221-0.718,2.441-0.718,3.805c0,1.364,0.144,2.584,0.503,4.02c0.358,1.221,1.076,2.297,1.723,3.16
			c0.861,0.861,1.938,1.578,3.158,2.08c1.221,0.504,2.8,0.719,4.523,0.719c1.579,0,3.158-0.359,4.163-1.076
			c1.221-0.719,2.082-1.723,2.8-2.943l0,0v2.584c0,2.441-0.502,4.164-1.723,5.385c-1.077,1.219-2.943,1.938-5.384,1.938
			c-0.718,0-1.364,0-2.298-0.143c-0.718-0.145-1.364-0.359-1.938-0.719s-1.076-0.719-1.579-1.221
			c-0.358-0.502-0.718-1.076-0.861-1.938h-2.8c0,1.076,0.359,1.938,1.077,2.584c0.502,0.717,1.22,1.363,2.082,1.938
			c0.861,0.574,1.723,0.861,2.8,1.078c1.076,0.215,2.082,0.357,3.302,0.357c1.723,0,3.303-0.143,4.522-0.717
			c1.221-0.359,2.298-1.076,2.943-1.939c0.718-0.861,1.364-1.723,1.724-2.943C70.999,114.061,71.143,112.625,71.143,111.262z
			 M68.056,105.662c-0.358,0.861-0.718,1.723-1.363,2.439c-0.503,0.719-1.364,1.221-2.298,1.725
			c-0.933,0.502-1.938,0.717-3.158,0.717c-1.221,0-2.298-0.143-3.303-0.717c-0.861-0.504-1.723-1.078-2.297-1.725
			c-0.503-0.717-1.077-1.578-1.364-2.439c-0.359-0.861-0.359-1.939-0.359-2.944c0-1.077,0.144-1.938,0.359-2.943
			c0.359-1.077,0.718-1.938,1.364-2.584c0.502-0.719,1.363-1.365,2.297-1.939s2.082-0.717,3.303-0.717
			c1.22,0,2.44,0.143,3.302,0.717c0.861,0.503,1.579,1.077,2.298,1.939c0.502,0.717,1.076,1.723,1.22,2.584
			c0.144,1.076,0.359,1.938,0.359,2.943C68.343,103.723,68.343,104.801,68.056,105.662z"/>
		<path fill="#4D4D4D" d="M92.751,95.539c-0.861-0.861-1.938-1.723-3.302-2.297c-1.221-0.502-2.8-0.861-4.522-0.861
			c-1.724,0-3.159,0.359-4.523,0.861c-1.363,0.503-2.44,1.364-3.302,2.297c-0.861,0.934-1.579,2.082-2.082,3.303
			s-0.718,2.584-0.718,4.021c0,1.435,0.144,2.8,0.718,4.021c0.503,1.219,1.221,2.439,2.082,3.301s1.938,1.725,3.302,2.299
			c1.221,0.502,2.8,0.861,4.523,0.861c1.723,0,3.158-0.359,4.522-0.861c1.364-0.504,2.44-1.221,3.302-2.299
			c0.862-0.861,1.58-2.082,2.082-3.301c0.503-1.221,0.718-2.586,0.718-4.021c0-1.437-0.144-2.8-0.718-4.021
			C94.331,97.693,93.828,96.616,92.751,95.539z M92.393,106.021c-0.359,1.076-0.861,1.938-1.364,2.584
			c-0.718,0.861-1.364,1.363-2.44,1.938c-1.077,0.502-2.082,0.719-3.518,0.719c-1.221,0-2.441-0.145-3.519-0.719
			c-1.076-0.502-1.723-1.076-2.44-1.938s-1.221-1.723-1.364-2.584c-0.358-1.078-0.502-2.082-0.502-3.16
			c0-1.077,0.144-2.082,0.502-3.159c0.359-1.076,0.861-1.938,1.364-2.584c0.718-0.861,1.364-1.364,2.44-1.938
			c1.077-0.503,2.082-0.718,3.519-0.718c1.22,0,2.44,0.144,3.518,0.718c1.076,0.503,1.723,1.077,2.44,1.938s1.221,1.723,1.364,2.584
			c0.358,1.077,0.502,2.082,0.502,3.159C92.751,103.939,92.607,104.943,92.393,106.021z"/>
		<path fill="#4D4D4D" d="M115.078,112.482V93.314h-2.585v10.122c0,1.078-0.144,1.939-0.358,2.801
			c-0.144,0.861-0.719,1.723-1.221,2.439c-0.503,0.719-1.221,1.221-2.082,1.725c-0.861,0.357-1.723,0.717-2.943,0.717
			c-2.082,0-3.661-0.502-4.379-1.363c-0.861-0.861-1.364-2.297-1.364-4.021V93.169h-2.584v12.348c0,1.221,0.144,2.082,0.358,2.943
			c0.359,0.861,0.718,1.58,1.364,2.297c0.503,0.719,1.364,1.078,2.44,1.365c1.077,0.359,2.082,0.502,3.519,0.502
			c1.579,0,3.158-0.359,4.379-1.076c1.363-0.719,2.297-1.723,2.943-2.943l0,0v3.518h2.584L115.078,112.482L115.078,112.482z"/>
		<polygon fill="#4D4D4D" points="126.062,110.543 126.062,110.543 119.601,93.457 116.801,93.457 124.697,112.984 127.282,112.984 
			134.963,93.457 132.307,93.457 		"/>
		<g>
			<path d="M29.218,136.604H26.85v-2.082h2.368V136.604z M29.218,149.812H26.85v-10.625h2.368V149.812z"/>
			<path d="M34.1,139.188l0.144,1.363c0.359-0.502,0.79-0.861,1.292-1.148c0.503-0.287,1.149-0.432,1.795-0.432
				c0.718,0,1.292,0.145,1.795,0.504c0.503,0.287,0.861,0.789,1.148,1.436c0.359-0.574,0.79-1.076,1.292-1.363
				c0.503-0.359,1.149-0.504,1.867-0.504c1.076,0,1.938,0.359,2.513,1.148c0.574,0.791,0.933,1.867,0.933,3.375v6.316h-2.369v-6.389
				c0-0.934-0.144-1.58-0.431-1.938c-0.287-0.359-0.789-0.574-1.363-0.574c-0.503,0-0.934,0.143-1.293,0.43
				c-0.358,0.287-0.574,0.646-0.789,1.078c0,0.07,0,0.215,0,0.287c0,0.07,0,0.143,0,0.215v6.891h-2.369v-6.389
				c0-0.861-0.144-1.508-0.503-1.938c-0.287-0.359-0.789-0.574-1.363-0.574c-0.503,0-0.862,0.07-1.221,0.287
				c-0.359,0.215-0.574,0.43-0.79,0.789v7.824h-2.369v-10.695H34.1z"/>
			<path d="M58.724,144.857c0,1.58-0.359,2.801-1.077,3.734s-1.723,1.436-3.015,1.436c-0.575,0-1.149-0.145-1.58-0.359
				s-0.861-0.502-1.22-0.934v5.17h-2.369v-14.717h2.01l0.216,1.363c0.358-0.502,0.718-0.861,1.22-1.148
				c0.503-0.287,1.005-0.359,1.651-0.359c1.292,0,2.297,0.504,3.087,1.58c0.718,1.004,1.077,2.369,1.077,4.092V144.857
				L58.724,144.857z M56.282,144.643c0-1.076-0.215-2.01-0.646-2.656c-0.431-0.717-1.005-1.004-1.795-1.004
				c-0.503,0-0.934,0.07-1.292,0.287c-0.359,0.215-0.646,0.502-0.861,0.861v4.809c0.215,0.359,0.502,0.646,0.861,0.861
				c0.358,0.217,0.789,0.287,1.292,0.287c0.79,0,1.436-0.287,1.795-0.932c0.358-0.646,0.574-1.365,0.574-2.369L56.282,144.643
				L56.282,144.643z"/>
			<path d="M60.303,144.428c0-1.58,0.431-2.871,1.292-3.877c0.861-1.004,2.082-1.508,3.59-1.508s2.728,0.504,3.589,1.508
				c0.862,1.006,1.293,2.297,1.293,3.877v0.215c0,1.58-0.431,2.871-1.293,3.877c-0.861,1.006-2.081,1.508-3.589,1.508
				s-2.729-0.502-3.59-1.508s-1.292-2.297-1.292-3.877V144.428z M62.743,144.57c0,1.006,0.216,1.867,0.575,2.514
				c0.431,0.646,1.005,1.004,1.866,1.004s1.436-0.357,1.866-1.004s0.646-1.508,0.646-2.514v-0.215c0-1.004-0.216-1.865-0.646-2.512
				s-1.077-1.006-1.866-1.006c-0.861,0-1.436,0.359-1.866,1.006c-0.432,0.646-0.646,1.508-0.646,2.512L62.743,144.57L62.743,144.57z
				"/>
			<path d="M75.234,136.604v2.584h1.938v1.795h-1.938v5.887c0,0.43,0.072,0.717,0.288,0.932c0.215,0.217,0.431,0.287,0.789,0.287
				c0.144,0,0.287,0,0.359,0c0.144,0,0.215-0.07,0.358-0.07l0.287,1.723c-0.215,0.143-0.431,0.215-0.718,0.287
				s-0.574,0.072-0.861,0.072c-0.861,0-1.579-0.287-2.082-0.791c-0.502-0.502-0.718-1.291-0.718-2.439v-5.887h-1.651v-1.795h1.651
				v-2.584H75.234z"/>
			<path d="M84.998,146.869c0-0.359-0.144-0.646-0.431-0.934c-0.287-0.215-0.934-0.432-1.795-0.646
				c-1.22-0.287-2.226-0.646-2.871-1.148c-0.646-0.502-1.005-1.148-1.005-2.01s0.358-1.652,1.148-2.297
				c0.718-0.646,1.723-0.934,2.943-0.934c1.292,0,2.297,0.357,3.087,1.004c0.789,0.646,1.148,1.436,1.148,2.369v0.072h-2.298
				c0-0.432-0.144-0.789-0.502-1.148c-0.359-0.287-0.79-0.502-1.364-0.502s-1.005,0.143-1.292,0.357
				c-0.287,0.287-0.431,0.574-0.431,0.934s0.144,0.646,0.431,0.861c0.287,0.217,0.861,0.432,1.723,0.574
				c1.292,0.287,2.298,0.646,2.943,1.148c0.646,0.504,1.005,1.221,1.005,2.012c0,0.932-0.358,1.723-1.148,2.369
				c-0.789,0.574-1.795,0.932-3.087,0.932c-1.363,0-2.44-0.357-3.302-1.076c-0.79-0.719-1.148-1.508-1.148-2.441v-0.07h2.225
				c0,0.645,0.216,1.076,0.646,1.363s0.934,0.43,1.508,0.43s1.076-0.143,1.436-0.357C84.854,147.586,84.998,147.299,84.998,146.869z
				"/>
			<path d="M92.105,149.812h-2.369v-2.299h2.369V149.812z"/>
			<path d="M94.762,144.643c0-1.723,0.358-3.086,1.076-4.092c0.719-1.004,1.724-1.58,3.087-1.58c0.646,0,1.221,0.145,1.651,0.432
				s0.861,0.646,1.221,1.148l0.215-1.363h2.011v10.625c0,1.363-0.431,2.439-1.292,3.158c-0.862,0.717-2.011,1.148-3.59,1.148
				c-0.503,0-1.077-0.072-1.651-0.215c-0.574-0.145-1.148-0.359-1.651-0.574l0.359-1.867c0.431,0.215,0.861,0.359,1.364,0.502
				c0.502,0.145,1.005,0.145,1.507,0.145c0.862,0,1.508-0.215,1.867-0.574c0.358-0.359,0.574-0.934,0.574-1.723v-1.078
				c-0.359,0.432-0.718,0.719-1.148,0.934s-1.006,0.359-1.58,0.359c-1.292,0-2.297-0.502-3.015-1.436s-1.077-2.227-1.077-3.734
				v-0.215H94.762L94.762,144.643z M97.131,144.857c0,1.006,0.215,1.795,0.574,2.369c0.358,0.574,1.005,0.861,1.794,0.861
				c0.503,0,0.934-0.07,1.293-0.287c0.358-0.215,0.646-0.502,0.861-0.932v-4.668c-0.216-0.357-0.503-0.717-0.861-0.932
				c-0.359-0.217-0.79-0.359-1.293-0.359c-0.789,0-1.436,0.359-1.794,1.004c-0.359,0.646-0.574,1.58-0.574,2.656V144.857z"/>
			<path d="M106.032,144.428c0-1.58,0.431-2.871,1.292-3.877c0.861-1.004,2.082-1.508,3.59-1.508s2.728,0.504,3.589,1.508
				c0.862,1.006,1.293,2.297,1.293,3.877v0.215c0,1.58-0.431,2.871-1.293,3.877c-0.861,1.006-2.081,1.508-3.589,1.508
				s-2.729-0.502-3.59-1.508s-1.292-2.297-1.292-3.877V144.428z M108.401,144.57c0,1.006,0.216,1.867,0.574,2.514
				c0.359,0.646,1.005,1.004,1.866,1.004s1.437-0.357,1.867-1.004s0.646-1.508,0.646-2.514v-0.215c0-1.004-0.215-1.865-0.646-2.512
				s-1.077-1.006-1.867-1.006c-0.861,0-1.436,0.359-1.866,1.006s-0.646,1.508-0.646,2.512L108.401,144.57L108.401,144.57z"/>
			<path d="M124.482,148.232c-0.359,0.574-0.719,1.006-1.293,1.293s-1.076,0.43-1.794,0.43c-1.149,0-2.011-0.359-2.656-1.148
				c-0.646-0.789-0.934-1.938-0.934-3.518v-6.102h2.369v6.246c0,1.004,0.144,1.723,0.431,2.08c0.287,0.359,0.718,0.574,1.364,0.574
				c0.574,0,1.076-0.07,1.436-0.287c0.358-0.215,0.718-0.502,0.934-0.932v-7.682h2.368v10.625h-2.081L124.482,148.232z"/>
			<path d="M132.953,146.223l0.144,0.861h0.071l0.216-0.861l2.082-7.035h2.44l-3.732,10.625h-2.082l-3.805-10.625h2.44
				L132.953,146.223z"/>
			<path d="M140.419,149.812h-2.369v-2.299h2.369V149.812z"/>
			<path d="M144.224,149.812v-8.83h-1.65v-1.795h1.65v-1.221c0-1.148,0.287-2.082,0.934-2.729s1.508-0.934,2.656-0.934
				c0.215,0,0.431,0,0.718,0.072s0.503,0.072,0.79,0.145l-0.216,1.865c-0.144,0-0.287-0.07-0.431-0.07s-0.358,0-0.503,0
				c-0.502,0-0.933,0.143-1.148,0.43c-0.215,0.287-0.358,0.719-0.358,1.293v1.219h1.938v1.795h-1.938v8.83L144.224,149.812
				L144.224,149.812z"/>
			<path d="M155.495,141.34l-1.005-0.07c-0.432,0-0.862,0.07-1.149,0.287c-0.287,0.215-0.574,0.502-0.718,0.861v7.395h-2.369
				v-10.625h2.154l0.144,1.508c0.287-0.574,0.646-0.934,1.005-1.293s0.934-0.432,1.436-0.432c0.144,0,0.287,0,0.431,0
				s0.216,0.072,0.359,0.072L155.495,141.34z"/>
		</g>
		<g>
			<path fill="#4D4D4D" d="M142.788,112.912h2.369V95.251h4.021v-2.225h-3.949c0,0-0.646-4.666,3.806-4.666v-2.298
				c0,0-6.174-0.933-6.174,6.964h-3.303v2.153l3.23,0.071V112.912z"/>
			<path fill="#4D4D4D" d="M151.978,112.912h2.368V97.98c0,0,0.79-2.871,3.806-2.943v-2.513c0,0-2.872-0.144-4.308,2.728v-2.082
				h-1.938L151.978,112.912z"/>
		</g>
	</g>
</g>
</svg>
