<svg xmlns="http://www.w3.org/2000/svg" height="54.151mm" width="156.89mm" viewBox="0 0 555.89436 191.875"><defs><clipPath id="a"><path d="M172.5 1109.2h848.41v284.73H172.5V1109.2z"/></clipPath></defs><path d="M180.162 124.002h.943v3.422c0 .836.045 1.41.135 1.726.135.45.393.804.773 1.064s.833.39 1.36.39.972-.126 1.34-.38.62-.587.76-1c.093-.283.14-.883.14-1.8v-3.422h.964v3.598c0 1.01-.118 1.772-.354 2.284s-.59.913-1.064 1.202c-.475.29-1.07.435-1.784.435s-1.31-.144-1.79-.434-.834-.694-1.07-1.212c-.236-.518-.354-1.3-.354-2.34V124zM188.672 124.002h.943v1.314c.378-.503.796-.88 1.253-1.13s.957-.373 1.496-.373c.548 0 1.035.14 1.46.42s.737.65.94 1.124c.202.47.302 1.206.302 2.203v3.773h-.943v-3.497c0-.845-.035-1.408-.105-1.69-.11-.487-.32-.85-.63-1.096s-.713-.368-1.212-.368c-.57 0-1.08.19-1.533.566-.452.377-.75.844-.893 1.402-.09.364-.135 1.028-.135 1.995v2.688h-.943v-7.33zM204.594 124.803l-.606.627c-.505-.49-.998-.734-1.48-.734-.306 0-.568.1-.786.303s-.327.437-.327.707c0 .238.09.465.27.68.18.22.558.48 1.134.775.702.364 1.178.715 1.43 1.05.248.342.372.726.372 1.153 0 .602-.212 1.11-.635 1.53-.423.417-.95.626-1.586.626-.422 0-.826-.09-1.21-.275-.385-.184-.703-.438-.955-.762l.593-.673c.482.543.993.815 1.533.815.38 0 .7-.12.966-.364s.4-.527.4-.855c0-.27-.09-.51-.264-.72-.176-.208-.572-.468-1.19-.783-.66-.34-1.11-.678-1.35-1.01s-.357-.713-.357-1.14c0-.556.19-1.02.57-1.387.38-.37.862-.553 1.442-.553.674 0 1.353.33 2.037.99zM206.59 120.986c.216 0 .4.076.55.23s.23.336.23.55c0 .212-.076.394-.23.547-.15.153-.334.23-.55.23-.21 0-.39-.077-.542-.23-.152-.153-.228-.335-.228-.546 0-.216.076-.4.228-.552.152-.153.333-.23.543-.23zm-.467 3.018h.944v7.332h-.944v-7.332zM209.85 121.277h.942V124h1.496v.814h-1.496v6.516h-.943v-6.516h-1.287V124h1.286v-2.723zM219.877 128.898l.796.417c-.26.513-.562.926-.904 1.24-.342.314-.727.553-1.154.718s-.91.246-1.45.246c-1.196 0-2.13-.393-2.805-1.176-.674-.784-1.01-1.67-1.01-2.658 0-.93.284-1.76.855-2.487.724-.927 1.693-1.39 2.907-1.39 1.25 0 2.248.475 2.995 1.423.53.67.8 1.505.81 2.506h-6.597c.017.85.29 1.55.816 2.093s1.176.817 1.95.817c.373 0 .736-.065 1.09-.195.353-.13.652-.302.9-.517.246-.215.513-.562.8-1.04zm0-1.975c-.125-.502-.31-.905-.55-1.206s-.56-.543-.954-.727-.812-.276-1.248-.276c-.72 0-1.338.23-1.855.694-.378.337-.664.842-.857 1.516h5.464zM233.807 121.17v10.16h-.93v-1.26c-.395.48-.84.843-1.33 1.085-.492.242-1.03.364-1.614.364-1.038 0-1.923-.377-2.658-1.13-.735-.752-1.102-1.668-1.102-2.745 0-1.055.37-1.96 1.112-2.71s1.632-1.124 2.675-1.124c.602 0 1.147.13 1.634.385s.915.64 1.284 1.153v-4.178h.93zm-3.77 3.55c-.524 0-1.01.13-1.453.388s-.798.62-1.06 1.086c-.263.467-.394.96-.394 1.48 0 .518.133 1.01.397 1.482s.62.838 1.067 1.1c.446.263.925.395 1.437.395.517 0 1.006-.13 1.468-.39s.818-.613 1.067-1.056c.25-.445.373-.945.373-1.5 0-.85-.28-1.558-.838-2.128-.558-.57-1.246-.855-2.062-.855zM242.117 128.898l.795.417c-.26.513-.562.926-.904 1.24-.34.314-.726.553-1.153.718s-.91.246-1.45.246c-1.195 0-2.13-.393-2.805-1.176-.674-.784-1.012-1.67-1.012-2.658 0-.93.286-1.76.857-2.487.724-.927 1.692-1.39 2.907-1.39 1.25 0 2.248.475 2.994 1.423.53.67.8 1.505.81 2.506h-6.597c.017.85.29 1.55.815 2.093s1.176.817 1.95.817c.374 0 .737-.065 1.09-.195.353-.13.652-.302.9-.517.246-.215.514-.562.802-1.04zm0-1.975c-.126-.502-.31-.905-.55-1.206s-.56-.543-.954-.727-.812-.276-1.25-.276c-.718 0-1.336.23-1.854.694-.378.337-.664.842-.858 1.516h5.465zM248.59 121.17h.943v10.16h-.944v-10.16zM258.8 124.002v7.33h-.93v-1.26c-.395.482-.84.843-1.33 1.085-.492.242-1.03.364-1.614.364-1.038 0-1.924-.375-2.66-1.128-.733-.752-1.1-1.668-1.1-2.745 0-1.055.37-1.96 1.11-2.71s1.634-1.124 2.677-1.124c.6 0 1.146.13 1.634.384s.915.64 1.284 1.153v-1.348h.93zm-3.77.72c-.525 0-1.01.13-1.454.387s-.798.62-1.06 1.086c-.263.467-.394.96-.394 1.48 0 .517.133 1.01.397 1.482s.62.837 1.066 1.1c.446.262.925.394 1.437.394.516 0 1.005-.13 1.467-.39s.818-.613 1.067-1.057c.25-.445.373-.945.373-1.5 0-.85-.28-1.557-.838-2.128-.558-.57-1.245-.854-2.062-.854z" fill="#5889aa"/><path d="M275.34 120.986c.216 0 .4.076.55.23s.23.336.23.55c0 .212-.076.394-.23.547-.15.153-.334.23-.55.23-.21 0-.39-.077-.542-.23-.152-.153-.228-.335-.228-.546 0-.216.076-.4.228-.552.152-.153.333-.23.543-.23zm-.467 3.018h.944v7.332h-.944v-7.332zM277.413 124.002h.964v1.07c.288-.42.59-.737.91-.945.318-.21.65-.314.997-.314.26 0 .54.083.835.25l-.493.795c-.198-.086-.364-.128-.5-.128-.313 0-.617.13-.908.387-.293.258-.516.66-.668 1.203-.117.417-.176 1.262-.176 2.533v2.48h-.963v-7.33zM288.093 128.898l.796.417c-.262.513-.563.926-.905 1.24-.342.314-.726.553-1.153.718s-.91.246-1.45.246c-1.196 0-2.13-.393-2.805-1.176-.675-.784-1.012-1.67-1.012-2.658 0-.93.285-1.76.856-2.487.725-.927 1.694-1.39 2.908-1.39 1.25 0 2.248.475 2.994 1.423.53.67.8 1.505.81 2.506h-6.596c.017.85.29 1.55.816 2.093s1.175.817 1.95.817c.373 0 .736-.065 1.09-.195.352-.13.652-.302.9-.517.246-.215.514-.562.8-1.04zm0-1.975c-.125-.502-.31-.905-.55-1.206s-.56-.543-.954-.727-.813-.276-1.25-.276c-.72 0-1.337.23-1.854.694-.378.337-.664.842-.858 1.516h5.465zM298.007 125.527l-.748.465c-.648-.858-1.53-1.286-2.647-1.286-.892 0-1.634.286-2.224.862-.59.574-.886 1.27-.886 2.092 0 .534.136 1.037.408 1.508.27.47.643.836 1.117 1.097s1.003.39 1.59.39c1.078 0 1.957-.43 2.64-1.287l.747.492c-.35.528-.82.937-1.412 1.228s-1.263.436-2.018.436c-1.16 0-2.12-.37-2.883-1.105-.764-.738-1.145-1.634-1.145-2.69 0-.71.177-1.37.534-1.977.357-.608.848-1.084 1.473-1.425.624-.34 1.323-.513 2.095-.513.486 0 .954.075 1.405.223s.835.34 1.15.58c.313.24.58.542.8.91zM300.64 121.277h.942V124h1.496v.814h-1.496v6.516h-.943v-6.516h-1.287V124h1.286v-2.723zM304.826 120.986c.214 0 .398.076.55.23s.23.336.23.55c0 .212-.077.394-.23.547-.152.153-.336.23-.55.23-.21 0-.392-.077-.543-.23-.152-.153-.228-.335-.228-.546 0-.216.076-.4.228-.552s.332-.23.543-.23zm-.468 3.018h.944v7.332h-.944v-7.332zM310.73 123.81c1.13 0 2.066.41 2.808 1.227.675.746 1.013 1.63 1.013 2.648 0 1.024-.355 1.92-1.07 2.685-.713.765-1.63 1.15-2.75 1.15-1.125 0-2.044-.385-2.757-1.15s-1.07-1.66-1.07-2.685c0-1.016.338-1.896 1.013-2.642.742-.82 1.68-1.233 2.814-1.233zm-.003.923c-.785 0-1.46.29-2.022.87-.564.58-.845 1.28-.845 2.102 0 .53.128 1.024.385 1.483.257.46.604.812 1.04 1.06s.918.374 1.44.374 1.004-.125 1.44-.373c.44-.25.786-.604 1.042-1.062.257-.458.386-.952.386-1.483 0-.822-.283-1.523-.85-2.102-.564-.58-1.237-.87-2.016-.87zM316.294 124.002h.943v1.314c.377-.503.795-.88 1.253-1.13s.956-.373 1.496-.373c.548 0 1.034.14 1.46.42s.737.65.94 1.124c.2.47.302 1.206.302 2.203v3.773h-.944v-3.497c0-.845-.035-1.408-.105-1.69-.11-.487-.32-.85-.63-1.096s-.713-.368-1.212-.368c-.57 0-1.082.19-1.534.566-.45.377-.75.844-.893 1.402-.09.364-.133 1.028-.133 1.995v2.688h-.943v-7.33zM334.85 124.002h.943v5.84c0 1.03-.09 1.782-.27 2.26-.246.672-.676 1.19-1.286 1.555s-1.345.546-2.203.546c-.63 0-1.194-.09-1.695-.267-.502-.178-.91-.417-1.224-.717-.315-.3-.604-.738-.87-1.315h1.024c.28.485.64.843 1.08 1.078.44.233.987.35 1.64.35.642 0 1.185-.12 1.628-.36.443-.24.76-.54.948-.902.188-.362.283-.947.283-1.755v-.377c-.356.45-.79.793-1.303 1.034-.513.24-1.056.36-1.632.36-.674 0-1.308-.167-1.902-.502s-1.052-.785-1.376-1.35c-.323-.566-.485-1.188-.485-1.867 0-.678.168-1.31.506-1.896.337-.586.803-1.05 1.4-1.392.595-.34 1.223-.513 1.884-.513.55 0 1.06.114 1.535.34.474.227.932.6 1.372 1.122v-1.272zm-2.783.72c-.534 0-1.03.13-1.49.387-.458.258-.817.615-1.077 1.07s-.39.95-.39 1.48c0 .804.268 1.47.807 1.994.54.526 1.237.79 2.095.79.868 0 1.565-.262 2.092-.783s.792-1.205.792-2.054c0-.552-.12-1.045-.364-1.48-.242-.432-.586-.775-1.03-1.026-.444-.252-.923-.377-1.435-.377zM343.99 128.898l.795.417c-.26.513-.562.926-.904 1.24-.34.314-.724.553-1.152.718s-.91.246-1.45.246c-1.196 0-2.13-.393-2.805-1.176s-1.012-1.67-1.012-2.658c0-.93.286-1.76.857-2.487.724-.927 1.693-1.39 2.907-1.39 1.25 0 2.248.475 2.994 1.423.53.67.8 1.505.81 2.506h-6.596c.017.85.29 1.55.816 2.093s1.175.817 1.95.817c.373 0 .736-.065 1.09-.195.352-.13.653-.302.9-.517.246-.215.514-.562.802-1.04zm0-1.975c-.126-.502-.31-.905-.55-1.206-.24-.3-.558-.543-.954-.727s-.813-.276-1.25-.276c-.72 0-1.337.23-1.854.694-.377.337-.663.842-.857 1.516h5.465zm-2.27-6.36h1.448l-1.99 2.075h-.928l1.47-2.075zM346.786 124.002h.943v1.314c.377-.503.794-.88 1.253-1.13.458-.25.956-.373 1.495-.373.547 0 1.034.14 1.46.42s.737.65.94 1.124c.2.47.302 1.206.302 2.203v3.773h-.943v-3.497c0-.845-.035-1.408-.105-1.69-.11-.487-.318-.85-.63-1.096-.31-.245-.713-.368-1.212-.368-.57 0-1.08.19-1.533.566-.452.377-.75.844-.892 1.402-.09.364-.135 1.028-.135 1.995v2.688h-.943v-7.33zM361.37 128.898l.794.417c-.26.513-.563.926-.904 1.24-.34.314-.725.553-1.153.718s-.91.246-1.45.246c-1.196 0-2.13-.393-2.806-1.176-.673-.784-1.01-1.67-1.01-2.658 0-.93.285-1.76.856-2.487.724-.927 1.693-1.39 2.907-1.39 1.25 0 2.248.475 2.995 1.423.53.67.8 1.505.81 2.506h-6.598c.018.85.29 1.55.816 2.093.527.545 1.177.817 1.95.817.373 0 .736-.065 1.09-.195.353-.13.652-.302.9-.517.246-.215.514-.562.803-1.04zm0-1.975c-.128-.502-.31-.905-.55-1.206s-.56-.543-.956-.727-.812-.276-1.248-.276c-.72 0-1.338.23-1.855.694-.376.337-.662.842-.856 1.516h5.465zm-2.272-6.36h1.448l-1.987 2.075h-.932l1.47-2.075zM363.81 124.002h.963v1.07c.286-.42.59-.737.91-.945s.65-.314.996-.314c.26 0 .54.083.835.25l-.49.795c-.2-.086-.366-.128-.5-.128-.315 0-.618.13-.91.387-.292.258-.514.66-.667 1.203-.116.417-.175 1.262-.175 2.533v2.48h-.963v-7.33zM375.625 124.002v7.33h-.93v-1.26c-.396.482-.84.843-1.33 1.085s-1.03.364-1.614.364c-1.037 0-1.923-.375-2.657-1.128-.735-.752-1.102-1.668-1.102-2.745 0-1.055.37-1.96 1.112-2.71s1.633-1.124 2.675-1.124c.602 0 1.146.13 1.635.384.487.256.914.64 1.283 1.153v-1.348h.93zm-3.77.72c-.525 0-1.01.13-1.454.387s-.796.62-1.06 1.086c-.26.467-.393.96-.393 1.48 0 .517.133 1.01.398 1.482s.62.837 1.066 1.1c.448.262.927.394 1.438.394.516 0 1.004-.13 1.467-.39.46-.26.817-.613 1.066-1.057.25-.445.375-.945.375-1.5 0-.85-.28-1.557-.84-2.128-.557-.57-1.244-.854-2.06-.854zM377.605 121.17h.944v10.16h-.945v-10.16zM386.68 128.898l.796.417c-.262.513-.562.926-.905 1.24-.34.314-.724.553-1.152.718-.427.164-.91.246-1.45.246-1.196 0-2.13-.393-2.805-1.176-.674-.784-1.01-1.67-1.01-2.658 0-.93.284-1.76.855-2.487.724-.927 1.693-1.39 2.907-1.39 1.25 0 2.248.475 2.994 1.423.53.67.8 1.505.81 2.506h-6.598c.018.85.29 1.55.816 2.093.526.545 1.176.817 1.95.817.373 0 .736-.065 1.09-.195.352-.13.653-.302.9-.517.247-.215.514-.562.803-1.04zm0-1.975c-.126-.502-.31-.905-.55-1.206s-.558-.543-.954-.727c-.396-.184-.812-.276-1.248-.276-.72 0-1.338.23-1.856.694-.376.337-.663.842-.856 1.516h5.465zM400.61 121.17v10.16h-.93v-1.26c-.395.48-.838.843-1.33 1.085s-1.03.364-1.613.364c-1.038 0-1.924-.377-2.658-1.13-.736-.752-1.103-1.668-1.103-2.745 0-1.055.37-1.96 1.11-2.71.742-.75 1.634-1.124 2.676-1.124.603 0 1.147.13 1.634.385.49.256.916.64 1.284 1.153v-4.178h.93zm-3.77 3.55c-.524 0-1.01.13-1.454.388-.443.258-.797.62-1.06 1.086-.262.467-.393.96-.393 1.48 0 .518.133 1.01.397 1.482s.62.838 1.067 1.1c.447.263.925.395 1.436.395.517 0 1.006-.13 1.468-.39.462-.26.818-.613 1.067-1.056.25-.445.374-.945.374-1.5 0-.85-.28-1.558-.837-2.128-.558-.57-1.247-.855-2.063-.855zM408.92 128.898l.795.417c-.26.513-.56.926-.903 1.24-.342.314-.726.553-1.153.718s-.912.246-1.45.246c-1.198 0-2.133-.393-2.806-1.176-.675-.784-1.012-1.67-1.012-2.658 0-.93.285-1.76.856-2.487.724-.927 1.693-1.39 2.907-1.39 1.25 0 2.248.475 2.994 1.423.53.67.8 1.505.808 2.506h-6.595c.017.85.29 1.55.816 2.093.524.545 1.174.817 1.948.817.373 0 .736-.065 1.09-.195.352-.13.653-.302.9-.517.247-.215.514-.562.802-1.04zm0-1.975c-.125-.502-.31-.905-.55-1.206-.24-.3-.558-.543-.954-.727s-.813-.276-1.248-.276c-.72 0-1.34.23-1.855.694-.378.337-.665.842-.857 1.516h5.464zM415.4 124.803l-.607.627c-.504-.49-.997-.734-1.48-.734-.306 0-.568.1-.786.303-.218.202-.328.437-.328.707 0 .238.09.465.27.68.18.22.558.48 1.134.775.702.364 1.18.715 1.432 1.05.248.342.37.726.37 1.153 0 .602-.21 1.11-.634 1.53-.423.417-.95.626-1.586.626-.422 0-.826-.09-1.21-.275-.385-.184-.703-.438-.956-.762l.593-.673c.482.543.992.815 1.533.815.378 0 .7-.12.966-.364.265-.242.4-.527.4-.855 0-.27-.09-.51-.265-.72-.175-.208-.572-.468-1.188-.783-.663-.34-1.113-.678-1.352-1.01-.238-.334-.358-.713-.358-1.14 0-.556.19-1.02.57-1.387.38-.37.862-.553 1.442-.553.674 0 1.354.33 2.037.99zM421.048 121.42h4.966v.97h-3.976v3.105h3.976v.97h-3.976v4.865h-.99v-9.91zM427.91 120.986c.214 0 .398.076.55.23.152.152.227.336.227.55 0 .212-.075.394-.228.547-.152.153-.337.23-.55.23-.21 0-.392-.077-.545-.23-.15-.153-.227-.335-.227-.546 0-.216.076-.4.227-.552.153-.153.335-.23.545-.23zm-.47 3.018h.944v7.332h-.943v-7.332zM430.344 124.002h.943v1.314c.377-.503.795-.88 1.254-1.13.458-.25.957-.373 1.496-.373.547 0 1.034.14 1.46.42s.737.65.94 1.124c.2.47.302 1.206.302 2.203v3.773h-.943v-3.497c0-.845-.035-1.408-.105-1.69-.11-.487-.32-.85-.63-1.096-.31-.245-.713-.368-1.212-.368-.57 0-1.08.19-1.533.566-.452.377-.75.844-.893 1.402-.09.364-.135 1.028-.135 1.995v2.688h-.943v-7.33zM446.07 124.002v7.33h-.93v-1.26c-.397.482-.84.843-1.332 1.085-.492.242-1.03.364-1.614.364-1.037 0-1.923-.375-2.658-1.128-.734-.752-1.1-1.668-1.1-2.745 0-1.055.368-1.96 1.11-2.71.74-.75 1.633-1.124 2.675-1.124.603 0 1.147.13 1.636.384.486.256.914.64 1.283 1.153v-1.348h.93zm-3.77.72c-.526 0-1.01.13-1.455.387-.445.257-.797.62-1.06 1.086-.262.467-.394.96-.394 1.48 0 .517.134 1.01.4 1.482s.62.837 1.065 1.1c.447.262.926.394 1.437.394.516 0 1.005-.13 1.467-.39s.816-.613 1.066-1.057c.25-.445.373-.945.373-1.5 0-.85-.28-1.557-.84-2.128-.557-.57-1.245-.854-2.06-.854zM448.19 124.002h.944v1.314c.377-.503.795-.88 1.254-1.13s.956-.373 1.495-.373c.548 0 1.034.14 1.46.42.424.277.737.65.94 1.124.2.47.303 1.206.303 2.203v3.773h-.944v-3.497c0-.845-.035-1.408-.105-1.69-.11-.487-.32-.85-.63-1.096s-.713-.368-1.212-.368c-.57 0-1.08.19-1.533.566-.45.377-.75.844-.893 1.402-.09.364-.135 1.028-.135 1.995v2.688h-.944v-7.33zM463.717 125.527l-.75.465c-.644-.858-1.526-1.286-2.643-1.286-.893 0-1.635.286-2.225.862-.59.574-.886 1.27-.886 2.092 0 .534.136 1.037.407 1.508.273.47.645.836 1.118 1.097.474.26 1.005.39 1.592.39 1.077 0 1.956-.43 2.638-1.287l.748.492c-.35.528-.82.937-1.412 1.228-.59.29-1.262.436-2.018.436-1.16 0-2.12-.37-2.883-1.105s-1.146-1.634-1.146-2.69c0-.71.18-1.37.536-1.977.357-.608.848-1.084 1.472-1.425.624-.34 1.322-.513 2.096-.513.486 0 .954.075 1.405.223s.834.34 1.148.58c.317.24.584.542.804.91zM471.707 128.898l.795.417c-.26.513-.562.926-.904 1.24-.34.314-.725.553-1.153.718-.427.164-.91.246-1.45.246-1.196 0-2.13-.393-2.805-1.176-.675-.784-1.012-1.67-1.012-2.658 0-.93.285-1.76.857-2.487.724-.927 1.692-1.39 2.906-1.39 1.252 0 2.25.475 2.996 1.423.53.67.8 1.505.81 2.506h-6.597c.017.85.29 1.55.815 2.093.526.545 1.176.817 1.95.817.373 0 .736-.065 1.09-.195.352-.13.652-.302.9-.517.247-.215.514-.562.802-1.04zm0-1.975c-.126-.502-.31-.905-.55-1.206s-.558-.543-.955-.727c-.395-.184-.81-.276-1.247-.276-.72 0-1.34.23-1.856.694-.378.337-.664.842-.857 1.516h5.464zM478.186 124.803l-.606.627c-.504-.49-.997-.734-1.48-.734-.306 0-.568.1-.786.303s-.328.437-.328.707c0 .238.09.465.27.68.18.22.56.48 1.135.775.703.364 1.18.715 1.432 1.05.25.342.37.726.37 1.153 0 .602-.21 1.11-.633 1.53-.425.417-.953.626-1.587.626-.423 0-.826-.09-1.21-.275-.385-.184-.704-.438-.956-.762l.593-.673c.482.543.992.815 1.533.815.378 0 .7-.12.965-.364.266-.242.4-.527.4-.855 0-.27-.09-.51-.263-.72-.176-.208-.573-.468-1.19-.783-.66-.34-1.11-.678-1.35-1.01s-.358-.713-.358-1.14c0-.556.19-1.02.57-1.387.38-.37.86-.553 1.442-.553.674 0 1.353.33 2.036.99zM483.693 124.002h.944v1.347c.372-.514.8-.898 1.285-1.153.485-.256 1.025-.385 1.623-.385 1.04 0 1.93.376 2.672 1.126.74.75 1.11 1.653 1.11 2.708 0 1.078-.367 1.994-1.1 2.746-.734.753-1.62 1.13-2.656 1.13-.582 0-1.12-.123-1.608-.366s-.93-.604-1.325-1.084v3.942h-.944v-10.012zm3.773.72c-.815 0-1.502.284-2.06.854-.56.57-.837 1.28-.837 2.128 0 .555.123 1.056.37 1.5.25.444.607.796 1.07 1.056s.954.39 1.47.39c.506 0 .982-.13 1.428-.392.446-.264.8-.63 1.066-1.1.264-.472.396-.965.396-1.482 0-.52-.132-1.014-.393-1.48-.262-.467-.616-.83-1.06-1.087s-.927-.387-1.45-.387zM492.968 124.002h.943v3.422c0 .836.045 1.41.135 1.726.135.45.393.804.773 1.064s.833.39 1.36.39c.526 0 .973-.126 1.34-.38.367-.253.62-.587.758-1 .095-.283.142-.883.142-1.8v-3.422h.963v3.598c0 1.01-.117 1.772-.353 2.284-.235.513-.59.913-1.064 1.202s-1.068.435-1.783.435c-.714 0-1.31-.144-1.79-.434-.477-.29-.834-.694-1.07-1.212-.236-.518-.354-1.3-.354-2.34V124zM501.54 131.332v-10.16h.944v4.09c.394-.486.836-.848 1.325-1.09s1.024-.36 1.608-.36c1.037 0 1.922.377 2.655 1.13.734.752 1.1 1.665 1.1 2.738 0 1.06-.37 1.966-1.11 2.715-.74.75-1.63 1.126-2.67 1.126-.6 0-1.14-.128-1.624-.383-.485-.256-.914-.64-1.286-1.153v1.348h-.944zm3.773-.722c.524 0 1.008-.13 1.452-.387.443-.258.797-.62 1.06-1.088s.392-.96.392-1.482-.132-1.02-.396-1.49-.62-.84-1.065-1.102c-.446-.26-.922-.393-1.43-.393-.514 0-1.004.132-1.468.394-.463.264-.82.618-1.07 1.063-.247.445-.37.945-.37 1.502 0 .85.277 1.558.836 2.13.558.57 1.245.855 2.06.855zM510.75 121.17h.944v10.16h-.943v-10.16zM513.98 120.986c.215 0 .398.076.55.23s.227.336.227.55c0 .212-.076.394-.228.547-.153.153-.336.23-.55.23-.21 0-.392-.077-.544-.23-.153-.153-.23-.335-.23-.546 0-.216.077-.4.23-.552s.333-.23.544-.23zm-.47 3.018h.945v7.332h-.944v-7.332zM523.715 124.002v10.012h-.93v-3.942c-.395.48-.84.842-1.33 1.084-.49.243-1.03.365-1.613.365-1.04 0-1.924-.375-2.66-1.128-.733-.752-1.1-1.67-1.1-2.746 0-1.055.37-1.958 1.11-2.708s1.634-1.126 2.677-1.126c.6 0 1.145.13 1.632.385.488.255.916.64 1.285 1.152V124h.928zm-3.77.72c-.523 0-1.008.13-1.452.387s-.798.62-1.06 1.086c-.263.467-.394.96-.394 1.48 0 .517.13 1.01.396 1.482s.62.837 1.067 1.1c.447.262.926.394 1.437.394.516 0 1.004-.13 1.466-.39s.818-.613 1.068-1.057c.248-.445.372-.945.372-1.5 0-.85-.28-1.557-.837-2.128-.56-.57-1.247-.854-2.064-.854zM525.71 124.002h.943v3.422c0 .836.044 1.41.134 1.726.135.45.393.804.773 1.064s.833.39 1.36.39c.526 0 .973-.126 1.34-.38.366-.253.62-.587.758-1 .095-.283.14-.883.14-1.8v-3.422h.965v3.598c0 1.01-.118 1.772-.354 2.284-.237.513-.59.913-1.065 1.202s-1.068.435-1.783.435c-.714 0-1.31-.144-1.79-.434-.477-.29-.834-.694-1.07-1.212-.236-.518-.354-1.3-.354-2.34V124zM540.392 128.898l.794.417c-.26.513-.56.926-.903 1.24-.34.314-.726.553-1.153.718s-.91.246-1.45.246c-1.196 0-2.132-.393-2.805-1.176-.675-.784-1.012-1.67-1.012-2.658 0-.93.285-1.76.857-2.487.723-.927 1.692-1.39 2.906-1.39 1.25 0 2.248.475 2.994 1.423.53.67.8 1.505.81 2.506h-6.596c.018.85.29 1.55.816 2.093.525.545 1.175.817 1.95.817.372 0 .736-.065 1.088-.195.353-.13.654-.302.9-.517.25-.215.516-.562.804-1.04zm0-1.975c-.126-.502-.31-.905-.55-1.206-.24-.3-.56-.543-.955-.727s-.812-.276-1.248-.276c-.72 0-1.34.23-1.856.694-.378.337-.664.842-.857 1.516h5.465zM546.87 124.803l-.606.627c-.504-.49-.997-.734-1.48-.734-.306 0-.568.1-.786.303-.218.202-.327.437-.327.707 0 .238.09.465.27.68.18.22.56.48 1.135.775.703.364 1.18.715 1.432 1.05.248.342.37.726.37 1.153 0 .602-.21 1.11-.634 1.53-.423.417-.95.626-1.585.626-.423 0-.827-.09-1.212-.275-.384-.184-.702-.438-.955-.762l.595-.673c.48.543.992.815 1.532.815.38 0 .7-.12.966-.364.266-.242.4-.527.4-.855 0-.27-.09-.51-.264-.72-.177-.208-.573-.468-1.19-.783-.662-.34-1.11-.678-1.35-1.01-.24-.334-.36-.713-.36-1.14 0-.556.192-1.02.573-1.387.38-.37.86-.553 1.44-.553.674 0 1.354.33 2.037.99zM273.357 121.115v10.16h-.93v-1.26c-.396.482-.84.843-1.33 1.085-.493.242-1.03.365-1.614.365-1.038 0-1.924-.377-2.66-1.13-.733-.752-1.1-1.668-1.1-2.745 0-1.055.37-1.96 1.11-2.71.742-.75 1.634-1.124 2.676-1.124.6 0 1.146.13 1.634.385.487.256.915.64 1.283 1.153v-4.178h.93zm-3.77 3.55c-.525 0-1.01.13-1.453.388-.445.258-.798.62-1.06 1.087-.263.466-.394.96-.394 1.48 0 .517.132 1.01.397 1.48.265.473.62.84 1.066 1.102.447.262.926.394 1.437.394.516 0 1.006-.13 1.468-.39.462-.26.817-.613 1.067-1.057.25-.446.373-.946.373-1.502 0-.848-.28-1.557-.838-2.127-.558-.57-1.246-.854-2.062-.854z" fill="#333"/><g><path d="M181.762 62.11h-4.23V55.3h4.23v6.81zm-4.23 36.864V65.98h4.23v32.994h-4.23zM214.517 71.138c1.34-1.9 3.004-3.345 4.994-4.335 1.99-.99 4.216-1.484 6.675-1.484 4.48 0 7.74 1.344 9.78 4.033 2.04 2.69 3.06 7.014 3.06 12.973v16.648h-4.05V81.457c0-4.36-.72-7.464-2.16-9.314-1.44-1.85-3.79-2.775-7.05-2.775-1.88 0-3.534.386-4.963 1.155-1.43.77-2.565 1.875-3.404 3.315-.5.9-.86 1.925-1.08 3.074-.22 1.15-.33 3.155-.33 6.014v16.048h-3.99V80.497c0-3.8-.77-6.604-2.31-8.414s-3.9-2.715-7.08-2.715c-1.92 0-3.604.386-5.053 1.155-1.45.77-2.595 1.875-3.434 3.315-.52.9-.884 1.925-1.094 3.074s-.315 3.155-.315 6.014v16.048h-4.17V65.98h4.17v3.748c1.26-1.46 2.745-2.56 4.455-3.3s3.645-1.11 5.804-1.11c2.5 0 4.778.525 6.838 1.575 2.06 1.05 3.63 2.465 4.71 4.245zM245.684 65.98h4.17v5.398c1.2-1.86 2.914-3.344 5.144-4.454 2.23-1.11 4.604-1.665 7.124-1.665 4.98 0 9.104 1.654 12.373 4.963 3.27 3.31 4.904 7.444 4.904 12.404 0 4.84-1.616 8.92-4.845 12.24s-7.265 4.978-12.104 4.978c-2.68 0-5.093-.52-7.243-1.56-2.15-1.04-3.935-2.55-5.354-4.53V109.656h-4.17V65.978zm4.17 16.286c0 3.76 1.238 6.974 3.718 9.644s5.4 4.004 8.76 4.004c3.458 0 6.428-1.265 8.907-3.794 2.48-2.53 3.718-5.634 3.718-9.314 0-3.86-1.244-7.094-3.734-9.704s-5.504-3.914-9.044-3.914c-3.26 0-6.13 1.31-8.608 3.93-2.48 2.62-3.72 5.67-3.72 9.148zM282.698 82.507c0-4.84 1.66-8.98 4.98-12.42 3.32-3.438 7.248-5.16 11.788-5.16 4.78 0 8.853 1.692 12.223 5.07 3.368 3.38 5.053 7.41 5.053 12.09 0 4.918-1.65 9.118-4.95 12.598-3.298 3.48-7.298 5.22-11.997 5.22-4.78 0-8.824-1.706-12.134-5.115s-4.964-7.504-4.964-12.283zm4.44-.06c0 3.8 1.21 6.984 3.63 9.553 2.418 2.57 5.428 3.855 9.028 3.855 3.54 0 6.508-1.285 8.908-3.855 2.4-2.57 3.6-5.774 3.6-9.614 0-3.9-1.215-7.104-3.645-9.613s-5.515-3.764-9.255-3.764c-3.36 0-6.244 1.288-8.653 3.868-2.41 2.58-3.615 5.77-3.615 9.568zM324.6 98.974V70.238h-6.27v-4.26h6.27V55.3h4.23v10.68h6.27v4.258h-6.27v28.736h-4.23zM336.392 88.596h4.35v.12c0 2.06.59 3.765 1.77 5.114 1.18 1.35 2.64 2.025 4.378 2.025 1.66 0 3.04-.52 4.14-1.56 1.1-1.04 1.65-2.35 1.65-3.93s-.436-2.85-1.305-3.808c-.87-.96-2.445-1.86-4.725-2.7-3.66-1.3-6.05-2.63-7.17-3.99-1.12-1.36-1.68-3.178-1.68-5.458 0-2.58.936-4.77 2.806-6.57 1.87-1.8 4.134-2.7 6.794-2.7 2.82 0 5.06.8 6.72 2.4 1.66 1.6 2.55 3.83 2.668 6.69h-4.53c-.1-1.562-.594-2.77-1.483-3.63-.89-.86-2.105-1.29-3.645-1.29-1.38 0-2.53.464-3.45 1.394-.92.93-1.38 2.084-1.38 3.464 0 .98.19 1.805.57 2.475s1.01 1.275 1.89 1.814c.8.5 1.965.98 3.496 1.44 1.53.46 2.554.8 3.074 1.02 2.06.88 3.574 2.05 4.545 3.51.97 1.46 1.455 3.32 1.455 5.58 0 2.84-.99 5.19-2.97 7.05-1.98 1.858-4.49 2.788-7.53 2.788-3.1 0-5.59-1.014-7.468-3.044-1.88-2.03-2.87-4.765-2.97-8.204z" fill="#0083ae"/><path d="M367.615 98.974h-4.29v-7.98h4.29v7.98zM383.184 101.674c.64 1.92 1.8 3.414 3.48 4.483s3.72 1.606 6.118 1.606c3.76 0 6.774-1.25 9.044-3.75 2.27-2.5 3.405-5.84 3.405-10.02v-.87c-1.6 2.18-3.418 3.826-5.46 4.936-2.04 1.108-4.288 1.663-6.748 1.663-4.96 0-9.08-1.654-12.358-4.964-3.28-3.31-4.92-7.435-4.92-12.374 0-4.86 1.62-8.94 4.86-12.24 3.24-3.298 7.25-4.948 12.03-4.948 2.778 0 5.184.5 7.213 1.5 2.03 1 3.825 2.56 5.384 4.68v-5.4h4.14v27.536c0 5.76-1.445 10.258-4.334 13.498-2.89 3.24-6.875 4.86-11.954 4.86-3.74 0-6.95-.926-9.628-2.775-2.68-1.85-4.41-4.324-5.19-7.423h4.92zm-2.94-19.467c0 3.86 1.225 7.09 3.675 9.688 2.448 2.6 5.403 3.9 8.863 3.9 3.26 0 6.14-1.305 8.64-3.915s3.748-5.674 3.748-9.194c0-3.76-1.23-6.97-3.69-9.628-2.46-2.66-5.358-3.99-8.698-3.99-3.44 0-6.39 1.265-8.848 3.795-2.46 2.53-3.69 5.644-3.69 9.344zM414.14 82.507c0-4.84 1.658-8.98 4.978-12.42 3.32-3.438 7.25-5.16 11.79-5.16 4.778 0 8.852 1.692 12.222 5.07 3.37 3.38 5.053 7.41 5.053 12.09 0 4.918-1.65 9.118-4.95 12.598-3.298 3.48-7.298 5.22-11.996 5.22-4.78 0-8.825-1.706-12.133-5.115-3.31-3.41-4.965-7.504-4.965-12.283zm4.44-.06c0 3.8 1.208 6.984 3.628 9.553 2.42 2.57 5.43 3.855 9.03 3.855 3.538 0 6.507-1.285 8.907-3.855 2.4-2.57 3.6-5.774 3.6-9.614 0-3.9-1.215-7.104-3.644-9.613-2.43-2.51-5.514-3.764-9.253-3.764-3.36 0-6.245 1.288-8.654 3.868-2.41 2.58-3.614 5.77-3.614 9.568zM453.048 65.98h4.17v17.516c0 4.5.73 7.684 2.19 9.554s3.858 2.805 7.2 2.805c1.9 0 3.57-.385 5.01-1.155 1.438-.77 2.598-1.885 3.477-3.345.5-.86.86-1.874 1.08-3.044.22-1.17.33-3.203.33-6.103V65.98h4.23v32.994h-4.23v-3.57c-1.28 1.56-2.71 2.69-4.29 3.39s-3.49 1.05-5.728 1.05c-4.76 0-8.19-1.284-10.29-3.854-2.1-2.57-3.148-6.834-3.148-12.793V65.98zM500.35 98.974h-3.87L483.583 65.98h4.47l10.558 26.605 10.65-26.606h4.588L500.35 98.973z" fill="#8f8f8f"/><path d="M517.416 98.974h-4.29v-7.98h4.29v7.98zM533.227 98.974h-4.11V69.668h-4.41v-3.69h4.23v-.9c0-3.5.886-6.09 2.656-7.77s4.484-2.518 8.144-2.518h.39v3.81c-2.54.04-4.335.545-5.385 1.514-1.05.97-1.574 2.625-1.574 4.964v.9h6.96v3.69h-6.9v29.306zM548.462 98.974h-4.29V65.98h3.99v3.808c1.04-1.46 2.175-2.53 3.405-3.21 1.23-.68 2.664-1.04 4.305-1.08l.03 4.59c-2.66.24-4.565 1.035-5.715 2.384s-1.725 3.545-1.725 6.585v19.917z" fill="#bcbcbc"/></g><g><path d="M10 120.543c-.21 0-.4.03-.633.084 0 .623-.01 1.754-.01 2.63.116.02.328.03.465.03.865 0 1.446-.537 1.446-1.36 0-.803-.538-1.384-1.267-1.384zm2.715 6.61c-.39 0-.612-.052-.834-.2-.348-.232-.717-.866-.928-1.225-.36-.623-.76-1.288-1.14-1.848-.065.01-.117.01-.16.01-.105 0-.19-.01-.295-.01v.56c0 .285.01.57.01.855.01.57.02.814.106 1.035.106.275.296.412.644.444v.295l-.243-.01c-.274-.012-.655 0-1.15 0-.487 0-.867-.012-1.14 0l-.255.01v-.296c.263-.02.39-.074.517-.21.116-.14.19-.33.21-.572.032-.317.043-.507.043-1.552v-1.775c0-1.288-.042-1.605-.116-1.9-.074-.286-.296-.402-.655-.444v-.295c.21.022.422.01.633.01.55 0 .718 0 1.373-.03.57-.022.897-.033 1.15-.033.72 0 1.152.106 1.51.36.403.284.666.834.666 1.383 0 .866-.57 1.573-1.54 1.933.4.506.716 1.013 1.086 1.594.338.538.676 1.004.94 1.268.148.158.243.21.444.264v.295c-.275.062-.55.084-.877.084M18.135 126.94c-.08.13-.166.156-.646.156-.298 0-.586-.017-.883-.026-.42-.01-.837-.027-1.256-.027-.417 0-.836.01-1.255.027v-.244c.393-.036.567-.263.602-.646.026-.262.026-.54.026-.995v-2.47c0-.462-.026-.67-.096-.854-.078-.226-.235-.33-.532-.365v-.245h4.083c0 .253-.01.516-.01.768 0 .21-.007.41.01.62h-.314c-.06-.672-.35-.855-1.387-.855-.192 0-.445.008-.654.017-.018.34-.027.453-.027.96v1.01c.13.01.236.01.392.01.908 0 1.187-.13 1.24-.602h.314c-.018.14-.018.428-.018.864 0 .445.01.707.018.847h-.314c-.027-.5-.262-.62-1.16-.62-.158 0-.315.008-.472.008 0 .55.01 1.1.01 1.65 0 .365.06.487.27.54.13.035.33.044.602.044.942 0 1.274-.21 1.474-.925l.34.07c-.122.61-.262 1.116-.357 1.282zm-1.947-6.257l-.41-.244.865-1.275 1.003.184-1.458 1.333M21.772 124.48c-.087 0-.13 0-.244-.01l-.192-.445c.82-.053 1.274-.453 1.274-1.117 0-.697-.48-1.195-1.143-1.195-.105 0-.192.008-.332.035 0 .54-.017 1.082-.017 1.623v1.528c0 1.142.008 1.335.096 1.56.078.228.235.342.532.368v.244l-.21-.01c-.227-.007-.54-.007-.96-.007-.41 0-.732 0-.95.008l-.21.01v-.244c.393-.035.567-.262.603-.646.025-.262.025-.42.025-1.282v-2.18c0-.464-.026-.673-.096-.856-.08-.227-.237-.332-.534-.367v-.244c.105.01.026.01.402.01.148 0 .358 0 .636-.01.445-.017.89-.043 1.335-.043 1.238 0 1.98.61 1.98 1.623 0 .95-.846 1.65-1.998 1.65M29.702 121.686c-.096.13-.14.305-.157.655-.018.376-.026.664-.026 1.205 0 .2.007.802.007 1.404 0 .61-.095.977-.35 1.343-.4.584-1.063.88-1.935.88-.55 0-.97-.103-1.362-.365-.61-.393-.846-.908-.846-1.833 0-.942.018-1.35.018-1.657 0-.445.026-.908-.053-1.344-.053-.314-.22-.444-.585-.48v-.244l.2.01c.227.008.55.008.97.008.418 0 .74 0 .967-.01l.2-.008v.245c-.27.035-.4.104-.487.252-.08.13-.114.306-.123.69-.017.55-.026 1.09-.026 1.64 0 1.5.035 1.79.306 2.103.208.244.566.41.986.41.584 0 1.15-.297 1.326-.88.113-.377.13-.647.13-1.633v-.863c0-.995-.025-1.3-.12-1.45-.098-.156-.228-.244-.456-.27v-.244c.35.018.472.018.908.018.445 0 .567 0 .916-.018v.245c-.192.025-.314.078-.41.19M33.19 124.138c-.147 0-.305.008-.53.026-.01.236-.01.28-.01.68v.515c0 .488.017.75.078.924.07.218.28.323.646.323.74 0 1.16-.41 1.16-1.143 0-.812-.524-1.326-1.343-1.326zm-.025-2.434c-.158 0-.315.017-.472.017-.008.568-.026 1.545-.034 1.912.095.01.217.017.383.017.855 0 1.343-.36 1.343-.987 0-.602-.454-.96-1.22-.96zm1.902 4.955c-.41.313-.873.418-1.763.418-.47 0-.95-.035-1.423-.035-.19 0-.547 0-.792.017l-.104.01v-.245c.41-.035.566-.245.6-.645.027-.263.036-.42.036-1.283v-1.65c0-.81-.01-1.16-.096-1.386-.087-.226-.244-.33-.54-.365v-.245c.4.017.636.017 1.194.017.507 0 1.265-.026 1.77-.026.804 0 1.537.385 1.537 1.293 0 .67-.418 1.125-1.247 1.334.924.184 1.413.716 1.413 1.58 0 .523-.19.916-.583 1.212M40.58 126.948c-.08.122-.185.148-.62.148-.22 0-.446-.01-.664-.018-.54-.018-1.03-.035-1.623-.035-.444 0-.74.01-1.02.027v-.245c.218-.017.33-.06.427-.174.157-.183.2-.41.2-1.046 0-.437.01-.786.01-1.238v-.935c0-1.177-.01-1.334-.097-1.57-.078-.226-.244-.33-.54-.365v-.245l.218.01c.236.008.56.008.995.008.427 0 .76 0 .986-.01l.22-.008v.245c-.446 0-.637.235-.69.654-.018.147-.026.287-.026 1.28v1.458c0 1.213.008 1.36.122 1.483.096.097.28.14.654.14.48 0 .742-.05.96-.173.244-.13.428-.393.514-.76l.332.088c-.096.506-.262 1.134-.357 1.283M43.614 127.06c-.22-.008-.54-.008-.952-.008-.418 0-.732 0-.96.008l-.208.01v-.245c.41-.035.567-.244.6-.645.028-.263.036-.42.036-1.283v-1.466c0-.226-.008-.46-.008-.714 0-.463-.018-.672-.088-.855-.078-.226-.244-.33-.54-.365v-.245l.21.008c.226.01.54.01.958.01.41 0 .733 0 .952-.01l.21-.008v.245c-.376.025-.568.26-.603.654-.025.25-.025.496-.025 1.28v1.467c0 1.143.01 1.335.096 1.562.08.226.237.34.533.365v.244l-.21-.01M47.65 121.74c-1.063 0-1.823.888-1.823 2.136 0 1.518.9 2.713 2.042 2.713 1.073 0 1.83-.908 1.83-2.173 0-1.5-.898-2.678-2.05-2.678zm4.12 6.9c-.68 0-1.406-.21-2.095-.593-.393-.22-.942-.593-1.343-.925-.297.044-.41.052-.69.052-1.762 0-2.93-1.152-2.93-2.888 0-1.858 1.264-3.14 3.113-3.14 1.797 0 2.993 1.15 2.993 2.878 0 1.23-.628 2.32-1.623 2.827.314.158.628.333.934.516.888.54 1.5.768 2.075.768.358 0 .655-.08 1.004-.253l.112.306c-.427.296-.96.454-1.553.454" fill="#231f20"/><path d="M56.864 121.686c-.096.13-.14.305-.158.655-.017.376-.026.664-.026 1.205 0 .2.01.802.01 1.404 0 .61-.097.977-.35 1.343-.4.584-1.064.88-1.936.88-.55 0-.97-.103-1.362-.365-.61-.393-.846-.908-.846-1.833 0-.942.017-1.35.017-1.657 0-.445.026-.908-.052-1.344-.05-.314-.217-.444-.584-.48v-.244l.2.01c.228.008.55.008.97.008.418 0 .74 0 .968-.01l.2-.008v.245c-.27.035-.4.104-.488.252-.08.13-.113.306-.122.69-.018.55-.026 1.09-.026 1.64 0 1.5.035 1.79.305 2.103.21.244.567.41.986.41.584 0 1.15-.297 1.325-.88.114-.377.13-.647.13-1.633v-.863c0-.995-.025-1.3-.12-1.45-.097-.156-.228-.244-.455-.27v-.244c.35.018.47.018.908.018.444 0 .567 0 .916-.018v.245c-.192.025-.315.078-.41.19M62.186 126.94c-.078.13-.166.156-.646.156-.296 0-.584-.017-.88-.026-.42-.01-.84-.027-1.257-.027-.42 0-.838.01-1.257.027v-.244c.393-.036.568-.263.603-.646.025-.262.025-.54.025-.995v-2.47c0-.462-.026-.67-.096-.854-.08-.226-.237-.33-.534-.365v-.245h4.084c0 .253-.01.516-.01.768 0 .21-.008.41.01.62h-.314c-.06-.672-.35-.855-1.388-.855-.192 0-.444.008-.654.017-.017.34-.026.453-.026.96v1.01c.13.01.236.01.393.01.907 0 1.187-.13 1.24-.602h.313c-.017.14-.017.428-.017.864 0 .445.01.707.017.847h-.314c-.026-.5-.262-.62-1.16-.62-.158 0-.315.008-.472.008 0 .55.01 1.1.01 1.65 0 .365.06.487.27.54.13.035.33.044.6.044.943 0 1.275-.21 1.476-.925l.34.07c-.123.61-.262 1.116-.358 1.282M70.257 121.725c-.01-.76-.454-1.056-1.647-1.056-.243 0-.475.01-.74.03-.02.73-.02 1.237-.02 2.387.253.012.38.022.56.022.98 0 1.277-.17 1.33-.74h.38c0 .295-.02.602-.02.897 0 .39.02.792.02 1.183h-.38c-.074-.634-.317-.76-1.426-.76-.19 0-.264 0-.464.01v1.183c0 .233 0 .486.01.76.02.58.063 1.088.75 1.13v.296l-.254-.01c-.263-.012-.655-.012-1.15-.012-.508 0-.888 0-1.163.01l-.253.01v-.295c.475-.042.687-.316.73-.78.03-.318.03-.508.03-1.554v-2.64c0-.56-.03-.814-.116-1.036-.095-.275-.285-.4-.644-.443v-.295h4.858c-.02.2-.02.538-.02.982 0 .423 0 .486.02.718h-.39M73.856 121.68c-.174 0-.332.025-.523.068 0 .515-.01 1.448-.01 2.172.097.018.27.027.384.027.716 0 1.196-.445 1.196-1.125 0-.664-.445-1.143-1.047-1.143zm2.242 5.46c-.323 0-.506-.043-.69-.166-.287-.192-.592-.715-.767-1.012-.296-.514-.627-1.064-.942-1.526-.052.008-.095.008-.13.008-.087 0-.157-.008-.244-.008v.462c0 .235.01.47.01.707.007.47.015.67.086.855.087.227.244.34.532.366v.244l-.2-.01c-.228-.007-.542 0-.952 0-.4 0-.715-.007-.942 0l-.21.01v-.244c.218-.017.323-.06.428-.174.096-.114.157-.27.174-.47.026-.264.036-.42.036-1.284v-1.466c0-1.064-.036-1.326-.096-1.57-.062-.236-.245-.332-.54-.366v-.245c.173.02.348.01.522.01.454 0 .593 0 1.134-.027.47-.017.74-.025.95-.025.594 0 .952.086 1.25.296.33.236.55.69.55 1.143 0 .715-.473 1.3-1.275 1.596.332.42.594.838.9 1.318.28.446.558.83.776 1.048.122.13.2.174.366.218v.244c-.227.053-.454.07-.724.07M79.567 122.786c-.227.594-.54 1.36-.672 1.79h1.292l-.62-1.79zm2.827 4.275c-.218-.008-.53-.008-.933-.008-.41 0-.724 0-.942.01l-.2.008v-.244c.28-.018.445-.166.445-.41 0-.087-.027-.21-.114-.472-.105-.322-.176-.54-.28-.837h-1.675l-.175.506c-.13.393-.2.68-.2.83 0 .25.113.365.392.383v.244c-.33-.01-.454-.018-.872-.018-.41 0-.532.01-.864.018v-.244c.13-.018.175-.035.27-.123.166-.148.332-.453.594-1.116l.828-2.11c.227-.57.568-1.485.804-2.226h.593c.078.27.262.7.384 1.013l1.23 3.15c.208.53.356.845.47 1.046.122.21.244.314.453.366v.244l-.21-.01M88.605 121.756c-.095.157-.114.306-.13.76-.026.785-.036 2.006-.036 2.59v1.335c0 .202.024.507.024.63h-.593c-.565-.742-1.743-2.182-1.743-2.182-.14-.175-1.23-1.518-1.78-2.19 0 .184-.008.07-.008.637v.567c0 .655.008 1.3.033 1.954.018.367.053.55.14.716.087.175.218.244.47.253v.244c-.304-.018-.618-.018-.924-.018-.315 0-.62 0-.934.017v-.245c.576-.017.593-.497.61-.95.01-.368.018-.672.018-1.23v-1.842c0-.724-.035-.9-.166-1.09-.087-.14-.2-.193-.462-.218v-.245c.288.018.393.018.76.018.357 0 .462 0 .75-.018.104.192.27.367.872 1.1.855 1.037 1.622 1.92 2.346 2.826v-1.903c0-.872-.017-1.09-.06-1.316-.06-.28-.227-.42-.55-.462v-.245c.357.018.48.018.925.018.444 0 .565 0 .924-.018v.245c-.235.008-.367.05-.49.26M94.694 126.86c-.568.227-1.065.315-1.755.315l-.08.35c.046-.01.132 0 .167 0 .33 0 .55.234.55.523 0 .47-.375.802-.968.802-.176 0-.333-.035-.525-.113l.122-.34c.112.043.22.07.314.07.245 0 .41-.123.41-.34 0-.175-.086-.28-.216-.28-.07 0-.132.026-.193.07l-.19-.052.174-.707c-.768-.07-1.327-.323-1.797-.812-.54-.55-.83-1.3-.83-2.18 0-1.886 1.213-3.02 3.212-3.02.6 0 1.185.087 1.69.253-.017.2-.017.4-.017.592 0 .15.01.463.018.664h-.34c-.14-.62-.637-.95-1.43-.95-1.23 0-1.98.818-1.98 2.18 0 1.57.88 2.713 2.094 2.713.73 0 1.23-.367 1.43-1.065l.332.07c-.08.296-.157.793-.192 1.256M97.92 122.786c-.228.594-.54 1.36-.672 1.79h1.292l-.62-1.79zm2.826 4.275c-.218-.008-.533-.008-.933-.008-.41 0-.724 0-.943.01l-.2.008v-.244c.28-.018.445-.166.445-.41 0-.087-.026-.21-.114-.472-.104-.322-.173-.54-.277-.837h-1.676l-.174.506c-.13.393-.2.68-.2.83 0 .25.113.365.39.383v.244c-.33-.01-.452-.018-.87-.018-.41 0-.533.01-.865.018v-.244c.13-.018.176-.035.27-.123.167-.148.333-.453.594-1.116l.83-2.11c.226-.57.567-1.485.8-2.226h.594c.08.27.263.7.385 1.013l1.23 3.15c.21.53.36.845.47 1.046.125.21.246.314.455.366v.244l-.21-.01M103.6 127.06c-.22-.008-.543-.008-.954-.008-.417 0-.732 0-.96.008l-.208.01v-.245c.41-.035.568-.244.6-.645.027-.263.036-.42.036-1.283v-1.466c0-.226-.01-.46-.01-.714 0-.463-.016-.672-.085-.855-.08-.226-.245-.33-.542-.365v-.245l.21.008c.226.01.54.01.958.01.41 0 .734 0 .953-.01l.207-.008v.245c-.375.025-.568.26-.602.654-.027.25-.027.496-.027 1.28v1.467c0 1.143.01 1.335.097 1.562.08.226.235.34.532.365v.244l-.208-.01M106.31 127.174c-.507 0-.873-.07-1.466-.297-.026-.33-.087-.837-.156-1.256l.33-.052c.21.707.672 1.074 1.343 1.074.62 0 1.04-.323 1.04-.81 0-.394-.27-.665-.663-.91l-.915-.584c-.63-.4-.995-.82-.995-1.587 0-.977.74-1.604 1.893-1.604.558 0 1.02.104 1.43.313-.008.21-.008.28-.008.55 0 .313 0 .4.01.645h-.333c-.123-.628-.517-.977-1.117-.977-.542 0-.935.34-.935.82 0 .42.29.697.752.994l.74.48c.708.463 1.11.907 1.11 1.605 0 .952-.84 1.597-2.06 1.597M113.32 126.94c-.076.13-.165.156-.645.156-.296 0-.584-.017-.88-.026-.42-.01-.84-.027-1.256-.027-.42 0-.84.01-1.258.027v-.244c.393-.036.567-.263.602-.646.026-.262.026-.54.026-.995v-2.47c0-.462-.026-.67-.096-.854-.078-.226-.234-.33-.532-.365v-.245h4.083c0 .253-.01.516-.01.768 0 .21-.008.41.01.62h-.315c-.06-.672-.348-.855-1.386-.855-.192 0-.445.008-.655.017-.018.34-.026.453-.026.96v1.01c.13.01.235.01.392.01.908 0 1.186-.13 1.24-.602h.314c-.018.14-.018.428-.018.864 0 .445.008.707.018.847h-.314c-.027-.5-.262-.62-1.16-.62-.16 0-.315.008-.472.008 0 .55.008 1.1.008 1.65 0 .365.062.487.272.54.13.035.33.044.6.044.942 0 1.275-.21 1.476-.925l.34.07c-.123.61-.263 1.116-.36 1.282M10.32 112.14c-.078.103-.205.136-.51.136-.417 0-.825-.023-1.24-.033-.357-.008-.63-.017-.816-.017-.255 0-.875.01-1.054.017l-.118.01.033-.18c.255-.025.408-.102.527-.263.136-.17.22-.407.34-.884.11-.466.16-.747.34-1.622l.135-.67c.136-.68.187-1.08.187-1.293 0-.37-.135-.525-.5-.567l.033-.187c.05.008.093.008.12.008.314 0 .62.01.934.01.493 0 .816-.01.96-.01.026 0 .077 0 .136-.008l-.033.187c-.264.017-.408.085-.536.255-.212.27-.33.637-.645 2.276l-.11.57c-.137.696-.188.934-.23 1.25-.017.1-.026.21-.026.26 0 .332.17.435.714.435.96 0 1.317-.197 1.63-.894l.23.085c-.204.56-.4.995-.5 1.13M11.915 112.34c-.17 0-.28-.09-.28-.245 0-.076.025-.212.067-.4.11-.45.264-1.06.35-1.384.118-.44.17-.746.17-.865 0-.11-.052-.162-.146-.162-.076 0-.153.026-.33.077l-.06.016-.026-.237c.467-.18.926-.29 1.156-.29.127 0 .178.043.178.144 0 .102-.043.375-.195.97l-.13.5c-.21.825-.262 1.112-.262 1.25 0 .126.068.202.195.202.076 0 .23-.033.467-.118l.017.238c-.45.178-.934.305-1.172.305zm.926-4.34c-.262 0-.432-.16-.432-.407 0-.305.22-.518.527-.518.254 0 .416.153.416.4 0 .305-.212.525-.51.525M16.585 109.216c-.153 0-.34.06-.577.188-.247.127-.426.264-.52.39-.11.154-.202.416-.33.977-.127.528-.187.86-.187.98 0 .16.188.253.528.253.35 0 .645-.162.867-.475.34-.484.594-1.258.594-1.81 0-.323-.13-.502-.375-.502zm.01 2.728c-.332.29-.724.407-1.327.407-.662 0-1.062-.11-1.062-.28 0-.067.01-.152.094-.51l.442-1.927c.144-.62.255-1.113.407-1.81.085-.407.118-.628.118-.74 0-.1-.05-.16-.144-.16-.06 0-.246.043-.374.085l-.008-.247.102-.032c.46-.153.84-.238 1.02-.238.11 0 .177.05.177.144 0 .094-.04.306-.185.935l-.256 1.12c-.085.365-.11.5-.136.62.535-.315 1.003-.46 1.426-.46.52 0 .774.265.774.8 0 .79-.45 1.758-1.07 2.294M20.39 109.19c-.407 0-.84.56-1.052 1.385h.084c.79 0 1.385-.415 1.385-.96 0-.237-.187-.424-.416-.424zm-.874 1.7c-.06 0-.136 0-.246-.01-.026.154-.034.28-.034.41 0 .433.152.663.45.663.27 0 .61-.145 1.112-.46l.094.288c-.628.393-1.104.57-1.538.57-.526 0-.815-.312-.815-.882 0-1.402.95-2.617 2.046-2.617.535 0 .85.248.85.673 0 .78-.833 1.367-1.92 1.367M24.842 109.94l-.28-.025c.017-.1.025-.22.025-.33 0-.154-.136-.264-.348-.264-.128 0-.256.078-.366.205-.323.365-.45.943-.637 1.886l-.16.824c-.325.017-.41.026-.74.07.084-.324.143-.58.212-.868l.185-.79c.128-.535.187-.866.187-1.045 0-.21-.05-.305-.152-.305-.052 0-.128.018-.213.043l-.212.067-.026-.254c.415-.17.89-.305 1.103-.305.086 0 .137.034.154.12.025.1.042.22.05.364.382-.315.722-.494.96-.494.162 0 .366.085.56.23-.135.305-.237.587-.305.875M27.722 109.366l-.705-.017-.357 1.74c-.093.45-.102.578-.102.646 0 .118.06.187.17.187.06 0 .187-.034.39-.094l.086-.026.026.246c-.442.18-.9.298-1.147.298-.18 0-.29-.085-.29-.247 0-.142.035-.355.102-.62.077-.296.136-.542.205-.874l.263-1.257-.45.008.06-.273c.576-.1.772-.56.933-1.052l.408-.087-.212 1.004.705-.01-.085.426M30.26 109.19c-.407 0-.84.56-1.053 1.385h.085c.79 0 1.385-.415 1.385-.96 0-.237-.186-.424-.416-.424zm-.874 1.7c-.06 0-.136 0-.246-.01-.026.154-.035.28-.035.41 0 .433.154.663.45.663.272 0 .612-.145 1.114-.46l.092.288c-.628.393-1.104.57-1.538.57-.526 0-.815-.312-.815-.882 0-1.402.95-2.617 2.046-2.617.536 0 .85.248.85.673 0 .78-.833 1.367-1.92 1.367zm.942-2.565l-.27-.22 1.036-1.174.764.188-1.53 1.207M46.54 107.816h-.247c.01-.093.017-.127.017-.187 0-.47-.305-.63-1.155-.63-.28 0-.552 0-.832.025-.18.706-.298 1.318-.442 2.074h.316c.543 0 .773-.01.967-.044.315-.06.502-.246.595-.586h.23c-.12.5-.264 1.215-.323 1.648h-.23c.01-.06.017-.11.017-.144 0-.366-.23-.485-.926-.485-.416 0-.568.008-.722.016-.042.213 0 .027-.195 1.003-.094.475-.13.773-.13.925 0 .298.155.374.724.374 1.07 0 1.4-.17 1.733-.902l.212.085c-.188.56-.392 1.01-.51 1.156-.086.093-.196.116-.553.116-.297 0-.603-.007-.9-.016-.39-.007-.79-.017-1.18-.017-.4 0-.79.01-1.19.01l.033-.18c.256-.025.41-.102.527-.263.136-.17.22-.407.34-.884.11-.475.145-.67.34-1.622l.136-.67c.136-.664.187-1.08.187-1.293 0-.37-.136-.525-.5-.567l.032-.187h3.866c-.094.383-.18.84-.238 1.24zm-1.614-1.81l-.272-.22 1.036-1.173.773.187-1.537 1.206M49.24 112.616c-.288-.11-.637-.228-.994-.33-.585.144-.993.578-.993 1.07 0 .46.39.764 1.002.764.74 0 1.42-.5 1.42-1.044 0-.203-.13-.34-.434-.46zm-.126-3.44c-.46 0-.833.485-.833 1.063 0 .4.23.67.56.67.45 0 .817-.467.817-1.045 0-.425-.212-.69-.543-.69zm1.622.188l-.578-.01c.102.18.136.316.136.51 0 .782-.654 1.385-1.504 1.385-.16 0-.28-.017-.46-.07-.21.13-.278.188-.278.265 0 .093.093.135.466.254l.68.213c.68.212 1.01.415 1.01.908 0 .9-.89 1.606-2.03 1.606-.933 0-1.503-.44-1.503-1.163 0-.663.425-.978 1.12-1.155-.423-.153-.517-.222-.517-.365 0-.188.247-.417.757-.697-.264-.187-.39-.433-.39-.773 0-.808.644-1.42 1.494-1.42.22 0 .38.026.568.095h1.12l-.092.416M53.536 109.204c-.34 0-.68.255-.968.73-.323.52-.552 1.207-.552 1.657 0 .264.128.41.34.41.314 0 .866-.28 1.08-.494.117-.118.186-.288.27-.61.136-.52.264-1.003.34-1.565-.187-.084-.365-.126-.51-.126zm.39 3.144c-.152 0-.202-.094-.28-.51-.628.357-1.086.518-1.537.518-.51 0-.808-.263-.808-.73 0-.45.22-1.088.56-1.615.46-.712 1.03-1.162 1.895-1.162.382 0 .73.067 1.096.16l-.042.137c-.305.976-.526 2.056-.526 2.42 0 .23.05.358.153.358.068 0 .246-.05.458-.128l.026.264c-.432.16-.848.288-.993.288M57.69 107.354c-.28 1.13-.56 2.386-.83 3.585-.086.39-.128.644-.128.77 0 .13.06.19.186.19.085 0 .238-.036.467-.104l.017.24c-.433.168-.96.313-1.188.313-.163 0-.256-.095-.256-.256 0-.12.026-.27.153-.806.265-1.123.553-2.32.783-3.39.102-.493.152-.74.152-.817 0-.1-.05-.15-.144-.15-.083 0-.237.034-.373.084l-.017-.255c.434-.154.91-.272 1.147-.272.12 0 .18.05.18.143 0 .086-.036.283-.146.724M58.87 112.34c-.168 0-.28-.09-.28-.245 0-.076.027-.212.07-.4.11-.45.262-1.06.347-1.384.12-.44.17-.746.17-.865 0-.11-.05-.162-.144-.162-.077 0-.153.026-.33.077l-.06.016-.026-.237c.467-.18.925-.29 1.155-.29.127 0 .178.043.178.144 0 .102-.043.375-.195.97l-.128.5c-.212.825-.263 1.112-.263 1.25 0 .126.068.202.196.202.076 0 .23-.033.466-.118l.017.238c-.45.178-.934.305-1.172.305zm.927-4.34c-.263 0-.433-.16-.433-.407 0-.305.22-.518.527-.518.256 0 .417.153.417.4 0 .305-.213.525-.51.525M63.14 109.366l-.703-.017-.358 1.74c-.094.45-.102.578-.102.646 0 .118.06.187.17.187.06 0 .186-.034.39-.094l.085-.026.026.246c-.443.18-.9.298-1.148.298-.178 0-.29-.085-.29-.247 0-.142.036-.355.103-.62.076-.296.136-.542.204-.874l.262-1.257-.45.008.06-.273c.577-.1.773-.56.934-1.052l.407-.087-.212 1.004.706-.01-.085.426M65.68 109.19c-.407 0-.84.56-1.053 1.385h.086c.79 0 1.384-.415 1.384-.96 0-.237-.186-.424-.416-.424zm-.874 1.7c-.06 0-.136 0-.247-.01-.025.154-.034.28-.034.41 0 .433.153.663.45.663.272 0 .61-.145 1.113-.46l.092.288c-.628.393-1.104.57-1.538.57-.525 0-.815-.312-.815-.882 0-1.402.95-2.617 2.047-2.617.534 0 .85.248.85.673 0 .78-.834 1.367-1.92 1.367zm.943-2.565l-.273-.22 1.037-1.174.764.188-1.53 1.207M81.844 107.816h-.247c.008-.085.017-.152.017-.195 0-.17-.06-.305-.16-.407-.163-.153-.46-.212-1.106-.212-.178 0-.416.01-.628.018-.153.697-.29 1.367-.442 2.09.16 0 .323.008.484.008.943 0 1.13-.085 1.31-.637h.228c-.136.55-.247 1.095-.323 1.655h-.238c.008-.06.016-.11.016-.144 0-.144-.06-.28-.162-.356-.144-.11-.314-.136-.823-.136-.27 0-.347.008-.568.017l-.11.57c-.163.815-.222 1.198-.222 1.435 0 .348.153.51.5.553l-.033.178-.135-.01c-.068 0-.442-.006-.765-.006-.34 0-.968 0-1.08.007l-.143.01.034-.177c.254-.027.408-.103.527-.264.135-.17.23-.41.34-.885.118-.484.16-.74.34-1.622l.135-.672c.135-.67.187-1.077.187-1.29 0-.372-.136-.526-.5-.57l.032-.185h3.77c-.084.383-.17.824-.236 1.23M84.737 109.94l-.28-.025c.017-.1.025-.22.025-.33 0-.154-.135-.264-.348-.264-.127 0-.255.078-.365.205-.324.365-.45.943-.64 1.886l-.16.824c-.323.017-.408.026-.74.07.086-.324.146-.58.213-.868l.187-.79c.128-.535.187-.866.187-1.045 0-.21-.05-.305-.152-.305-.052 0-.128.018-.213.043l-.212.067-.026-.254c.416-.17.892-.305 1.105-.305.084 0 .134.034.152.12.025.1.042.22.05.364.383-.315.722-.494.96-.494.162 0 .366.085.56.23-.135.305-.237.587-.305.875M87.697 109.204c-.34 0-.68.255-.968.73-.324.52-.553 1.207-.553 1.657 0 .264.127.41.34.41.315 0 .866-.28 1.077-.494.12-.118.188-.288.274-.61.135-.52.262-1.003.34-1.565-.188-.084-.366-.126-.51-.126zm.39 3.144c-.152 0-.202-.094-.28-.51-.627.357-1.087.518-1.537.518-.51 0-.807-.263-.807-.73 0-.45.22-1.088.56-1.615.46-.712 1.028-1.162 1.895-1.162.383 0 .73.067 1.096.16l-.042.137c-.306.976-.527 2.056-.527 2.42 0 .23.05.358.153.358.068 0 .245-.05.46-.128l.025.264c-.434.16-.85.288-.995.288M92.14 109.366l-.703-.017-.358 1.74c-.095.45-.102.578-.102.646 0 .118.06.187.168.187.062 0 .188-.034.39-.094l.087-.026.026.246c-.442.18-.9.298-1.15.298-.176 0-.287-.085-.287-.247 0-.142.034-.355.1-.62.078-.296.138-.542.206-.874l.262-1.257-.45.008.06-.273c.577-.1.772-.56.933-1.052l.41-.087-.214 1.004.706-.01-.085.426M94.68 109.19c-.408 0-.84.56-1.054 1.385h.086c.79 0 1.386-.415 1.386-.96 0-.237-.187-.424-.417-.424zm-.874 1.7c-.06 0-.137 0-.247-.01-.026.154-.035.28-.035.41 0 .433.153.663.45.663.27 0 .612-.145 1.114-.46l.092.288c-.63.393-1.104.57-1.537.57-.527 0-.817-.312-.817-.882 0-1.402.952-2.617 2.047-2.617.536 0 .85.248.85.673 0 .78-.833 1.367-1.92 1.367M99.13 109.94l-.278-.025c.015-.1.024-.22.024-.33 0-.154-.136-.264-.348-.264-.128 0-.255.078-.366.205-.322.365-.45.943-.637 1.886l-.16.824c-.324.017-.408.026-.74.07.084-.324.145-.58.213-.868l.186-.79c.127-.535.188-.866.188-1.045 0-.21-.05-.305-.154-.305-.05 0-.127.018-.212.043l-.212.067-.026-.254c.416-.17.892-.305 1.105-.305.084 0 .135.034.152.12.026.1.043.22.05.364.384-.315.724-.494.96-.494.162 0 .367.085.56.23-.134.305-.237.587-.304.875M102.52 112.354c-.17 0-.27-.1-.27-.255 0-.104.03-.29.134-.715l.085-.356c.253-1.064.312-1.42.312-1.565 0-.127-.06-.195-.178-.195-.144 0-.382.085-.636.238-.272.153-.477.33-.578.485-.078.127-.136.347-.24.797-.134.62-.22 1.045-.287 1.445-.332.025-.416.034-.748.076.17-.636.297-1.162.426-1.75.128-.576.18-.85.18-1 0-.196-.06-.29-.19-.29-.066 0-.21.034-.415.103l-.016-.24c.405-.16.848-.28 1.05-.28.19 0 .248.11.248.51v.068c.645-.364 1.308-.576 1.767-.576.28 0 .39.067.39.237 0 .18-.05.46-.23 1.15-.1.39-.194.806-.228.993-.05.246-.076.398-.076.492 0 .128.07.195.188.195.075 0 .238-.034.442-.11l.026.246c-.452.162-.96.298-1.156.298M105.167 112.34c-.168 0-.28-.09-.28-.245 0-.076.025-.212.07-.4.11-.45.262-1.06.348-1.384.118-.44.17-.746.17-.865 0-.11-.052-.162-.145-.162-.077 0-.154.026-.33.077l-.06.016-.028-.237c.468-.18.927-.29 1.156-.29.13 0 .18.043.18.144 0 .102-.044.375-.197.97l-.125.5c-.213.825-.264 1.112-.264 1.25 0 .126.07.202.196.202.077 0 .23-.033.468-.118l.017.238c-.45.178-.934.305-1.173.305zm.927-4.34c-.262 0-.433-.16-.433-.407 0-.305.222-.518.527-.518.255 0 .416.153.416.4 0 .305-.213.525-.51.525M109.44 109.366l-.706-.017-.355 1.74c-.095.45-.104.578-.104.646 0 .118.06.187.17.187.06 0 .187-.034.39-.094l.086-.026.026.246c-.442.18-.9.298-1.147.298-.178 0-.29-.085-.29-.247 0-.142.037-.355.104-.62.075-.296.135-.542.204-.874l.262-1.257-.45.008.06-.273c.578-.1.773-.56.934-1.052l.408-.087-.212 1.004.705-.01-.085.426M111.984 109.19c-.408 0-.842.56-1.054 1.385h.084c.79 0 1.386-.415 1.386-.96 0-.237-.19-.424-.416-.424zm-.875 1.7c-.06 0-.138 0-.25-.01-.024.154-.033.28-.033.41 0 .433.154.663.45.663.273 0 .613-.145 1.114-.46l.094.288c-.628.393-1.105.57-1.538.57-.526 0-.814-.312-.814-.882 0-1.402.95-2.617 2.047-2.617.534 0 .85.248.85.673 0 .78-.834 1.367-1.92 1.367zm.94-2.565l-.27-.22 1.036-1.174.764.188-1.53 1.207M72.217 110.766c.57 0 1.032-.462 1.032-1.03 0-.57-.463-1.032-1.033-1.032-.57 0-1.03.46-1.03 1.03 0 .57.46 1.032 1.03 1.032M36.82 110.766c.57 0 1.03-.462 1.03-1.03 0-.57-.46-1.032-1.03-1.032-.57 0-1.03.46-1.03 1.03 0 .57.46 1.032 1.03 1.032" fill="#231f20"/><path d="M7.134 116.094H113.08" fill="none" stroke="#231f20" stroke-width=".405"/><g clip-path="url(#a)" transform="matrix(.13 0 0 -.13 -14.28 240.32)"><path d="M164.5 1101.7h866.06v305.2H164.5v-305.2z" fill="#fff"/><path d="M425.64 1217c-7.692-2.26-15.55-2.59-22.68-6.48 16.844.65 33.695-1.94 49.894-7.13 5.832-1.94 11.02-4.53 16.2-7.77 2.59-1.95 3.89-3.89 6.476-5.18 3.242-1.95 7.78-1.95 11.02-.65h3.242c9.72 2.59 20.086 5.18 26.566 12.31 0-.65.65-.65 1.297-.65-1.945-5.19-1.945-11.01-5.836-15.55 0-.65-.65-1.95.652-2.59h1.293c-.645 0-1.293 0-1.293-.65 0-1.3 1.94 0 2.59-1.3-3.243-.65-6.477-1.29-8.426-3.89 0-.64 1.297-.64 1.95-.64-1.302-1.3-3.243-.65-3.896-1.95 0 0 .653-.65 1.3-.65-.647 0-1.3 0-1.3-.65v-1.93c-1.94 0-2.586-1.3-3.882-1.95 2.59-1.94 4.535 0 7.125 0-7.125-2.59-12.958-6.48-20.086-8.42-1.297 0 0-1.95-1.297-1.95 1.945-1.29 3.242.65 5.183.65-9.07-5.19-18.144-9.72-27.86-15.55 0 0-1.3-1.3-1.3-2.59h-2.594c-1.294-.65-.645-2.6-1.942-3.9 3.242-1.94 7.13 2.6 9.07 0 .653 0-1.293-.64-2.593-.64-.64 0-.64-1.3-1.293-1.3h-1.942c-1.3-1.29-2.594-1.94-2.594-3.88-1.296 0-2.593 0-3.242-1.3 14.258 1.94 29.16.65 42.77 7.78 10.37 5.18 20.086 12.31 28.515 21.38 0 0 .644-.65.644-1.3-1.945-6.48-5.832-11.01-11.016-14.9-3.886-1.94-6.48-5.18-9.722-6.48-1.946-1.3-3.887-2.59-5.828-3.89-23.977-8.42-52.49-4.53-73.223-20.73 0 .65-.652.65-1.3.65-1.294-1.3-3.24-1.95-3.888-3.25 0-1.29 1.946-.65 2.594-.65 3.888 2.6 7.778 4.54 12.31 5.84-5.18-2.59-10.367-6.48-15.547-7.78-11.02-1.94-21.387-1.29-32.403 0 6.48 3.89 12.958 8.42 20.086 12.31-1.94 1.3-3.882 1.3-5.828 1.3-3.242-.65-7.13 1.3-10.37 0-9.72-4.54-22.68-3.24-27.86-13.61-64.8-1.29-130.25 0-195.05 0 1.293 70.64 0 140.61 1.94 211.25.654 25.27-.647 50.54-.647 75.82 17.5 3.23 34.997 1.29 52.493.64 112.11 0 223.56.65 335.66 0-7.777-3.89-16.85-7.12-22.68-14.25-5.187-6.48-10.367-12.96-12.316-20.74-8.422-5.18-13.61-12.96-18.144-20.74-5.828-11.01-14.254-20.73-12.957-33.04 1.296-10.37 3.89-20.09 5.832-31.11.644-3.88 1.297-7.13 2.593-11.01 1.294-3.89 0-8.43 1.947-11.67 1.293-1.94.64-4.54 3.234-5.83v-2.59c.65-.65.65-1.3 1.946-1.3v-2.59c5.184-6.48 11.664-12.31 14.907-19.44 1.293-3.89-6.48-1.95-9.723-.65-6.48 3.24-10.363 8.43-15.55 12.96 0 0-.65-.65-.65-1.3 2.595-4.53 12.313-10.36 7.13-13.61-2.594-1.29-5.832 1.95-8.422-.64-.653-1.29 0-2.59 0-3.89-3.89 2.6-7.78 1.3-11.668 2.6-2.59.64-3.242 5.83-6.48 5.83-8.423 1.94-16.2 3.89-24.622 4.53-11.668 1.3-22.68 3.24-34.347 1.3-10.367-.65-18.144-8.42-24.62-16.2v-1.95c4.535-.64 6.476 3.25 10.37 4.54 6.477 1.3 12.31 3.88 18.79 5.19 9.718 1.94 18.793 4.53 27.863 3.88 1.945 0 4.535.65 6.48 0-11.664.65-22.03-3.24-33.046-6.48" fill="#2c49a0"/><path d="M389.36 1185.9c-1.988-.5-3.886-1.95-3.242-3.24 1.946-2.59 5.836.65 9.075.65-3.887-1.3-8.426-.65-11.665-3.89 2.59-1.95 5.184-.65 7.778-.65 0-1.3 1.293-1.3 1.94-1.94-3.237-1.3-5.83-3.89-6.48-5.83-1.292-3.24-4.534-4.54-6.48-7.13v-1.95c-6.476-5.83-13.605-9.72-18.793-16.85.653 0 .653-.64.653-1.29-1.297-1.94-3.887-2.59-4.54-4.54 0-.64 0-1.3.653-1.3 7.776 2.6 13.604 8.43 20.733 11.02 5.184 1.3 9.07 4.54 13.606 5.83 3.24.65 7.128 1.95 10.37 2.6 0-.65 0-1.3.648-1.3h5.18c-.645-1.3-3.234-.65-2.594-1.3 1.95-1.94 5.836-1.29 8.43 0 1.94 1.3 3.887 1.3 6.48 1.3.65 0 .65 1.3.65 1.95 1.94-.65 3.237-.65 5.18-.65 15.55 3.24 30.456 6.48 44.71 13.61-16.844 12.95-38.23 17.49-58.32 23.32 1.948 0 3.89-1.94 5.835 0-3.243 2.6-7.13 1.3-10.372 3.24.648 0 1.945-.64 2.594.65-5.188 2.59-10.367 2.59-15.55 3.89 3.24.65 5.183 3.24 5.183 6.48 0 .65-1.297.65-1.942.65-7.777-3.89-12.965-11.02-16.203-19.44 4.535-2.6 9.72-.65 14.254-1.3-1.94-1.94-5.18-1.94-7.774-2.59M362.79 1211.2c-6.617-7-13.61-13.61-22.03-18.14-5.837-11.67-12.318-22.03-20.74-33.05 0-.65.65-1.3.65-1.3 15.554 17.5 29.804 32.4 49.894 44.71 1.296.65-1.946-1.94.648-1.29 8.422 1.94 11.016 10.37 14.902 16.84 5.188 8.43 14.258 11.67 20.74 18.8 0-.65 0-1.3-.654-1.95.653-.64 1.3-.64 1.95-.64 2.59 1.94 5.83 1.29 7.773 3.88-5.184 1.94-11.664 2.6-16.844.65-13.61-6.48-25.274-16.84-36.29-28.51" fill="#fff"/><path d="M372.51 1198.9c.574 1.16 1.293 1.3 1.94 2.59 0 .65 0 1.3-.647 1.3-2.594-.65-4.535-3.24-5.188-5.83 0-.66.653-.66 1.3-.66 1.294.66 1.942 1.3 2.595 2.6M424.35 1149.6c-2.59-1.3-7.13-1.3-7.778-4.54-.648-1.29 1.946-.64 3.24-.64 4.538 1.94 9.72 0 13.608 3.88-1.293 1.3-3.238.65-4.535 2.6-1.293.65-3.238-.65-4.535-1.3" fill="#fff"/><path d="M494.98 1114.6c4 .89 7.774 3.24 11.66 4.53v-1.29c9.723 3.89 16.852 12.31 26.575 15.55.64 0 1.94-1.29 3.234-.65 5.835 5.18 12.316 11.02 20.738 9.72 0-.64 0-1.29.648-1.29.644 0 1.297 0 1.297.65-2.594-1.95-5.188-3.9-7.778-5.84-.648-.64 0-1.29.65-1.29 3.237 1.29 5.183 3.89 8.42 5.18-.644-.65-.644-1.95-1.292-2.59-12.313-9.07-21.383-19.44-31.106-30.45h-20.09c0 .64 0 1.29-.648 1.29-22.68-1.94-44.712-1.29-67.392-1.29 12.96 1.94 25.922 5.83 38.88 7.12 5.187 0 10.367-.64 16.202.65" fill="#2c49a0"/><path d="M750.29 1147.7c1.56 4.68 3.238 9.72.645 14.25-3.887 5.84 3.89 7.78 6.48 11.66 1.94 3.25-1.297 5.19-1.945 8.43-.645 1.3-3.24.65-4.535 2.59 4.535 1.95 11.664 5.84 8.42 11.66-1.94 3.25-5.178 8.43-1.292 11.67 4.536 2.59 11.664 1.94 13.61 6.48 3.234 7.78-3.887 14.26-7.78 20.74-1.943 3.88-4.537 6.48-7.123 10.36-2.593 4.54-5.835 8.43-7.128 13.61-1.946 5.19.648 9.72.648 14.91.645 9.71-1.95 19.44-4.535 29.16-1.95 4.53-2.594 9.71-4.543 14.25-.645 2.59-1.293 5.19-3.235 7.78-.652 1.29-.652 3.24 0 4.54 2.59 1.94 5.184 3.88 7.778 6.48 1.94 3.23.644 7.77-2.594 9.71-4.534 1.95-3.886-4.53-7.128-5.83h-1.94c-.654 1.94.64 2.6 1.94 3.89 0 .65 0 1.94-.648 1.94-2.594 0-5.188.65-5.832 1.95-6.48 9.07-15.55 13.61-25.274 17.5 2.594-.65 5.188-1.3 7.782-1.3 4.535-.65 9.714-.65 13.6 1.3 3.243 1.29 3.892 6.48 5.19 9.71 1.295 2.59-.654 6.49-1.947 8.43-3.242 5.18-8.422 8.42-13.61 11.02h307.15c.66-95.91-.64-191.81-1.3-287.71-121.17-1.95-242.34 0-363.52 0 3.888 12.95 11.017 25.27 22.68 33.69 2.59 1.3 5.83 1.94 9.07 2.59 11.017 0 22.032-3.24 33.048-4.53 1.298 0 2.595-.66 3.888-1.3 3.886-.65 8.42-.65 12.316.64 4.535 1.3 9.715 3.9 11.664 9.73" fill="#eb222c"/><path d="M725.66 1275.3c-3.824.96-7.125 0-11.016 0-5.18-1.29-9.714-1.94-14.253-3.88 3.887 2.59 7.774 5.18 12.31 6.48 3.24.64 6.48 2.59 9.722 2.59 3.887.65 7.773 1.94 11.015.65 3.24-1.3 8.422-1.3 9.075-3.24 1.293-3.89-1.946-7.79-5.836-10.37-.645-1.3 1.95-1.95 1.95-3.24-.65-1.3-2.595-1.95-3.896-1.95-1.293-.65-2.586-2.59-3.882-3.89 1.296 0 0-1.94 1.296-1.94-2.593-3.24 1.293-9.72-2.593-11.02-4.534-1.29-9.718-1.29-14.906 0 2.594.65 5.836-.64 7.778 1.94v2.6c0 .65-.65.65-1.297.65-.645-.65-1.293-.65-1.293-.65 0 1.3-1.297 2.59-1.945 2.59-3.887-.65-7.13 1.3-9.723 3.89 1.95.65 3.895 1.3 5.836.65 1.94 0 1.293 3.24 3.238 4.53h1.942c3.89 5.19 11.668 6.48 12.964 11.67 0 1.29-3.89 1.29-6.484 1.94" fill="#918f90"/></g></g></svg>