<svg xmlns="http://www.w3.org/2000/svg" width="2500" height="2500" viewBox="0 0 192.756 192.756"><path fill-rule="evenodd" clip-rule="evenodd" fill="#fff" d="M0 0h192.756v192.756H0V0z"/><path d="M68.998 122.234c.009-.021-.168-.361-.225-.502-.065-.16-.06-.568-.04-.658.024-.111-.018-.115-.061-.24-.015-.043.032-.314.022-.447-.005-.059-.228-.504-.245-.594-.017-.086.014-.297 0-.445a.88.88 0 0 0-.056-.223l-.936-2.83-.392-1.264c-.033-.105-.642-1.098-.678-1.209-.667-2.023-2.757-5.393-4.892-6.738-.07-.045-.649-.748-.742-.816-.122-.092-.484-.256-.539-.309-.163-.154-.284-.441-.539-.379a.218.218 0 0 0-.13.09c-.054.068-.684 1.645-.791 1.838-.114.203-.264.41-.323.545a4.027 4.027 0 0 0-.189.725c-.618 2.488-5.27 10.438-6.451 12.664l-4.413 8.311c-.811 1.289-.726-.037-1.014-.168-.394-.176-.309.127-.535.291-.279.199-.966.332-1.248.322-.042-.002-.506.252-.631.289-.146.043-.273.014-.283-.145-.003-.068.054-.26.067-.367.011-.094-.022-.156-.089-.223-.095-.096-.131-.035-.312.055-.171.086-.19.014-.312-.156-.132-.182-1.6-.516-1.761-.445-.212.094-.588.447-.747.234-.062-.082-.038-.293-.067-.445a.29.29 0 0 0-.252-.246c-.251-.012-.457.107-.505 0-.08-.172 0-.27-.1-.344-.048-.035-.376-.121-.424-.156-.129-.096-.126-.223-.268-.289a.23.23 0 0 0-.089-.023c-.318-.027-.483.066-.644-.025-.185-.105-.298-.35-.37-.631-.056-.221-.105-.775-.133-.824-.021-.035-.08-.059-.123-.068-.104-.018-.318.078-.424.123-.185.078-5.714 3.178-5.883 3.297-.589.42-.799.635-.869 1.305-.193 1.859.733 7.295 3.298 8.008.342.096.553.006.869-.133l25.404-12.432c.861-.43 8.271-3.92 8.468-3.988.103-.036.584-.307.597-.335zm-44.828-5.603c.009-.002.001.02-.009.033-.019.027-.053.041-.084.049-.1.027-14.394 7.607-15.568 8.199L3.78 127.58c-.56.322-.891.852-.936 1.494-.126 1.947 1.034 4.641 2.262 6.291.335.451 1.102 1.443 1.75 1.615.335.09.599 0 .892-.088.148-.047 14.723-6.875 16.568-7.766 4.766-2.096 8.797-3.85 13.583-5.902.252-.105.322-.148.379-.367.07-.273.154-.848.211-1.014.047-.139.229-.461.357-.713.102-.203.465-1.266.712-1.85.085-.201.175-.383.246-.58.114-.318.221-.857.323-1.135l5.192-12.955 2.519-6.115c.379-1.201.334-1.529 1.014-2.674.106-.179.919-2.742.947-2.941.051-.358.388-.784.037-.868-.159-.038-.484.051-.661.111-.47.174-.86.336-1.315.546-13.751 6.384-25.188 12.152-38.497 19.416-.922.52-1.69.975-2.588 1.537a1.79 1.79 0 0 0-.921 1.701c.172 2.314.729 4.246 1.816 6.295.387.684.888.619 1.682.414.173-.047 3.821-1.492 5.059-2.006l9.549-3.354a1.2 1.2 0 0 1 .21-.041zm49.94-16.02c-.043.174.43.635.54.742.328.318.842.768.983.932 1.371 1.648 2.292 3.244 3.032 5.256.007.021 15.168-.244 15.265-.268 7.403-2.527 13.743-4.4 21.329-6.305.332-.121.555-.195.67-.469 1.068-2.541-.08-7.566-1.428-9.757-.389-.634-.834-.628-1.615-.446-1.48.347-10.738 2.327-13.08 2.863-8.334 1.979-15.304 3.93-23.456 6.561-.568.18-2.192.7-2.24.891zM61.006 88.018c-.062.164.073.303.156.375.125.11 2.244 1.458 2.44 1.615.144.114.257.22.379.356.625.699.634.909 1.192 1.314.604.439.337.245.902.865.182.199 1.047.942 1.204 1.118.224.251.241.299.49.446.08.048 3.879 3.811 3.944 3.899.305.412.683 1.184 1.134 1.137.065-.008 9.554-4.624 10.075-4.902a394.413 394.413 0 0 1 6.853-3.197c3.862-1.707 11.154-4.994 11.9-5.302.686-.283 1.047-.487 1.002-1.166-.123-1.944-2.426-7.72-4.344-8.871-.471-.282-.973-.092-1.561.078-4.973 1.436-35.321 11.049-35.766 12.235zm30.953-16.297l.379-1.077a.32.32 0 0 0 .025-.085c.027-.238-.11-.229-.214-.379-.084-.121-.099-.629-.111-.668a.392.392 0 0 0-.089-.156c-.19-.226-.48-.432-.557-.601-.031-.067-.104-1.071-.134-1.136-.032-.069-.159-.206-.239-.316a.365.365 0 0 1-.05-.085c-.041-.096-.074-.364-.099-.396-.031-.039-.143-.081-.168-.117-.019-.025-.032-.122-.027-.191.018-.243.059-.361-.084-.499-.228-.219-.342-.182-.423-.446-.156-.502-.988-.755-1.572-.668-.107.016-.728.285-.958.345a3.778 3.778 0 0 1-.655.056c-.623-.021-.627-.026-1.351.278-.168.071-5.371 1.549-6.195 1.76-21.757 6.264-39.542 13.679-59.304 24.724-.316.193-.919.55-1.145.84-.227.292-.272.514-.479.657-.074.051-.327.139-.513.223-.074.033-.665.512-.702.568-.048.073-.125.275-.022.423.026.038.078.063.123.078.085.029.185.035.267.067.095.037.187.111.268.134.238.068.276-.007.39.145.075.1.239.574.368.657.127.082.307.078.368.167a.201.201 0 0 1 .022.044c.036.085.205 1.239.205 1.394 0 .105-.062.732.096.846.135.096.472.018.624-.023.64-.17.606-.43 1.382-.957l1.917-1.08c.115-.076.384-.174.423-.213a.95.95 0 0 0 .111-.155c.125-.177.301-.226.58-.312.252-.077.263-.005.535.201.56.425 1.018.726 1.671.245.292-.185.547-.328.858-.479 20.41-9.682 38.514-16.071 60.48-21.342.4-.075 3.72-.882 3.8-.924.478-.253.354-.79.195-1.417-.016-.06-.015-.073.004-.13zm-42.897-7.778c0 1.853.781 5.227 2.562 6.438.202.138.432.208.546.379.167.25.101.326.323.39.343.098.384-.005 1.012.011.096.003.531.072.66.045.213-.045.339-.169.512-.056.107.07.077.112.145.234.112.2.704.171.867.155.615-.059 1.142-.216 1.44-.713.088-.146.457-.752.893-.942.231-.101.275-.059.374-.143.201-.172.426-.639.501-.744.065-.093.555-.525.85-.8 1.46-1.363 3.423-5.59 2.975-7.958-.096-.507-.465-2.182-.747-2.602-.12-.18-.333-.359-.401-.557-.02-.058-.027-.118-.045-.178-.272-.966-1.992-3.089-2.966-3.097-.1-.001-.188.015-.276 0-.083-.014-.409-.179-.512-.201-.101-.021-.552.001-.646.056-.37.201-.705.332-1.114.434-.188.046-.26.028-.396.13-.126.093-.244.246-.36.33-.066.047-.383.155-.582.242-1.753.769-3.751 3.115-4.401 4.823-.224.591-1.214 3.753-1.214 4.324z" fill-rule="evenodd" clip-rule="evenodd" fill="#ce382f"/><path d="M84.396 120.721l4.296-8.232a76.483 76.483 0 0 1-.426 1.793l-.242.986-1.309 4.844a27.411 27.411 0 0 1-.637 2.045h2.08c.155-.754.299-1.4.422-1.902.071-.287.147-.537.195-.734l1.86-6.779c.129-.467.342-1.273.693-2.459h-3.277c-.289.629-.547 1.131-.748 1.525l-4.15 7.82.462-8.16c.012-.109.034-.504.096-1.186h-3.427c-1.491 5.221-2.764 9.184-3.769 11.875h2.05c.389-1.4.693-2.457.914-3.176l2.154-6.762-.466 8.664c-.018.377-.063.807-.118 1.273h2.634c.229-.504.463-.968.713-1.435zm5.399 1.435h7.363l.652-2.35c-1.124.125-2.394.18-3.816.18-.523 0-.983-.02-1.397-.037l.062-.25c.128-.521.276-1.006.421-1.471l.379-1.238h3.277c.463 0 .942 0 1.409.053l.609-2.242c-.557.072-1.109.072-1.678.072h-3.023l.327-1.146c.171-.574.311-1.023.465-1.346h3.382c.225 0 .818.018 1.748.072l.607-2.172H93.22c-1.284 4.987-2.437 8.951-3.425 11.875zm8.664 0h4.551c3.217 0 5.795-2.457 6.764-6.404.52-2.115.314-3.713-.504-4.645-.689-.789-1.639-.826-2.896-.826h-4.488c-1.329 5.166-2.499 9.131-3.427 11.875zm2.906-2.082l.168-.682c.152-.627.314-1.219.479-1.828l1.471-5.201h1.826c1.004 0 1.691 0 2.072.52.412.574.465 1.578.123 2.977-.385 1.561-1.123 2.744-2.146 3.498-.965.699-1.822.717-2.93.717h-1.063v-.001zm7.979 2.082h7.363l.65-2.35c-1.123.125-2.393.18-3.814.18-.523 0-.984-.02-1.398-.037l.062-.25a23.86 23.86 0 0 1 .42-1.471l.379-1.238h3.277c.465 0 .943 0 1.408.053l.611-2.242c-.557.072-1.111.072-1.68.072H113.6l.328-1.146c.17-.574.311-1.023.465-1.346h3.383c.225 0 .818.018 1.748.072l.607-2.172h-7.363c-1.284 4.987-2.438 8.951-3.424 11.875zm19.478-9.615l.467-2.26c-.959-.178-1.746-.268-2.359-.268-3.92 0-6.564 2.295-7.59 6.475-.947 3.855.412 5.938 4.02 5.938.867 0 1.766-.127 2.684-.27l.828-2.457c-.969.287-1.842.43-2.619.43-2.41 0-3.361-1.363-2.732-3.928.652-2.654 2.363-4.197 4.668-4.197 1.045 0 1.92.215 2.633.537zm4.473-2.26h-2.318c-1.338 5.201-2.506 9.166-3.439 11.875h2.35c.152-.682.297-1.273.412-1.74.088-.359.158-.646.234-.896l1.959-6.762c.224-.789.501-1.615.802-2.477zm4.32 11.875h3.457c.119-.484.215-.934.307-1.311.137-.555.258-.986.355-1.326l1.945-6.762c.225-.789.502-1.615.803-2.477h-2.051c-.057.234-.1.467-.152.682-.186.754-.383 1.436-.574 2.1l-2.031 7.174-1.236-9.955h-3.293c-1.527 5.488-2.65 9.453-3.5 11.875h2.051c.283-1.096.602-2.332.996-3.695l1.814-6.35.812 6.744c.133 1.166.274 2.243.297 3.301zm8.174-6.152l1.668 2.17c.281.377.379.771.299 1.094-.176.719-.873 1.184-1.893 1.184-.703 0-1.631-.305-2.68-.969l-.443 2.297c.496.357 1.486.646 2.789.646 2.23 0 3.85-1.293 4.303-3.141.277-1.129-.016-2.008-.787-3.012l-1.818-2.404c-.156-.215-.195-.484-.125-.771.18-.734.863-1.201 1.955-1.201.629 0 1.266.215 2.004.557l.4-2.117c-.838-.18-1.635-.287-2.414-.287-2.186 0-3.57 1.076-4.02 2.906-.3 1.218-.019 2.024.762 3.048zm-79.744 15.09l1.664 2.152c.281.373.378.764.299 1.084-.176.711-.873 1.174-1.888 1.174-.702 0-1.628-.303-2.675-.961l-.443 2.277c.495.355 1.484.639 2.784.639 2.225 0 3.841-1.279 4.294-3.111.277-1.121-.016-1.992-.785-2.988l-1.815-2.383c-.156-.213-.195-.48-.125-.764.18-.73.862-1.191 1.952-1.191.627 0 1.261.213 2 .551l.399-2.098c-.837-.18-1.633-.285-2.409-.285-2.181 0-3.564 1.066-4.013 2.881-.298 1.208-.018 2.009.761 3.023zm2.986 6.099h2.271c.34-.711.649-1.299.962-1.779l1.817-2.881h3.435l.192 3.273c.017.23-.022.693-.089 1.387h2.39l-.54-9.781a24.833 24.833 0 0 1-.016-1.992h-2.987c-.307.641-.575 1.121-.789 1.441l-6.646 10.332zm8.34-10.172l.168 3.609h-2.375l2.207-3.609zm8.888 10.172h3.45c.119-.48.214-.926.306-1.299.136-.551.257-.979.355-1.316l1.941-6.703c.223-.783.5-1.602.801-2.455h-2.046c-.057.23-.099.463-.152.676a49.669 49.669 0 0 1-.574 2.08l-2.027 7.115-1.234-9.871h-3.286c-1.524 5.441-2.645 9.373-3.493 11.773h2.046c.283-1.086.601-2.312.995-3.664l1.811-6.295.812 6.686c.131 1.156.27 2.223.295 3.273zm8.157-6.099l1.664 2.152c.281.373.378.764.299 1.084-.176.711-.873 1.174-1.888 1.174-.702 0-1.628-.303-2.675-.961l-.443 2.277c.495.355 1.484.639 2.784.639 2.225 0 3.841-1.279 4.294-3.111.275-1.121-.016-1.992-.785-2.988l-1.816-2.383c-.156-.213-.195-.48-.125-.764.18-.73.862-1.191 1.952-1.191.627 0 1.262.213 2 .551l.398-2.098c-.838-.18-1.633-.285-2.408-.285-2.181 0-3.565 1.066-4.013 2.881-.298 1.208-.018 2.009.762 3.023zm8.664 6.099h2.256a54.56 54.56 0 0 1 1.022-3.895l.379-1.227h2.689c.463 0 .926 0 1.391.053l.623-2.223c-.477.053-1.033.07-1.676.07h-2.434l.326-1.139c.17-.568.311-1.014.463-1.334h2.779c.223 0 .816.02 1.744.072l.621-2.152h-6.766c-1.28 4.945-2.431 8.877-3.417 11.775zm7.9 0h2.314c.568-2.117.877-3.309.963-3.592l1.279-4.57c.164-.605.359-1.156.578-1.672.471-.037.908-.055 1.281-.055 1.389 0 1.934.215 1.645 1.389-.299 1.209-1.186 1.83-2.664 1.83-.283 0-.562-.018-.848-.07l.738 6.74h2.344a103.646 103.646 0 0 1-.709-5.229c1.717-.658 2.795-1.814 3.189-3.414.348-1.406.115-2.4-.525-2.828-.424-.285-1.016-.303-1.762-.303h-4.406c-1.325 5.122-2.491 9.054-3.417 11.774zm14.299.248c3.494 0 6.219-2.436 7.189-6.365.932-3.771-.527-5.904-4.156-5.904-3.496 0-6.219 2.436-7.193 6.385-.928 3.752.545 5.884 4.16 5.884zm-1.916-5.904c.686-2.773 2.27-4.285 4.449-4.285 2.182 0 3.012 1.352 2.396 3.842-.689 2.791-2.283 4.285-4.523 4.285-2.062 0-2.923-1.404-2.322-3.842zm14.705 5.656h3.449c.119-.48.215-.926.307-1.299.137-.551.256-.979.355-1.316l1.941-6.703c.223-.783.5-1.602.801-2.455h-2.047c-.057.23-.1.463-.152.676a46.781 46.781 0 0 1-.574 2.08l-2.027 7.115-1.234-9.871h-3.285c-1.523 5.441-2.645 9.373-3.492 11.773h2.045c.283-1.086.602-2.312.996-3.664l1.811-6.295.811 6.686c.131 1.156.272 2.223.295 3.273zm12.051-9.888c.303-.018.602-.018.916-.018.672 0 1.334.035 2.004.107l.578-1.975h-7.871l-.594 1.975a23.603 23.603 0 0 1 2.193-.107c.238 0 .479 0 .713.018a134.422 134.422 0 0 1-3.027 9.889h2.33c.068-.338.156-.693.248-1.068.186-.746.412-1.6.689-2.543l1.821-6.278zm6.719-1.885h-2.314c-1.334 5.158-2.5 9.088-3.432 11.773h2.344a74.48 74.48 0 0 1 .412-1.725c.088-.357.158-.641.234-.891l1.955-6.703a45.95 45.95 0 0 1 .801-2.454zm-1.662 11.773h7.348l.652-2.33c-1.123.125-2.391.178-3.809.178-.523 0-.982-.018-1.395-.035l.061-.25c.129-.516.277-.994.42-1.457l.379-1.227h3.27c.463 0 .941 0 1.406.053l.609-2.223c-.555.07-1.107.07-1.676.07h-3.016l.326-1.139c.17-.568.309-1.014.463-1.334h3.375c.225 0 .818.02 1.746.072l.605-2.152h-7.348c-1.28 4.944-2.43 8.876-3.416 11.774zm8.633 0h2.314c.568-2.117.877-3.309.963-3.592l1.279-4.57c.164-.605.359-1.156.576-1.672.473-.037.91-.055 1.283-.055 1.389 0 1.934.215 1.645 1.389-.301 1.209-1.186 1.83-2.664 1.83-.283 0-.562-.018-.848-.07l.738 6.74h2.344a103.646 103.646 0 0 1-.709-5.229c1.717-.658 2.793-1.814 3.189-3.414.348-1.406.115-2.4-.525-2.828-.424-.285-1.016-.303-1.764-.303h-4.404c-1.326 5.122-2.492 9.054-3.417 11.774zm8.804 0h7.348l.65-2.33c-1.121.125-2.389.178-3.807.178-.523 0-.982-.018-1.396-.035l.062-.25c.127-.516.275-.994.42-1.457l.377-1.227h3.271c.463 0 .941 0 1.406.053l.609-2.223c-.557.07-1.109.07-1.676.07h-3.018l.326-1.139c.172-.568.311-1.014.465-1.334h3.375c.225 0 .816.02 1.744.072l.607-2.152h-7.348c-1.28 4.944-2.43 8.876-3.415 11.774zm11.649-6.099l1.662 2.152c.281.373.379.764.301 1.084-.176.711-.873 1.174-1.889 1.174-.701 0-1.629-.303-2.676-.961l-.443 2.277c.496.355 1.484.639 2.785.639 2.225 0 3.84-1.279 4.293-3.111.277-1.121-.016-1.992-.785-2.988l-1.814-2.383c-.156-.213-.195-.48-.125-.764.18-.73.861-1.191 1.953-1.191.627 0 1.26.213 1.998.551l.4-2.098c-.838-.18-1.633-.285-2.41-.285-2.18 0-3.564 1.066-4.012 2.881-.299 1.208-.02 2.009.762 3.023z" fill="none" stroke="#fff" stroke-width=".216" stroke-miterlimit="2.613"/><path d="M69.031 137.193h2.271c.34-.711.649-1.299.962-1.779l1.817-2.881h3.435l.192 3.273c.017.23-.022.693-.089 1.387h2.39l-.54-9.781a24.833 24.833 0 0 1-.016-1.992h-2.987c-.307.641-.575 1.121-.789 1.441l-6.646 10.332zm8.34-10.172l.168 3.609h-2.375l2.207-3.609zm7.025-6.3l4.296-8.232a76.483 76.483 0 0 1-.426 1.793l-.242.986-1.309 4.844a27.411 27.411 0 0 1-.637 2.045h2.08c.155-.754.299-1.4.422-1.902.071-.287.147-.537.195-.734l1.86-6.779c.129-.467.342-1.273.693-2.459h-3.277c-.289.629-.547 1.131-.748 1.525l-4.15 7.82.462-8.16c.012-.109.034-.504.096-1.186h-3.427c-1.491 5.221-2.764 9.184-3.769 11.875h2.05c.389-1.4.693-2.457.914-3.176l2.154-6.762-.466 8.664c-.018.377-.063.807-.118 1.273h2.634c.229-.504.463-.968.713-1.435zm5.399 1.435h7.363l.652-2.35c-1.124.125-2.394.18-3.816.18-.523 0-.983-.02-1.397-.037l.062-.25c.128-.521.276-1.006.421-1.471l.379-1.238h3.277c.463 0 .942 0 1.409.053l.609-2.242c-.557.072-1.109.072-1.678.072h-3.023l.327-1.146c.171-.574.311-1.023.465-1.346h3.382c.225 0 .818.018 1.748.072l.607-2.172H93.22c-1.284 4.987-2.437 8.951-3.425 11.875zm8.664 0h4.551c3.217 0 5.795-2.457 6.764-6.404.52-2.115.314-3.713-.504-4.645-.689-.789-1.639-.826-2.896-.826h-4.488c-1.329 5.166-2.499 9.131-3.427 11.875zm2.906-2.082l.168-.682c.152-.627.314-1.219.479-1.828l1.471-5.201h1.826c1.004 0 1.691 0 2.072.52.412.574.465 1.578.123 2.977-.385 1.561-1.123 2.744-2.146 3.498-.965.699-1.822.717-2.93.717h-1.063v-.001zm7.979 2.082h7.363l.65-2.35c-1.123.125-2.393.18-3.814.18-.523 0-.984-.02-1.398-.037l.062-.25a23.86 23.86 0 0 1 .42-1.471l.379-1.238h3.277c.465 0 .943 0 1.408.053l.611-2.242c-.557.072-1.111.072-1.68.072H113.6l.328-1.146c.17-.574.311-1.023.465-1.346h3.383c.225 0 .818.018 1.748.072l.607-2.172h-7.363c-1.284 4.987-2.438 8.951-3.424 11.875zm19.478-9.615l.467-2.26c-.959-.178-1.746-.268-2.359-.268-3.92 0-6.564 2.295-7.59 6.475-.947 3.855.412 5.938 4.02 5.938.867 0 1.766-.127 2.684-.27l.828-2.457c-.969.287-1.842.43-2.619.43-2.41 0-3.361-1.363-2.732-3.928.652-2.654 2.363-4.197 4.668-4.197 1.045 0 1.92.215 2.633.537zm4.473-2.26h-2.318c-1.338 5.201-2.506 9.166-3.439 11.875h2.35c.152-.682.297-1.273.412-1.74.088-.359.158-.646.234-.896l1.959-6.762c.224-.789.501-1.615.802-2.477zm4.32 11.875h3.457c.119-.484.215-.934.307-1.311.137-.555.258-.986.355-1.326l1.945-6.762c.225-.789.502-1.615.803-2.477h-2.051c-.057.234-.1.467-.152.682-.186.754-.383 1.436-.574 2.1l-2.031 7.174-1.236-9.955h-3.293c-1.527 5.488-2.65 9.453-3.5 11.875h2.051c.283-1.096.602-2.332.996-3.695l1.814-6.35.812 6.744c.133 1.166.274 2.243.297 3.301zm8.174-6.152l1.668 2.17c.281.377.379.771.299 1.094-.176.719-.873 1.184-1.893 1.184-.703 0-1.631-.305-2.68-.969l-.443 2.297c.496.357 1.486.646 2.789.646 2.23 0 3.85-1.293 4.303-3.141.277-1.129-.016-2.008-.787-3.012l-1.818-2.404c-.156-.215-.195-.484-.125-.771.18-.734.863-1.201 1.955-1.201.629 0 1.266.215 2.004.557l.4-2.117c-.838-.18-1.635-.287-2.414-.287-2.186 0-3.57 1.076-4.02 2.906-.3 1.218-.019 2.024.762 3.048zm-79.744 15.09l1.664 2.152c.281.373.378.764.299 1.084-.176.711-.873 1.174-1.888 1.174-.702 0-1.628-.303-2.675-.961l-.443 2.277c.495.355 1.484.639 2.784.639 2.225 0 3.841-1.279 4.294-3.111.277-1.121-.016-1.992-.785-2.988l-1.815-2.383c-.156-.213-.195-.48-.125-.764.18-.73.862-1.191 1.952-1.191.627 0 1.261.213 2 .551l.399-2.098c-.837-.18-1.633-.285-2.409-.285-2.181 0-3.564 1.066-4.013 2.881-.298 1.208-.018 2.009.761 3.023zm20.214 6.099h3.45c.119-.48.214-.926.306-1.299.136-.551.257-.979.355-1.316l1.941-6.703c.223-.783.5-1.602.801-2.455h-2.046c-.057.23-.099.463-.152.676a49.669 49.669 0 0 1-.574 2.08l-2.027 7.115-1.234-9.871h-3.286c-1.524 5.441-2.645 9.373-3.493 11.773h2.046c.283-1.086.601-2.312.995-3.664l1.811-6.295.812 6.686c.131 1.156.27 2.223.295 3.273zm8.157-6.099l1.664 2.152c.281.373.378.764.299 1.084-.176.711-.873 1.174-1.888 1.174-.702 0-1.628-.303-2.675-.961l-.443 2.277c.495.355 1.484.639 2.784.639 2.225 0 3.841-1.279 4.294-3.111.275-1.121-.016-1.992-.785-2.988l-1.816-2.383c-.156-.213-.195-.48-.125-.764.18-.73.862-1.191 1.952-1.191.627 0 1.262.213 2 .551l.398-2.098c-.838-.18-1.633-.285-2.408-.285-2.181 0-3.565 1.066-4.013 2.881-.298 1.208-.018 2.009.762 3.023zm8.664 6.099h2.256a54.56 54.56 0 0 1 1.022-3.895l.379-1.227h2.689c.463 0 .926 0 1.391.053l.623-2.223c-.477.053-1.033.07-1.676.07h-2.434l.326-1.139c.17-.568.311-1.014.463-1.334h2.779c.223 0 .816.02 1.744.072l.621-2.152h-6.766c-1.28 4.945-2.431 8.877-3.417 11.775zm7.9 0h2.314c.568-2.117.877-3.309.963-3.592l1.279-4.57c.164-.605.359-1.156.578-1.672.471-.037.908-.055 1.281-.055 1.389 0 1.934.215 1.645 1.389-.299 1.209-1.186 1.83-2.664 1.83-.283 0-.562-.018-.848-.07l.738 6.74h2.344a103.646 103.646 0 0 1-.709-5.229c1.717-.658 2.795-1.814 3.189-3.414.348-1.406.115-2.4-.525-2.828-.424-.285-1.016-.303-1.762-.303h-4.406c-1.325 5.122-2.491 9.054-3.417 11.774zm14.299.248c3.494 0 6.219-2.436 7.189-6.365.932-3.771-.527-5.904-4.156-5.904-3.496 0-6.219 2.436-7.193 6.385-.928 3.752.545 5.884 4.16 5.884zm-1.916-5.904c.686-2.773 2.27-4.285 4.449-4.285 2.182 0 3.012 1.352 2.396 3.842-.689 2.791-2.283 4.285-4.523 4.285-2.062 0-2.923-1.404-2.322-3.842zm14.705 5.656h3.449c.119-.48.215-.926.307-1.299.137-.551.256-.979.355-1.316l1.941-6.703c.223-.783.5-1.602.801-2.455h-2.047c-.057.23-.1.463-.152.676a46.781 46.781 0 0 1-.574 2.08l-2.027 7.115-1.234-9.871h-3.285c-1.523 5.441-2.645 9.373-3.492 11.773h2.045c.283-1.086.602-2.312.996-3.664l1.811-6.295.811 6.686c.131 1.156.272 2.223.295 3.273zm12.051-9.888c.303-.018.602-.018.916-.018.672 0 1.334.035 2.004.107l.578-1.975h-7.871l-.594 1.975a23.603 23.603 0 0 1 2.193-.107c.238 0 .479 0 .713.018a134.422 134.422 0 0 1-3.027 9.889h2.33c.068-.338.156-.693.248-1.068.186-.746.412-1.6.689-2.543l1.821-6.278zm6.719-1.885h-2.314c-1.334 5.158-2.5 9.088-3.432 11.773h2.344a74.48 74.48 0 0 1 .412-1.725c.088-.357.158-.641.234-.891l1.955-6.703a45.95 45.95 0 0 1 .801-2.454zm-1.662 11.773h7.348l.652-2.33c-1.123.125-2.391.178-3.809.178-.523 0-.982-.018-1.395-.035l.061-.25c.129-.516.277-.994.42-1.457l.379-1.227h3.27c.463 0 .941 0 1.406.053l.609-2.223c-.555.07-1.107.07-1.676.07h-3.016l.326-1.139c.17-.568.309-1.014.463-1.334h3.375c.225 0 .818.02 1.746.072l.605-2.152h-7.348c-1.28 4.944-2.43 8.876-3.416 11.774zm8.633 0h2.314c.568-2.117.877-3.309.963-3.592l1.279-4.57c.164-.605.359-1.156.576-1.672.473-.037.91-.055 1.283-.055 1.389 0 1.934.215 1.645 1.389-.301 1.209-1.186 1.83-2.664 1.83-.283 0-.562-.018-.848-.07l.738 6.74h2.344a103.646 103.646 0 0 1-.709-5.229c1.717-.658 2.793-1.814 3.189-3.414.348-1.406.115-2.4-.525-2.828-.424-.285-1.016-.303-1.764-.303h-4.404c-1.326 5.122-2.492 9.054-3.417 11.774zm8.804 0h7.348l.65-2.33c-1.121.125-2.389.178-3.807.178-.523 0-.982-.018-1.396-.035l.062-.25c.127-.516.275-.994.42-1.457l.377-1.227h3.271c.463 0 .941 0 1.406.053l.609-2.223c-.557.07-1.109.07-1.676.07h-3.018l.326-1.139c.172-.568.311-1.014.465-1.334h3.375c.225 0 .816.02 1.744.072l.607-2.152h-7.348c-1.28 4.944-2.43 8.876-3.415 11.774zm11.649-6.099l1.662 2.152c.281.373.379.764.301 1.084-.176.711-.873 1.174-1.889 1.174-.701 0-1.629-.303-2.676-.961l-.443 2.277c.496.355 1.484.639 2.785.639 2.225 0 3.84-1.279 4.293-3.111.277-1.121-.016-1.992-.785-2.988l-1.814-2.383c-.156-.213-.195-.48-.125-.764.18-.73.861-1.191 1.953-1.191.627 0 1.26.213 1.998.551l.4-2.098c-.838-.18-1.633-.285-2.41-.285-2.18 0-3.564 1.066-4.012 2.881-.299 1.208-.02 2.009.762 3.023z" fill-rule="evenodd" clip-rule="evenodd"/></svg>