<svg xmlns="http://www.w3.org/2000/svg" width="98" height="82" viewBox="-0.413 0 98 82"><path fill="#25408F" d="M5.062 62.074v-28.87c0-2.258-1.451-2.863-2.379-2.863-.887 0-2.419.403-2.419 2.863l.484 29.715c.007.32.061.58.134.811h3.8c.226-.416.38-.947.38-1.656M16.021 63.525l1.008-1.129 1.335 1.334H21.1V48.767c0-1.654-1.25-3.227-3.227-3.227H9.167c-.564 0-.968.324-.968.807 0 .484.524.686.968.807l5.201 1.291c.967.242 1.895.887 1.895 1.895v1.734l-5.08 1.209c-3.347.807-5.484 2.742-5.484 6.33 0 1.643.689 3.109 1.884 4.117h8.225c.072-.068.15-.133.213-.205m-5.523-4.315c0-1.654 1.613-3.67 2.943-3.992l.968-.242c1.331-.322 1.854.523 1.854 1.533v2.74c0 1.654-1.088 2.863-2.621 2.863-1.733.001-3.144-.886-3.144-2.902M94.438 26.655H87.54c-1.367 0-1.691-1.18-1.691-2.36v-9.6c0-4.013 1.496-6.924 4.88-6.924H91.9c1.171 0 2.147-.943 2.212-2.36.065-1.416-.781-2.518-1.951-2.675l-1.953-.314c-5.661-.944-9.566 4.642-9.566 12.589v20.34c-1.592-3.251-4.828-6.587-11.027-6.587-6.08 0-11.451 3.424-14.404 9.235V3.606c0-1.721-1.018-3.115-2.441-3.279-1.558-.164-2.981 1.558-2.981 3.442v38.195c0 1.148-.204 2.212-1.085 2.623-1.017.492-1.966-.328-2.44-1.475L30.671 3.279C29.994 1.558 29.045 0 27.418 0c-1.694 0-3.389 1.394-3.389 3.442v58.686c0 .551.107 1.082.286 1.564h4.904c.147-.43.232-.902.232-1.4v-39.26c0-4.016 3.457-4.672 4.813-1.147l15.523 41.227a8.9 8.9 0 0 0 .225.582h5.1a3.16 3.16 0 0 0 .099-.746v-3.729c.942 1.762 2.136 3.26 3.528 4.475h19.5a15.722 15.722 0 0 0 2.403-2.508v.092c0 1.086.206 1.924.632 2.416h2.175c.507-.543.798-1.473.838-2.494l1.562-22.9c0-1.101-.065-1.887-.065-2.675 0-2.36.846-3.147 1.822-3.147.716 0 1.172.473 2.277.473h4.555c1.432 0 2.668-1.259 2.734-2.991.064-1.81-1.238-3.305-2.734-3.305m-25.026 3.993c1.017 0 5.626.165 5.626 5.001 0 2.13-1.694 3.935-4.609 3.935h-7.39c-1.56 0-1.83 0-1.83-.902 0-1.312 2.102-8.034 8.203-8.034m11.23 27.769c-.186.191-.44.496-.858 1.004-1.627 1.885-4.407 3.277-7.457 3.277-6.983 0-11.999-7.049-11.999-16.23 0-4.262.61-4.346 1.763-4.346H80.19c.159 0 .31 0 .451-.006v16.301zM3.747 73.396H2.702c-.113 0-.161.049-.161.162v4.662c0 .113-.048.162-.161.162H.853c-.113 0-.161-.049-.161-.162v-4.662c0-.113-.048-.162-.161-.162h-.37c-.112 0-.161-.049-.161-.16v-1.367c0-.113.049-.16.161-.16h.37c.113 0 .161-.049.161-.16v-.453c0-1.285.82-2.412 2.155-2.83a3.49 3.49 0 0 1 .9-.16c.097 0 .161.049.161.16v1.367c0 .098-.048.162-.145.162-.836.064-1.222.563-1.222 1.141v.613c0 .111.048.16.161.16h1.045c.113 0 .161.047.161.16v1.367c0 .111-.048.16-.161.16m2.01-3.152c-.579 0-1.061-.498-1.061-1.078 0-.578.482-1.076 1.061-1.076s1.077.498 1.077 1.076c0 .58-.498 1.078-1.077 1.078m.772 8.138H5.001c-.112 0-.161-.049-.161-.162v-7.043c0-.113.048-.162.161-.162h1.528c.113 0 .161.049.161.162v7.043c0 .113-.047.162-.161.162M14.585 78.382h-1.528c-.112 0-.161-.049-.161-.162v-4.373c0-.645-.498-1.143-1.141-1.143a1.14 1.14 0 0 0-1.158 1.143v4.373c0 .113-.048.162-.161.162H8.924c-.112 0-.161-.049-.161-.162v-7.043c0-.113.048-.162.161-.162h1.368c.112 0 .16.033.16.146 0 .111.048.176.129.176.048 0 .064-.016.112-.031.338-.178.74-.291 1.062-.291 1.817 0 2.991 1.158 2.991 2.832v4.373c0 .113-.048.162-.161.162M22.095 78.382h-1.367c-.113 0-.161-.033-.161-.129 0-.129-.032-.209-.112-.209a.257.257 0 0 0-.145.049c-.354.191-.675.289-.981.289h-.612c-1.27 0-2.267-.869-2.267-2.154v-.082c0-1.318.997-2.154 2.267-2.154h1.544c.113 0 .161-.064.161-.162v-.191c0-.627-.514-1.094-1.173-1.094-.386 0-.788.24-1.174.916-.032.064-.08.098-.128.098-.064 0-.129-.049-.193-.082l-1.222-.643c-.064-.033-.096-.064-.096-.113 0-.08.177-.402.337-.643.515-.771 1.239-1.223 2.477-1.223 1.833 0 3.007 1.158 3.007 2.83v4.535c-.001.113-.049.162-.162.162m-1.673-2.847h-1.705a.448.448 0 0 0-.434.451v.242c0 .256.177.465.434.465h.612c.515 0 1.013-.434 1.093-.9v-.258zM30.151 78.382h-1.528c-.113 0-.161-.049-.161-.162v-4.373c0-.645-.499-1.143-1.142-1.143a1.14 1.14 0 0 0-1.158 1.143v4.373c0 .113-.048.162-.161.162H24.49c-.113 0-.161-.049-.161-.162v-7.043c0-.113.048-.162.161-.162h1.367c.113 0 .16.033.16.146 0 .111.048.176.129.176.048 0 .064-.016.113-.031.337-.178.74-.291 1.062-.291 1.817 0 2.991 1.158 2.991 2.832v4.373c0 .113-.048.162-.161.162M37.773 77.128c-.499.818-1.206 1.414-2.605 1.414-1.833 0-3.007-1.174-3.007-2.848V73.7c0-1.672 1.174-2.846 3.007-2.846 1.399 0 2.106.596 2.605 1.416.128.209.241.418.241.482 0 .047-.032.096-.097.129l-1.207.594c-.128.064-.225.113-.273.113s-.097-.031-.129-.096c-.29-.693-.724-.949-1.142-.949-.659 0-1.158.531-1.158 1.156v1.994c0 .629.499 1.158 1.158 1.158.418 0 .852-.258 1.142-.947.032-.064.081-.098.129-.098s.145.049.273.113l1.207.596c.064.031.097.078.097.127 0 .068-.113.275-.241.486M45.282 75.166h-3.827c-.113 0-.161.047-.161.16v.369c0 .629.499 1.158 1.157 1.158.419 0 .853-.258 1.143-.947.032-.064.08-.098.129-.098.048 0 .144.049.272.113l1.206.596c.065.031.097.078.097.127 0 .066-.113.273-.241.484-.499.818-1.206 1.414-2.606 1.414-1.833 0-3.007-1.174-3.007-2.848V73.7c0-1.334 1.174-2.846 3.007-2.846 1.817 0 2.992 1.512 2.992 2.846v1.303c0 .114-.048.163-.161.163m-2.831-2.622c-.787 0-1.142.723-1.142.932 0 .082.064.145.177.145H43.4c.113 0 .177-.063.177-.145 0-.193-.321-.932-1.126-.932M55.959 75.166h-3.827c-.113 0-.161.047-.161.16v.369c0 .629.498 1.158 1.157 1.158.418 0 .854-.258 1.142-.947.033-.064.081-.098.13-.098.047 0 .145.049.272.113l1.207.596c.063.031.096.078.096.127 0 .066-.112.273-.241.484-.498.818-1.206 1.414-2.605 1.414-1.833 0-3.007-1.174-3.007-2.848V73.7c0-1.334 1.174-2.846 3.007-2.846 1.818 0 2.991 1.512 2.991 2.846v1.303c-.001.114-.048.163-.161.163m-.192-7.399l-2.284 2.252c-.08.064-.161.111-.258.111h-1.093c-.113 0-.161-.047-.161-.127 0-.064.048-.129.097-.209l1.447-2.219a.275.275 0 0 1 .226-.129h1.961c.112 0 .178.047.178.129-.001.081-.049.128-.113.192m-2.639 4.777c-.788 0-1.142.723-1.142.932 0 .082.064.145.177.145h1.914c.112 0 .177-.063.177-.145 0-.193-.321-.932-1.126-.932M61.329 78.542c-.305 0-.884-.096-1.366-.289-1.11-.451-1.689-1.383-1.689-2.559v-2.83c0-.111-.048-.16-.16-.16h-.837c-.112 0-.161-.049-.161-.145s.017-.434.033-.867l1.85-1.963c.047-.049.111-.098.192-.098h.755c.114 0 .162.049.162.162v1.061c0 .113.048.16.16.16h1.062c.113 0 .161.049.161.162v1.367c0 .111-.048.16-.161.16h-1.062c-.112 0-.16.049-.16.16v2.83c0 .58.401 1.078 1.238 1.143.097 0 .145.064.145.162v1.383c-.001.115-.065.161-.162.161M68.855 78.382h-1.527c-.113 0-.161-.049-.161-.162v-4.373c0-.645-.498-1.143-1.142-1.143s-1.159.498-1.159 1.143v4.373c0 .113-.047.162-.16.162h-1.511c-.113 0-.161-.049-.161-.162v-9.809c0-.113.048-.162.161-.162h1.511c.113 0 .16.049.16.162v2.75c0 .111.049.176.13.176.049 0 .064-.016.111-.031.338-.178.757-.291 1.062-.291 1.608 0 2.848 1.158 2.848 2.832v4.373c0 .113-.049.162-.162.162M71.942 70.244a1.099 1.099 0 0 1-1.078-1.078c0-.578.499-1.076 1.078-1.076s1.077.498 1.077 1.076a1.097 1.097 0 0 1-1.077 1.078m.756 8.138h-1.513c-.112 0-.16-.049-.16-.162v-7.043c0-.113.048-.162.16-.162h1.513c.112 0 .161.049.161.162v7.043c0 .113-.048.162-.161.162M80.545 82h-1.527c-.112 0-.161-.049-.161-.16v-3.604c0-.111-.048-.176-.128-.176-.049 0-.064.016-.113.033-.338.176-.74.287-1.062.287-1.575 0-2.847-1.172-2.847-2.846v-1.688c0-1.674 1.175-2.832 3.008-2.832.306 0 .724.113 1.062.291.049.016.063.031.113.031.08 0 .128-.064.128-.176 0-.098.048-.146.16-.146h1.367c.113 0 .161.049.161.162v10.662c0 .113-.048.162-.161.162m-1.689-8.153c0-.645-.499-1.143-1.142-1.143-.659 0-1.158.498-1.158 1.143v1.688c0 .66.499 1.158 1.158 1.158.643 0 1.142-.498 1.142-1.158v-1.688zM88.44 78.382h-1.366c-.112 0-.161-.064-.161-.146 0-.111-.049-.176-.129-.176-.048 0-.063.016-.112.033-.338.176-.74.289-1.062.289-1.818 0-2.991-1.174-2.991-2.848v-4.357c0-.113.048-.162.161-.162h1.527c.112 0 .161.049.161.162v4.357c0 .66.498 1.158 1.142 1.158.627 0 1.157-.498 1.157-1.158v-4.357c0-.113.049-.162.161-.162h1.512c.112 0 .161.049.161.162v7.043c.001.113-.048.162-.161.162M96.288 75.166h-3.827c-.113 0-.161.047-.161.16v.369c0 .629.499 1.158 1.157 1.158.418 0 .853-.258 1.143-.947.031-.064.08-.098.129-.098.047 0 .144.049.272.113l1.206.596c.065.031.097.078.097.127 0 .066-.112.273-.241.484-.498.818-1.206 1.414-2.605 1.414-1.833 0-3.007-1.174-3.007-2.848V73.7c0-1.334 1.174-2.846 3.007-2.846 1.817 0 2.991 1.512 2.991 2.846v1.303c-.001.114-.049.163-.161.163m-2.831-2.622c-.788 0-1.142.723-1.142.932 0 .082.064.145.177.145h1.914c.112 0 .177-.063.177-.145 0-.193-.321-.932-1.126-.932"/></svg>