<svg xmlns="http://www.w3.org/2000/svg" width="400" height="75" viewBox="0 0 400 75">
  <g fill="#53BB0F" fill-rule="evenodd">
    <path d="M91.0297136,18.6294234 C88.8692212,16.0200131 85.7768927,14.2506143 82.122599,14.2506143 C74.9169618,14.2506143 69.2786776,18.9189189 69.2786776,27.5184275 L69.2786776,48.1572482 L69.2786776,48.4029484 L75.5345879,48.4029484 L75.5345879,27.7641278 C75.5345879,24.0786241 78.6227181,20.6388206 82.122599,20.6388206 C85.6224799,20.6388206 87.807459,23.5872236 87.807459,28.009828 C87.807459,32.4324324 87.807459,48.4029484 87.807459,48.4029484 L91.2732454,48.4029484 L94.4535068,48.4029484 L94.4535068,27.7641278 C94.4535068,24.0786241 97.541637,20.6388206 101.041518,20.6388206 C104.541399,20.6388206 106.726378,23.5872236 106.726378,28.009828 C106.726378,32.4324324 106.726378,48.4029484 106.726378,48.4029484 L113.267813,48.4029484 C113.267813,48.4029484 113.267813,34.3980344 113.267813,27.7641278 C113.267813,21.1302211 108.247155,14.2506143 101.041518,14.2506143 C96.950821,14.2506143 93.3652698,15.7551725 91.0297136,18.6294234 Z M0.491400491,57.4938575 L8.10810811,52.5798526 L8.10810811,27.7641278 C8.10810811,18.9189189 21.8673219,18.9189189 21.8673219,26.7813268 C21.8673219,34.6437346 22.1130221,48.1572482 22.1130221,48.1572482 L29.7297297,48.1572482 C29.7297297,48.1572482 29.4840295,36.3636364 29.7297297,28.009828 C29.97543,19.6560197 25.0614251,14.2506143 16.2162162,14.2506143 C11.3022113,14.2506143 8.10810811,17.6904177 8.10810811,17.6904177 L8.10810811,14.7420147 L0.241862116,14.7420147 L0.491400491,57.4938575 Z M34.8894349,15.2334152 C34.8894349,15.2334152 34.8894349,26.2899263 34.8894349,34.8894349 C34.8894349,43.4889435 41.031941,49.1400491 49.6314496,49.1400491 C58.2309582,49.1400491 63.6363636,42.2604423 63.6363636,35.6265356 C63.6363636,28.992629 63.6363636,14.987715 63.6363636,14.987715 L57.002457,14.987715 L57.002457,34.6437346 C57.002457,39.0663391 53.8083538,42.7518428 49.6314496,42.7518428 C45.4545455,42.7518428 41.7690418,39.3120393 41.7690418,35.6265356 L41.7690418,14.987715 L34.8894349,14.987715 L34.8894349,15.2334152 Z M128.255528,28.2555283 L144.964951,28.2555283 C144.964951,28.2555283 143.243243,20.6388206 135.135135,20.6388206 C127.027027,20.6388206 123.939881,28.5042432 124.078624,31.6953317 C124.324324,37.3464373 127.769257,42.6357284 134.643735,42.997543 C139.312039,43.2432432 143.980344,37.5921376 143.980344,37.5921376 L149.140049,41.7690418 C149.140049,41.7690418 144.226044,49.3857494 135.135135,49.3857494 C126.044226,49.3857494 117.199017,42.014742 117.199017,32.1867322 C117.199017,22.3587224 125.307125,14.2506143 134.643735,14.2506143 C143.980344,14.2506143 152.334152,22.3587224 152.334152,30.2211302 C152.334152,32.1867322 152.088452,33.9066339 152.088452,33.9066339 L128.008574,33.9066339 L128.255528,28.2555283 Z M156.265356,48.6486486 L156.265356,14.987715 L162.653563,14.987715 L162.653563,18.1912543 C162.653563,18.1912543 164.742015,14.2506143 173.218673,14.2506143 L173.218673,20.8845209 C173.218673,20.8845209 163.144963,19.1646192 163.144963,31.4496314 L163.144963,48.6486486 L156.265356,48.6486486 Z M178.869779,14.987715 L185.503686,14.987715 L185.503686,48.4029484 L178.869779,48.4029484 L178.869779,14.987715 Z M182.063882,11.7936118 C184.235026,11.7936118 185.995086,10.0885537 185.995086,7.98525799 C185.995086,5.88196226 184.235026,4.17690418 182.063882,4.17690418 C179.892738,4.17690418 178.132678,5.88196226 178.132678,7.98525799 C178.132678,10.0885537 179.892738,11.7936118 182.063882,11.7936118 Z M217.199017,42.2604423 L211.793612,42.2604423 C207.862408,42.2604423 201.228501,38.8206388 201.228501,31.9410319 C201.228501,25.0614251 207.371007,21.3759214 210.810811,21.3759214 L217.199017,21.3759214 L217.199017,14.9829917 C217.199017,14.9829917 215.233412,14.9782685 209.828008,14.9829917 C204.422604,14.987715 194.348894,20.3931204 194.348894,31.9410319 C194.348894,43.4889435 203.931204,48.4029484 209.82801,48.4029484 L217.199017,48.4029484 L217.199017,42.2604423 Z M247.420147,48.6486486 L247.420147,28.7469287 C247.420147,23.8329238 242.506143,20.6388206 236.609337,20.6388206 C230.712531,20.6388206 226.289926,26.2899263 226.289926,31.9410319 C226.289926,37.5921376 230.958231,42.7518428 236.363636,42.7518428 C241.769042,42.7518428 245.208845,38.0835381 245.208845,38.0835381 L245.208845,45.9459459 C245.208845,45.9459459 241.523342,49.1400491 236.117936,49.1400491 C230.712531,49.1400491 225.061425,45.9459459 222.850123,42.014742 C220.638821,38.0835381 219.65602,35.1351351 219.65602,30.958231 C219.65602,26.7813268 222.358722,14.2506143 237.100737,14.2506143 C251.842752,14.2506143 253.808354,26.2899263 253.808354,28.7469287 L253.808354,48.6486486 L247.420147,48.6486486 Z M265.347474,4.97379915e-14 L265.347474,31.4496314 C265.347474,36.3636364 270.015778,42.7518428 275.912584,42.7518428 C281.80939,42.7518428 286.231995,37.1007371 286.231995,31.4496314 C286.231995,25.7985258 281.56369,20.6388206 276.158285,20.6388206 C270.752879,20.6388206 267.313076,25.3071253 267.313076,25.3071253 L267.313076,17.4447174 C267.313076,17.4447174 270.998579,14.2506143 276.403985,14.2506143 C281.80939,14.2506143 287.460496,17.4447174 289.671798,21.3759214 C291.8831,25.3071253 292.865901,28.2555283 292.865901,32.4324324 C292.865901,36.6093366 290.163199,49.1400491 275.421184,49.1400491 C260.679169,49.1400491 258.713567,33.9066339 258.713567,31.4496314 L258.713567,4.97379915e-14 L265.347474,4.97379915e-14 Z M298.771499,2.13162821e-14 L305.405405,2.13162821e-14 L305.405405,48.4029484 L298.771499,48.4029484 L298.771499,2.13162821e-14 Z M320.893313,28.2555283 L337.602736,28.2555283 C337.602736,28.2555283 335.881028,20.6388206 327.772919,20.6388206 C319.664811,20.6388206 316.577665,28.5042432 316.716408,31.6953317 C316.962109,37.3464373 320.407041,42.6357284 327.281519,42.997543 C331.949824,43.2432432 336.618128,37.5921376 336.618128,37.5921376 L341.777833,41.7690418 C341.777833,41.7690418 336.863829,49.3857494 327.772919,49.3857494 C318.68201,49.3857494 309.836801,42.014742 309.836801,32.1867322 C309.836801,22.3587224 317.94491,14.2506143 327.281519,14.2506143 C336.618128,14.2506143 344.971937,22.3587224 344.971937,30.2211302 C344.971937,32.1867322 344.726236,33.9066339 344.726236,33.9066339 L320.646359,33.9066339 L320.893313,28.2555283 Z"/>
    <path d="M276.842115,73.4908662 C293.000703,72.9092309 306.425903,71.7314425 319.333863,69.6806451 C344.049153,65.7539168 364.329649,58.7060951 380.95308,47.5298004 C381.1414,47.6171156 381.35125,47.6658477 381.572482,47.6658477 C382.386661,47.6658477 383.046683,47.0058252 383.046683,46.1916462 C383.046683,45.3774672 382.386661,44.7174447 381.572482,44.7174447 C380.758303,44.7174447 380.09828,45.3774672 380.09828,46.1916462 C380.09828,46.4180994 380.14934,46.6326271 380.240574,46.8243446 C363.77895,57.848542 343.682634,64.8170209 319.179651,68.7100183 C306.458207,70.7311823 293.223619,71.9021942 277.340234,72.4891574 C316.223835,69.2536668 347.205882,59.6261223 364.445072,44.0676408 C364.64499,44.1689534 364.87111,44.2260442 365.110565,44.2260442 C365.924744,44.2260442 366.584767,43.5660217 366.584767,42.7518428 C366.584767,41.9376638 365.924744,41.2776413 365.110565,41.2776413 C364.296386,41.2776413 363.636364,41.9376638 363.636364,42.7518428 C363.636364,42.9674357 363.682643,43.1722195 363.765809,43.3568017 C343.650619,61.4936755 304.44159,71.5310649 255.717567,72.6267663 C252.744164,72.5365176 248.78493,72.4815725 243.734644,72.4815725 C215.479115,72.4815725 160.19656,63.1449631 126.044226,57.7395577 C91.8918919,52.3341523 45.4545455,51.8427518 24.3243243,56.7567568 C3.19410319,61.6707617 -1.12634019,68.3083067 1.22850123,70.5159705 C5.15970516,74.2014742 4.66830467,67.0761671 34.3980344,60.1965602 C64.1277641,53.3169533 105.896806,55.5282555 146.928747,62.4078624 C187.960688,69.2874693 222.850123,74.2014742 244.471744,74.2014742 C247.46846,74.2014742 250.16311,74.1684359 252.506634,74.1115173 C282.907587,74.87195 302.861927,74.5080844 323.331478,72.3560289 C350.315384,69.5190901 374.398675,63.5444777 397.473117,53.3662056 C397.740666,53.6390679 398.113463,53.8083538 398.525799,53.8083538 C399.339978,53.8083538 400,53.1483313 400,52.3341523 C400,51.5199733 399.339978,50.8599509 398.525799,50.8599509 C397.71162,50.8599509 397.051597,51.5199733 397.051597,52.3341523 C397.051597,52.3816737 397.053846,52.42867 397.058242,52.4750405 C374.088189,62.6048068 350.108923,68.5525787 323.228718,71.3786149 C308.803505,72.8952021 294.627508,73.5216114 276.842125,73.4908663 Z"/>
  </g>
</svg>
