<?xml version="1.0" encoding="UTF-8"?>
<!-- Generator: Adobe Illustrator 19.2.1, SVG Export Plug-In . SVG Version: 6.00 Build 0)  -->
<svg version="1.1" id="Layer_1" xmlns="http://www.w3.org/2000/svg" xmlns:xlink="http://www.w3.org/1999/xlink" x="0px" y="0px" viewBox="0 0 227 199.5" style="enable-background:new 0 0 227 199.5;" xml:space="preserve">
<style type="text/css">
	.st0{fill:#006FB8;}
	.st1{fill:#F27D00;}
</style>
<path class="st0" d="M157.9,165.2c0.1-10.7,4.8-20.7,13.1-27.8c7.2-6.2,15.3-10.5,21.8-14.6c6.3-4.2,10.9-8.3,10.9-13.9  c0-6.5-4.3-10.4-10.8-10.4c-10.8,0-13.8,7.8-13.9,16.9h-19c-1.2-20.7,12-34.7,32.8-34.7c16.5,0,31.3,8.6,31.3,26.5  c0,16-11.5,22-23.7,29.6c-6.3,4-9.7,6-15.1,11.3h39.6v17.2h-67V165.2z"/>
<path class="st0" d="M166.8,83.8c0,55.7-37,82.7-82.6,82.7S1.5,139.6,1.5,83.8c0-54.8,37-82.6,82.6-82.6S166.8,29,166.8,83.8   M83.9,133.7c14.4,0.1,30.9-0.8,48-3.6c2-0.3,3.1-1.2,3.3-2.5c4.6-32.6,1.4-61.3,0.1-70.2c-0.5-2.8-0.7-3.3-3.3-5.5  c-15.2-13.4-36.8-25.2-44.4-29.2c-1-0.5-1.9-0.8-2.8-0.8S83,22.2,82,22.7c-7.6,4-29.2,15.8-44.4,29.2c-2.4,2.1-2.8,2.6-3.3,5.5  c-1.2,8.9-4.4,37.5,0.1,70.2c0.2,1.3,1.2,2.2,3.3,2.5c17.2,2.8,33.7,3.7,48,3.6H83.9z"/>
<g>
	<path class="st1" d="M14.3,182.6c-0.8-0.7-1.9-1-3.3-1c-1.2,0-2.2,0.2-3,0.7c-0.8,0.4-1.4,1-1.9,1.7c-0.5,0.7-0.8,1.5-1,2.5   c-0.2,0.9-0.3,1.9-0.3,2.9c0,0.9,0.1,1.8,0.3,2.7c0.2,0.9,0.6,1.7,1,2.3c0.5,0.7,1.1,1.2,1.8,1.6c0.7,0.4,1.6,0.6,2.7,0.6   c1.6,0,2.9-0.4,3.8-1.3c0.9-0.8,1.5-2,1.7-3.6h3.4c-0.4,2.5-1.3,4.4-2.8,5.7c-1.5,1.3-3.5,2-6,2c-1.5,0-2.9-0.2-4-0.7   c-1.2-0.5-2.1-1.2-2.9-2.1c-0.8-0.9-1.4-2-1.8-3.2c-0.4-1.2-0.6-2.6-0.6-4.1c0-1.5,0.2-2.9,0.6-4.2s1-2.4,1.8-3.4   c0.8-1,1.8-1.7,2.9-2.3c1.2-0.6,2.6-0.8,4.1-0.8c1.1,0,2.2,0.1,3.2,0.4c1,0.3,1.9,0.7,2.6,1.3c0.8,0.6,1.4,1.3,1.9,2.1   c0.5,0.9,0.8,1.9,0.9,3.1h-3.4C15.6,184.3,15.1,183.3,14.3,182.6z"/>
	<path class="st1" d="M40.7,199c-0.6,0.3-1.3,0.5-2.3,0.5c-0.8,0-1.5-0.2-2-0.7c-0.5-0.5-0.8-1.3-0.8-2.3c-0.9,1.1-1.9,1.9-3.1,2.3   c-1.2,0.5-2.5,0.7-3.9,0.7c-0.9,0-1.8-0.1-2.6-0.3c-0.8-0.2-1.5-0.5-2.1-1c-0.6-0.4-1.1-1-1.4-1.7c-0.3-0.7-0.5-1.6-0.5-2.6   c0-1.1,0.2-2.1,0.6-2.8c0.4-0.7,0.9-1.3,1.5-1.8c0.6-0.4,1.3-0.8,2.2-1c0.8-0.2,1.6-0.4,2.5-0.6c0.9-0.2,1.8-0.3,2.6-0.4   c0.8-0.1,1.5-0.2,2.1-0.4c0.6-0.2,1.1-0.4,1.5-0.7c0.4-0.3,0.5-0.8,0.5-1.4c0-0.7-0.1-1.3-0.4-1.7c-0.3-0.4-0.6-0.8-1-1   c-0.4-0.2-0.9-0.4-1.4-0.5c-0.5-0.1-1-0.1-1.6-0.1c-1.4,0-2.5,0.3-3.5,0.8c-0.9,0.5-1.4,1.5-1.5,3h-3.3c0.1-1.2,0.3-2.3,0.8-3.1   c0.5-0.8,1.1-1.5,1.8-2.1c0.8-0.5,1.7-0.9,2.6-1.1c1-0.2,2-0.3,3.2-0.3c0.9,0,1.8,0.1,2.7,0.2c0.9,0.1,1.7,0.4,2.4,0.8   s1.3,1,1.7,1.7c0.4,0.7,0.7,1.7,0.7,2.8v10.2c0,0.8,0,1.3,0.1,1.7c0.1,0.4,0.4,0.5,0.9,0.5c0.3,0,0.6-0.1,1-0.2V199z M35.4,188.8   c-0.4,0.3-1,0.5-1.6,0.7c-0.7,0.1-1.4,0.3-2.1,0.3c-0.7,0.1-1.5,0.2-2.2,0.3c-0.7,0.1-1.4,0.3-2,0.6c-0.6,0.3-1.1,0.6-1.4,1.1   c-0.4,0.5-0.6,1.1-0.6,1.9c0,0.5,0.1,1,0.3,1.4c0.2,0.4,0.5,0.7,0.8,0.9c0.3,0.2,0.8,0.4,1.2,0.5c0.5,0.1,0.9,0.2,1.5,0.2   c1.1,0,2-0.1,2.8-0.4c0.8-0.3,1.4-0.7,1.9-1.1c0.5-0.4,0.8-0.9,1.1-1.5c0.2-0.5,0.3-1,0.3-1.5V188.8z"/>
	<path class="st1" d="M46.7,179.2v4.2h0.1c0.8-1.6,1.8-2.8,2.9-3.6c1.2-0.8,2.6-1.1,4.4-1.1v3.5c-1.3,0-2.4,0.2-3.4,0.5   c-0.9,0.4-1.7,0.9-2.2,1.6c-0.6,0.7-1,1.5-1.2,2.5c-0.3,1-0.4,2.1-0.4,3.4v8.9h-3.3v-19.9H46.7z"/>
	<path class="st1" d="M70,197.8c-1.5,1.1-3.4,1.7-5.6,1.7c-1.6,0-3-0.3-4.1-0.8c-1.2-0.5-2.2-1.2-2.9-2.2c-0.8-0.9-1.4-2-1.8-3.3   c-0.4-1.3-0.6-2.7-0.7-4.2c0-1.5,0.2-2.9,0.7-4.2c0.5-1.3,1.1-2.4,1.9-3.3c0.8-0.9,1.8-1.6,3-2.2c1.1-0.5,2.4-0.8,3.8-0.8   c1.8,0,3.2,0.4,4.4,1.1c1.2,0.7,2.1,1.7,2.8,2.8c0.7,1.1,1.2,2.4,1.5,3.7c0.3,1.3,0.4,2.6,0.3,3.8H58.3c0,0.9,0.1,1.7,0.3,2.5   c0.2,0.8,0.6,1.5,1.1,2.1c0.5,0.6,1.2,1.1,2,1.4c0.8,0.4,1.7,0.5,2.8,0.5c1.4,0,2.5-0.3,3.4-1c0.9-0.6,1.5-1.6,1.8-2.9h3.2   C72.4,195,71.5,196.7,70,197.8z M69.2,185c-0.3-0.7-0.7-1.3-1.2-1.8c-0.5-0.5-1.1-0.9-1.8-1.2c-0.7-0.3-1.4-0.4-2.3-0.4   c-0.8,0-1.6,0.1-2.3,0.4c-0.7,0.3-1.3,0.7-1.8,1.2c-0.5,0.5-0.9,1.1-1.2,1.8c-0.3,0.7-0.4,1.4-0.5,2.2h11.4   C69.7,186.4,69.5,185.7,69.2,185z"/>
	<path class="st1" d="M89.8,194.6c0.3,0.5,0.7,0.9,1.2,1.2c0.5,0.3,1.1,0.5,1.7,0.6c0.6,0.1,1.3,0.2,1.9,0.2c0.5,0,1.1,0,1.6-0.1   c0.6-0.1,1.1-0.2,1.6-0.4c0.5-0.2,0.9-0.5,1.2-0.9c0.3-0.4,0.5-0.9,0.5-1.5c0-0.8-0.3-1.5-1-1.9c-0.6-0.4-1.4-0.8-2.4-1.1   c-1-0.3-2-0.5-3.1-0.7c-1.1-0.2-2.2-0.5-3.1-0.9c-1-0.4-1.8-1-2.4-1.7c-0.6-0.7-1-1.7-1-3c0-1,0.2-1.9,0.7-2.6   c0.4-0.7,1-1.3,1.7-1.8c0.7-0.4,1.5-0.8,2.4-1c0.9-0.2,1.8-0.3,2.6-0.3c1.1,0,2.2,0.1,3.1,0.3c0.9,0.2,1.8,0.5,2.5,1   c0.7,0.5,1.3,1.1,1.8,1.9c0.4,0.8,0.7,1.8,0.8,3h-3.3c-0.1-0.6-0.2-1.2-0.5-1.6c-0.3-0.4-0.6-0.8-1.1-1c-0.4-0.3-0.9-0.4-1.4-0.6   c-0.5-0.1-1.1-0.2-1.6-0.2c-0.5,0-1,0-1.5,0.1c-0.5,0.1-1,0.2-1.4,0.4c-0.4,0.2-0.7,0.5-1,0.8c-0.3,0.3-0.4,0.7-0.4,1.3   c0,0.6,0.2,1,0.6,1.4c0.4,0.4,0.9,0.7,1.5,0.9c0.6,0.2,1.3,0.4,2.1,0.6c0.8,0.2,1.5,0.3,2.3,0.5c0.8,0.2,1.6,0.4,2.4,0.7   c0.8,0.3,1.5,0.6,2.1,1c0.6,0.4,1.1,1,1.5,1.6c0.4,0.6,0.6,1.4,0.6,2.4c0,1.2-0.3,2.2-0.8,3c-0.5,0.8-1.2,1.4-2,1.9   c-0.8,0.5-1.7,0.8-2.7,1c-1,0.2-2,0.3-3,0.3c-1.1,0-2.2-0.1-3.2-0.3c-1-0.2-1.9-0.6-2.7-1.1c-0.8-0.5-1.4-1.2-1.8-2.1   c-0.5-0.9-0.7-1.9-0.8-3.1h3.3C89.3,193.5,89.5,194.1,89.8,194.6z"/>
	<path class="st1" d="M120.6,197.8c-1.5,1.1-3.4,1.7-5.6,1.7c-1.6,0-3-0.3-4.1-0.8c-1.2-0.5-2.2-1.2-2.9-2.2c-0.8-0.9-1.4-2-1.8-3.3   c-0.4-1.3-0.6-2.7-0.7-4.2c0-1.5,0.2-2.9,0.7-4.2c0.5-1.3,1.1-2.4,1.9-3.3c0.8-0.9,1.8-1.6,3-2.2c1.1-0.5,2.4-0.8,3.8-0.8   c1.8,0,3.2,0.4,4.4,1.1c1.2,0.7,2.1,1.7,2.8,2.8c0.7,1.1,1.2,2.4,1.5,3.7c0.3,1.3,0.4,2.6,0.3,3.8h-14.9c0,0.9,0.1,1.7,0.3,2.5   c0.2,0.8,0.6,1.5,1.1,2.1c0.5,0.6,1.2,1.1,2,1.4c0.8,0.4,1.7,0.5,2.8,0.5c1.4,0,2.5-0.3,3.4-1c0.9-0.6,1.5-1.6,1.8-2.9h3.2   C123.1,195,122.1,196.7,120.6,197.8z M119.9,185c-0.3-0.7-0.7-1.3-1.2-1.8c-0.5-0.5-1.1-0.9-1.8-1.2c-0.7-0.3-1.4-0.4-2.3-0.4   c-0.8,0-1.6,0.1-2.3,0.4c-0.7,0.3-1.3,0.7-1.8,1.2c-0.5,0.5-0.9,1.1-1.2,1.8c-0.3,0.7-0.4,1.4-0.5,2.2h11.4   C120.3,186.4,120.2,185.7,119.9,185z"/>
	<path class="st1" d="M130.2,179.2v4.2h0.1c0.8-1.6,1.8-2.8,2.9-3.6c1.2-0.8,2.6-1.1,4.4-1.1v3.5c-1.3,0-2.4,0.2-3.4,0.5   c-0.9,0.4-1.7,0.9-2.2,1.6c-0.6,0.7-1,1.5-1.2,2.5c-0.3,1-0.4,2.1-0.4,3.4v8.9h-3.3v-19.9H130.2z"/>
	<path class="st1" d="M145.5,199.1l-7.4-19.9h3.7l5.6,16.6h0.1l5.4-16.6h3.4l-7.3,19.9H145.5z"/>
	<path class="st1" d="M159.5,175.6v-4h3.3v4H159.5z M162.8,179.2v19.9h-3.3v-19.9H162.8z"/>
	<path class="st1" d="M179.8,182.6c-0.8-0.7-1.9-1-3.3-1c-1.2,0-2.2,0.2-3,0.7c-0.8,0.4-1.4,1-1.9,1.7c-0.5,0.7-0.8,1.5-1,2.5   c-0.2,0.9-0.3,1.9-0.3,2.9c0,0.9,0.1,1.8,0.3,2.7c0.2,0.9,0.6,1.7,1,2.3c0.5,0.7,1.1,1.2,1.8,1.6c0.7,0.4,1.6,0.6,2.7,0.6   c1.6,0,2.9-0.4,3.8-1.3s1.5-2,1.7-3.6h3.4c-0.4,2.5-1.3,4.4-2.8,5.7c-1.5,1.3-3.5,2-6,2c-1.5,0-2.9-0.2-4-0.7   c-1.2-0.5-2.1-1.2-2.9-2.1c-0.8-0.9-1.4-2-1.8-3.2c-0.4-1.2-0.6-2.6-0.6-4.1c0-1.5,0.2-2.9,0.6-4.2c0.4-1.3,1-2.4,1.8-3.4   c0.8-1,1.8-1.7,2.9-2.3c1.2-0.6,2.6-0.8,4.1-0.8c1.1,0,2.2,0.1,3.2,0.4c1,0.3,1.9,0.7,2.6,1.3c0.8,0.6,1.4,1.3,1.9,2.1   c0.5,0.9,0.8,1.9,0.9,3.1h-3.4C181.1,184.3,180.6,183.3,179.8,182.6z"/>
	<path class="st1" d="M202.7,197.8c-1.5,1.1-3.4,1.7-5.6,1.7c-1.6,0-3-0.3-4.1-0.8c-1.2-0.5-2.2-1.2-2.9-2.2c-0.8-0.9-1.4-2-1.8-3.3   s-0.6-2.7-0.7-4.2c0-1.5,0.2-2.9,0.7-4.2c0.5-1.3,1.1-2.4,1.9-3.3c0.8-0.9,1.8-1.6,3-2.2c1.1-0.5,2.4-0.8,3.8-0.8   c1.8,0,3.2,0.4,4.4,1.1c1.2,0.7,2.1,1.7,2.8,2.8c0.7,1.1,1.2,2.4,1.5,3.7c0.3,1.3,0.4,2.6,0.3,3.8H191c0,0.9,0.1,1.7,0.3,2.5   c0.2,0.8,0.6,1.5,1.1,2.1c0.5,0.6,1.2,1.1,2,1.4c0.8,0.4,1.7,0.5,2.8,0.5c1.4,0,2.5-0.3,3.4-1c0.9-0.6,1.5-1.6,1.8-2.9h3.2   C205.1,195,204.2,196.7,202.7,197.8z M201.9,185c-0.3-0.7-0.7-1.3-1.2-1.8c-0.5-0.5-1.1-0.9-1.8-1.2c-0.7-0.3-1.4-0.4-2.3-0.4   c-0.8,0-1.6,0.1-2.3,0.4c-0.7,0.3-1.3,0.7-1.8,1.2c-0.5,0.5-0.9,1.1-1.2,1.8c-0.3,0.7-0.4,1.4-0.5,2.2h11.4   C202.3,186.4,202.2,185.7,201.9,185z"/>
	<path class="st1" d="M211.8,194.6c0.3,0.5,0.7,0.9,1.2,1.2c0.5,0.3,1.1,0.5,1.7,0.6c0.6,0.1,1.3,0.2,1.9,0.2c0.5,0,1.1,0,1.6-0.1   c0.6-0.1,1.1-0.2,1.6-0.4c0.5-0.2,0.9-0.5,1.2-0.9c0.3-0.4,0.5-0.9,0.5-1.5c0-0.8-0.3-1.5-1-1.9c-0.6-0.4-1.4-0.8-2.4-1.1   c-1-0.3-2-0.5-3.1-0.7c-1.1-0.2-2.2-0.5-3.1-0.9c-1-0.4-1.8-1-2.4-1.7c-0.6-0.7-1-1.7-1-3c0-1,0.2-1.9,0.7-2.6   c0.4-0.7,1-1.3,1.7-1.8s1.5-0.8,2.4-1c0.9-0.2,1.8-0.3,2.6-0.3c1.1,0,2.2,0.1,3.1,0.3c0.9,0.2,1.8,0.5,2.5,1   c0.7,0.5,1.3,1.1,1.8,1.9c0.4,0.8,0.7,1.8,0.8,3h-3.3c-0.1-0.6-0.2-1.2-0.5-1.6c-0.3-0.4-0.6-0.8-1.1-1c-0.4-0.3-0.9-0.4-1.4-0.6   c-0.5-0.1-1.1-0.2-1.6-0.2c-0.5,0-1,0-1.5,0.1c-0.5,0.1-1,0.2-1.4,0.4c-0.4,0.2-0.7,0.5-1,0.8c-0.3,0.3-0.4,0.7-0.4,1.3   c0,0.6,0.2,1,0.6,1.4c0.4,0.4,0.9,0.7,1.5,0.9c0.6,0.2,1.3,0.4,2.1,0.6c0.8,0.2,1.5,0.3,2.3,0.5c0.8,0.2,1.6,0.4,2.4,0.7   c0.8,0.3,1.5,0.6,2.1,1c0.6,0.4,1.1,1,1.5,1.6c0.4,0.6,0.6,1.4,0.6,2.4c0,1.2-0.3,2.2-0.8,3c-0.5,0.8-1.2,1.4-2,1.9   c-0.8,0.5-1.7,0.8-2.7,1c-1,0.2-2,0.3-3,0.3c-1.1,0-2.2-0.1-3.2-0.3c-1-0.2-1.9-0.6-2.7-1.1c-0.8-0.5-1.4-1.2-1.8-2.1   c-0.5-0.9-0.7-1.9-0.8-3.1h3.3C211.3,193.5,211.5,194.1,211.8,194.6z"/>
</g>
</svg>