<svg xmlns="http://www.w3.org/2000/svg" width="142" height="72" viewBox="0 0 142 72">
  <g fill="#FF6122" fill-rule="evenodd">
    <path d="M0 4C0 1.79 1.798 0 4 0L68 0C70.21 0 72 1.798 72 4L72 68C72 70.21 70.202 72 68 72L4 72C1.79 72 0 70.202 0 68L0 4zM8.89 66.08C6.29 66.08 3.946 64.424 3.946 60.806 3.946 57.189 6.291 55.534 8.891 55.534 11.491 55.534 13.834 57.189 13.834 60.806 13.834 64.424 11.492 66.079 8.894 66.079L8.89 66.08zM8.89 57.757C6.925 57.757 6.566 59.527 6.566 60.807 6.566 62.085 6.926 63.859 8.891 63.859 10.858 63.859 11.217 62.083 11.217 60.804 11.217 59.524 10.857 57.754 8.893 57.754L8.89 57.757zM15.636 55.797L18.138 55.797 18.138 56.972C18.615 56.338 19.79 55.592 20.891 55.592 20.997 55.592 21.126 55.592 21.234 55.606L21.234 58.076 21.104 58.076C19.962 58.076 18.711 58.254 18.307 59.143L18.307 65.788 15.637 65.788 15.637 55.798 15.636 55.797zM28.22 64.92C27.202 65.587 26.1 65.912 24.915 65.912 23.051 65.912 21.945 64.672 21.945 63.006 21.945 60.768 24.002 59.586 28.24 59.109L28.24 58.549C28.24 57.825 27.69 57.399 26.672 57.399 25.654 57.399 24.829 57.804 24.232 58.549L22.459 57.539C23.389 56.236 24.806 55.584 26.712 55.584 29.318 55.584 30.782 56.714 30.782 58.55 30.782 58.55 30.779 65.775 30.782 65.79L28.452 65.79 28.217 64.918 28.22 64.92zM24.536 62.814C24.536 63.486 24.956 64.114 25.721 64.114 26.548 64.114 27.351 63.772 28.159 63.061L28.159 60.697C25.702 61 24.539 61.634 24.539 62.817L24.536 62.814zM32.862 56.064L35.04 55.764 35.28 56.949C36.507 56.049 37.483 55.569 38.71 55.569 40.766 55.569 41.83 56.659 41.83 58.822L41.83 65.777 39.197 65.777 39.197 59.277C39.197 58.054 38.88 57.503 37.929 57.503 37.143 57.503 36.359 57.859 35.463 58.611L35.463 65.776 32.86 65.776 32.86 56.06 32.862 56.064zM52.955 55.762L52.955 65.222C52.955 66.889 52.822 69.645 48.065 69.67 46.1 69.684 44.278 68.896 43.915 67.182L46.508 66.762C46.616 67.255 46.918 67.742 48.39 67.742 49.752 67.742 50.407 67.092 50.407 65.53L50.407 64.366 50.373 64.331C49.953 65.081 49.32 65.791 47.793 65.791 45.463 65.791 43.629 64.173 43.629 60.796 43.629 57.454 45.519 55.582 47.642 55.579 49.639 55.576 50.374 56.485 50.548 56.963L50.512 56.96 50.732 55.764 52.952 55.764 52.955 55.762zM48.265 63.642C50.257 63.627 50.428 61.595 50.428 60.275 50.428 58.705 49.665 57.441 48.248 57.441 47.302 57.441 46.246 58.131 46.246 60.385 46.246 61.615 46.334 63.66 48.264 63.643L48.265 63.642zM59.242 65.972C56.297 65.972 54.542 64.075 54.542 60.789 54.542 57.462 56.318 55.569 59.2 55.569 62.082 55.569 63.797 57.406 63.797 60.654 63.797 60.828 63.777 60.999 63.777 61.17L57.123 61.17C57.141 63.067 57.928 64.02 59.475 64.02 60.469 64.02 61.127 63.62 61.745 62.743L63.668 63.809C62.821 65.226 61.295 65.969 59.242 65.969L59.242 65.972zM61.215 59.468C61.215 58.133 60.448 57.346 59.2 57.346 58.012 57.346 57.27 58.116 57.165 59.468L61.215 59.468zM62.217 52.006L62.217 52.446 63.249 52.446 63.249 55.31 63.794 55.31 63.794 52.445 64.829 52.445 64.829 52.005 62.216 52.005 62.217 52.006zM68.297 52.006L67.33 54.512 66.344 52.006 65.5 52.006 65.5 55.31 66.047 55.31 66.047 52.553 66.061 52.553 67.147 55.31 67.497 55.31 68.572 52.553 68.592 52.553 68.592 55.31 69.134 55.31 69.134 52.006 68.3 52.006 68.297 52.006zM79.664 64.84L83.984 64.84 83.984 67 76.96 67 76.96 55.344 79.664 55.344 79.664 64.84zM87.724 67L85.004 67 85.004 55.344 87.724 55.344 87.724 67zM88.424 55.344L90.6 55.344C90.8346678 55.344 91.0266659 55.3973328 91.176 55.504 91.3253341 55.6106672 91.4319997 55.7519991 91.496 55.928L93.752 62.168C93.8533338 62.4400014 93.9559995 62.7359984 94.06 63.056 94.1640005 63.3760016 94.2613329 63.7119982 94.352 64.064 94.426667 63.7119982 94.5133328 63.3760016 94.612 63.056 94.7106672 62.7359984 94.8079995 62.4400014 94.904 62.168L97.144 55.928C97.1973336 55.7786659 97.3013326 55.6440006 97.456 55.524 97.6106674 55.4039994 97.7999989 55.344 98.024 55.344L100.216 55.344 95.544 67 93.096 67 88.424 55.344zM108.18 55.344L108.18 57.424 103.396 57.424 103.396 60.144 107.06 60.144 107.06 62.144 103.396 62.144 103.396 64.92 108.18 64.92 108.18 67 100.676 67 100.676 55.344 108.18 55.344zM109.216 67L109.216 55.344 113.504 55.344C114.309337 55.344 114.994664 55.4186659 115.56 55.568 116.125336 55.7173341 116.586665 55.9279986 116.944 56.2 117.301335 56.4720014 117.561333 56.8026647 117.724 57.192 117.886667 57.5813353 117.968 58.0159976 117.968 58.496 117.968 58.7573346 117.930667 59.0093321 117.856 59.252 117.781333 59.4946679 117.664001 59.7226656 117.504 59.936 117.343999 60.1493344 117.138668 60.3426658 116.888 60.516 116.637332 60.6893342 116.336002 60.8399994 115.984 60.968 116.752004 61.1546676 117.319998 61.4573312 117.688 61.876 118.056002 62.2946688 118.24 62.8319967 118.24 63.488 118.24 63.9840025 118.144001 64.4453312 117.952 64.872 117.759999 65.2986688 117.478669 65.6706651 117.108 65.988 116.737331 66.3053349 116.280003 66.5533324 115.736 66.732 115.191997 66.9106676 114.57067 67 113.872 67L109.216 67zM111.92 62.056L111.92 64.96 113.824 64.96C114.181335 64.96 114.473332 64.9146671 114.7 64.824 114.926668 64.7333329 115.103999 64.6160007 115.232 64.472 115.360001 64.3279993 115.448 64.1653342 115.496 63.984 115.544 63.8026658 115.568 63.6186676 115.568 63.432 115.568 63.2186656 115.54 63.0266675 115.484 62.856 115.428 62.6853325 115.332001 62.5413339 115.196 62.424 115.059999 62.3066661 114.880001 62.2160003 114.656 62.152 114.431999 62.0879997 114.149335 62.056 113.808 62.056L111.92 62.056zM111.92 60.248L113.328 60.248C113.626668 60.248 113.895999 60.2266669 114.136 60.184 114.376001 60.1413331 114.579999 60.0666672 114.748 59.96 114.916001 59.8533328 115.044 59.7066676 115.132 59.52 115.22 59.3333324 115.264 59.0986681 115.264 58.816 115.264 58.5386653 115.229334 58.3080009 115.16 58.124 115.090666 57.9399991 114.984001 57.7920006 114.84 57.68 114.695999 57.5679994 114.513334 57.4880002 114.292 57.44 114.070666 57.3919998 113.808002 57.368 113.504 57.368L111.92 57.368 111.92 60.248zM130.716 61.168C130.716 62.0106709 130.570668 62.794663 130.28 63.52 129.989332 64.245337 129.580003 64.8759973 129.052 65.412 128.523997 65.9480027 127.888004 66.3679985 127.144 66.672 126.399996 66.9760015 125.574671 67.128 124.668 67.128 123.761329 67.128 122.93467 66.9760015 122.188 66.672 121.44133 66.3679985 120.802669 65.9480027 120.272 65.412 119.741331 64.8759973 119.330668 64.245337 119.04 63.52 118.749332 62.794663 118.604 62.0106709 118.604 61.168 118.604 60.3253291 118.749332 59.541337 119.04 58.816 119.330668 58.090663 119.741331 57.461336 120.272 56.928 120.802669 56.394664 121.44133 55.9760015 122.188 55.672 122.93467 55.3679985 123.761329 55.216 124.668 55.216 125.574671 55.216 126.399996 55.3693318 127.144 55.676 127.888004 55.9826682 128.523997 56.402664 129.052 56.936 129.580003 57.469336 129.989332 58.098663 130.28 58.824 130.570668 59.549337 130.716 60.3306625 130.716 61.168zM127.948 61.168C127.948 60.5919971 127.873334 60.0733356 127.724 59.612 127.574666 59.1506644 127.360001 58.7600016 127.08 58.44 126.799999 58.1199984 126.457335 57.8746675 126.052 57.704 125.646665 57.5333325 125.185336 57.448 124.668 57.448 124.145331 57.448 123.680002 57.5333325 123.272 57.704 122.863998 57.8746675 122.520001 58.1199984 122.24 58.44 121.959999 58.7600016 121.745334 59.1506644 121.596 59.612 121.446666 60.0733356 121.372 60.5919971 121.372 61.168 121.372 61.7493362 121.446666 62.2706644 121.596 62.732 121.745334 63.1933356 121.959999 63.5839984 122.24 63.904 122.520001 64.2240016 122.863998 64.4679992 123.272 64.636 123.680002 64.8040008 124.145331 64.888 124.668 64.888 125.185336 64.888 125.646665 64.8040008 126.052 64.636 126.457335 64.4679992 126.799999 64.2240016 127.08 63.904 127.360001 63.5839984 127.574666 63.1933356 127.724 62.732 127.873334 62.2706644 127.948 61.7493362 127.948 61.168zM134.144 61.008L130.536 55.344 133.24 55.344C133.416001 55.344 133.545333 55.3666664 133.628 55.412 133.710667 55.4573336 133.784 55.5333328 133.848 55.64L136.168 59.568C136.194667 59.4986663 136.225333 59.4320003 136.26 59.368 136.294667 59.3039997 136.333333 59.2373337 136.376 59.168L138.408 55.68C138.541334 55.4559989 138.722666 55.344 138.952 55.344L141.544 55.344 137.888 60.888 141.624 67 138.92 67C138.743999 67 138.601334 66.9573338 138.492 66.872 138.382666 66.7866662 138.296 66.6853339 138.232 66.568L135.896 62.488C135.853333 62.6053339 135.805334 62.7066662 135.752 62.792L133.576 66.568C133.512 66.6800006 133.426667 66.7799996 133.32 66.868 133.213333 66.9560004 133.080001 67 132.92 67L130.392 67 134.144 61.008z"/>
  </g>
</svg>
