<?xml version="1.0" encoding="UTF-8" standalone="no"?>
<svg xmlns:dc="http://purl.org/dc/elements/1.1/" xmlns:cc="http://creativecommons.org/ns#" xmlns:rdf="http://www.w3.org/1999/02/22-rdf-syntax-ns#" xmlns:svg="http://www.w3.org/2000/svg" xmlns="http://www.w3.org/2000/svg" viewBox="0 0 673.22498 233.71249" height="233.71249" width="673.22498" xml:space="preserve" version="1.1" id="svg2"><metadata id="metadata8"><rdf:RDF><cc:Work rdf:about=""><dc:format>image/svg+xml</dc:format><dc:type rdf:resource="http://purl.org/dc/dcmitype/StillImage"/></cc:Work></rdf:RDF></metadata><defs id="defs6"><clipPath id="clipPath18" clipPathUnits="userSpaceOnUse"><path id="path20" d="M 0,1869.71 0,0 l 5385.83,0 0,1869.71 -5385.83,0 z"/></clipPath><clipPath id="clipPath28" clipPathUnits="userSpaceOnUse"><path id="path30" d="M 0.179688,767.5 C 91.5781,892.012 190.984,1004.12 305.23,1104.35 c 137.774,120.87 292.653,223.47 460.45,302.11 42.05,22.86 86.5,41.81 132.894,56.36 156.896,59.76 323.496,99.9 496.686,117.42 5.36,0.54 10.71,1.06 16.08,1.56 16.15,78.52 38.28,155.65 66.14,230.68 -111.53,37.13 -230.81,57.23 -354.82,57.23 -190.375,0 -369.687,-47.39 -526.777,-131.02 C 497.195,1686.16 407.281,1619.31 328.891,1540.94 130.176,1342.25 5.58984,1069.42 0.179688,767.5 Z"/></clipPath><clipPath id="clipPath34" clipPathUnits="userSpaceOnUse"><path id="path36" d="M 0.179688,767.5 C 91.5781,892.012 190.984,1004.12 305.23,1104.35 c 137.774,120.87 292.653,223.47 460.45,302.11 42.05,22.86 86.5,41.81 132.894,56.36 156.896,59.76 323.496,99.9 496.686,117.42 5.36,0.54 10.71,1.06 16.08,1.56 16.15,78.52 38.28,155.65 66.14,230.68 -111.53,37.13 -230.81,57.23 -354.82,57.23 -190.375,0 -369.687,-47.39 -526.777,-131.02 C 497.195,1686.16 407.281,1619.31 328.891,1540.94 130.176,1342.25 5.58984,1069.42 0.179688,767.5"/></clipPath><clipPath id="clipPath62" clipPathUnits="userSpaceOnUse"><path id="path64" d="M 0,1869.71 0,0 l 5385.83,0 0,1869.71 -5385.83,0 z"/></clipPath></defs><g transform="matrix(1.25,0,0,-1.25,0,233.7125)" id="g10"><g transform="scale(0.1,0.1)" id="g12"><g id="g14"><g clip-path="url(#clipPath18)" id="g16"><path id="path22" style="fill:#f030a2;fill-opacity:1;fill-rule:nonzero;stroke:none" d="m 3540.66,1396.25 -307.18,0 0,-440.629 c 63.1,-25.492 125.36,-52.508 186.75,-80.523 40.53,-18.496 80.67,-37.297 120.44,-56.868 l -0.01,578.02"/></g></g><g id="g24"><g clip-path="url(#clipPath28)" id="g26"><g clip-path="url(#clipPath34)" id="g32"><g transform="matrix(10,0,0,-10,-79216,82854)" id="g38"><path id="path40" style="fill:#f9c723;fill-opacity:1;fill-rule:nonzero;stroke:none" d="m 7921.62,8208.65 c 9.1363,-12.4518 19.0784,-23.664 30.5009,-33.6894 -13.1744,-22.6873 21.8333,-55.8118 29.0687,-63.4326 -9.872,5.2558 -18.8638,11.9393 -26.6992,19.7748 -19.8755,19.8711 -32.3317,47.1529 -32.8704,77.3472 z"/><path id="path42" style="fill:#f9c723;fill-opacity:1;fill-rule:nonzero;stroke:none" d="m 7952.1209,8174.9606 c 13.7788,-12.0839 29.2658,-22.3457 46.0448,-30.2075 -0.1533,-0.8102 -0.2015,-1.6424 -0.1577,-2.4877 -17.3396,7.2135 -33.4222,16.836 -47.8186,28.2979 0.4643,1.5023 1.1037,2.9695 1.9315,4.3973 z"/><path id="path44" style="fill:#f9c723;fill-opacity:1;fill-rule:nonzero;stroke:none" d="m 7998.1657,8144.7531 c 4.2046,-2.2862 8.6501,-4.1827 13.2927,-5.6368 0.013,-0.6438 0.1095,-1.3051 0.2803,-1.9796 -4.7784,1.3008 -9.3684,3.0264 -13.7307,5.1287 -0.044,0.8453 0,1.6775 0.1577,2.4877 z"/><path id="path46" style="fill:#f9c723;fill-opacity:1;fill-rule:nonzero;stroke:none" d="m 8011.4584,8139.1163 c 1.0249,-0.3941 2.0585,-0.7752 3.0965,-1.1518 0.053,-0.6045 0.184,-1.2264 0.3854,-1.8571 -1.073,0.3329 -2.1417,0.6789 -3.2016,1.0293 -0.1708,0.6745 -0.2672,1.3358 -0.2803,1.9796 z"/><path id="path48" style="fill:#f9c723;fill-opacity:1;fill-rule:nonzero;stroke:none" d="m 8014.5549,8137.9645 c 14.7774,-5.3434 30.387,-8.9523 46.5704,-10.5904 0.5343,-0.053 1.073,-0.1051 1.6074,-0.1577 -16.5075,1.0775 -32.5244,4.1083 -47.7924,8.891 -0.2014,0.6307 -0.3328,1.2526 -0.3854,1.8571 z"/><path id="path50" style="fill:#f9c723;fill-opacity:1;fill-rule:nonzero;stroke:none" d="m 7950.1894,8170.5633 c 14.3964,-11.4619 30.479,-21.0844 47.8186,-28.2979 -2.2599,-15.868 16.4418,-35.5639 22.1618,-43.0096 -13.9409,1.695 -27.0978,5.9478 -38.9802,12.2722 -6.7799,7.1434 -37.9465,36.6764 -31.0002,59.0353 z"/><path id="path52" style="fill:#f9c723;fill-opacity:1;fill-rule:nonzero;stroke:none" d="m 7998.008,8142.2654 c 4.3623,-2.1023 8.9523,-3.8279 13.7307,-5.1287 -1.1519,-14.1205 14.1774,-31.2017 19.512,-38.678 -3.7403,0.083 -7.4369,0.3504 -11.0809,0.7971 -5.72,7.4457 -24.4217,27.1416 -22.1618,43.0096 z"/><path id="path54" style="fill:#f9c723;fill-opacity:1;fill-rule:nonzero;stroke:none" d="m 8011.7387,8137.1367 c 1.0599,-0.3504 2.1286,-0.6964 3.2016,-1.0293 -0.8847,-13.7175 13.6738,-30.1943 18.9251,-37.6794 -0.8759,0 -1.7475,0.01 -2.6147,0.031 -5.3346,7.4763 -20.6639,24.5575 -19.512,38.678 z"/><path id="path56" style="fill:#f9c723;fill-opacity:1;fill-rule:nonzero;stroke:none" d="m 8014.9403,8136.1074 c 15.268,-4.7827 31.2849,-7.8135 47.7924,-8.891 1.6161,-7.8486 3.8279,-15.5614 6.6135,-23.0684 -11.151,-3.7096 -23.0816,-5.72 -35.4808,-5.72 -5.2513,7.4851 -19.8098,23.9619 -18.9251,37.6794 z"/></g></g></g></g><g id="g58"><g clip-path="url(#clipPath62)" id="g60"><path id="path66" style="fill:#f9c723;fill-opacity:1;fill-rule:nonzero;stroke:none" d="m 1477.48,1812.48 c -27.86,-75.03 -51.55,-153.73 -67.7,-232.24 60.19,5.59 122.75,10 184.38,10.01 3.03,0 5.91,-0.01 8.94,-0.02 96.83,-0.43 192.14,-8.05 285.14,-22.06 -116.47,108.61 -256.23,192.87 -410.76,244.31"/><path id="path68" style="fill:#f57b2a;fill-opacity:1;fill-rule:nonzero;stroke:none" d="M 705.563,124.191 C 573.805,212.691 471.52,341.801 416.844,493.48 372.523,445.559 329.488,382.18 292.059,321.879 253.051,259.051 215.371,194.98 188.512,124.309 206.867,96.8398 226.41,70.2109 247.039,44.5313 l 613.395,0 C 805.48,65.1094 753.566,91.9492 705.563,124.191"/><path id="path70" style="fill:#f57b2a;fill-opacity:1;fill-rule:nonzero;stroke:none" d="m 1815.7,461 c -24.94,-60.199 -96.4,-167.75 -96.4,-167.75 l 0,0 C 1634.19,181.66 1518.53,94.5586 1384.91,44.5313 l 613.4,0 c 55.78,69.4297 103.4,145.7967 141.58,227.3477 -67.27,25.949 -132.27,58.762 -193.92,96.711 -45.34,27.922 -88.84,58.289 -130.27,92.41"/><path id="path72" style="fill:#f030a2;fill-opacity:1;fill-rule:nonzero;stroke:none" d="m 3852.79,1079.71 c 94.98,0 171.96,76.99 171.96,171.97 0,94.98 -76.98,172 -171.96,172 -94.99,0 -171.97,-77.02 -171.97,-172 0,-94.98 76.98,-171.97 171.97,-171.97"/><path id="path74" style="fill:#f14633;fill-opacity:1;fill-rule:nonzero;stroke:none" d="m 2889.75,238.969 c -36.46,30.019 -72.29,61.051 -106.96,93.07 -14.87,9.992 -28.31,21.621 -40.26,34.91 -4.35,4.821 -8.42,9.91 -12.37,15.16 -6.43,6.313 -12.84,12.711 -19.21,19.09 -131.59,131.723 -248.39,278.141 -347.67,436.742 l 0,-251.921 c 0,-161.809 41.72,-292.981 123.91,-390.848 9.89,-11.774 20.23,-23.16 31.29,-33.953 15.3,-14.957 31.68,-28.68 48.88,-41.438 98.57,-73.0701 228.11,-110.17944 386.34,-110.17944 20.89,0 41.25,0.63674 61.12,1.92974 56.49,3.6601 108.73,12.6093 156.76,26.6093 -98.81,60.4102 -192.8,127.5584 -281.83,200.8284"/><path id="path76" style="fill:#ed1930;fill-opacity:1;fill-rule:nonzero;stroke:none" d="m 3540.67,935.703 0,0 0,0 0,0 z"/><path id="path78" style="fill:#b31648;fill-opacity:1;fill-rule:nonzero;stroke:none" d="m 3775.94,544.262 c -25,1.566 -49.95,3.777 -74.85,6.238 l 0,-500.4102 52.85,0 c 6.73,0 13.42,0.2618 20.02,0.7891 l 0,0 c 124.9,9.8711 224.03,111.3401 230.21,237.2501 l 0.25,254.281 c -51.35,-2.32 -102.65,-2.68 -153.81,-1.41 -24.92,0.609 -49.82,1.691 -74.67,3.262"/><path id="path80" style="fill:#b31648;fill-opacity:1;fill-rule:nonzero;stroke:none" d="m 2670.46,602.512 0,336.371 c -89.43,64.327 -174.33,136.337 -253.69,215.167 -16.75,16.64 -33.26,33.21 -49.51,50.49 l 0,0 c -1.33,1.41 -2.65,2.86 -3.98,4.28 l 0,-370.879 c 104.08,-166.281 227.42,-319.25 366.88,-455.832 -39.59,52.563 -59.7,126.52 -59.7,220.403"/><path id="path82" style="fill:#b31648;fill-opacity:1;fill-rule:nonzero;stroke:none" d="m 3299.32,629.539 c -22.06,6.602 -44,13.34 -65.84,20.66 l 0,-51.371 c 0,-107.957 -24.49,-187.789 -72.78,-237.207 -14.91,-15.262 -31.85,-28.199 -50.79,-38.801 -17.74,-9.929 -37.33,-17.672 -58.53,-23.461 -29.37,-8.039 -61.91,-12.211 -97.68,-12.211 -69.26,0 -126.51,15.071 -170.91,44.891 34.67,-32.019 70.26,-63.051 106.73,-93.07 l 0.02,0.011 c 88.98,-73.242 183.26,-140.4487 282.04,-200.8394 86.27,25.1485 158.75,66.8284 216.53,124.9614 24.56,24.707 46.2,51.929 64.87,81.57 39.76,63.137 66.11,137.34 78.8,222.019 5.04,33.5 7.81,68.739 8.56,105.489 -81.41,14.379 -161.9,33.66 -241.02,57.359"/><path id="path84" style="fill:#f14633;fill-opacity:1;fill-rule:nonzero;stroke:none" d="m 2139.57,1223.35 0,0 c -2.48,5.27 -5.01,10.57 -7.57,15.79 -1.82,3.74 -3.73,7.43 -5.6,11.14 -77.24,10.54 -154.43,20.05 -231.51,26.56 -85.41,7.21 -170.68,10.96 -255.72,13.35 20.5,-19.5 39.96,-40.08 58.15,-61.77 l 0.01,0 c 30.15,-35.94 57.02,-74.77 80.1,-115.96 60.62,-108.19 95.19,-232.823 95.19,-365.409 0,-73.071 -10.58,-143.699 -30.16,-210.52 -7.57,-25.832 -16.65,-51.011 -26.84,-75.609 97.76,-80.481 207.43,-144.07 324.19,-189.113 54.37,116.113 89.6,242.972 101.23,376.64 2.83,32.492 4.27,65.379 4.27,98.602 0,170.301 -37.89,331.699 -105.74,476.299"/><path id="path86" style="fill:#f89a26;fill-opacity:1;fill-rule:nonzero;stroke:none" d="M 0.183594,769.621 C 0.0546875,762.801 0.00390625,756.02 0.00390625,749.172 0.00390625,518.75 69.457,304.621 188.512,126.422 250.066,256.27 326.301,380.211 416.84,495.59 c -28.563,79.219 -44.141,164.621 -44.141,253.582 0,284.378 159.114,532.298 392.977,659.418 C 458.738,1264.73 195.027,1043.32 0.183594,769.621"/><path id="path88" style="fill:#f89a26;fill-opacity:1;fill-rule:nonzero;stroke:none" d="m 1888.08,1568.33 c -93,14.01 -188.14,21.47 -284.98,21.9 -3.03,0.01 -5.91,0.02 -8.94,0.02 -61.63,-0.01 -122.63,-2.86 -182.82,-8.45 -178.96,-16.62 -351.02,-57.37 -512.77,-118.98 70.782,22.21 146.07,34.19 224.09,34.19 94.04,0 184.09,-17.4 267.11,-49.14 93.54,-35.78 178.09,-89.83 249.4,-157.68 161.79,-4.55 324.39,-17.71 487.23,-39.91 -60.2,119.85 -141.19,227.49 -238.32,318.05"/><path id="path90" style="fill:#ed1930;fill-opacity:1;fill-rule:nonzero;stroke:none" d="m 2670.46,1142.18 c -84.25,22.07 -168.61,41.91 -253,59.03 -18.06,3.66 -36.12,6.97 -54.18,10.41 l 0,-2.8 c 1.33,-1.42 2.65,-2.87 3.98,-4.29 l 0,0 c 93.23,-99.1 194.89,-187.81 303.2,-265.725 l 0,203.375"/><path id="path92" style="fill:#f57b2a;fill-opacity:1;fill-rule:nonzero;stroke:none" d="m 2670.46,1229.31 0,166.94 -307.18,0 0,-184.63 c 102.46,-19.49 204.9,-42.65 307.18,-69.44 l 0,87.13"/><path id="path94" style="fill:#ed1930;fill-opacity:1;fill-rule:nonzero;stroke:none" d="m 3233.48,955.621 0,-305.422 c 100.15,-33.609 202.75,-59.629 306.86,-78.019 l 0.33,246.05 c -56.53,27.821 -113.83,54.563 -171.88,80.196 -44.66,19.726 -89.76,38.797 -135.31,57.195"/><path id="path96" style="fill:#ed1930;fill-opacity:1;fill-rule:nonzero;stroke:none" d="m 3701.09,735.781 0,-185.672 c 24.9,-2.461 49.85,-4.589 74.85,-6.168 75.84,-4.781 152.11,-5.382 228.48,-1.921 l 0.01,13.75 c -51.1,33.082 -103,65.351 -155.67,96.511 -48.57,28.719 -97.8,56.449 -147.67,83.5"/><path id="path98" style="fill:#f030a2;fill-opacity:1;fill-rule:nonzero;stroke:none" d="m 3852.79,1009.6 c -57.32,0 -110.03,19.94 -151.7,53.18 l 0,-327.471 c 103.96,-56.368 205.12,-116.43 303.34,-180.008 l 0.05,507.479 c -41.66,-33.24 -94.38,-53.18 -151.69,-53.18"/><path id="path100" style="fill:#a29d91;fill-opacity:1;fill-rule:nonzero;stroke:none" d="m 4253.6,214.609 -5.18,1.801 c -30.52,10.57 -65.11,22.539 -65.11,37.879 0,10.723 12.25,19.34 70.61,19.34 l 49.61,0 c 23.04,0 37.92,16.832 37.92,36.441 l 0,30.551 -113.11,0 c -58.34,0 -126.48,-24.531 -126.48,-93.652 0,-60.668 64.65,-82.821 116.58,-100.617 l 4.81,-1.653 c 35.79,-12.308 66.69,-22.929 66.69,-41.519 0,-18.0394 -38.11,-30.6487 -92.68,-30.6487 -25.29,0 -51.49,7.2304 -69.02,13.289 l -16.55,5.7188 0,-68.5274 9.09,-2.5625 c 17.74,-4.9804 54.75,-13.34764 103.29,-13.34764 90.83,0 147.26,39.89844 147.26,104.14844 0,62.441 -76.59,89.059 -117.73,103.359"/><path id="path102" style="fill:#a29d91;fill-opacity:1;fill-rule:nonzero;stroke:none" d="m 4484.53,13.5195 c 2.53,0 4.58,2.0508 4.58,4.5821 l 0,174.8594 c 0,28.238 6.41,49.109 19.03,62.027 12.62,12.922 30.83,19.473 54.12,19.473 24.18,0 42.76,-7.02 55.22,-20.871 12.51,-13.871 18.85,-34.602 18.85,-61.59 l 0,-173.8984 c 0,-2.5313 2.05,-4.5821 4.58,-4.5821 l 71.16,0 c 2.53,0 4.57,2.0508 4.57,4.5821 l 0,178.2184 c 0,47.399 -13.65,84.77 -40.58,111.071 -26.91,26.308 -65.2,39.64 -113.8,39.64 -48.89,0 -87.11,-13.5 -113.58,-40.133 -26.48,-26.628 -39.89,-64.308 -39.89,-112.027 l 0,-176.7694 c 0,-2.5313 2.05,-4.5821 4.58,-4.5821 l 71.16,0"/><path id="path104" style="fill:#a29d91;fill-opacity:1;fill-rule:nonzero;stroke:none" d="m 5192.38,18.0898 0,127.2892 126.01,0 c 22.37,0 40.5,18.141 40.5,40.512 l 0,18.531 -166.51,0 0,25.066 c 0,30.723 13.2,42.25 46.47,42.25 l 98.26,0 c 26.9,0 48.72,21.801 48.72,48.711 l 0,20.781 -155.18,0 c -75.51,0 -115.64,-42.242 -115.64,-106.082 l 0,-217.0582 c 0,-2.5312 2.05,-4.5703 4.57,-4.5703 l 68.23,0 c 2.52,0 4.57,2.0391 4.57,4.5703"/><path id="path106" style="fill:#a29d91;fill-opacity:1;fill-rule:nonzero;stroke:none" d="m 4935.1,77.5781 c -52.02,0 -94.32,42.3009 -94.32,94.3129 0,52.007 42.3,94.32 94.32,94.32 27.58,0 52.45,-11.91 69.71,-30.859 l 63.85,44.449 c -31.51,39.008 -79.71,63.98 -133.76,63.98 -94.92,0 -171.88,-76.949 -171.88,-171.89 0,-94.9301 76.96,-171.8792812 171.88,-171.8792812 54.71,0 103.4,25.5780812 134.88,65.3984812 L 5006,109.809 c -17.29,-19.7309 -42.66,-32.2309 -70.9,-32.2309"/><path id="path108" style="fill:#a29d91;fill-opacity:1;fill-rule:nonzero;stroke:none" d="m 4045.93,49.3594 c 0,-19.8008 -16.05,-35.8399 -35.84,-35.8399 -19.8,0 -35.84,16.0391 -35.84,35.8399 0,19.789 16.04,35.832 35.84,35.832 19.79,0 35.84,-16.043 35.84,-35.832"/></g></g></g></g></svg>