<svg xmlns="http://www.w3.org/2000/svg" width="48" height="48" viewBox="0 0 48 48">
  <g fill="none" fill-rule="evenodd" transform="translate(-480 -384)">
    <g stroke-width="2" transform="translate(481 385)" stroke-linecap="round" stroke-linejoin="round">
      <g stroke="currentColor" transform="translate(23)">
        <path d="M11.75 18.1574626C10.3628261 18.1574626 9.03532609 17.9542724 7.80858696 17.5836922L3.29978261 18.6248 3.875 15.561466C1.79228261 13.9146578.5 11.6176411.5 9.07873128.5 4.06477141 5.53608696 0 11.75 0 17.963913 0 23 4.06477141 23 9.07873128 23 14.0917236 17.963913 18.1574626 11.75 18.1574626zM7.5 6.5L14 6.5M7.5 9.5L17 9.5M7.5 12.5L17 12.5"/>
      </g>
      <path stroke="#95999D" d="M31.8237975,3.05417722 C30.6349781,3.58054227 29.3741052,3.92610472 28.083038,4.07939241 C29.4258228,3.27250633 30.4587342,1.99736709 30.9448101,0.475746835 C29.6663846,1.23437814 28.2676704,1.76886229 26.8091139,2.05610127 C25.5781289,0.741495039 23.8566692,-0.00312612515 22.0556962,-2.1226339e-14 C18.4603544,-2.19458749e-14 15.5422785,2.91524051 15.5422785,6.51139241 C15.5422785,7.02237975 15.5997975,7.52040506 15.7124051,7.99594937 C10.2987342,7.72394937 5.50075949,5.13255696 2.28779747,1.19210127 C1.72678481,2.15270886 1.40678481,3.27250633 1.40678481,4.46622785 C1.40678481,6.7244557 2.5561519,8.71797468 4.30339241,9.88597468 C3.26891365,9.85426874 2.25712486,9.57492946 1.35291139,9.07139241 L1.35291139,9.15443038 C1.35291139,12.3086582 3.59817722,14.9407595 6.57620253,15.5402532 C5.61708574,15.7999476 4.61145712,15.8380396 3.63544304,15.6516456 C4.46460759,18.2391899 6.87068354,20.121519 9.71949367,20.1762025 C7.49083544,21.92 4.68293671,22.963038 1.63078481,22.963038 C1.11179513,22.9624441 0.593268776,22.9320142 0.0777721519,22.8718987 C2.95979747,24.7189873 6.384,25.798481 10.0617722,25.798481 C22.041519,25.798481 28.5913924,15.8736203 28.5913924,7.26683544 C28.5913924,6.98531646 28.5913924,6.70379747 28.5711392,6.4243038 C29.8456332,5.50220374 30.9462626,4.36111501 31.8217722,3.05417722 L31.8237975,3.05417722 Z" transform="translate(0 20)"/>
    </g>
  </g>
</svg>
