<svg xmlns="http://www.w3.org/2000/svg" width="24" height="24" viewBox="0 0 24 24"><path fill-rule="evenodd" d="M0 1.99C0 .89.898 0 1.99 0h16.02C19.11 0 20 .898 20 1.99v16.02c0 1.1-.898 1.99-1.99 1.99H1.99C.89 20 0 19.102 0 18.01V1.99zM4 5c0-.552.444-1 1-1h3c.552 0 1 .444 1 1v3c0 .552-.444 1-1 1H5c-.552 0-1-.444-1-1V5zm0 7c0-.552.444-1 1-1h3c.552 0 1 .444 1 1v3c0 .552-.444 1-1 1H5c-.552 0-1-.444-1-1v-3zm7-7c0-.552.444-1 1-1h3c.552 0 1 .444 1 1v3c0 .552-.444 1-1 1h-3c-.552 0-1-.444-1-1V5zm0 7c0-.552.444-1 1-1h3c.552 0 1 .444 1 1v3c0 .552-.444 1-1 1h-3c-.552 0-1-.444-1-1v-3zM6 23c0-.552.445-1 1-1h13.006c1.1 0 1.994-.895 1.994-1.994V7c0-.552.444-1 1-1 .552 0 1 .445 1 .993v13.012C24 22.21 22.208 24 20.005 24H6.993C6.445 24 6 23.556 6 23z"/></svg>
