<svg xmlns="http://www.w3.org/2000/svg" width="16" height="16" viewBox="0 0 16 16">
  <g fill="none" fill-rule="evenodd" transform="translate(-416 -224)">
    <path fill="#297EF2" d="M420,225 C420,224.447715 420.453036,224 420.99703,224 L427.00297,224 C427.553614,224 428,224.443865 428,225 L428,225 C428,225.552285 427.546814,226 427.002869,226 L427,226 L427,230 L429,232 L429,234 L425,234 L425,240 L423,240 L423,234 L419,234 L419,232 L421,230 L421,226 L421,226 C420.447715,226 420,225.556135 420,225 L420,225 Z"/>
  </g>
</svg>
