<svg xmlns="http://www.w3.org/2000/svg" width="48" height="48" viewBox="0 0 48 48">
  <g fill="none" fill-rule="evenodd" transform="translate(-96 -96)">
    <g stroke-width="2" transform="translate(97 97)" stroke-linecap="round" stroke-linejoin="round">
      <g stroke="#95999D" transform="translate(0 16)">
        <path d="M0.0254,30 L46.0254,30"/>
        <polygon points="8.026 20 2.026 20 2.026 30 8.026 30"/>
        <polygon points="20.026 10 14.026 10 14.026 30 20.026 30"/>
        <polygon points="32.026 14 26.026 14 26.026 30 32.026 30"/>
        <polygon points="44.026 0 38.026 0 38.026 30 44.026 30"/>
      </g>
      <g stroke="currentColor" transform="translate(3)">
        <path d="M4.0254 22C4.0254 23.104 3.1314 24 2.0254 24 .9214 24 .0254 23.104.0254 22 .0254 20.894.9214 20 2.0254 20 3.1314 20 4.0254 20.894 4.0254 22L4.0254 22zM16.0254 12C16.0254 13.104 15.1314 14 14.0254 14 12.9214 14 12.0254 13.104 12.0254 12 12.0254 10.894 12.9214 10 14.0254 10 15.1314 10 16.0254 10.894 16.0254 12L16.0254 12zM28.0254 16C28.0254 17.104 27.1314 18 26.0254 18 24.9214 18 24.0254 17.104 24.0254 16 24.0254 14.894 24.9214 14 26.0254 14 27.1314 14 28.0254 14.894 28.0254 16L28.0254 16zM40.0254 2C40.0254 3.104 39.1314 4 38.0254 4 36.9214 4 36.0254 3.104 36.0254 2 36.0254.894 36.9214 0 38.0254 0 39.1314 0 40.0254.894 40.0254 2L40.0254 2zM3.5626 20.7208L12.4906 13.2788M15.916 12.6298L24.186 15.3858M36.7246 3.5176L27.3266 14.4796"/>
      </g>
    </g>
  </g>
</svg>
