<svg xmlns="http://www.w3.org/2000/svg" width="48" height="48" viewBox="0 0 48 48">
  <g fill="none" fill-rule="evenodd" transform="translate(-384 -96)">
    <g stroke-width="2" transform="translate(385 101)" stroke-linecap="round" stroke-linejoin="round">
      <g stroke="#95999D">
        <path d="M28.0254 5C28.0254 5.554 27.5774 6 27.0254 6 26.4734 6 26.0254 5.554 26.0254 5 26.0254 4.45 26.4734 4 27.0254 4 27.5774 4 28.0254 4.45 28.0254 5L28.0254 5zM34.0254 5C34.0254 5.554 33.5774 6 33.0254 6 32.4734 6 32.0254 5.554 32.0254 5 32.0254 4.45 32.4734 4 33.0254 4 33.5774 4 34.0254 4.45 34.0254 5L34.0254 5zM40.0254 5C40.0254 5.554 39.5774 6 39.0254 6 38.4734 6 38.0254 5.554 38.0254 5 38.0254 4.45 38.4734 4 39.0254 4 39.5774 4 40.0254 4.45 40.0254 5L40.0254 5z"/>
        <polygon points="46.026 38 .026 38 .026 0 46.026 0"/>
        <path d="M0.0254,10 L46.0254,10"/>
      </g>
      <g stroke="currentColor" transform="translate(12 16)">
        <polyline points=".025 0 5.025 5 .025 10"/>
        <path d="M12.0254,6 L20.0254,6"/>
      </g>
    </g>
  </g>
</svg>
