<svg xmlns="http://www.w3.org/2000/svg" width="16" height="16" viewBox="0 0 16 16">
  <g fill="none" fill-rule="evenodd" transform="translate(-256 -32)">
    <path fill="#95999D" d="M256,32 L260,32 L260,36 L256,36 L256,32 Z M256,38 L260,38 L260,42 L256,42 L256,38 Z M256,44 L260,44 L260,48 L256,48 L256,44 Z M262,32 L266,32 L266,36 L262,36 L262,32 Z M262,38 L266,38 L266,42 L262,42 L262,38 Z M262,44 L266,44 L266,48 L262,48 L262,44 Z M268,32 L272,32 L272,36 L268,36 L268,32 Z M268,38 L272,38 L272,42 L268,42 L268,38 Z M268,44 L272,44 L272,48 L268,48 L268,44 Z"/>
  </g>
</svg>
