<svg xmlns="http://www.w3.org/2000/svg" width="24" height="24" viewBox="0 0 24 24"><path fill-rule="evenodd" d="M15.995 11.796c.003.067.005.135.005.204 0 2.21-1.79 4-4 4-.07 0-.137-.002-.204-.005l-5.228 2.01c-.515.198-.77-.06-.573-.573l2.01-5.228C8.002 12.137 8 12.07 8 12c0-2.21 1.79-4 4-4 .07 0 .137.002.204.005l5.228-2.01c.515-.198.77.06.573.573l-2.01 5.228zM12 24c6.627 0 12-5.373 12-12S18.627 0 12 0 0 5.373 0 12s5.373 12 12 12zm0-10c1.105 0 2-.895 2-2s-.895-2-2-2-2 .895-2 2 .895 2 2 2z"/></svg>
