<svg xmlns="http://www.w3.org/2000/svg" width="48" height="48" viewBox="0 0 48 48">
  <g fill="none" fill-rule="evenodd" transform="translate(-96 -384)">
    <g stroke-width="2" transform="translate(97 386)" stroke-linecap="round" stroke-linejoin="round">
      <g stroke="#95999D" transform="translate(0 26)">
        <polygon points="8.026 16.084 .026 16.084 .026 0 8.026 0"/>
        <path d="M8.0254,13 C29.0254,20 22.0254,20 46.0254,8 C43.8994,5.876 42.2214,5.374 40.0254,6 L31.1574,8.942"/>
        <path d="M8.0254,2 L14.0254,2 C18.7314,2 22.0254,5 23.0254,6 L29.0254,6 C32.2134,6 32.2134,10 29.0254,10 L18.0254,10"/>
      </g>
      <g stroke="currentColor" transform="translate(18)">
        <path d="M10.0254 6C10.0254 9.314 12.7114 12 16.0254 12 19.3394 12 22.0254 9.314 22.0254 6 22.0254 2.686 19.3394 0 16.0254 0 12.7114 0 10.0254 2.686 10.0254 6L10.0254 6zM.0254 20C.0254 23.314 2.7114 26 6.0254 26 9.3394 26 12.0254 23.314 12.0254 20 12.0254 16.686 9.3394 14 6.0254 14 2.7114 14 .0254 16.686.0254 20L.0254 20zM6.0254 18L6.0254 22M16.0254 4L16.0254 8"/>
      </g>
    </g>
  </g>
</svg>
