<svg width="284" height="96" viewBox="0 0 284 96" xmlns="http://www.w3.org/2000/svg"><title>aprr</title><g fill="#FFF" fill-rule="evenodd"><path d="M0 76h72v20H0V76zm0-24h72v20H0V52zm0-26h72v20H0V26zm12-8h66v64l18-18V0H30L12 18zM138.32 49.242l-.297-6.364c-.1-2.368-.197-4.71-.296-7.03-.1-2.32-.197-4.76-.296-7.326h-.295c-1.036 2.516-2.047 4.933-3.034 7.252-.986 2.32-2.046 4.687-3.18 7.104l-2.96 6.364h10.36zm.37 7.622h-14.357L118.635 69H107.46l25.457-48.248h12.136L149.863 69H139.28l-.59-12.136zm25.677-36.112h15.244c2.37 0 4.552.234 6.55.703 1.998.47 3.737 1.21 5.217 2.22 1.48 1.01 2.64 2.33 3.478 3.96.84 1.627 1.258 3.6 1.258 5.92 0 3.354-.592 6.215-1.776 8.583-1.184 2.368-2.787 4.304-4.81 5.81-2.023 1.504-4.378 2.6-7.067 3.292-2.69.69-5.562 1.036-8.62 1.036h-5.7L164.886 69h-10.212l9.694-48.248zM174.95 44.21c3.6 0 6.363-.765 8.287-2.294 1.924-1.53 2.886-3.823 2.886-6.882 0-2.17-.703-3.75-2.11-4.736-1.405-.987-3.415-1.48-6.03-1.48h-5.18l-2.96 15.392h5.106zm43.29-.962c3.6 0 6.314-.777 8.14-2.33 1.824-1.555 2.737-3.664 2.737-6.328 0-2.072-.69-3.552-2.072-4.44-1.38-.888-3.38-1.332-5.994-1.332h-5.105l-2.812 14.43h5.106zm4.365-22.496c2.368 0 4.563.222 6.586.666 2.024.444 3.763 1.16 5.218 2.146 1.455.987 2.602 2.27 3.44 3.848.84 1.58 1.26 3.478 1.26 5.698 0 2.27-.31 4.304-.926 6.105-.617 1.8-1.468 3.392-2.553 4.773-1.086 1.38-2.38 2.565-3.886 3.552-1.505.987-3.145 1.776-4.92 2.368L234.296 69H223.64l-6.215-17.686h-5.92L208.027 69h-10.212l9.694-48.248h15.095zm39.738 22.496c3.6 0 6.315-.777 8.14-2.33 1.825-1.555 2.738-3.664 2.738-6.328 0-2.072-.69-3.552-2.07-4.44-1.382-.888-3.38-1.332-5.995-1.332h-5.106l-2.813 14.43h5.106zm4.366-22.496c2.367 0 4.562.222 6.585.666 2.023.444 3.762 1.16 5.217 2.146 1.455.987 2.602 2.27 3.44 3.848.84 1.58 1.26 3.478 1.26 5.698 0 2.27-.31 4.304-.926 6.105-.617 1.8-1.468 3.392-2.553 4.773-1.085 1.38-2.38 2.565-3.885 3.552-1.505.987-3.145 1.776-4.92 2.368L278.4 69h-10.655l-6.216-17.686h-5.92L252.13 69h-10.21l9.693-48.248h15.096z"/></g></svg>