+<svg width="150" height="47" viewBox="0 0 150 47" xmlns="http://www.w3.org/2000/svg"><title>bouygues</title><g fill="#FFF" fill-rule="evenodd"><path d="M9.152 16.048c-1.12-1.29-2.737-1.63-4.066-1.63-1.223 0-2.572.538-3 1.003V9.568c0-.547-.443-.99-.99-.99-.546 0-.99.443-.99.99L.104 25.55c0 .47.294.873.71 1.034 1.625.673 3.442.77 4.272.77 1.29 0 2.945-.33 4.066-1.62 1.12-1.287 1.28-3.09 1.28-4.844 0-1.756-.16-3.556-1.28-4.842zm-1.447 8.375c-.634.792-1.618 1.073-2.62 1.073-.78 0-1.846-.166-2.73-.48-.14-.046-.243-.18-.243-.335v-6.218c0-.703.297-1.177.63-1.49.41-.384 1.322-.686 2.344-.686 1.022 0 1.985.28 2.62 1.073.64.798.715 2.105.715 3.53 0 1.426-.075 2.733-.715 3.533zM21.202 16.07c-1.122-1.308-2.742-1.65-4.067-1.65-1.325-.003-2.945.342-4.066 1.65-1.12 1.304-1.282 3.023-1.282 4.7 0 1.68.16 3.63 1.28 4.935 1.122 1.308 2.742 1.653 4.067 1.65 1.325 0 2.945-.342 4.067-1.65 1.12-1.304 1.28-3.154 1.28-4.934 0-1.78-.16-3.396-1.28-4.7zm-1.448 8.306c-.634.803-1.597 1.117-2.62 1.117-1.02 0-1.984-.314-2.618-1.117-.64-.81-.716-2.16-.716-3.605 0-1.446.077-2.56.716-3.37.634-.805 1.597-1.116 2.62-1.116 1.02 0 1.984.31 2.618 1.115.64.81.716 1.926.716 3.37 0 1.446-.077 2.795-.716 3.606zM33.545 15.687c0-.54-.437-.977-.977-.977s-.976.437-.976.977l-.002 9.175c0 .166-.12.318-.247.37-.126.05-.667.262-2.51.262-.925 0-1.905-.37-2.504-1.16-.606-.8-.68-2.194-.68-3.62v-5.027c0-.54-.436-.977-.975-.977-.54 0-.977.437-.977.977v5.024c0 1.757.11 3.643 1.25 5.023.998 1.206 2.666 1.63 3.885 1.63.773 0 2.465.053 3.99-.515.42-.14.72-.685.72-1.152l.002-10.01zM40.47 24.002c-.054.115-.17.19-.296.19-.153-.003-.263-.162-.305-.222-.31-.444-2.737-7.17-3.263-8.63-.184-.496-.742-.752-1.236-.57-.492.183-.75.738-.57 1.233l3.154 8.364c.37.99.903 1.55 1.685 1.83l-1.918 5.078c-.19.5.062 1.06.563 1.25.5.19 1.06-.062 1.25-.562l6.04-15.953c.182-.493-.07-1.05-.557-1.236-.493-.19-1.056.063-1.245.56L40.47 24zM56.05 16.197c0-.426-.252-.794-.616-.962-1.65-.708-3.52-.812-4.367-.812-1.288 0-2.944.334-4.066 1.625-1.118 1.286-1.28 3.254-1.28 5.01 0 1.756.162 3.374 1.28 4.66 1.123 1.29 2.738 1.64 4.067 1.64 1.223 0 2.573-.55 3-1.013v1.678c0 .9-.215 1.61-.648 2.11-.43.495-1.037.745-1.807.745-.51 0-1.035-.066-1.565-.196-.526-.13-1.42-.556-1.736-.708-.316-.152-.902-.035-1.168.393-.266.428-.09 1.068.33 1.298.418.23.95.545 2.066.833.712.184 1.41.27 2.073.27.728 0 1.378-.117 1.932-.362s1.022-.582 1.39-1.003c.365-.42.646-.93.834-1.515.185-.58.28-1.21.28-1.866V16.197zm-2.01 7.107c0 .703-.295 1.177-.627 1.49-.41.384-1.324.7-2.345.7-1.022 0-1.985-.294-2.62-1.087-.64-.8-.715-1.924-.715-3.35 0-1.425.076-2.9.716-3.698.633-.794 1.617-1.078 2.618-1.078.775 0 1.832.168 2.713.48.153.052.262.196.262.366v6.176zM67.412 15.687c0-.54-.437-.977-.976-.977-.54 0-.977.437-.977.977l-.002 9.175c0 .166-.122.318-.248.37-.125.05-.667.262-2.51.262-.924 0-1.904-.37-2.504-1.16-.605-.8-.677-2.194-.677-3.62l-.002-5.027c0-.54-.437-.977-.976-.977-.54 0-.976.437-.976.977v5.024c0 1.757.11 3.643 1.25 5.023.997 1.206 2.666 1.63 3.884 1.63.774 0 2.466.053 3.99-.515.42-.14.72-.685.72-1.152l.002-10.01zM78.364 16.048c-1.404-1.647-3.66-1.632-4.122-1.63-.427.003-2.66.014-4.01 1.63-.613.73-.855 1.533-1.023 2.24-.212.89-.24 1.712-.24 2.592 0 1.655.142 3.56 1.262 4.847 1.12 1.29 2.74 1.63 4.066 1.63 1.464 0 3.058-.123 4.23-.932.228-.14.385-.37.463-.592.04-.1.06-.21.06-.324 0-.504-.407-.91-.91-.91-.117 0-.228.024-.332.06-.06.022-.133.067-.297.154-.865.484-1.692.71-3.212.674-1.022 0-1.985-.28-2.62-1.073-.59-.74-.68-1.917-.693-3.22h7.63c.572 0 1.035-.463 1.035-1.034 0-2.783-1.286-4.112-1.286-4.112zm-7.33 3.37c-.004-.208-.03-1.663 1.16-2.553.73-.544 1.524-.58 2.01-.58.484 0 1.4-.02 2.207.593 1.193.904 1.204 2.338 1.2 2.54h-6.575zM87.49 17.03c.07.016.14.026.216.026.485 0 .878-.395.878-.88v-.034c0-.283-.18-.7-.524-.915-.85-.588-2.147-.81-3.276-.81-1.13 0-2.325.287-3.068.85-.75.57-1.132 1.375-1.132 2.39 0 1.863 1.377 3.217 4.093 3.777 1.2.252 2.507.87 2.507 1.938 0 .54-.257 1.126-.694 1.442-.7.508-1.71.61-2.207.613-.656.006-1.686-.137-2.553-.623-.037-.026-.078-.048-.12-.07-.134-.074-.287-.116-.45-.116-.52 0-.94.422-.94.944 0 .222.075.426.203.587.077.104.174.2.29.27 1.173.813 2.843.936 3.602.936.717 0 1.413-.15 2.18-.387.552-.172 1.03-.42 1.423-.744.393-.323.705-.718.927-1.174.222-.457.38-1.135.38-1.68 0-2.498-2.216-3.485-4.152-3.863-1.644-.342-2.477-1.048-2.477-1.852 0-.233.057-.436.172-.604.118-.172.268-.31.45-.41.185-.102.403-.178.646-.225.25-.048.525-.075.92-.073.557.002 1.742.254 2.253.507.144.07.297.136.453.175z"/><g transform="translate(93.968)"><path d="M32.952 45.508c3.963 2.737 11.804-1.734 17.512-10.002 5.71-8.268 7.124-17.18 3.16-19.915-3.963-2.736-11.606 1.507-17.315 9.775-5.71 8.268-7.32 17.407-3.358 20.143zM23.067 45.508c-3.963 2.737-11.804-1.734-17.512-10.002-5.71-8.268-7.124-17.18-3.162-19.915C6.357 12.855 14 17.098 19.71 25.366c5.708 8.268 7.32 17.407 3.357 20.143z"/><ellipse cx="28.006" cy="8.719" rx="18.21" ry="8.708"/></g><g><path d="M58.864 32.587h-.233c-.084 0-.152-.06-.152-.138v-2.353h-.76c-.084 0-.153-.062-.153-.138v-.22c0-.076.07-.137.154-.137h2.06c.085 0 .154.06.154.137v.22c0 .075-.07.137-.154.137h-.762v2.352c0 .076-.07.137-.154.137zM64.364 32.587h-1.858c-.085 0-.153-.06-.153-.138v-2.71c0-.076.07-.137.153-.137h1.858c.086 0 .155.06.155.137v.22c0 .075-.07.137-.156.137h-1.47v.744h1.23c.085 0 .153.062.153.136v.21c0 .075-.068.135-.154.135h-1.23v.774h1.47c.087 0 .156.06.156.136v.22c0 .076-.07.137-.156.137zM69.193 32.587h-1.858c-.086 0-.154-.06-.154-.138v-2.71c0-.076.07-.137.155-.137h.232c.086 0 .155.06.155.137v2.354h1.47c.086 0 .156.06.156.136v.22c0 .076-.07.137-.155.137zM73.617 32.587H71.76c-.085 0-.154-.06-.154-.138v-2.71c0-.076.068-.137.154-.137h1.857c.086 0 .155.06.155.137v.22c0 .075-.07.137-.155.137h-1.47v.744h1.23c.085 0 .153.062.153.136v.21c0 .075-.068.135-.154.135h-1.23v.774h1.47c.087 0 .156.06.156.136v.22c0 .076-.07.137-.155.137zM78.523 31.683l-.24-.038c-.072-.01-.143.025-.17.086-.04.125-.1.202-.184.275-.126.11-.297.174-.48.174-.186 0-.356-.064-.482-.175-.176-.154-.246-.32-.246-.907 0-.586.07-.757.246-.912.126-.11.296-.173.48-.173.185 0 .356.062.48.173.085.073.145.15.185.275.026.062.098.097.17.086l.24-.038c.046-.007.084-.032.11-.068.024-.035.028-.08.013-.12-.056-.17-.15-.31-.306-.447-.236-.21-.563-.315-.89-.315-.33 0-.657.105-.893.315-.336.297-.386.605-.386 1.22s.05.93.387 1.225c.236.21.564.314.892.314.327 0 .654-.105.89-.314.156-.137.25-.276.306-.447.015-.038.01-.083-.014-.12-.025-.034-.063-.06-.11-.067zM83.1 29.87c-.235-.21-.563-.314-.89-.314-.328 0-.656.105-.892.314-.337.298-.387.606-.387 1.22 0 .616.05.924.388 1.22.237.21.553.325.89.325.34 0 .655-.114.893-.324.337-.296.387-.604.387-1.22 0-.614-.05-.922-.386-1.22zm-.41 2.128c-.125.112-.303.167-.48.167-.178 0-.356-.055-.48-.167-.177-.156-.248-.32-.248-.907 0-.586.07-.752.247-.906.125-.11.295-.174.48-.174.183 0 .355.063.48.174.176.154.246.32.246.907s-.07.752-.247.908zM88.432 32.587H88.2c-.085 0-.155-.06-.155-.138v-1.466l-.633 1.517c-.025.05-.082.08-.142.08h-.23c-.063 0-.117-.03-.142-.08l-.652-1.527v1.476c0 .076-.07.137-.153.137h-.233c-.085 0-.154-.06-.154-.138v-2.71c0-.076.07-.137.154-.137h.233c.06 0 .114.03.14.08l.924 2.188.902-2.186c.022-.05.08-.08.14-.08h.232c.085 0 .154.06.154.136v2.71c0 .076-.07.137-.154.137z"/></g></g></svg>
