<svg width="256" height="46" viewBox="0 0 256 46" xmlns="http://www.w3.org/2000/svg"><title>electrabel</title><g fill="#FFF" fill-rule="evenodd"><path d="M.102 3.307H24.69V9.88H8.476v10.293H23.33v6.532H8.477V38.41H24.81v6.55H.103V3.308M30.274.207h8.01V44.96h-8.01zM98.67 44.61c-1.96.686-4.81 1.074-8.035 1.093-10.086.05-15.177-6.872-15.177-16.255 0-8.878 5.264-15.886 14.866-15.944 3.49-.002 5.343.267 7.625.794l-.695 6.027c-2.035-.634-3.705-.96-6.395-.85-4.852.207-6.975 4.34-7.022 9.973-.05 5.675 2.673 9.836 8.294 10.057 2.757.087 5.582-.803 7.244-1.766l-.705 6.87M123.433 44.96c-1.415.356-3.906.743-5.912.743-6.268 0-9.722-3.873-9.722-9.988V20.57h-6.08l.64-6.328h5.44V5.556l7.986-.033v8.72h7.125l-.665 6.327h-6.46v13.838c0 2.642.73 5.076 3.8 5.076 1.416 0 3.68-.53 4.515-1.06l-.667 6.537M188.213 29.54c0-4.326 2.033-9.812 7.153-9.812 5.204 0 6.63 5.673 6.63 9.812 0 4.228-1.48 9.944-6.76 9.944-5.302 0-7.023-5.588-7.023-9.944zm-8.056 15.42h7.74v-3.744h.128c2.342 3.28 6.028 4.487 9.453 4.487 9.438 0 12.862-7.768 12.862-16.163 0-8.5-3.424-16.036-12.862-16.036-4.196 0-6.995 1.75-9.23 4.674h-.113V.205h-7.978V44.96zM247.318.207h7.967V44.96h-7.967zM50.47 26.607c.335-4.143 2.626-7.225 7.085-7.225 4.493 0 6.244 3.342 6.505 7.225H50.47zm19.99 9.617c-3.233 2.32-7.337 3.628-11.22 3.628-4.96 0-8.435-2.802-8.77-7.766h21.246c0-10.737-3.24-18.582-14.622-18.582-9.58 0-14.278 7.367-14.278 16.276 0 10.072 5.935 15.684 16.053 15.923 4.508.095 8.182-1.236 10.85-2.684l.74-6.796zM221.64 26.607c.34-4.143 2.607-7.225 7.095-7.225 4.46 0 6.28 3.342 6.504 7.225h-13.6zm20.008 9.617c-3.277 2.32-7.357 3.628-11.232 3.628-4.938 0-8.436-2.802-8.777-7.766h21.234c0-10.737-3.227-18.582-14.634-18.582-9.544 0-14.268 7.367-14.268 16.276 0 10.072 5.924 15.684 16.058 15.923 4.53.095 8.17-1.236 10.826-2.684l.792-6.796zM154.903 36.095c0-4.724 5.304-5.32 8.863-5.32h3.465c0 2.392-.343 4.6-1.664 6.32-1.252 1.678-3.163 2.757-5.617 2.757-2.868 0-5.047-1.134-5.047-3.757zm-3.868-14.433c2.718-1.185 5.86-2.152 9.244-2.32 4.378-.227 6.95 1.7 6.95 6.65h-4.407c-3.36 0-7.29.316-10.315 1.79-3.066 1.48-5.27 4.192-5.27 8.782 0 5.85 5.305 9.14 10.75 9.14 3.642 0 7.655-1.92 9.495-5.323h.116c.06.96.06 2.992.36 4.58h7.007c-.14-2.367-.252-4.517-.31-6.828-.078-2.29-.147-4.627-.147-7.726v-3.924c0-9.07-4.07-13.055-12.895-13.09-3.403-.002-6.59.452-9.77 1.357l-.81 6.912zM128.597 14.242h7.113v6.967h.136c.935-4.25 3.904-6.888 7.777-7.565 1.058-.193 2.726 0 3.798.428 0 0-.765 6.406-.877 7.426-1.542-.59-4.575-.686-5.943.062-3.502 1.918-4 7.7-4 12.146V44.96h-8.003V14.243"/></g></svg>