<svg xmlns="http://www.w3.org/2000/svg" width="36" height="31" viewBox="0 0 36 31">
  <g fill="none" fill-rule="evenodd">
    <polygon fill="#E30613" points="1.5 30.5 18 .5 34.5 30.5"/>
    <path fill="#FFFFFF" d="M0,24.5 L0,16.5 L3.5,16.5 L6,21.5 L8.5,16.5 L12,16.5 L12,24.5 L9,24.5 L9,18.5 L6,24.5 L4.5,24.5 L1.5,18.5 L1.5,24.5 L0,24.5 Z M12.5,24.5 L16,16.5 L19,16.5 L22.5,24.5 L19.5,24.5 L19,23 L15,23 L14.3499756,24.5 L12.5,24.5 Z M15.5,21.5 L18.5,21.5 L17,18.5 L15.5,21.5 Z M23.5,16.5 L26,16.5 L26,24.5 L23.5,24.5 L23.5,16.5 Z M28,16.5 L36,16.5 L36,18 L30.5,18 L30.5,20.5 L36,20.5 L36,22 L30.5,22 L30.5,24.5 L28,24.5 L28,16.5 Z"/>
  </g>
</svg>
