<svg xmlns="http://www.w3.org/2000/svg" width="168" height="48" viewBox="0 0 168 48">
  <g fill="#FFFFFF" fill-rule="evenodd" transform="translate(0 1)">
    <path d="M34,47 C34.743382,47 35.2268777,46.2176875 34.8944272,45.5527864 L24.8944272,25.5527864 C24.5259029,24.8157379 23.4740971,24.8157379 23.1055728,25.5527864 L13.1055728,45.5527864 C12.7731223,46.2176875 13.256618,47 14,47 L34,47 Z M14.8944272,46.4472136 L24.8944272,26.4472136 L23.1055728,26.4472136 L33.1055728,46.4472136 L34,45 L14,45 L14.8944272,46.4472136 Z"/>
    <path d="M47.9992,23.0004 C47.9992,9.74411525 37.2554847,-0.9996 23.9992,-0.9996 C10.7442379,-0.9996 -0.0008,9.74479254 -0.0008,23.0004 C-0.0008,29.2611522 2.41545609,35.1492358 6.66470246,39.5897735 C7.0465375,39.9887979 7.67954912,40.0027326 8.07857349,39.6208975 C8.47759786,39.2390625 8.49153258,38.6060509 8.10969754,38.2070265 C4.21289792,34.1348019 1.9992,28.7403247 1.9992,23.0004 C1.9992,10.8493889 11.8487805,1.0004 23.9992,1.0004 C36.1509153,1.0004 45.9992,10.8486847 45.9992,23.0004 C45.9992,28.7414766 43.7865853,34.13576 39.8907025,38.2070265 C39.5088674,38.6060509 39.5228021,39.2390625 39.9218265,39.6208975 C40.3208509,40.0027326 40.9538625,39.9887979 41.3356975,39.5897735 C45.5841029,35.1501147 47.9992,29.2621857 47.9992,23.0004 Z"/>
    <path d="M10.0004,23.0006 C10.0004,15.2681733 16.2673961,9.0006 24.0004,9.0006 C31.7308266,9.0006 38.0004,15.269596 38.0004,23.0006 C38.0004,25.9552313 37.0713185,28.7737014 35.3717393,31.1438628 C35.0499025,31.5926829 35.1528427,32.2174238 35.6016628,32.5392607 C36.0504829,32.8610975 36.6752238,32.7581573 36.9970607,32.3093372 C38.9373491,29.6034927 40.0004,26.378612 40.0004,23.0006 C40.0004,14.1649853 32.8353549,7.0006 24.0004,7.0006 C15.1627854,7.0006 8.0004,14.1636451 8.0004,23.0006 C8.0004,26.3808511 9.06293761,29.6058424 11.0040522,32.3097733 C11.3261299,32.7584206 11.950926,32.8610255 12.3995733,32.5389478 C12.8482206,32.2168701 12.9508255,31.592074 12.6287478,31.1434267 C10.9289004,28.7755759 10.0004,25.9574115 10.0004,23.0006 Z"/>
    <path d="M18.0057772,23.1126207 C18.0008919,23.0431408 17.9996,23.0189296 17.9996,23.0006 C17.9996,19.6792652 20.7090788,17.0006 23.9996,17.0006 C27.2929358,17.0006 29.9996,19.6801763 29.9996,23.0006 C29.9996,23.0189296 29.9983081,23.0431408 29.9934228,23.1126207 C29.988663,23.1799266 29.9862136,23.2194228 29.9843388,23.2681669 C29.9631128,23.8200436 30.3932902,24.2846351 30.9451669,24.3058612 C31.4970436,24.3270872 31.9616351,23.8969098 31.9828612,23.3450331 C31.9836639,23.324163 31.984617,23.3087934 31.9884972,23.2528993 C31.9967312,23.135793 31.9996,23.0820304 31.9996,23.0006 C31.9996,18.5710787 28.3930273,15.0006 23.9996,15.0006 C19.6095976,15.0006 15.9996,18.5695427 15.9996,23.0006 C15.9996,23.0820304 16.0024688,23.135793 16.0107028,23.2528993 C16.014583,23.3087934 16.0155361,23.324163 16.0163388,23.3450331 C16.0375649,23.8969098 16.5021564,24.3270872 17.0540331,24.3058612 C17.6059098,24.2846351 18.0360872,23.8200436 18.0148612,23.2681669 C18.0129864,23.2194228 18.010537,23.1799266 18.0057772,23.1126207 Z"/>
    <path d="M25,22 C25,21.4477153 24.5522847,21 24,21 C23.4477153,21 23,21.4477153 23,22 L23,26 C23,26.5522847 23.4477153,27 24,27 C24.5522847,27 25,26.5522847 25,26 L25,22 Z"/>
    <polygon points="29.557 36.831 28.445 35.169 13.485 45.169 14.597 46.831"/>
    <polygon points="19.555 35.168 18.445 36.832 33.445 46.832 34.555 45.168"/>
    <polygon points="27.459 34 27.459 32 20.541 32 20.541 34"/>
    <path d="M66.38,13.008 L72.812,13.008 C73.9640058,13.008 75.0199952,13.1146656 75.98,13.328 C76.9400048,13.5413344 77.7559966,13.8879976 78.428,14.368 C79.1000034,14.8480024 79.6226648,15.4826627 79.996,16.272 C80.3693352,17.0613373 80.556,18.0319942 80.556,19.184 C80.556,20.2933389 80.3693352,21.2533293 79.996,22.064 C79.6226648,22.8746707 79.0946701,23.546664 78.412,24.08 C77.7293299,24.613336 76.9133381,25.013332 75.964,25.28 C75.0146619,25.546668 73.9640058,25.68 72.812,25.68 L69.036,25.68 L69.036,34 L66.38,34 L66.38,13.008 Z M72.492,23.504 C74.3266758,23.504 75.6866622,23.1573368 76.572,22.464 C77.4573378,21.7706632 77.9,20.6773408 77.9,19.184 C77.9,17.6693258 77.4520045,16.6186696 76.556,16.032 C75.6599955,15.4453304 74.3053424,15.152 72.492,15.152 L69.036,15.152 L69.036,23.504 L72.492,23.504 Z M82.136,26.256 C82.136,24.9546602 82.3333314,23.7973384 82.728,22.784 C83.1226686,21.7706616 83.6506634,20.9120035 84.312,20.208 C84.9733366,19.5039965 85.7359957,18.9706685 86.6,18.608 C87.4640043,18.2453315 88.3759952,18.064 89.336,18.064 C90.2960048,18.064 91.2079957,18.2453315 92.072,18.608 C92.9360043,18.9706685 93.6986634,19.5039965 94.36,20.208 C95.0213366,20.9120035 95.5493314,21.7706616 95.944,22.784 C96.3386686,23.7973384 96.536,24.9546602 96.536,26.256 C96.536,27.5360064 96.3386686,28.6826616 95.944,29.696 C95.5493314,30.7093384 95.0213366,31.5626632 94.36,32.256 C93.6986634,32.9493368 92.9360043,33.4773315 92.072,33.84 C91.2079957,34.2026685 90.2960048,34.384 89.336,34.384 C88.3759952,34.384 87.4640043,34.2026685 86.6,33.84 C85.7359957,33.4773315 84.9733366,32.9493368 84.312,32.256 C83.6506634,31.5626632 83.1226686,30.7093384 82.728,29.696 C82.3333314,28.6826616 82.136,27.5360064 82.136,26.256 L82.136,26.256 Z M84.856,26.256 C84.856,27.1520045 84.9626656,27.962663 85.176,28.688 C85.3893344,29.413337 85.6933314,30.0373307 86.088,30.56 C86.4826686,31.0826693 86.9573306,31.4879986 87.512,31.776 C88.0666694,32.0640014 88.6746634,32.208 89.336,32.208 C89.9973366,32.208 90.6053306,32.0640014 91.16,31.776 C91.7146694,31.4879986 92.1893314,31.0826693 92.584,30.56 C92.9786686,30.0373307 93.2826656,29.413337 93.496,28.688 C93.7093344,27.962663 93.816,27.1520045 93.816,26.256 C93.816,25.3599955 93.7093344,24.5440037 93.496,23.808 C93.2826656,23.0719963 92.9786686,22.437336 92.584,21.904 C92.1893314,21.370664 91.7146694,20.9600014 91.16,20.672 C90.6053306,20.3839986 89.9973366,20.24 89.336,20.24 C88.6746634,20.24 88.0666694,20.3839986 87.512,20.672 C86.9573306,20.9600014 86.4826686,21.370664 86.088,21.904 C85.6933314,22.437336 85.3893344,23.0719963 85.176,23.808 C84.9626656,24.5440037 84.856,25.3599955 84.856,26.256 L84.856,26.256 Z M99.012,26.256 C99.012,24.997327 99.1986648,23.8613384 99.572,22.848 C99.9453352,21.8346616 100.44133,20.9760035 101.06,20.272 C101.67867,19.5679965 102.393329,19.0240019 103.204,18.64 C104.014671,18.2559981 104.867996,18.064 105.764,18.064 C106.660004,18.064 107.438663,18.2239984 108.1,18.544 C108.761337,18.8640016 109.43333,19.3013306 110.116,19.856 L109.988,17.2 L109.988,11.216 L112.644,11.216 L112.644,34 L110.468,34 L110.244,32.176 L110.148,32.176 C109.52933,32.7733363 108.820004,33.2906645 108.02,33.728 C107.219996,34.1653355 106.361338,34.384 105.444,34.384 C103.481324,34.384 101.918672,33.680007 100.756,32.272 C99.5933275,30.863993 99.012,28.8586797 99.012,26.256 L99.012,26.256 Z M101.732,26.224 C101.732,28.1013427 102.10533,29.5626614 102.852,30.608 C103.59867,31.6533386 104.65466,32.176 106.02,32.176 C106.745337,32.176 107.427997,32.0000018 108.068,31.648 C108.708003,31.2959982 109.347997,30.757337 109.988,30.032 L109.988,21.904 C109.326663,21.3066637 108.692003,20.8853346 108.084,20.64 C107.475997,20.3946654 106.852003,20.272 106.212,20.272 C105.59333,20.272 105.012003,20.4159986 104.468,20.704 C103.923997,20.9920014 103.449335,21.3973307 103.044,21.92 C102.638665,22.4426693 102.318668,23.066663 102.084,23.792 C101.849332,24.517337 101.732,25.3279955 101.732,26.224 L101.732,26.224 Z M116.24,26.256 C116.24,24.9546602 116.442665,23.7973384 116.848,22.784 C117.253335,21.7706616 117.79733,20.9120035 118.48,20.208 C119.16267,19.5039965 119.957329,18.9706685 120.864,18.608 C121.770671,18.2453315 122.725328,18.064 123.728,18.064 C124.752005,18.064 125.631996,18.2506648 126.368,18.624 C127.104004,18.9973352 127.738664,19.4293309 128.272,19.92 L126.96,21.616 C126.490664,21.2106646 126.005336,20.8800013 125.504,20.624 C125.002664,20.3679987 124.44267,20.24 123.824,20.24 C123.119996,20.24 122.469336,20.3839986 121.872,20.672 C121.274664,20.9600014 120.762669,21.370664 120.336,21.904 C119.909331,22.437336 119.573335,23.0719963 119.328,23.808 C119.082665,24.5440037 118.96,25.3599955 118.96,26.256 C118.96,27.1520045 119.077332,27.962663 119.312,28.688 C119.546668,29.413337 119.871998,30.0373307 120.288,30.56 C120.704002,31.0826693 121.210664,31.4879986 121.808,31.776 C122.405336,32.0640014 123.055996,32.208 123.76,32.208 C124.50667,32.208 125.183997,32.0533349 125.792,31.744 C126.400003,31.4346651 126.938664,31.0666688 127.408,30.64 L128.592,32.368 C127.887996,32.9866698 127.104004,33.4773315 126.24,33.84 C125.375996,34.2026685 124.474671,34.384 123.536,34.384 C122.511995,34.384 121.552004,34.2026685 120.656,33.84 C119.759996,33.4773315 118.98667,32.9493368 118.336,32.256 C117.68533,31.5626632 117.173335,30.7093384 116.8,29.696 C116.426665,28.6826616 116.24,27.5360064 116.24,26.256 L116.24,26.256 Z M130.396,29.968 C130.396,28.2613248 131.158659,26.9546712 132.684,26.048 C134.209341,25.1413288 136.635983,24.5066685 139.964,24.144 C139.964,23.6533309 139.916,23.1733357 139.82,22.704 C139.724,22.2346643 139.553335,21.8186685 139.308,21.456 C139.062665,21.0933315 138.737335,20.8000011 138.332,20.576 C137.926665,20.3519989 137.404003,20.24 136.764,20.24 C135.846662,20.24 134.998671,20.410665 134.22,20.752 C133.441329,21.093335 132.74267,21.4773312 132.124,21.904 L131.068,20.08 C131.793337,19.6106643 132.678661,19.1573355 133.724,18.72 C134.769339,18.2826645 135.921327,18.064 137.18,18.064 C139.078676,18.064 140.454662,18.6453275 141.308,19.808 C142.161338,20.9706725 142.588,22.522657 142.588,24.464 L142.588,34 L140.412,34 L140.188,32.144 L140.124,32.144 C139.37733,32.7626698 138.572004,33.2906645 137.708,33.728 C136.843996,34.1653355 135.932005,34.384 134.972,34.384 C133.649327,34.384 132.556004,34.0000038 131.692,33.232 C130.827996,32.4639962 130.396,31.376007 130.396,29.968 L130.396,29.968 Z M132.988,29.776 C132.988,30.6720045 133.249331,31.3119981 133.772,31.696 C134.294669,32.0800019 134.939996,32.272 135.708,32.272 C136.45467,32.272 137.163997,32.0960018 137.836,31.744 C138.508003,31.3919982 139.21733,30.8746701 139.964,30.192 L139.964,25.872 C138.66266,26.0426675 137.564004,26.2453322 136.668,26.48 C135.771996,26.7146678 135.052003,26.9919984 134.508,27.312 C133.963997,27.6320016 133.574668,27.9999979 133.34,28.416 C133.105332,28.8320021 132.988,29.2853309 132.988,29.776 L132.988,29.776 Z M146.632,30.48 C147.31467,31.0346694 148.01333,31.482665 148.728,31.824 C149.44267,32.165335 150.269329,32.336 151.208,32.336 C152.232005,32.336 152.999997,32.1013357 153.512,31.632 C154.024003,31.1626643 154.28,30.5866701 154.28,29.904 C154.28,29.4986646 154.173334,29.1466682 153.96,28.848 C153.746666,28.5493318 153.474668,28.2880011 153.144,28.064 C152.813332,27.8399989 152.434669,27.6426675 152.008,27.472 C151.581331,27.3013325 151.154669,27.1306675 150.728,26.96 C150.173331,26.767999 149.618669,26.5493346 149.064,26.304 C148.509331,26.0586654 148.013336,25.7600018 147.576,25.408 C147.138664,25.0559982 146.781335,24.6453357 146.504,24.176 C146.226665,23.7066643 146.088,23.1413366 146.088,22.48 C146.088,21.8613302 146.210665,21.2800027 146.456,20.736 C146.701335,20.1919973 147.053331,19.7226686 147.512,19.328 C147.970669,18.9333314 148.530663,18.6240011 149.192,18.4 C149.853337,18.1759989 150.599996,18.064 151.432,18.064 C152.413338,18.064 153.314663,18.234665 154.136,18.576 C154.957337,18.917335 155.666664,19.3333309 156.264,19.824 L155.016,21.488 C154.482664,21.0826646 153.928003,20.7520013 153.352,20.496 C152.775997,20.2399987 152.14667,20.112 151.464,20.112 C150.482662,20.112 149.762669,20.3359978 149.304,20.784 C148.845331,21.2320022 148.616,21.7546637 148.616,22.352 C148.616,22.7146685 148.711999,23.029332 148.904,23.296 C149.096001,23.562668 149.351998,23.7973323 149.672,24 C149.992002,24.2026677 150.359998,24.3839992 150.776,24.544 C151.192002,24.7040008 151.623998,24.8693325 152.072,25.04 C152.626669,25.2533344 153.186664,25.4773322 153.752,25.712 C154.317336,25.9466678 154.823998,26.2399982 155.272,26.592 C155.720002,26.9440018 156.087999,27.3759974 156.376,27.888 C156.664001,28.4000026 156.808,29.018663 156.808,29.744 C156.808,30.3840032 156.685335,30.9813306 156.44,31.536 C156.194665,32.0906694 155.832002,32.5813312 155.352,33.008 C154.871998,33.4346688 154.27467,33.7706654 153.56,34.016 C152.84533,34.2613346 152.029338,34.384 151.112,34.384 C150.002661,34.384 148.946672,34.1813354 147.944,33.776 C146.941328,33.3706646 146.06667,32.8586698 145.32,32.24 L146.632,30.48 Z M160.404,20.592 L158.1,20.592 L158.1,18.608 L160.532,18.448 L160.852,14.096 L163.06,14.096 L163.06,18.448 L167.252,18.448 L167.252,20.592 L163.06,20.592 L163.06,29.232 C163.06,30.1920048 163.235998,30.9333307 163.588,31.456 C163.940002,31.9786693 164.563996,32.24 165.46,32.24 C165.737335,32.24 166.035998,32.1973338 166.356,32.112 C166.676002,32.0266662 166.963999,31.9306672 167.22,31.824 L167.732,33.808 C167.305331,33.9573341 166.841336,34.0906661 166.34,34.208 C165.838664,34.3253339 165.342669,34.384 164.852,34.384 C164.019996,34.384 163.321336,34.2560013 162.756,34 C162.190664,33.7439987 161.732002,33.3920022 161.38,32.944 C161.027998,32.4959978 160.777334,31.9520032 160.628,31.312 C160.478666,30.6719968 160.404,29.9680038 160.404,29.2 L160.404,20.592 Z"/>
  </g>
</svg>
