<svg width="76" height="63" viewBox="0 0 76 63" xmlns="http://www.w3.org/2000/svg"><title>twitter</title><path d="M76 7.44c-2.794 1.263-5.8 2.115-8.956 2.497 3.222-1.962 5.692-5.07 6.856-8.778-3.013 1.818-6.348 3.138-9.9 3.85C61.155 1.93 57.102 0 52.617 0c-8.61 0-15.59 7.103-15.59 15.866 0 1.242.137 2.452.404 3.615-12.96-.66-24.45-6.976-32.14-16.576-1.343 2.342-2.11 5.068-2.11 7.978 0 5.504 2.75 10.36 6.935 13.205-2.554-.083-4.96-.797-7.062-1.986-.002.067-.002.135-.002.202 0 7.686 5.375 14.097 12.51 15.557-1.31.36-2.687.555-4.11.555-1.006 0-1.982-.1-2.934-.286 1.985 6.302 7.742 10.89 14.564 11.018-5.336 4.256-12.058 6.793-19.364 6.793-1.258 0-2.5-.075-3.72-.222 6.902 4.503 15.097 7.128 23.902 7.128 28.68 0 44.363-24.175 44.363-45.142 0-.687-.014-1.373-.043-2.054 3.045-2.233 5.69-5.03 7.778-8.21z" fill="#FFF" fill-rule="evenodd"/></svg>