<?xml version="1.0" encoding="utf-8"?>
<!-- Generator: Adobe Illustrator 13.0.2, SVG Export Plug-In  -->
<!DOCTYPE svg PUBLIC "-//W3C//DTD SVG 1.1//EN" "http://www.w3.org/Graphics/SVG/1.1/DTD/svg11.dtd" [
	<!ENTITY ns_flows "http://ns.adobe.com/Flows/1.0/">
]>
<svg version="1.1"
	 xmlns="http://www.w3.org/2000/svg" xmlns:xlink="http://www.w3.org/1999/xlink" xmlns:a="http://ns.adobe.com/AdobeSVGViewerExtensions/3.0/"
	 x="0px" y="0px" width="205px" height="88px" viewBox="-0.453 -0.043 205 88" enable-background="new -0.453 -0.043 205 88"
	 xml:space="preserve">
<defs>
</defs>
<rect x="80.883" fill="#ED1B2F" width="43.217" height="43.216"/>
<polyline fill="#FFFFFF" points="105.007,28.468 115.118,28.468 113.83,30.527 103.721,30.527 105.007,28.468 "/>
<polyline fill="#FFFFFF" points="97.694,37.234 115.674,37.234 114.389,39.292 96.408,39.292 97.694,37.234 "/>
<polyline fill="#FFFFFF" points="110.062,18.392 111.406,17.553 114.568,22.622 110.275,25.305 109.441,23.966 112.396,22.117 
	110.062,18.392 "/>
<polyline fill="#FFFFFF" points="84.025,21.994 97.823,21.994 96.535,24.052 82.739,24.052 84.025,21.994 "/>
<path fill="#FFFFFF" d="M108.752,21.922c0.716,0,1.296-0.579,1.296-1.296c0-0.716-0.58-1.297-1.296-1.297
	c-0.715,0-1.297,0.581-1.297,1.297C107.455,21.343,108.037,21.922,108.752,21.922"/>
<polyline fill="#FFFFFF" points="86.312,18.335 100.109,18.335 98.823,20.393 85.026,20.393 86.312,18.335 "/>
<polyline fill="#FFFFFF" points="88.599,14.638 102.396,14.638 101.109,16.695 87.313,16.695 88.599,14.638 "/>
<path fill="#FFFFFF" d="M117.659,1.188c-12.042,5.978-29.537,12.897-29.537,27.014c0,5.257,3.025,9.102,6.061,10.547l15.552-24.879
	l-1.212-1.925L93.639,35.767c-1.537-1.133-3.496-4.082-3.496-8.022c0-10.877,13.762-18.058,25.641-23.535L117.659,1.188"/>
<path fill="#808285" d="M78.195,54.269c-1.187-0.31-2.109-0.431-3.208-0.431c-3.544,0-6.043,1.808-6.043,4.491
	c0,2.167,1.684,3.217,3.846,3.217c0.655,0,1.099-0.051,1.807-0.223l0.302-2.083h-2.216l0.266-1.857h4.785l-0.868,5.987
	c-0.692,0.188-2.463,0.345-3.757,0.345c-5.033,0-6.823-2.736-6.823-5.301c0-2.958,2.357-6.743,8.701-6.743
	c1.33,0,2.553,0.154,3.509,0.429L78.195,54.269"/>
<path fill="#808285" d="M85.142,51.825c3.066,0,4.076,2.082,4.076,3.526c0,1.429-0.851,2.736-2.694,3.063v0.035
	c0.656,0.275,0.939,0.723,1.276,1.376l1.861,3.733h-2.836l-1.152-2.374c-1.027-2.115-1.311-2.374-2.569-2.374h-0.55l-0.673,4.748
	h-2.57l1.684-11.733H85.142 M82.821,56.987h1.275c1.737,0,2.464-0.845,2.464-1.704c0-0.929-0.745-1.496-2.021-1.496h-1.258
	L82.821,56.987z"/>
<path fill="#808285" d="M96.807,63.715c-3.509,0-6.097-2.238-6.097-5.455c0-3.802,3.013-6.589,7.107-6.589
	c3.527,0,5.955,2.202,5.955,5.351C103.771,61.065,100.813,63.715,96.807,63.715 M97.64,53.838c-2.339,0-4.271,1.944-4.271,4.301
	c0,2.015,1.418,3.407,3.456,3.407c2.392,0,4.289-1.927,4.289-4.353C101.113,55.249,99.66,53.838,97.64,53.838z"/>
<path fill="#808285" d="M116.531,59.137c-0.551,3.82-3.278,4.578-5.564,4.578c-4.147,0-5.724-2.255-5.282-5.215l0.993-6.675h2.569
	l-0.976,6.641c-0.389,2.65,1.633,3.08,2.695,3.08c1.364,0,2.746-0.654,3.03-2.615l1.028-7.105h2.569L116.531,59.137"/>
<path fill="#808285" d="M124.15,51.825c2.163,0,3.988,1.153,3.988,3.493c0,2.941-2.303,3.818-4.377,3.818h-2.038l-0.639,4.422
	h-2.568l1.683-11.733H124.15 M121.99,57.297h1.081c1.7,0,2.409-0.844,2.409-1.876c0-0.98-0.709-1.738-2.356-1.738h-0.621
	L121.99,57.297z"/>
<polyline fill="#808285" points="137.744,53.787 132.764,53.787 132.356,56.557 136.734,56.557 136.45,58.518 132.073,58.518 
	131.631,61.598 137.904,61.598 137.621,63.559 128.777,63.559 130.478,51.825 138.028,51.825 137.744,53.787 "/>
<polyline fill="#808285" points="32.525,82.733 29.565,82.733 31.246,70.288 34.17,70.288 32.525,82.733 "/>
<path fill="#808285" d="M46.377,73.57c-1.206-0.692-2.024-1.062-2.883-1.062c-0.741,0-1.297,0.441-1.297,1.04
	c0,0.53,0.38,1.038,1.545,1.902c1.799,1.332,2.354,2.45,2.354,3.753c0,1.11-0.388,2.139-1.151,2.851
	c-0.775,0.726-1.492,1.13-2.898,1.13c-1.874,0-3.397-0.613-4.358-1.255l0.605-2.588c0.466,0.293,0.701,0.48,1.286,0.778
	c0.81,0.411,1.289,0.609,2.011,0.609c1.08,0,1.5-0.65,1.5-1.208c0-0.61-0.511-1.273-1.825-2.291
	c-0.894-0.694-2.055-1.695-2.055-3.595c0-1.74,1.577-3.592,4.129-3.592c1.365,0,2.819,0.659,3.406,0.997L46.377,73.57"/>
<path fill="#808285" d="M10.986,73.037c-0.806-0.205-1.287-0.259-2.172-0.259c-3.149,0-5.231,1.769-5.231,4.437
	c0,1.906,1.028,3.214,3.088,3.214c1.693,0,3.13-0.865,3.973-1.403l-0.475,3.275c-1.054,0.541-2.331,0.896-3.709,0.896
	c-3.9,0-5.943-2.42-5.943-5.838c0-4.441,3.066-7.42,8.19-7.42c1.089,0,1.574,0.069,2.731,0.358L10.986,73.037"/>
<path fill="#808285" d="M25.013,82.757h-3.012l-0.377-2.238h-3.527l-0.988,2.238h-3.033l5.655-12.472h2.991L25.013,82.757
	 M21.386,78.257c-0.365-1.198-0.584-4.587-0.584-4.587s-1.265,3.561-1.838,4.587H21.386z"/>
<path fill="#808285" d="M58.991,73.566c-1.206-0.692-2.023-1.063-2.881-1.063c-0.742,0-1.298,0.442-1.298,1.041
	c0,0.531,0.379,1.039,1.545,1.902c1.799,1.332,2.354,2.45,2.354,3.753c0,1.108-0.389,2.137-1.151,2.852
	c-0.774,0.725-1.492,1.131-2.897,1.131c-1.875,0-3.397-0.615-4.359-1.258l0.605-2.587c0.465,0.293,0.701,0.479,1.286,0.776
	c0.81,0.412,1.29,0.61,2.011,0.61c1.08,0,1.5-0.649,1.5-1.207c0-0.611-0.512-1.274-1.826-2.292
	c-0.893-0.692-2.055-1.694-2.055-3.594c0-1.741,1.577-3.592,4.129-3.592c1.365,0,2.82,0.659,3.408,0.998L58.991,73.566"/>
<polyline fill="#808285" points="72.77,72.859 67.849,72.859 67.548,75.028 72.071,75.028 71.712,77.661 67.192,77.661 
	66.859,80.155 72.848,80.155 72.476,82.755 63.52,82.755 65.213,70.273 73.108,70.273 72.77,72.859 "/>
<polyline fill="#808285" points="113.42,72.861 108.5,72.861 108.199,75.029 112.722,75.029 112.361,77.661 107.842,77.661 
	107.51,80.155 113.498,80.155 113.128,82.756 104.17,82.756 105.864,70.274 113.759,70.274 113.42,72.861 "/>
<polyline fill="#808285" points="203.739,72.859 198.818,72.859 198.518,75.027 203.04,75.027 202.68,77.66 198.16,77.66 
	197.828,80.154 203.816,80.154 203.446,82.754 194.489,82.754 196.181,70.272 204.078,70.272 203.739,72.859 "/>
<path fill="#808285" d="M140.636,82.754h-3.01l-0.378-2.238h-3.527l-0.988,2.238H129.7l5.654-12.473h2.989L140.636,82.754
	 M137.01,78.253c-0.366-1.197-0.584-4.587-0.584-4.587s-1.266,3.56-1.839,4.587H137.01z"/>
<path fill="#808285" d="M88.133,70.286c2.555,0,3.114,0.2,4.106,0.707c1.896,0.969,2.971,2.858,2.971,5.333
	c0,2.039-0.505,3.369-1.526,4.537c-1.041,1.187-2.971,1.854-4.122,1.873c-0.292,0.004-1.995,0.014-1.995,0.014l-4.054-0.019
	l1.681-12.445H88.133 M86.8,80.166c0,0,0.831,0,1.349,0c0.861,0,2.263-0.186,3.026-1.049c0.653-0.737,0.97-1.492,0.97-2.785
	c0-1.184-0.438-2.003-0.861-2.39c-0.633-0.577-1.245-0.922-2.631-0.922h-0.839L86.8,80.166z"/>
<polyline fill="#808285" points="99.383,70.266 97.828,73.564 99.624,73.564 102.957,70.266 99.383,70.266 "/>
<path fill="#808285" d="M122.823,70.274h1.272c2.165,0,4.062,1.399,4.062,3.676c0,1.438-0.823,4.133-4.157,4.132h-1.866
	l-0.639,4.653h-2.997l1.706-12.461H122.823 M122.438,75.847h0.404c0.655,0,0.983-0.062,1.325-0.229
	c0.384-0.19,0.914-0.635,0.92-1.395c0.003-0.443-0.113-0.757-0.411-1.029c-0.372-0.337-0.7-0.454-1.493-0.452h-0.313L122.438,75.847
	z"/>
<path fill="#808285" d="M149.645,70.277h1.125c2.859,0,3.852,2.143,3.852,3.663c0,1.173-0.548,2.201-1.232,2.672
	c-0.482,0.33-0.739,0.453-1.116,0.595l-0.077,0.025c0.722,0.397,1.244,1.284,1.729,2.312l1.575,3.201h-3.304l-1.23-2.603
	c-0.787-1.672-1.041-2.107-1.649-2.376c-0.242-0.107-0.396-0.128-0.563-0.127h-0.189l-0.676,5.105h-2.913l1.674-12.468H149.645
	 M148.853,75.521h0.615c0.735,0,1.178-0.09,1.429-0.237c0.49-0.29,0.749-0.797,0.749-1.219c0-0.381-0.179-0.721-0.407-0.945
	c-0.289-0.283-0.846-0.457-1.646-0.457h-0.354L148.853,75.521z"/>
<path fill="#808285" d="M171.387,73.096c-1.242-0.236-1.675-0.343-2.8-0.343c-4.817,0-6.067,2.723-6.067,4.324
	c0,2.197,1.711,3.385,4.003,3.385c0.626,0,0.845-0.058,1.053-0.114l0.279-1.988h-2.426l0.331-2.346h5.281l-0.922,6.66
	c-1.182,0.24-2.412,0.369-3.592,0.369c-2.561,0-4.148-0.628-5.455-1.865c-1.119-1.058-1.583-2.293-1.583-4.013
	c0-4.178,3.354-7.14,8.737-7.14c1.441,0,2.781,0.137,3.547,0.428L171.387,73.096"/>
<polyline fill="#808285" points="180.404,76.831 179.67,82.729 176.808,82.729 178.461,70.287 181.279,70.287 184.35,75.834 
	185.603,78.45 185.825,76.016 186.573,70.287 189.438,70.287 187.764,82.729 184.968,82.729 182.059,77.255 180.648,74.326 
	180.404,76.831 "/>
<polyline fill="#ED1B2F" points="1.1,85.657 203.463,85.657 202.365,87.402 0,87.402 1.1,85.657 "/>
</svg>
