<?xml version="1.0" encoding="UTF-8"?>
<!-- Generator: Adobe Illustrator 18.1.1, SVG Export Plug-In . SVG Version: 6.00 Build 0)  -->
<!DOCTYPE svg PUBLIC "-//W3C//DTD SVG 1.1//EN" "http://www.w3.org/Graphics/SVG/1.1/DTD/svg11.dtd">
<svg version="1.1" id="Calque_1" xmlns="http://www.w3.org/2000/svg" xmlns:xlink="http://www.w3.org/1999/xlink" x="0px" y="0px" viewBox="0 0 160 60" style="enable-background:new 0 0 160 60;" xml:space="preserve">
<g>
	<linearGradient id="SVGID_1_" gradientUnits="userSpaceOnUse" x1="30.2749" y1="4.8812" x2="30.2749" y2="54.4049">
		<stop offset="0" style="stop-color:#FFE600"/>
		<stop offset="0.5166" style="stop-color:#FFDF00"/>
		<stop offset="1" style="stop-color:#FFD400"/>
	</linearGradient>
	<path style="fill:url(#SVGID_1_);" d="M17.695,30c0-6.951,5.637-12.583,12.583-12.583S42.857,23.049,42.857,30s-5.632,12.583-12.579,12.583   S17.695,36.951,17.695,30 M30.145,4.713C16.246,4.799,5,16.082,5,30c0,13.961,11.315,25.287,25.278,25.287   C44.239,55.287,55.55,43.961,55.55,30c0-13.918-11.239-25.201-25.138-25.287H30.145z"/>
	<path style="fill:#707173;" d="M137.217,47.578c-0.801,0-1.427-0.659-1.427-1.473V35.59c0-0.81,0.627-1.46,1.427-1.46   c0.807,0,1.467,0.65,1.467,1.46v10.516C138.683,46.919,138.024,47.578,137.217,47.578"/>
	<path style="fill:#707173;" d="M137.217,32.704c-0.891,0-1.604-0.719-1.604-1.619c0-0.896,0.713-1.645,1.604-1.645   c0.898,0,1.647,0.75,1.647,1.645C138.864,31.985,138.115,32.704,137.217,32.704"/>
	<path style="fill:#707173;" d="M116.781,36.606c-2.356,0-4.597,1.279-4.597,3.858v5.641c0,0.814-0.648,1.473-1.46,1.473   c-0.796,0-1.46-0.659-1.46-1.473V35.59c0-0.81,0.629-1.46,1.44-1.46c0.803,0,1.479,0.65,1.479,1.46v0.637   c1.195-1.593,2.539-2.222,4.597-2.222c0.719,0,1.285,0.568,1.285,1.288C118.067,36.016,117.5,36.606,116.781,36.606"/>
	<path style="fill:#707173;" d="M88.642,47.578c-0.803,0-1.462-0.629-1.462-1.434v-5.942c0-2.046-1.133-3.596-3.277-3.596   c-2.211,0-3.462,1.697-3.462,3.617v5.921c0,0.805-0.629,1.434-1.434,1.434c-0.803,0-1.46-0.629-1.46-1.434V35.628   c0-0.814,0.629-1.499,1.432-1.499s1.462,0.685,1.462,1.499v0.65c0.863-1.309,2.534-2.274,4.265-2.274   c3.398,0,5.368,2.601,5.368,6.098v6.042C90.073,46.949,89.447,47.578,88.642,47.578"/>
	<path style="fill:#707173;" d="M122.401,27.192c-1.04,1.162-3.182,2.162-5.084,2.162c-3.791,0-6.834-3.04-6.834-6.843   c0-3.785,3.043-6.834,6.834-6.834c1.662,0,3.038,0.353,4.41,1.486c0.269,0.25,0.45,0.637,0.45,1.029   c0,0.232-0.088,0.499-0.271,0.732c-0.235,0.301-0.597,0.486-0.954,0.486c-0.267,0-0.568-0.086-0.806-0.267   c-0.896-0.65-1.847-0.926-2.829-0.926c-2.39,0-3.97,1.968-3.97,4.293c0,2.343,1.58,4.311,3.97,4.311   c1.426,0,2.442-0.568,3.34-1.374c0.239-0.22,0.501-0.302,0.775-0.302c0.329,0,0.68,0.125,0.923,0.383   c0.211,0.215,0.317,0.487,0.343,0.754C122.739,26.83,122.401,27.192,122.401,27.192z"/>
	<path style="fill:#707173;" d="M93.348,18.33c-2.356,0-4.593,1.279-4.593,3.846v5.654c0,0.801-0.653,1.464-1.458,1.464   c-0.803,0-1.466-0.663-1.466-1.464v-10.52c0-0.814,0.631-1.464,1.434-1.464c0.807,0,1.49,0.65,1.49,1.464v0.624   c1.195-1.58,2.541-2.205,4.593-2.205c0.719,0,1.288,0.56,1.288,1.274C94.636,17.727,94.068,18.33,93.348,18.33"/>
	<path style="fill:#707173;" d="M131.371,26.869h-0.691c-2.061,0-2.532-1.236-2.532-2.941V18.11h3.215c0.659,0,1.197-0.568,1.197-1.219   c0-0.663-0.538-1.206-1.197-1.206h-3.215v-4.031c0-0.81-0.689-1.438-1.497-1.438c-0.803,0-1.427,0.628-1.427,1.438V23.82   c0,3.105,1.578,5.465,5.131,5.465h1.016c0.652,0,1.188-0.573,1.188-1.223C132.56,27.399,132.023,26.869,131.371,26.869z"/>
	<path style="fill:#707173;" d="M108.261,22.459c0-3.854-2.801-6.783-6.561-6.783c-3.785,0-6.739,3.049-6.739,6.834   c0,3.803,3.038,6.843,6.828,6.843c2.088,0,4.207-0.883,5.458-2.226c0.269-0.271,0.415-0.633,0.415-0.969   c0-0.232-0.082-0.474-0.237-0.68c-0.237-0.302-0.597-0.474-0.956-0.474c-0.261,0-0.506,0.056-0.719,0.267   c-1.038,1.012-2.351,1.645-3.876,1.645c-2.147,0-3.753-1.494-3.902-3.506h9.216C107.76,23.411,108.261,23.032,108.261,22.459z    M98.025,21.353c0.306-1.912,1.675-3.23,3.675-3.23c1.968,0,3.4,1.412,3.667,3.23H98.025z"/>
	<path style="fill:#707173;" d="M74.818,40.753c0-3.854-2.801-6.783-6.562-6.783c-3.781,0-6.741,3.04-6.741,6.839   c0,3.798,3.047,6.842,6.834,6.842c2.084,0,4.203-0.887,5.46-2.23c0.267-0.276,0.414-0.633,0.414-0.96   c0-0.241-0.086-0.482-0.232-0.689c-0.241-0.306-0.601-0.474-0.956-0.474c-0.276,0-0.512,0.06-0.721,0.267   c-1.042,1.008-2.353,1.645-3.876,1.645c-2.144,0-3.757-1.494-3.904-3.505h9.216C74.312,41.705,74.818,41.321,74.818,40.753z    M64.586,39.642c0.304-1.912,1.673-3.217,3.669-3.217c1.968,0,3.408,1.4,3.669,3.217H64.586z"/>
	<path style="fill:#707173;" d="M106.022,40.753c0-3.854-2.803-6.783-6.558-6.783c-3.79,0-6.739,3.04-6.739,6.839   c0,3.798,3.04,6.842,6.825,6.842c2.089,0,4.207-0.887,5.458-2.23c0.272-0.276,0.424-0.633,0.424-0.96   c0-0.241-0.095-0.482-0.243-0.689c-0.241-0.306-0.597-0.474-0.956-0.474c-0.269,0-0.506,0.06-0.711,0.267   c-1.053,1.008-2.362,1.645-3.878,1.645c-2.151,0-3.764-1.494-3.91-3.505h9.214C105.514,41.705,106.022,41.321,106.022,40.753z    M95.797,39.642c0.291-1.912,1.664-3.217,3.667-3.217c1.968,0,3.398,1.4,3.671,3.217H95.797z"/>
	<path style="fill:#707173;" d="M155,40.753c0-3.854-2.804-6.783-6.558-6.783c-3.79,0-6.748,3.04-6.748,6.839   c0,3.798,3.049,6.842,6.834,6.842c2.084,0,4.205-0.887,5.458-2.23c0.267-0.276,0.413-0.633,0.413-0.96   c0-0.241-0.084-0.482-0.235-0.689c-0.237-0.306-0.592-0.474-0.956-0.474c-0.271,0-0.506,0.06-0.715,0.267   c-1.042,1.008-2.358,1.645-3.88,1.645c-2.147,0-3.755-1.494-3.908-3.505h9.222C154.496,41.705,155,41.321,155,40.753z    M144.77,39.642c0.299-1.912,1.667-3.217,3.671-3.217c1.964,0,3.398,1.4,3.669,3.217H144.77z"/>
	<path style="fill:#707173;" d="M80.385,29.294c-0.807,0-1.434-0.663-1.434-1.464v-10.52c0-0.814,0.627-1.464,1.434-1.464   c0.801,0,1.46,0.65,1.46,1.464v10.52C81.844,28.63,81.185,29.294,80.385,29.294"/>
	<path style="fill:#707173;" d="M80.385,14.39c-0.898,0-1.613-0.711-1.613-1.615c0-0.887,0.715-1.636,1.613-1.636   c0.893,0,1.636,0.75,1.636,1.636C82.021,13.679,81.278,14.39,80.385,14.39"/>
	<g>
		<path style="fill:#707173;" d="M130.512,34.156c-0.736,0-1.337,0.538-1.438,1.244c-1.098-0.78-2.435-1.244-3.884-1.244    c-3.699,0-6.709,3.001-6.709,6.713c0,3.704,3.01,6.709,6.709,6.709c1.453,0,2.799-0.469,3.891-1.253v0.065    c0,2.351-1.339,4.082-4.287,4.082c-1.292,0-2.043-0.121-2.806-0.34c-0.133-0.039-0.276-0.06-0.426-0.06    c-0.682,0-1.233,0.547-1.233,1.228c0,0.534,0.329,0.982,0.792,1.158l0,0c0.745,0.34,2.444,0.512,3.674,0.512    c4.67,0,7.101-2.946,7.174-6.692l0.002,0.008v-0.164v-5.4v-5.116C131.97,34.806,131.313,34.156,130.512,34.156z M125.189,44.934    c-2.239,0-4.07-1.83-4.07-4.065c0-2.248,1.83-4.074,4.07-4.074c2.241,0,4.07,1.826,4.07,4.074    C129.259,43.104,127.431,44.934,125.189,44.934z"/>
	</g>
	<path style="fill:#707173;" d="M73.442,8.994c-0.805,0-1.434,0.65-1.434,1.456v6.705c-1.081-0.749-2.383-1.188-3.798-1.188   c-3.69,0-6.696,3.001-6.696,6.692c0,3.694,3.006,6.696,6.696,6.696c3.673,0,6.66-2.98,6.69-6.644c0-0.013,0-0.022,0-0.022V10.449   C74.9,9.644,74.248,8.994,73.442,8.994z M68.21,26.624c-2.192,0-3.979-1.77-3.979-3.966c0-2.196,1.787-3.979,3.979-3.979   c2.19,0,3.975,1.783,3.975,3.979C72.185,24.854,70.4,26.624,68.21,26.624z"/>
</g>
</svg>