<svg xmlns="http://www.w3.org/2000/svg" width="144" height="61" viewBox="0 0 144 61">
  <g fill="none" fill-rule="evenodd" transform="translate(-1)">
    <path fill="#09357A" d="M87.24,42.75 C83.956,42.75 81.433,40.543 81.433,37.092 L81.433,36.8 C81.433,36.8 87.53,36.65 89.593,36.65 C93.113,36.65 94.56,36.62 97.331,36.58 L97.331,34.62 C97.331,25.752 93.571,21.44 85.829,21.44 C82.259,21.44 73.959,22.78 73.959,35.196 C73.959,43.478 78.142,48.426 85.449,48.426 C91.189,48.426 94.713,46.964 97.264,45.099 C96.977,44.669 94.837,40.826 94.561,40.409 C93.027,41.579 90.501,42.749 87.241,42.749 L87.24,42.75 Z M81.43,31.827 C81.53,30.321 82.07,26.825 85.87,26.825 C89.767,26.825 89.98,30.113 89.98,31.845 L89.98,32.197 C89.98,32.197 87.38,32.267 85.825,32.267 C84.27,32.267 81.407,32.197 81.407,32.197 L81.431,31.827 L81.43,31.827 Z M112.197,21.997 C119.414,21.997 124.297,26.555 124.297,34.717 C124.297,44.977 117.592,48.012 110.564,48.012 L101.161,48.012 C101.196,47.444 101.161,45.927 101.161,44.022 L101.161,25.982 C101.161,24.082 101.196,22.87 101.161,21.997 L112.2,21.997 L112.197,21.997 Z M110.087,43.073 C114.073,43.073 117.314,41.755 117.314,34.718 C117.314,28.733 114.074,26.742 110.088,26.742 L107.998,26.742 L107.998,43.072 L110.088,43.072 L110.087,43.073 Z M134.522,44.023 C134.522,45.927 134.615,48.013 134.615,48.013 L127.638,48.013 C127.638,48.013 127.685,45.927 127.685,44.023 L127.685,25.983 C127.685,24.083 127.638,21.997 127.638,21.997 L144.132,21.997 L144.132,27.03 C144.132,27.03 140.446,26.936 139.192,26.936 L134.522,26.936 L134.522,32.176 L139.192,32.226 C140.067,32.226 143.078,32.176 143.078,32.176 L143.078,36.969 C143.078,36.969 140.405,36.895 139.193,36.895 L134.523,36.922 L134.523,44.022 L134.522,44.023 Z"/>
    <path fill="#FE5815" d="M37.708,9.327 L37.708,9.324 C38.422,9.764 39.178,10.654 39.358,11.514 C37.93,13.422 38.418,22.532 33.92,22.114 C33.448,22.518 30.656,22.511 29.706,21.888 L28.99,20.812 C27.832,20.051 27.688,19.478 26.612,18.706 L23.492,14.146 C23.567,13.676 23.645,13.213 23.722,12.746 C22.343,10.614 24.078,7.052 25.358,5.596 C26.886,3.859 28.471,1.674 31.216,1.306 L33.353,1.902 C35.036,1.713 39.413,0.33 39.87,0.22 C40.48,0.073 41.98,-0.31 42.287,0.499 C42.785,1.788 39.593,1.316 39.155,3.343 C37.655,4.65 37.938,7.427 37.708,9.327 Z M18.318,36.677 L18.315,36.678 C11.009,38.57 1.053,32.365 0.999,27.338 C2.231,25.803 2.034,23.108 4.714,22.978 C5.01,23.581 4.647,23.236 5.37,23.478 C5.453,23.33 5.541,23.188 5.623,23.038 C6.033,22.59 6.122,22.111 6.195,21.235 C6.579,21.259 6.958,21.284 7.341,21.307 C7.473,18.891 7.325,18.024 8.179,17.031 C8.174,17.11 8.479,16.777 8.474,16.853 C8.94,17.592 8.798,17.272 9.14,18.205 C10.016,20.563 13.288,26.071 16.2,26.445 C19.076,28.409 25.832,23.678 26.292,29.275 C27.777,31.933 23.108,35.197 21.75,35.877 C20.898,36.302 19.271,36.429 18.318,36.677 Z M51.384,21.402 L51.382,21.401 C59.564,20.159 68.156,22.106 68.856,30.481 C67.692,31.789 68.988,32.949 66.522,33.349 C66.148,33.634 65.235,33.569 65.235,33.569 C65.21,33.801 65.292,34.226 65.292,34.226 C65.292,34.226 65.042,34.629 64.602,34.733 C63.626,34.97 62.159,35.3 61.562,35.21 C58.961,34.8 60.251,34.645 58.489,35.08 C58.474,34.93 58.334,34.556 58.239,33.932 C56.437,29.452 47.177,29.787 41.844,30.182 C41.166,29.722 40.85,28.892 40.724,28.114 C40.601,27.33 40.769,26.586 41.016,26.248 C41.262,25.915 41.599,25.378 42.744,24.578 C44.384,23.442 47.041,22.058 51.384,21.402 Z M41.864,39.62 L41.862,39.617 C50.549,39.916 62.28,48.082 62.224,56.702 C61.793,57.17 61.756,58.074 61.306,58.534 C60.877,58.982 60.358,58.715 59.704,58.998 C57.286,60.023 57.54,61.094 54.034,60.831 C53.647,60.095 48.759,56.283 47.569,56.247 C47.187,56.324 46.308,55.694 46.205,55.589 C46.205,55.442 45.993,55.044 45.993,54.889 C46.375,54.471 46.68,54.313 46.653,52.125 C46.281,51.649 46.693,50.429 46.311,49.909 C45.947,49.909 45.581,48.062 45.021,47.394 C44.523,47.262 43.474,45.444 43.089,45.117 C41.844,44.082 40.154,43.487 39.414,42.017 C39.49,42.017 39.307,41.794 39.38,41.794 C40.104,40.33 40.626,40.565 41.864,39.62 Z M28.054,41.59 L28.057,41.592 C29.343,41.442 30.035,41.455 30.619,42.092 C32.116,43.87 32.674,51.054 31.021,54.054 C30.35,55.277 28.912,57.047 27.856,57.951 C27.128,58.574 26.228,58.487 25.408,59.037 C23.937,60.03 22.417,60.758 20.672,60.293 C19.911,60.349 19.149,60.399 18.387,60.453 C18.046,60.363 16.881,59.759 16.494,59.673 C15.808,59.723 15.121,59.77 14.438,59.823 C14.34,59.517 14.24,59.221 14.145,58.923 C13.612,58.961 13.078,58.999 12.542,59.033 C12.075,58.745 11.91,57.681 11.5,57.273 C10.906,56.673 10.575,57.07 10.262,55.983 C10.745,55.005 9.431,51.179 9.175,49.547 C8.903,48.685 8.769,48.553 8.997,48.537 C12.504,51.548 19.61,49.964 22.93,46.814 C23.962,45.84 25.277,43.792 25.852,42.892 C26.227,42.3 27.567,42.108 28.054,41.59 Z"/>
  </g>
</svg>
