<?xml version="1.0" encoding="UTF-8" standalone="no"?>
<svg
   xmlns:dc="http://purl.org/dc/elements/1.1/"
   xmlns:cc="http://creativecommons.org/ns#"
   xmlns:rdf="http://www.w3.org/1999/02/22-rdf-syntax-ns#"
   xmlns:svg="http://www.w3.org/2000/svg"
   xmlns="http://www.w3.org/2000/svg"
   xmlns:inkscape="http://www.inkscape.org/namespaces/inkscape"
   version="1.1"
   id="Calque_1"
   x="0px"
   y="0px"
   viewBox="0 0 672.60352 352.60001"
   xml:space="preserve"
   inkscape:version="0.91 r13725"
   width="672.60352"
   height="352.60001">
   <style
     type="text/css"
     id="style3">
	.st0{fill:#141E6E;}
	.st1{fill:#EBAA28;}
</style><g
     id="g5"
     transform="translate(-3.7,-7.6)"><path
       class="st0"
       d="m 63.9,359.1 c -1.8,0 -3.2,-1.4 -3.2,-3.2 l 0,-17.4 c 0,-6.8 -3.4,-10.6 -9.5,-10.6 -3.7,0 -6.9,1.8 -9.4,5.4 0.3,1.5 0.5,3.1 0.5,4.7 l 0,17.9 c 0,1.8 -1.4,3.2 -3.2,3.2 l -3.6,0 c -1.8,0 -3.2,-1.4 -3.2,-3.2 l 0,-17.4 c 0,-6.8 -3.4,-10.6 -9.5,-10.6 -3.3,0 -6.5,1.9 -9,5.3 l 0,22.7 c 0,1.8 -1.4,3.2 -3.2,3.2 l -3.7,0 c -1.8,0 -3.2,-1.4 -3.2,-3.2 l 0,-33 c 0,-1.8 1.4,-3.2 3.2,-3.2 l 3.7,0 c 1.5,0 2.8,1.1 3.1,2.5 2.9,-2.5 6.3,-3.5 10.8,-3.5 5.3,0 10.1,2.1 13.2,5.9 4.3,-4.2 8.8,-5.9 15.2,-5.9 10.4,0 17.7,8 17.7,19.3 l 0,17.9 c 0,1.8 -1.4,3.2 -3.2,3.2 l -3.5,0 z"
       id="path7"
       inkscape:connector-curvature="0"
       style="fill:#141e6e" /><path
       class="st0"
       d="m 432.2,359.1 c -1.8,0 -3.2,-1.4 -3.2,-3.2 l 0,-17.4 c 0,-6.8 -3.4,-10.6 -9.5,-10.6 -3.7,0 -6.9,1.8 -9.4,5.4 0.3,1.5 0.5,3.1 0.5,4.7 l 0,17.9 c 0,1.8 -1.4,3.2 -3.2,3.2 l -3.6,0 c -1.8,0 -3.2,-1.4 -3.2,-3.2 l 0,-17.4 c 0,-6.8 -3.4,-10.6 -9.5,-10.6 -3.3,0 -6.5,1.9 -9,5.3 l 0,22.7 c 0,1.8 -1.4,3.2 -3.2,3.2 l -3.7,0 c -1.8,0 -3.2,-1.4 -3.2,-3.2 l 0,-33 c 0,-1.8 1.4,-3.2 3.2,-3.2 l 3.7,0 c 1.5,0 2.8,1.1 3.1,2.5 2.9,-2.5 6.3,-3.5 10.8,-3.5 5.3,0 10.1,2.1 13.2,5.9 4.3,-4.2 8.8,-5.9 15.2,-5.9 10.4,0 17.7,8 17.7,19.3 l 0,17.9 c 0,1.8 -1.4,3.2 -3.2,3.2 l -3.5,0 z"
       id="path9"
       inkscape:connector-curvature="0"
       style="fill:#141e6e" /><path
       class="st0"
       d="m 118.3,322.6 0,33.6 c 0,1.6 -1.3,2.9 -2.9,2.9 l -0.6,0 c -1.6,0 -2.9,-1.3 -2.9,-2.9 l 0,-1.2 c -3.5,3.2 -8.2,5.1 -13.8,5.1 -11.3,0 -20.3,-9.2 -20.3,-20.7 0,-11.5 9,-20.7 20.3,-20.7 5.6,0 10.4,1.9 13.8,5.1 l 0,-1.2 c 0,-1.6 1.3,-2.9 2.9,-2.9 l 0.6,0 c 1.6,0 2.9,1.3 2.9,2.9 m -6.5,24.9 0,-16.1 c -3.2,-4.8 -7.8,-6.7 -13,-6.7 -8.3,0 -14.7,6.6 -14.7,14.8 0,8.2 6.4,14.8 14.7,14.8 5.2,-0.1 9.8,-2.1 13,-6.8"
       id="path11"
       inkscape:connector-curvature="0"
       style="fill:#141e6e" /><path
       class="st0"
       d="m 134.2,301.4 0,55.2 c 0,1.4 -1.2,2.6 -2.6,2.6 l -1.3,0 c -1.4,0 -2.6,-1.1 -2.6,-2.6 l 0,-55.2 c 0,-1.4 1.2,-2.6 2.6,-2.6 l 1.3,0 c 1.4,0 2.6,1.1 2.6,2.6"
       id="path13"
       inkscape:connector-curvature="0"
       style="fill:#141e6e" /><path
       class="st0"
       d="m 182.8,322.3 0,34.3 c 0,1.4 -1.2,2.6 -2.6,2.6 l -1.3,0 c -1.4,0 -2.6,-1.2 -2.6,-2.6 l 0,-1.6 c -3.5,3.2 -8.2,5.1 -13.9,5.1 -11.3,0 -20.3,-9.2 -20.3,-20.7 0,-11.5 9,-20.7 20.3,-20.7 5.6,0 10.4,1.9 13.9,5.1 l 0,-1.5 c 0,-1.4 1.1,-2.6 2.6,-2.6 l 1.3,0 c 1.5,0 2.6,1.1 2.6,2.6 m -6.4,25.2 0,-16.1 c -3.2,-4.8 -7.8,-6.7 -13,-6.7 -8.3,0 -14.7,6.6 -14.7,14.8 0,8.2 6.4,14.8 14.7,14.8 5.2,-0.1 9.7,-2.1 13,-6.8"
       id="path15"
       inkscape:connector-curvature="0"
       style="fill:#141e6e" /><path
       class="st0"
       d="m 207.8,340.7 -8.2,7.9 0,8 c 0,1.4 -1.1,2.6 -2.6,2.6 l -1.3,0 c -1.4,0 -2.6,-1.1 -2.6,-2.6 l 0,-55.2 c 0,-1.4 1.1,-2.6 2.6,-2.6 l 1.3,0 c 1.4,0 2.6,1.1 2.6,2.6 l 0,38.7 20.5,-19.6 c 0.5,-0.5 1.3,-0.8 2,-0.8 l 0.9,0 c 2.3,0 3.4,2.8 1.8,4.4 l -12.4,12.1 16.3,18.7 c 1.4,1.7 0.3,4.2 -1.9,4.2 l -1.6,0 c -0.7,0 -1.4,-0.3 -1.9,-0.9 l -15.5,-17.5 z"
       id="path17"
       inkscape:connector-curvature="0"
       style="fill:#141e6e" /><path
       class="st0"
       d="m 274,339.4 c 0,11.9 -9.2,20.7 -20.9,20.7 -11.9,0 -21,-8.8 -21,-20.7 0,-11.7 9.1,-20.7 21,-20.7 11.7,0 20.9,9 20.9,20.7 m -6.5,0 c 0,-8.2 -6.1,-14.8 -14.4,-14.8 -8.3,0 -14.5,6.6 -14.5,14.8 0,8.3 6.2,14.8 14.5,14.8 8.3,0 14.4,-6.5 14.4,-14.8"
       id="path19"
       inkscape:connector-curvature="0"
       style="fill:#141e6e" /><path
       class="st0"
       d="m 292.4,319.7 12.5,0 c 1.4,0 2.6,1.1 2.6,2.6 l 0,0.4 c 0,1.4 -1.1,2.6 -2.6,2.6 l -12.5,0 0,31.3 c 0,1.4 -1.1,2.6 -2.6,2.6 l -1.3,0 c -1.4,0 -2.6,-1.1 -2.6,-2.6 l 0,-31.3 -7.4,0 c -1.4,0 -2.6,-1.1 -2.6,-2.6 l 0,-0.4 c 0,-1.4 1.1,-2.6 2.6,-2.6 l 7.4,0 0,-7.1 c 0,-9.2 6.1,-14.9 14.8,-14.9 1.6,0 3.5,0.2 5.4,0.6 1.3,0.3 2.2,1.6 2,2.9 l -0.1,0.4 c -0.2,1.4 -1.6,2.4 -3,2.1 -1.4,-0.3 -2.7,-0.4 -3.7,-0.4 -5.5,0 -9,3.7 -9,9.3 l 0,7.1 z"
       id="path21"
       inkscape:connector-curvature="0"
       style="fill:#141e6e" /><path
       class="st0"
       d="m 328.9,319.7 12.5,0 c 1.4,0 2.6,1.1 2.6,2.6 l 0,0.4 c 0,1.4 -1.2,2.6 -2.6,2.6 l -12.5,0 0,31.3 c 0,1.4 -1.1,2.6 -2.6,2.6 l -1.3,0 c -1.4,0 -2.6,-1.1 -2.6,-2.6 l 0,-31.3 -7.4,0 c -1.4,0 -2.6,-1.1 -2.6,-2.6 l 0,-0.4 c 0,-1.4 1.1,-2.6 2.6,-2.6 l 7.4,0 0,-7.1 c 0,-9.2 6.1,-14.9 14.8,-14.9 1.6,0 3.5,0.2 5.4,0.6 1.3,0.3 2.2,1.6 2,2.9 l -0.1,0.4 c -0.2,1.4 -1.6,2.4 -3,2.1 -1.4,-0.3 -2.7,-0.4 -3.7,-0.4 -5.5,0 -9,3.7 -9,9.3 l 0,7.1 z"
       id="path23"
       inkscape:connector-curvature="0"
       style="fill:#141e6e" /><path
       class="st0"
       d="m 483.9,341.4 -30.9,0 c 0.8,7.3 5.8,13 14,13 4.4,0 8,-1.4 9.9,-4 0.5,-0.7 1.2,-1.1 2.1,-1.1 l 2.9,0 c 1.4,0 2.3,1.5 1.6,2.8 -3.1,5.1 -9.2,8.1 -16.4,8.1 -12.1,0 -20.6,-9.1 -20.6,-20.7 0,-11.6 8.3,-20.7 20.2,-20.7 11.5,0 19.5,8.3 19.5,20.2 l 0,0.2 c 0,1.1 -1,2.2 -2.3,2.2 m -30.8,-4.6 26.5,0 c -0.7,-7.7 -5.4,-12.5 -12.9,-12.5 -7.8,0 -12.7,5.5 -13.6,12.5"
       id="path25"
       inkscape:connector-curvature="0"
       style="fill:#141e6e" /><path
       class="st0"
       d="m 533.6,301.3 0,55.2 c 0,1.4 -1.2,2.6 -2.6,2.6 l -1.3,0 c -1.4,0 -2.6,-1.1 -2.6,-2.6 l 0,-1.5 c -3.5,3.2 -8.2,5.1 -13.9,5.1 -11.3,0 -20.3,-9.3 -20.3,-20.7 0,-11.6 9,-20.7 20.3,-20.7 5.6,0 10.4,1.9 13.9,5.1 l 0,-22.4 c 0,-1.4 1.1,-2.6 2.6,-2.6 l 1.3,0 c 1.4,0 2.6,1.1 2.6,2.5 m -6.5,46.2 0,-16.1 c -3.2,-4.8 -7.8,-6.7 -13,-6.7 -8.3,0 -14.7,6.6 -14.7,14.8 0,8.2 6.4,14.8 14.7,14.8 5.2,-0.1 9.8,-2.1 13,-6.8"
       id="path27"
       inkscape:connector-curvature="0"
       style="fill:#141e6e" /><path
       class="st0"
       d="m 612.3,321.5 0,1.1 c 0,1.3 -1,2.3 -2.2,2.5 -5.4,0.7 -9.9,3.6 -13,8.4 l 0,23.1 c 0,1.4 -1.1,2.5 -2.5,2.5 l -1.4,0 c -1.4,0 -2.5,-1.1 -2.5,-2.5 l 0,-34.3 c 0,-1.4 1.1,-2.5 2.5,-2.5 l 1.4,0 c 1.4,0 2.5,1.1 2.5,2.5 l 0,3.9 c 3.1,-3.9 7.3,-6.5 12.3,-7.2 1.5,-0.3 2.9,0.9 2.9,2.5"
       id="path29"
       inkscape:connector-curvature="0"
       style="fill:#141e6e" /><path
       class="st0"
       d="m 619.6,304.9 c 0,-2.5 1.9,-4.3 4.3,-4.3 2.5,0 4.4,1.9 4.4,4.3 0,2.4 -2,4.2 -4.4,4.2 -2.4,0.1 -4.3,-1.8 -4.3,-4.2 m 7.7,17.4 0,34.3 c 0,1.4 -1.1,2.5 -2.5,2.5 l -1.4,0 c -1.4,0 -2.5,-1.1 -2.5,-2.5 l 0,-34.3 c 0,-1.4 1.1,-2.6 2.6,-2.6 l 1.3,0 c 1.3,0 2.5,1.1 2.5,2.6"
       id="path31"
       inkscape:connector-curvature="0"
       style="fill:#141e6e" /><path
       class="st0"
       d="m 672,345.7 2.5,0 c 1.3,0 2.1,1.2 1.7,2.4 -2.4,7.2 -9.4,12 -18,12 -12,0 -20.6,-9.1 -20.6,-20.7 0,-11.6 8.7,-20.7 20.6,-20.7 8.6,0 15.6,4.8 18,12.1 0.4,1.2 -0.5,2.4 -1.7,2.4 l -2.5,0 c -1.1,0 -2,-0.7 -2.4,-1.7 -1.7,-4.2 -5.9,-6.9 -11.4,-6.9 -8.6,0 -14.2,6.6 -14.2,14.8 0,8.2 5.6,14.8 14.2,14.8 5.4,0 9.7,-2.6 11.4,-6.8 0.4,-1 1.3,-1.7 2.4,-1.7"
       id="path33"
       inkscape:connector-curvature="0"
       style="fill:#141e6e" /><path
       class="st0"
       d="m 468.5,312.1 -2.7,0 c -1.1,0 -1.8,-1.2 -1.3,-2.2 l 5.2,-9.2 c 0.3,-0.5 0.7,-0.7 1.3,-0.7 l 3.6,0 c 1.2,0 1.9,1.3 1.2,2.3 l -6.1,9.2 c -0.2,0.4 -0.7,0.6 -1.2,0.6"
       id="path35"
       inkscape:connector-curvature="0"
       style="fill:#141e6e" /><path
       class="st0"
       d="m 579.3,341.4 -30.9,0 c 0.8,7.3 5.8,13 14,13 4.4,0 8,-1.4 9.9,-4 0.5,-0.7 1.2,-1.1 2.1,-1.1 l 2.9,0 c 1.4,0 2.3,1.5 1.6,2.8 -3.1,5.1 -9.2,8.1 -16.4,8.1 -12.1,0 -20.6,-9.1 -20.6,-20.7 0,-11.6 8.3,-20.7 20.2,-20.7 11.5,0 19.5,8.3 19.5,20.2 l 0,0.2 c 0,1.1 -1,2.2 -2.3,2.2 m -30.8,-4.6 26.5,0 c -0.7,-7.7 -5.4,-12.5 -12.9,-12.5 -7.8,0 -12.7,5.5 -13.6,12.5"
       id="path37"
       inkscape:connector-curvature="0"
       style="fill:#141e6e" /><path
       class="st0"
       d="m 563.9,312.1 -2.7,0 c -1.1,0 -1.8,-1.2 -1.3,-2.2 l 5.2,-9.2 c 0.3,-0.5 0.7,-0.7 1.3,-0.7 l 3.6,0 c 1.2,0 1.9,1.3 1.2,2.3 l -6.1,9.2 c -0.2,0.4 -0.7,0.6 -1.2,0.6"
       id="path39"
       inkscape:connector-curvature="0"
       style="fill:#141e6e" /><path
       class="st1"
       d="M 462.4,130 C 462.4,197.6 407.6,252.4 340,252.4 272.4,252.4 217.6,197.6 217.6,130 217.6,62.4 272.4,7.6 340,7.6 407.6,7.6 462.4,62.4 462.4,130 m -98.9,108.2 c 6.8,-1.4 13.6,-3.5 23.9,-10.4 34.4,-23.2 41.7,-64.1 36.5,-97.4 -6.4,-41.2 -22.9,-62 -46,-78.3 -1.7,-1.2 -0.4,-3.9 1.6,-3.3 31.3,8.8 57.2,30.3 69.4,59.3 -0.1,-0.5 -0.2,-1 -0.3,-1.4 C 445.6,92.6 440,79.5 431.9,67.6 423.6,55.3 413,45 400.4,36.9 c -5.7,-3.7 -11.6,-6.8 -17.7,-9.3 -23.3,8.2 -44.1,23.8 -58.5,46.1 -26.1,40.3 -23.8,90.8 1.8,128 1,1.5 -0.8,3.4 -2.3,2.4 l -0.1,0 C 277.6,174.3 264.4,112.9 294.2,66.9 311,41 337.8,25.5 366.2,22.2 364,21.7 361.7,21.2 359.5,20.8 345.4,18.3 320.9,18.4 306,26.5 263.2,50 251.5,93 257.6,129.9 c 6.8,41.1 23.2,61.9 46.4,78.1 1.7,1.2 0.4,3.9 -1.6,3.3 -32.9,-9 -59.8,-32.2 -71.4,-63.2 0.3,1.7 0.6,3.3 0.9,5 3,14.1 8.6,27.2 16.7,39.1 8.3,12.3 18.9,22.6 31.5,30.7 5.6,3.6 11.5,6.7 17.5,9.3 39.6,-13.8 70.2,-48.7 76.4,-93.1 4,-28.8 -3,-56.5 -17.7,-79 -1,-1.5 0.8,-3.4 2.4,-2.3 30.2,20.5 47.9,57.1 42.6,95.8 -6.3,45 -41.8,78.7 -84.7,84.6 1.5,0.3 3,0.6 4.5,0.9 14.1,2.4 28.4,2 42.4,-0.9"
       id="path61"
       inkscape:connector-curvature="0"
       style="fill:#ebaa28" /></g></svg>
