<svg xmlns="http://www.w3.org/2000/svg" width="296" height="57" viewBox="0 0 296 57" xmlns:xlink="http://www.w3.org/1999/xlink">
  <defs>
    <path id="a" d="M33.9942819,56.7934978 C32.3405857,56.9075458 29.6679688,56.9140625 27.9994225,56.8064144 L3.0005775,55.1935856 C1.34340431,55.0866712 0,53.6659433 0,51.9934141 L0,15.0065859 C0,13.3460944 1.25363147,11.5147233 2.80571841,10.9139155 L28.1942816,1.08608454 C29.7438371,0.486256614 32.2460938,0.515625 33.7806419,1.15061045 L57.2193581,10.8493896 C58.7550642,11.4848542 60,13.3340567 60,15.0065859 L60,51.9934141 C60,53.6539056 58.6594313,55.092453 57.0057181,55.2065022 L33.9942819,56.7934978 Z"/>
    <mask id="b" width="60" height="57" x="0" y="0" fill="#D2312D">
      <use xlink:href="#a"/>
    </mask>
  </defs>
  <g fill="none" fill-rule="evenodd">
    <path  fill="#000000" d="M78.88,43l3.872,0l0,-16l7.008,10.496l0.128,0l7.072,-10.56l0,16.064l3.936,0l0,-22.4l-4.192,0l-6.816,10.592l-6.816,-10.592l-4.192,0l0,22.4Zm23.856,0l4.032,0l2.304,-5.408l10.592,0l2.272,5.408l4.16,0l-9.856,-22.56l-3.648,0l-9.856,22.56Zm7.776,-8.896l3.84,-8.96l3.872,8.96l-7.712,0Zm20.048,8.896l3.968,0l0,-18.752l7.104,0l0,-3.648l-18.176,0l0,3.648l7.104,0l0,18.752Zm13.232,0l16.768,0l0,-3.52l-12.832,0l0,-6.016l11.232,0l0,-3.52l-11.232,0l0,-5.824l12.672,0l0,-3.52l-16.608,0l0,22.4Zm19.44,0l3.936,0l0,-7.808l4.928,0l5.504,7.808l4.672,0l-6.048,-8.48c3.104,-0.896 5.312,-3.104 5.312,-6.784l0,-0.064c0,-1.952 -0.672,-3.616 -1.856,-4.832c-1.44,-1.408 -3.648,-2.24 -6.464,-2.24l-9.984,0l0,22.4Zm3.936,-11.296l0,-7.52l5.728,0c2.912,0 4.64,1.312 4.64,3.712l0,0.064c0,2.272 -1.792,3.744 -4.608,3.744l-5.76,0Zm17.424,11.296l3.936,0l0,-22.4l-3.936,0l0,22.4Zm7.92,0l16.768,0l0,-3.52l-12.832,0l0,-6.016l11.232,0l0,-3.52l-11.232,0l0,-5.824l12.672,0l0,-3.52l-16.608,0l0,22.4Zm19.44,0l15.712,0l0,-3.584l-11.776,0l0,-18.816l-3.936,0l0,22.4Zm17.104,0l4.256,0l0,-4.416l-4.256,0l0,4.416Zm7.312,0l3.872,0l0,-15.936l12.352,15.936l3.296,0l0,-22.4l-3.872,0l0,15.488l-12,-15.488l-3.648,0l0,22.4Zm23.28,0l16.768,0l0,-3.52l-12.832,0l0,-6.016l11.232,0l0,-3.52l-11.232,0l0,-5.824l12.672,0l0,-3.52l-16.608,0l0,22.4Zm24.944,0l3.968,0l0,-18.752l7.104,0l0,-3.648l-18.176,0l0,3.648l7.104,0l0,18.752Z"/>
    <path fill="#FFFFFF" d="M33.996,56.114c-1.654,0.118 -4.343,0.124 -5.982,0.015l-24.028,-1.602c-1.649,-0.11 -2.986,-1.54 -2.986,-3.197l0,-35.004c0,-1.656 1.251,-3.499 2.782,-4.111l24.436,-9.774c1.536,-0.615 4.021,-0.582 5.543,0.07l22.478,9.633c1.525,0.654 2.761,2.525 2.761,4.182l0,35.004c0,1.655 -1.332,3.093 -2.996,3.212l-22.008,1.572Z"/>
    <path stroke="#D2312D" stroke-width="2" d="M31,2 L31,56"/>
    <polygon fill="#D2312D" points="7 53 7 17 26 9 26 55"/>
    <polygon fill="#D2312D" points="36 55 36 10 54 17 54 53"/>
    <use stroke="#000000" stroke-width="6" mask="url(#b)" stroke-linecap="round" stroke-linejoin="round" xlink:href="#a"/>
  </g>
</svg>
