<?xml version="1.0" encoding="UTF-8"?>
<!-- Generator: Adobe Illustrator 20.1.0, SVG Export Plug-In . SVG Version: 6.00 Build 0)  -->
<svg version="1.1" id="Layer_1" xmlns="http://www.w3.org/2000/svg" xmlns:xlink="http://www.w3.org/1999/xlink" x="0px" y="0px" viewBox="0 0 100.8 100.8" style="enable-background:new 0 0 100.8 100.8;" xml:space="preserve">
<style type="text/css">
	.st0{fill:#77BC1F;}
	.st1{fill:#FFFFFF;}
</style>
<polygon class="st0" points="100.8,100.8 0,100.8 0,70.4 1,70.4 1,50.8 0,50.8 0,0 100.8,0 "/>
<path class="st1" d="M92.7,42.8c-0.7-1.3-1.6-2.7-2.4-3.8c0.5-1,1-1.9,1.3-2.9c0,0,0,0,0,0c0,0,0,0,0,0c0-0.1-0.1-0.2-0.2-0.2  c0,0,0,0,0,0c0,0,0,0,0,0c-1.1,0.1-2.3,0.2-3.5,0.4c-1-1-1.8-1.8-2.9-2.6c0,0,0,0,0,0c0,0,0,0,0,0c0,0-0.1-0.1-0.1-0.1  c-0.1,0-0.1,0-0.2,0.1c0,0,0,0,0,0c0,0,0,0.1,0,0.1c0,0,0,0.1,0,0.1c0,0.6,0,1.7-0.1,3.3c-1.6,0.7-2.8,1.4-4.4,2.3  c-0.1,0-0.1,0.1-0.1,0.2c0,0.1,0,0.1,0.1,0.1c0,0,0,0,0,0c1.6,0.4,2.8,0.7,4.5,1.1c0,1.6,0.1,3.1,0.4,5.3c0,0,0,0.1,0,0.1  c0,0.2,0.2,0.3,0.3,0.3c0.1,0,0.2-0.1,0.3-0.1c0,0,0,0,0,0c1.2-1.7,1.8-2.9,2.7-4.6c1.3,0.3,2.6,0.8,3.9,1.3c0,0,0.1,0,0.1,0  c0.1,0,0.2-0.1,0.2-0.2C92.7,42.8,92.7,42.8,92.7,42.8"/>
<path class="st1" d="M21.7,50.4c-2.2,0-4.3,1.1-6.4,3.4c-1.4-2.2-3.3-3.4-5.7-3.4c-1.8,0-3.7,0.9-5.5,2.7v-2.3H0v19.6h4.1V56.3  c0.8-0.9,1.6-1.5,2.2-1.9c0.6-0.3,1.3-0.5,2.1-0.5c1.4,0,2.3,0.4,2.9,1.2c0.6,0.8,0.8,2.3,0.8,4.4v10.9h4.1V56.3  c1.3-1.5,2.7-2.3,4.3-2.3c1.2,0,2.1,0.4,2.7,1.2c0.6,0.8,1,2,1,3.6v11.5h4.1V58.9c0-2.8-0.6-5-1.8-6.4  C25.2,51.1,23.6,50.4,21.7,50.4"/>
<path class="st1" d="M52.3,58.5c0.3-1.4,0.8-2.5,1.6-3.3c0.8-0.8,2-1.2,3.3-1.2c1.3,0,2.4,0.4,3.2,1.2c0.8,0.8,1.2,1.9,1.3,3.3H52.3  z M57.3,50.4c-2.7,0-5,1-6.7,2.8c-1.7,1.9-2.6,4.3-2.6,7.3c0,2,0.4,3.8,1.2,5.3c0.8,1.5,1.9,2.7,3.2,3.6c1.3,0.9,3.1,1.4,5.3,1.4  c1.6,0,3-0.2,4.1-0.5c1.2-0.3,2.4-0.9,3.6-1.7l0.1,0v-4.2l-0.3,0.2c-2.1,1.5-4.4,2.3-6.9,2.3c-1.8,0-3.2-0.5-4.3-1.6  c-1.1-1-1.7-2.4-1.8-4.2h13.7v-0.6c0-3-0.8-5.5-2.3-7.3C62,51.3,59.9,50.4,57.3,50.4"/>
<path class="st1" d="M81.5,51.4c-1-0.6-2.2-1-3.4-1c-2.1,0-3.9,0.9-5.6,2.6v-2.2h-4.2v19.6h4.2V56.5c1.2-1.7,2.7-2.6,4.4-2.6  c1.3,0,2.3,0.4,2.9,1.2c0.6,0.8,0.9,2.2,0.9,4.1v11.1h4.1V59.2c0-2.4-0.3-4.1-0.8-5.2C83.3,52.9,82.5,52,81.5,51.4"/>
<path class="st1" d="M38.1,76.3c-2.1-0.2-4.5-1.1-4.3-3.4c0.1-1.8,2.6-3.1,6.5-2.8c1.6,0.1,4.4,0.8,4.2,3.3  C44.3,76,40.4,76.5,38.1,76.3 M35.1,55.5c0.8-0.8,1.7-1.1,2.8-1.1c1.2,0,2.1,0.4,2.9,1.1c0.8,0.7,1.2,1.6,1.2,2.7  c0,1.1-0.4,2-1.2,2.7c-0.8,0.7-1.7,1.1-2.9,1.1c-1.2,0-2.1-0.3-2.9-1s-1.1-1.6-1.1-2.6C33.9,57.1,34.3,56.2,35.1,55.5 M41.3,66.8  c-1.7-0.1-3.3-0.1-4.7,0.2v-2c0.4,0.1,0.8,0.1,1.3,0.1c2.3,0,4-0.6,4.6-1c0.8-0.5,1.8-1.3,2.4-2.4c0.6-1,0.9-2.1,0.9-3.2  c0-0.9-0.2-1.6-0.5-2.3c-0.3-0.6-0.7-1.2-1.4-2h3V54h0v-3.2h-7.6c-2.8,0-5,0.6-6.6,1.9c-1.6,1.3-2.4,3-2.4,5.2c0,2.5,1,4.4,3,5.7  v4.4c-2.1,1.1-3.4,2.8-3.6,4.7c-0.4,4.7,3.9,6.6,7.6,6.9c4,0.3,11-0.7,11.4-6.3C49.1,68.4,44.2,67,41.3,66.8"/>
<g>
</g>
<g>
</g>
<g>
</g>
<g>
</g>
<g>
</g>
<g>
</g>
<g>
</g>
<g>
</g>
<g>
</g>
<g>
</g>
<g>
</g>
<g>
</g>
<g>
</g>
<g>
</g>
<g>
</g>
</svg>