<svg xmlns="http://www.w3.org/2000/svg" width="134" height="72" viewBox="0 0 134 72">
  <g fill="#FF6122" fill-rule="evenodd">
    <path d="M0 4C0 1.79 1.798 0 4 0L68 0C70.21 0 72 1.798 72 4L72 68C72 70.21 70.202 72 68 72L4 72C1.79 72 0 70.202 0 68L0 4zM8.89 66.08C6.29 66.08 3.946 64.424 3.946 60.806 3.946 57.189 6.291 55.534 8.891 55.534 11.491 55.534 13.834 57.189 13.834 60.806 13.834 64.424 11.492 66.079 8.894 66.079L8.89 66.08zM8.89 57.757C6.925 57.757 6.566 59.527 6.566 60.807 6.566 62.085 6.926 63.859 8.891 63.859 10.858 63.859 11.217 62.083 11.217 60.804 11.217 59.524 10.857 57.754 8.893 57.754L8.89 57.757zM15.636 55.797L18.138 55.797 18.138 56.972C18.615 56.338 19.79 55.592 20.891 55.592 20.997 55.592 21.126 55.592 21.234 55.606L21.234 58.076 21.104 58.076C19.962 58.076 18.711 58.254 18.307 59.143L18.307 65.788 15.637 65.788 15.637 55.798 15.636 55.797zM28.22 64.92C27.202 65.587 26.1 65.912 24.915 65.912 23.051 65.912 21.945 64.672 21.945 63.006 21.945 60.768 24.002 59.586 28.24 59.109L28.24 58.549C28.24 57.825 27.69 57.399 26.672 57.399 25.654 57.399 24.829 57.804 24.232 58.549L22.459 57.539C23.389 56.236 24.806 55.584 26.712 55.584 29.318 55.584 30.782 56.714 30.782 58.55 30.782 58.55 30.779 65.775 30.782 65.79L28.452 65.79 28.217 64.918 28.22 64.92zM24.536 62.814C24.536 63.486 24.956 64.114 25.721 64.114 26.548 64.114 27.351 63.772 28.159 63.061L28.159 60.697C25.702 61 24.539 61.634 24.539 62.817L24.536 62.814zM32.862 56.064L35.04 55.764 35.28 56.949C36.507 56.049 37.483 55.569 38.71 55.569 40.766 55.569 41.83 56.659 41.83 58.822L41.83 65.777 39.197 65.777 39.197 59.277C39.197 58.054 38.88 57.503 37.929 57.503 37.143 57.503 36.359 57.859 35.463 58.611L35.463 65.776 32.86 65.776 32.86 56.06 32.862 56.064zM52.955 55.762L52.955 65.222C52.955 66.889 52.822 69.645 48.065 69.67 46.1 69.684 44.278 68.896 43.915 67.182L46.508 66.762C46.616 67.255 46.918 67.742 48.39 67.742 49.752 67.742 50.407 67.092 50.407 65.53L50.407 64.366 50.373 64.331C49.953 65.081 49.32 65.791 47.793 65.791 45.463 65.791 43.629 64.173 43.629 60.796 43.629 57.454 45.519 55.582 47.642 55.579 49.639 55.576 50.374 56.485 50.548 56.963L50.512 56.96 50.732 55.764 52.952 55.764 52.955 55.762zM48.265 63.642C50.257 63.627 50.428 61.595 50.428 60.275 50.428 58.705 49.665 57.441 48.248 57.441 47.302 57.441 46.246 58.131 46.246 60.385 46.246 61.615 46.334 63.66 48.264 63.643L48.265 63.642zM59.242 65.972C56.297 65.972 54.542 64.075 54.542 60.789 54.542 57.462 56.318 55.569 59.2 55.569 62.082 55.569 63.797 57.406 63.797 60.654 63.797 60.828 63.777 60.999 63.777 61.17L57.123 61.17C57.141 63.067 57.928 64.02 59.475 64.02 60.469 64.02 61.127 63.62 61.745 62.743L63.668 63.809C62.821 65.226 61.295 65.969 59.242 65.969L59.242 65.972zM61.215 59.468C61.215 58.133 60.448 57.346 59.2 57.346 58.012 57.346 57.27 58.116 57.165 59.468L61.215 59.468zM62.217 52.006L62.217 52.446 63.249 52.446 63.249 55.31 63.794 55.31 63.794 52.445 64.829 52.445 64.829 52.005 62.216 52.005 62.217 52.006zM68.297 52.006L67.33 54.512 66.344 52.006 65.5 52.006 65.5 55.31 66.047 55.31 66.047 52.553 66.061 52.553 67.147 55.31 67.497 55.31 68.572 52.553 68.592 52.553 68.592 55.31 69.134 55.31 69.134 52.006 68.3 52.006 68.297 52.006zM82.92 61.672C83.0266672 61.8746677 83.1293328 62.0853322 83.228 62.304 83.3266672 62.5226678 83.4213329 62.7466655 83.512 62.976 83.6026671 62.7413322 83.6986662 62.5133344 83.8 62.292 83.9013338 62.0706656 84.0053328 61.856001 84.112 61.648L87.104 55.76C87.1573336 55.6586662 87.2119997 55.5800003 87.268 55.524 87.3240003 55.4679997 87.3866663 55.4266668 87.456 55.4 87.5253337 55.3733332 87.6039996 55.3573334 87.692 55.352 87.7800004 55.3466666 87.8826661 55.344 88 55.344L90.064 55.344 90.064 67 87.68 67 87.68 60.296C87.68 59.970665 87.6959998 59.6186686 87.728 59.24L84.64 65.232C84.5439995 65.4186676 84.4146675 65.5599995 84.252 65.656 84.0893325 65.7520005 83.904001 65.8 83.696 65.8L83.328 65.8C83.119999 65.8 82.9346675 65.7520005 82.772 65.656 82.6093325 65.5599995 82.4800005 65.4186676 82.384 65.232L79.28 59.232C79.3013334 59.4186676 79.3173333 59.6039991 79.328 59.788 79.3386667 59.9720009 79.344 60.1413326 79.344 60.296L79.344 67 76.96 67 76.96 55.344 79.024 55.344C79.1413339 55.344 79.2439996 55.3466666 79.332 55.352 79.4200004 55.3573334 79.4986663 55.3733332 79.568 55.4 79.6373337 55.4266668 79.6999997 55.4679997 79.756 55.524 79.8120003 55.5800003 79.8666664 55.6586662 79.92 55.76L82.92 61.672zM102.988 61.168C102.988 62.0106709 102.842668 62.794663 102.552 63.52 102.261332 64.245337 101.852003 64.8759973 101.324 65.412 100.795997 65.9480027 100.160004 66.3679985 99.416 66.672 98.6719963 66.9760015 97.8466712 67.128 96.94 67.128 96.0333288 67.128 95.2066704 66.9760015 94.46 66.672 93.7133296 66.3679985 93.0746693 65.9480027 92.544 65.412 92.0133307 64.8759973 91.6026681 64.245337 91.312 63.52 91.0213319 62.794663 90.876 62.0106709 90.876 61.168 90.876 60.3253291 91.0213319 59.541337 91.312 58.816 91.6026681 58.090663 92.0133307 57.461336 92.544 56.928 93.0746693 56.394664 93.7133296 55.9760015 94.46 55.672 95.2066704 55.3679985 96.0333288 55.216 96.94 55.216 97.8466712 55.216 98.6719963 55.3693318 99.416 55.676 100.160004 55.9826682 100.795997 56.402664 101.324 56.936 101.852003 57.469336 102.261332 58.098663 102.552 58.824 102.842668 59.549337 102.988 60.3306625 102.988 61.168zM100.22 61.168C100.22 60.5919971 100.145334 60.0733356 99.996 59.612 99.8466659 59.1506644 99.6320014 58.7600016 99.352 58.44 99.0719986 58.1199984 98.7293354 57.8746675 98.324 57.704 97.9186646 57.5333325 97.4573359 57.448 96.94 57.448 96.4173307 57.448 95.952002 57.5333325 95.544 57.704 95.135998 57.8746675 94.7920014 58.1199984 94.512 58.44 94.2319986 58.7600016 94.0173341 59.1506644 93.868 59.612 93.7186659 60.0733356 93.644 60.5919971 93.644 61.168 93.644 61.7493362 93.7186659 62.2706644 93.868 62.732 94.0173341 63.1933356 94.2319986 63.5839984 94.512 63.904 94.7920014 64.2240016 95.135998 64.4679992 95.544 64.636 95.952002 64.8040008 96.4173307 64.888 96.94 64.888 97.4573359 64.888 97.9186646 64.8040008 98.324 64.636 98.7293354 64.4679992 99.0719986 64.2240016 99.352 63.904 99.6320014 63.5839984 99.8466659 63.1933356 99.996 62.732 100.145334 62.2706644 100.22 61.7493362 100.22 61.168zM103.784 67L103.784 55.344 108.072 55.344C108.877337 55.344 109.562664 55.4186659 110.128 55.568 110.693336 55.7173341 111.154665 55.9279986 111.512 56.2 111.869335 56.4720014 112.129333 56.8026647 112.292 57.192 112.454667 57.5813353 112.536 58.0159976 112.536 58.496 112.536 58.7573346 112.498667 59.0093321 112.424 59.252 112.349333 59.4946679 112.232001 59.7226656 112.072 59.936 111.911999 60.1493344 111.706668 60.3426658 111.456 60.516 111.205332 60.6893342 110.904002 60.8399994 110.552 60.968 111.320004 61.1546676 111.887998 61.4573312 112.256 61.876 112.624002 62.2946688 112.808 62.8319967 112.808 63.488 112.808 63.9840025 112.712001 64.4453312 112.52 64.872 112.327999 65.2986688 112.046669 65.6706651 111.676 65.988 111.305331 66.3053349 110.848003 66.5533324 110.304 66.732 109.759997 66.9106676 109.13867 67 108.44 67L103.784 67zM106.488 62.056L106.488 64.96 108.392 64.96C108.749335 64.96 109.041332 64.9146671 109.268 64.824 109.494668 64.7333329 109.671999 64.6160007 109.8 64.472 109.928001 64.3279993 110.016 64.1653342 110.064 63.984 110.112 63.8026658 110.136 63.6186676 110.136 63.432 110.136 63.2186656 110.108 63.0266675 110.052 62.856 109.996 62.6853325 109.900001 62.5413339 109.764 62.424 109.627999 62.3066661 109.448001 62.2160003 109.224 62.152 108.999999 62.0879997 108.717335 62.056 108.376 62.056L106.488 62.056zM106.488 60.248L107.896 60.248C108.194668 60.248 108.463999 60.2266669 108.704 60.184 108.944001 60.1413331 109.147999 60.0666672 109.316 59.96 109.484001 59.8533328 109.612 59.7066676 109.7 59.52 109.788 59.3333324 109.832 59.0986681 109.832 58.816 109.832 58.5386653 109.797334 58.3080009 109.728 58.124 109.658666 57.9399991 109.552001 57.7920006 109.408 57.68 109.263999 57.5679994 109.081334 57.4880002 108.86 57.44 108.638666 57.3919998 108.376002 57.368 108.072 57.368L106.488 57.368 106.488 60.248zM116.74 67L114.02 67 114.02 55.344 116.74 55.344 116.74 67zM121.104 64.84L125.424 64.84 125.424 67 118.4 67 118.4 55.344 121.104 55.344 121.104 64.84zM133.708 55.344L133.708 57.424 128.924 57.424 128.924 60.144 132.588 60.144 132.588 62.144 128.924 62.144 128.924 64.92 133.708 64.92 133.708 67 126.204 67 126.204 55.344 133.708 55.344z"/>
  </g>
</svg>
