<svg id="Layer_1" data-name="Layer 1" xmlns="http://www.w3.org/2000/svg" viewBox="0 0 640 280">
  <title>red</title>
  <g fill="#00E791">
    <path d="M436.72,131.63v-8.24c.09-15,.18-29.09-11.53-40.8-7.13-7.13-17.49-10.89-30-10.89H353V93.26H305.62v23.92H353v21.57H305.62v23.92H353v21.56h42.18c12.48,0,22.84-3.77,30-10.89C436.9,161.64,436.81,147.06,436.72,131.63Zm-28.26,24.69c-3.63,4.38-8.28,6.34-15.1,6.34H377V93.26h16.38c6.82,0,11.47,2,15.09,6.33,3.21,4,4.35,8.76,4.35,27.9C412.8,144,412.2,151.71,408.46,156.32Z"/>
    <path d="M262.29,184.24H289.1l-22.93-45.4c12.37-5.15,20-18.08,20-31.8,0-20.87-15.78-35.33-37.85-35.33H203.27V184.24H227.2V143h14.24Zm-35.09-91h20.09c9,0,15,5.68,15,14,0,9.22-6,14.17-15,14.17H227.2Z"/>
    <g>
      <path d="M360.13,201.87a2.89,2.89,0,0,0,1.41-1.09,3.51,3.51,0,0,0,.54-1.88,2.57,2.57,0,0,0-1.28-2.37,5.48,5.48,0,0,0-2.49-.37h-3.8L353,208.06h4.73a5.12,5.12,0,0,0,2.77-.52,3.48,3.48,0,0,0,1.8-3.12,2.59,2.59,0,0,0-.8-1.95A2.93,2.93,0,0,0,360.13,201.87Zm-2.91-3.34h.56a1.91,1.91,0,0,1,1,.14,1,1,0,0,1,.45.93c0,.93-.56,1.32-1.86,1.32h-.43Zm1.54,6.8c-.34.29-.68.36-1.59.36h-.82l.32-2.61h.91a2.5,2.5,0,0,1,1.21.16,1.06,1.06,0,0,1,.47,1A1.4,1.4,0,0,1,358.75,205.33Z"/>
      <path d="M371.55,199.12a7.22,7.22,0,0,0-.59.94,12.57,12.57,0,0,0-.67-1.73l-.1-.27-.82-1.91H366l3,6.61-.66,5.3h3l.64-5.22,5.2-6.69h-3.68Z"/>
      <path d="M389.53,198.42a3.53,3.53,0,0,1,2.07.88l1.32-2.29a6.17,6.17,0,0,0-3.46-1.09c-2.56,0-4.38,1.59-4.38,3.8,0,1.54.64,2.34,2.75,3.39,1.1.55,1.39.82,1.39,1.36,0,.73-.65,1.2-1.63,1.2a4.21,4.21,0,0,1-2.48-1L383.76,207a6.87,6.87,0,0,0,4,1.31,4.51,4.51,0,0,0,3.3-1.18,3.94,3.94,0,0,0,1.25-2.89c0-1.59-.66-2.43-2.64-3.34-1.23-.57-1.52-.86-1.52-1.45S388.71,198.42,389.53,198.42Z"/>
      <polygon points="396.45 208.06 399.47 208.06 400.04 203.42 403.47 203.42 403.79 200.8 400.36 200.8 400.61 198.78 404.38 198.78 404.7 196.16 397.91 196.16 396.45 208.06"/>
      <path d="M416.29,202.49a3.73,3.73,0,0,0,1-2.64,3.52,3.52,0,0,0-1.3-3,4.77,4.77,0,0,0-2.91-.7h-3.87l-1.46,11.91h3l.57-4.73,2.86,4.73h3.5l-2.93-4.62A3.31,3.31,0,0,0,416.29,202.49ZM412,201.6h-.53l.38-3.07h.57c1.3,0,1.71.36,1.71,1.45S413.47,201.6,412,201.6Z"/>
    </g>
  </g>
</svg>
