<svg xmlns="http://www.w3.org/2000/svg" viewBox="0 0 339 56"><path d="M133.66 45.312l-28.76-.02V32.37c0-1.725 1.45-3.192 3.17-3.192h25.59c4.46 0 8.06 3.61 8.06 8.048 0 4.488-3.6 8.097-8.06 8.097M104.9 9.567l28.89.033c4.05 0 7.33 3.285 7.33 7.34 0 4.032-3.28 7.312-7.33 7.312h-26.16c-.95.07-1.89.285-2.73.647V9.566zm36.27 17.1c2.93-2.234 4.86-5.756 4.86-9.75 0-6.75-5.49-12.25-12.25-12.25L99.693 4.65v45.557h33.967c7.16 0 12.96-5.812 12.96-12.992 0-4.35-2.15-8.19-5.45-10.548m151.36.802c-1.1 0-2.14.224-3.1.615l-.1-18.518 28.55-.01c4.95 0 8.96 3.993 8.96 8.954 0 4.956-4.01 8.975-8.96 8.975l-25.4-.02zm39.91 17.842c-1.25 1.007-3.03.804-4.12-.35l-9.97-12.654c7.45-.23 13.4-6.326 13.4-13.808 0-7.658-6.2-13.85-13.85-13.85h-33.73V50.21h5.21l.1-14.843c.1-1.654 1.46-3.032 3.15-3.032h19.19l12.46 15.827c2.87 3.39 7.9 3.955 11.4 1.204l-3.19-4.057zm-133.64-.317V32.562c0-1.707 1.45-3.11 3.14-3.142h22.65v-5.24h-22.73a8.21 8.21 0 0 0-3.06.66V9.863h36.98V4.65h-42.23v45.557h43.76v-5.212H198.8zM47.74 4.76V31.3c0 9.08-4.38 14.448-17.537 14.448-13.195 0-17.6-5.367-17.6-14.448V12.644C12.436 8.222 8.81 4.67 4.364 4.67v5.15c1.612 0 2.894 1.252 3.046 2.824v20.468c0 10.52 8.25 17.998 22.792 17.998 14.52 0 22.738-7.478 22.738-17.998V4.762h-5.2z"/></svg>