<svg width="80" height="76" viewBox="0 0 80 76" xmlns="http://www.w3.org/2000/svg"><title>virgin</title><path d="M29.538 0c1.477.006 2.25 1.16 2.528 1.54.13.385.236.772.37 1.56.02.16.03.256.03.418 0 .644-.158 1.012-.396 1.61-.207.52-.297.847-.678 1.26-.555.6-.947.78-1.11 1-.073.102-.644.63-.808.873-.165.245-.806 1.245-1.065 1.793-.213.45-.19 1.194-.942 2.232-.307.425-.568.635-.73 1.134-.166.503-.163.835-.43 1.29-.494.828-.945 1.186-1.352 2.056-.39.842-.406 1.387-.667 2.27-.278.926-.913 1.293-1.01 2.248-.052.448.05.712 0 1.168-.148 1.372-1.1 1.863-1.78 3.07-.25.446-.25.775-.333 1.286-.112.712-.232 1.1-.457 1.785-.384 1.155-.35 1.877-.577 3.07-.15.784-.24 1.232-.367 2.015-.065.41-.308.61-.308 1.03l.004.4c0 .27-.168.402-.184.676-.048.616-.158.954-.242 1.564-.418 3.076-.99 4.733-1.735 7.745-.27 1.09-.263 1.738-.514 2.824-.188.81-.365 1.26-.43 2.094-.048.66-.04 1.03-.086 1.69-.056.757.032 1.19.032 1.95.003.44-.035.687-.088 1.123-.312 2.48-.853 4.295-.908 6.358v1.356l-.21 1.966v.335c.006 1.045-.957 2.06-1.886 2.06-1.26-.003-1.664-1.324-1.867-2.647-.127-.83-.262-1.308-.38-2.144-.065-.474-.29-.684-.397-1.144-.033-.16-.023-.258-.046-.4-.025-.14-.51-2.357-.883-3.847-.312-1.232-.648-3.527-.7-3.582-.064-.065-.225-.955-.296-1.83-.04-.518-.23-1.062-.27-1.29-.035-.253.06-.398.02-.65-.116-.696-.156-1.096-.31-1.78-.155-.657-.236-1.002-.346-1.692v-.276c-.086-1.207-.47-2.622-.683-4.305-.095-.76-.057-1.204-.125-1.965-.058-.605-.103-1.425-.386-1.537-.39-.152-.518.41-.663.702-.32.64-.506.994-.773 1.66-.378.955-.51 1.523-.942 2.458-.48 1.034-.655 1.65-1.093 2.708-.343.833-.887 1.577-1.68 1.597-.67.015-1.355-.73-1.387-1.348-.033-.494.225-1.6.56-2.503.356-.944.623-1.69.83-2.46.216-.822.35-1.054.577-1.928.287-1.135.728-1.89 1.04-3.018.368-1.332.73-1.94 1.165-3.253.203-.616.348-1.057.516-1.69.082-.296.39-1.19.58-1.967.15-.606.266-1.25.427-1.538.32-.483.87-.606 1.457-.602 1.236 0 2.07.644 2.083 1.87.01.815-.11 1.783.042 2.61.01.566.092.343.176.894.34 2.164.49 2.44.665 4.147.217.983.368 2.756.368 2.756 0 .694.258 1.887.416 2.56.148.665-.006.93.24 1.967.183.8.3 1.817.32 2.09.027.352.114 1.022.176 1.37.04.255.093.803.258 1.655.196.583.13 1.07.403 1.693.068.164.168.344.35.344.153.004.3-.238.405-.447.36-.678.33-1.106.59-1.832.33-.91.47-1.513.613-2.4.238-1.015.483-2.943.94-4.79.465-1.868.646-2.94 1.004-4.825.248-1.29.512-2.07.736-3.29.13-.58.302-.904.3-1.504.048-.345.148-.56.215-.922.245-1.28.468-2.196.578-3.29v-.302c.058-.23.142-.76.43-1.325.3-.913.59-1.397 1.102-2.21.76-1.21.648-2.14 1.1-3.5.064-.104.402-.85.476-1.432.072-.074.262-.488.342-.968.175-.2.92-3.337 1.44-4.604.027-.308.292-.702.434-1.14.126-.416.867-2.31 1.212-3.466.29-.935.2-1.536.584-2.43.412-.953.664-2.02.764-2.55.236-.586.464-.89.83-1.41.52-.752.856-1.24 1.707-1.575.398-.153.67-.32 1.088-.32zm25.07 15.458c.935.003 1.886.628 1.85 1.564-.032.747-.267.896-.43 1.167-.253.418-.156 1.117-1.582 1.256-.75-.004-1.68-.864-1.68-1.835-.002-1.095.742-2.152 1.842-2.152zm9.27 3.2c1.306.005 1.967 1.288 1.93 2.71-.002.132-.047.203-.047.338 0 .362.053.562.053.923 0 .335-.116 1.227-.116 1.227 0 .693-.21 1.074-.21 1.767 0 .196.058.31.058.506 0 .397-.058.62-.09 1.016-.08.973.58 1.038.8 1.486.467.217.7.623 1.234.623.244.003.995-.316 1.198-.384.977-.43 1.545-.663 2.486-1.163 1.458-.768 2.058-1.39 3.48-2.28.938-.6 1.812-1.192 2.928-1.19.925 0 1.793.69 2.053 1.328.123.31.3.707.3 1.116 0 .15.065.227.065.373 0 .212-.006.338-.03.55-.067.604-.054.974-.273 1.535-.23.58-.62.79-1.138 1.136-.578.393-1.05.58-1.756.58h-.37c-.494-.003-.712-.154-1.21-.154-.78 0-1.257.315-1.95.663-.83.41-1.77.945-2.058 1.084-.812.38-2.47 1.26-3.99 2.17-3.122 1.864-5.28 2.86-8.3 4.865-1.17.78-1.49 1.158-2.732 1.812-.764.41-1.292.49-2.025.952-1.242.78-1.91 1.328-2.922 2.396-.893.757-2.173 2.08-3.26 2.63-1.007.513-2.16 1.464-2.88 2.332-.147.18-.85.628-.944 1.69l.23 2.91c.002.556-.256.92-.22 1.575l.032 2.053c.003.77.26.85.26 1.492l.024.82c0 .967.383 1.47.4 2.43-.094 1.042.012 1.5.038 2.493.03.968.17 1.55.406 2.486.172.7.113 1.08.42 1.722.442.958.638 1.49 1.11 2.435.318.632.512 1.15.512 1.858.003 1.38-1.1 2.24-2.58 2.395-.132.016-1.264.02-1.726-.286-.576-.397-.738-1.146-.773-1.84-.042-.963-.02-1.324-.18-2.307.01-.51-.123-.79-.256-1.274-.292-1.1-.498-1.728-.524-2.863-.03-1.458.087-2.28.087-3.74-.06-.964-.136-1.51-.252-2.467-.12-.948-.305-1.5-.417-2.444-.194-1.596-.194-2.49-.284-4.095-.03-.394-.03-.603-.072-.993-.007-.484-.213-.716-.532-.72-.66 0-.942.484-1.515.81-.796.445-1.206.874-1.88 1.49-1.36 1-1.928 1.573-3.028 2.77-.724.786-1.066 1.318-1.87 2.024-.648.568-1.07.845-1.688 1.44-.51.49-.684.88-1.075 1.478-.353.53-.687.742-1.168 1.16-1.745 1.536-2.08 1.478-4.233 4.203-.634.8-1.1.91-1.26 1.175-.03.055-.744.64-1 .894-.356.354-.9.875-1.21 1.12-.688.552-.936 1.045-1.597 1.63-.75.657-1.222 1.06-2.18 1.376-.445.145-.618.306-1.093.306-.98 0-1.648-.93-1.65-1.908 0-.623.31-.855.676-1.352.71-.96 1.19-1.46 2.087-2.238 1.47-1.292 1.99-2.383 3.62-3.47.568-.376 1.993-1.163 2.38-1.46.662-.513 1.245-1.076 1.768-1.727.23-.294.487-.372.706-.675.232-.325.31-.564.585-.86.62-.67 1.09-.945 1.84-1.47.978-.684 1.533-.988 2.458-1.746.658-.535.945-1 1.47-1.66 1.045-1.303 2.025-1.65 3.38-2.637.628-.46.828-.9 1.32-1.504.266-.332 1.162-1.483 2.056-2.27.596-.525.96-.796 1.564-1.32 1.037-.896 1.402-.573 1.377-1.947 0-.24.063-.568-.29-.542-.33.03-.417.307-.66.522-.51.45-.824.675-1.505.665-1.39-.026-2.27-1.267-2.31-1.35-.395-.778-1.03-3.14-1.056-3.87 0 0-.045-.98 0-1.54.052-.7.232-1.975.668-2.736.24-.42.454-2.084.748-3.618.106-.56.415-1.127.596-1.668.258-.78.383-1.255.854-1.93.833-1.19 1.293-2.536 2.748-2.53.325 0 .474.08.767.223.187.1.397.135.51.31.1.158.006.3.158.416.274.213.4.648.4 1.08 0 .248 0 .393-.03.635-.11.98-.702 1.377-1.318 2.147-.597.752-.742.997-1.12 1.88-.305.72-.38 1.464-.53 2.232-.178.905-.333 1.712-.395 2.338-.022.2-.045.367-.045.574 0 .227.17.65.4.65.36 0 .684-.433.806-.774.29-.793.514-1.184.714-2.006.293-1.174.484-1.693.94-2.69.572-1.23.63-2.015.962-3.024.4-1.215.745-2.338 2.028-2.33.41 0 .677.002 1.032.21.804.447 1.003 1.21 1.003 2.13-.01.28-.017.448-.046.728-.297 2.75-.98 4.234-1.207 7.004-.03.39 0 .622-.034 1.013-.06.694-.217 1.07-.213 1.77 0 .314.068.487.158.782.045.157.097.34.26.34.32 0 .456-.228.723-.4.52-.324.872-.434 1.38-.77.79-.518 1.3-.728 2.062-1.283.777-.568 1.573-1.446 2.38-1.967.79-.51.89-.38 1.734-.913 1.025-.65 1.644-.983 2.612-1.713.58-.445.602-.757 1.44-1.228.807-.46 1.274-.704 2.058-1.198.42-.264.628-.467 1.074-.673.37-.175.738-.343.738-.752-.004-.41-.258-.648-.468-.997-.3-.5-.354-.776-.357-1.36 0-.29-.01-.51.036-.793.182-1.138.624-1.738.62-2.888l.036-.376c-.055-.042-.084-.093-.155-.093-.16 0-.254.207-.353.33-.297.342-.464.555-.752.903-.384.454-.63.7-.89 1.23-.15.288-.125.495-.245.798-.264.662-.454 1.055-.674 1.732-.603 1.82-.56 4.228-2.482 4.224-1.262-.003-2.287-1.006-2.29-2.267 0-.73.207-1.838.296-1.92.31-.26.062-.956.243-1.118.152-.126.21-.764.21-1.39 0-.29.08-.46.08-.748l.032-.467c0-.526.165-.8.242-1.316.155-1.047.428-1.302.516-1.6.048-.175.036-.256.097-.428.338-.95.26-1.515 1.19-2.298.332-.332.54-.687 1.012-.687 1.087.003 1.387.623 1.667.597.508-.052.676-.442 1.037-.797 1.093-1.05 1.796-2.33 3.33-2.328zm-12.143 6.708c1.035 0 2.06.384 2.032 1.71-.014.783-.423 1.163-.7 1.89-.233.598-.113 1.004-.274 1.627-.246.926-.635.83-.58 2.395.02 1.175.015 1.838-.024 3.012-.046 1.13-.975 1.925-2.106 1.94-.984.02-1.99-1.147-1.986-2.13 0-.703.2-1.08.242-1.784.032-.612-.013-.956.028-1.566.06-1.038.345-1.593.668-2.583.16-.49.15-.81.34-1.29.266-.703.344-1.1.76-1.78.18-.767.757-1.444 1.6-1.44zM23.5 29.02c.62 0 1.066.306 1.392.844.32.53.59.858.59 1.477 0 .11-.032.172-.032.278.006 1.064-.884 1.903-1.948 1.903-1.06-.006-1.835-1.092-1.832-2.02 0-.372.23-.608.268-1.014.1-.957.713-1.47 1.56-1.466zm7.783 2.87c1.09.002 1.573.9 2.108 1.85.527.922 1.114 1.422 1.114 2.473 0 1.057-.69 1.586-1.505 2.26-.464.384-.866.304-1.472.487-.278.085-.336.46-.37.796-.065.614-.11.958-.124 1.568-.026 1.02.01 1.596.013 2.61-.106.566-.013.946-.277 1.446-.422.803-1.09 1.2-2 1.196-1.054 0-1.957-.835-1.938-1.892.004-.314.137-1.264.12-2.077-.03-1.232-.126-1.93-.13-3.166-.002-.615.275-.944.275-1.566v-.52c-.016-.45.426-.86.887-1.228.66-.53.938-1.12 1.248-1.908.512-1.304.796-2.33 2.05-2.33zm-7.775 4.877c.53.007.893.197 1.203.616.504.684.817 1.19.82 2.035 0 .184-.013.283-.03.464-.082.693-.306 1.068-.676 1.658-.232.373-.238.664-.423 1.073-.347.745-.553 1.436-.582 2.03-.036 1.22-.052 1.91-.023 3.133.013.61.156.947.156 1.554.007 1.27-.738 2.56-2.008 2.56-1.258.004-2.457-1.66-2.393-3.415.028-.63.128-.98.244-1.6.187-.97.34-2.07.516-2.488.24-.555.226-.754.27-.925l.146-1.003c0-.41.16-.498.228-.9.14-.865.24-1.346.517-2.18.168-.517.404-.75.58-1.258.262-.73.685-1.355 1.458-1.355z" fill="#D72938" fill-rule="evenodd"/></svg>
