<svg xmlns="http://www.w3.org/2000/svg" width="48" height="48" viewBox="0 0 32 32">
  <g fill="none" fill-rule="evenodd" transform="translate(-96 -96)">
    <g transform="translate(96 100)">
      <path fill="#FFD799" d="M32,21.9950534 C32,23.1023548 31.1132936,24 30.0018986,24 L24,24 L24,21.5008327 C24,20.6719457 23.3342028,20 22.5,20 L22.5,20 C21.6715729,20 21,20.6785455 21,21.5008327 L21,24 L11,24 L11,21.5008327 C11,20.6719457 10.3342028,20 9.5,20 L9.5,20 C8.67157288,20 8,20.6785455 8,21.5008327 L8,24 L1.99810135,24 C0.894580447,24 -3.1977908e-13,23.1029738 -3.20884834e-13,21.9950534 L-3.40835845e-13,2.00494659 C-3.4194098e-13,0.897645164 0.889261723,2.908957e-14 2.00174332,2.90656881e-14 L29.9982567,2.84646813e-14 C31.103789,2.84409486e-14 32,0.897026226 32,2.00494659 L32,21.9950534 Z"/>
      <path fill="#FF9300" d="M17,5 L23,5 L23,6 L17,6 L17,5 Z M17,8 L28,8 L28,9 L17,9 L17,8 Z M17,11 L28,11 L28,12 L17,12 L17,11 Z M17,14 L28,14 L28,15 L17,15 L17,14 Z M9,10.75 C7.34314575,10.75 6,9.23896103 6,7.375 C6,5.51103897 7.34314575,4 9,4 C10.6568542,4 12,5.51103897 12,7.375 C12,9.23896103 10.6568542,10.75 9,10.75 Z M3,14.5 C2.99999999,13.75 4.5,11.5 6,11.5 C7.5,11.5 6.75,12.25 9,12.25 C11.25,12.25 10.5,11.5 12,11.5 C13.5,11.5 15,13.75 15,14.5 C15,15.25 15,16 14.25,16 L3.75,16 C3,16 3.00000001,15.25 3,14.5 Z"/>
    </g>
  </g>
</svg>
