<svg xmlns="http://www.w3.org/2000/svg" width="48" height="48" viewBox="0 0 48 48">
  <g fill="none" fill-rule="evenodd" transform="translate(-288 -192)">
    <g stroke-width="2" transform="translate(289 195)" stroke-linecap="round" stroke-linejoin="round">
      <g stroke="currentColor" transform="translate(8 8)">
        <path d="M30 0L30 32M24 0L24 32M6 0L6 32M0 0L0 32"/>
      </g>
      <g stroke="#95999D">
        <path d="M46 12C46 8.7 45.3 8 42 8L4 8C.7 8 0 8.7 0 12L0 36C0 39.3.7 40 4 40L42 40C45.3 40 46 39.3 46 36L46 14 46 12zM16 8L16 4C16 1.8 17.8 0 20 0L26 0C28.2 0 30 1.8 30 4L30 8"/>
      </g>
    </g>
  </g>
</svg>
