<svg xmlns="http://www.w3.org/2000/svg" viewBox="0 0 32 32"><g fill="none" fill-rule="evenodd"><path fill="#FFD799" d="M32 25.995A1.997 1.997 0 0 1 30.002 28H24v-2.5c0-.828-.666-1.5-1.5-1.5-.828 0-1.5.679-1.5 1.5V28H11v-2.5c0-.828-.666-1.5-1.5-1.5-.828 0-1.5.679-1.5 1.5V28H1.998A2.001 2.001 0 0 1 0 25.995V6.005C0 4.898.89 4 2.002 4h27.996C31.104 4 32 4.897 32 6.005v19.99z"/><path fill="#FF9300" d="M17 9h6v1h-6V9zm0 3h11v1H17v-1zm0 3h11v1H17v-1zm0 3h11v1H17v-1zm-8-3.25c-1.657 0-3-1.511-3-3.375S7.343 8 9 8s3 1.511 3 3.375-1.343 3.375-3 3.375zM3 18.5c0-.75 1.5-3 3-3s.75.75 3 .75 1.5-.75 3-.75 3 2.25 3 3 0 1.5-.75 1.5H3.75C3 20 3 19.25 3 18.5z"/></g></svg>