<?xml version="1.0" encoding="UTF-8" standalone="no"?>
<svg xmlns="http://www.w3.org/2000/svg"
  width="24"
  height="24"
  viewBox="0 0 24 24">
  <path
     d="M 12,24 C 18.627416,24 24,18.627417 24,12 24,5.372583 18.627416,0 12,0 5.372583,0 0,5.372583 0,12 0,18.627417 5.372583,24 12,24 Z M 6.707107,12.292893 c -0.3905245,-0.390524 -1.0236895,-0.390524 -1.4142141,0 -0.390524,0.390525 -0.390524,1.02369 0,1.414214 l 3.5,3.5 c 0.3905246,0.390524 1.0236896,0.390524 1.4142141,0 l 7.5,-7.5 c 0.390524,-0.3905245 0.390524,-1.0236895 0,-1.414214 -0.390525,-0.390524 -1.02369,-0.390524 -1.414214,0 L 9.5,15.085787 6.707107,12.292893 Z"
     style="fill:#2bba40;fill-rule:evenodd" />
</svg>
