<svg xmlns="http://www.w3.org/2000/svg" viewBox="0 0 16 16"><path d="M16 7.2V3c0-.6-.4-1-1-1-.5 0-.8.3-.9.7C12.6 1 10.4 0 8 0 4.9 0 2 1.8.7 4.6c-.2.5 0 1.1.5 1.3s1.1 0 1.3-.5C3.5 3.4 5.6 2 8 2c1.5 0 3 .6 4 1.5-.3 0-.6.1-.8.3-.4.4-.3 1.1.1 1.4l3 2.5h.1c.1.1.2.1.3.1h.4c.1 0 .2-.1.3-.1h.1c.1-.1.2-.1.2-.2.2 0 .2-.1.3-.3 0 .1 0 0 0 0zM14.8 10.1c-.5-.2-1.1 0-1.3.5-1 2.1-3.1 3.4-5.5 3.4-1.5 0-2.9-.6-4-1.5.3 0 .5-.1.7-.4.4-.4.3-1.1-.1-1.4l-3-2.5h-.1L1.3 8h-.1c-.2 0-.5 0-.7.1H.4c-.1.1-.1.2-.2.3-.1.1-.1.2-.2.3V13c0 .6.4 1 1 1 .5 0 .9-.3 1-.8C3.5 14.9 5.6 16 8 16c3.1 0 5.9-1.8 7.3-4.5.2-.5 0-1.1-.5-1.4z"/></svg>