<svg xmlns="http://www.w3.org/2000/svg" viewBox="0 0 48 48"><g stroke-width="2" stroke-linecap="round" stroke-linejoin="round" fill="none" fill-rule="evenodd"><path d="M35.75 19.157c-1.387 0-2.715-.203-3.941-.573l-4.51 1.04.576-3.063c-2.083-1.646-3.375-3.943-3.375-6.482C24.5 5.065 29.536 1 35.75 1S47 5.065 47 10.079c0 5.013-5.036 9.078-11.25 9.078zM31.5 7.5H38m-6.5 3H41m-9.5 3H41" stroke="currentColor"/><path stroke="#95999D" d="M32.824 24.054c-1.189.527-2.45.872-3.741 1.025a6.538 6.538 0 0 0 2.862-3.603 13.042 13.042 0 0 1-4.136 1.58A6.497 6.497 0 0 0 23.056 21a6.514 6.514 0 0 0-6.344 7.996 18.49 18.49 0 0 1-13.424-6.804 6.473 6.473 0 0 0-.881 3.274 6.51 6.51 0 0 0 2.896 5.42 6.472 6.472 0 0 1-2.95-.815v.083a6.519 6.519 0 0 0 5.223 6.386 6.55 6.55 0 0 1-2.94.112 6.525 6.525 0 0 0 6.083 4.524 13.083 13.083 0 0 1-8.088 2.787c-.52 0-1.038-.031-1.553-.091a18.443 18.443 0 0 0 9.984 2.926c11.98 0 18.53-9.924 18.53-18.531 0-.282 0-.563-.02-.843a13.287 13.287 0 0 0 3.25-3.37h.002z"/></g></svg>