<svg xmlns="http://www.w3.org/2000/svg" width="48" height="48" viewBox="0 0 48 48">
  <g fill="none" fill-rule="evenodd" transform="translate(-480 -288)">
    <g stroke-width="2" transform="translate(481 289)" stroke-linecap="round" stroke-linejoin="round">
      <g stroke="#95999D">
        <polyline points="8 4 0 4 0 46 46 46 46 4 38 4"/>
        <polygon points="14 8 8 8 8 0 14 0"/>
        <polygon points="38 8 32 8 32 0 38 0"/>
        <path d="M14 4L32 4M0 14L46 14"/>
      </g>
      <g stroke="currentColor" transform="translate(14 22)">
        <polyline points="4 16 4 0 0 4"/>
        <path d="M0,16 L8,16"/>
        <polyline points="13 16 19 0 9 0 9 2"/>
        <path d="M12,8 L18,8"/>
      </g>
    </g>
  </g>
</svg>
