<svg xmlns="http://www.w3.org/2000/svg" width="48" height="48" viewBox="0 0 48 48">
  <g fill="none" fill-rule="evenodd" transform="translate(-192 -288)">
    <g stroke-width="2" transform="translate(192 288)" stroke-linecap="round" stroke-linejoin="round">
      <g stroke="currentColor">
        <path d="M40.6132,39.8984 C44.5672,35.7664 46.9992,30.1664 46.9992,24.0004 C46.9992,11.2964 36.7032,1.0004 23.9992,1.0004 C11.2972,1.0004 0.9992,11.2964 0.9992,24.0004 C0.9992,30.1664 3.4332,35.7664 7.3872,39.8984"/>
        <path d="M11.8164,32.7266 C10.0504,30.2666 9.0004,27.2586 9.0004,24.0006 C9.0004,15.7166 15.7144,9.0006 24.0004,9.0006 C32.2824,9.0006 39.0004,15.7166 39.0004,24.0006 C39.0004,27.2586 37.9484,30.2666 36.1844,32.7266"/>
        <path d="M17.0156,24.3066 C17.0116,24.2026 16.9996,24.1006 16.9996,24.0006 C16.9996,20.0846 20.1996,17.0006 23.9996,17.0006 C27.8076,17.0006 30.9996,20.0906 30.9996,24.0006 C30.9996,24.1006 30.9876,24.2026 30.9836,24.3066"/>
      </g>
      <g stroke="#95999D" transform="translate(14 22)">
        <polygon points="0 25 20 25 10 5"/>
        <path d="M10 5L10 1M.041 25L15.001 15M20 25L5 15M6.541 12L13.459 12"/>
      </g>
    </g>
  </g>
</svg>
