<svg xmlns="http://www.w3.org/2000/svg" viewBox="0 0 48 48"><g stroke-width="2" stroke-linecap="round" stroke-linejoin="round" fill="none" fill-rule="evenodd"><g stroke="#95999D"><path d="M19 26l26.672 9.528A1.998 1.998 0 0 1 47 37.41V42H1V28a2 2 0 0 1 2-2h2c0 1.658 3.512 3 7 3 4.418 0 7-1.342 7-3h0zM1 38h46M24.15 27.84L22 30m5.84-.842L26 31"/><path d="M35 31.715C35 32.82 34.104 34 33 34h-6c-1.658 0-3 1.342-3 3v1M7 38c0-3.312-2.688-6-6-6"/></g><g stroke="currentColor"><path d="M29 22L2.326 12.472A1.993 1.993 0 0 1 1 10.592V6h46v14a2 2 0 0 1-2 2h-2c0-1.656-3.516-3-7-3-4.42 0-7 1.344-7 3h0zm18-12H1m22.848 10.16L26 18m-5.844.842L22 17"/><path d="M13 16.285c0-1.104.894-2.286 2-2.286h6a3 3 0 0 0 3-3v-1M41 10c0 3.314 2.684 6 6 6"/></g></g></svg>