<svg xmlns="http://www.w3.org/2000/svg" xmlns:xlink="http://www.w3.org/1999/xlink" viewBox="0 0 16 16"><defs><path id="a" d="M2.032 9.205a.48.48 0 0 1-.48-.476c-.002-.176-.064-1.045-1.04-1.045a.479.479 0 0 1 0-.958c.17-.003 1.042-.065 1.042-1.042a.479.479 0 1 1 .958 0c.002.171.065 1.042 1.042 1.042a.479.479 0 1 1 0 .958c-.172.002-1.042.065-1.042 1.042a.479.479 0 0 1-.48.479zm12 2a.479.479 0 0 1-.48-.477c-.003-.175-.066-1.044-1.041-1.044a.479.479 0 1 1 0-.958c.17-.003 1.042-.065 1.042-1.042a.479.479 0 1 1 .957 0c.003.171.066 1.042 1.042 1.042a.479.479 0 0 1 0 .958c-.17.003-1.042.065-1.042 1.042a.48.48 0 0 1-.479.479zM7.031 6a.531.531 0 0 1-.531-.531A1.94 1.94 0 0 0 4.563 3.53a.531.531 0 0 1 0-1.062A1.94 1.94 0 0 0 6.501.53a.531.531 0 0 1 1.062 0A1.94 1.94 0 0 0 9.5 2.47a.532.532 0 0 1 0 1.062A1.94 1.94 0 0 0 7.563 5.47a.531.531 0 0 1-.531.53zM6 3c.39.27.73.61 1 1 .27-.39.61-.73 1-1a3.96 3.96 0 0 1-1-1c-.27.39-.61.73-1 1zm3 13a.531.531 0 0 1-.532-.53 1.94 1.94 0 0 0-1.937-1.938.531.531 0 1 1 0-1.063 1.939 1.939 0 0 0 1.937-1.937.532.532 0 1 1 1.063 0 1.94 1.94 0 0 0 1.938 1.937.531.531 0 0 1 0 1.063A1.94 1.94 0 0 0 9.53 15.47.532.532 0 0 1 9 16zm-1-3c.39.27.73.61 1 1 .27-.39.61-.73 1-1a3.96 3.96 0 0 1-1-1c-.27.39-.61.73-1 1z"/></defs><g fill="none" fill-rule="evenodd"><mask id="b" fill="#fff"><use xlink:href="#a"/></mask><use fill="#297EF1" fill-rule="nonzero" xlink:href="#a"/><g mask="url(#b)"><path d="M0 0h16v16H0z"/></g></g></svg>