<?xml version="1.0" encoding="utf-8"?>
<!-- Generator: Adobe Illustrator 22.1.0, SVG Export Plug-In . SVG Version: 6.00 Build 0)  -->
<svg version="1.1" id="Layer_1" xmlns="http://www.w3.org/2000/svg" xmlns:xlink="http://www.w3.org/1999/xlink" x="0px" y="0px"
	 viewBox="0 0 16 16" style="enable-background:new 0 0 16 16;" xml:space="preserve">
<title>icons/16/sync</title>
<desc>Created with Sketch.</desc>
<g>
	<path d="M16,7.2c0-0.1,0-0.1,0-0.2V3c0-0.6-0.4-1-1-1c-0.5,0-0.8,0.3-0.9,0.7C12.6,1,10.4,0,8,0C4.9,0,2,1.8,0.7,4.6
		c-0.2,0.5,0,1.1,0.5,1.3s1.1,0,1.3-0.5C3.5,3.4,5.6,2,8,2c1.5,0,3,0.6,4,1.5c-0.3,0-0.6,0.1-0.8,0.3c-0.4,0.4-0.3,1.1,0.1,1.4
		l3,2.5c0,0,0,0,0,0c0,0,0,0,0.1,0c0.1,0.1,0.2,0.1,0.3,0.1c0,0,0.1,0,0.1,0c0.1,0,0.2,0,0.3,0c0,0,0,0,0,0c0,0,0,0,0,0
		c0.1,0,0.2-0.1,0.3-0.1c0,0,0,0,0.1,0c0.1-0.1,0.2-0.1,0.2-0.2c0,0,0,0,0,0C15.9,7.5,15.9,7.4,16,7.2C16,7.3,16,7.2,16,7.2z"/>
	<path d="M14.8,10.1c-0.5-0.2-1.1,0-1.3,0.5c-1,2.1-3.1,3.4-5.5,3.4c-1.5,0-2.9-0.6-4-1.5c0.3,0,0.5-0.1,0.7-0.4
		c0.4-0.4,0.3-1.1-0.1-1.4l-3-2.5c0,0,0,0,0,0c0,0-0.1,0-0.1,0C1.4,8.1,1.4,8.1,1.3,8c0,0-0.1,0-0.1,0C1,8,0.7,8,0.5,8.1
		c0,0-0.1,0-0.1,0C0.3,8.2,0.3,8.3,0.2,8.4c0,0,0,0,0,0C0.1,8.5,0.1,8.6,0,8.7c0,0,0,0.1,0,0.1C0,8.9,0,8.9,0,9v4c0,0.6,0.4,1,1,1
		c0.5,0,0.9-0.3,1-0.8C3.5,14.9,5.6,16,8,16c3.1,0,5.9-1.8,7.3-4.5C15.5,11,15.3,10.4,14.8,10.1z"/>
</g>
</svg>
