<svg xmlns="http://www.w3.org/2000/svg" width="16" height="16" viewBox="0 0 16 16">
  <g fill="none" fill-rule="evenodd" transform="translate(-384 -192)">
    <path fill="#95999D" d="M391.863781,202.663248 C391.908901,202.665518 391.954316,202.666667 392,202.666667 C393.472759,202.666667 394.666667,201.472759 394.666667,200 C394.666667,199.954316 394.665518,199.908901 394.663248,199.863781 L395.88466,196.68811 C396.080633,196.178579 395.825929,195.917633 395.31189,196.11534 L392.136219,197.336752 C392.091099,197.334482 392.045684,197.333333 392,197.333333 C390.527241,197.333333 389.333333,198.527241 389.333333,200 C389.333333,200.045684 389.334482,200.091099 389.336752,200.136219 L388.11534,203.31189 C387.919367,203.821421 388.174071,204.082367 388.68811,203.88466 L391.863781,202.663248 Z M392,208 C387.581722,208 384,204.418278 384,200 C384,195.581722 387.581722,192 392,192 C396.418278,192 400,195.581722 400,200 C400,204.418278 396.418278,208 392,208 Z M392,201.333333 C391.26362,201.333333 390.666667,200.73638 390.666667,200 C390.666667,199.26362 391.26362,198.666667 392,198.666667 C392.73638,198.666667 393.333333,199.26362 393.333333,200 C393.333333,200.73638 392.73638,201.333333 392,201.333333 Z"/>
  </g>
</svg>
