<svg xmlns="http://www.w3.org/2000/svg" width="48" height="48" viewBox="0 0 48 48">
  <g fill="none" fill-rule="evenodd" transform="translate(-96 -288)">
    <g stroke-width="2" transform="translate(97 294)" stroke-linecap="round" stroke-linejoin="round">
      <g stroke="#95999D" transform="translate(0 20)">
        <path d="M18 0L44.672 9.528C45.466 9.81 46 10.564 46 11.41L46 16 0 16 0 2C0 .896.894 0 2 0L4 0C4 1.658 7.512 3 11 3 15.418 3 18 1.658 18 0L18 0zM0 12L46 12M23.1504 1.8398L21.0004 3.9998M26.8398 3.1582L24.9998 5.0002"/>
        <path d="M34 5.7148C34 6.8208 33.104 8.0008 32 8.0008L26 8.0008C24.342 8.0008 23 9.3428 23 11.0008L23 12.0008M6 12C6 8.688 3.312 6 0 6"/>
      </g>
      <g stroke="currentColor">
        <path d="M28 16L1.326 6.472C.53 6.19 0 5.436 0 4.592L0 0 46 0 46 14C46 15.106 45.104 16 44 16L42 16C42 14.344 38.484 13 35 13 30.58 13 28 14.344 28 16L28 16zM46 4L0 4M22.8476 14.1602L24.9996 12.0002M19.1562 12.8418L21.0002 10.9998"/>
        <path d="M12 10.2852C12 9.1812 12.894 7.9992 14 7.9992L20 7.9992C21.654 7.9992 23 6.6592 23 4.9992L23 3.9992M40 4C40 7.314 42.684 10 46 10"/>
      </g>
    </g>
  </g>
</svg>
