<svg xmlns="http://www.w3.org/2000/svg" viewBox="0 0 48 48"><g stroke-width="2" stroke-linecap="round" stroke-linejoin="round" fill="none" fill-rule="evenodd"><g stroke="#95999D"><path d="M1.025 47h46M9.026 37h-6v10h6zM21.026 27h-6v20h6zM33.026 31h-6v16h6zM45.026 17h-6v30h6z"/></g><path d="M8.025 23a2 2 0 1 1-3.998.001A2 2 0 0 1 8.025 23h0zm12-10a2 2 0 1 1-3.998.001A2 2 0 0 1 20.025 13h0zm12 4a2 2 0 1 1-3.998.001A2 2 0 0 1 32.025 17h0zm12-14a2 2 0 1 1-3.998.001A2 2 0 0 1 44.025 3h0zM7.563 21.72l8.928-7.441m3.425-.65l8.27 2.757M40.725 4.518L31.327 15.48" stroke="currentColor"/></g></svg>