<svg xmlns="http://www.w3.org/2000/svg" width="48" height="36" viewBox="0 0 48 36">
  <path fill="#35CE68" fill-rule="evenodd" d="M12,42 C5.372583,42 0,36.627417 0,30 C0,23.6974133 4.85883551,18.5296684 11.0350374,18.0382346 C11.5272308,11.3076421 17.1437823,6 24,6 C30.8562177,6 36.4727692,11.3076421 36.9649626,18.0382346 C43.1411645,18.5296684 48,23.6974133 48,30 C48,36.627417 42.627417,42 36,42 L12,42 Z M18.0068455,33 L29.9931545,33 C30.5500512,33 31,32.553384 31,32.0024554 L31,24.9975446 C31,24.4463114 30.5522847,24 30,24 L29,24 L29,21.9940809 C29,19.2340897 26.7614237,17 24,17 C21.2441952,17 19,19.2359262 19,21.9940809 L19,24 L18,24 C17.4438648,24 17,24.446616 17,24.9975446 L17,32.0024554 C17,32.5536886 17.4507801,33 18.0068455,33 Z M21,24 L21,22 C21,22 21,19 24,19 C27,19 27,22 27,22 L27,24 L21,24 Z M23,27.9989566 C23,27.4472481 23.4438648,27 24,27 C24.5522847,27 25,27.4426603 25,27.9989566 L25,29.0010434 C25,29.5527519 24.5561352,30 24,30 C23.4477153,30 23,29.5573397 23,29.0010434 L23,27.9989566 Z" transform="translate(0 -6)"/>
</svg>
