<svg width="120" height="61" viewBox="0 0 120 61" xmlns="http://www.w3.org/2000/svg"><title>sosh</title><path d="M112.33 18.215l-1.064 2.347-1.076-2.36-.61 3.12h.397l.346-1.91.94 2.016.91-2.024.362 1.918h.414l-.62-3.107zm-3.896 3.107h.415v-2.655h.666v-.393h-1.742v.393h.66v2.655zm-7.398-1.06c-5.02 0-7.487 3.85-7.487 3.85v-9.707h-7.786v32.053h7.867V31.77c0-2.468 2.093-4.52 4.605-4.52 3.43 0 4.017 2.01 4.017 4.145v15.063h8.03V28.8c0-4.853-4.14-8.537-9.246-8.537zm-28.922 7.785c0-1.005.795-1.548 2.052-1.548 2.26 0 3.18 2.006 3.18 2.006l5.9-2.593c-1.59-3.6-4.73-5.65-8.413-5.65-5.688 0-9.833 3.39-9.833 8.37 0 9.038 11.507 7.364 11.507 10.542 0 1.216-1.506 1.802-2.76 1.802-2.302 0-3.6-2.26-3.6-2.26l-5.983 3.013c2.008 3.766 5.188 5.356 9.5 5.356 5.44 0 10.292-2.97 10.292-8.537 0-8.787-11.842-7.617-11.842-10.503zm-22.367-7.784c-7.908 0-14.06 5.775-14.06 13.474 0 7.154 6.026 13.6 13.893 13.6 8.37 0 14.017-5.9 14.017-13.726 0-7.74-6.067-13.347-13.85-13.347zm-22.96 7.24c-.837-.335-2.47-1.004-3.473-1.382-1.674-.625-3.64-1.21-3.64-2.927 0-1.673 1.17-2.803 3.222-2.803 3.097 0 6.444 2.552 6.444 2.552l3.262-6.277c-2.3-1.506-6.11-3.43-10.25-3.43-5.692 0-11.006 3.807-11.006 10.21 0 4.518 2.22 7.406 6.278 9.247 1.38.627 3.764 1.548 4.77 1.923 3.138 1.173 3.347 1.8 3.347 3.138 0 1.717-2.3 2.512-4.643 2.512-3.056 0-5.985-1.716-7.532-3.097-.712 1.214-3.346 6.486-3.346 6.486 3.345 2.092 6.526 3.976 11.045 3.976 6.44 0 12.803-3.6 12.803-10.462 0-4.81-2.47-7.74-7.28-9.665zM120 52.448L3.782 60.825 0 8.375 116.217 0 120 52.448z" fill="#03A0AA" fill-rule="evenodd"/></svg>
